<?xml version="1.0" encoding="UTF-8"?>
<svg 
xmlns:xlink="http://www.w3.org/1999/xlink" 
style="fill-opacity:1; color-rendering:auto; color-interpolation:auto; stroke:black; text-rendering:auto; stroke-linecap:square; stroke-miterlimit:10; stroke-opacity:1; shape-rendering:auto; fill:black; stroke-dasharray:none; font-weight:normal; stroke-width:1; font-family:&apos;Dialog&apos;; font-style:normal; stroke-linejoin:miter; font-size:12; stroke-dashoffset:0; image-rendering:auto;" xmlns="http://www.w3.org/2000/svg">

  <g transform="matrix(1,0,0,1,0,0)">
    <g style="text-rendering:optimizeLegibility; stroke-width:2.83; stroke-miterlimit:14.335; stroke-linecap:butt;" transform="matrix(6.548,0,0,6.376,0,0)">

<!-- page -->
<circle cx="200" cy="200" r="100" style="fill: green;"/>
<path d="M5.5111 8.0447 L5.4799 8.1853 L5.0424 8.1853 L5.0424 8.1228 L5.0424 8.1228 C5.1517 7.9978 5.2455 7.9197 5.2924 7.8572 C5.3549 7.7791 5.3705 7.7166 5.3705 7.6385 C5.3705 7.5447 5.3392 7.4978 5.2455 7.4978 C5.1986 7.4978 5.1674 7.5135 5.1517 7.5291 L5.1361 7.5603 C5.1205 7.576 5.1205 7.576 5.1049 7.576 C5.058 7.576 5.0424 7.5603 5.0424 7.5291 C5.0424 7.4822 5.1361 7.4353 5.2455 7.4353 C5.4017 7.4353 5.4799 7.5135 5.4799 7.6385 C5.4799 7.7322 5.4486 7.8103 5.3549 7.9041 C5.308 7.951 5.2611 7.9978 5.1674 8.076 L5.1361 8.1072 L5.3549 8.1072 C5.3705 8.1072 5.3861 8.1072 5.3861 8.1072 C5.4174 8.1072 5.433 8.0916 5.4486 8.076 L5.4799 8.0447 Z" style="clip-path:url(#clipPath4); fill:red; stroke:none; stroke-width:1;" transform="matrix(1,0,0,1,0,0)"/>
<path d="M6.0941 8.0447 L6.0629 8.1853 L5.6254 8.1853 L5.6254 8.1228 L5.6254 8.1228 C5.7347 7.9978 5.8285 7.9197 5.8754 7.8572 C5.9379 7.7791 5.9535 7.7166 5.9535 7.6385 C5.9535 7.5447 5.9222 7.4978 5.8285 7.4978 C5.7816 7.4978 5.7504 7.5135 5.7347 7.5291 L5.7191 7.5603 C5.7035 7.576 5.7035 7.576 5.6879 7.576 C5.641 7.576 5.6254 7.5603 5.6254 7.5291 C5.6254 7.4822 5.7191 7.4353 5.8285 7.4353 C5.9847 7.4353 6.0629 7.5135 6.0629 7.6385 C6.0629 7.7322 6.0316 7.8103 5.9379 7.9041 C5.891 7.951 5.8441 7.9978 5.7504 8.076 L5.7191 8.1072 L5.9379 8.1072 C5.9535 8.1072 5.9691 8.1072 5.9691 8.1072 C6.0004 8.1072 6.016 8.0916 6.0316 8.076 L6.0629 8.0447 Z" style="clip-path:url(#clipPath4); fill:black; stroke:none; stroke-width:1;" transform="matrix(1,0,0,1,0,0)"/>
<path d="M6.6771 8.0447 L6.6459 8.1853 L6.2084 8.1853 L6.2084 8.1228 L6.2084 8.1228 C6.3177 7.9978 6.4115 7.9197 6.4584 7.8572 C6.5209 7.7791 6.5365 7.7166 6.5365 7.6385 C6.5365 7.5447 6.5052 7.4978 6.4115 7.4978 C6.3646 7.4978 6.3334 7.5135 6.3177 7.5291 L6.3021 7.5603 C6.2865 7.576 6.2865 7.576 6.2709 7.576 C6.224 7.576 6.2084 7.5603 6.2084 7.5291 C6.2084 7.4822 6.3021 7.4353 6.4115 7.4353 C6.5677 7.4353 6.6459 7.5135 6.6459 7.6385 C6.6459 7.7322 6.6146 7.8103 6.5209 7.9041 C6.474 7.951 6.4271 7.9978 6.3334 8.076 L6.3021 8.1072 L6.5209 8.1072 C6.5365 8.1072 6.5521 8.1072 6.5521 8.1072 C6.5834 8.1072 6.599 8.0916 6.6146 8.076 L6.6459 8.0447 Z" style="clip-path:url(#clipPath4); fill:green; stroke:none; stroke-width:1;" transform="matrix(1,0,0,1,0,0)"/>
</g>
</g>

</svg>