<?xml version="1.0" encoding="UTF-8"?>
<!DOCTYPE svg PUBLIC '-//W3C//DTD SVG 1.0//EN'
          'http://www.w3.org/TR/2001/REC-SVG-20010904/DTD/svg10.dtd'>
<svg 
xmlns:xlink="http://www.w3.org/1999/xlink" 
style="fill-opacity:1; color-rendering:auto; color-interpolation:auto; stroke:black; text-rendering:auto; stroke-linecap:square; stroke-miterlimit:10; stroke-opacity:1; shape-rendering:auto; fill:black; stroke-dasharray:none; font-weight:normal; stroke-width:1; font-family:&apos;Dialog&apos;; font-style:normal; stroke-linejoin:miter; font-size:12; stroke-dashoffset:0; image-rendering:auto;" xmlns="http://www.w3.org/2000/svg">
<!--Generated by the Batik Graphics2D SVG Generator--><defs id="genericDefs"/>

  <g transform="matrix(1,0,0,1,0,0)">
    <g style="text-rendering:optimizeLegibility; stroke-width:2.83; stroke-miterlimit:14.335; stroke-linecap:butt;" transform="matrix(6.548,0,0,6.376,0,0)">
      <!-- title -->
<path d="M28.1132 7.4666 L28.0819 7.4822 C28.0663 7.4978 28.0663 7.5135 28.0507 7.576 L27.9726 8.0603 C27.9726 8.0916 27.9726 8.1072 27.9726 8.1072 C27.9726 8.1228 27.9726 8.1385 27.9882 8.1541 L28.0194 8.1697 L28.0038 8.1853 L27.8163 8.1853 L27.8163 8.1697 L27.8476 8.1541 C27.8632 8.1385 27.8632 8.1228 27.8788 8.0603 L27.9569 7.576 C27.9569 7.5447 27.9569 7.5291 27.9569 7.5291 C27.9569 7.5135 27.9569 7.4978 27.9413 7.4822 L27.9101 7.4666 L27.9257 7.451 L28.1132 7.451 Z" style="clip-path:url(#clipPath4); stroke:none;" transform="matrix(1,0,0,1,0,0)"/>
<path d="M28.1808 8.201 C28.1339 8.201 28.1183 8.1853 28.1183 8.1385 C28.1183 8.0916 28.1496 8.076 28.1964 8.076 C28.2277 8.076 28.2433 8.0916 28.2433 8.1228 C28.2433 8.1697 28.2277 8.201 28.1808 8.201 Z" style="clip-path:url(#clipPath4); stroke:none;" transform="matrix(1,0,0,1,0,0)"/>
<path d="M28.4567 7.451 L28.6598 7.451 L28.6598 7.4666 L28.6286 7.4822 C28.5973 7.4978 28.5973 7.5135 28.5817 7.576 L28.5036 8.1385 C28.4879 8.2478 28.4723 8.2791 28.4411 8.326 C28.4098 8.3728 28.3473 8.3885 28.2692 8.3885 C28.2223 8.3885 28.1911 8.3728 28.1911 8.3416 C28.1911 8.3103 28.2223 8.2947 28.2536 8.2947 C28.2692 8.2947 28.2692 8.2947 28.2848 8.3103 L28.3004 8.326 C28.3004 8.3416 28.3161 8.3416 28.3161 8.3416 C28.3473 8.3416 28.3629 8.326 28.3786 8.2947 C28.3786 8.2791 28.3786 8.2635 28.3942 8.2166 L28.4879 7.576 C28.4879 7.5447 28.4879 7.5291 28.4879 7.5291 C28.4879 7.5135 28.4879 7.4978 28.4723 7.4822 L28.4567 7.4666 Z" style="clip-path:url(#clipPath4); stroke:none;" transform="matrix(1,0,0,1,0,0)"/>
<path d="M28.7118 8.201 C28.6649 8.201 28.6493 8.1853 28.6493 8.1385 C28.6493 8.0916 28.6806 8.076 28.7274 8.076 C28.7587 8.076 28.7743 8.0916 28.7743 8.1228 C28.7743 8.1697 28.7587 8.201 28.7118 8.201 Z" style="clip-path:url(#clipPath4); stroke:none;" transform="matrix(1,0,0,1,0,0)"/>
<path d="M29.5141 7.4666 L29.4672 7.4978 C29.4516 7.4978 29.4516 7.5135 29.436 7.576 L29.3579 8.1385 L29.4516 8.1385 C29.4829 8.1385 29.4985 8.1228 29.5141 8.1228 C29.5297 8.1228 29.5454 8.1072 29.561 8.1072 L29.6235 8.0447 L29.6547 8.0447 L29.5922 8.1853 L29.2016 8.1853 L29.2016 8.1697 L29.2172 8.1541 C29.2485 8.1385 29.2485 8.1228 29.2641 8.0603 L29.3422 7.576 C29.3422 7.5447 29.3422 7.5291 29.3422 7.5291 C29.3422 7.5135 29.3422 7.4978 29.3266 7.4822 L29.2954 7.4666 L29.311 7.451 L29.5141 7.451 Z" style="clip-path:url(#clipPath4); stroke:none;" transform="matrix(1,0,0,1,0,0)"/>
<path d="M30.1494 7.8572 C30.1494 8.0447 30.04 8.201 29.8994 8.201 C29.7744 8.201 29.7119 8.1228 29.7119 7.9822 C29.7119 7.7791 29.8212 7.6385 29.9619 7.6385 C30.0869 7.6385 30.1494 7.7166 30.1494 7.8572 ZM29.9619 7.6853 C29.8681 7.6853 29.8056 7.826 29.8056 7.9822 C29.8056 8.0916 29.8369 8.1385 29.8994 8.1385 C29.9931 8.1385 30.0556 8.0135 30.0556 7.8416 C30.0556 7.7322 30.0244 7.6853 29.9619 7.6853 Z" style="clip-path:url(#clipPath4); stroke:none;" transform="matrix(1,0,0,1,0,0)"/>
<path d="M30.2116 7.7166 L30.2272 7.7166 C30.2585 7.6697 30.2897 7.6385 30.3366 7.6385 C30.3522 7.6385 30.3679 7.6385 30.3835 7.6541 C30.3835 7.6853 30.3991 7.701 30.4147 7.826 L30.4304 8.1072 C30.4304 8.1072 30.4929 7.9978 30.5241 7.9197 C30.5866 7.8103 30.6022 7.7635 30.6022 7.7478 C30.6022 7.7322 30.6022 7.7322 30.6022 7.7166 L30.5866 7.7166 C30.5866 7.701 30.5866 7.701 30.5866 7.6853 C30.5866 7.6541 30.6022 7.6385 30.6491 7.6385 C30.6804 7.6385 30.696 7.6541 30.696 7.6853 C30.696 7.7166 30.6804 7.7635 30.6491 7.826 C30.5866 7.9353 30.446 8.1853 30.446 8.1853 L30.3679 8.1853 L30.3054 7.7478 C30.2897 7.7166 30.2897 7.701 30.2741 7.701 C30.2741 7.701 30.2585 7.7166 30.2429 7.7166 L30.2272 7.7322 L30.2272 7.7322 Z" style="clip-path:url(#clipPath4); stroke:none;" transform="matrix(1,0,0,1,0,0)"/>
<path d="M31.1066 8.076 L31.1222 8.0916 C31.0441 8.1697 30.9972 8.201 30.9191 8.201 C30.8097 8.201 30.7629 8.1228 30.7629 7.9822 C30.7629 7.7791 30.8722 7.6385 31.0285 7.6385 C31.1222 7.6385 31.1691 7.6697 31.1691 7.7478 C31.1691 7.8728 31.0754 7.9197 30.8566 7.9197 L30.8566 7.9197 L30.8566 7.9197 C30.8566 7.951 30.8566 7.9666 30.8566 7.9822 C30.8566 8.0916 30.8879 8.1228 30.966 8.1228 C30.9972 8.1228 31.0441 8.1072 31.091 8.076 ZM30.8566 7.8885 C30.8879 7.8885 30.9191 7.8728 30.9504 7.8728 C31.0285 7.8572 31.0754 7.826 31.0754 7.7478 C31.0754 7.7166 31.0441 7.6853 31.0129 7.6853 C30.9347 7.6853 30.8722 7.7635 30.8566 7.8885 Z" style="clip-path:url(#clipPath4); stroke:none;" transform="matrix(1,0,0,1,0,0)"/>
<path d="M31.4137 7.701 L31.3512 8.0447 C31.3512 8.0603 31.3512 8.076 31.3512 8.076 C31.3512 8.1072 31.3669 8.1228 31.3981 8.1228 C31.4294 8.1228 31.4606 8.1228 31.4919 8.0916 L31.5075 8.1228 C31.445 8.1697 31.4137 8.201 31.3512 8.201 C31.2887 8.201 31.2575 8.1697 31.2575 8.1072 C31.2575 8.0916 31.2575 8.076 31.2575 8.0603 L31.32 7.701 L31.2575 7.701 L31.2731 7.6697 L31.2731 7.6697 C31.2887 7.6541 31.3044 7.6541 31.32 7.6385 C31.3512 7.6228 31.3669 7.576 31.3981 7.5291 L31.445 7.5291 L31.4137 7.6385 L31.57 7.6385 L31.57 7.701 Z" style="clip-path:url(#clipPath4); stroke:none;" transform="matrix(1,0,0,1,0,0)"/>
<path d="M31.7677 7.701 L31.7052 8.0447 C31.7052 8.0603 31.7052 8.076 31.7052 8.076 C31.7052 8.1072 31.7209 8.1228 31.7521 8.1228 C31.7834 8.1228 31.8146 8.1228 31.8459 8.0916 L31.8615 8.1228 C31.799 8.1697 31.7677 8.201 31.7052 8.201 C31.6427 8.201 31.6115 8.1697 31.6115 8.1072 C31.6115 8.0916 31.6115 8.076 31.6115 8.0603 L31.674 7.701 L31.6115 7.701 L31.6271 7.6697 L31.6271 7.6697 C31.6427 7.6541 31.6584 7.6541 31.674 7.6385 C31.7052 7.6228 31.7209 7.576 31.7521 7.5291 L31.799 7.5291 L31.7677 7.6385 L31.924 7.6385 L31.924 7.701 Z" style="clip-path:url(#clipPath4); stroke:none;" transform="matrix(1,0,0,1,0,0)"/>
<path d="M32.2936 8.076 L32.3092 8.0916 C32.2311 8.1697 32.1842 8.201 32.1061 8.201 C31.9967 8.201 31.9499 8.1228 31.9499 7.9822 C31.9499 7.7791 32.0592 7.6385 32.2155 7.6385 C32.3092 7.6385 32.3561 7.6697 32.3561 7.7478 C32.3561 7.8728 32.2624 7.9197 32.0436 7.9197 L32.0436 7.9197 L32.0436 7.9197 C32.0436 7.951 32.0436 7.9666 32.0436 7.9822 C32.0436 8.0916 32.0749 8.1228 32.153 8.1228 C32.1842 8.1228 32.2311 8.1072 32.278 8.076 ZM32.0436 7.8885 C32.0749 7.8885 32.1061 7.8728 32.1374 7.8728 C32.2155 7.8572 32.2624 7.826 32.2624 7.7478 C32.2624 7.7166 32.2311 7.6853 32.1999 7.6853 C32.1217 7.6853 32.0592 7.7635 32.0436 7.8885 Z" style="clip-path:url(#clipPath4); stroke:none;" transform="matrix(1,0,0,1,0,0)"/>
<path d="M33.1005 8.076 L33.1161 8.0916 C33.038 8.1697 32.9911 8.201 32.913 8.201 C32.8036 8.201 32.7568 8.1228 32.7568 7.9822 C32.7568 7.7791 32.8661 7.6385 33.0224 7.6385 C33.1161 7.6385 33.163 7.6697 33.163 7.7478 C33.163 7.8728 33.0693 7.9197 32.8505 7.9197 L32.8505 7.9197 L32.8505 7.9197 C32.8505 7.951 32.8505 7.9666 32.8505 7.9822 C32.8505 8.0916 32.8818 8.1228 32.9599 8.1228 C32.9911 8.1228 33.038 8.1072 33.0849 8.076 ZM32.8505 7.8885 C32.8818 7.8885 32.913 7.8728 32.9443 7.8728 C33.0224 7.8572 33.0693 7.826 33.0693 7.7478 C33.0693 7.7166 33.038 7.6853 33.0068 7.6853 C32.9286 7.6853 32.8661 7.7635 32.8505 7.8885 Z" style="clip-path:url(#clipPath4); stroke:none;" transform="matrix(1,0,0,1,0,0)"/>
<path d="M33.4076 7.701 L33.3451 8.0447 C33.3451 8.0603 33.3451 8.076 33.3451 8.076 C33.3451 8.1072 33.3608 8.1228 33.392 8.1228 C33.4233 8.1228 33.4545 8.1228 33.4858 8.0916 L33.5014 8.1228 C33.4389 8.1697 33.4076 8.201 33.3451 8.201 C33.2826 8.201 33.2514 8.1697 33.2514 8.1072 C33.2514 8.0916 33.2514 8.076 33.2514 8.0603 L33.3139 7.701 L33.2514 7.701 L33.267 7.6697 L33.267 7.6697 C33.2826 7.6541 33.2983 7.6541 33.3139 7.6385 C33.3451 7.6228 33.3608 7.576 33.392 7.5291 L33.4389 7.5291 L33.4076 7.6385 L33.5639 7.6385 L33.5639 7.701 Z" style="clip-path:url(#clipPath4); stroke:none;" transform="matrix(1,0,0,1,0,0)"/>
<path d="M34.1982 8.076 L34.1982 8.0916 C34.1357 8.1697 34.0888 8.201 34.042 8.201 C33.9482 8.201 33.917 8.1385 33.917 8.0135 C33.917 7.7947 34.0107 7.6385 34.167 7.6385 C34.2138 7.6385 34.2451 7.6385 34.2763 7.6541 L34.3545 7.6385 L34.292 8.0447 C34.292 8.076 34.292 8.0916 34.292 8.1072 C34.292 8.1228 34.292 8.1228 34.3076 8.1228 C34.3232 8.1228 34.3388 8.1228 34.3545 8.0916 L34.3701 8.1072 C34.3388 8.1697 34.292 8.201 34.2451 8.201 C34.2138 8.201 34.1982 8.1697 34.1982 8.1385 C34.1982 8.1385 34.1982 8.1228 34.1982 8.1228 ZM34.2607 7.701 C34.2451 7.6853 34.2138 7.6853 34.1982 7.6853 C34.1513 7.6853 34.1045 7.701 34.0732 7.7322 C34.0263 7.7947 34.0107 7.8885 34.0107 7.9978 C34.0107 8.0916 34.0263 8.1228 34.0732 8.1228 C34.1045 8.1228 34.1357 8.1072 34.1982 8.0603 L34.1982 8.0603 Z" style="clip-path:url(#clipPath4); stroke:none;" transform="matrix(1,0,0,1,0,0)"/>
<path d="M34.5105 7.451 L34.5105 7.4197 L34.6667 7.4041 L34.5573 8.0447 C34.5573 8.076 34.5573 8.0916 34.5573 8.1072 C34.5573 8.1228 34.5573 8.1228 34.573 8.1228 C34.5886 8.1228 34.6042 8.1072 34.6198 8.0916 L34.6355 8.1072 C34.5886 8.1697 34.5573 8.201 34.5105 8.201 C34.4792 8.201 34.448 8.1697 34.448 8.1385 C34.448 8.1228 34.4636 8.1228 34.4636 8.1072 L34.5417 7.5291 C34.5573 7.5135 34.5573 7.4978 34.5573 7.4978 C34.5573 7.4822 34.5417 7.4666 34.5417 7.451 Z" style="clip-path:url(#clipPath4); stroke:none;" transform="matrix(1,0,0,1,0,0)"/>
<path d="M34.7492 8.201 C34.7023 8.201 34.6867 8.1853 34.6867 8.1385 C34.6867 8.0916 34.718 8.076 34.7648 8.076 C34.7961 8.076 34.8117 8.0916 34.8117 8.1228 C34.8117 8.1697 34.7961 8.201 34.7492 8.201 Z" style="clip-path:url(#clipPath4); stroke:none;" transform="matrix(1,0,0,1,0,0)"/>
<path d="M34.9868 8.3885 L35.3461 7.4041 L35.4243 7.4041 L35.0649 8.3885 Z" style="clip-path:url(#clipPath4); stroke:none;" transform="matrix(1,0,0,1,0,0)"/>
<path d="M35.6574 7.451 L35.8449 7.451 L35.9543 7.9978 C35.9543 8.0135 35.9543 8.076 35.9543 8.076 C35.9543 8.0447 35.9699 8.0291 35.9855 7.9978 L36.2511 7.451 L36.4386 7.451 L36.4386 7.4666 L36.4074 7.4822 C36.3918 7.4978 36.3761 7.5135 36.3761 7.576 L36.298 8.0603 C36.298 8.0916 36.298 8.1072 36.298 8.1072 C36.298 8.1228 36.298 8.1385 36.3136 8.1541 L36.3293 8.1697 L36.3293 8.1853 L36.1418 8.1853 L36.1418 8.1697 L36.1574 8.1541 C36.1886 8.1385 36.1886 8.1228 36.2043 8.0603 L36.298 7.4822 C36.2824 7.5291 36.2668 7.5447 36.2511 7.576 L35.9543 8.1853 L35.8918 8.1853 L35.7668 7.576 C35.7668 7.5447 35.7668 7.5291 35.7668 7.4822 L35.673 8.0603 C35.673 8.0916 35.673 8.1072 35.673 8.1072 C35.673 8.1228 35.673 8.1385 35.6886 8.1541 L35.7199 8.1697 L35.7199 8.1853 L35.548 8.1853 L35.548 8.1697 L35.5636 8.1541 C35.5949 8.1385 35.5949 8.1228 35.6105 8.0603 L35.6886 7.576 C35.6886 7.5447 35.6886 7.5291 35.6886 7.5291 C35.6886 7.5135 35.6886 7.4978 35.673 7.4822 L35.6418 7.4666 Z" style="clip-path:url(#clipPath4); stroke:none;" transform="matrix(1,0,0,1,0,0)"/>
<path d="M36.9018 7.8572 C36.9018 8.0447 36.7924 8.201 36.6518 8.201 C36.5268 8.201 36.4643 8.1228 36.4643 7.9822 C36.4643 7.7791 36.5736 7.6385 36.7143 7.6385 C36.8393 7.6385 36.9018 7.7166 36.9018 7.8572 ZM36.7143 7.6853 C36.6205 7.6853 36.558 7.826 36.558 7.9822 C36.558 8.0916 36.5893 8.1385 36.6518 8.1385 C36.7455 8.1385 36.808 8.0135 36.808 7.8416 C36.808 7.7322 36.7768 7.6853 36.7143 7.6853 Z" style="clip-path:url(#clipPath4); stroke:none;" transform="matrix(1,0,0,1,0,0)"/>
<path d="M37.0578 7.451 L37.0578 7.4197 L37.214 7.4041 L37.1046 8.0447 C37.1046 8.076 37.1046 8.0916 37.1046 8.1072 C37.1046 8.1228 37.1046 8.1228 37.1203 8.1228 C37.1359 8.1228 37.1515 8.1072 37.1671 8.0916 L37.1828 8.1072 C37.1359 8.1697 37.1046 8.201 37.0578 8.201 C37.0265 8.201 36.9953 8.1697 36.9953 8.1385 C36.9953 8.1228 37.0109 8.1228 37.0109 8.1072 L37.089 7.5291 C37.1046 7.5135 37.1046 7.4978 37.1046 7.4978 C37.1046 7.4822 37.089 7.4666 37.089 7.451 Z" style="clip-path:url(#clipPath4); stroke:none;" transform="matrix(1,0,0,1,0,0)"/>
<path d="M37.609 8.076 L37.6246 8.0916 C37.5465 8.1697 37.4996 8.201 37.4215 8.201 C37.3121 8.201 37.2653 8.1228 37.2653 7.9822 C37.2653 7.7791 37.3746 7.6385 37.5309 7.6385 C37.6246 7.6385 37.6715 7.6697 37.6715 7.7478 C37.6715 7.8728 37.5778 7.9197 37.359 7.9197 L37.359 7.9197 L37.359 7.9197 C37.359 7.951 37.359 7.9666 37.359 7.9822 C37.359 8.0916 37.3903 8.1228 37.4684 8.1228 C37.4996 8.1228 37.5465 8.1072 37.5934 8.076 ZM37.359 7.8885 C37.3903 7.8885 37.4215 7.8728 37.4528 7.8728 C37.5309 7.8572 37.5778 7.826 37.5778 7.7478 C37.5778 7.7166 37.5465 7.6853 37.5153 7.6853 C37.4371 7.6853 37.3746 7.7635 37.359 7.8885 Z" style="clip-path:url(#clipPath4); stroke:none;" transform="matrix(1,0,0,1,0,0)"/>
<path d="M38.088 8.076 L38.088 8.0916 C38.0255 8.1697 37.9786 8.201 37.9005 8.201 C37.7911 8.201 37.7443 8.1228 37.7443 7.9822 C37.7443 7.7791 37.8536 7.6385 38.0255 7.6385 C38.1036 7.6385 38.1505 7.6541 38.1505 7.701 C38.1505 7.7322 38.1349 7.7478 38.1036 7.7478 C38.088 7.7478 38.0724 7.7478 38.0724 7.7322 L38.0568 7.701 C38.0411 7.6853 38.0411 7.6853 38.0099 7.6853 C37.9005 7.6853 37.838 7.8103 37.838 7.9822 C37.838 8.076 37.8693 8.1228 37.9318 8.1228 C37.9786 8.1228 38.0255 8.1072 38.0724 8.076 Z" style="clip-path:url(#clipPath4); stroke:none;" transform="matrix(1,0,0,1,0,0)"/>
<path d="M38.5975 8.1072 C38.5975 8.1228 38.5975 8.1228 38.6131 8.1228 C38.6131 8.1228 38.6444 8.1072 38.66 8.0916 L38.6756 8.1072 C38.6288 8.1697 38.5975 8.201 38.5506 8.201 C38.5194 8.201 38.5038 8.1697 38.5038 8.1385 C38.5038 8.1385 38.5038 8.1228 38.5038 8.1072 L38.5038 8.076 C38.4413 8.1541 38.3788 8.201 38.3163 8.201 C38.2538 8.201 38.2069 8.1697 38.2069 8.1072 C38.2069 8.0916 38.2069 8.0603 38.2225 8.0291 L38.2694 7.7791 C38.2694 7.7478 38.2694 7.7322 38.2694 7.7322 C38.2694 7.7166 38.2694 7.701 38.2538 7.701 C38.2381 7.701 38.1913 7.7322 38.1913 7.7322 L38.1756 7.7166 C38.2225 7.6541 38.2694 7.6385 38.3163 7.6385 C38.3475 7.6385 38.3631 7.6541 38.3631 7.6853 C38.3631 7.701 38.3631 7.7166 38.3631 7.7166 L38.3163 8.0291 C38.3006 8.0603 38.3006 8.076 38.3006 8.076 C38.3006 8.1072 38.3163 8.1228 38.3475 8.1228 C38.3944 8.1228 38.4413 8.0916 38.5038 8.0447 L38.5663 7.6385 L38.66 7.6385 L38.5975 8.0603 C38.5975 8.076 38.5975 8.0916 38.5975 8.1072 Z" style="clip-path:url(#clipPath4); stroke:none;" transform="matrix(1,0,0,1,0,0)"/>
<path d="M38.8258 7.451 L38.8258 7.4197 L38.982 7.4041 L38.8726 8.0447 C38.8726 8.076 38.8726 8.0916 38.8726 8.1072 C38.8726 8.1228 38.8726 8.1228 38.8883 8.1228 C38.9039 8.1228 38.9195 8.1072 38.9351 8.0916 L38.9508 8.1072 C38.9039 8.1697 38.8726 8.201 38.8258 8.201 C38.7945 8.201 38.7633 8.1697 38.7633 8.1385 C38.7633 8.1228 38.7789 8.1228 38.7789 8.1072 L38.857 7.5291 C38.8726 7.5135 38.8726 7.4978 38.8726 7.4978 C38.8726 7.4822 38.857 7.4666 38.857 7.451 Z" style="clip-path:url(#clipPath4); stroke:none;" transform="matrix(1,0,0,1,0,0)"/>
<path d="M39.3145 8.076 L39.3145 8.0916 C39.252 8.1697 39.2051 8.201 39.1583 8.201 C39.0645 8.201 39.0333 8.1385 39.0333 8.0135 C39.0333 7.7947 39.127 7.6385 39.2833 7.6385 C39.3301 7.6385 39.3614 7.6385 39.3926 7.6541 L39.4708 7.6385 L39.4083 8.0447 C39.4083 8.076 39.4083 8.0916 39.4083 8.1072 C39.4083 8.1228 39.4083 8.1228 39.4239 8.1228 C39.4395 8.1228 39.4551 8.1228 39.4708 8.0916 L39.4864 8.1072 C39.4551 8.1697 39.4083 8.201 39.3614 8.201 C39.3301 8.201 39.3145 8.1697 39.3145 8.1385 C39.3145 8.1385 39.3145 8.1228 39.3145 8.1228 ZM39.377 7.701 C39.3614 7.6853 39.3301 7.6853 39.3145 7.6853 C39.2676 7.6853 39.2208 7.701 39.1895 7.7322 C39.1426 7.7947 39.127 7.8885 39.127 7.9978 C39.127 8.0916 39.1426 8.1228 39.1895 8.1228 C39.2208 8.1228 39.252 8.1072 39.3145 8.0603 L39.3145 8.0603 Z" style="clip-path:url(#clipPath4); stroke:none;" transform="matrix(1,0,0,1,0,0)"/>
<path d="M39.7205 7.7635 L39.7361 7.7635 C39.783 7.6697 39.8299 7.6385 39.8768 7.6385 C39.9236 7.6385 39.9393 7.6541 39.9393 7.6853 C39.9393 7.7166 39.9236 7.7478 39.8924 7.7478 C39.8768 7.7478 39.8768 7.7478 39.8768 7.7478 C39.8768 7.7478 39.8768 7.7478 39.8611 7.7322 L39.8611 7.7322 C39.8455 7.7166 39.8299 7.7166 39.8299 7.7166 C39.8143 7.7166 39.7986 7.7322 39.7674 7.7478 C39.7518 7.7635 39.7361 7.7791 39.7361 7.7947 L39.6736 8.1853 L39.5799 8.1853 L39.6424 7.7791 C39.6424 7.7478 39.6424 7.7322 39.6424 7.7166 C39.6424 7.7166 39.6424 7.701 39.6268 7.701 C39.6111 7.701 39.5955 7.7166 39.5799 7.7322 L39.5643 7.7322 L39.5643 7.7166 C39.5955 7.6697 39.6424 7.6385 39.6893 7.6385 C39.7205 7.6385 39.7361 7.6541 39.7361 7.6853 C39.7361 7.701 39.7361 7.701 39.7361 7.701 Z" style="clip-path:url(#clipPath4); stroke:none;" transform="matrix(1,0,0,1,0,0)"/>
<path d="M40.4769 7.8416 L40.4769 7.826 C40.4925 7.826 40.5081 7.826 40.5237 7.826 C40.6487 7.826 40.7112 7.7635 40.7112 7.6228 C40.7112 7.5291 40.6644 7.4978 40.555 7.4978 C40.5394 7.4978 40.5081 7.4978 40.5081 7.4978 L40.4144 8.0603 C40.4144 8.0916 40.4144 8.1072 40.4144 8.1072 C40.4144 8.1228 40.4144 8.1385 40.43 8.1541 L40.4612 8.1697 L40.4612 8.1853 L40.2581 8.1853 L40.2581 8.1697 L40.2737 8.1541 C40.305 8.1385 40.305 8.1228 40.3206 8.0603 L40.3987 7.576 C40.3987 7.5447 40.3987 7.5291 40.3987 7.5291 C40.3987 7.5135 40.3987 7.4978 40.3831 7.4822 L40.3519 7.4666 L40.3675 7.451 L40.555 7.451 C40.6019 7.451 40.6331 7.451 40.6644 7.451 C40.7581 7.4666 40.805 7.5291 40.805 7.6385 C40.805 7.7791 40.7112 7.8728 40.5706 7.8728 C40.5394 7.8728 40.5081 7.8572 40.4769 7.8416 Z" style="clip-path:url(#clipPath4); stroke:none;" transform="matrix(1,0,0,1,0,0)"/>
<path d="M40.9866 7.7635 C41.0491 7.6697 41.1116 7.6385 41.1741 7.6385 C41.2366 7.6385 41.2835 7.6697 41.2835 7.7166 C41.2835 7.7478 41.2679 7.7635 41.2679 7.7947 L41.221 8.0447 C41.221 8.076 41.221 8.0916 41.221 8.1072 C41.221 8.1228 41.221 8.1228 41.2366 8.1228 C41.2522 8.1228 41.2679 8.1072 41.2835 8.0916 L41.2991 8.0916 L41.2991 8.1072 C41.2679 8.1697 41.221 8.201 41.1741 8.201 C41.1429 8.201 41.1272 8.1697 41.1272 8.1385 C41.1272 8.1228 41.1272 8.1228 41.1272 8.1072 L41.1741 7.7947 C41.1741 7.7791 41.1897 7.7635 41.1897 7.7478 C41.1897 7.7166 41.1585 7.701 41.1429 7.701 C41.096 7.701 41.0491 7.7322 40.9866 7.7791 L40.9241 8.1853 L40.8304 8.1853 L40.9241 7.5291 C40.9397 7.5135 40.9397 7.4978 40.9397 7.4978 C40.9397 7.4822 40.9241 7.4666 40.9241 7.451 L40.8929 7.451 L40.8929 7.4197 L41.0491 7.4041 Z" style="clip-path:url(#clipPath4); stroke:none;" transform="matrix(1,0,0,1,0,0)"/>
<path d="M41.533 8.201 L41.4549 7.7478 C41.4549 7.7166 41.4392 7.701 41.4236 7.701 C41.408 7.701 41.3924 7.7322 41.3767 7.7322 L41.3767 7.7166 C41.408 7.6541 41.4392 7.6385 41.4861 7.6385 C41.5174 7.6385 41.533 7.6541 41.5486 7.701 L41.5642 7.826 C41.5642 7.8572 41.5799 7.9197 41.5955 7.9978 C41.5955 8.0603 41.5955 8.076 41.5955 8.1072 L41.6111 8.0916 C41.7205 7.8572 41.7517 7.7791 41.7517 7.7478 C41.7517 7.7322 41.7517 7.7322 41.7517 7.7166 L41.7361 7.7166 C41.7361 7.701 41.7361 7.701 41.7361 7.6853 C41.7361 7.6541 41.7517 7.6385 41.7986 7.6385 C41.8299 7.6385 41.8455 7.6541 41.8455 7.6853 C41.8455 7.7478 41.7986 7.8416 41.6892 8.0447 C41.6424 8.1385 41.5955 8.2166 41.5642 8.2635 C41.5017 8.3572 41.4549 8.3885 41.3611 8.3885 C41.3142 8.3885 41.283 8.3728 41.283 8.3416 C41.283 8.3103 41.3142 8.2947 41.3455 8.2947 C41.3611 8.2947 41.3611 8.2947 41.3767 8.2947 L41.3924 8.326 C41.3924 8.3416 41.408 8.3416 41.408 8.3416 C41.4392 8.3416 41.4705 8.3103 41.5017 8.2635 Z" style="clip-path:url(#clipPath4); stroke:none;" transform="matrix(1,0,0,1,0,0)"/>
<path d="M41.9749 7.451 L41.9749 7.4197 L42.1311 7.4041 L42.0217 8.0447 C42.0217 8.076 42.0217 8.0916 42.0217 8.1072 C42.0217 8.1228 42.0217 8.1228 42.0374 8.1228 C42.053 8.1228 42.0686 8.1072 42.0842 8.0916 L42.0999 8.1072 C42.053 8.1697 42.0217 8.201 41.9749 8.201 C41.9436 8.201 41.9124 8.1697 41.9124 8.1385 C41.9124 8.1228 41.928 8.1228 41.928 8.1072 L42.0061 7.5291 C42.0217 7.5135 42.0217 7.4978 42.0217 7.4978 C42.0217 7.4822 42.0061 7.4666 42.0061 7.451 Z" style="clip-path:url(#clipPath4); stroke:none;" transform="matrix(1,0,0,1,0,0)"/>
<path d="M42.6199 7.8572 C42.6199 8.0447 42.5105 8.201 42.3699 8.201 C42.2449 8.201 42.1824 8.1228 42.1824 7.9822 C42.1824 7.7791 42.2917 7.6385 42.4324 7.6385 C42.5574 7.6385 42.6199 7.7166 42.6199 7.8572 ZM42.4324 7.6853 C42.3386 7.6853 42.2761 7.826 42.2761 7.9822 C42.2761 8.0916 42.3074 8.1385 42.3699 8.1385 C42.4636 8.1385 42.5261 8.0135 42.5261 7.8416 C42.5261 7.7322 42.4949 7.6853 42.4324 7.6853 Z" style="clip-path:url(#clipPath4); stroke:none;" transform="matrix(1,0,0,1,0,0)"/>
<path d="M42.854 7.9822 C42.8384 8.0135 42.8227 8.0291 42.8227 8.0447 C42.8227 8.076 42.8384 8.076 42.8696 8.0916 L42.979 8.1072 C43.0884 8.1228 43.1352 8.1385 43.1352 8.2166 C43.1352 8.3103 43.0102 8.3885 42.8384 8.3885 C42.7134 8.3885 42.6352 8.3416 42.6352 8.2791 C42.6352 8.2166 42.6821 8.1697 42.7759 8.1385 C42.7602 8.1385 42.7446 8.1072 42.7446 8.0916 C42.7446 8.0447 42.7759 8.0135 42.8384 7.9822 C42.7602 7.951 42.729 7.9041 42.729 7.826 C42.729 7.7166 42.8071 7.6385 42.9321 7.6385 C42.9634 7.6385 42.9946 7.6385 43.0259 7.6541 L43.2134 7.6385 L43.1977 7.7166 L43.0727 7.701 C43.0884 7.7166 43.104 7.7635 43.104 7.8103 C43.104 7.9197 43.0259 7.9978 42.9009 7.9978 C42.8852 7.9978 42.8852 7.9978 42.854 7.9822 ZM42.9165 7.6853 C42.854 7.6853 42.8227 7.7478 42.8227 7.8416 C42.8227 7.9197 42.854 7.951 42.9009 7.951 C42.9634 7.951 43.0102 7.8885 43.0102 7.7791 C43.0102 7.7166 42.979 7.6853 42.9165 7.6853 ZM42.7915 8.1541 C42.7446 8.1853 42.7134 8.2166 42.7134 8.2635 C42.7134 8.3103 42.7602 8.3416 42.854 8.3416 C42.9634 8.3416 43.0415 8.2947 43.0415 8.2322 C43.0415 8.1853 42.9946 8.1853 42.9321 8.1853 Z" style="clip-path:url(#clipPath4); stroke:none;" transform="matrix(1,0,0,1,0,0)"/>
<path d="M43.5671 8.076 L43.5827 8.0916 C43.5046 8.1697 43.4577 8.201 43.3796 8.201 C43.2702 8.201 43.2234 8.1228 43.2234 7.9822 C43.2234 7.7791 43.3327 7.6385 43.489 7.6385 C43.5827 7.6385 43.6296 7.6697 43.6296 7.7478 C43.6296 7.8728 43.5359 7.9197 43.3171 7.9197 L43.3171 7.9197 L43.3171 7.9197 C43.3171 7.951 43.3171 7.9666 43.3171 7.9822 C43.3171 8.0916 43.3484 8.1228 43.4265 8.1228 C43.4577 8.1228 43.5046 8.1072 43.5515 8.076 ZM43.3171 7.8885 C43.3484 7.8885 43.3796 7.8728 43.4109 7.8728 C43.489 7.8572 43.5359 7.826 43.5359 7.7478 C43.5359 7.7166 43.5046 7.6853 43.4734 7.6853 C43.3952 7.6853 43.3327 7.7635 43.3171 7.8885 Z" style="clip-path:url(#clipPath4); stroke:none;" transform="matrix(1,0,0,1,0,0)"/>
<path d="M44.1867 8.1072 C44.1399 8.1697 44.1086 8.201 44.0617 8.201 C44.0305 8.201 44.0149 8.1697 44.0149 8.1385 C44.0149 8.1228 44.0149 8.1228 44.0149 8.1072 L44.0617 7.7947 C44.0617 7.7791 44.0617 7.7635 44.0617 7.7478 C44.0617 7.7166 44.0461 7.701 44.0149 7.701 C43.9836 7.701 43.9367 7.7322 43.8742 7.7791 L43.8117 8.1853 L43.718 8.1853 L43.7805 7.7791 C43.7805 7.7478 43.7805 7.7322 43.7805 7.7166 C43.7805 7.7166 43.7805 7.701 43.7649 7.701 C43.7492 7.701 43.7336 7.7166 43.718 7.7322 L43.7024 7.7166 C43.7336 7.6697 43.7805 7.6385 43.8274 7.6385 C43.8586 7.6385 43.8742 7.6541 43.8742 7.6853 C43.8742 7.6853 43.8742 7.701 43.8742 7.7166 L43.8586 7.7635 C43.9367 7.6697 43.9992 7.6385 44.0617 7.6385 C44.1242 7.6385 44.1555 7.6697 44.1555 7.7166 C44.1555 7.7478 44.1555 7.7635 44.1555 7.7947 L44.1086 8.0447 C44.1086 8.076 44.1086 8.0916 44.1086 8.1072 C44.1086 8.1228 44.1086 8.1228 44.1242 8.1228 C44.1399 8.1228 44.1555 8.1072 44.1711 8.0916 Z" style="clip-path:url(#clipPath4); stroke:none;" transform="matrix(1,0,0,1,0,0)"/>
<path d="M44.6181 8.076 L44.6337 8.0916 C44.5556 8.1697 44.5087 8.201 44.4306 8.201 C44.3212 8.201 44.2744 8.1228 44.2744 7.9822 C44.2744 7.7791 44.3837 7.6385 44.54 7.6385 C44.6337 7.6385 44.6806 7.6697 44.6806 7.7478 C44.6806 7.8728 44.5869 7.9197 44.3681 7.9197 L44.3681 7.9197 L44.3681 7.9197 C44.3681 7.951 44.3681 7.9666 44.3681 7.9822 C44.3681 8.0916 44.3994 8.1228 44.4775 8.1228 C44.5087 8.1228 44.5556 8.1072 44.6025 8.076 ZM44.3681 7.8885 C44.3994 7.8885 44.4306 7.8728 44.4619 7.8728 C44.54 7.8572 44.5869 7.826 44.5869 7.7478 C44.5869 7.7166 44.5556 7.6853 44.5244 7.6853 C44.4462 7.6853 44.3837 7.7635 44.3681 7.8885 Z" style="clip-path:url(#clipPath4); stroke:none;" transform="matrix(1,0,0,1,0,0)"/>
<path d="M44.9253 7.701 L44.8628 8.0447 C44.8628 8.0603 44.8628 8.076 44.8628 8.076 C44.8628 8.1072 44.8784 8.1228 44.9096 8.1228 C44.9409 8.1228 44.9721 8.1228 45.0034 8.0916 L45.019 8.1228 C44.9565 8.1697 44.9253 8.201 44.8628 8.201 C44.8003 8.201 44.769 8.1697 44.769 8.1072 C44.769 8.0916 44.769 8.076 44.769 8.0603 L44.8315 7.701 L44.769 7.701 L44.7846 7.6697 L44.7846 7.6697 C44.8003 7.6541 44.8159 7.6541 44.8315 7.6385 C44.8628 7.6228 44.8784 7.576 44.9096 7.5291 L44.9565 7.5291 L44.9253 7.6385 L45.0815 7.6385 L45.0815 7.701 Z" style="clip-path:url(#clipPath4); stroke:none;" transform="matrix(1,0,0,1,0,0)"/>
<path d="M45.3105 8.1072 C45.2636 8.1697 45.2168 8.201 45.1855 8.201 C45.1386 8.201 45.123 8.1697 45.123 8.1385 C45.123 8.1228 45.123 8.1228 45.123 8.1072 L45.1855 7.7791 C45.1855 7.7478 45.1855 7.7322 45.1855 7.7322 C45.1855 7.7166 45.1855 7.701 45.1699 7.701 C45.1543 7.701 45.1386 7.7166 45.1074 7.7322 L45.0918 7.7166 C45.1386 7.6541 45.1855 7.6385 45.2168 7.6385 C45.2636 7.6385 45.2793 7.6541 45.2793 7.6853 C45.2793 7.701 45.2793 7.7166 45.2793 7.7166 L45.2168 8.0447 C45.2168 8.076 45.2168 8.0916 45.2168 8.1072 C45.2168 8.1228 45.2168 8.1228 45.2324 8.1228 C45.248 8.1228 45.2636 8.1072 45.2949 8.0916 ZM45.2168 7.4822 C45.2168 7.451 45.2324 7.4197 45.2793 7.4197 C45.3105 7.4197 45.3261 7.4353 45.3261 7.4666 C45.3261 7.5135 45.2949 7.5291 45.2636 7.5291 C45.2324 7.5291 45.2168 7.5135 45.2168 7.4822 Z" style="clip-path:url(#clipPath4); stroke:none;" transform="matrix(1,0,0,1,0,0)"/>
<path d="M45.7321 8.076 L45.7321 8.0916 C45.6696 8.1697 45.6228 8.201 45.5446 8.201 C45.4353 8.201 45.3884 8.1228 45.3884 7.9822 C45.3884 7.7791 45.4978 7.6385 45.6696 7.6385 C45.7478 7.6385 45.7946 7.6541 45.7946 7.701 C45.7946 7.7322 45.779 7.7478 45.7478 7.7478 C45.7321 7.7478 45.7165 7.7478 45.7165 7.7322 L45.7009 7.701 C45.6853 7.6853 45.6853 7.6853 45.654 7.6853 C45.5446 7.6853 45.4821 7.8103 45.4821 7.9822 C45.4821 8.076 45.5134 8.1228 45.5759 8.1228 C45.6228 8.1228 45.6696 8.1072 45.7165 8.076 Z" style="clip-path:url(#clipPath4); stroke:none;" transform="matrix(1,0,0,1,0,0)"/>
<path d="M45.8979 8.1228 C45.8979 8.1385 45.9135 8.1385 45.9448 8.1385 C46.0073 8.1385 46.0541 8.1072 46.0541 8.0603 C46.0541 8.0135 46.0385 7.9978 45.9916 7.9666 L45.9291 7.9197 C45.8823 7.8728 45.851 7.8416 45.851 7.7947 C45.851 7.701 45.9291 7.6385 46.0385 7.6385 C46.1166 7.6385 46.1635 7.6541 46.1635 7.701 C46.1635 7.7322 46.1479 7.7478 46.1166 7.7478 C46.101 7.7478 46.0854 7.7478 46.0854 7.7322 L46.0698 7.701 C46.0698 7.6853 46.0541 7.6853 46.0229 7.6853 C45.976 7.6853 45.9291 7.7166 45.9291 7.7635 C45.9291 7.7947 45.9448 7.8103 45.9916 7.8416 L46.0385 7.8885 C46.1166 7.9353 46.1323 7.9666 46.1323 8.0291 C46.1323 8.1385 46.0541 8.201 45.9291 8.201 C45.8354 8.201 45.7885 8.1697 45.7885 8.1228 C45.7885 8.0916 45.8198 8.076 45.851 8.076 C45.8666 8.076 45.8666 8.076 45.8823 8.0916 Z" style="clip-path:url(#clipPath4); stroke:none;" transform="matrix(1,0,0,1,0,0)"/>
<path d="M46.8478 8.076 L46.8478 8.0916 C46.7853 8.1697 46.7385 8.201 46.6916 8.201 C46.5978 8.201 46.5666 8.1385 46.5666 8.0135 C46.5666 7.7947 46.6603 7.6385 46.8166 7.6385 C46.8635 7.6385 46.8947 7.6385 46.926 7.6541 L47.0041 7.6385 L46.9416 8.0447 C46.9416 8.076 46.9416 8.0916 46.9416 8.1072 C46.9416 8.1228 46.9416 8.1228 46.9572 8.1228 C46.9728 8.1228 46.9885 8.1228 47.0041 8.0916 L47.0197 8.1072 C46.9885 8.1697 46.9416 8.201 46.8947 8.201 C46.8635 8.201 46.8478 8.1697 46.8478 8.1385 C46.8478 8.1385 46.8478 8.1228 46.8478 8.1228 ZM46.9103 7.701 C46.8947 7.6853 46.8635 7.6853 46.8478 7.6853 C46.801 7.6853 46.7541 7.701 46.7228 7.7322 C46.676 7.7947 46.6603 7.8885 46.6603 7.9978 C46.6603 8.0916 46.676 8.1228 46.7228 8.1228 C46.7541 8.1228 46.7853 8.1072 46.8478 8.0603 L46.8478 8.0603 Z" style="clip-path:url(#clipPath4); stroke:none;" transform="matrix(1,0,0,1,0,0)"/>

<path d="M47.582 8.1072 C47.5351 8.1697 47.5038 8.201 47.457 8.201 C47.4257 8.201 47.4101 8.1697 47.4101 8.1385 C47.4101 8.1228 47.4101 8.1228 47.4101 8.1072 L47.457 7.7947 C47.457 7.7791 47.457 7.7635 47.457 7.7478 C47.457 7.7166 47.4413 7.701 47.4101 7.701 C47.3788 7.701 47.332 7.7322 47.2695 7.7791 L47.207 8.1853 L47.1132 8.1853 L47.1757 7.7791 C47.1757 7.7478 47.1757 7.7322 47.1757 7.7166 C47.1757 7.7166 47.1757 7.701 47.1601 7.701 C47.1445 7.701 47.1288 7.7166 47.1132 7.7322 L47.0976 7.7166 C47.1288 7.6697 47.1757 7.6385 47.2226 7.6385 C47.2538 7.6385 47.2695 7.6541 47.2695 7.6853 C47.2695 7.6853 47.2695 7.701 47.2695 7.7166 L47.2538 7.7635 C47.332 7.6697 47.3945 7.6385 47.457 7.6385 C47.5195 7.6385 47.5507 7.6697 47.5507 7.7166 C47.5507 7.7478 47.5507 7.7635 47.5507 7.7947 L47.5038 8.0447 C47.5038 8.076 47.5038 8.0916 47.5038 8.1072 C47.5038 8.1228 47.5038 8.1228 47.5195 8.1228 C47.5351 8.1228 47.5507 8.1072 47.5663 8.0916 Z" style="clip-path:url(#clipPath4); stroke:none;" transform="matrix(1,0,0,1,0,0)"/>
<path d="M47.9665 8.0916 L47.9508 8.0916 C47.8883 8.1697 47.8571 8.201 47.7946 8.201 C47.7165 8.201 47.6696 8.1385 47.6696 8.0135 C47.6696 7.7947 47.7633 7.6385 47.9196 7.6385 C47.9665 7.6385 47.9821 7.6385 48.029 7.6541 L48.0446 7.5291 C48.0446 7.5135 48.0446 7.4978 48.0446 7.4978 C48.0446 7.4822 48.0446 7.4666 48.029 7.451 L47.9977 7.451 L48.0133 7.4197 L48.154 7.4041 L48.0602 8.0447 C48.0446 8.076 48.0446 8.0916 48.0446 8.1072 C48.0446 8.1228 48.0602 8.1228 48.0602 8.1228 C48.0758 8.1228 48.0915 8.1072 48.1227 8.0916 L48.1383 8.1072 C48.0915 8.1697 48.0446 8.201 48.0133 8.201 C47.9665 8.201 47.9508 8.1697 47.9508 8.1385 C47.9508 8.1385 47.9508 8.1228 47.9508 8.1228 ZM48.0133 7.701 C47.9977 7.6853 47.9665 7.6853 47.9508 7.6853 C47.904 7.6853 47.8571 7.701 47.8258 7.7322 C47.779 7.7947 47.7633 7.8885 47.7633 7.9978 C47.7633 8.0916 47.779 8.1228 47.8258 8.1228 C47.8571 8.1228 47.8883 8.1072 47.9508 8.0603 L47.9665 8.0603 Z" style="clip-path:url(#clipPath4); stroke:none;" transform="matrix(1,0,0,1,0,0)"/>
<path d="M48.518 8.1697 L48.5337 8.1541 C48.5649 8.1385 48.5649 8.1228 48.5805 8.0603 L48.6587 7.576 C48.6587 7.5447 48.6587 7.5291 48.6587 7.5291 C48.6587 7.5135 48.6587 7.4978 48.643 7.4822 L48.6118 7.4666 L48.6274 7.451 L49.0493 7.451 L49.0337 7.5916 L49.0024 7.5916 L48.9712 7.5291 C48.9555 7.5135 48.9399 7.4978 48.893 7.4978 L48.768 7.4978 L48.7212 7.7791 L48.8149 7.7791 C48.8618 7.7791 48.8774 7.7635 48.893 7.7478 L48.9243 7.7166 L48.9555 7.7166 L48.9243 7.8885 L48.9087 7.8885 L48.8774 7.8572 C48.8774 7.826 48.8618 7.826 48.8149 7.826 L48.7212 7.826 L48.6743 8.1385 L48.7993 8.1385 C48.8618 8.1385 48.8774 8.1228 48.9087 8.1072 L48.9712 8.0447 L49.0024 8.0447 L48.9399 8.1853 L48.518 8.1853 Z" style="clip-path:url(#clipPath4); stroke:none;" transform="matrix(1,0,0,1,0,0)"/>
<path d="M49.059 7.7166 L49.0747 7.7166 C49.1059 7.6697 49.1372 7.6385 49.184 7.6385 C49.1997 7.6385 49.2153 7.6385 49.2309 7.6541 C49.2309 7.6853 49.2465 7.701 49.2622 7.826 L49.2778 8.1072 C49.2778 8.1072 49.3403 7.9978 49.3715 7.9197 C49.434 7.8103 49.4497 7.7635 49.4497 7.7478 C49.4497 7.7322 49.4497 7.7322 49.4497 7.7166 L49.434 7.7166 C49.434 7.701 49.434 7.701 49.434 7.6853 C49.434 7.6541 49.4497 7.6385 49.4965 7.6385 C49.5278 7.6385 49.5434 7.6541 49.5434 7.6853 C49.5434 7.7166 49.5278 7.7635 49.4965 7.826 C49.434 7.9353 49.2934 8.1853 49.2934 8.1853 L49.2153 8.1853 L49.1528 7.7478 C49.1372 7.7166 49.1372 7.701 49.1215 7.701 C49.1215 7.701 49.1059 7.7166 49.0903 7.7166 L49.0747 7.7322 L49.0747 7.7322 Z" style="clip-path:url(#clipPath4); stroke:none;" transform="matrix(1,0,0,1,0,0)"/>
<path d="M50.0478 7.8572 C50.0478 8.0447 49.9384 8.201 49.7978 8.201 C49.6728 8.201 49.6103 8.1228 49.6103 7.9822 C49.6103 7.7791 49.7197 7.6385 49.8603 7.6385 C49.9853 7.6385 50.0478 7.7166 50.0478 7.8572 ZM49.8603 7.6853 C49.7665 7.6853 49.704 7.826 49.704 7.9822 C49.704 8.0916 49.7353 8.1385 49.7978 8.1385 C49.8915 8.1385 49.954 8.0135 49.954 7.8416 C49.954 7.7322 49.9228 7.6853 49.8603 7.6853 Z" style="clip-path:url(#clipPath4); stroke:none;" transform="matrix(1,0,0,1,0,0)"/>
<path d="M50.2038 7.451 L50.2038 7.4197 L50.36 7.4041 L50.2507 8.0447 C50.2507 8.076 50.2507 8.0916 50.2507 8.1072 C50.2507 8.1228 50.2507 8.1228 50.2663 8.1228 C50.2819 8.1228 50.2975 8.1072 50.3132 8.0916 L50.3288 8.1072 C50.2819 8.1697 50.2507 8.201 50.2038 8.201 C50.1725 8.201 50.1413 8.1697 50.1413 8.1385 C50.1413 8.1228 50.1569 8.1228 50.1569 8.1072 L50.235 7.5291 C50.2507 7.5135 50.2507 7.4978 50.2507 7.4978 C50.2507 7.4822 50.235 7.4666 50.235 7.451 Z" style="clip-path:url(#clipPath4); stroke:none;" transform="matrix(1,0,0,1,0,0)"/>
<path d="M50.8175 8.1072 C50.8175 8.1228 50.8175 8.1228 50.8332 8.1228 C50.8332 8.1228 50.8644 8.1072 50.88 8.0916 L50.8957 8.1072 C50.8488 8.1697 50.8175 8.201 50.7707 8.201 C50.7394 8.201 50.7238 8.1697 50.7238 8.1385 C50.7238 8.1385 50.7238 8.1228 50.7238 8.1072 L50.7238 8.076 C50.6613 8.1541 50.5988 8.201 50.5363 8.201 C50.4738 8.201 50.4269 8.1697 50.4269 8.1072 C50.4269 8.0916 50.4269 8.0603 50.4425 8.0291 L50.4894 7.7791 C50.4894 7.7478 50.4894 7.7322 50.4894 7.7322 C50.4894 7.7166 50.4894 7.701 50.4738 7.701 C50.4582 7.701 50.4113 7.7322 50.4113 7.7322 L50.3957 7.7166 C50.4425 7.6541 50.4894 7.6385 50.5363 7.6385 C50.5675 7.6385 50.5832 7.6541 50.5832 7.6853 C50.5832 7.701 50.5832 7.7166 50.5832 7.7166 L50.5363 8.0291 C50.5207 8.0603 50.5207 8.076 50.5207 8.076 C50.5207 8.1072 50.5363 8.1228 50.5675 8.1228 C50.6144 8.1228 50.6613 8.0916 50.7238 8.0447 L50.7863 7.6385 L50.88 7.6385 L50.8175 8.0603 C50.8175 8.076 50.8175 8.0916 50.8175 8.1072 Z" style="clip-path:url(#clipPath4); stroke:none;" transform="matrix(1,0,0,1,0,0)"/>
<path d="M51.1552 7.701 L51.0927 8.0447 C51.0927 8.0603 51.0927 8.076 51.0927 8.076 C51.0927 8.1072 51.1083 8.1228 51.1395 8.1228 C51.1708 8.1228 51.202 8.1228 51.2333 8.0916 L51.2489 8.1228 C51.1864 8.1697 51.1552 8.201 51.0927 8.201 C51.0302 8.201 50.9989 8.1697 50.9989 8.1072 C50.9989 8.0916 50.9989 8.076 50.9989 8.0603 L51.0614 7.701 L50.9989 7.701 L51.0145 7.6697 L51.0145 7.6697 C51.0302 7.6541 51.0458 7.6541 51.0614 7.6385 C51.0927 7.6228 51.1083 7.576 51.1395 7.5291 L51.1864 7.5291 L51.1552 7.6385 L51.3114 7.6385 L51.3114 7.701 Z" style="clip-path:url(#clipPath4); stroke:none;" transform="matrix(1,0,0,1,0,0)"/>
<path d="M51.5404 8.1072 C51.4935 8.1697 51.4467 8.201 51.4154 8.201 C51.3685 8.201 51.3529 8.1697 51.3529 8.1385 C51.3529 8.1228 51.3529 8.1228 51.3529 8.1072 L51.4154 7.7791 C51.4154 7.7478 51.4154 7.7322 51.4154 7.7322 C51.4154 7.7166 51.4154 7.701 51.3998 7.701 C51.3842 7.701 51.3685 7.7166 51.3373 7.7322 L51.3217 7.7166 C51.3685 7.6541 51.4154 7.6385 51.4467 7.6385 C51.4935 7.6385 51.5092 7.6541 51.5092 7.6853 C51.5092 7.701 51.5092 7.7166 51.5092 7.7166 L51.4467 8.0447 C51.4467 8.076 51.4467 8.0916 51.4467 8.1072 C51.4467 8.1228 51.4467 8.1228 51.4623 8.1228 C51.4779 8.1228 51.4935 8.1072 51.5248 8.0916 ZM51.4467 7.4822 C51.4467 7.451 51.4623 7.4197 51.5092 7.4197 C51.5404 7.4197 51.556 7.4353 51.556 7.4666 C51.556 7.5135 51.5248 7.5291 51.4935 7.5291 C51.4623 7.5291 51.4467 7.5135 51.4467 7.4822 Z" style="clip-path:url(#clipPath4); stroke:none;" transform="matrix(1,0,0,1,0,0)"/>
<path d="M52.0558 7.8572 C52.0558 8.0447 51.9464 8.201 51.8058 8.201 C51.6808 8.201 51.6183 8.1228 51.6183 7.9822 C51.6183 7.7791 51.7277 7.6385 51.8683 7.6385 C51.9933 7.6385 52.0558 7.7166 52.0558 7.8572 ZM51.8683 7.6853 C51.7745 7.6853 51.712 7.826 51.712 7.9822 C51.712 8.0916 51.7433 8.1385 51.8058 8.1385 C51.8995 8.1385 51.962 8.0135 51.962 7.8416 C51.962 7.7322 51.9308 7.6853 51.8683 7.6853 Z" style="clip-path:url(#clipPath4); stroke:none;" transform="matrix(1,0,0,1,0,0)"/>
<path d="M52.6337 8.1072 C52.5868 8.1697 52.5555 8.201 52.5087 8.201 C52.4774 8.201 52.4618 8.1697 52.4618 8.1385 C52.4618 8.1228 52.4618 8.1228 52.4618 8.1072 L52.5087 7.7947 C52.5087 7.7791 52.5087 7.7635 52.5087 7.7478 C52.5087 7.7166 52.493 7.701 52.4618 7.701 C52.4305 7.701 52.3837 7.7322 52.3212 7.7791 L52.2587 8.1853 L52.1649 8.1853 L52.2274 7.7791 C52.2274 7.7478 52.2274 7.7322 52.2274 7.7166 C52.2274 7.7166 52.2274 7.701 52.2118 7.701 C52.1962 7.701 52.1805 7.7166 52.1649 7.7322 L52.1493 7.7166 C52.1805 7.6697 52.2274 7.6385 52.2743 7.6385 C52.3055 7.6385 52.3212 7.6541 52.3212 7.6853 C52.3212 7.6853 52.3212 7.701 52.3212 7.7166 L52.3055 7.7635 C52.3837 7.6697 52.4462 7.6385 52.5087 7.6385 C52.5712 7.6385 52.6024 7.6697 52.6024 7.7166 C52.6024 7.7478 52.6024 7.7635 52.6024 7.7947 L52.5555 8.0447 C52.5555 8.076 52.5555 8.0916 52.5555 8.1072 C52.5555 8.1228 52.5555 8.1228 52.5712 8.1228 C52.5868 8.1228 52.6024 8.1072 52.618 8.0916 Z" style="clip-path:url(#clipPath4); stroke:none;" transform="matrix(1,0,0,1,0,0)"/>
<path d="M53.1766 7.7947 C53.2078 7.7478 53.2547 7.7322 53.3328 7.7322 C53.4578 7.7322 53.5203 7.7947 53.5203 7.9197 C53.5203 8.076 53.411 8.201 53.2703 8.201 C53.1297 8.201 53.0516 8.1072 53.0516 7.951 C53.0516 7.8572 53.0672 7.7635 53.0985 7.6697 C53.1453 7.5135 53.2547 7.4353 53.3953 7.4353 C53.5047 7.4353 53.5672 7.4666 53.5672 7.5135 C53.5672 7.5447 53.536 7.5603 53.5047 7.5603 C53.4891 7.5603 53.4735 7.5603 53.4735 7.5447 L53.4578 7.5135 C53.4578 7.4978 53.4422 7.4978 53.3953 7.4978 C53.2703 7.4978 53.2078 7.576 53.1766 7.7947 ZM53.161 7.8103 L53.161 7.826 C53.161 7.8728 53.1453 7.9353 53.1453 7.9666 C53.1453 8.0916 53.1922 8.1385 53.2703 8.1385 C53.3641 8.1385 53.4266 8.0447 53.4266 7.9197 C53.4266 7.826 53.3797 7.7791 53.286 7.7791 C53.2391 7.7791 53.2078 7.7947 53.161 7.8103 Z" style="clip-path:url(#clipPath4); stroke:none;" transform="matrix(1,0,0,1,0,0)"/>
<path d="M53.8848 7.7947 C53.9786 7.826 54.0255 7.8728 54.0255 7.9666 C54.0255 8.1072 53.9161 8.201 53.7598 8.201 C53.6661 8.201 53.588 8.1697 53.5567 8.1072 L53.5567 8.0916 L53.5567 8.0916 C53.6036 8.1228 53.6661 8.1228 53.7286 8.1228 C53.8692 8.1228 53.9317 8.0603 53.9317 7.951 C53.9317 7.9041 53.9161 7.8572 53.8692 7.8416 C53.838 7.826 53.8223 7.826 53.7598 7.826 L53.7442 7.826 L53.7598 7.7791 L53.7755 7.7791 C53.9005 7.7791 53.963 7.7166 53.963 7.6072 C53.963 7.5291 53.9317 7.4978 53.8536 7.4978 C53.8223 7.4978 53.7911 7.4978 53.7755 7.5135 L53.7442 7.5603 C53.7442 7.576 53.7286 7.576 53.713 7.576 C53.6817 7.576 53.6661 7.5603 53.6661 7.5291 C53.6661 7.4822 53.7442 7.4353 53.8536 7.4353 C53.9942 7.4353 54.0567 7.4978 54.0567 7.6072 C54.0567 7.7166 53.9942 7.7791 53.8848 7.7947 Z" style="clip-path:url(#clipPath4); stroke:none;" transform="matrix(1,0,0,1,0,0)"/>
<path d="M54.7614 7.4041 L54.7927 7.4353 L54.7927 7.4353 C54.7146 7.4822 54.6521 7.5603 54.6052 7.6541 C54.5583 7.7791 54.5271 7.9353 54.5271 8.0603 C54.5271 8.201 54.5739 8.2947 54.6521 8.3572 L54.6052 8.3885 C54.5271 8.3416 54.4646 8.2322 54.4646 8.0603 C54.4646 7.9197 54.4958 7.7478 54.5583 7.6228 C54.6052 7.5291 54.6833 7.4353 54.7614 7.4041 Z" style="clip-path:url(#clipPath4); stroke:none;" transform="matrix(1,0,0,1,0,0)"/>
<path d="M54.7927 8.1228 L54.8239 8.1072 C54.9177 8.0135 55.0427 7.9041 55.1052 7.8416 C55.1833 7.7635 55.2146 7.701 55.2146 7.6072 C55.2146 7.5291 55.1833 7.4978 55.1052 7.4978 C55.0583 7.4978 55.0271 7.4978 55.0271 7.5135 L54.9958 7.5603 C54.9802 7.576 54.9802 7.576 54.9489 7.576 C54.9177 7.576 54.9021 7.5603 54.9021 7.5291 C54.9021 7.4822 54.9802 7.4353 55.1052 7.4353 C55.2458 7.4353 55.3239 7.4978 55.3239 7.6072 C55.3239 7.7478 55.2614 7.8416 54.9021 8.1072 L54.8864 8.1072 L55.1052 8.1072 C55.1208 8.1072 55.1364 8.1072 55.1521 8.1072 C55.1677 8.1072 55.1833 8.0916 55.1989 8.076 L55.2458 8.0447 L55.2771 8.0447 L55.2146 8.1853 L54.7927 8.1853 Z" style="clip-path:url(#clipPath4); stroke:none;" transform="matrix(1,0,0,1,0,0)"/>
<path d="M55.8916 7.6853 C55.8916 7.8103 55.8759 7.9353 55.8291 8.0291 C55.7822 8.1385 55.7041 8.201 55.5947 8.201 C55.4697 8.201 55.4072 8.1072 55.4072 7.951 C55.4072 7.826 55.4228 7.701 55.4697 7.5916 C55.5166 7.4978 55.5947 7.4353 55.7041 7.4353 C55.8291 7.4353 55.8916 7.5291 55.8916 7.6853 ZM55.6884 7.4978 C55.6416 7.4978 55.5947 7.5291 55.5791 7.5916 C55.5322 7.6853 55.5009 7.8572 55.5009 7.9978 C55.5009 8.0916 55.5322 8.1385 55.6103 8.1385 C55.6572 8.1385 55.7041 8.1072 55.7197 8.0447 C55.7666 7.951 55.7978 7.7635 55.7978 7.6385 C55.7978 7.5447 55.7666 7.4978 55.6884 7.4978 Z" style="clip-path:url(#clipPath4); stroke:none;" transform="matrix(1,0,0,1,0,0)"/>
<path d="M56.2717 8.1697 L56.2717 8.1853 L56.0529 8.1853 L56.0529 8.1697 L56.0842 8.1541 C56.1154 8.1385 56.1154 8.1228 56.1311 8.0603 L56.2092 7.5916 C56.2092 7.576 56.2092 7.576 56.2092 7.576 C56.2092 7.576 56.2092 7.5603 56.1936 7.5603 C56.1779 7.5603 56.1779 7.5603 56.1779 7.5603 L56.0529 7.5916 L56.0529 7.5603 L56.0686 7.5603 C56.1779 7.5135 56.2404 7.4822 56.3029 7.451 L56.3342 7.451 L56.2248 8.0603 C56.2248 8.076 56.2248 8.0916 56.2248 8.1072 C56.2248 8.1228 56.2248 8.1385 56.2404 8.1541 Z" style="clip-path:url(#clipPath4); stroke:none;" transform="matrix(1,0,0,1,0,0)"/>
<path d="M56.4487 8.1228 L56.4799 8.1072 C56.5737 8.0135 56.6987 7.9041 56.7612 7.8416 C56.8393 7.7635 56.8706 7.701 56.8706 7.6072 C56.8706 7.5291 56.8393 7.4978 56.7612 7.4978 C56.7143 7.4978 56.6831 7.4978 56.6831 7.5135 L56.6518 7.5603 C56.6362 7.576 56.6362 7.576 56.6049 7.576 C56.5737 7.576 56.5581 7.5603 56.5581 7.5291 C56.5581 7.4822 56.6362 7.4353 56.7612 7.4353 C56.9018 7.4353 56.9799 7.4978 56.9799 7.6072 C56.9799 7.7478 56.9174 7.8416 56.5581 8.1072 L56.5424 8.1072 L56.7612 8.1072 C56.7768 8.1072 56.7924 8.1072 56.8081 8.1072 C56.8237 8.1072 56.8393 8.0916 56.8549 8.076 L56.9018 8.0447 L56.9331 8.0447 L56.8706 8.1853 L56.4487 8.1853 Z" style="clip-path:url(#clipPath4); stroke:none;" transform="matrix(1,0,0,1,0,0)"/>
<path d="M57.0632 8.3885 L57.0319 8.3572 L57.0476 8.3416 C57.1101 8.2947 57.1726 8.2322 57.2194 8.1385 C57.2663 8.0135 57.2976 7.8572 57.2976 7.7322 C57.2976 7.5916 57.2663 7.4978 57.1882 7.4353 L57.2194 7.4041 C57.2976 7.4353 57.3601 7.5447 57.3601 7.7322 C57.3601 7.8728 57.3288 8.0447 57.2819 8.1697 C57.2194 8.2635 57.1569 8.3572 57.0632 8.3885 Z" style="clip-path:url(#clipPath4); stroke:none;" transform="matrix(1,0,0,1,0,0)"/>
<path d="M57.6992 8.1228 L57.7304 8.1072 C57.8242 8.0135 57.9492 7.9041 58.0117 7.8416 C58.0898 7.7635 58.1211 7.701 58.1211 7.6072 C58.1211 7.5291 58.0898 7.4978 58.0117 7.4978 C57.9648 7.4978 57.9336 7.4978 57.9336 7.5135 L57.9023 7.5603 C57.8867 7.576 57.8867 7.576 57.8554 7.576 C57.8242 7.576 57.8086 7.5603 57.8086 7.5291 C57.8086 7.4822 57.8867 7.4353 58.0117 7.4353 C58.1523 7.4353 58.2304 7.4978 58.2304 7.6072 C58.2304 7.7478 58.1679 7.8416 57.8086 8.1072 L57.7929 8.1072 L58.0117 8.1072 C58.0273 8.1072 58.0429 8.1072 58.0586 8.1072 C58.0742 8.1072 58.0898 8.0916 58.1054 8.076 L58.1523 8.0447 L58.1836 8.0447 L58.1211 8.1853 L57.6992 8.1853 Z" style="clip-path:url(#clipPath4); stroke:none;" transform="matrix(1,0,0,1,0,0)"/>
<path d="M58.6262 8.1697 L58.6262 8.1853 L58.4074 8.1853 L58.4074 8.1697 L58.4387 8.1541 C58.4699 8.1385 58.4699 8.1228 58.4856 8.0603 L58.5637 7.5916 C58.5637 7.576 58.5637 7.576 58.5637 7.576 C58.5637 7.576 58.5637 7.5603 58.5481 7.5603 C58.5324 7.5603 58.5324 7.5603 58.5324 7.5603 L58.4074 7.5916 L58.4074 7.5603 L58.4231 7.5603 C58.5324 7.5135 58.5949 7.4822 58.6574 7.451 L58.6887 7.451 L58.5793 8.0603 C58.5793 8.076 58.5793 8.0916 58.5793 8.1072 C58.5793 8.1228 58.5793 8.1385 58.5949 8.1541 Z" style="clip-path:url(#clipPath4); stroke:none;" transform="matrix(1,0,0,1,0,0)"/>
<path d="M59.2251 7.8416 C59.1938 7.8885 59.1469 7.9041 59.0688 7.9041 C58.9438 7.9041 58.8813 7.8416 58.8813 7.7166 C58.8813 7.5603 58.9907 7.4353 59.1313 7.4353 C59.2719 7.4353 59.3501 7.5291 59.3501 7.6853 C59.3501 7.7791 59.3344 7.8728 59.3032 7.9666 C59.2563 8.1228 59.1469 8.201 59.0063 8.201 C58.8969 8.201 58.8344 8.1697 58.8344 8.1228 C58.8344 8.0916 58.8657 8.076 58.8969 8.076 C58.9126 8.076 58.9282 8.076 58.9282 8.0916 L58.9438 8.1228 C58.9438 8.1385 58.9594 8.1385 59.0063 8.1385 C59.1313 8.1385 59.1938 8.0603 59.2251 7.8416 ZM59.2407 7.826 C59.2407 7.7791 59.2563 7.701 59.2563 7.6697 C59.2563 7.5447 59.2094 7.4978 59.1313 7.4978 C59.0532 7.4978 58.9907 7.5916 58.9751 7.7166 C58.9751 7.8103 59.0219 7.8572 59.1157 7.8572 C59.1626 7.8572 59.1938 7.8416 59.2407 7.826 Z" style="clip-path:url(#clipPath4); stroke:none;" transform="matrix(1,0,0,1,0,0)"/>
<path d="M59.8865 7.951 L59.4177 7.951 L59.4333 7.8885 L59.9021 7.8885 Z" style="clip-path:url(#clipPath4); stroke:none;" transform="matrix(1,0,0,1,0,0)"/>
<path d="M59.9382 8.1228 L59.9694 8.1072 C60.0632 8.0135 60.1882 7.9041 60.2507 7.8416 C60.3288 7.7635 60.3601 7.701 60.3601 7.6072 C60.3601 7.5291 60.3288 7.4978 60.2507 7.4978 C60.2038 7.4978 60.1726 7.4978 60.1726 7.5135 L60.1413 7.5603 C60.1257 7.576 60.1257 7.576 60.0944 7.576 C60.0632 7.576 60.0476 7.5603 60.0476 7.5291 C60.0476 7.4822 60.1257 7.4353 60.2507 7.4353 C60.3913 7.4353 60.4694 7.4978 60.4694 7.6072 C60.4694 7.7478 60.4069 7.8416 60.0476 8.1072 L60.0319 8.1072 L60.2507 8.1072 C60.2663 8.1072 60.2819 8.1072 60.2976 8.1072 C60.3132 8.1072 60.3288 8.0916 60.3444 8.076 L60.3913 8.0447 L60.4226 8.0447 L60.3601 8.1853 L59.9382 8.1853 Z" style="clip-path:url(#clipPath4); stroke:none;" transform="matrix(1,0,0,1,0,0)"/>
<path d="M60.4902 8.1228 L60.5215 8.1072 C60.6152 8.0135 60.7402 7.9041 60.8027 7.8416 C60.8808 7.7635 60.9121 7.701 60.9121 7.6072 C60.9121 7.5291 60.8808 7.4978 60.8027 7.4978 C60.7558 7.4978 60.7246 7.4978 60.7246 7.5135 L60.6933 7.5603 C60.6777 7.576 60.6777 7.576 60.6465 7.576 C60.6152 7.576 60.5996 7.5603 60.5996 7.5291 C60.5996 7.4822 60.6777 7.4353 60.8027 7.4353 C60.9433 7.4353 61.0215 7.4978 61.0215 7.6072 C61.0215 7.7478 60.959 7.8416 60.5996 8.1072 L60.584 8.1072 L60.8027 8.1072 C60.8183 8.1072 60.834 8.1072 60.8496 8.1072 C60.8652 8.1072 60.8808 8.0916 60.8965 8.076 L60.9433 8.0447 L60.9746 8.0447 L60.9121 8.1853 L60.4902 8.1853 Z" style="clip-path:url(#clipPath4); stroke:none;" transform="matrix(1,0,0,1,0,0)"/>
<path d="M61.4641 7.8416 C61.4328 7.8885 61.386 7.9041 61.3078 7.9041 C61.1828 7.9041 61.1203 7.8416 61.1203 7.7166 C61.1203 7.5603 61.2297 7.4353 61.3703 7.4353 C61.511 7.4353 61.5891 7.5291 61.5891 7.6853 C61.5891 7.7791 61.5735 7.8728 61.5422 7.9666 C61.4953 8.1228 61.386 8.201 61.2453 8.201 C61.136 8.201 61.0735 8.1697 61.0735 8.1228 C61.0735 8.0916 61.1047 8.076 61.136 8.076 C61.1516 8.076 61.1672 8.076 61.1672 8.0916 L61.1828 8.1228 C61.1828 8.1385 61.1985 8.1385 61.2453 8.1385 C61.3703 8.1385 61.4328 8.0603 61.4641 7.8416 ZM61.4797 7.826 C61.4797 7.7791 61.4953 7.701 61.4953 7.6697 C61.4953 7.5447 61.4485 7.4978 61.3703 7.4978 C61.2922 7.4978 61.2297 7.5916 61.2141 7.7166 C61.2141 7.8103 61.261 7.8572 61.3547 7.8572 C61.4016 7.8572 61.4328 7.8416 61.4797 7.826 Z" style="clip-path:url(#clipPath4); stroke:none;" transform="matrix(1,0,0,1,0,0)"/>
</g>
</g>
</svg>