<?xml version="1.0" encoding="UTF-8"?>
<svg height="756.986" width="2566.069" xmlns="http://www.w3.org/2000/svg">
 <g id="page" xmlns:svgx="http://www.xml-cml.org/schema/svgx">
  <g begin="text">
   <text y="59.018" x="62.532,65.913,71.163,75.516,78.351,83.601,86.436,90.426,94.792,101.134,105.722,108.557,111.392,115.981,119.002,121.627,125.975,133.513,138.133,142.415,145.25,150.5,155.75,159.131,164.381,169.631,174.881,180.131,182.966,188.216,192.478,195.313,200.245,205.347,209.936,213.978,216.813,219.648,224.898,229.487,232.322,236.942,241.236,244.071,249.321,253.941,258.244,263.494,268.082,270.917,276.167,279.548,284.168,288.406,293.656" svgx:width="0.32,0.5,0.55,0.27,0.5,0.27,0.38,0.55,0.6,0.44,0.27,0.27,0.44,0.32,0.25,0.55,0.72,0.44,0.55,0.27,0.5,0.5,0.32,0.5,0.5,0.5,0.5,0.27,0.5,0.55,0.27,0.5,0.5,0.44,0.38,0.27,0.27,0.5,0.44,0.27,0.44,0.55,0.27,0.5,0.44,0.55,0.5,0.44,0.27,0.5,0.32,0.44,0.55,0.5,0.32" style="fill:rgb(35,31,32);font-family:AdvOT483a8203;font-size:10.5px;stroke:none;">In this Letter, we thoroughly investigate the nature of</text>
   <text y="71.207" x="52.044,54.879,60.129,64.749,68.316,71.151,75.739,78.574,81.409,84.244,88.833,93.453,96.834,102.084,104.919,110.169,113.55,118.139,120.974,123.809,129.059,134.309,138.299,141.965,144.8,150.05,153.7,160.694" svgx:width="0.27,0.5,0.44,0.55,0.27,0.44,0.27,0.27,0.27,0.44,0.44,0.55,0.5,0.27,0.5,0.32,0.44,0.27,0.27,0.5,0.5,0.38,0.55,0.27,0.5,0.55,0.67,0.38" style="fill:rgb(35,31,32);font-family:AdvOT483a8203;font-size:10.5px;stroke:none;">the lattice vibrations in Cs</text>
   <text y="73.304" x="164.693" svgx:width="0.5" style="fill:rgb(35,31,32);font-family:AdvTTbdb21c9e;font-size:7.35px;stroke:none;">2</text>
   <text y="71.206" x="168.888,176.426,181.675,188.667,191.501,198.493" svgx:width="0.72,0.5,0.67,0.27,0.67,0.32" style="fill:rgb(35,31,32);font-family:AdvOT483a8203;font-size:10.5px;stroke:none;">AgBiBr</text>
   <text y="73.361" x="202.053" svgx:width="0.5" style="fill:rgb(35,31,32);font-family:AdvTTbdb21c9e;font-size:7.35px;stroke:none;">6</text>
   <text y="71.206" x="209.877,213.258,216.639,221.889,229.97400000000002,233.576,236.957,239.792,243.173,247.126,249.961,253.589,258.839,262.22,265.055,270.305,274.894,277.729,282.979,285.814,290.402,294.445" svgx:width="0.32,0.32,0.5,0.77,0.55,0.32,0.27,0.32,0.38,0.27,0.55,0.5,0.32,0.27,0.5,0.44,0.27,0.5,0.27,0.44,0.38,0.25" style="fill:rgb(35,31,32);font-family:AdvOT483a8203;font-size:10.5px;stroke:none;">from first principles.</text>
   <text y="83.338" x="52.044,61.115,65.735,69.505,74.756,79.344,87.429,92.679,97.929,101.972,104.807,108.188,112.776,115.611,120.23100000000001,123.991,126.826,132.076,136.664,139.499,143.323,146.158,148.993,152.983,156.93,159.765,164.354,167.189,170.024,172.859,177.448,182.068,185.846,191.096,196.346,201.596,206.184,214.269,217.104,221.693,225.68300000000002,229.559,232.394,236.38400000000001,240.274,245.524,248.359,253.609,258.859,261.694,266.944,270.72,275.308,280.559,285.809,290.397,293.683" svgx:width="0.94,0.44,0.55,0.5,0.44,0.77,0.5,0.5,0.38,0.27,0.32,0.44,0.27,0.44,0.55,0.27,0.5,0.44,0.27,0.55,0.27,0.27,0.38,0.55,0.27,0.44,0.27,0.27,0.27,0.44,0.44,0.55,0.5,0.5,0.5,0.44,0.77,0.27,0.44,0.38,0.55,0.27,0.38,0.55,0.5,0.27,0.5,0.5,0.27,0.5,0.55,0.44,0.5,0.5,0.44,0.32,0.32" style="fill:rgb(35,31,32);font-family:AdvOT483a8203;font-size:10.5px;stroke:none;">We demonstrate that its lattice dynamics is highly anhar-</text>
   <text y="95.47" x="52.044,60.129,65.379,70.629,73.464,78.084,80.846,85.21,90.312,94.901,100.151,103.012,107.601,110.43599999999999,113.274,116.655,121.905,127.155,135.24,138.05,140.885,145.474,153.559,158.809,163.397,166.778,171.367,174.202,179.382,182.763,187.383,190.21,194.799,200.049,205.299,208.069,210.904,216.154,220.743,223.578,226.439,229.274,234.524,239.144,241.917,247.167,251.756,254.591,259.841,263.222,267.842,270.605,275.856,279.216,282.115,284.95,290.2,293.035" svgx:width="0.77,0.5,0.5,0.27,0.44,0.55,0.44,0.5,0.44,0.5,0.55,0.44,0.27,0.55,0.32,0.5,0.5,0.77,0.55,0.27,0.44,0.77,0.5,0.44,0.32,0.44,0.27,0.5,0.32,0.44,0.55,0.44,0.5,0.5,0.55,0.27,0.5,0.44,0.27,0.55,0.27,0.5,0.44,0.55,0.5,0.44,0.27,0.5,0.32,0.44,0.55,0.5,0.32,0.55,0.27,0.5,0.27,0.38" style="fill:rgb(35,31,32);font-family:AdvOT483a8203;font-size:10.5px;stroke:none;">monic even at room temperature and that the nature of this</text>
   <text y="107.659" x="52.044,56.632,61.882,67.132,71.721,75.102,83.187,88.437,93.602,96.437,101.026,103.861,106.696,111.946,116.961,119.796,123.786,128.923,134.174,139.424,144.012,146.847,149.682,152.517,157.106,159.941,162.488,167.738,172.327,175.162,180.412,185.336,190.586,193.421,196.562,199.943,204.531,207.913,212.501,217.751,220.586,225.647,229.028,232.409,237.659,245.744,250.763,253.598,258.848,263.437,266.272,271.287,274.122,279.372,284.384,287.219,292.469" svgx:width="0.44,0.5,0.5,0.44,0.32,0.77,0.5,0.5,0.27,0.44,0.27,0.27,0.5,0.55,0.27,0.38,0.55,0.5,0.5,0.44,0.27,0.27,0.27,0.44,0.27,0.27,0.5,0.44,0.27,0.5,0.55,0.5,0.27,0.32,0.32,0.44,0.32,0.44,0.5,0.27,0.55,0.32,0.32,0.5,0.77,0.55,0.27,0.5,0.44,0.27,0.55,0.27,0.5,0.55,0.27,0.5,0.44" style="fill:rgb(35,31,32);font-family:AdvOT483a8203;font-size:10.5px;stroke:none;">anharmonicity is qualitatively different from that in the</text>
   <text y="119.791" x="52.044,56.086,58.921,64.171,69.421,72.257,76.87700000000001,80.959,86.209,90.798,93.633,96.468,101.718,106.33800000000001,110.441,115.691,120.28,123.661,128.811,134.061,138.104,143.354,146.189,149.024,153.612,157.655,160.28,164.417,170.759,176.009,180.629,184.714,189.964,194.552,197.387,201.976,207.226,211.814,217.064,220.445,225.034,227.869,231.999,234.834,237.669,240.504,243.339,246.174,251.424,256.674,260.8,266.051,271.301,274.136,278.724,283.974,286.809,289.644,294.233" svgx:width="0.38,0.27,0.5,0.5,0.27,0.44,0.55,0.5,0.44,0.27,0.27,0.5,0.44,0.55,0.5,0.44,0.32,0.5,0.5,0.38,0.5,0.27,0.27,0.44,0.38,0.25,0.55,0.6,0.5,0.44,0.55,0.5,0.44,0.27,0.44,0.5,0.44,0.5,0.32,0.44,0.27,0.55,0.27,0.27,0.27,0.27,0.27,0.5,0.5,0.55,0.5,0.5,0.27,0.44,0.5,0.27,0.27,0.44,0.27" style="fill:rgb(35,31,32);font-family:AdvOT483a8203;font-size:10.5px;stroke:none;">single halide perovskites. The octahedral tilting potential</text>
   <text y="131.922" x="52.044,56.632,61.882,66.471,69.733,74.983,80.233,83.794,87.837,93.087,96.468,99.849,104.437,109.026,113.614,117.604,121.27,124.651,130.447,136.789,142.585,146.628,149.988,153.587,158.837,162.197,165.833,172.826" svgx:width="0.44,0.5,0.44,0.32,0.5,0.5,0.55,0.38,0.5,0.32,0.32,0.44,0.44,0.44,0.38,0.55,0.32,0.55,0.6,0.55,0.38,0.32,0.55,0.5,0.32,0.55,0.67,0.38" style="fill:rgb(35,31,32);font-family:AdvOT483a8203;font-size:10.5px;stroke:none;">energy surfaces (PESs) of Cs</text>
   <text y="134.022" x="176.882" svgx:width="0.5" style="fill:rgb(35,31,32);font-family:AdvTTbdb21c9e;font-size:7.35px;stroke:none;">2</text>
   <text y="131.925" x="181.02,188.558,193.807,200.799,203.633,210.625" svgx:width="0.72,0.5,0.67,0.27,0.67,0.32" style="fill:rgb(35,31,32);font-family:AdvOT483a8203;font-size:10.5px;stroke:none;">AgBiBr</text>
   <text y="134.136" x="214.186" svgx:width="0.5" style="fill:rgb(35,31,32);font-family:AdvTTbdb21c9e;font-size:7.35px;stroke:none;">6</text>
   <text y="131.925" x="218.381,221.006,224.617,227.452,232.702,236.296,240.885,246.135,251.385,254.22,257.601,262.189,266.232,269.067,272.696,275.531,280.781,284.375,287.21,292.46" svgx:width="0.25,0.55,0.27,0.5,0.55,0.44,0.5,0.5,0.27,0.32,0.44,0.38,0.27,0.55,0.27,0.5,0.55,0.27,0.5,0.44" style="fill:rgb(35,31,32);font-family:AdvOT483a8203;font-size:10.5px;stroke:none;">, in contrast to the</text>
   <text y="144.056" x="52.044,56.086,58.921,64.171,69.421,72.256,76.876,79.088,84.338,88.926,92.307,97.401,102.651,106.694,111.944,114.779,117.614,122.23400000000001,124.445,129.695,134.284,137.119,139.954,145.204,149.824,152.056,156.645,161.895,166.483,169.318,174.568,179.818,183.861,186.486,188.683,193.271,196.652,201.272,203.254,208.504,213.092,216.35,221.6,223.89,227.271,230.106,234.695,237.53,240.155,242.374,249.913,255.163,257.998,262.586,267.836,270.098,273.479,278.068,282.11,287.36,290.195,293.03" svgx:width="0.38,0.27,0.5,0.5,0.27,0.44,0.55,0.5,0.44,0.32,0.5,0.5,0.38,0.5,0.27,0.27,0.44,0.55,0.5,0.44,0.27,0.27,0.5,0.44,0.55,0.44,0.5,0.44,0.27,0.5,0.5,0.38,0.25,0.55,0.44,0.32,0.44,0.55,0.5,0.44,0.32,0.5,0.55,0.32,0.27,0.44,0.27,0.25,0.55,0.72,0.5,0.27,0.44,0.5,0.55,0.32,0.44,0.38,0.5,0.27,0.27,0.38" style="fill:rgb(35,31,32);font-family:AdvOT483a8203;font-size:10.5px;stroke:none;">single perovskite halide analogs, are very flat, which results</text>
   <text y="156.245" x="52.044,54.879,60.129,62.589,67.209,69.675,74.925,80.176,84.764,87.599,90.434,93.269,97.858,100.693,103.297,108.547,112.992,115.827,121.077,123.593,128.844,131.679,134.819,138.2,142.789,146.17,150.758,156.008,158.84300000000002,161.353,164.188,169.438,174.688,179.308,181.706,186.956,190.316,192.818,198.069,202.657,205.492,210.081,215.331,219.919,225.169,228.55,233.139,235.97400000000002,238.459,243.709,248.959,254.209,258.798,266.883,269.718,274.307,278.261,280.886,283.42,292.434" svgx:width="0.27,0.5,0.55,0.44,0.55,0.5,0.5,0.44,0.27,0.27,0.27,0.44,0.27,0.27,0.5,0.44,0.27,0.5,0.55,0.5,0.27,0.32,0.32,0.44,0.32,0.44,0.5,0.27,0.55,0.27,0.5,0.5,0.44,0.55,0.5,0.32,0.55,0.5,0.44,0.27,0.44,0.5,0.44,0.5,0.32,0.44,0.27,0.55,0.5,0.5,0.5,0.44,0.77,0.27,0.44,0.38,0.25,0.55,0.94,0.44" style="fill:rgb(35,31,32);font-family:AdvOT483a8203;font-size:10.5px;stroke:none;">in a qualitatively different type of octahedral dynamics. We</text>
   <text y="168.377" x="52.044,55.425,58.26,61.095,67.408,71.997,77.247,83.679,88.268,91.446,94.827,99.416,104.004,106.839,109.476,114.578,119.19800000000001,125.634,133.173,137.761,145.846,148.681,151.516,154.351,159.601,164.852,167.687,172.275,177.525,183.918,187.299,190.68,195.93" svgx:width="0.32,0.27,0.27,0.55,0.44,0.5,0.55,0.44,0.32,0.32,0.44,0.44,0.27,0.27,0.5,0.44,0.55,0.72,0.44,0.77,0.27,0.27,0.27,0.5,0.5,0.27,0.44,0.5,0.55,0.32,0.32,0.5,0.77" style="fill:rgb(35,31,32);font-family:AdvOT483a8203;font-size:10.5px;stroke:none;">fit an effective Hamiltonian from</text>
   <text y="168.377" x="210.444,215.694,220.944,227.395,230.23,235.48,238.315,241.15,243.985" svgx:width="0.5,0.5,0.55,0.27,0.5,0.27,0.27,0.27,0.5" style="fill:rgb(35,31,32);font-family:AdvOTb748f40a.I;font-size:10.5px;stroke:none;">ab initio</text>
   <text y="168.377" x="255.628,263.713,268.963,271.798,276.387,280.975,286.225,289.06,293.649" svgx:width="0.77,0.5,0.27,0.44,0.44,0.5,0.27,0.44,0.32" style="fill:rgb(35,31,32);font-family:AdvOT483a8203;font-size:10.5px;stroke:none;">molecular</text>
   <text y="180.509" x="52.044,57.294,62.544,67.794,72.382,80.467,83.302,87.891,91.881,96.097,99.478,107.017,110.398,119.691,127.23,130.59,134.82,139.409,144.659,149.909,154.153,159.403,163.992,172.077,177.327,182.577,186.619,189.454,192.835,197.424,200.191,204.811,209.035,211.87,217.12,221.708,224.543,228.765,231.6,236.85,239.685,243.675,247.927,253.177,256.012,261.262,266.512,270.719,275.307,280.557,285.807,290.396,293.681" svgx:width="0.5,0.5,0.5,0.44,0.77,0.27,0.44,0.38,0.55,0.32,0.72,0.32,0.88,0.72,0.32,0.55,0.44,0.5,0.5,0.55,0.5,0.44,0.77,0.5,0.5,0.38,0.27,0.32,0.44,0.27,0.44,0.55,0.27,0.5,0.44,0.27,0.55,0.27,0.5,0.27,0.38,0.55,0.5,0.27,0.5,0.5,0.55,0.44,0.5,0.5,0.44,0.32,0.32" style="fill:rgb(35,31,32);font-family:AdvOT483a8203;font-size:10.5px;stroke:none;">dynamics (AIMD) and demonstrate that this high anhar-</text>
   <text y="192.697" x="52.044,60.128,65.377,70.626,73.46,78.047,80.881,83.715,88.965,91.213,96.462,101.05,105.637,110.225,114.266,118.308,121.142,123.976,128.563,131.397,135.985,139.97500000000002,142.334,145.168,150.417,155.037,157.243,162.492,166.534,171.154,173.4,178.649,182.00900000000001,184.341,187.175,191.762,195.142,203.226,207.216,209.509,214.76,220.01,222.323,225.158,230.408,232.698,235.532,240.781,245.401,247.607,250.987,256.236,261.485,264.865,267.699,272.949,275.213,280.462,283.842,289.091,293.678" svgx:width="0.77,0.5,0.5,0.27,0.44,0.27,0.27,0.5,0.55,0.5,0.44,0.44,0.44,0.38,0.38,0.27,0.27,0.44,0.27,0.44,0.38,0.55,0.27,0.5,0.44,0.55,0.5,0.38,0.44,0.55,0.5,0.32,0.55,0.27,0.44,0.32,0.77,0.38,0.55,0.5,0.5,0.55,0.27,0.5,0.55,0.27,0.5,0.44,0.55,0.32,0.5,0.5,0.32,0.27,0.5,0.55,0.5,0.32,0.5,0.44,0.32" style="fill:rgb(35,31,32);font-family:AdvOT483a8203;font-size:10.5px;stroke:none;">monicity necessitates the use of terms up to the fourth order</text>
   <text y="204.83" x="52.044,54.879,60.129,64.63,69.219,72.054,77.304,85.389,88.224,92.84400000000001,97.288,102.538,105.373,109.415,114.665,117.5,122.089,126.677,131.192,139.277,143.866,149.116,151.951,155.941,160.504,163.886,169.136,172.496,177.003,181.592,186.842,191.347,195.936,200.525,205.113,210.363,213.744,218.333,221.168,225.788,230.241,235.491,240.079,244.122,248.711,252.092,254.927,260.177,263.012,265.847,271.097,276.279,278.904,283.422,292.436" svgx:width="0.27,0.5,0.55,0.44,0.27,0.5,0.77,0.27,0.44,0.55,0.5,0.27,0.38,0.5,0.27,0.44,0.44,0.44,0.77,0.44,0.5,0.27,0.38,0.55,0.32,0.5,0.32,0.55,0.44,0.5,0.55,0.44,0.44,0.44,0.5,0.32,0.44,0.27,0.44,0.55,0.5,0.44,0.38,0.44,0.32,0.27,0.5,0.27,0.27,0.5,0.5,0.25,0.55,0.94,0.44" style="fill:rgb(35,31,32);font-family:AdvOT483a8203;font-size:10.5px;stroke:none;">in atomic displacements for an accurate description. We</text>
   <text y="216.963" x="52.044,57.294,61.738,66.988,69.823,73.474,77.517,82.767,87.762,95.322,98.874,104.124,109.136,116.696,120.305,123.14,128.39,133.01,136.577,141.165,146.415,149.25,152.085,156.674,161.924,165.967,170.58700000000002,174.166,179.416,182.776,186.412,191.032,194.633,198.675,203.926,207.307,210.142,213.74,218.329,223.579,228.829,233.417,236.798,241.387,245.975,251.225,254.06,258.649,262.009,265.618,270.868,276.118,281.368,286.618,291.868" svgx:width="0.5,0.44,0.5,0.27,0.55,0.38,0.5,0.5,0.72,0.55,0.5,0.5,0.72,0.55,0.27,0.5,0.44,0.55,0.44,0.5,0.27,0.27,0.44,0.5,0.38,0.44,0.55,0.5,0.32,0.55,0.44,0.55,0.38,0.5,0.32,0.27,0.55,0.44,0.5,0.5,0.44,0.32,0.44,0.44,0.5,0.27,0.44,0.32,0.55,0.5,0.5,0.5,0.5,0.5,0.5" style="fill:rgb(35,31,32);font-family:AdvOT483a8203;font-size:10.5px;stroke:none;">next show how the collapse of a soft zone-center phonon</text>
   <text y="229.151" x="52.044,55.425,60.013,65.263,68.644,73.894,79.144,84.394,88.897,93.485,97.475,100.69,103.525,108.775,113.39500000000001,116.451,120.93,126.18,131.43,136.018,139.399,142.234,150.319,154.834,160.084,162.919,167.508,170.343,173.178,178.428,181.538,186.788,192.038,196.081,200.669,204.05,209.149,213.738,218.988,222.133,227.383,232.633,237.221,241.264,245.88400000000001,248.893,251.728,255.109,259.698,264.948,268.99,272.371,277.622,281.003,289.088,293.676" svgx:width="0.32,0.44,0.5,0.32,0.5,0.5,0.5,0.44,0.44,0.38,0.55,0.27,0.5,0.44,0.55,0.44,0.5,0.5,0.44,0.32,0.27,0.77,0.44,0.5,0.27,0.44,0.27,0.27,0.5,0.55,0.5,0.5,0.38,0.44,0.32,0.5,0.44,0.5,0.55,0.5,0.5,0.44,0.38,0.44,0.55,0.27,0.32,0.44,0.5,0.38,0.32,0.5,0.32,0.77,0.44,0.32" style="fill:rgb(35,31,32);font-family:AdvOT483a8203;font-size:10.5px;stroke:none;">reproduces the experimentally observed phase transforma-</text>
   <text y="241.283" x="52.044,54.879,57.714,62.964,68.214,70.839,74.438,80.234,83.069,88.319,92.908,95.743,98.578,103.183,105.808,109.419,116.957,121.577,125.18,130.43,135.019,143.104,148.354,153.604,157.646,160.481,163.862,168.451,171.286,175.906,179.496,182.331,187.581,192.17,195.005,198.66,201.495,206.745,211.365,214.988,219.031,224.281,227.662,230.497,235.747,240.336,244.378,248.368,252.011,256.599,261.849,267.099,270.72,275.308,280.558,285.808,290.397,293.682" svgx:width="0.27,0.27,0.5,0.5,0.25,0.55,0.55,0.27,0.5,0.44,0.27,0.27,0.5,0.25,0.55,0.72,0.44,0.55,0.5,0.44,0.77,0.5,0.5,0.38,0.27,0.32,0.44,0.27,0.44,0.55,0.27,0.5,0.44,0.27,0.55,0.27,0.5,0.44,0.55,0.38,0.5,0.32,0.27,0.5,0.44,0.38,0.38,0.55,0.44,0.5,0.5,0.55,0.44,0.5,0.5,0.44,0.32,0.32" style="fill:rgb(35,31,32);font-family:AdvOT483a8203;font-size:10.5px;stroke:none;">tion. Finally, we demonstrate that the softness and anhar-</text>
   <text y="253.415" x="52.044,60.129,65.379,70.629,73.464,78.052,80.887,83.722,88.972,95.02,100.27,103.63,109.761,116.754" svgx:width="0.77,0.5,0.5,0.27,0.44,0.27,0.27,0.5,0.55,0.5,0.32,0.55,0.67,0.38" style="fill:rgb(35,31,32);font-family:AdvOT483a8203;font-size:10.5px;stroke:none;">monicity of Cs</text>
   <text y="255.515" x="120.756" svgx:width="0.5" style="fill:rgb(35,31,32);font-family:AdvTTbdb21c9e;font-size:7.35px;stroke:none;">2</text>
   <text y="253.417" x="124.951,132.489,137.738,144.73,147.564,154.556" svgx:width="0.72,0.5,0.67,0.27,0.67,0.32" style="fill:rgb(35,31,32);font-family:AdvOT483a8203;font-size:10.5px;stroke:none;">AgBiBr</text>
   <text y="255.628" x="158.117" svgx:width="0.5" style="fill:rgb(35,31,32);font-family:AdvTTbdb21c9e;font-size:7.35px;stroke:none;">6</text>
   <text y="253.417" x="168.378,171.759,176.347,180.39,185.64,188.475,191.31,195.3,201.432,204.267,209.517,215.605,220.194,225.444,231.536,236.786,239.621,242.456,245.837,250.426,253.261,258.297,265.857,271.903,274.738,279.326,282.161,284.996,287.831,292.42" svgx:width="0.32,0.44,0.38,0.5,0.27,0.27,0.38,0.55,0.27,0.5,0.55,0.44,0.5,0.55,0.5,0.27,0.27,0.32,0.44,0.27,0.5,0.72,0.55,0.27,0.44,0.27,0.27,0.27,0.44,0.44" style="fill:rgb(35,31,32);font-family:AdvOT483a8203;font-size:10.5px;stroke:none;">results in an ultralow lattice</text>
   <text y="266.4" x="52.044,54.879,60.129,64.718,68.099,76.184,80.772,83.607,86.97,91.558,96.808,102.058,107.308,112.558,117.147,119.982,122.575,127.826,130.661,133.496,138.054,140.679,144.12,151.658,154.493,157.328,162.578,165.946,170.566,173.94,179.19,184.44,189.69,194.279,199.529,204.443,209.545,214.133,219.383,222.218,225.053,230.303,235.553,240.142" svgx:width="0.27,0.5,0.44,0.32,0.77,0.44,0.27,0.55,0.44,0.5,0.5,0.5,0.5,0.44,0.27,0.27,0.5,0.27,0.27,0.5,0.25,0.55,0.72,0.27,0.27,0.5,0.55,0.44,0.55,0.5,0.5,0.5,0.44,0.5,0.5,0.5,0.44,0.5,0.27,0.27,0.5,0.5,0.44,0.27" style="fill:rgb(35,31,32);font-family:AdvOT483a8203;font-size:10.5px;stroke:none;">thermal conductivity, with a nonconventional</text>
   <text y="266.4" x="246.331" svgx:width="0.68" style="fill:rgb(35,31,32);font-family:AdvTTd877c31c;font-size:10.5px;stroke:none;">∼</text>
   <text y="266.4" x="253.417" svgx:width="0.57" style="fill:rgb(35,31,32);font-family:AdvTTd0b5fdba.I;font-size:10.5px;stroke:none;">T</text>
   <text y="262.772" x="260.107" svgx:width="0.68" style="fill:rgb(35,31,32);font-family:AdvTTd877c31c;font-size:7.35px;stroke:none;">−</text>
   <text y="262.772" x="265.096" svgx:width="0.5" style="fill:rgb(35,31,32);font-family:AdvTTbdb21c9e;font-size:7.35px;stroke:none;">0</text>
   <text y="262.772" x="268.725" svgx:width="0.25" style="fill:rgb(35,31,32);font-family:AdvOT483a8203;font-size:7.35px;stroke:none;">.</text>
   <text y="262.772" x="270.595" svgx:width="0.5" style="fill:rgb(35,31,32);font-family:AdvTTbdb21c9e;font-size:7.35px;stroke:none;">5</text>
   <text y="266.4" x="278.135,280.97,285.559,293.644" svgx:width="0.27,0.44,0.77,0.32" style="fill:rgb(35,31,32);font-family:AdvOT483a8203;font-size:10.5px;stroke:none;">tem-</text>
   <text y="278.589" x="52.044,57.294,61.883,65.264,69.852,72.687,77.937,81.318,85.938,89.52,94.77,99.359,104.609,109.197,114.447,119.697,124.286,129.536,134.124,138.713" svgx:width="0.5,0.44,0.32,0.44,0.27,0.5,0.32,0.44,0.55,0.5,0.44,0.5,0.44,0.5,0.5,0.44,0.5,0.44,0.44,0.25" style="fill:rgb(35,31,32);font-family:AdvOT483a8203;font-size:10.5px;stroke:none;">perature dependence.</text>
   <text y="290.55" x="62.533,68.875,74.125,78.745,82.773,88.023,92.611,97.861,101.904,104.739,107.574,112.824,116.205,119.586,124.836,130.086,134.675,137.51,140.345,145.536,150.786,155.375,158.21,162.318,165.153,170.403,174.992,180.242,183.623,188.873,192.934,196.315,203.855,209.651,215.993,219.353,223.437,228.026,232.614,235.449,240.038,245.288,248.123,252.711,255.547,258.382,263.632,268.882,272.872,276.959,284.498,289.087,292.468" svgx:width="0.6,0.5,0.44,0.55,0.5,0.44,0.5,0.38,0.27,0.27,0.5,0.32,0.32,0.5,0.5,0.44,0.27,0.27,0.5,0.5,0.44,0.27,0.55,0.27,0.5,0.44,0.5,0.32,0.5,0.55,0.32,0.72,0.55,0.6,0.32,0.55,0.44,0.44,0.27,0.44,0.5,0.27,0.44,0.27,0.27,0.5,0.5,0.38,0.55,0.72,0.44,0.32,0.44" style="fill:rgb(35,31,32);font-family:AdvOT483a8203;font-size:10.5px;stroke:none;">The density-functional theory (DFT) calculations were</text>
   <text y="302.739" x="52.044,57.294,61.883,65.264,68.645,73.895,77.276,85.361,89.949,95.199,99.783,102.618,107.868,112.483,115.318,120.568,125.188,129.774,135.024,138.405,143.655,146.49,151.079,155.668,158.503,163.753,167.024,170.405,174.994,180.244,185.494,193.579,198.168,203.418,206.253,210.841,216.091,220.659,228.198,232.678,237.78,242.4,247.021,250.403,255.299,261.932,271.769" svgx:width="0.5,0.44,0.32,0.32,0.5,0.32,0.77,0.44,0.5,0.55,0.27,0.5,0.55,0.27,0.5,0.44,0.55,0.5,0.32,0.5,0.27,0.44,0.44,0.27,0.5,0.32,0.32,0.44,0.5,0.5,0.77,0.44,0.5,0.27,0.44,0.5,0.55,0.72,0.44,0.5,0.44,0.55,0.32,0.55,0.72,0.94,0.32" style="fill:rgb(35,31,32);font-family:AdvOT483a8203;font-size:10.5px;stroke:none;">performed in the projector-augmented wave (PAW)</text>
   <text y="302.739" x="279.78,283.161,288.411,293.661" svgx:width="0.32,0.5,0.5,0.32" style="fill:rgb(46,48,146);font-family:AdvOT483a8203;font-size:10.5px;stroke:none;">[26]</text>
   <text y="59.016" x="315.042,318.423,321.804,326.393,334.478,338.798,346.336,351.586,354.967,360.217,364.083,368.672,372.66200000000003,376.556,379.391,387.476,392.726,395.561,400.15,408.235,412.823,418.073,420.908,425.497,430.747,434.613,437.448,442.698,446.519,449.354,454.604,459.224,463.074,470.047,472.882,477.47,482.72,487.97" svgx:width="0.32,0.32,0.44,0.77,0.44,0.72,0.5,0.32,0.5,0.55,0.44,0.38,0.55,0.27,0.77,0.5,0.27,0.44,0.77,0.44,0.5,0.27,0.44,0.5,0.55,0.27,0.5,0.55,0.27,0.5,0.44,0.55,0.72,0.27,0.44,0.5,0.5,0.44" style="fill:rgb(35,31,32);font-family:AdvOT483a8203;font-size:10.5px;stroke:none;">framework as implemented in the Vienna</text>
   <text y="59.016" x="496.403,501.653,506.903,510.747,513.582,518.832,521.667,524.502,527.337" svgx:width="0.5,0.5,0.55,0.27,0.5,0.27,0.27,0.27,0.5" style="fill:rgb(35,31,32);font-family:AdvOTb748f40a.I;font-size:10.5px;stroke:none;">ab initio</text>
   <text y="59.016" x="536.428,540.471,543.306,551.391,556.641" svgx:width="0.38,0.27,0.77,0.5,0.32" style="fill:rgb(35,31,32);font-family:AdvOT483a8203;font-size:10.5px;stroke:none;">simu-</text>
   <text y="71.205" x="315.042,317.877,322.466,325.301,328.136,333.386,338.636,342.54,347.79,352.378,356.967,362.217,366.806,372.056,376.676,380.526" svgx:width="0.27,0.44,0.27,0.27,0.5,0.5,0.55,0.5,0.44,0.44,0.5,0.44,0.5,0.44,0.55,0.32" style="fill:rgb(35,31,32);font-family:AdvOT483a8203;font-size:10.5px;stroke:none;">lation package (</text>
   <text y="71.206" x="383.924,388.857,394.887,399.523" svgx:width="0.72,0.72,0.55,0.55" style="fill:rgb(35,31,32);font-family:AdvOT483a8203;font-size:7.87px;stroke:none;">VASP</text>
   <text y="71.206" x="404.164" svgx:width="0.32" style="fill:rgb(35,31,32);font-family:AdvOT483a8203;font-size:10.5px;stroke:none;">)</text>
   <text y="71.206" x="411.477,414.858,420.108" svgx:width="0.32,0.5,0.5" style="fill:rgb(46,48,146);font-family:AdvOT483a8203;font-size:10.5px;stroke:none;">[27</text>
   <text y="71.206" x="425.367" svgx:width="0.5" style="fill:rgb(46,48,146);font-family:AdvTTd877c31c;font-size:10.5px;stroke:none;">–</text>
   <text y="71.206" x="430.582,435.832,441.082" svgx:width="0.5,0.5,0.32" style="fill:rgb(46,48,146);font-family:AdvOT483a8203;font-size:10.5px;stroke:none;">29]</text>
   <text y="71.206" x="444.415,447.04,450.991,457.333,462.583,467.20300000000003,471.061,476.857,483.85,490.192,494.235,499.485" svgx:width="0.25,0.55,0.6,0.5,0.44,0.55,0.55,0.67,0.6,0.38,0.5,0.27" style="fill:rgb(35,31,32);font-family:AdvOT483a8203;font-size:10.5px;stroke:none;">. The PBEsol</text>
   <text y="71.206" x="506.21,509.591,514.841,520.091" svgx:width="0.32,0.5,0.5,0.32" style="fill:rgb(46,48,146);font-family:AdvOT483a8203;font-size:10.5px;stroke:none;">[30]</text>
   <text y="71.206" x="527.413,530.794,536.044,539.425,547.51,551.395,556.645" svgx:width="0.32,0.5,0.32,0.77,0.55,0.5,0.32" style="fill:rgb(35,31,32);font-family:AdvOT483a8203;font-size:10.5px;stroke:none;">form of</text>
   <text y="83.338" x="315.041,317.876,323.126,327.746,331.992,336.471,341.721,346.309,351.559,356.148,361.398,366.648,371.26800000000003,375.421,380.009,385.259,390.509,394.81,399.399,404.649,408.03,411.411,415.999,418.834,423.423,426.258,429.093,434.271,439.521,443.795,447.176,452.426,457.676,462.265,465.1,467.935,473.185,478.435,483.024,485.859,490.116,497.656,502.244,506.23400000000004,510.583,515.833,519.876,524.464,529.714,532.339,536.55,542.346,545.181,549.77,552.605,555.44" svgx:width="0.27,0.5,0.44,0.55,0.44,0.5,0.44,0.5,0.44,0.5,0.5,0.44,0.55,0.44,0.5,0.5,0.55,0.44,0.5,0.32,0.32,0.44,0.27,0.44,0.27,0.27,0.5,0.5,0.55,0.32,0.5,0.5,0.44,0.27,0.27,0.5,0.5,0.44,0.27,0.55,0.72,0.44,0.38,0.55,0.5,0.38,0.44,0.5,0.25,0.55,0.55,0.27,0.44,0.27,0.27,0.44" style="fill:rgb(35,31,32);font-family:AdvOT483a8203;font-size:10.5px;stroke:none;">the exchange and correlation functional was used. Static</text>
   <text y="95.47" x="315.041,320.291,325.541,330.791,336.041,341.291,346.541,352.63,357.219,361.807,364.642,369.231,374.481,377.316,381.905,384.74,387.575,392.825,398.075,402.065,408.249,412.838,418.088,423.338,429.453,436.992,440.373,449.666,457.226,463.357,467.4,470.235,478.32,483.57,486.405,490.993,493.828,496.663,501.855,507.105,511.095,517.275,524.814,529.403,532.784,537.404,543.525,548.775,553.364,556.622" svgx:width="0.5,0.5,0.5,0.5,0.5,0.5,0.55,0.44,0.44,0.27,0.44,0.5,0.27,0.44,0.27,0.27,0.5,0.5,0.38,0.55,0.44,0.5,0.5,0.55,0.72,0.32,0.88,0.72,0.55,0.38,0.27,0.77,0.5,0.27,0.44,0.27,0.27,0.5,0.5,0.38,0.55,0.72,0.44,0.32,0.44,0.55,0.5,0.44,0.32,0.32" style="fill:rgb(35,31,32);font-family:AdvOT483a8203;font-size:10.5px;stroke:none;">phonon calculations and AIMD simulations were per-</text>
   <text y="107.659" x="315.041,318.422,323.672,327.053,335.138,339.727,344.977,348.549,353.799,357.842,360.677,365.927,371.177,374.686,379.936,385.186,390.436,394.019,398.607,401.442,406.692,414.777,418.341,422.384,427.634,432.884,437.472,440.853,445.442,450.03,452.865,455.7,459.674,462.299,465.91,473.448,478.698,481.533,484.368,488.988,492.499,497.749,502.999,506.56,511.148,516.398,521.648,525.212,530.462,535.712,539.273,543.861,546.696,551.946" svgx:width="0.32,0.5,0.32,0.77,0.44,0.5,0.55,0.5,0.38,0.27,0.5,0.5,0.55,0.5,0.5,0.5,0.55,0.44,0.27,0.5,0.77,0.55,0.38,0.5,0.5,0.44,0.32,0.44,0.44,0.27,0.27,0.38,0.25,0.55,0.72,0.5,0.27,0.27,0.44,0.55,0.5,0.5,0.55,0.44,0.5,0.5,0.55,0.5,0.5,0.55,0.44,0.27,0.5,0.77" style="fill:rgb(35,31,32);font-family:AdvOT483a8203;font-size:10.5px;stroke:none;">formed using 320 atom supercells, while 40 and 80 atom</text>
   <text y="119.791" x="315.041,319.083,324.334,329.584,334.172,337.553,342.142,346.73,349.565,352.4,356.39,360.682,368.221,372.809,376.19,380.81,385.061,390.311,394.353,398.942,404.192,408.419,411.8,417.05,420.41,424.691,432.776,437.365,442.615,447.865,450.7,455.95,461.2,465.456,470.706,475.956,478.791,483.032,488.828,495.17,500.966,505.009,507.634,511.891,518.233,523.483,528.103,532.301,539.84,543.221,552.513" svgx:width="0.38,0.5,0.5,0.44,0.32,0.44,0.44,0.27,0.27,0.38,0.55,0.72,0.44,0.32,0.44,0.55,0.5,0.38,0.44,0.5,0.55,0.32,0.5,0.32,0.55,0.77,0.44,0.5,0.5,0.27,0.5,0.5,0.55,0.5,0.5,0.27,0.55,0.55,0.6,0.55,0.38,0.25,0.55,0.6,0.5,0.44,0.55,0.72,0.32,0.88,0.72" style="fill:rgb(35,31,32);font-family:AdvOT483a8203;font-size:10.5px;stroke:none;">supercells were used for mapping out PESs. The AIMD</text>
   <text y="131.922" x="315.041,319.083,321.919,330.004,335.254,338.089,342.677,345.512,348.347,353.539,358.789,362.779,365.785,373.324,377.912,381.293,385.913,388.803,394.053,399.303,404.553,409.173,412.048,414.883,420.133,423.047,425.882,431.132" svgx:width="0.38,0.27,0.77,0.5,0.27,0.44,0.27,0.27,0.5,0.5,0.38,0.55,0.72,0.44,0.32,0.44,0.55,0.5,0.5,0.5,0.44,0.55,0.27,0.5,0.55,0.27,0.5,0.44" style="fill:rgb(35,31,32);font-family:AdvOT483a8203;font-size:10.5px;stroke:none;">simulations were done in the</text>
   <text y="131.922" x="438.688,445.68,452.021" svgx:width="0.67,0.6,0.55" style="fill:rgb(35,31,32);font-family:AdvOTb748f40a.I;font-size:10.5px;stroke:none;">NVT</text>
   <text y="131.922" x="460.061,464.65,469.9,473.942,478.531,486.616,491.866,494.701,502.186,507.436,511.479,514.314,519.564,527.7,535.24,542.779,548.029,552.646,552.073,556.662" svgx:width="0.44,0.5,0.38,0.44,0.77,0.5,0.27,0.44,0.5,0.38,0.27,0.5,0.5,0.44,0.72,0.5,0.38,0.32,0.44,0.32" style="fill:rgb(35,31,32);font-family:AdvOT483a8203;font-size:10.5px;stroke:none;">ensembleusingaNos´e-</text>
   <text y="144.054" x="315.04,322.579,327.829,332.9,338.15,342.738,350.249,353.084,358.334,362.922,366.304,374.389,379.639,383.681,386.516,391.105,398.101,405.64,408.475,411.31,420.722,423.557,428.807,437.617,442.867,447.456,450.837,455.425,460.675,463.51,470.501,478.04,483.29,487.907,487.33,496.117,504.201,508.79,512.832,521.062,525.651,533.876,537.918,542.507,549.524,554.774" svgx:width="0.72,0.5,0.5,0.5,0.44,0.32,0.27,0.5,0.44,0.32,0.77,0.5,0.38,0.27,0.44,0.27,0.72,0.27,0.27,0.5,0.27,0.5,0.44,0.5,0.44,0.32,0.44,0.5,0.27,0.27,0.72,0.5,0.38,0.32,0.44,0.77,0.44,0.38,0.38,0.44,0.38,0.38,0.44,0.27,0.5,0.5" style="fill:rgb(35,31,32);font-family:AdvOT483a8203;font-size:10.5px;stroke:none;">HooverthermostatwiththedefaultNos´emassassetby</text>
   <text y="156.246" x="315.042,320.031,326.061,330.697" svgx:width="0.72,0.72,0.55,0.55" style="fill:rgb(35,31,32);font-family:AdvOT483a8203;font-size:7.87px;stroke:none;">VASP</text>
   <text y="156.246" x="338.74,343.329,348.579,353.829,357.279,361.899,365.386,370.636,374.174,377.555,381.545,385.116,387.951,390.786,398.871,403.491,407.0,411.043,413.878,418.466,423.716,426.341,429.848,435.644,440.233,444.853,448.331,451.166,456.416,461.036,464.489,470.285,475.535,480.785,486.035,488.871,493.459,501.544,506.133,511.383,514.218,518.806,521.6410000000001,525.098,534.391,538.979,541.814,546.403,549.784,552.619,557.207" svgx:width="0.44,0.5,0.5,0.55,0.44,0.55,0.5,0.55,0.32,0.38,0.55,0.27,0.27,0.77,0.44,0.55,0.38,0.27,0.44,0.5,0.25,0.55,0.55,0.44,0.44,0.55,0.27,0.5,0.44,0.55,0.55,0.5,0.5,0.5,0.27,0.44,0.77,0.44,0.5,0.27,0.44,0.27,0.55,0.88,0.44,0.27,0.44,0.32,0.27,0.44,0.27" style="fill:rgb(35,31,32);font-family:AdvOT483a8203;font-size:10.5px;stroke:none;">and a 2 fs time step. See the Supplemental Material</text>
   <text y="168.378" x="315.042,318.423,323.674,328.924" svgx:width="0.32,0.5,0.5,0.32" style="fill:rgb(46,48,146);font-family:AdvOT483a8203;font-size:10.5px;stroke:none;">[31]</text>
   <text y="168.378" x="335.962,339.343,344.593,347.95300000000003,351.61,354.991,360.241,363.076,365.911,369.583,374.833,379.422,382.257,386.845,389.68,392.515,396.505,400.256,405.506,410.756,414.373,418.962,424.212,432.297,437.547,442.797,445.632,450.221,453.056,455.891,461.141,466.391,470.901,473.736,477.42,485.504,490.093,492.928,498.178,503.428,508.678,513.928,516.763,522.013,527.263,531.792" svgx:width="0.32,0.5,0.32,0.55,0.32,0.5,0.27,0.27,0.55,0.5,0.44,0.27,0.44,0.27,0.27,0.38,0.55,0.5,0.5,0.55,0.44,0.5,0.77,0.5,0.5,0.27,0.44,0.27,0.27,0.5,0.5,0.44,0.27,0.55,0.77,0.44,0.27,0.5,0.5,0.5,0.5,0.27,0.5,0.5,0.5,0.25" style="fill:rgb(35,31,32);font-family:AdvOT483a8203;font-size:10.5px;stroke:none;">for full details on computational methodology.</text>
   <text y="180.396" x="325.53,334.601,339.221,342.651,346.694,349.529,354.117,357.499,360.334,363.855,369.105,374.355,377.803,380.638,385.569,390.672,395.26,399.303,402.138,404.973,410.223,414.811,417.646,420.481,425.731,430.981,434.498,437.333,442.583,447.20300000000003,450.43,455.68,458.515,463.765,467.146,471.734,474.569,477.404,482.654,487.905,491.895,495.39,500.64,504.0,507.523,514.516" svgx:width="0.94,0.44,0.55,0.38,0.27,0.44,0.32,0.27,0.55,0.5,0.5,0.55,0.27,0.5,0.5,0.44,0.38,0.27,0.27,0.5,0.44,0.27,0.27,0.5,0.5,0.55,0.27,0.5,0.44,0.55,0.5,0.27,0.5,0.32,0.44,0.27,0.27,0.5,0.5,0.38,0.55,0.5,0.32,0.55,0.67,0.38" style="fill:rgb(35,31,32);font-family:AdvOT483a8203;font-size:10.5px;stroke:none;">We start by investigating the vibrations of Cs</text>
   <text y="182.495" x="518.513" svgx:width="0.5" style="fill:rgb(35,31,32);font-family:AdvTTbdb21c9e;font-size:7.35px;stroke:none;">2</text>
   <text y="180.397" x="522.708,530.248,535.498,542.491,545.326,552.319" svgx:width="0.72,0.5,0.67,0.27,0.67,0.32" style="fill:rgb(35,31,32);font-family:AdvOT483a8203;font-size:10.5px;stroke:none;">AgBiBr</text>
   <text y="182.551" x="555.874" svgx:width="0.5" style="fill:rgb(35,31,32);font-family:AdvTTbdb21c9e;font-size:7.35px;stroke:none;">6</text>
   <text y="192.529" x="315.042,317.877,323.127,326.608,329.443,332.278,336.26800000000003,339.818,344.407,349.657,354.907,357.742,362.362,365.785,369.828,372.663,376.044,381.294,385.882,388.717,393.967,397.348,401.968,405.416,408.797,414.593,417.428,422.678" svgx:width="0.27,0.5,0.55,0.27,0.27,0.38,0.55,0.44,0.5,0.5,0.27,0.44,0.55,0.38,0.27,0.32,0.5,0.44,0.27,0.5,0.32,0.44,0.55,0.32,0.55,0.27,0.5,0.25" style="fill:rgb(35,31,32);font-family:AdvOT483a8203;font-size:10.5px;stroke:none;">in its cubic structure [Fig.</text>
   <text y="192.529" x="428.825,434.075,437.456,442.044" svgx:width="0.5,0.32,0.44,0.32" style="fill:rgb(46,48,146);font-family:AdvOT483a8203;font-size:10.5px;stroke:none;">1(a)</text>
   <text y="192.529" x="445.379,448.73900000000003,452.295,457.546,462.796,468.046,472.634,475.994,479.453,482.288,487.538,492.158,495.612,499.654,502.489,507.078,509.913,512.748,517.368,520.841,526.091,530.68,534.061,542.146,547.396,552.646,555.481" svgx:width="0.32,0.55,0.5,0.5,0.5,0.44,0.32,0.55,0.27,0.5,0.44,0.55,0.38,0.27,0.44,0.27,0.27,0.44,0.55,0.5,0.44,0.32,0.77,0.5,0.5,0.27,0.44" style="fill:rgb(35,31,32);font-family:AdvOT483a8203;font-size:10.5px;stroke:none;">] under the static harmonic</text>
   <text y="204.661" x="315.042,319.631,324.881,330.131,333.512,338.762,344.012,346.847,354.843,359.432,362.267,365.102,370.352,375.602,378.227,380.866,386.663,389.498,394.748,399.998,403.379" svgx:width="0.44,0.5,0.5,0.32,0.5,0.5,0.27,0.77,0.44,0.27,0.27,0.5,0.5,0.25,0.55,0.55,0.27,0.5,0.5,0.32,0.44" style="fill:rgb(35,31,32);font-family:AdvOT483a8203;font-size:10.5px;stroke:none;">approximation. Figure</text>
   <text y="204.661" x="410.627" svgx:width="0.5" style="fill:rgb(46,48,146);font-family:AdvOT483a8203;font-size:10.5px;stroke:none;">1</text>
   <text y="204.661" x="418.507,422.55,427.8,432.795,440.334,444.324,447.025,449.861,455.111,459.731,462.39,466.433,469.268,473.856,476.691,479.526,484.146,486.769,492.019,496.608,499.989,508.074,513.324,518.574,521.409,526.029,528.611,533.861,539.111,544.361,549.611,554.862" svgx:width="0.38,0.5,0.5,0.72,0.38,0.55,0.27,0.5,0.44,0.55,0.38,0.27,0.44,0.27,0.27,0.44,0.55,0.5,0.44,0.32,0.77,0.5,0.5,0.27,0.44,0.55,0.5,0.5,0.5,0.5,0.5,0.5" style="fill:rgb(35,31,32);font-family:AdvOT483a8203;font-size:10.5px;stroke:none;">shows the static harmonic phonon</text>
   <text y="216.85" x="315.042,320.292,323.127,327.17,332.42,337.009,340.39,344.432,347.267,352.517,357.767,362.895,367.483,372.733,377.983,383.134,388.385,392.973,398.223,402.266,405.101,407.936,413.186,418.342,423.592,426.952,432.12,436.162,438.997,443.586,446.421,451.009,454.999,460.241,463.622,471.161,478.7,484.496,487.877,490.502,495.677,502.019,507.269,511.889,516.994,525.079,530.329,534.372,537.207,542.337,546.815,552.065,556.654" svgx:width="0.5,0.27,0.38,0.5,0.44,0.32,0.38,0.27,0.5,0.5,0.55,0.44,0.5,0.5,0.55,0.5,0.44,0.5,0.38,0.27,0.27,0.5,0.55,0.5,0.32,0.55,0.38,0.27,0.44,0.27,0.44,0.38,0.55,0.32,0.72,0.72,0.55,0.32,0.25,0.55,0.6,0.5,0.44,0.55,0.77,0.5,0.38,0.27,0.55,0.44,0.5,0.44,0.32" style="fill:rgb(35,31,32);font-family:AdvOT483a8203;font-size:10.5px;stroke:none;">dispersion and density of states (DOS). The most eye-</text>
   <text y="228.982" x="315.042,319.631,324.219,327.054,331.643,336.893,339.728,344.978,350.228,352.632,356.013,360.601,365.19,368.025,373.275,376.656,381.276,383.701,386.536,390.526,392.999,395.834,401.084,405.704,408.137,413.387,416.768,421.357,425.399,429.988,435.238,439.827,444.447,446.804,452.054,455.414,457.859,461.902,466.307,471.409,475.997,479.378,483.967,486.80199999999996,489.268,494.518,499.769,505.019,510.269,515.519,520.769,523.173,528.423,531.804,536.393,541.643,546.232,551.482,556.07" svgx:width="0.44,0.44,0.27,0.44,0.5,0.27,0.5,0.5,0.55,0.32,0.44,0.44,0.27,0.5,0.32,0.44,0.55,0.27,0.38,0.55,0.27,0.5,0.44,0.55,0.5,0.32,0.44,0.38,0.44,0.5,0.44,0.44,0.55,0.5,0.32,0.55,0.38,0.44,0.5,0.44,0.32,0.44,0.27,0.55,0.5,0.5,0.5,0.5,0.5,0.5,0.55,0.5,0.32,0.44,0.5,0.44,0.5,0.44,0.38" style="fill:rgb(35,31,32);font-family:AdvOT483a8203;font-size:10.5px;stroke:none;">catching feature is the presence of several phonon branches</text>
   <text y="241.113" x="315.042,322.581,325.416,328.251,333.501,336.586,339.421,347.507,352.095,357.345,360.18,365.43,370.019,373.4,378.65,381.774,385.155,388.536,393.124,398.374,403.624,408.213,413.463,418.052,420.887,425.475,429.456,432.081,435.238,438.073,443.323,448.573,451.408,455.997,460.585,463.42,466.255,471.505,476.755,479.858,485.108,490.358,495.608,500.197,508.282,511.117,515.706,520.294,523.129,526.18,529.015,534.265,538.307,541.142,545.731,550.981,553.816,556.651" svgx:width="0.72,0.27,0.27,0.5,0.55,0.27,0.77,0.44,0.5,0.27,0.5,0.44,0.32,0.5,0.55,0.32,0.32,0.44,0.5,0.5,0.44,0.5,0.44,0.27,0.44,0.38,0.25,0.55,0.27,0.5,0.5,0.27,0.44,0.44,0.27,0.27,0.5,0.5,0.55,0.5,0.5,0.5,0.44,0.77,0.27,0.44,0.44,0.27,0.55,0.27,0.5,0.38,0.27,0.44,0.5,0.27,0.27,0.32" style="fill:rgb(35,31,32);font-family:AdvOT483a8203;font-size:10.5px;stroke:none;">with imaginary frequencies, indicating dynamical instabil-</text>
   <text y="253.302" x="315.042,317.877,320.712,325.304,327.929,333.355,336.736,341.986,347.414,352.664,357.253,360.634,363.469,366.304,370.892,376.142,378.978,383.566,386.649,389.274,394.699,397.534,402.784,407.373,410.754,415.374,420.779,423.614,427.604,433.082,437.671,442.921,448.389,451.224,459.31,463.898,469.148,471.983,477.233,481.822,485.203,490.453,495.845,500.433,505.683,510.933,516.368,520.957,524.999,529.042,533.63,538.88,541.716,544.551,549.139,551.974,554.809" svgx:width="0.27,0.27,0.5,0.25,0.55,0.32,0.5,0.55,0.5,0.44,0.32,0.27,0.27,0.44,0.5,0.27,0.44,0.32,0.25,0.55,0.27,0.5,0.44,0.32,0.44,0.55,0.27,0.38,0.55,0.44,0.5,0.55,0.27,0.77,0.44,0.5,0.27,0.5,0.44,0.32,0.5,0.55,0.44,0.5,0.5,0.55,0.44,0.38,0.38,0.44,0.5,0.27,0.27,0.44,0.27,0.27,0.5" style="fill:rgb(35,31,32);font-family:AdvOT483a8203;font-size:10.5px;stroke:none;">ity. In particular, there is an imaginary and essentially</text>
   <text y="265.434" x="315.042,320.292,323.127,327.17,332.42,337.009,340.39,344.432,347.267,352.517,357.678,360.513,365.102,369.144,373.134,376.161,381.411,386.661,391.912,397.162,402.412,407.662,410.52,415.77,419.151,423.739,428.99,433.578,438.828,441.703,446.953,451.542,454.377,461.916,466.504,471.093,476.343,479.236,482.071,487.321" svgx:width="0.5,0.27,0.38,0.5,0.44,0.32,0.38,0.27,0.5,0.5,0.27,0.44,0.38,0.38,0.55,0.5,0.5,0.5,0.5,0.5,0.5,0.55,0.5,0.32,0.44,0.5,0.44,0.5,0.55,0.5,0.44,0.27,0.72,0.44,0.44,0.5,0.55,0.27,0.5,0.44" style="fill:rgb(35,31,32);font-family:AdvOT483a8203;font-size:10.5px;stroke:none;">dispersionless phonon branch between the</text>
   <text y="265.434" x="494.816" svgx:width="0.58" style="fill:rgb(35,31,32);font-family:AdvTTd877c31c;font-size:10.5px;stroke:none;">Γ</text>
   <text y="265.434" x="503.83,508.418,513.669" svgx:width="0.44,0.5,0.5" style="fill:rgb(35,31,32);font-family:AdvOT483a8203;font-size:10.5px;stroke:none;">and</text>
   <text y="265.434" x="521.859" svgx:width="0.66" style="fill:rgb(35,31,32);font-family:AdvTTd0b5fdba.I;font-size:10.5px;stroke:none;">X</text>
   <text y="265.434" x="531.95,537.2,542.45,545.285,550.536,553.371,557.413" svgx:width="0.5,0.5,0.27,0.5,0.27,0.38,0.25" style="fill:rgb(35,31,32);font-family:AdvOT483a8203;font-size:10.5px;stroke:none;">points.</text>
   <text y="277.567" x="315.043,321.386,326.636,331.25600000000003,334.149,342.235,347.485,352.735,357.323,361.313,364.255,369.505,374.755,377.692,380.527,385.777,388.612,392.60200000000003,395.609,400.859,404.24,408.828,414.078,418.667,423.917,426.849,431.437,436.687,440.068,443.449,448.038,452.08,457.33,462.58,467.831,473.081,475.948,478.783,484.033,487.004,489.839,492.674,495.509,498.344,502.334,505.316,510.566,513.9259999999999,516.882,519.717,524.967,529.587,532.53,540.069,545.319,552.312" svgx:width="0.6,0.5,0.44,0.55,0.77,0.5,0.5,0.44,0.38,0.55,0.5,0.5,0.55,0.27,0.5,0.27,0.38,0.55,0.5,0.32,0.44,0.5,0.44,0.5,0.55,0.44,0.5,0.32,0.32,0.44,0.38,0.5,0.5,0.5,0.5,0.55,0.27,0.5,0.55,0.27,0.27,0.27,0.27,0.38,0.55,0.5,0.32,0.55,0.27,0.5,0.44,0.55,0.72,0.5,0.67,0.32" style="fill:rgb(35,31,32);font-family:AdvOT483a8203;font-size:10.5px;stroke:none;">The modes on this branch correspond to tilts of the AgBr</text>
   <text y="279.78" x="555.874" svgx:width="0.5" style="fill:rgb(35,31,32);font-family:AdvTTbdb21c9e;font-size:7.35px;stroke:none;">6</text>
   <text y="289.758" x="315.042,319.631,324.881,330.131,332.674,339.667,342.502,349.495" svgx:width="0.44,0.5,0.5,0.55,0.67,0.27,0.67,0.32" style="fill:rgb(35,31,32);font-family:AdvOT483a8203;font-size:10.5px;stroke:none;">and BiBr</text>
   <text y="291.855" x="353.083" svgx:width="0.5" style="fill:rgb(35,31,32);font-family:AdvTTbdb21c9e;font-size:7.35px;stroke:none;">6</text>
   <text y="289.758" x="359.83,365.08,369.668,372.503,377.092,382.342,386.931,392.181,395.562,400.15,402.775,405.3,412.84,415.67499999999995,418.284,421.119,426.369" svgx:width="0.5,0.44,0.27,0.44,0.5,0.44,0.5,0.32,0.44,0.25,0.55,0.72,0.27,0.55,0.27,0.5,0.44" style="fill:rgb(35,31,32);font-family:AdvOT483a8203;font-size:10.5px;stroke:none;">octahedra. At the</text>
   <text y="289.758" x="433.531" svgx:width="0.66" style="fill:rgb(35,31,32);font-family:AdvTTd0b5fdba.I;font-size:10.5px;stroke:none;">X</text>
   <text y="289.758" x="443.339,448.589,453.839,456.674,461.924,464.759,467.384,469.93,472.765,478.015,482.635,485.181,493.266,498.516,503.766,508.386,510.921,513.756,517.746,520.389,525.009,527.532,532.782,538.032,541.413,546.033,548.566,551.401,556.651" svgx:width="0.5,0.5,0.27,0.5,0.27,0.25,0.55,0.27,0.5,0.44,0.55,0.77,0.5,0.5,0.44,0.55,0.27,0.38,0.55,0.44,0.55,0.5,0.5,0.32,0.44,0.55,0.27,0.5,0.32" style="fill:rgb(35,31,32);font-family:AdvOT483a8203;font-size:10.5px;stroke:none;">point, the mode is a pure in-</text>
   <text y="301.889" x="315.043,320.293,325.543,330.131,334.174,338.794,342.937,345.772,348.607,351.442,354.277,358.472,363.722,368.311,371.146,373.981,378.569,381.95,387.2,390.03499999999997,394.248,397.083,399.708,404.297,406.922,409.547,413.751,417.793,422.382,427.632,432.882,437.471,442.721,445.556,448.391,452.979,455.81399999999996,459.959,465.209,469.797,472.632,477.221,482.471,487.059,492.31,495.691,500.311,504.465,509.054,511.889,517.139,522.389,527.639,531.793,534.628,539.878,544.498,548.688,551.523,554.358,557.193" svgx:width="0.5,0.5,0.44,0.38,0.44,0.55,0.27,0.27,0.27,0.27,0.55,0.5,0.44,0.27,0.27,0.44,0.32,0.5,0.27,0.55,0.27,0.25,0.44,0.25,0.25,0.55,0.38,0.44,0.5,0.5,0.44,0.5,0.27,0.27,0.44,0.27,0.55,0.5,0.44,0.27,0.44,0.5,0.44,0.5,0.32,0.44,0.55,0.44,0.27,0.5,0.5,0.5,0.55,0.27,0.5,0.44,0.55,0.27,0.27,0.27,0.27" style="fill:rgb(35,31,32);font-family:AdvOT483a8203;font-size:10.5px;stroke:none;">phase tilt pattern; i.e., sequential octahedra along the tilt</text>
  </g>
  <rect style="fill:pink;opacity:0.2;stroke:blue;stroke-width:0.3;" x="56.069" y="334.949" height="303.838" width="499.917" title="2"/>
  <text y="334.949" class="image" id="image.2.1" width="499" height="303" x="56.069" style="font-size:5.0px;">image.2.1.56_556.335_639</text>
  <g begin="text">
   <text y="650.041" x="52.044,57.288,60.347,67.168,69.543,72.001,76.751,79.126,88.612,91.671,95.823,98.863,101.369,104.428,106.993,109.558,114.308,117.966,120.531,123.59,127.741,130.306,133.005,137.755,142.505,144.91,149.66,152.7,155.172,157.737,162.487,166.667,169.062,173.214,177.964,182.714,185.279,189.459,191.911,196.661,201.411,206.161,210.911,213.476,217.656,220.088,224.838,228.989,232.048,236.798,241.548,245.206,249.956,252.521,255.086,259.266,261.646,265.797,268.856,273.606,277.263,279.828,283.98,286.545,289.029,292.687,295.252,298.311,303.061,307.212,309.777,314.527,317.586,321.766,324.237,328.987,332.02700000000004,334.499,340.826" svgx:width="0.55,0.32,0.72,0.25,0.55,0.5,0.25,0.55,0.32,0.44,0.32,0.55,0.32,0.27,0.27,0.5,0.38,0.27,0.32,0.44,0.27,0.27,0.5,0.5,0.55,0.5,0.32,0.55,0.27,0.5,0.44,0.55,0.44,0.5,0.5,0.27,0.44,0.55,0.5,0.5,0.5,0.5,0.27,0.44,0.55,0.5,0.44,0.32,0.5,0.5,0.38,0.5,0.27,0.27,0.44,0.55,0.44,0.32,0.5,0.38,0.27,0.44,0.27,0.55,0.38,0.27,0.32,0.5,0.44,0.27,0.5,0.32,0.44,0.55,0.5,0.32,0.55,0.67,0.38" style="fill:rgb(35,31,32);font-family:AdvOT483a8203;font-size:9.5px;stroke:none;">FIG. 1. (a) Illustration of the cubic double perovskite crystal structure of Cs</text>
   <text y="651.912" x="344.466" svgx:width="0.5" style="fill:rgb(35,31,32);font-family:AdvTTbdb21c9e;font-size:6.65px;stroke:none;">2</text>
   <text y="650.041" x="348.321,355.142,359.892,366.219,368.784,375.111" svgx:width="0.72,0.5,0.67,0.27,0.67,0.32" style="fill:rgb(35,31,32);font-family:AdvOT483a8203;font-size:9.5px;stroke:none;">AgBiBr</text>
   <text y="652.025" x="378.425" svgx:width="0.5" style="fill:rgb(35,31,32);font-family:AdvTTbdb21c9e;font-size:6.65px;stroke:none;">6</text>
   <text y="650.041" x="382.28,384.655,387.043,390.102,394.852,397.892,400.365,406.715,409.28,413.235,420.075,422.476,426.627,429.192,433.942,438.692,443.442,445.947,448.512,453.262,457.442,459.837,464.587,469.337,471.902,474.961,479.711,482.77,485.829,490.68,495.43,499.581,503.239,507.419,509.842,512.407,514.972,517.537,520.102,522.667,527.417,532.167,534.618,538.77,543.52,546.085,549.695,552.193,556.943" svgx:width="0.25,0.55,0.32,0.5,0.32,0.55,0.72,0.27,0.44,0.72,0.55,0.44,0.27,0.5,0.5,0.5,0.55,0.27,0.5,0.44,0.55,0.5,0.5,0.27,0.32,0.5,0.32,0.32,0.5,0.5,0.44,0.38,0.44,0.55,0.27,0.27,0.27,0.27,0.27,0.5,0.5,0.55,0.44,0.5,0.27,0.38,0.55,0.5,0.32" style="fill:rgb(35,31,32);font-family:AdvOT483a8203;font-size:9.5px;stroke:none;">. (b) View along the out-of-phase tilting axis of</text>
   <text y="661.039" x="52.045,54.61,59.36,63.54,65.935,68.5,73.078,79.899,82.958,85.523,89.675,96.99,101.74,105.891,108.95,113.218,115.783,120.533,123.592,127.77199999999999,130.17,132.735,136.887,139.452,142.511,146.662,151.412,156.162,161.013,165.164,167.729" svgx:width="0.27,0.5,0.44,0.55,0.27,0.5,0.72,0.32,0.27,0.44,0.77,0.5,0.44,0.32,0.44,0.27,0.5,0.32,0.44,0.55,0.27,0.44,0.27,0.32,0.44,0.5,0.5,0.5,0.44,0.27,0.25" style="fill:rgb(35,31,32);font-family:AdvOT483a8203;font-size:9.5px;stroke:none;">the low-temperature tetragonal,</text>
   <text y="661.039" x="172.517" svgx:width="0.54" style="fill:rgb(35,31,32);font-family:AdvTTd0b5fdba.I;font-size:9.5px;stroke:none;">a</text>
   <text y="657.695" x="177.676" svgx:width="0.68" style="fill:rgb(35,31,32);font-family:AdvTTd877c31c;font-size:6.65px;stroke:none;">−</text>
   <text y="661.039" x="182.665" svgx:width="0.54" style="fill:rgb(35,31,32);font-family:AdvTTd0b5fdba.I;font-size:9.5px;stroke:none;">b</text>
   <text y="657.695" x="187.824" svgx:width="0.5" style="fill:rgb(35,31,32);font-family:AdvTTbdb21c9e;font-size:6.65px;stroke:none;">0</text>
   <text y="661.039" x="191.679" svgx:width="0.54" style="fill:rgb(35,31,32);font-family:AdvTTd0b5fdba.I;font-size:9.5px;stroke:none;">b</text>
   <text y="657.695" x="196.838" svgx:width="0.5" style="fill:rgb(35,31,32);font-family:AdvTTbdb21c9e;font-size:6.65px;stroke:none;">0</text>
   <text y="661.039" x="200.636,203.011,205.399,210.149,214.899,219.118,222.776,226.927,229.302,231.705,237.443,240.008,244.758,249.508,252.073,254.496,259.246,262.305,266.457,270.608,275.358,277.855,282.007,286.757,291.507,293.9,298.65,301.709,306.316,313.137,317.887,320.263,323.921,328.671,333.421,337.572,340.73,344.881,348.491,350.935,353.994,358.145,362.895,365.954,370.106,373.763,377.915,382.665,385.23,387.73,394.057,397.66700000000003,400.147,404.298,409.048,413.798,416.191,422.518,425.558,428.04,430.605,435.355,440.105,443.763,446.138,448.564,451.623,455.775,459.432,464.182,468.334,472.485,475.155,477.479,482.229,486.381,488.946,493.071,495.446,497.833,504.654,509.404,511.969,514.615,518.795,521.135,523.7,528.45,532.63,535.082,541.409,543.974,546.364,550.515,555.265" svgx:width="0.25,0.55,0.5,0.5,0.44,0.38,0.44,0.25,0.55,0.6,0.27,0.5,0.5,0.27,0.55,0.5,0.32,0.44,0.44,0.5,0.55,0.44,0.5,0.5,0.55,0.5,0.32,0.5,0.72,0.5,0.55,0.38,0.5,0.5,0.44,0.32,0.44,0.38,0.55,0.32,0.44,0.5,0.32,0.44,0.38,0.44,0.5,0.27,0.55,0.67,0.38,0.55,0.44,0.5,0.5,0.55,0.67,0.32,0.55,0.27,0.5,0.5,0.38,0.25,0.55,0.32,0.44,0.38,0.5,0.44,0.44,0.27,0.27,0.5,0.44,0.27,0.5,0.25,0.55,0.72,0.5,0.27,0.27,0.44,0.55,0.27,0.5,0.44,0.55,0.67,0.27,0.55,0.44,0.5,0.5" style="fill:rgb(35,31,32);font-family:AdvOT483a8203;font-size:9.5px;stroke:none;">, phase. Light green and brown spheres represent Cs and Br ions, respectively, while the Bi and</text>
   <text y="672.038" x="52.045,58.866,63.616,66.105,68.67,73.42,78.17,81.78,84.361,88.512,91.571,95.751,98.194,100.759,105.509,109.66,113.898,116.463,120.615,125.365,127.845,131.997,134.562,137.086,139.651,144.401,148.58100000000002,151.033,155.184,159.336,164.086,166.651,170.802,173.861,177.471,180.061,184.811,187.851,190.379,195.129,197.694,202.444,207.194,209.712,213.863,218.613,223.363,225.869,230.619,233.678,237.83,242.58,245.089,249.839,253.99,256.555,260.707,265.457,269.608,274.358,277.519,281.67,284.045,286.533,289.592,293.744,297.401,302.151,306.303,310.454,313.019,315.448,320.198,324.35,326.915,331.04,333.415,335.859,338.918,343.07,346.11,348.672,353.916,356.481,360.632,363.197,365.762,369.942,372.427,377.177,381.328,384.387,391.702,396.452,401.285,403.85,408.03000000000003,410.469,415.219,419.969,424.719,429.469,434.281,439.031,441.538,446.288,448.853,452.511,457.261,461.412,464.471,468.129,470.694,475.444,480.194,482.756,485.815,489.966,492.531,496.683,499.248,501.813,506.563,511.313,513.881,518.033,522.783,527.533,530.039,533.098,537.848,542.0,545.059,547.624,550.189,554.34,556.905" svgx:width="0.72,0.5,0.55,0.27,0.5,0.5,0.38,0.55,0.44,0.32,0.44,0.55,0.27,0.5,0.44,0.44,0.27,0.44,0.5,0.55,0.44,0.27,0.55,0.27,0.5,0.44,0.55,0.44,0.44,0.5,0.27,0.44,0.32,0.38,0.55,0.5,0.32,0.55,0.5,0.27,0.5,0.5,0.55,0.44,0.5,0.5,0.55,0.5,0.32,0.44,0.5,0.55,0.5,0.44,0.27,0.44,0.5,0.44,0.5,0.32,0.44,0.25,0.55,0.32,0.44,0.38,0.5,0.44,0.44,0.27,0.27,0.5,0.44,0.27,0.5,0.25,0.55,0.32,0.44,0.32,0.55,0.55,0.27,0.44,0.27,0.27,0.44,0.55,0.5,0.44,0.32,0.77,0.5,0.5,0.27,0.44,0.55,0.5,0.5,0.5,0.5,0.5,0.5,0.55,0.5,0.27,0.38,0.5,0.44,0.32,0.38,0.27,0.5,0.5,0.55,0.32,0.44,0.27,0.44,0.27,0.27,0.5,0.5,0.55,0.44,0.5,0.5,0.55,0.32,0.5,0.44,0.32,0.27,0.27,0.44,0.27,0.32" style="fill:rgb(35,31,32);font-family:AdvOT483a8203;font-size:9.5px;stroke:none;">Ag ions are located at the centers of pink and gray octahedra, respectively. (c) Static harmonic phonon dispersion relation and (partial)</text>
   <text y="683.036" x="52.045,56.795,60.946,65.696,69.354,71.919,74.484,79.234,81.243,85.993,89.033,90.995,94.652,97.217,101.369,103.934,108.174,111.784,113.786,116.845,123.666,130.487,135.731,138.771,140.773,145.523,148.563,150.581,156.908" svgx:width="0.5,0.44,0.5,0.38,0.27,0.27,0.5,0.55,0.5,0.32,0.55,0.38,0.27,0.44,0.27,0.44,0.38,0.55,0.32,0.72,0.72,0.55,0.32,0.55,0.5,0.32,0.55,0.67,0.38" style="fill:rgb(35,31,32);font-family:AdvOT483a8203;font-size:9.5px;stroke:none;">density of states (DOS) of Cs</text>
   <text y="684.907" x="160.554" svgx:width="0.5" style="fill:rgb(35,31,32);font-family:AdvTTbdb21c9e;font-size:6.65px;stroke:none;">2</text>
   <text y="683.036" x="164.409,171.23,175.98,182.307,184.872,191.199" svgx:width="0.72,0.5,0.67,0.27,0.67,0.32" style="fill:rgb(35,31,32);font-family:AdvOT483a8203;font-size:9.5px;stroke:none;">AgBiBr</text>
   <text y="685.021" x="194.513" svgx:width="0.5" style="fill:rgb(35,31,32);font-family:AdvTTbdb21c9e;font-size:6.65px;stroke:none;">6</text>
   <text y="683.036" x="198.368,200.743,202.677,209.498,213.649,218.399,222.551,225.116,227.453,232.203,236.383,238.225,242.975,247.725,255.04,259.79,264.021,267.08,270.69,272.695,277.445,281.597,286.347,291.097,293.662,297.842,299.796,302.361,309.676,313.828,318.578,321.143,325.989,330.141,333.2,337.95,339.936,342.995,346.054,350.206,354.956,359.706,363.857,368.607,372.759,375.324,379.475,383.133,385.508,387.561,390.62,395.37,398.41,400.373,405.123,413.923,419.167,424.905,430.13,432.122,436.872,439.91200000000003,441.93,444.495,449.245,452.304,456.456,460.636,462.567,467.317,469.882,472.829,475.888,480.039,483.098,487.25,492.0,494.565,496.528,501.278,505.429,507.994,512.232,516.982,521.133,525.883,528.943,533.094,535.6590000000001,537.631,540.196,542.761,545.326,547.891,550.558,555.308" svgx:width="0.25,0.55,0.72,0.44,0.5,0.44,0.27,0.27,0.5,0.44,0.55,0.5,0.5,0.77,0.5,0.44,0.32,0.38,0.55,0.5,0.44,0.5,0.5,0.27,0.44,0.55,0.27,0.77,0.44,0.5,0.27,0.5,0.44,0.32,0.5,0.55,0.32,0.32,0.44,0.5,0.5,0.44,0.5,0.44,0.27,0.44,0.38,0.25,0.55,0.32,0.5,0.32,0.55,0.5,0.72,0.55,0.6,0.55,0.55,0.5,0.32,0.55,0.27,0.5,0.32,0.44,0.44,0.55,0.5,0.27,0.32,0.32,0.44,0.32,0.44,0.5,0.27,0.55,0.5,0.44,0.27,0.44,0.5,0.44,0.5,0.32,0.44,0.27,0.55,0.27,0.27,0.27,0.27,0.27,0.5,0.5" style="fill:rgb(35,31,32);font-family:AdvOT483a8203;font-size:9.5px;stroke:none;">. Negative numbers denote imaginary frequencies. (d) 1DPES of three different octahedral tilting</text>
   <text y="694.034" x="52.045,59.36,64.11,68.86,73.011,76.621,78.748,81.807,85.465,89.616,93.79599999999999,95.813,98.378,102.53,107.28,109.845,111.801,114.86,119.61,122.65,124.727,129.477,133.629,136.194,140.345,142.91,145.475,149.133,152.192,154.567,156.646,159.705,162.764,167.514,171.172,175.413,177.978,181.018,183.066,188.804,193.554,196.119,200.27,203.329,208.079,212.231,219.546,223.697,228.447,231.012,233.071,237.821,240.861,242.879,245.444,250.194,254.374,256.429,258.994,263.516,270.337,273.396,277.633,282.383,286.534,289.482,294.232,298.982,301.047,305.797,309.949,313.008,315.573,317.602,322.352,325.392,327.467,330.032,334.782,338.962,340.96,346.204,351.942,357.186,359.561,361.596,364.655,368.807,371.866,374.241,377.3,380.476,383.516,385.521,390.271" svgx:width="0.77,0.5,0.5,0.44,0.38,0.55,0.32,0.38,0.44,0.44,0.55,0.27,0.44,0.5,0.27,0.55,0.32,0.5,0.32,0.55,0.5,0.44,0.27,0.44,0.27,0.27,0.38,0.32,0.25,0.55,0.32,0.32,0.5,0.38,0.44,0.27,0.32,0.55,0.6,0.5,0.27,0.44,0.32,0.5,0.44,0.77,0.44,0.5,0.27,0.55,0.5,0.32,0.55,0.27,0.5,0.44,0.55,0.27,0.5,0.72,0.32,0.44,0.5,0.44,0.32,0.5,0.5,0.55,0.5,0.44,0.32,0.27,0.55,0.5,0.32,0.55,0.27,0.5,0.44,0.55,0.55,0.6,0.55,0.25,0.55,0.32,0.44,0.32,0.25,0.32,0.32,0.32,0.55,0.5,0.72" style="fill:rgb(35,31,32);font-family:AdvOT483a8203;font-size:9.5px;stroke:none;">modes (see text for details). (Inset) Enlargement of the low-energy part of the PES. (e),(f) 2D</text>
   <text y="694.034" x="399.118" svgx:width="0.54" style="fill:rgb(35,31,32);font-family:AdvTTd0b5fdba.I;font-size:9.5px;stroke:none;">a</text>
   <text y="690.69" x="404.277" svgx:width="0.68" style="fill:rgb(35,31,32);font-family:AdvTTd877c31c;font-size:6.65px;stroke:none;">−</text>
   <text y="694.035" x="409.323" svgx:width="0.54" style="fill:rgb(35,31,32);font-family:AdvTTd0b5fdba.I;font-size:9.5px;stroke:none;">b</text>
   <text y="690.69" x="414.482" svgx:width="0.77" style="fill:rgb(35,31,32);font-family:AdvP4C4E74;font-size:6.65px;stroke:none;">þ</text>
   <text y="694.035" x="420.094" svgx:width="0.49" style="fill:rgb(35,31,32);font-family:AdvTTd0b5fdba.I;font-size:9.5px;stroke:none;">c</text>
   <text y="690.69" x="424.743" svgx:width="0.5" style="fill:rgb(35,31,32);font-family:AdvTTbdb21c9e;font-size:6.65px;stroke:none;">0</text>
   <text y="694.035" x="430.583,435.827,441.565,446.79,448.838,453.588,456.62800000000004,458.703,465.03" svgx:width="0.55,0.6,0.55,0.55,0.5,0.32,0.55,0.67,0.38" style="fill:rgb(35,31,32);font-family:AdvOT483a8203;font-size:9.5px;stroke:none;">PES of Cs</text>
   <text y="695.906" x="468.737" svgx:width="0.5" style="fill:rgb(35,31,32);font-family:AdvTTbdb21c9e;font-size:6.65px;stroke:none;">2</text>
   <text y="694.035" x="472.535,479.356,484.106,490.507,493.072,499.399" svgx:width="0.72,0.5,0.67,0.27,0.67,0.32" style="fill:rgb(35,31,32);font-family:AdvOT483a8203;font-size:9.5px;stroke:none;">AgBiBr</text>
   <text y="696.019" x="502.639" svgx:width="0.5" style="fill:rgb(35,31,32);font-family:AdvTTbdb21c9e;font-size:6.65px;stroke:none;">6</text>
   <text y="694.035" x="508.535,512.687,517.437,522.187,524.183,530.51,534.167,539.49,544.24,550.567" svgx:width="0.44,0.5,0.5,0.55,0.67,0.38,0.55,0.5,0.67,0.32" style="fill:rgb(35,31,32);font-family:AdvOT483a8203;font-size:9.5px;stroke:none;">and CsPbBr</text>
   <text y="695.906" x="553.833" svgx:width="0.5" style="fill:rgb(35,31,32);font-family:AdvTTbdb21c9e;font-size:6.65px;stroke:none;">3</text>
   <text y="694.035" x="557.631" svgx:width="0.25" style="fill:rgb(35,31,32);font-family:AdvOT483a8203;font-size:9.5px;stroke:none;">,</text>
   <text y="705.033" x="52.045,55.104,59.256,62.913,67.663,71.815,75.966,78.531,80.96,85.71,89.862,92.427,96.552,98.927,100.917,105.068,108.678,110.782,114.96199999999999,117.017,120.076,124.826,129.576,133.728,136.293,138.858,143.608,148.358,150.411,155.161,158.201,160.276,162.841,167.591,171.77100000000002,173.826,178.576,183.326,185.891,188.95,193.7,196.759,199.818,204.668,209.418,213.57,217.227,221.407,223.435,226.0,228.565,231.13" svgx:width="0.32,0.44,0.38,0.5,0.44,0.44,0.27,0.27,0.5,0.44,0.27,0.5,0.25,0.55,0.44,0.38,0.55,0.44,0.55,0.32,0.5,0.5,0.44,0.27,0.27,0.5,0.5,0.55,0.5,0.32,0.55,0.27,0.5,0.44,0.55,0.5,0.5,0.27,0.32,0.5,0.32,0.32,0.5,0.5,0.44,0.38,0.44,0.55,0.27,0.27,0.27,0.27" style="fill:rgb(35,31,32);font-family:AdvOT483a8203;font-size:9.5px;stroke:none;">respectively, as a function of the out-of-phase tilt</text>
   <text y="705.033" x="235.729" svgx:width="0.54" style="fill:rgb(35,31,32);font-family:AdvTTd0b5fdba.I;font-size:9.5px;stroke:none;">a</text>
   <text y="701.688" x="240.888" svgx:width="0.68" style="fill:rgb(35,31,32);font-family:AdvTTd877c31c;font-size:6.65px;stroke:none;">−</text>
   <text y="705.033" x="247.918,252.07,256.82,261.57,263.622,266.187,270.937,273.996,278.746,283.579,287.731,291.388,295.568,297.583,300.148,302.713,305.278" svgx:width="0.44,0.5,0.5,0.55,0.27,0.5,0.32,0.5,0.5,0.44,0.38,0.44,0.55,0.27,0.27,0.27,0.27" style="fill:rgb(35,31,32);font-family:AdvOT483a8203;font-size:9.5px;stroke:none;">and in-phase tilt</text>
   <text y="705.033" x="309.94" svgx:width="0.54" style="fill:rgb(35,31,32);font-family:AdvTTd0b5fdba.I;font-size:9.5px;stroke:none;">b</text>
   <text y="701.688" x="315.099" svgx:width="0.77" style="fill:rgb(35,31,32);font-family:AdvP4C4E74;font-size:6.65px;stroke:none;">þ</text>
   <text y="705.033" x="320.712,323.087,325.134,330.872,335.622,339.802,341.803,344.368,346.933,349.498,352.063,354.162,358.314,365.629,370.379,372.944,375.509,378.074,382.824,387.67,391.85,393.849,396.414,400.024,402.127,406.877,409.214,413.964,418.115,422.865,424.861,429.013,432.623,434.726,437.291,442.041,446.221,448.219,452.969,455.873,458.932,462.589,466.741,469.306,471.35,476.1,479.14000000000004,481.215,485.965,490.715,494.895,496.919,503.246,506.286,508.372,510.937,515.687,520.437,522.489,525.054,529.804,531.843,536.593,541.343,543.908,546.473,550.083,552.197,556.947" svgx:width="0.25,0.55,0.6,0.5,0.44,0.55,0.27,0.27,0.27,0.27,0.55,0.44,0.77,0.5,0.27,0.27,0.27,0.5,0.5,0.44,0.55,0.27,0.38,0.55,0.5,0.27,0.5,0.44,0.5,0.55,0.44,0.38,0.55,0.27,0.5,0.44,0.55,0.5,0.32,0.32,0.38,0.44,0.27,0.55,0.5,0.32,0.55,0.5,0.5,0.44,0.55,0.67,0.32,0.55,0.27,0.5,0.5,0.55,0.27,0.5,0.55,0.5,0.5,0.27,0.27,0.38,0.55,0.5,0.32" style="fill:rgb(35,31,32);font-family:AdvOT483a8203;font-size:9.5px;stroke:none;">. The tilt amplitude is given as the offset of one Br ion in units of</text>
   <text y="716.031" x="52.045,54.61,59.36,63.54,66.842,69.407,73.559,76.124,78.689,81.254,85.405,89.58500000000001,92.979,97.13,101.88,106.63,110.288,112.853,117.004,121.837,124.402,127.732,132.482,135.522,138.902,141.467,146.217,150.39700000000002,153.699,158.449,163.199,167.949,172.699,175.264,179.44400000000002,182.783,187.533,191.685,194.744,199.494,204.244,207.901,212.651,215.216,217.781,221.961,225.248,228.307,230.872,237.778,242.528,245.828,248.393,250.958,258.358,262.509,266.119,269.47,272.035,276.785,280.96500000000003,284.324,286.889,291.04,293.605,296.17,298.735,302.887,307.067,310.403,314.555,319.305,324.123,327.781,330.346,334.497,339.247,341.812,345.422,348.842,353.592,356.632,360.011,362.576,367.326,371.50600000000003,374.808,378.466,381.031,385.781,390.531,393.178,397.358,400.661,405.411,409.562,412.621,417.371,422.121,425.779,430.529,433.094,435.659,439.839,443.126,445.691,450.441,453.784,456.349,461.099,465.279,468.581,474.908,478.565,483.888,488.638,494.965" svgx:width="0.27,0.5,0.44,0.55,0.27,0.44,0.27,0.27,0.27,0.44,0.44,0.55,0.44,0.5,0.5,0.38,0.27,0.44,0.5,0.27,0.55,0.5,0.32,0.55,0.27,0.5,0.44,0.55,0.5,0.5,0.5,0.5,0.27,0.44,0.55,0.5,0.44,0.32,0.5,0.5,0.38,0.5,0.27,0.27,0.44,0.55,0.32,0.27,0.72,0.5,0.55,0.27,0.27,0.77,0.44,0.38,0.55,0.27,0.5,0.44,0.55,0.27,0.44,0.27,0.27,0.27,0.44,0.44,0.55,0.44,0.5,0.5,0.38,0.27,0.44,0.5,0.27,0.38,0.55,0.5,0.32,0.55,0.27,0.5,0.44,0.55,0.38,0.27,0.5,0.5,0.27,0.44,0.55,0.5,0.44,0.32,0.5,0.5,0.38,0.5,0.27,0.27,0.44,0.55,0.27,0.5,0.55,0.27,0.5,0.44,0.55,0.67,0.38,0.55,0.5,0.67,0.32" style="fill:rgb(35,31,32);font-family:AdvOT483a8203;font-size:9.5px;stroke:none;">the lattice constant of the double perovskite (two times the lattice constants of the single perovskite in the CsPbBr</text>
   <text y="717.959" x="498.217" svgx:width="0.5" style="fill:rgb(35,31,32);font-family:AdvTTbdb21c9e;font-size:6.65px;stroke:none;">3</text>
   <text y="716.031" x="505.361,509.512,513.664,517.321,521.472,524.531" svgx:width="0.44,0.44,0.38,0.44,0.32,0.25" style="fill:rgb(35,31,32);font-family:AdvOT483a8203;font-size:9.5px;stroke:none;">case).</text>
  </g>
  <path style="fill:rgb(35,31,32);stroke:none;stroke-width:1.0;" d="M56.070 326.950 L555.930 326.950 L555.930 630.710 L56.070 630.710 "/>
  <g begin="text">
   <text y="35.036" x="190.261,196.057,203.597,211.136,216.932,220.313,227.306,234.845,241.145,244.803,251.796,258.138,265.677,269.058,275.4,285.27,288.856,295.198,301.54,307.883,314.225,320.567,327.56" svgx:width="0.55,0.72,0.72,0.55,0.32,0.67,0.72,0.6,0.55,0.67,0.6,0.72,0.32,0.6,0.94,0.55,0.6,0.6,0.6,0.6,0.6,0.67,0.55" style="fill:rgb(35,31,32);font-family:AdvOT483a8203;font-size:10.5px;stroke:none;">PHYSICAL REVIEW LETTERS</text>
   <text y="35.036" x="336.982,342.233,347.483,352.733" svgx:width="0.5,0.5,0.5,0.25" style="fill:rgb(35,31,32);font-family:AdvOT19ee2aa8.B;font-size:10.5px;stroke:none;">125,</text>
   <text y="35.036" x="358.979,364.229,369.479,374.729,379.979,385.229,390.479,394.074,397.455,402.705,407.955,413.205,418.455" svgx:width="0.5,0.5,0.5,0.5,0.5,0.5,0.55,0.32,0.5,0.5,0.5,0.5,0.32" style="fill:rgb(35,31,32);font-family:AdvOT483a8203;font-size:10.5px;stroke:none;">045701 (2020)</text>
   <text y="746.986" x="286.015,291.265,296.515,301.765,307.015,312.265,317.515,320.896" svgx:width="0.5,0.5,0.5,0.5,0.5,0.5,0.32,0.5" style="fill:rgb(35,31,32);font-family:AdvOT483a8203;font-size:10.5px;stroke:none;">045701-2</text>
  </g>
 </g>
</svg>
