<?xml version="1.0" encoding="UTF-8"?>
<svg height="778.132" width="2501.042" xmlns="http://www.w3.org/2000/svg">
 <g id="page" xmlns:svgx="http://www.xml-cml.org/schema/svgx">
  <rect style="fill:pink;opacity:0.2;stroke:blue;stroke-width:0.3;" x="-8.958" y="8.68" height="122.854" width="612.625" title="1"/>
  <text y="8.68" class="image" id="image.1.1" width="612" height="122" x="-8.958" style="font-size:5.0px;">image.1.1.-9_604.9_132</text>
  <g begin="text">
   <text y="164.239" x="143.943,156.64,161.852,174.046,185.236,190.951,198.913,212.111,223.301,235.735,247.929,266.1,272.317,283.507,297.184,302.4442,308.751,322.428,330.39,343.589,357.265,369.46,377.422,383.136,389.353,401.547,411.11100000000005,417.263,430.462,436.91769999999997,443.172,454.864,468.063,473.275,484.465,489.175,498.62,511.053,523.247,528.46" svgx:width="0.53,0.22,0.51,0.47,0.24,0.33,0.55,0.47,0.52,0.51,0.76,0.26,0.47,0.57,0.22,0.55,0.57,0.33,0.55,0.57,0.51,0.33,0.24,0.26,0.51,0.4,0.55,0.55,0.27,0.55,0.49,0.55,0.22,0.47,0.2,0.4,0.52,0.51,0.22,0.22" style="fill:rgb(0,0,0);font-family:AdvOT735b620e;font-size:23.91px;stroke:none;">Electrochemical properties of yolk-shell</text>
   <text y="194.117" x="143.943,153.388,159.102,167.064,179.259,190.449,196.163,208.357,216.319,228.514,242.14270000000002,248.486,262.426,274.859,286.049" svgx:width="0.4,0.24,0.33,0.51,0.47,0.24,0.51,0.33,0.51,0.57,0.55,0.58,0.52,0.47,0.51" style="fill:rgb(0,0,0);font-family:AdvOT735b620e;font-size:23.91px;stroke:none;">structured ZnFe</text>
   <text y="198.085" x="298.261" svgx:width="0.61" style="fill:rgb(0,0,0);font-family:AdvOT735b620e;font-size:15.94px;stroke:none;">2</text>
   <text y="194.117" x="309.316" svgx:width="0.85" style="fill:rgb(0,0,0);font-family:AdvOT735b620e;font-size:23.91px;stroke:none;">O</text>
   <text y="198.085" x="329.726" svgx:width="0.61" style="fill:rgb(0,0,0);font-family:AdvOT735b620e;font-size:15.94px;stroke:none;">4</text>
   <text y="194.117" x="346.961,360.637,373.836,391.768,405.445,417.639,425.601,435.165,441.298,454.975,462.937,475.131,488.808,502.484,510.447,522.641" svgx:width="0.57,0.55,0.75,0.57,0.51,0.33,0.4,0.55,0.57,0.33,0.51,0.57,0.57,0.33,0.51,0.57" style="fill:rgb(0,0,0);font-family:AdvOT735b620e;font-size:23.91px;stroke:none;">powders prepared</text>
   <text y="223.995" x="143.944,157.62,169.3359,175.579,189.20770000000002,195.477,204.922,211.139,229.31,242.987,248.199,260.3931,266.684,276.129,289.806,297.768,311.444,323.1599,329.387,343.063,351.025,362.717,368.934,381.367,394.9957,401.33,415.007,422.969,436.167,447.357,459.551,468.996,478.56,484.726,498.403" svgx:width="0.57,0.49,0.55,0.57,0.55,0.4,0.26,0.76,0.57,0.22,0.51,0.55,0.4,0.57,0.33,0.57,0.49,0.55,0.57,0.33,0.49,0.26,0.52,0.57,0.55,0.57,0.33,0.55,0.47,0.51,0.4,0.4,0.55,0.57,0.4" style="fill:rgb(0,0,0);font-family:AdvOT735b620e;font-size:23.91px;stroke:none;">by a simple spray drying process as</text>
   <text y="253.873" x="143.944,157.62,170.054,183.252,196.929,209.1231,215.378,233.55,247.226,252.941,265.135,273.097,279.314,292.99,298.2502,304.501,310.957,324.155,332.0453,338.346,343.558,349.775,355.489,367.923,374.139,386.333,404.505,409.216,415.432,428.631,441.06419999999997,447.367,461.043,474.72,480.434,486.149,498.343,506.305" svgx:width="0.57,0.52,0.55,0.57,0.51,0.55,0.76,0.57,0.24,0.51,0.33,0.26,0.57,0.22,0.55,0.27,0.55,0.33,0.55,0.22,0.26,0.24,0.52,0.26,0.51,0.76,0.2,0.26,0.55,0.52,0.55,0.57,0.57,0.24,0.24,0.51,0.33,0.49" style="fill:rgb(0,0,0);font-family:AdvOT735b620e;font-size:23.91px;stroke:none;">anode material for lithium-ion battery</text>
   <text y="277.795" x="143.943,147.294,152.319,157.241,162.44400000000002,164.92,172.898,175.264,180.1832,182.665,192.319,197.344,202.266,204.91479999999999,207.383,212.408,216.942,221.769,226.69,231.893,234.425,240.728,245.7418,248.201,254.41,259.332,264.358,266.724,269.3728,271.842,277.256,282.282,287.108,292.03,297.23299999999995,299.734,303.085,307.912,312.83119999999997,315.268,321.571,326.597,331.518,336.743,339.3918,341.913,347.327,352.353,357.1776,359.602,366.993,372.19599999999997,374.682,380.294,385.3078,387.778,394.3054,396.792,402.206,407.033,411.9522,414.423,420.632,425.554,430.778,435.6972,438.178,443.79,449.015,453.936" svgx:width="0.35,0.53,0.52,0.55,0.55,0.84,0.25,0.52,0.55,1.02,0.53,0.52,0.28,0.55,0.53,0.48,0.51,0.52,0.55,0.55,0.67,0.53,0.55,0.66,0.52,0.53,0.25,0.28,0.55,0.57,0.53,0.51,0.52,0.55,0.55,0.35,0.51,0.52,0.55,0.67,0.53,0.52,0.55,0.28,0.55,0.57,0.53,0.51,0.55,0.78,0.55,0.55,0.59,0.53,0.55,0.69,0.55,0.57,0.51,0.52,0.55,0.66,0.52,0.55,0.52,0.55,0.59,0.55,0.52,0.55" style="fill:rgb(0,0,0);font-family:AdvOT144a03c1;font-size:9.46px;stroke:none;">Jong Min Won, Seung Ho Choi, Young Jun Hong, You Na Ko &amp; Yun Chan Kang</text>
   <text y="307.672" x="143.943,149.002,152.812,157.086,161.36,163.848,165.634,171.313,175.123,179.008,180.8008,182.831,186.955,188.9719,190.938,196.228,200.113,203.924,209.603,211.545,215.042,219.316,220.95940000000002,222.967,226.934,230.819,235.093,237.036,240.921,244.732,248.543,251.031,252.973,256.859,261.133,263.37399999999997,265.369,269.882,274.006,277.892,281.469,285.279,288.7899,290.709,295.768,299.653,301.596,305.018,308.829,311.317,314.268,316.211,317.997,321.65,323.89099999999996,325.913,330.4697,332.433,337.723,343.327,347.601,351.254,355.619,359.504,363.778,365.25,369.524,373.648,377.533,381.807,384.048,386.06,392.127,397.731,402.005,405.89,410.164,412.107,414.05,417.935,419.407,423.681,427.491,429.73199999999997,431.75,435.875,439.685,443.81,447.62,449.2634,451.251,455.839,460.426,465.014,466.486,471.074,475.661,480.249,482.49,484.526,489.039,493.164,495.652,499.463,503.736" svgx:width="0.68,0.51,0.57,0.57,0.33,0.24,0.76,0.51,0.52,0.24,0.55,0.55,0.27,0.55,0.71,0.52,0.51,0.76,0.26,0.47,0.57,0.22,0.55,0.53,0.52,0.57,0.26,0.52,0.51,0.51,0.33,0.26,0.52,0.57,0.3,0.55,0.6,0.55,0.52,0.47,0.51,0.47,0.55,0.68,0.52,0.26,0.46,0.51,0.33,0.4,0.26,0.24,0.49,0.3,0.55,0.61,0.55,0.71,0.75,0.57,0.49,0.57,0.52,0.57,0.2,0.57,0.55,0.52,0.57,0.3,0.55,0.81,0.75,0.57,0.52,0.57,0.26,0.26,0.52,0.2,0.57,0.51,0.3,0.55,0.55,0.51,0.55,0.51,0.22,0.55,0.61,0.61,0.61,0.2,0.61,0.61,0.61,0.3,0.55,0.6,0.55,0.33,0.51,0.57,0.3" style="fill:rgb(0,0,0);font-family:AdvOT735b620e;font-size:7.47px;stroke:none;">Department of Chemical Engineering, Konkuk University, 1 Hwayang-dong, Gwangjin-gu, Seoul 143-701, Korea.</text>
   <text y="337.663" x="143.943,149.66,154.884,160.005" svgx:width="0.6,0.55,0.54,0.43" style="fill:rgb(0,0,0);font-family:AdvOT5e4d79fc;font-size:9.46px;stroke:none;">ZnFe</text>
   <text y="339.25" x="164.069" svgx:width="0.49" style="fill:rgb(0,0,0);font-family:AdvOT5e4d79fc;font-size:6.31px;stroke:none;">2</text>
   <text y="337.663" x="167.527" svgx:width="0.75" style="fill:rgb(0,0,0);font-family:AdvOT5e4d79fc;font-size:9.46px;stroke:none;">O</text>
   <text y="339.25" x="174.614" svgx:width="0.49" style="fill:rgb(0,0,0);font-family:AdvOT5e4d79fc;font-size:6.31px;stroke:none;">4</text>
   <text y="337.663" x="179.66,183.995,188.822,191.282,196.015,200.842,204.391,209.511,213.553,216.013,218.4726,220.081,225.107,229.934,236.341,241.367,245.408,249.052,252.64679999999998,254.153,260.56,264.602,268.246,272.31379999999996,273.882,278.908,282.551,286.593,291.618,295.849,299.493,303.534,308.5478,310.165,315.087,319.4386,320.994,325.224,330.25,335.276,337.737,342.071,344.731,349.955,354.4958,356.03,360.287,361.869,365.419,368.078,375.962,380.988,383.449,387.5168,389.082,392.631,397.657,401.301,405.531,409.866,413.113,418.138,421.782,426.117,428.776,434.001,438.54179999999997,440.105,445.13,448.774,453.601,457.538,461.58,465.129,468.678,470.9484,472.532,479.631,483.672,488.102,491.149,494.793,497.453,502.65599999999995,504.224,510.631,514.862,518.4567999999999,520.041,525.161,528.71,532.752,537.7657999999999,539.316,543.547,547.1418,548.67" svgx:width="0.46,0.51,0.26,0.5,0.51,0.38,0.54,0.43,0.26,0.26,0.55,0.53,0.51,0.68,0.53,0.43,0.38,0.38,0.55,0.68,0.43,0.38,0.43,0.55,0.53,0.38,0.43,0.53,0.45,0.38,0.43,0.53,0.55,0.52,0.46,0.55,0.45,0.53,0.53,0.26,0.46,0.28,0.55,0.48,0.55,0.45,0.55,0.38,0.28,0.83,0.53,0.26,0.43,0.55,0.38,0.53,0.38,0.45,0.46,0.34,0.53,0.38,0.46,0.28,0.55,0.48,0.55,0.53,0.38,0.51,0.42,0.43,0.38,0.38,0.24,0.55,0.75,0.43,0.47,0.32,0.38,0.28,0.55,0.55,0.68,0.45,0.38,0.55,0.54,0.38,0.43,0.53,0.55,0.45,0.38,0.55,0.45" style="fill:rgb(0,0,0);font-family:AdvOT5e4d79fc;font-size:9.46px;stroke:none;">yolk–shell powders were prepared by applying a simple spray-drying process. Dextrin was used as a</text>
   <text y="347.64" x="143.943,148.969,152.613,156.948,159.607,164.832,169.37279999999998,171.835,176.066,181.092,186.117,188.777,191.825,194.484,198.819,202.8868,205.341,209.572,214.796,219.8098,222.292,226.229,230.46,234.104,239.026,243.852,249.055,251.545,255.095,259.921,265.042,268.686,272.623,276.69079999999997,279.155,287.039,291.269,294.317,298.358,302.002,304.662,308.892,311.353,313.6234,316.061,320.291,325.516,330.5298,333.012,336.059,341.18,346.3,349.89480000000003,352.344,357.37,359.831,364.061,368.396,372.438,377.4518,379.953,384.21,386.643,391.375,395.417,399.7686,402.176,405.82,410.647,413.108,417.1758,419.638,422.297,427.5,429.956,433.003,438.124,442.1918,444.639,449.665,453.309,457.35,462.376,466.607,470.25,474.481,477.529,480.188,485.015,490.21799999999996,492.715,497.542,500.47459999999995,502.976,506.024,511.144,515.2118,517.66,522.685,527.512,533.92,538.945,542.987,546.631,550.18" svgx:width="0.53,0.38,0.46,0.28,0.55,0.48,0.55,0.45,0.53,0.53,0.28,0.32,0.28,0.46,0.43,0.55,0.45,0.55,0.53,0.55,0.42,0.45,0.38,0.52,0.51,0.55,0.55,0.38,0.51,0.54,0.38,0.42,0.43,0.55,0.83,0.45,0.32,0.43,0.38,0.28,0.45,0.26,0.24,0.55,0.45,0.55,0.53,0.55,0.32,0.54,0.54,0.38,0.55,0.53,0.26,0.45,0.46,0.43,0.53,0.55,0.45,0.55,0.5,0.43,0.46,0.55,0.38,0.51,0.26,0.43,0.55,0.28,0.55,0.55,0.32,0.54,0.43,0.55,0.53,0.38,0.43,0.53,0.45,0.38,0.45,0.32,0.28,0.51,0.55,0.55,0.51,0.31,0.55,0.32,0.54,0.43,0.55,0.53,0.51,0.68,0.53,0.43,0.38,0.38,0.24" style="fill:rgb(0,0,0);font-family:AdvOT5e4d79fc;font-size:9.46px;stroke:none;">drying additive and carbon source material, and thus played a key role in the preparation of the powders.</text>
   <text y="357.618" x="143.943,149.859,154.979,159.04680000000002,161.518,165.455,170.282,178.166,183.088,188.208,191.757,194.805,197.465,202.292,207.495,209.99,214.817,217.74960000000002,220.195,225.22,228.864,232.906,236.843,241.963,245.607,249.156,253.983,257.5778,260.106,265.132,269.959,276.366,281.392,285.433,289.077,292.6718,295.085,299.023,303.85,309.074,312.623,315.283,318.832,321.88,324.539,329.764,334.3048,336.754,341.581,344.5136,347.016,351.057,353.717,358.941,362.9142,365.328,369.558,374.783,379.7968,382.279,384.938,388.582,393.409,398.61199999999997,401.101,404.65,408.881,411.342,414.389,417.98380000000003,420.433,424.664,429.889,434.9028,437.385,442.41,446.452,450.881,453.929,457.573,460.232,465.435,467.885,472.712,477.634,480.681,484.912,487.572,492.796,496.837,501.8508,504.395,509.316,513.6676,516.073" svgx:width="0.63,0.54,0.43,0.55,0.42,0.51,0.83,0.52,0.54,0.38,0.32,0.28,0.51,0.55,0.55,0.51,0.31,0.55,0.53,0.38,0.43,0.42,0.54,0.38,0.38,0.51,0.38,0.55,0.53,0.51,0.68,0.53,0.43,0.38,0.38,0.55,0.42,0.51,0.55,0.38,0.28,0.38,0.32,0.28,0.55,0.48,0.55,0.51,0.31,0.55,0.43,0.28,0.55,0.42,0.55,0.45,0.55,0.53,0.55,0.28,0.38,0.51,0.55,0.55,0.38,0.45,0.26,0.32,0.38,0.55,0.45,0.55,0.53,0.55,0.53,0.43,0.47,0.32,0.38,0.28,0.55,0.55,0.51,0.52,0.32,0.45,0.28,0.55,0.43,0.53,0.55,0.52,0.46,0.55,0.45" style="fill:rgb(0,0,0);font-family:AdvOT5e4d79fc;font-size:9.46px;stroke:none;">The combustion of precursor powders consisting of zinc and iron salts and dextrin obtained by a</text>
   <text y="367.596" x="143.943,147.492,152.518,156.162,160.393,164.728,167.974,173.0,176.643,180.978,183.638,188.862,193.40279999999998,195.874,200.899,204.543,209.37,213.307,217.349,220.898,224.4928,226.941,231.967,235.611,240.438,245.463,250.584,254.521,258.562,263.5758,266.059,269.107,274.227,278.29479999999995,280.743,285.077,289.904,292.365,297.098,301.924,305.474,310.594,314.635,317.096,319.557,322.803,326.353,329.4,333.044,338.164,342.102,345.149,350.27,353.914,357.955,362.9688,365.441,371.158,376.382,381.503" svgx:width="0.38,0.53,0.38,0.45,0.46,0.34,0.53,0.38,0.46,0.28,0.55,0.48,0.55,0.53,0.38,0.51,0.42,0.43,0.38,0.38,0.55,0.53,0.38,0.51,0.53,0.54,0.42,0.43,0.53,0.55,0.32,0.54,0.43,0.55,0.46,0.51,0.26,0.5,0.51,0.38,0.54,0.43,0.26,0.26,0.34,0.38,0.32,0.38,0.54,0.42,0.32,0.54,0.38,0.43,0.53,0.55,0.6,0.55,0.54,0.43" style="fill:rgb(0,0,0);font-family:AdvOT5e4d79fc;font-size:9.46px;stroke:none;">spray-drying process produced the yolk–shell-structured ZnFe</text>
   <text y="369.128" x="385.568" svgx:width="0.49" style="fill:rgb(0,0,0);font-family:AdvOT5e4d79fc;font-size:6.31px;stroke:none;">2</text>
   <text y="367.597" x="389.027" svgx:width="0.75" style="fill:rgb(0,0,0);font-family:AdvOT5e4d79fc;font-size:9.46px;stroke:none;">O</text>
   <text y="369.128" x="396.113" svgx:width="0.49" style="fill:rgb(0,0,0);font-family:AdvOT5e4d79fc;font-size:6.31px;stroke:none;">4</text>
   <text y="367.597" x="402.066,407.092,411.919,418.326,423.352,427.393,431.037,434.6318,437.045,441.087,445.421,449.463,454.666,457.114,461.345,464.3722,466.865,471.122,473.612,476.073,480.899,487.3318,489.769,494.794,499.621,503.171,506.218,509.465,512.512,516.156,520.197,524.428,527.476,535.36,539.401,544.626" svgx:width="0.53,0.51,0.68,0.53,0.43,0.38,0.38,0.55,0.43,0.46,0.43,0.55,0.55,0.45,0.32,0.55,0.45,0.55,0.26,0.51,0.68,0.55,0.53,0.51,0.38,0.32,0.34,0.32,0.38,0.43,0.45,0.32,0.83,0.43,0.55,0.32" style="fill:rgb(0,0,0);font-family:AdvOT5e4d79fc;font-size:9.46px;stroke:none;">powders even at a low post-treatment</text>
   <text y="377.518" x="143.943,146.99,151.032,158.916,163.941,167.983,171.627,175.857,178.905,184.025,187.669,191.73680000000002,193.719,198.546,201.4786,203.414,208.042,212.67" svgx:width="0.32,0.43,0.83,0.53,0.43,0.38,0.45,0.32,0.54,0.38,0.43,0.55,0.51,0.31,0.55,0.49,0.49,0.49" style="fill:rgb(0,0,0);font-family:AdvOT5e4d79fc;font-size:9.46px;stroke:none;">temperature of 350</text>
   <text y="377.518" x="217.304" svgx:width="0.45" style="fill:rgb(0,0,0);font-family:AdvP4072C;font-size:10.41px;stroke:none;">6</text>
   <text y="377.518" x="222.009,228.313,230.58339999999998,232.497,238.412,243.533,247.6008,249.562,255.278,260.503,265.623" svgx:width="0.67,0.24,0.55,0.63,0.54,0.43,0.55,0.6,0.55,0.54,0.43" style="fill:rgb(0,0,0);font-family:AdvOT5e4d79fc;font-size:9.46px;stroke:none;">C. The ZnFe</text>
   <text y="379.105" x="269.631" svgx:width="0.49" style="fill:rgb(0,0,0);font-family:AdvOT5e4d79fc;font-size:6.31px;stroke:none;">2</text>
   <text y="377.518" x="273.09" svgx:width="0.75" style="fill:rgb(0,0,0);font-family:AdvOT5e4d79fc;font-size:9.46px;stroke:none;">O</text>
   <text y="379.105" x="280.233" svgx:width="0.49" style="fill:rgb(0,0,0);font-family:AdvOT5e4d79fc;font-size:6.31px;stroke:none;">4</text>
   <text y="377.518" x="285.619,290.645,295.471,301.879,306.905,310.946,314.59,318.1848,320.088,325.114,328.757,332.799,337.825,342.055,345.699,349.74,354.7538,356.711,359.664,363.308,368.135,377.97,381.018,386.138,390.20579999999995,392.144,395.693,400.719,404.362,408.593,412.94460000000004,414.878,418.427,423.254,425.715,430.835,433.883,436.542,441.369,446.572,448.553,454.96,457.62,460.667,465.788,470.615,475.735,478.7622,480.754,485.78,489.821,494.251,497.298,500.942,503.602,508.80499999999995,510.801,515.922,520.152,525.1658,527.129,531.386,533.308,536.261,538.921,541.381,543.842,547.884" svgx:width="0.53,0.51,0.68,0.53,0.43,0.38,0.38,0.55,0.53,0.38,0.43,0.53,0.45,0.38,0.43,0.53,0.55,0.31,0.38,0.51,0.83,0.32,0.54,0.43,0.55,0.38,0.53,0.38,0.45,0.46,0.55,0.38,0.51,0.26,0.54,0.32,0.28,0.51,0.55,0.55,0.68,0.28,0.32,0.54,0.51,0.54,0.32,0.55,0.53,0.43,0.47,0.32,0.38,0.28,0.55,0.55,0.54,0.45,0.53,0.55,0.45,0.55,0.31,0.28,0.26,0.26,0.43,0.53" style="fill:rgb(0,0,0);font-family:AdvOT5e4d79fc;font-size:9.46px;stroke:none;">powders prepared fromthe spray solution without dextrin had a filled</text>
   <text y="387.496" x="143.943,148.174,153.398,158.4118,160.894,165.92,170.747,174.684,179.417,187.301,191.531,195.175,199.907,203.949,208.96280000000002,211.464,215.013,218.061,221.704,226.825,230.762,233.81,238.93,242.574,246.615,248.8854,251.375,257.29,262.411,266.4788,268.893,271.553,276.777,279.437,282.484,285.144,289.374,291.83360000000005,294.291,299.317,301.976,305.526,309.463,314.583,318.814,322.458,326.991,331.05879999999996,333.522,337.459,341.69,346.716,350.946,354.884,357.543,360.591,363.25,367.292,370.8868,373.32,378.147,381.07959999999997,383.581,386.629,391.749,395.8168,398.265,403.981,409.206,414.326" svgx:width="0.45,0.55,0.53,0.55,0.53,0.51,0.42,0.5,0.83,0.45,0.38,0.5,0.43,0.53,0.55,0.38,0.32,0.38,0.54,0.42,0.32,0.54,0.38,0.43,0.24,0.55,0.63,0.54,0.43,0.55,0.28,0.55,0.28,0.32,0.28,0.45,0.26,0.55,0.53,0.28,0.38,0.42,0.54,0.45,0.38,0.48,0.43,0.55,0.42,0.45,0.53,0.45,0.42,0.28,0.32,0.28,0.43,0.38,0.55,0.51,0.31,0.55,0.32,0.54,0.43,0.55,0.6,0.55,0.54,0.43" style="fill:rgb(0,0,0);font-family:AdvOT5e4d79fc;font-size:9.46px;stroke:none;">and pockmarked structure. The initial discharge capacities of the ZnFe</text>
   <text y="389.083" x="418.337" svgx:width="0.49" style="fill:rgb(0,0,0);font-family:AdvOT5e4d79fc;font-size:6.31px;stroke:none;">2</text>
   <text y="387.496" x="421.852" svgx:width="0.75" style="fill:rgb(0,0,0);font-family:AdvOT5e4d79fc;font-size:9.46px;stroke:none;">O</text>
   <text y="389.083" x="428.939" svgx:width="0.49" style="fill:rgb(0,0,0);font-family:AdvOT5e4d79fc;font-size:6.31px;stroke:none;">4</text>
   <text y="387.496" x="434.835,439.169,443.996,446.457,451.189,456.016,459.565,464.686,468.727,471.188,473.6476,476.164,480.394,485.619,490.63280000000003,493.115,496.068,498.727,501.188,503.649,507.69,512.7038,515.168,520.194,525.021,531.428,536.454,540.495,544.139" svgx:width="0.46,0.51,0.26,0.5,0.51,0.38,0.54,0.43,0.26,0.26,0.55,0.45,0.55,0.53,0.55,0.31,0.28,0.26,0.26,0.43,0.53,0.55,0.53,0.51,0.68,0.53,0.43,0.38,0.38" style="fill:rgb(0,0,0);font-family:AdvOT5e4d79fc;font-size:9.46px;stroke:none;">yolk–shell and filled powders</text>
   <text y="397.473" x="143.943,148.969,153.796,157.345,160.392,163.639,166.686,170.33,174.372,178.602,181.65,185.691,190.7048,192.641,196.872,199.8992,201.826,206.454,211.082" svgx:width="0.53,0.51,0.38,0.32,0.34,0.32,0.38,0.43,0.45,0.32,0.43,0.53,0.55,0.45,0.32,0.55,0.49,0.49,0.49" style="fill:rgb(0,0,0);font-family:AdvOT5e4d79fc;font-size:9.46px;stroke:none;">post-treated at 450</text>
   <text y="397.474" x="215.717" svgx:width="0.45" style="fill:rgb(0,0,0);font-family:AdvP4072C;font-size:10.41px;stroke:none;">6</text>
   <text y="397.474" x="220.365,228.585,232.816,235.8432,237.713,241.97,243.836,247.773,252.893,256.537,260.181,264.222,269.447,272.4742,274.393,279.419,283.46,288.685,292.234,294.893,297.941,302.2926,304.156,308.983,311.9156,313.794,318.422,323.05,327.6854,330.859,338.743,347.243" svgx:width="0.67,0.45,0.32,0.55,0.45,0.55,0.42,0.54,0.38,0.38,0.43,0.55,0.32,0.55,0.53,0.43,0.55,0.38,0.28,0.32,0.46,0.55,0.51,0.31,0.55,0.49,0.49,0.49,0.55,0.83,0.7,0.48" style="fill:rgb(0,0,0);font-family:AdvOT5e4d79fc;font-size:9.46px;stroke:none;">Cat a current density of 500 mAg</text>
   <text y="393.959" x="351.779" svgx:width="0.83" style="fill:rgb(0,0,0);font-family:AdvP7DED;font-size:5.24px;stroke:none;">2</text>
   <text y="393.959" x="356.655" svgx:width="0.49" style="fill:rgb(0,0,0);font-family:AdvOT5e4d79fc;font-size:5.24px;stroke:none;">1</text>
   <text y="397.474" x="361.417,367.825,371.866,375.51,379.57779999999997,381.429,386.057,390.685,395.314,399.9494,401.839,406.069,411.294,416.3078,418.223,422.851,427.479,432.1144,435.231,443.115,451.615,456.7234,458.588" svgx:width="0.68,0.43,0.38,0.43,0.55,0.49,0.49,0.49,0.49,0.55,0.45,0.55,0.53,0.55,0.49,0.49,0.49,0.55,0.83,0.7,0.54,0.55,0.48" style="fill:rgb(0,0,0);font-family:AdvOT5e4d79fc;font-size:9.46px;stroke:none;">were 1226 and 993 mAh g</text>
   <text y="393.959" x="463.124" svgx:width="0.83" style="fill:rgb(0,0,0);font-family:AdvP7DED;font-size:5.24px;stroke:none;">2</text>
   <text y="393.959" x="468.057" svgx:width="0.49" style="fill:rgb(0,0,0);font-family:AdvOT5e4d79fc;font-size:5.24px;stroke:none;">1</text>
   <text y="397.474" x="470.948,473.2184,475.087,478.731,482.772,486.321,491.347,495.388,499.326,502.373,505.033,509.368,513.409,515.87,520.205,522.4754,524.352,528.583,533.807,538.8208,540.736,543.784,548.904" svgx:width="0.24,0.55,0.38,0.43,0.38,0.53,0.43,0.42,0.32,0.28,0.46,0.43,0.26,0.46,0.24,0.55,0.45,0.55,0.53,0.55,0.32,0.54,0.43" style="fill:rgb(0,0,0);font-family:AdvOT5e4d79fc;font-size:9.46px;stroke:none;">, respectively, and the</text>
   <text y="407.395" x="143.943,147.88,152.707,156.351,159.995,164.036,167.586,172.611,177.438,182.663,187.689,190.348,195.573,200.1138,202.563,205.223,210.447,213.107,216.154,218.814,223.044,225.5036,228.018,234.322,239.148,244.269,246.73,251.557,259.441,264.362,267.022,270.9952,273.428,277.47,280.423,283.376,286.035,289.972,292.632,296.673,301.898,305.835,308.495,312.536,316.1308,318.555,324.963,329.004,332.648,336.7158,339.134,343.763,348.3984,350.869,355.1,360.325,365.3388,367.821,372.449,377.077,384.27,386.5404,389.023,394.939,400.059,404.1268,406.541,411.567,414.226,417.776,421.713,426.833,431.064,434.708,439.241,443.30879999999996,445.772,449.709,453.94,458.966,463.196,467.134,469.793,472.841,475.5,479.542,483.1368,485.57,490.397,493.32959999999997,495.774,498.822,503.942,508.0098,510.458,516.174,521.399,526.519" svgx:width="0.42,0.51,0.38,0.38,0.43,0.38,0.53,0.51,0.55,0.53,0.28,0.55,0.48,0.55,0.28,0.55,0.28,0.32,0.28,0.45,0.26,0.55,0.67,0.51,0.54,0.26,0.51,0.83,0.52,0.28,0.42,0.55,0.43,0.31,0.31,0.28,0.42,0.28,0.43,0.55,0.42,0.28,0.43,0.38,0.55,0.68,0.43,0.38,0.43,0.55,0.49,0.49,0.55,0.45,0.55,0.53,0.55,0.49,0.49,0.76,0.24,0.55,0.63,0.54,0.43,0.55,0.53,0.28,0.38,0.42,0.54,0.45,0.38,0.48,0.43,0.55,0.42,0.45,0.53,0.45,0.42,0.28,0.32,0.28,0.43,0.38,0.55,0.51,0.31,0.55,0.32,0.54,0.43,0.55,0.6,0.55,0.54,0.43" style="fill:rgb(0,0,0);font-family:AdvOT5e4d79fc;font-size:9.46px;stroke:none;">corresponding initial Coulombic efficiencies were 74 and 58%. The discharge capacities of the ZnFe</text>
   <text y="408.983" x="530.589" svgx:width="0.49" style="fill:rgb(0,0,0);font-family:AdvOT5e4d79fc;font-size:6.31px;stroke:none;">2</text>
   <text y="407.395" x="534.047" svgx:width="0.75" style="fill:rgb(0,0,0);font-family:AdvOT5e4d79fc;font-size:9.46px;stroke:none;">O</text>
   <text y="408.983" x="541.134" svgx:width="0.49" style="fill:rgb(0,0,0);font-family:AdvOT5e4d79fc;font-size:6.31px;stroke:none;">4</text>
   <text y="417.373" x="143.943,148.969,153.796,160.203,165.229,169.271,172.914,176.50879999999998,178.412,184.82,187.479,190.527,195.63539999999998,197.631,201.966,206.793,209.254,213.986,218.813,222.362,227.483,231.524,233.985,236.4446,238.393,242.624,247.849,252.8628,254.891,257.844,260.504,262.964,265.425,269.467,274.4808,276.434,279.984,283.031,286.675,291.795,295.733,298.78,303.901,307.545,311.586,315.18080000000003,317.14,322.165,326.992,330.542,333.589,336.836,339.883,343.527,347.568,351.799,354.847,358.888,363.9018,365.895,370.125,373.1522,375.136,379.764,384.392" svgx:width="0.53,0.51,0.68,0.53,0.43,0.38,0.38,0.55,0.68,0.28,0.32,0.54,0.55,0.46,0.51,0.26,0.5,0.51,0.38,0.54,0.43,0.26,0.26,0.55,0.45,0.55,0.53,0.55,0.31,0.28,0.26,0.26,0.43,0.53,0.55,0.38,0.32,0.38,0.54,0.42,0.32,0.54,0.38,0.43,0.38,0.55,0.53,0.51,0.38,0.32,0.34,0.32,0.38,0.43,0.45,0.32,0.43,0.53,0.55,0.45,0.32,0.55,0.49,0.49,0.49" style="fill:rgb(0,0,0);font-family:AdvOT5e4d79fc;font-size:9.46px;stroke:none;">powders with yolk–shell and filled structures post-treated at 450</text>
   <text y="417.373" x="389.027" svgx:width="0.45" style="fill:rgb(0,0,0);font-family:AdvP4072C;font-size:10.41px;stroke:none;">6</text>
   <text y="417.373" x="393.676,400.0142,401.952,406.183,409.136,412.184,416.225,419.81980000000004,421.852,426.48,431.108,435.7434,437.726,441.663,445.998,449.935,452.396,456.437,460.03180000000003,461.933,468.341,472.382,476.026,480.0938,482.002,486.63,491.258,495.8934,497.876,502.107,507.331,512.3448,514.317,518.945,523.573,528.2084,531.382,539.266,547.823" svgx:width="0.67,0.55,0.45,0.31,0.32,0.43,0.38,0.55,0.49,0.49,0.49,0.55,0.42,0.46,0.42,0.26,0.43,0.38,0.55,0.68,0.43,0.38,0.43,0.55,0.49,0.49,0.49,0.55,0.45,0.55,0.53,0.55,0.49,0.49,0.49,0.55,0.83,0.7,0.54" style="fill:rgb(0,0,0);font-family:AdvOT5e4d79fc;font-size:9.46px;stroke:none;">C after 200 cycles were 862 and 332 mAh</text>
   <text y="427.351" x="143.944" svgx:width="0.48" style="fill:rgb(0,0,0);font-family:AdvOT5e4d79fc;font-size:9.46px;stroke:none;">g</text>
   <text y="423.836" x="148.479" svgx:width="0.83" style="fill:rgb(0,0,0);font-family:AdvP7DED;font-size:5.24px;stroke:none;">2</text>
   <text y="423.836" x="153.411" svgx:width="0.49" style="fill:rgb(0,0,0);font-family:AdvOT5e4d79fc;font-size:5.24px;stroke:none;">1</text>
   <text y="427.351" x="156.302,158.5724,160.271,163.915,167.956,171.505,176.531,180.572,184.51,187.557,190.217,194.552,198.593,201.054,205.389,207.6594,209.423,215.339,220.459,224.5268,226.261,231.977,237.202,242.322" svgx:width="0.24,0.55,0.38,0.43,0.38,0.53,0.43,0.42,0.32,0.28,0.46,0.43,0.26,0.46,0.24,0.55,0.63,0.54,0.43,0.55,0.6,0.55,0.54,0.43" style="fill:rgb(0,0,0);font-family:AdvOT5e4d79fc;font-size:9.46px;stroke:none;">, respectively. The ZnFe</text>
   <text y="428.939" x="246.387" svgx:width="0.49" style="fill:rgb(0,0,0);font-family:AdvOT5e4d79fc;font-size:6.31px;stroke:none;">2</text>
   <text y="427.351" x="249.846" svgx:width="0.75" style="fill:rgb(0,0,0);font-family:AdvOT5e4d79fc;font-size:9.46px;stroke:none;">O</text>
   <text y="428.939" x="256.932" svgx:width="0.49" style="fill:rgb(0,0,0);font-family:AdvOT5e4d79fc;font-size:6.31px;stroke:none;">4</text>
   <text y="427.351" x="262.148,266.483,271.31,273.771,278.503,283.33,286.879,291.999,296.041,298.501,300.9606,302.74,307.765,312.592,319.0,324.026,328.067,331.711,335.30580000000003,336.982,343.389,346.049,349.096,354.2044,355.973,361.094,363.753,368.287,373.3954,375.192,378.741,381.789,385.433,390.553,394.491,397.538,402.659,406.302,410.533,412.99260000000004,414.764,418.313,421.361,425.591,430.513,433.172,435.633,438.293,441.34,445.6916,447.475,452.501,457.621,461.265,463.925,469.149,473.6898,475.424,479.361,483.696,487.634,490.094,492.754,497.978,502.5188,504.281,509.401,513.632,518.6457999999999,520.381,523.93,529.051,534.076,538.118,541.762,544.421,549.248" svgx:width="0.46,0.51,0.26,0.5,0.51,0.38,0.54,0.43,0.26,0.26,0.55,0.53,0.51,0.68,0.53,0.43,0.38,0.38,0.55,0.68,0.28,0.32,0.54,0.55,0.54,0.28,0.48,0.54,0.55,0.38,0.32,0.38,0.54,0.42,0.32,0.54,0.38,0.45,0.26,0.55,0.38,0.32,0.45,0.52,0.28,0.26,0.28,0.32,0.46,0.55,0.53,0.54,0.38,0.28,0.55,0.48,0.55,0.42,0.46,0.42,0.26,0.28,0.55,0.48,0.55,0.54,0.45,0.53,0.55,0.38,0.54,0.53,0.43,0.38,0.28,0.51,0.38" style="fill:rgb(0,0,0);font-family:AdvOT5e4d79fc;font-size:9.46px;stroke:none;">yolk–shell powders with high structural stability during cycling had superior</text>
   <text y="437.329" x="143.944,147.985,150.446,154.487,158.424,161.472,165.116,169.943,173.88,179.001,183.042,190.926,193.585,197.523,201.753,204.21259999999998,206.702,211.727,215.371,220.198,225.224,229.265,232.909,235.957,238.616,242.658,246.25279999999998,248.71,251.758,256.5826,259.028,262.076,267.196,272.023,275.573,279.64079999999996,282.102,286.929,289.86159999999995,292.364,295.411,300.532,304.59979999999996,307.047,312.073,316.9,323.307,328.333,332.374,336.018,339.6128,341.97,348.377,351.037,354.084,359.1924,361.699,364.652,367.311,369.772,372.233,376.274,381.2878,383.752,387.301,390.349,393.993,399.113,403.05,406.098,411.218,414.862,418.904" svgx:width="0.43,0.26,0.43,0.42,0.32,0.38,0.51,0.42,0.54,0.43,0.83,0.28,0.42,0.45,0.26,0.55,0.53,0.38,0.51,0.53,0.43,0.38,0.32,0.28,0.43,0.38,0.55,0.32,0.51,0.55,0.32,0.54,0.51,0.38,0.43,0.55,0.51,0.31,0.55,0.32,0.54,0.43,0.55,0.53,0.51,0.68,0.53,0.43,0.38,0.38,0.55,0.68,0.28,0.32,0.54,0.55,0.31,0.28,0.26,0.26,0.43,0.53,0.55,0.38,0.32,0.38,0.54,0.42,0.32,0.54,0.38,0.43,0.24" style="fill:rgb(0,0,0);font-family:AdvOT5e4d79fc;font-size:9.46px;stroke:none;">electrochemical properties to those of the powders with filled structure.</text>
   <text y="487.049" x="143.943" svgx:width="0.53" style="fill:rgb(156,156,155);font-family:AdvOT144a03c1;font-size:36.36px;stroke:none;">B</text>
   <text y="466.129" x="165.77,168.179,173.192,177.24,180.613,184.8772,186.747,189.545,192.917,196.966,201.979,205.351,207.76,210.559,212.967,217.6,222.613,225.893,233.416,237.27,240.068,244.117,246.43449999999999,248.316,252.949,257.285,259.694,264.512,268.367,271.7042,273.601,279.874,282.283,285.081,289.9941,291.857,295.229,300.047,302.456,307.469,311.323,313.64,316.919,319.236,321.645,326.175,330.0684,331.939,335.312,338.11,341.483,346.301,350.155,352.953,357.771,361.144,364.998,368.3352,370.264,373.637,378.455,382.309,387.2221,389.087,393.136,396.4732,398.385,404.75" svgx:width="0.26,0.54,0.44,0.36,0.46,0.55,0.3,0.36,0.44,0.54,0.36,0.26,0.3,0.26,0.5,0.54,0.35,0.81,0.42,0.3,0.44,0.25,0.55,0.5,0.47,0.26,0.52,0.42,0.36,0.55,0.68,0.26,0.3,0.53,0.55,0.36,0.52,0.26,0.54,0.42,0.25,0.35,0.25,0.26,0.49,0.42,0.55,0.36,0.3,0.36,0.52,0.42,0.3,0.52,0.36,0.42,0.36,0.55,0.36,0.52,0.42,0.53,0.55,0.44,0.36,0.55,0.69,0.58" style="fill:rgb(23,22,21);font-family:AdvOT1ef757c0;font-size:9.27px;stroke:none;">inary transition-metal oxides with spinel-like structures such as AB</text>
   <text y="467.66" x="410.116" svgx:width="0.48" style="fill:rgb(23,22,21);font-family:AdvOT1ef757c0;font-size:6.18px;stroke:none;">2</text>
   <text y="466.129" x="413.461" svgx:width="0.74" style="fill:rgb(23,22,21);font-family:AdvOT1ef757c0;font-size:9.27px;stroke:none;">O</text>
   <text y="467.66" x="420.321" svgx:width="0.48" style="fill:rgb(23,22,21);font-family:AdvOT1ef757c0;font-size:6.18px;stroke:none;">4</text>
   <text y="466.129" x="425.48,428.658,435.023,437.0624,438.917,444.411,449.424,451.4634,453.317,460.164,462.573,464.6124,466.413,472.491,477.309,479.3484,481.21,486.612,488.6514,490.451,496.529,501.162,503.2014,505.022,513.222,518.234,520.2734,522.143,526.961,530.815,533.9668,535.863,540.783,544.832,549.076" svgx:width="0.34,0.69,0.22,0.55,0.59,0.54,0.22,0.55,0.74,0.26,0.22,0.55,0.66,0.52,0.22,0.55,0.58,0.22,0.55,0.66,0.5,0.22,0.55,0.88,0.54,0.22,0.55,0.52,0.42,0.34,0.55,0.53,0.44,0.46,0.42" style="fill:rgb(23,22,21);font-family:AdvOT1ef757c0;font-size:9.27px;stroke:none;">(A: Zn, Ni, Cu, B: Co, Mn, Fe) have</text>
   <text y="476.561" x="165.771,170.404,174.258,178.112,183.1178,185.557,189.411,193.748,196.546,200.4,205.413,208.785,211.194,215.438,219.292,221.608,225.8722,228.304,231.677,235.531,238.904,242.758,246.807,250.18,254.034,258.954,262.809,267.62940000000003,270.031,272.727,277.36,280.6972,283.184,285.5,287.909,290.707,295.627,298.036,302.854,310.377,313.657,316.066,320.699,325.70480000000003,328.142,332.775,336.823,339.622,342.42,346.274,349.647,352.056,355.91,359.2472,361.704,364.882,369.802,372.888,378.289,381.662,384.81379999999996,387.216,391.849,395.704,399.558,403.607,408.425,411.797,415.6904,418.114,422.747,425.43530000000004,427.809,430.607,435.527,439.381,441.79,445.1272,447.595,452.515,454.924,459.167,464.08009999999996,466.474,469.846,473.701,477.944,481.798,485.171,488.544,490.953,495.585,497.902,501.7954,504.175,508.029,512.078,516.896,520.945,524.8,527.209,530.007,532.416,536.27" svgx:width="0.5,0.42,0.42,0.54,0.55,0.42,0.47,0.3,0.42,0.54,0.36,0.26,0.46,0.42,0.25,0.46,0.55,0.36,0.42,0.36,0.42,0.44,0.36,0.42,0.53,0.42,0.52,0.55,0.29,0.5,0.36,0.55,0.25,0.26,0.3,0.53,0.26,0.52,0.81,0.35,0.26,0.5,0.54,0.55,0.5,0.44,0.3,0.3,0.42,0.36,0.26,0.42,0.36,0.55,0.34,0.53,0.33,0.58,0.36,0.34,0.55,0.5,0.42,0.42,0.44,0.52,0.36,0.42,0.55,0.5,0.29,0.55,0.3,0.53,0.42,0.26,0.36,0.55,0.53,0.26,0.46,0.53,0.55,0.36,0.42,0.46,0.42,0.36,0.36,0.26,0.5,0.25,0.42,0.55,0.42,0.44,0.52,0.44,0.42,0.26,0.3,0.26,0.42,0.36" style="fill:rgb(23,22,21);font-family:AdvOT1ef757c0;font-size:9.27px;stroke:none;">been extensively researched for lithium-ion batteries (LIBs) because of their high reversible capacities</text>
   <text y="473.159" x="539.716,542.479,545.42,548.183" svgx:width="0.48,0.51,0.48,0.48" style="fill:rgb(23,22,21);font-family:AdvOT1ef757c0;font-size:5.13px;stroke:none;">1–10</text>
   <text y="476.56" x="550.885" svgx:width="0.22" style="fill:rgb(23,22,21);font-family:AdvOT1ef757c0;font-size:9.27px;stroke:none;">.</text>
   <text y="487.049" x="165.771,171.46,176.38,180.27339999999998,183.686,187.059,191.877,196.695,200.549,203.922,206.331,210.963,214.3002,217.816,221.67,223.987,227.841,231.695,234.493,237.866,242.499,246.353,251.273,255.127,262.651,265.06,268.914,272.963,275.2805,278.762,283.58,286.953,291.585,296.403,300.258,303.63,306.428,308.837,312.692,316.0292,319.525,324.158,326.84630000000004,330.297,335.309,339.358,344.371,349.003,352.376,355.174,358.547,363.365,367.219,370.017,374.835,378.208,382.062,386.8824,390.392,395.025,397.434,402.447,406.496,409.868,414.1322,417.549,420.347,423.72,427.769,432.781,436.154,438.563,441.361,443.77,448.402,453.415,456.695,464.218,468.073,470.871,474.92,477.2375,480.706,485.339,489.675,492.084,496.902,500.756,504.09319999999997,507.579,512.397,515.77,519.624,524.442,528.491,531.863,535.718,540.5383999999999,544.033,548.666" svgx:width="0.61,0.53,0.42,0.55,0.36,0.52,0.52,0.42,0.36,0.26,0.5,0.36,0.55,0.42,0.25,0.42,0.42,0.3,0.36,0.5,0.42,0.53,0.42,0.81,0.26,0.42,0.44,0.25,0.55,0.52,0.36,0.5,0.52,0.42,0.36,0.3,0.26,0.42,0.36,0.55,0.5,0.29,0.55,0.54,0.44,0.54,0.5,0.36,0.3,0.36,0.52,0.42,0.3,0.52,0.36,0.42,0.52,0.55,0.5,0.26,0.54,0.44,0.36,0.46,0.55,0.3,0.36,0.44,0.54,0.36,0.26,0.3,0.26,0.5,0.54,0.35,0.81,0.42,0.3,0.44,0.25,0.55,0.5,0.47,0.26,0.52,0.42,0.36,0.55,0.52,0.36,0.42,0.52,0.44,0.36,0.42,0.52,0.55,0.5,0.46" style="fill:rgb(23,22,21);font-family:AdvOT1ef757c0;font-size:9.27px;stroke:none;">The superior electrochemical properties of nanostructured binary transition-metal oxides prepared by</text>
   <text y="497.481" x="143.945,146.261,148.67,153.395,158.213,160.622,165.44,168.72,172.093,176.725,179.042,183.86,186.658,189.067,193.699,198.7048,201.659,205.708,210.721,215.5414,218.44,222.684,226.733,230.105,233.385,238.203,243.123,247.172,250.545,254.4384,257.332,260.705,264.559,268.608,272.463,275.261,277.67,282.302,287.30780000000004,290.215,297.738,301.593,304.391,309.311,313.943,318.761,322.0982,325.081,330.001,334.05,338.294,342.18739999999997,345.038,349.671,353.525,357.379,362.38480000000004,365.278,368.65,372.505,377.323,381.955,385.328,388.126,391.981" svgx:width="0.25,0.26,0.51,0.52,0.26,0.52,0.35,0.36,0.5,0.25,0.52,0.3,0.26,0.5,0.54,0.55,0.44,0.54,0.52,0.55,0.46,0.44,0.36,0.35,0.52,0.53,0.44,0.36,0.42,0.55,0.36,0.42,0.44,0.42,0.3,0.26,0.5,0.54,0.55,0.81,0.42,0.3,0.53,0.5,0.52,0.36,0.55,0.53,0.44,0.46,0.42,0.55,0.5,0.42,0.42,0.54,0.55,0.36,0.42,0.52,0.5,0.36,0.3,0.42,0.52" style="fill:rgb(23,22,21);font-family:AdvOT1ef757c0;font-size:9.27px;stroke:none;">liquid-solution and gas-phase reaction methods have been reported</text>
   <text y="494.079" x="396.85,399.613,402.554,405.317" svgx:width="0.48,0.51,0.48,0.48" style="fill:rgb(23,22,21);font-family:AdvOT1ef757c0;font-size:5.13px;stroke:none;">2–11</text>
   <text y="497.48" x="408.019,410.0584,412.951,418.742,423.374,425.69,430.221,434.947,438.319,443.239,447.093,449.41,451.7275,454.62,459.438,464.071,470.344,475.162,479.016,482.389,485.7262,488.694,494.966,497.375,500.173,505.0861,507.969,512.0477999999999,514.886,519.704,522.113,525.485,528.283,530.692,535.705,539.559,542.357,544.766,549.01" svgx:width="0.22,0.55,0.63,0.5,0.25,0.49,0.51,0.36,0.53,0.42,0.25,0.25,0.55,0.52,0.5,0.68,0.52,0.42,0.36,0.36,0.55,0.68,0.26,0.3,0.53,0.55,0.44,0.55,0.52,0.26,0.36,0.3,0.26,0.54,0.42,0.3,0.26,0.46,0.42" style="fill:rgb(23,22,21);font-family:AdvOT1ef757c0;font-size:9.27px;stroke:none;">. Yolk–shell powders with a distinctive</text>
   <text y="507.969" x="143.944,147.798,152.431,155.803,159.658,162.641,166.885,171.517,173.926,178.744,181.728,185.1,190.02,193.875,196.191,198.5085,202.565,206.42,211.052,216.065,218.761,221.17,225.414,230.232,233.604,237.653,240.451,242.86,247.493,252.4988,256.481,258.89,263.8958,267.877,272.695,276.743,280.116,282.914,285.323,289.178,293.995,296.312,300.361,303.6982,307.732,312.652,316.701,320.945,324.8384,328.765,333.398,337.252,341.107,346.11280000000005,350.082,353.455,356.253,361.071,365.889,368.298,372.152,376.9724,380.98,385.029,388.3662,392.375,396.424,401.437,406.069,410.887,414.7804,418.681,426.205,430.254,433.052,436.906,440.279,442.688,446.737,449.053,452.3902,456.439,459.136,463.768,467.10519999999997,471.123,476.043,479.128,484.53,487.86719999999997,491.816,496.449,500.303,504.158,508.207,513.024,516.397,520.2904000000001,524.245,528.877,531.5653,535.527,538.325,543.245,547.099,549.508" svgx:width="0.42,0.5,0.36,0.42,0.32,0.46,0.5,0.26,0.52,0.32,0.36,0.53,0.42,0.25,0.25,0.55,0.42,0.5,0.54,0.29,0.26,0.46,0.52,0.36,0.44,0.3,0.26,0.5,0.54,0.55,0.26,0.54,0.55,0.52,0.44,0.36,0.3,0.26,0.42,0.52,0.25,0.44,0.36,0.55,0.53,0.44,0.46,0.42,0.55,0.5,0.42,0.42,0.54,0.55,0.36,0.3,0.52,0.52,0.26,0.42,0.52,0.55,0.44,0.36,0.55,0.44,0.54,0.5,0.52,0.42,0.55,0.81,0.44,0.3,0.42,0.36,0.26,0.44,0.25,0.36,0.55,0.29,0.5,0.36,0.55,0.53,0.33,0.58,0.36,0.55,0.5,0.42,0.42,0.44,0.52,0.36,0.42,0.55,0.5,0.29,0.55,0.3,0.53,0.42,0.26,0.36" style="fill:rgb(23,22,21);font-family:AdvOT1ef757c0;font-size:9.27px;stroke:none;">core/void/shell configuration in particular have been studied as anode materials for LIBs because of their</text>
   <text y="518.4" x="143.944,147.316,150.115,153.487,158.305,162.159,164.958,169.776,173.148,177.197,179.5145,182.382,185.755,188.553,192.602,197.234,199.643,201.96,204.369,207.167,211.4312,214.243,218.292,223.305,228.1254,230.912,235.155,239.788,244.421,249.2414,252.059,255.913,258.23,262.084,265.938,268.736,272.109,276.742,280.596,285.516,289.37,296.894,299.303,303.157,307.206,309.5235,312.382,317.2,320.572,325.205,330.023,333.877,337.25,340.048,342.457,346.311,349.6482,352.577,356.626,359.407,362.215,367.135,369.544,373.787,378.70009999999996,381.491,385.345,390.163,393.535,396.908,400.762,405.775,408.556,411.425,416.243,420.097,425.11,428.482,430.891,433.689,436.098,439.953" svgx:width="0.36,0.3,0.36,0.52,0.42,0.3,0.52,0.36,0.44,0.25,0.55,0.36,0.3,0.44,0.5,0.26,0.25,0.26,0.3,0.46,0.55,0.44,0.54,0.52,0.55,0.46,0.5,0.5,0.52,0.55,0.42,0.25,0.42,0.42,0.3,0.36,0.5,0.42,0.53,0.42,0.81,0.26,0.42,0.44,0.25,0.55,0.52,0.36,0.5,0.52,0.42,0.36,0.3,0.26,0.42,0.36,0.55,0.44,0.3,0.55,0.53,0.26,0.46,0.53,0.55,0.42,0.52,0.36,0.36,0.42,0.54,0.3,0.55,0.52,0.42,0.54,0.36,0.26,0.3,0.26,0.42,0.36" style="fill:rgb(23,22,21);font-family:AdvOT1ef757c0;font-size:9.27px;stroke:none;">structural stability and good electrochemical properties at high current densities</text>
   <text y="514.998" x="443.395,446.158,449.099,451.862" svgx:width="0.48,0.51,0.48,0.48" style="fill:rgb(23,22,21);font-family:AdvOT1ef757c0;font-size:5.13px;stroke:none;">8–16</text>
   <text y="518.4" x="454.564,456.6034,459.383,462.468,467.47380000000004,470.324,473.697,477.551,481.405,485.26,490.272,493.053,495.892,499.265,502.063,506.881,511.699,514.108,517.962,521.335,523.3744,526.167,530.2458,533.027,536.399,541.217,544.59,548.639" svgx:width="0.22,0.55,0.33,0.54,0.55,0.36,0.42,0.42,0.42,0.54,0.3,0.55,0.36,0.3,0.52,0.52,0.26,0.42,0.36,0.22,0.55,0.44,0.55,0.36,0.52,0.36,0.44,0.46" style="fill:rgb(23,22,21);font-family:AdvOT1ef757c0;font-size:9.27px;stroke:none;">. In recent studies, a spray</text>
   <text y="528.888" x="143.944,148.762,153.005,156.378,161.01,163.327,167.57,170.943,173.352,176.6892,180.851,185.669,189.042,193.674,197.529,201.383,204.755,208.0922,212.259,218.532,222.581,225.91819999999998,230.004,234.053,238.871,243.689,246.006,248.415,252.269,257.0894,261.242,264.04,268.675,272.751,277.569,280.941,284.796,289.614,293.663,297.035,300.9284,305.01,309.253,313.302,316.675,319.084,323.716,328.534,331.8712,335.964,338.762,343.006,347.824,351.678,355.0152,359.152,363.784,366.4723,370.604,378.127,381.981,384.779,388.828,391.14549999999997,395.208,399.841,404.177,406.586,411.404,415.2974,419.36,424.178,428.811,435.084,439.902,443.756,447.128,450.4652,454.624,460.897,463.306,466.104,471.01709999999997,475.09,479.334,483.966,486.283,490.813,495.539,498.911,503.831,507.685,510.002,512.3195000000001,516.42,519.792,522.591,525.963,530.781,534.635,537.433,542.251,545.624,549.478" svgx:width="0.52,0.46,0.36,0.5,0.25,0.46,0.36,0.26,0.36,0.55,0.52,0.36,0.5,0.42,0.42,0.36,0.36,0.55,0.68,0.44,0.36,0.55,0.44,0.52,0.52,0.25,0.26,0.42,0.52,0.55,0.3,0.5,0.55,0.52,0.36,0.42,0.52,0.44,0.36,0.42,0.55,0.46,0.44,0.36,0.26,0.5,0.52,0.36,0.55,0.3,0.46,0.52,0.42,0.36,0.55,0.5,0.29,0.55,0.81,0.42,0.3,0.44,0.25,0.55,0.5,0.47,0.26,0.52,0.42,0.55,0.52,0.5,0.68,0.52,0.42,0.36,0.36,0.55,0.68,0.26,0.3,0.53,0.55,0.46,0.5,0.25,0.49,0.51,0.36,0.53,0.42,0.25,0.25,0.55,0.36,0.3,0.36,0.52,0.42,0.3,0.52,0.36,0.42,0.36" style="fill:rgb(23,22,21);font-family:AdvOT1ef757c0;font-size:9.27px;stroke:none;">pyrolysis process was applied to prepare various types of metal oxide powders with yolk–shell structures</text>
   <text y="539.376" x="143.944,148.762,151.171,154.543,158.397,162.252,165.05,167.366" svgx:width="0.52,0.26,0.36,0.42,0.42,0.3,0.25,0.46" style="fill:rgb(23,22,21);font-family:AdvOT1ef757c0;font-size:9.27px;stroke:none;">directly</text>
   <text y="535.918" x="171.666,174.429,177.191,180.133,182.895" svgx:width="0.48,0.48,0.51,0.48,0.48" style="fill:rgb(23,22,21);font-family:AdvOT1ef757c0;font-size:5.13px;stroke:none;">16–18</text>
   <text y="539.376" x="185.613,187.6524,190.544,196.335,200.968,203.284,207.815,212.54,215.913,220.833,224.687,227.003,229.32,232.6,235.972,238.77,242.143,246.961,250.815,253.613,258.431,261.804,265.658,270.4784,273.487,276.86,279.269,284.281,288.525,290.841,294.7344,297.582,301.631,306.643,311.4634,314.363,318.996,321.405,326.417,330.466,333.839,338.1032,341.009,348.533,352.387,355.185,359.234,361.5515,364.48,369.113,373.449,375.858,380.676,384.53,387.86719999999997,390.843,395.763,399.811,404.055,407.9484,410.856,414.228,419.148,423.781,430.053,435.0588,437.955,441.327,446.145,450.963,454.818,458.19,460.599,465.232,468.5692,471.574,475.428,477.745,481.599,485.453,488.252,491.624,496.257,500.111,505.031,508.885,516.409,518.818,522.672,526.721,529.0385,531.953,536.771,540.144,544.776,549.594" svgx:width="0.22,0.55,0.63,0.5,0.25,0.49,0.51,0.36,0.53,0.42,0.25,0.25,0.35,0.36,0.3,0.36,0.52,0.42,0.3,0.52,0.36,0.42,0.52,0.55,0.36,0.26,0.54,0.46,0.25,0.42,0.55,0.44,0.54,0.52,0.55,0.5,0.26,0.54,0.44,0.36,0.46,0.55,0.81,0.42,0.3,0.44,0.25,0.55,0.5,0.47,0.26,0.52,0.42,0.36,0.55,0.53,0.44,0.46,0.42,0.55,0.36,0.53,0.5,0.68,0.54,0.55,0.36,0.52,0.52,0.42,0.36,0.26,0.5,0.36,0.55,0.42,0.25,0.42,0.42,0.3,0.36,0.5,0.42,0.53,0.42,0.81,0.26,0.42,0.44,0.25,0.55,0.52,0.36,0.5,0.52,0.35" style="fill:rgb(23,22,21);font-family:AdvOT1ef757c0;font-size:9.27px;stroke:none;">. Yolk–shell-structured single and binary metal oxides have shown superior electrochemical prop-</text>
   <text y="549.808" x="143.944,147.798,151.171,153.969,156.378,160.232,163.5692,166.054,169.909,174.152,178.007,183.0128,185.444,189.493,192.274,194.742,199.662,202.07,206.314,211.2271,213.621,217.475,222.293,225.666,229.038,232.892,237.905,240.686,243.158,247.976,251.831,256.843,260.216,262.625,265.423,267.832,271.686" svgx:width="0.42,0.36,0.3,0.26,0.42,0.36,0.55,0.42,0.46,0.42,0.54,0.55,0.44,0.3,0.55,0.53,0.26,0.46,0.53,0.55,0.42,0.52,0.36,0.36,0.42,0.54,0.3,0.55,0.52,0.42,0.54,0.36,0.26,0.3,0.26,0.42,0.36" style="fill:rgb(23,22,21);font-family:AdvOT1ef757c0;font-size:9.27px;stroke:none;">erties even at high current densities</text>
   <text y="546.406" x="275.131,277.893,280.835,283.597" svgx:width="0.48,0.51,0.48,0.48" style="fill:rgb(23,22,21);font-family:AdvOT1ef757c0;font-size:5.13px;stroke:none;">8–18</text>
   <text y="549.808" x="286.299" svgx:width="0.22" style="fill:rgb(23,22,21);font-family:AdvOT1ef757c0;font-size:9.27px;stroke:none;">.</text>
   <text y="560.466" x="153.241,156.326,161.3318,164.126,166.924,171.844,174.253,177.59019999999998,180.453,187.977,192.026,197.038,201.856,205.229,209.083,212.456,214.865,219.683,222.481,224.5204,227.396,231.4748,234.256,236.572,240.621,243.994,248.237,252.092,255.372,258.744,262.599,266.647,268.964,272.8574,275.699,280.517,283.889,288.522,293.34,298.158,302.012,304.81,307.219,311.852,316.8578,319.75,327.273,331.128,333.926,338.846,343.478,348.2984,351.102,355.734,358.4223,361.25,363.946,367.995,372.628,376.0,378.409,382.264,386.313,389.111,391.52,396.532,400.7962,403.657,408.29,410.699,415.711,419.76,423.133,427.3972,430.19,432.988,436.361,440.41,445.422,448.795,451.204,454.002,456.411,461.044,466.056,469.336,476.86,480.714,483.512,487.561,489.8785,492.78,497.413,501.749,504.158,508.976,512.8694,515.684,519.927,524.56,526.876,531.407,536.133,539.505,544.425,548.279,550.596" svgx:width="0.33,0.54,0.55,0.3,0.53,0.26,0.36,0.55,0.81,0.44,0.54,0.52,0.36,0.42,0.36,0.26,0.52,0.3,0.22,0.55,0.44,0.55,0.25,0.44,0.36,0.46,0.42,0.35,0.36,0.42,0.44,0.25,0.42,0.55,0.52,0.36,0.5,0.52,0.52,0.42,0.3,0.26,0.5,0.54,0.55,0.81,0.42,0.3,0.53,0.5,0.52,0.55,0.5,0.29,0.55,0.29,0.44,0.5,0.36,0.26,0.42,0.44,0.3,0.26,0.54,0.46,0.55,0.5,0.26,0.54,0.44,0.36,0.46,0.55,0.3,0.36,0.44,0.54,0.36,0.26,0.3,0.26,0.5,0.54,0.35,0.81,0.42,0.3,0.44,0.25,0.55,0.5,0.47,0.26,0.52,0.42,0.55,0.46,0.5,0.25,0.49,0.51,0.36,0.53,0.42,0.25,0.25" style="fill:rgb(0,0,0);font-family:AdvOT1ef757c0;font-size:9.27px;stroke:none;">In this manuscript, a large-scale production method of fabricating binary transition-metal oxide yolk–shell</text>
   <text y="570.954" x="143.943,148.761,153.394,159.667,164.485,168.339,171.711,175.0482,177.506,182.139,186.4032,188.788,192.837,197.655,202.473,204.79,209.033,211.442,216.455,220.7192,223.088,227.1668,229.55,232.923,235.332,242.855,247.673,249.989,253.88240000000002,256.253,259.625,264.443,267.816,271.865,276.108,279.388,284.206,287.579,291.822,294.231,299.244,303.50820000000004,305.917,310.735,314.107,318.74,322.594,326.448,329.821,333.1582,335.624,338.033,341.3702,343.788,348.605,351.978,356.611,361.429,366.061,369.434,373.288,378.106,380.1454,382.567,385.652,390.6578,393.055,395.853,400.773,404.6664,407.001,410.374,415.192,418.564,422.613,426.857,430.136,434.954,438.327,442.57,444.979,449.992,454.25620000000004,456.665,461.483,464.855,469.488,473.342,477.197,480.569,483.942,485.9814,488.413,493.231,497.086,500.94,505.573,513.096,517.914,522.547,525.919,528.328,531.126,533.535,538.168,543.1738,545.617,550.25" svgx:width="0.52,0.5,0.68,0.52,0.42,0.36,0.36,0.55,0.5,0.46,0.55,0.44,0.52,0.52,0.25,0.46,0.26,0.54,0.46,0.55,0.44,0.55,0.36,0.26,0.81,0.52,0.25,0.42,0.55,0.36,0.52,0.36,0.44,0.46,0.35,0.52,0.36,0.46,0.26,0.54,0.46,0.55,0.52,0.36,0.5,0.42,0.42,0.36,0.36,0.55,0.26,0.36,0.55,0.52,0.36,0.5,0.52,0.5,0.36,0.42,0.52,0.22,0.55,0.33,0.54,0.55,0.3,0.53,0.42,0.55,0.36,0.52,0.36,0.44,0.46,0.35,0.52,0.36,0.46,0.26,0.54,0.46,0.55,0.52,0.36,0.5,0.42,0.42,0.36,0.36,0.22,0.55,0.52,0.42,0.42,0.5,0.81,0.52,0.5,0.36,0.26,0.3,0.26,0.5,0.54,0.55,0.5,0.29" style="fill:rgb(0,0,0);font-family:AdvOT1ef757c0;font-size:9.27px;stroke:none;">powders by applying a simple spray-drying process is proposed. In the spray-drying process, decomposition of</text>
   <text y="581.386" x="143.943,151.467,155.321,158.119,162.168,164.4855,166.451,169.823,173.872,176.188,178.987,182.3242,184.309,189.127,193.76,197.614,200.9512,202.905,207.917,212.55,215.33100000000002,217.305,221.938,225.792,229.646,234.464,237.8012,239.756,244.389,248.243,252.097,256.146,260.964,264.337,268.2304,270.201,274.833,277.52130000000005,279.442,282.24,287.16,291.0534,292.935,295.251,299.884,308.072,312.704,317.522,321.377,324.749,328.798,331.596,334.005,339.018,343.2822,345.263,348.061,351.915,359.439,364.257,368.111,371.483,375.532,378.331,383.148,386.521,390.375,392.4144,394.359,400.048,404.968,408.823,412.195,416.05,418.746,423.378,426.751,430.605,432.6444,434.612,437.41,442.33,446.22339999999997,448.105,451.477,456.295,459.668,463.717,467.96,471.24,476.058,479.431,483.674,486.083,491.096,495.3602,497.372,502.19,505.562,510.195,514.049,517.904,521.276,524.6132,526.569,528.978,532.3152,534.279,539.005,543.823,546.232,549.03" svgx:width="0.81,0.42,0.3,0.44,0.25,0.55,0.36,0.44,0.25,0.3,0.36,0.55,0.52,0.5,0.42,0.36,0.55,0.54,0.5,0.3,0.55,0.5,0.42,0.42,0.52,0.36,0.55,0.5,0.42,0.42,0.44,0.52,0.36,0.42,0.55,0.5,0.29,0.55,0.3,0.53,0.42,0.55,0.25,0.5,0.68,0.5,0.52,0.42,0.36,0.44,0.3,0.26,0.54,0.46,0.55,0.3,0.42,0.81,0.52,0.42,0.36,0.44,0.3,0.52,0.36,0.42,0.22,0.55,0.61,0.53,0.42,0.36,0.42,0.29,0.5,0.36,0.42,0.22,0.55,0.3,0.53,0.42,0.55,0.36,0.52,0.36,0.44,0.46,0.35,0.52,0.36,0.46,0.26,0.54,0.46,0.55,0.52,0.36,0.5,0.42,0.42,0.36,0.36,0.55,0.26,0.36,0.55,0.51,0.52,0.26,0.3,0.42" style="fill:rgb(0,0,0);font-family:AdvOT1ef757c0;font-size:9.27px;stroke:none;">metal salts does not occur because of the lowoperating temperature. Therefore, the spray-drying process is quite</text>
   <text y="591.874" x="143.943,148.761,151.17,153.866,156.563,160.417,163.79,167.644,172.657,175.43800000000002,177.166,179.862,183.235,187.867,197.008,199.807,204.727,208.62040000000002,210.218,213.591,218.409,221.781,225.83,230.0942,231.705,236.523,240.767,244.139,248.772,251.088,255.332,258.704,261.113,264.4502,266.175,270.993,274.365,278.998,282.852,286.707,290.079,293.4162,295.089,299.907,303.28,307.134,311.378,313.786,318.419,323.237,326.61,328.926,333.1902,334.832,339.65,343.022,346.877,351.6974,353.371,356.169,360.804,362.385,367.203,370.575,374.43,379.248,383.297,386.669,390.56239999999997,392.206,396.45,401.082,403.399,407.929,412.655,416.027,420.947,424.801,427.118,429.4355,431.098,435.916,440.549,446.821,451.639,455.494,458.866,462.2032,463.867,468.499,471.18730000000005,472.824,477.068,481.117,484.489,486.898,491.531,496.349,499.6862,501.398,505.252,509.885,517.408,522.226,526.859,530.231,532.64,535.438,537.847,542.48,547.492,550.865" svgx:width="0.52,0.26,0.29,0.29,0.42,0.36,0.42,0.54,0.3,0.55,0.29,0.36,0.5,0.81,0.3,0.53,0.42,0.55,0.36,0.52,0.36,0.44,0.46,0.55,0.52,0.46,0.36,0.5,0.25,0.46,0.36,0.26,0.36,0.55,0.52,0.36,0.5,0.42,0.42,0.36,0.36,0.55,0.52,0.36,0.42,0.46,0.26,0.5,0.52,0.36,0.25,0.46,0.55,0.52,0.36,0.42,0.52,0.55,0.3,0.5,0.55,0.52,0.36,0.42,0.52,0.44,0.36,0.42,0.55,0.46,0.5,0.25,0.49,0.51,0.36,0.53,0.42,0.25,0.25,0.55,0.52,0.5,0.68,0.52,0.42,0.36,0.36,0.55,0.5,0.29,0.55,0.46,0.44,0.36,0.26,0.5,0.52,0.36,0.55,0.42,0.5,0.81,0.52,0.5,0.36,0.26,0.3,0.26,0.5,0.54,0.36,0.22" style="fill:rgb(0,0,0);font-family:AdvOT1ef757c0;font-size:9.27px;stroke:none;">different fromthe spray pyrolysis process previously used to prepare yolk–shell powders of various compositions.</text>
   <text y="602.306" x="143.943,150.985,155.618,161.89,165.745,169.988,173.842,177.215,179.2544,181.191,185.823,190.836,194.69,197.97,202.788,207.421,210.202,212.203,217.021,220.393,224.248,229.066,233.114,236.487,240.536,243.334,245.743,250.376,255.3818,257.388,262.02,264.7083,266.629,270.872,275.505,277.821,282.352,287.077,290.45,295.37,299.224,301.541,303.8585,305.804,310.622,315.255,321.528,326.346,330.2,333.573,336.9102,338.914,342.768,346.817,351.83,356.842,361.475,364.25600000000003,366.24,370.873,374.7664,376.615,380.664,384.519,389.439,391.848,395.702,399.945,403.8,408.6204,410.575,412.984,417.9898,419.929,424.0078,425.938,429.311,434.129,437.501,441.55,445.794,449.074,453.892,457.264,461.508,463.917,468.929,473.1932,475.148,479.966,483.339,487.971,491.826,495.68,499.053,502.425,504.4644,506.444,512.522,516.571,519.943,524.576,529.208,534.2138,536.151,538.56,541.8972,543.861,547.91" svgx:width="0.76,0.5,0.68,0.42,0.46,0.42,0.36,0.22,0.55,0.5,0.54,0.42,0.35,0.52,0.5,0.3,0.55,0.52,0.36,0.42,0.52,0.44,0.36,0.44,0.3,0.26,0.5,0.54,0.55,0.5,0.29,0.55,0.46,0.5,0.25,0.49,0.51,0.36,0.53,0.42,0.25,0.25,0.55,0.52,0.5,0.68,0.52,0.42,0.36,0.36,0.55,0.42,0.44,0.54,0.54,0.5,0.3,0.55,0.5,0.42,0.55,0.44,0.42,0.53,0.26,0.42,0.46,0.42,0.52,0.55,0.26,0.54,0.55,0.44,0.55,0.36,0.52,0.36,0.44,0.46,0.35,0.52,0.36,0.46,0.26,0.54,0.46,0.55,0.52,0.36,0.5,0.42,0.42,0.36,0.36,0.22,0.55,0.66,0.44,0.36,0.5,0.5,0.54,0.55,0.26,0.36,0.55,0.44,0.54" style="fill:rgb(0,0,0);font-family:AdvOT1ef757c0;font-size:9.27px;stroke:none;">However, one-pot preparation of yolk–shell powders cannot be achieved in a spray-drying process. Carbon is an</text>
   <text y="612.794" x="143.943,146.352,151.365,155.219,159.463,161.872,164.67,168.719,173.351,175.668,179.5614,181.078,184.45,188.305,193.03,197.848,200.257,203.63,207.484,215.007,218.862,223.874,226.655,228.304,231.0,235.633,238.9702,240.55,243.348,248.268,252.16140000000001,253.646,256.343,260.392,265.024,268.397,270.806,274.66,278.709,281.507,283.916,288.549,293.5548,295.147,299.779,302.4673,303.99,308.234,312.867,315.183,319.714,324.439,327.811,332.731,336.586,338.902,341.2195,342.769,347.587,352.22,358.493,363.311,367.165,370.537,373.8742,375.481,380.299,383.672,386.081,391.093,395.35720000000003,396.855,400.709,403.118,405.916,410.836,414.69,418.0272,419.645,422.443,427.363,431.2564,432.742,436.114,440.932,444.305,448.354,452.597,455.877,460.695,464.068,468.311,470.72,475.733,479.9972,481.555,486.373,489.746,494.378,498.233,502.087,505.46,508.7972,510.412,515.044,518.3812,519.937,522.735,527.655,531.5484,533.033,536.406,541.224,544.596,548.645" svgx:width="0.26,0.54,0.42,0.46,0.26,0.3,0.44,0.5,0.25,0.42,0.55,0.36,0.42,0.51,0.52,0.26,0.36,0.42,0.81,0.42,0.54,0.3,0.55,0.29,0.5,0.36,0.55,0.3,0.53,0.42,0.55,0.29,0.44,0.5,0.36,0.26,0.42,0.44,0.3,0.26,0.5,0.54,0.55,0.5,0.29,0.55,0.46,0.5,0.25,0.49,0.51,0.36,0.53,0.42,0.25,0.25,0.55,0.52,0.5,0.68,0.52,0.42,0.36,0.36,0.55,0.52,0.36,0.26,0.54,0.46,0.55,0.42,0.26,0.3,0.53,0.42,0.36,0.55,0.3,0.53,0.42,0.55,0.36,0.52,0.36,0.44,0.46,0.35,0.52,0.36,0.46,0.26,0.54,0.46,0.55,0.52,0.36,0.5,0.42,0.42,0.36,0.36,0.55,0.5,0.36,0.55,0.3,0.53,0.42,0.55,0.36,0.52,0.36,0.44,0.46" style="fill:rgb(0,0,0);font-family:AdvOT1ef757c0;font-size:9.27px;stroke:none;">inevitable requirement for the fabrication of yolk–shell powders using either the spray-drying process or the spray</text>
   <text y="623.226" x="143.943,148.761,153.005,156.377,161.01,163.326,167.57,170.942,173.351,176.6882,178.413,183.231,186.604,191.236,195.091,198.945,202.318,205.69,207.7294,209.425,215.114,220.034,223.92739999999998,225.526,230.057,233.911,238.1752,239.813,242.222,245.595,248.967,253.785,257.6784,259.316,261.725,266.73080000000004,268.387,271.759,276.577,279.95,283.999,288.26320000000004,289.93,294.748,298.121,302.364,304.773,309.786,314.0502,315.726,318.135,321.4722,323.153,325.951,330.871,334.76439999999997,336.362,341.375,345.229,349.084,353.9044,355.581,358.379,363.014,364.652,369.47,372.843,376.697,381.515,385.564,388.936,392.82939999999996,394.53,396.846,401.479,407.751,411.031,415.951,420.195,424.438,427.811,432.443,435.816,439.67,444.303,449.121,451.53,455.384,457.793,460.591,464.8552,466.531,471.348,474.721,478.575,482.43,487.248,490.62,493.993,498.626,501.9632,503.721,508.539,513.172,519.445,524.263,528.117,531.49,534.8272000000001,536.547,542.82,545.229,548.027" svgx:width="0.52,0.46,0.36,0.5,0.25,0.46,0.36,0.26,0.36,0.55,0.52,0.36,0.5,0.42,0.42,0.36,0.36,0.22,0.55,0.61,0.53,0.42,0.55,0.49,0.42,0.46,0.55,0.26,0.36,0.36,0.52,0.42,0.55,0.26,0.54,0.55,0.36,0.52,0.36,0.44,0.46,0.55,0.52,0.36,0.46,0.26,0.54,0.46,0.55,0.26,0.36,0.55,0.3,0.53,0.42,0.55,0.54,0.42,0.42,0.52,0.55,0.3,0.5,0.55,0.52,0.36,0.42,0.52,0.44,0.36,0.42,0.55,0.25,0.5,0.68,0.35,0.53,0.46,0.46,0.36,0.5,0.36,0.42,0.5,0.52,0.26,0.42,0.26,0.3,0.46,0.55,0.52,0.36,0.42,0.42,0.52,0.36,0.36,0.5,0.36,0.55,0.52,0.5,0.68,0.52,0.42,0.36,0.36,0.55,0.68,0.26,0.3,0.53" style="fill:rgb(0,0,0);font-family:AdvOT1ef757c0;font-size:9.27px;stroke:none;">pyrolysis process. The key issue in spray drying is the need to prepare low-hygroscopicity precursor powders with</text>
   <text y="633.714" x="143.943,148.0218,150.973,155.791,159.645,164.658,168.03,171.92340000000002,174.841,178.214,181.012,184.385,189.203,193.057,195.855,200.673,204.046,207.93939999999998,210.842,214.891,219.903,224.7234,227.679,231.052,235.87,240.79,244.644,248.017,250.426,254.28,258.329,260.6465,263.623,266.996,271.916,275.965,280.783,284.6764,287.605,292.237,296.50120000000004,299.453,303.502,308.32,313.138,315.454,319.698,322.107,327.119,331.38320000000004,334.319,338.368,343.3738,346.338,350.387,355.205,360.023,363.396,368.029,372.846,376.219,378.628,382.677,385.475,389.3684,392.318,396.172,400.221,403.593,408.226,412.859,417.8648,420.834,424.207,428.839,433.657,437.03,440.884,444.7774,447.707,455.231,459.28,462.078,465.932,469.305,471.714,475.763,478.079,480.1184,483.084,488.773,493.693,497.58639999999997,500.489,504.343,508.392,511.765,516.398,521.03,526.0358,529.006,532.378,537.011,541.829,545.201,549.056" svgx:width="0.44,0.55,0.52,0.42,0.54,0.36,0.42,0.55,0.36,0.3,0.36,0.52,0.42,0.3,0.52,0.36,0.42,0.55,0.44,0.54,0.52,0.55,0.36,0.52,0.53,0.42,0.36,0.26,0.42,0.44,0.25,0.55,0.36,0.53,0.44,0.52,0.42,0.55,0.5,0.46,0.55,0.44,0.52,0.52,0.25,0.46,0.26,0.54,0.46,0.55,0.44,0.54,0.55,0.44,0.52,0.52,0.36,0.5,0.52,0.36,0.26,0.44,0.3,0.42,0.55,0.42,0.44,0.36,0.5,0.5,0.54,0.55,0.36,0.5,0.52,0.36,0.42,0.42,0.55,0.81,0.44,0.3,0.42,0.36,0.26,0.44,0.25,0.22,0.55,0.61,0.53,0.42,0.55,0.42,0.44,0.36,0.5,0.5,0.54,0.55,0.36,0.5,0.52,0.36,0.42,0.42" style="fill:rgb(0,0,0);font-family:AdvOT1ef757c0;font-size:9.27px;stroke:none;">a dense structure and spherical shape by applying an appropriate carbon source material. The carbon source</text>
   <text y="644.146" x="143.943,151.467,155.516,158.314,162.168,165.541,167.95,171.999,174.3165,175.919,178.717,183.637,188.455,191.7922,193.38,198.198,200.515,204.563,208.807,212.14419999999998,213.733,217.8118,219.289,223.82,227.674,231.9382,233.462,236.835,241.467,243.783,247.6764,249.166,251.575,256.5808,258.123,260.922,265.841,269.7344,271.276,276.094,279.467,283.321,288.139,292.188,295.561,299.61,302.408,304.817,309.449,314.45480000000003,316.065,320.698,323.3863,324.909,329.152,333.785,336.101,340.632,345.357,348.73,353.65,357.504,359.82,362.137,365.417,368.789,371.587,374.96,379.778,383.632,386.43,391.248,394.621,398.475,403.29540000000003,404.903,412.427,416.476,419.274,423.128,426.501,428.91,432.959,435.275,438.6122,440.224,445.042,448.414,450.823,455.836,460.10020000000003,461.653,464.451,469.371,473.26439999999997,474.75,478.122,482.94,486.313,490.362,494.605,497.885,502.703,506.076,510.319,512.728,517.741,522.0052,523.563,528.381,531.754,536.386,540.241,544.095,547.468,550.84" svgx:width="0.81,0.44,0.3,0.42,0.36,0.26,0.44,0.25,0.55,0.3,0.53,0.52,0.36,0.55,0.52,0.25,0.44,0.46,0.36,0.55,0.44,0.55,0.49,0.42,0.46,0.55,0.36,0.5,0.25,0.42,0.55,0.26,0.54,0.55,0.3,0.53,0.42,0.55,0.52,0.36,0.42,0.52,0.44,0.36,0.44,0.3,0.26,0.5,0.54,0.55,0.5,0.29,0.55,0.46,0.5,0.25,0.49,0.51,0.36,0.53,0.42,0.25,0.25,0.35,0.36,0.3,0.36,0.52,0.42,0.3,0.52,0.36,0.42,0.52,0.55,0.81,0.44,0.3,0.42,0.36,0.26,0.44,0.25,0.36,0.55,0.52,0.36,0.26,0.54,0.46,0.55,0.3,0.53,0.42,0.55,0.36,0.52,0.36,0.44,0.46,0.35,0.52,0.36,0.46,0.26,0.54,0.46,0.55,0.52,0.36,0.5,0.42,0.42,0.36,0.36,0.22" style="fill:rgb(0,0,0);font-family:AdvOT1ef757c0;font-size:9.27px;stroke:none;">material thus plays a key role in the preparation of yolk–shell-structured materials using the spray-drying process.</text>
   <text y="654.634" x="143.943,150.79,154.839,159.852,164.484,167.857,170.655,174.028,178.846,182.7,185.498,190.316,193.689,197.543,202.3634,205.739,209.594,212.003,217.015,220.90839999999997,224.164,226.86,230.715,234.087,237.46,239.869,242.667,246.56040000000002,249.847,253.025,258.519,263.532,268.35" svgx:width="0.74,0.44,0.54,0.5,0.36,0.3,0.36,0.52,0.42,0.3,0.52,0.36,0.42,0.52,0.55,0.42,0.26,0.54,0.42,0.55,0.29,0.42,0.36,0.36,0.26,0.3,0.42,0.55,0.34,0.59,0.54,0.52,0.42" style="fill:rgb(0,0,0);font-family:AdvOT1ef757c0;font-size:9.27px;stroke:none;">Nanostructured zinc ferrite (ZnFe</text>
   <text y="656.164" x="272.239" svgx:width="0.48" style="fill:rgb(0,0,0);font-family:AdvOT1ef757c0;font-size:6.18px;stroke:none;">2</text>
   <text y="654.633" x="275.527" svgx:width="0.74" style="fill:rgb(0,0,0);font-family:AdvOT1ef757c0;font-size:9.27px;stroke:none;">O</text>
   <text y="656.164" x="282.387" svgx:width="0.48" style="fill:rgb(0,0,0);font-family:AdvOT1ef757c0;font-size:6.18px;stroke:none;">4</text>
   <text y="654.633" x="285.732,288.8838,292.195,297.013,301.645,307.918,312.736,316.59,319.963,323.3002,326.664,332.937,335.346,338.144,343.0571,346.337,350.581,354.63,358.002,360.411,365.044,369.862,373.1992,376.555,384.079,388.711,392.084,396.902,401.822,406.454,408.771,413.403,417.647,420.056,423.91,427.2472,430.584,435.504,439.553,443.796,447.6894,450.937,455.57,459.424,463.279,468.2848,471.574,477.846,481.701,484.017,486.3345,489.602,492.975,495.773,500.591,505.409,507.818,511.672,516.4924,519.82,523.869,527.2062000000001,530.535,534.584,539.597,544.229,549.047" svgx:width="0.34,0.55,0.52,0.5,0.68,0.52,0.42,0.36,0.36,0.55,0.68,0.26,0.3,0.53,0.55,0.46,0.44,0.36,0.26,0.5,0.52,0.36,0.55,0.81,0.5,0.36,0.52,0.53,0.5,0.25,0.5,0.46,0.26,0.42,0.36,0.55,0.53,0.44,0.46,0.42,0.55,0.5,0.42,0.42,0.54,0.55,0.68,0.42,0.25,0.25,0.55,0.36,0.3,0.52,0.52,0.26,0.42,0.52,0.55,0.44,0.36,0.55,0.44,0.54,0.5,0.52,0.42" style="fill:rgb(0,0,0);font-family:AdvOT1ef757c0;font-size:9.27px;stroke:none;">) powders with various morphologies have been well studied as anode</text>
   <text y="665.065" x="143.943,151.467,155.516,158.314,162.168,165.541,167.95,171.999,174.315,177.6522,180.398,183.094,187.727,191.0642,193.778,198.698,201.783,207.185" svgx:width="0.81,0.44,0.3,0.42,0.36,0.26,0.44,0.25,0.36,0.55,0.29,0.5,0.36,0.55,0.53,0.33,0.58,0.36" style="fill:rgb(0,0,0);font-family:AdvOT1ef757c0;font-size:9.27px;stroke:none;">materials for LIBs</text>
   <text y="661.663" x="210.557,213.32,216.083,219.024,221.787" svgx:width="0.48,0.48,0.51,0.48,0.48" style="fill:rgb(0,0,0);font-family:AdvOT1ef757c0;font-size:5.13px;stroke:none;">19–26</text>
   <text y="665.064" x="224.504,226.5434,229.21,236.251,240.884,247.157,251.011,255.255,259.109,262.481,264.5204,267.195,269.993,274.913,278.8064,281.424,285.279,287.595,291.449,295.304,298.102,301.474,306.107,309.961,314.881,318.736,326.259,328.668,332.522,336.571,338.8885,341.577,346.395,349.767,354.4,359.218,363.072,366.445,369.243,371.652,375.506,378.84319999999997,381.603,386.235,388.92330000000004,391.58,397.075,402.087,406.905" svgx:width="0.22,0.55,0.76,0.5,0.68,0.42,0.46,0.42,0.36,0.22,0.55,0.3,0.53,0.42,0.55,0.42,0.25,0.42,0.42,0.3,0.36,0.5,0.42,0.53,0.42,0.81,0.26,0.42,0.44,0.25,0.55,0.52,0.36,0.5,0.52,0.42,0.36,0.3,0.26,0.42,0.36,0.55,0.5,0.29,0.55,0.59,0.54,0.52,0.42" style="fill:rgb(0,0,0);font-family:AdvOT1ef757c0;font-size:9.27px;stroke:none;">. However, the electrochemical properties of ZnFe</text>
   <text y="666.652" x="410.797" svgx:width="0.48" style="fill:rgb(0,0,0);font-family:AdvOT1ef757c0;font-size:6.18px;stroke:none;">2</text>
   <text y="665.064" x="414.142" svgx:width="0.74" style="fill:rgb(0,0,0);font-family:AdvOT1ef757c0;font-size:9.27px;stroke:none;">O</text>
   <text y="666.652" x="421.001" svgx:width="0.48" style="fill:rgb(0,0,0);font-family:AdvOT1ef757c0;font-size:6.18px;stroke:none;">4</text>
   <text y="665.064" x="426.954,431.198,435.83,438.147,442.677,447.403,450.775,455.695,459.549,461.866,464.1835,466.866,471.684,476.317,482.59,487.407,491.262,494.634,497.9712,500.712,505.632,509.681,513.925,517.8184,520.442,525.454,530.087,532.8679999999999,535.579,540.211,544.066,547.92" svgx:width="0.46,0.5,0.25,0.49,0.51,0.36,0.53,0.42,0.25,0.25,0.55,0.52,0.5,0.68,0.52,0.42,0.36,0.36,0.55,0.53,0.44,0.46,0.42,0.55,0.54,0.5,0.3,0.55,0.5,0.42,0.42,0.54" style="fill:rgb(0,0,0);font-family:AdvOT1ef757c0;font-size:9.27px;stroke:none;">yolk–shell powders have not been</text>
   <text y="675.553" x="143.944,147.316,151.171,155.989,160.621,163.994,166.792,170.646,175.464,177.5034,179.604,182.689,187.6948,189.752,192.55,197.47,199.879,203.2162,205.343,208.716,211.514,216.332,221.15,225.393,227.4324,229.495,234.313,238.167,242.503,245.302,248.674,251.083,256.0888,258.182,264.455,268.504,271.8412,273.943,277.992,282.81,287.628,289.945,292.354,296.208,301.02840000000003,303.084,307.133,310.4702,312.552,317.185,321.817,324.615,329.5281,331.601,335.6798,337.724,341.578,345.627,349.0,353.632,358.265,363.2708,365.334,368.706,373.339,378.157,381.529,385.384,389.2774,391.3,398.823,402.872,405.67,409.525,412.897,415.306,419.355,421.6725,423.785,427.834,432.846,437.6664,439.715,444.533,447.906,452.15,454.558,459.571,463.83520000000004,465.908,469.956,474.2,478.054,483.067,485.848,487.904,490.6,495.233,498.5702,500.717,503.515,508.435,512.3284,514.323,516.64,520.689,524.061,528.305,532.159,535.439,538.812,542.666,546.715,549.031" svgx:width="0.36,0.42,0.52,0.5,0.36,0.3,0.42,0.52,0.22,0.55,0.33,0.54,0.55,0.3,0.53,0.26,0.36,0.55,0.36,0.3,0.52,0.52,0.46,0.22,0.55,0.52,0.42,0.47,0.3,0.36,0.26,0.54,0.55,0.68,0.44,0.36,0.55,0.44,0.52,0.52,0.25,0.26,0.42,0.52,0.55,0.44,0.36,0.55,0.5,0.5,0.3,0.53,0.55,0.44,0.55,0.42,0.44,0.36,0.5,0.5,0.54,0.55,0.36,0.5,0.52,0.36,0.42,0.42,0.55,0.81,0.44,0.3,0.42,0.36,0.26,0.44,0.25,0.55,0.44,0.54,0.52,0.55,0.52,0.36,0.46,0.26,0.54,0.46,0.55,0.44,0.46,0.42,0.54,0.3,0.55,0.29,0.5,0.36,0.55,0.3,0.53,0.42,0.55,0.25,0.44,0.36,0.46,0.42,0.35,0.36,0.42,0.44,0.25,0.42" style="fill:rgb(0,0,0);font-family:AdvOT1ef757c0;font-size:9.27px;stroke:none;">reported. In this study, dextrin was applied as both a carbon source material and drying agent for the large-scale</text>
   <text y="685.984" x="143.944,148.762,152.134,156.767,161.585,166.403,170.257,173.055,175.464,180.097,185.1028,187.201,191.833,194.5213,196.555,202.049,207.062,211.88" svgx:width="0.52,0.36,0.5,0.52,0.52,0.42,0.3,0.26,0.5,0.54,0.55,0.5,0.29,0.55,0.59,0.54,0.52,0.42" style="fill:rgb(0,0,0);font-family:AdvOT1ef757c0;font-size:9.27px;stroke:none;">production of ZnFe</text>
   <text y="687.572" x="215.773" svgx:width="0.48" style="fill:rgb(0,0,0);font-family:AdvOT1ef757c0;font-size:6.18px;stroke:none;">2</text>
   <text y="685.984" x="219.118" svgx:width="0.74" style="fill:rgb(0,0,0);font-family:AdvOT1ef757c0;font-size:9.27px;stroke:none;">O</text>
   <text y="687.572" x="225.921" svgx:width="0.48" style="fill:rgb(0,0,0);font-family:AdvOT1ef757c0;font-size:6.18px;stroke:none;">4</text>
   <text y="685.984" x="231.307,235.551,240.183,242.499,247.03,251.756,255.128,260.048,263.902,266.219,268.5365,270.596,275.414,280.046,286.319,291.137,294.991,298.364,301.736,303.7754,305.803,311.492,316.412,320.30539999999996,322.301,326.155,330.788,338.311,342.944,347.762,351.134,353.932,356.341,360.974,365.9798,368.053,372.685,375.37330000000003,377.407,380.205,385.125,389.0184,391.013,395.831,399.204,403.058,406.912,411.73,415.103,418.475,423.108,426.4452,428.544,433.362,437.995,444.267,449.085,452.94,456.312,459.6492,461.767,466.399,471.032,473.83,477.879,480.288,485.3,489.155,493.9754,496.009,500.642,504.9062,506.894,510.267,515.085,518.457,522.506,526.7701999999999,528.778,533.596,536.968,541.212,543.621,548.633" svgx:width="0.46,0.5,0.25,0.49,0.51,0.36,0.53,0.42,0.25,0.25,0.55,0.52,0.5,0.68,0.52,0.42,0.36,0.36,0.22,0.55,0.61,0.53,0.42,0.55,0.42,0.5,0.81,0.5,0.52,0.36,0.3,0.26,0.5,0.54,0.55,0.5,0.29,0.55,0.3,0.53,0.42,0.55,0.52,0.36,0.42,0.42,0.52,0.36,0.36,0.5,0.36,0.55,0.52,0.5,0.68,0.52,0.42,0.36,0.36,0.55,0.5,0.5,0.3,0.44,0.26,0.54,0.42,0.52,0.55,0.5,0.46,0.55,0.36,0.52,0.36,0.44,0.46,0.55,0.52,0.36,0.46,0.26,0.54,0.46" style="fill:rgb(0,0,0);font-family:AdvOT1ef757c0;font-size:9.27px;stroke:none;">yolk–shell powders. The combustion of the precursor powders obtained by spray drying</text>
   <text y="696.472" x="143.944,148.762,152.134,156.767,161.585,166.403,170.257,174.111,178.9314,181.418,185.4968,187.881,192.124,196.757,199.073,203.604,208.329,211.702,216.622,220.476,222.792,225.109,228.388,231.761,234.559,237.932,242.75,246.604,249.402,254.22,257.593,261.447,266.2674,268.782,274.277,279.289,284.107" svgx:width="0.52,0.36,0.5,0.52,0.52,0.42,0.42,0.52,0.55,0.44,0.55,0.46,0.5,0.25,0.49,0.51,0.36,0.53,0.42,0.25,0.25,0.35,0.36,0.3,0.36,0.52,0.42,0.3,0.52,0.36,0.42,0.52,0.55,0.59,0.54,0.52,0.42" style="fill:rgb(0,0,0);font-family:AdvOT1ef757c0;font-size:9.27px;stroke:none;">produced a yolk–shell-structured ZnFe</text>
   <text y="698.003" x="288.0" svgx:width="0.48" style="fill:rgb(0,0,0);font-family:AdvOT1ef757c0;font-size:6.18px;stroke:none;">2</text>
   <text y="696.472" x="291.288" svgx:width="0.74" style="fill:rgb(0,0,0);font-family:AdvOT1ef757c0;font-size:9.27px;stroke:none;">O</text>
   <text y="698.003" x="298.148" svgx:width="0.48" style="fill:rgb(0,0,0);font-family:AdvOT1ef757c0;font-size:6.18px;stroke:none;">4</text>
   <text y="696.472" x="303.931,308.749,313.381,319.654,324.472,328.326,331.6632,334.092,340.365,342.774,345.572,350.4851,352.914,357.158,361.791,366.423,371.2434,373.664,377.518,379.835,383.689,387.543,390.342,393.714,398.347,402.201,407.121,410.975,418.499,420.908,424.762,428.811,431.1285,433.646,438.464,441.836,446.469,451.287,455.141,458.514,461.312,463.721,467.575,470.948" svgx:width="0.52,0.5,0.68,0.52,0.42,0.36,0.55,0.68,0.26,0.3,0.53,0.55,0.46,0.5,0.5,0.52,0.55,0.42,0.25,0.42,0.42,0.3,0.36,0.5,0.42,0.53,0.42,0.81,0.26,0.42,0.44,0.25,0.55,0.52,0.36,0.5,0.52,0.42,0.36,0.3,0.26,0.42,0.36,0.22" style="fill:rgb(0,0,0);font-family:AdvOT1ef757c0;font-size:9.27px;stroke:none;">powder with good electrochemical properties.</text>
   <text y="720.057" x="143.943,150.351,156.067,160.894,167.103,169.857,173.208" svgx:width="0.68,0.6,0.51,0.66,0.29,0.35,0.51" style="fill:rgb(0,0,0);font-family:AdvOTf32ed098.B;font-size:9.46px;stroke:none;">Results</text>
   <text y="730.771" x="143.943,149.632,154.552,158.4454,160.838,168.361,172.994,176.366,181.184,186.104,190.737,193.053,197.686,201.929,204.338,208.193,211.5302,214.017,218.649,221.3373,223.768,226.566,231.486,235.37939999999998,237.714,242.532,247.164,253.437,258.255,262.109,265.482,268.8192,271.333,276.151,279.523,283.378,288.196,292.245,295.617,299.472,304.2924,306.71,311.528,313.937,317.309,321.163,325.018,327.816,330.132,334.3962,336.814,341.446,345.71020000000004,348.096,350.894,355.814,359.7074,362.099,365.472,370.29,373.663,377.711,381.955,385.235,390.053,393.425,397.669,400.078,405.09,409.3542,411.763,416.581,419.954,424.586,428.441,432.295,435.668,439.0052,441.471,444.167,447.539,452.172,459.6807,462.164,465.536,470.354,473.727,477.776,482.0402,484.444,487.817,492.449,494.766,499.583,502.382,504.791,509.423,514.436,517.7732000000001,520.217,526.49,528.899,531.697,536.6101,539.04,543.089,548.101" svgx:width="0.61,0.53,0.42,0.55,0.81,0.5,0.36,0.52,0.53,0.5,0.25,0.5,0.46,0.26,0.42,0.36,0.55,0.5,0.29,0.55,0.3,0.53,0.42,0.55,0.52,0.5,0.68,0.52,0.42,0.36,0.36,0.55,0.52,0.36,0.42,0.52,0.44,0.36,0.42,0.52,0.55,0.52,0.26,0.36,0.42,0.42,0.3,0.25,0.46,0.55,0.5,0.46,0.55,0.3,0.53,0.42,0.55,0.36,0.52,0.36,0.44,0.46,0.35,0.52,0.36,0.46,0.26,0.54,0.46,0.55,0.52,0.36,0.5,0.42,0.42,0.36,0.36,0.55,0.29,0.36,0.5,0.81,0.55,0.36,0.52,0.36,0.44,0.46,0.55,0.36,0.5,0.25,0.52,0.3,0.26,0.5,0.54,0.36,0.55,0.68,0.26,0.3,0.53,0.55,0.44,0.54,0.52" style="fill:rgb(0,0,0);font-family:AdvOT1ef757c0;font-size:9.27px;stroke:none;">The morphologies of the powders prepared directly by the spray-drying process from spray solutions with and</text>
   <text y="741.203" x="143.943,150.216,152.625,155.423,160.343,164.976,169.794,172.57500000000002,174.388,179.206,183.061,187.397,190.195,193.567,195.976,200.9818,202.735,206.784,210.157,214.05040000000002,215.774,219.147,224.067,228.7,234.972,239.9778,241.74,244.149,249.1548,250.925,255.743,258.152,262.396,267.214,270.586,274.4794,276.21,280.648,282.6874,284.374,290.063,294.983,298.8764,300.645,305.463,308.835,311.244,315.098,319.9184,321.678,326.496,331.128,337.401,342.219,346.073,349.4102,351.216,356.034,360.082,363.455,366.253,368.662,372.516,374.833,378.687,382.0242,383.815,387.669,392.005,396.925,399.334,403.967,406.376,409.174,413.028,417.8484,419.645,423.7238,425.428,428.8,433.618,438.538,442.393,445.765,448.174,452.028,456.077,458.3945,460.181,463.554,468.473,472.522,477.34,481.23339999999996,482.972,487.021,492.033,496.8534,498.563,503.575,508.21,509.958,514.007,518.25,522.494,525.867,529.721,533.964,538.013,540.811,543.22,547.853" svgx:width="0.68,0.26,0.3,0.53,0.5,0.52,0.3,0.55,0.52,0.42,0.47,0.3,0.36,0.26,0.54,0.55,0.44,0.36,0.42,0.55,0.36,0.53,0.5,0.68,0.54,0.55,0.26,0.54,0.55,0.52,0.26,0.46,0.52,0.36,0.42,0.55,0.48,0.22,0.55,0.61,0.53,0.42,0.55,0.52,0.36,0.26,0.42,0.52,0.55,0.52,0.5,0.68,0.52,0.42,0.36,0.55,0.52,0.44,0.36,0.3,0.26,0.42,0.25,0.42,0.36,0.55,0.42,0.47,0.53,0.26,0.5,0.26,0.3,0.42,0.52,0.55,0.44,0.55,0.36,0.52,0.53,0.42,0.36,0.26,0.42,0.44,0.25,0.55,0.36,0.53,0.44,0.52,0.42,0.55,0.44,0.54,0.52,0.55,0.54,0.5,0.55,0.44,0.46,0.46,0.36,0.42,0.46,0.44,0.3,0.26,0.5,0.54" style="fill:rgb(0,0,0);font-family:AdvOT1ef757c0;font-size:9.27px;stroke:none;">without dextrin are shown in Figure 1. The dried powder particles exhibited a spherical shape and no aggregation</text>
   <text y="163.389" x="80.674,91.414,100.703,109.992" svgx:width="0.77,0.67,0.67,0.72" style="fill:rgb(244,124,27);font-family:AdvTT16f3b945.B;font-size:13.95px;stroke:none;">OPEN</text>
   <text y="202.224" x="54.368,60.988,69.547,77.876,82.895,88.254,94.413,99.772,108.1,114.72" svgx:width="0.6,0.78,0.76,0.46,0.49,0.56,0.49,0.76,0.6,0.49" style="fill:rgb(84,84,83);font-family:AdvPA0C8;font-size:10.96px;stroke:none;">CONFERENCE</text>
   <text y="216.17" x="50.286,56.106,62.264,70.823,77.443,82.802,88.161,95.229,97.969,106.298,114.396" svgx:width="0.53,0.56,0.78,0.6,0.49,0.49,0.64,0.25,0.76,0.74,0.52" style="fill:rgb(84,84,83);font-family:AdvPA0C8;font-size:10.96px;stroke:none;">PROCEEDINGS</text>
   <text y="235.106" x="61.965,68.035,72.797,77.181,82.032,86.515,89.779,94.818,99.48,104.609,109.738,114.866" svgx:width="0.68,0.53,0.49,0.54,0.5,0.36,0.56,0.52,0.57,0.57,0.57,0.57" style="fill:rgb(0,0,0);font-family:AdvPA0C8;font-size:8.97px;stroke:none;">APEnergy2014</text>
   <text y="248.315" x="62.646,66.602,70.557,74.513,78.469,82.425,86.381,90.337,94.293,98.249,102.205,106.161,110.117,114.073,118.029" svgx:width="0.27,0.27,0.27,0.27,0.27,0.27,0.27,0.27,0.27,0.27,0.27,0.27,0.27,0.27,0.27" style="fill:rgb(0,0,0);font-family:AdvTimes;font-size:11.96px;stroke:none;">...............</text>
   <text y="282.217" x="53.745,58.694,64.764,69.804,72.601,77.362,83.71,87.9259,90.254,96.503,101.354,106.115,112.365,117.314" svgx:width="0.55,0.68,0.56,0.31,0.53,0.71,0.47,0.55,0.7,0.54,0.53,0.7,0.55,0.3" style="fill:rgb(0,0,0);font-family:AdvOT735b620e;font-size:8.97px;stroke:none;">SUBJECT AREAS:</text>
   <text y="296.391" x="51.024,54.76,61.142,65.185,71.567,76.626,80.73450000000001,82.716,89.404,94.613,98.11,102.078,106.121,107.833,113.042,115.94" svgx:width="0.5,0.85,0.54,0.85,0.68,0.55,0.55,0.89,0.7,0.47,0.53,0.54,0.23,0.7,0.38,0.55" style="fill:rgb(0,0,0);font-family:AdvOT735b620e;font-size:7.47px;stroke:none;">POROUS MATERIALS</text>
   <text y="310.847" x="16.441,20.566,24.923,31.148,34.645,39.936,43.904,48.03,49.741,53.8495,55.845,61.054,67.278,72.3576,74.327,78.064,82.107,88.489,93.779,97.748,101.873,105.998,107.71,113.935" svgx:width="0.55,0.58,0.83,0.47,0.71,0.53,0.55,0.23,0.55,0.55,0.7,0.83,0.68,0.55,0.5,0.54,0.85,0.71,0.53,0.55,0.55,0.23,0.83,0.81" style="fill:rgb(0,0,0);font-family:AdvOT735b620e;font-size:7.47px;stroke:none;">SYNTHESIS AND PROCESSING</text>
   <text y="325.303" x="85.776,89.976,95.183,98.68,102.177,106.145,110.187,111.898,115.865" svgx:width="0.56,0.7,0.47,0.47,0.53,0.54,0.23,0.53,0.55" style="fill:rgb(0,0,0);font-family:AdvOT735b620e;font-size:7.47px;stroke:none;">BATTERIES</text>
   <text y="339.703" x="61.512,67.737,72.945,79.17,85.552,89.288,94.497,98.647,102.144,103.856,109.147,111.949,115.918" svgx:width="0.83,0.7,0.83,0.85,0.5,0.7,0.54,0.47,0.23,0.71,0.38,0.53,0.55" style="fill:rgb(0,0,0);font-family:AdvOT735b620e;font-size:7.47px;stroke:none;">NANOPARTICLES</text>
   <text y="371.112" x="87.25,92.101,96.396,100.314,104.609,106.851,110.769,115.064" svgx:width="0.54,0.48,0.44,0.48,0.25,0.44,0.48,0.55" style="fill:rgb(0,0,0);font-family:AdvOT144a03c1;font-size:8.97px;stroke:none;">Received</text>
   <text y="382.053" x="51.137,56.266,61.3789,63.723,67.919,72.214,77.163,80.239,84.812,89.761,92.836,97.1416,99.495,104.623,109.752,114.881" svgx:width="0.57,0.57,0.55,0.47,0.48,0.55,0.34,0.51,0.55,0.34,0.48,0.55,0.57,0.57,0.57,0.57" style="fill:rgb(0,0,0);font-family:AdvOT144a03c1;font-size:8.97px;stroke:none;">11 February 2014</text>
   <text y="399.004" x="85.323,91.572,95.49,99.409,103.704,108.653,110.796,115.091" svgx:width="0.7,0.44,0.44,0.48,0.55,0.24,0.48,0.55" style="fill:rgb(0,0,0);font-family:AdvOT144a03c1;font-size:8.97px;stroke:none;">Accepted</text>
   <text y="409.946" x="70.582,75.711,80.8239,83.168,86.342,90.915,92.87,97.1756,99.495,104.624,109.752,114.881" svgx:width="0.57,0.57,0.55,0.35,0.51,0.22,0.48,0.55,0.57,0.57,0.57,0.57" style="fill:rgb(0,0,0);font-family:AdvOT144a03c1;font-size:8.97px;stroke:none;">11 July 2014</text>
   <text y="426.896" x="84.642,89.027,93.599,98.549,100.503,102.745,106.107,110.77,115.065" svgx:width="0.49,0.51,0.55,0.22,0.25,0.38,0.52,0.48,0.55" style="fill:rgb(0,0,0);font-family:AdvOT144a03c1;font-size:8.97px;stroke:none;">Published</text>
   <text y="437.838" x="58.733,63.862,68.9749,71.319,77.569,82.141,87.091,91.664,95.026,97.1788,99.495,104.624,109.752,114.881" svgx:width="0.57,0.57,0.55,0.7,0.51,0.55,0.51,0.38,0.24,0.55,0.57,0.57,0.57,0.57" style="fill:rgb(0,0,0);font-family:AdvOT144a03c1;font-size:8.97px;stroke:none;">29 August 2014</text>
   <text y="474.463" x="48.586,54.229,58.628,61.282,63.936,68.001,71.149,75.708,80.108,84.252,88.811,92.804,96.949,100.679,104.7437,106.807,111.366,115.511" svgx:width="0.71,0.55,0.33,0.33,0.51,0.4,0.57,0.55,0.52,0.57,0.51,0.52,0.47,0.51,0.55,0.57,0.52,0.57" style="fill:rgb(0,0,0);font-family:AdvOT735b620e;font-size:7.97px;stroke:none;">Correspondence and</text>
   <text y="486.425" x="48.416,51.07,55.135,59.694,63.759,67.823,70.972,72.877,76.065,78.065,80.217,84.617,87.2471,89.347,95.404,99.963,101.868,105.933,108.587,110.659,115.218,116.956" svgx:width="0.33,0.51,0.57,0.51,0.51,0.4,0.24,0.4,0.55,0.27,0.55,0.33,0.55,0.76,0.57,0.24,0.51,0.33,0.26,0.57,0.22,0.4" style="fill:rgb(0,0,0);font-family:AdvOT735b620e;font-size:7.97px;stroke:none;">requests for materials</text>
   <text y="498.388" x="42.86,46.008,50.153,54.552,58.617,60.355,64.89789999999999,66.557,71.116,75.1807,76.818,81.377,85.936,90.495,93.149,97.214,100.362,103.51,107.575,112.1179,113.78,115.685" svgx:width="0.4,0.52,0.55,0.51,0.22,0.57,0.55,0.57,0.51,0.55,0.57,0.57,0.57,0.33,0.51,0.4,0.4,0.51,0.57,0.55,0.24,0.55" style="fill:rgb(0,0,0);font-family:AdvOT735b620e;font-size:7.97px;stroke:none;">should be addressed to</text>
   <text y="510.35" x="62.589,67.238,69.648,75.293,77.703,82.519,84.91000000000001,86.922,89.164,93.064,96.796,100.528,105.09,109.237,113.798" svgx:width="0.58,0.3,0.71,0.3,0.6,0.3,0.55,0.28,0.49,0.47,0.47,0.57,0.52,0.57,0.79" style="fill:rgb(0,0,0);font-family:AdvOT735b620e;font-size:7.97px;stroke:none;">Y.C.K. (yckang@</text>
   <text y="522.313" x="74.609,78.339,82.738,86.883,90.613,94.677,98.408,100.815,105.373,109.02,111.427,115.157,117.811" svgx:width="0.47,0.55,0.52,0.47,0.51,0.47,0.3,0.57,0.47,0.3,0.47,0.33,0.28" style="fill:rgb(0,0,0);font-family:AdvOT735b620e;font-size:7.97px;stroke:none;">konkuk.ac.kr)</text>
  </g>
  <g begin="text">
   <text y="768.132" x="42.86,47.092,52.32,54.146,58.29,64.515,68.078,69.903,73.529,75.354" svgx:width="0.53,0.66,0.23,0.52,0.78,0.45,0.23,0.47,0.23,0.66" style="fill:rgb(178,178,177);font-family:AdvOT144a03c1;font-size:7.97px;stroke:none;">SCIENTIFIC</text>
   <text y="768.132" x="82.658,87.058,90.875,95.02,101.245,105.644,109.207" svgx:width="0.55,0.48,0.52,0.78,0.55,0.45,0.52" style="fill:rgb(178,178,177);font-family:AdvOT1415ea69.B;font-size:7.97px;stroke:none;">REPORTS</text>
   <text y="768.132" x="117.411,121.8742,123.987,128.8487,130.96,133.351,135.382,140.276,145.169,150.063,154.9247,157.038,161.5012,163.557,168.953,175.76,177.585,179.976,182.039,186.932,191.826,194.233,199.127,204.02,208.914,213.808,218.287,221.325,223.979,228.044,232.603,237.497,242.391,247.284,252.178" svgx:width="0.56,0.55,0.61,0.55,0.3,0.55,0.61,0.61,0.61,0.61,0.55,0.56,0.55,0.68,0.85,0.23,0.3,0.55,0.61,0.61,0.3,0.61,0.61,0.61,0.61,0.56,0.4,0.33,0.51,0.57,0.61,0.61,0.61,0.61,0.61" style="fill:rgb(0,0,0);font-family:AdvOT735b620e;font-size:7.97px;stroke:none;">| 4 : 5857 | DOI: 10.1038/srep05857</text>
   <text y="768.132" x="547.542" svgx:width="0.68" style="fill:rgb(0,0,0);font-family:AdvOTf32ed098.B;font-size:7.97px;stroke:none;">1</text>
  </g>
 </g>
</svg>
