<?xml version="1.0" encoding="UTF-8"?>
<svg height="778.132" width="2814.611" xmlns="http://www.w3.org/2000/svg">
 <g id="page" xmlns:svgx="http://www.xml-cml.org/schema/svgx">
  <g begin="text">
   <text y="382.28" x="42.86,46.232,50.087,54.33,58.379,61.752,66.57,68.886,72.74,76.113,79.4502,82.205,86.838,89.52629999999999,92.239,97.057,100.43,104.673,107.082,112.095,116.3592,119.055,123.104,127.922,132.74,135.149,137.947,140.356,144.599,148.49239999999998,151.143,155.776,159.63,163.485,167.534,172.352,175.724,179.61739999999998,182.325,186.957,189.6453,192.359,195.157,200.077,203.97039999999998,206.589,210.832,215.465,220.098,224.91840000000002,227.622,232.44,235.812,240.056,242.465,247.478,251.7422,254.438,258.292,263.212,267.261,270.633,274.682,278.537,281.335,285.189,288.562" svgx:width="0.36,0.42,0.46,0.44,0.36,0.52,0.25,0.42,0.36,0.36,0.55,0.5,0.29,0.55,0.52,0.36,0.46,0.26,0.54,0.46,0.55,0.44,0.52,0.52,0.26,0.3,0.26,0.46,0.42,0.55,0.5,0.42,0.42,0.44,0.52,0.36,0.42,0.55,0.5,0.29,0.55,0.3,0.53,0.42,0.55,0.46,0.5,0.5,0.52,0.55,0.52,0.36,0.46,0.26,0.54,0.46,0.55,0.42,0.53,0.44,0.36,0.44,0.42,0.3,0.42,0.36,0.35" style="fill:rgb(0,0,0);font-family:AdvOT1ef757c0;font-size:9.27px;stroke:none;">regardless of drying additive because of the good drying character-</text>
   <text y="392.938" x="42.86,45.269,48.641,51.439,53.848,57.703,61.040200000000006,66.614,71.247,73.9353,79.427,83.282,85.691,90.703,94.5964,100.12,104.169,109.182,114.00240000000001,119.51,121.919,125.291,129.924,134.9298,140.486,143.859,147.908,150.224,153.022,156.3592,161.916,166.734,171.747,176.565,180.419,183.7562,189.356,194.276,196.685,200.929,205.84210000000002,211.41,216.329,221.147,228.671,231.08,235.898,238.307,241.105,245.36919999999998,250.869,254.723,259.356,264.368,269.186,271.595,274.393,276.802,281.435,286.447,289.82" svgx:width="0.26,0.36,0.3,0.26,0.42,0.36,0.55,0.5,0.29,0.55,0.42,0.26,0.54,0.42,0.55,0.44,0.54,0.52,0.55,0.26,0.36,0.5,0.54,0.55,0.36,0.44,0.25,0.3,0.36,0.55,0.52,0.54,0.52,0.42,0.36,0.55,0.53,0.26,0.46,0.53,0.55,0.53,0.52,0.81,0.26,0.52,0.26,0.3,0.46,0.55,0.42,0.5,0.54,0.52,0.26,0.3,0.26,0.5,0.54,0.36,0.22" style="fill:rgb(0,0,0);font-family:AdvOT1ef757c0;font-size:9.27px;stroke:none;">istics of zinc and iron salts under high humidity conditions.</text>
   <text y="403.596" x="42.86,49.901,54.534,60.807,64.661,68.905,72.759,76.131,78.1704,80.731,83.529,88.449,92.3424,94.847,99.665,103.038,106.9314,109.475,114.107,116.7953,119.339,124.157,128.012,132.348,135.146,138.518,140.927,145.9328,148.536,152.585,155.9222,158.514,163.147,167.779,170.577,175.49009999999998,178.016,182.0948,184.649,189.467,192.84,197.083,199.492,204.505,208.76919999999998,211.296,215.344,220.162,224.98,227.389,230.188,232.596,236.84,240.73340000000002,243.271,247.32,252.333,257.1534,259.712,263.7908,266.345,270.2,274.249,277.621,282.254,286.887" svgx:width="0.76,0.5,0.68,0.42,0.46,0.42,0.36,0.22,0.55,0.3,0.53,0.42,0.55,0.52,0.36,0.42,0.55,0.5,0.29,0.55,0.52,0.42,0.47,0.3,0.36,0.26,0.54,0.55,0.44,0.36,0.55,0.5,0.5,0.3,0.53,0.55,0.44,0.55,0.52,0.36,0.46,0.26,0.54,0.46,0.55,0.44,0.52,0.52,0.26,0.3,0.26,0.46,0.42,0.55,0.44,0.54,0.52,0.55,0.44,0.55,0.42,0.44,0.36,0.5,0.5,0.54" style="fill:rgb(0,0,0);font-family:AdvOT1ef757c0;font-size:9.27px;stroke:none;">However, the use of dextrin as both a drying additive and a carbon</text>
   <text y="414.254" x="42.86,46.232,50.865,55.683,59.056,62.91,66.8034,69.222,76.746,80.795,83.593,87.447,90.82,93.229,97.278,99.5955,102.105,104.514,112.037,116.855,120.228,124.86,129.104,132.958,137.7784,140.317,143.115,148.035,151.9284,154.32,157.693,165.216,169.849,174.482,177.28,182.2,187.212,191.067,194.439,197.7762,200.356,204.989,207.6773,210.164,212.962,217.882,221.7754,224.168,227.54,232.358,235.731,238.427,242.476,246.33,250.22340000000003,252.741,257.374,260.06230000000005,262.492,265.29,270.21,274.10339999999997,276.552,281.37,284.743,288.597" svgx:width="0.36,0.5,0.52,0.36,0.42,0.42,0.55,0.81,0.44,0.3,0.42,0.36,0.26,0.44,0.25,0.55,0.26,0.81,0.52,0.36,0.5,0.46,0.42,0.52,0.55,0.3,0.53,0.42,0.55,0.36,0.81,0.5,0.5,0.3,0.53,0.54,0.42,0.36,0.36,0.55,0.5,0.29,0.55,0.3,0.53,0.42,0.55,0.36,0.52,0.36,0.29,0.44,0.42,0.42,0.55,0.5,0.29,0.55,0.3,0.53,0.42,0.55,0.52,0.36,0.42,0.35" style="fill:rgb(0,0,0);font-family:AdvOT1ef757c0;font-size:9.27px;stroke:none;">source material improved the smoothness of the surface of the pre-</text>
   <text y="424.912" x="42.86,46.714,51.532,54.905,58.277,62.91,66.24719999999999,68.428,73.246,77.879,84.152,88.969,92.824,96.196,99.569,101.6084,103.749,109.437,114.357,118.2504,120.359,124.214,128.846,133.859,137.713,141.568,146.58,149.378,152.751,156.8,159.598,162.007,166.64,171.64579999999998,173.822,178.066,181.438,185.487,190.305,192.714,196.568,201.581,204.362,206.591,212.863,215.272,218.07,222.99,225.399,230.4048,232.557,235.355,240.275,244.16840000000002,246.22,251.038,254.411,259.043,263.861,266.178,270.032,272.83,276.1672,278.422,283.24,288.058" svgx:width="0.42,0.52,0.36,0.36,0.5,0.36,0.55,0.52,0.5,0.68,0.52,0.42,0.36,0.36,0.22,0.55,0.61,0.53,0.42,0.55,0.42,0.5,0.54,0.42,0.42,0.54,0.3,0.36,0.44,0.3,0.26,0.5,0.54,0.55,0.46,0.36,0.44,0.52,0.26,0.42,0.54,0.3,0.55,0.68,0.26,0.3,0.53,0.26,0.54,0.55,0.3,0.53,0.42,0.55,0.52,0.36,0.5,0.52,0.25,0.42,0.3,0.36,0.55,0.52,0.52,0.42" style="fill:rgb(0,0,0);font-family:AdvOT1ef757c0;font-size:9.27px;stroke:none;">cursor powders. The concentration gradient within the droplets due</text>
   <text y="435.57" x="42.86,45.658,50.293,52.101,54.797,58.846,62.219,65.0,66.841,71.659,75.032,79.275,81.684,86.697,90.9612,92.807,97.625,100.998,105.63,110.448,115.266,119.121,122.975,127.7954,129.658,134.476,137.849,141.703,145.557,150.375,153.748,157.12,161.753,165.09019999999998,167.019,171.837,176.47,182.743,187.561,191.415,194.788,198.1252,200.015,206.288,208.697,211.495,216.4081,218.271,222.3498,224.167,228.985,231.394,234.766,237.565,242.197,245.57,248.368,252.222,257.0424,258.92,262.293,267.111,272.031,275.885,279.258,281.667,285.521,289.57" svgx:width="0.3,0.5,0.55,0.29,0.44,0.36,0.3,0.55,0.52,0.36,0.46,0.26,0.54,0.46,0.55,0.52,0.36,0.5,0.52,0.52,0.42,0.42,0.52,0.55,0.52,0.36,0.42,0.42,0.52,0.36,0.36,0.5,0.36,0.55,0.52,0.5,0.68,0.52,0.42,0.36,0.36,0.55,0.68,0.26,0.3,0.53,0.55,0.44,0.55,0.52,0.26,0.36,0.3,0.5,0.36,0.3,0.42,0.52,0.55,0.36,0.52,0.53,0.42,0.36,0.26,0.42,0.44,0.25" style="fill:rgb(0,0,0);font-family:AdvOT1ef757c0;font-size:9.27px;stroke:none;">to fast drying produced precursor powders with a distorted spherical</text>
   <text y="446.227" x="42.86,46.232,51.152,55.201,60.019,63.874,65.9134,67.635,71.684,75.0212,76.762,80.135,85.055,89.688,95.96,100.96579999999999,102.671,105.08,110.08579999999999,111.798,116.616,119.025,123.269,128.087,131.459,135.3524,137.083,141.521,145.57,147.6094,149.273,154.091,156.5,160.743,165.561,168.934,172.8274,174.558,178.894,183.3436,185.046,188.419,193.338,197.971,204.244,207.5812,209.311,212.109,217.029,220.92239999999998,222.577,225.375,230.295,234.149,237.522,245.045,249.678,253.922,257.294,261.343,265.587,267.996,275.519,279.373,282.171,285.544,287.953" svgx:width="0.36,0.53,0.44,0.52,0.42,0.22,0.55,0.44,0.36,0.55,0.36,0.53,0.5,0.68,0.54,0.55,0.26,0.54,0.55,0.52,0.26,0.46,0.52,0.36,0.42,0.55,0.48,0.44,0.22,0.55,0.52,0.26,0.46,0.52,0.36,0.42,0.55,0.47,0.48,0.55,0.36,0.53,0.5,0.68,0.36,0.55,0.3,0.53,0.42,0.55,0.3,0.53,0.42,0.36,0.81,0.5,0.46,0.36,0.44,0.46,0.26,0.81,0.42,0.3,0.36,0.26,0.42" style="fill:rgb(0,0,0);font-family:AdvOT1ef757c0;font-size:9.27px;stroke:none;">shape, as shown in Figure 1a. Figure S1 shows the thermogravimetric</text>
   <text y="456.885" x="42.86,46.038,51.727,58.287,61.4388,64.573,68.427,73.245,76.618,80.861,84.7544,87.818,92.45,95.1383,98.306,101.104,106.024,109.9174,112.99,117.808,122.44,128.713,133.531,137.385,140.758,144.0952,147.232,152.05,155.423,159.277,164.095,168.144,171.517,175.371,180.19140000000002,183.346,186.042,189.415,194.047,201.5557,204.719,207.517,212.437,216.3304,219.403,222.775,227.593,230.966,235.015,239.27919999999997,242.364,245.737,250.369,252.686,257.504,260.302,262.711,267.343,272.34880000000004,275.474,281.746,284.155,286.953" svgx:width="0.34,0.61,0.71,0.34,0.55,0.42,0.52,0.36,0.46,0.42,0.55,0.5,0.29,0.55,0.3,0.53,0.42,0.55,0.52,0.5,0.68,0.52,0.42,0.36,0.36,0.55,0.52,0.36,0.42,0.52,0.44,0.36,0.42,0.52,0.55,0.29,0.36,0.5,0.81,0.55,0.3,0.53,0.42,0.55,0.36,0.52,0.36,0.44,0.46,0.55,0.36,0.5,0.25,0.52,0.3,0.26,0.5,0.54,0.55,0.68,0.26,0.3,0.53" style="fill:rgb(0,0,0);font-family:AdvOT1ef757c0;font-size:9.27px;stroke:none;">(TG) curve of the powders prepared from the spray solution with</text>
   <text y="467.543" x="42.86,47.678,51.532,55.868,58.666,62.039,64.448,69.45379999999999,73.474,78.107,81.961,84.657,89.29,92.663,96.5564,100.517,104.566,109.578,114.39840000000001,118.376,122.425,125.121,127.919,131.773,135.1102,139.125,143.943,148.576,151.949,154.747,158.027,160.825,164.197,168.052,172.101,174.899,182.422,186.276,191.289,194.07,198.143,202.192,204.973,208.972,213.41,217.848" svgx:width="0.52,0.42,0.47,0.3,0.36,0.26,0.54,0.55,0.5,0.42,0.29,0.5,0.36,0.42,0.55,0.44,0.54,0.52,0.55,0.44,0.29,0.3,0.42,0.36,0.55,0.52,0.5,0.36,0.3,0.35,0.3,0.36,0.42,0.44,0.3,0.81,0.42,0.54,0.3,0.55,0.44,0.3,0.55,0.48,0.48,0.48" style="fill:rgb(0,0,0);font-family:AdvOT1ef757c0;font-size:9.27px;stroke:none;">dextrin before and after post-treatment at 450</text>
   <text y="467.543" x="222.293" svgx:width="0.38" style="fill:rgb(0,0,0);font-family:AdvP44E6F4;font-size:9.27px;stroke:none;">u</text>
   <text y="467.543" x="225.864,231.942,233.9814,237.94,243.629,248.549,252.44240000000002,256.365,261.183,264.555,268.41,272.264,277.082,280.455,283.827,288.46" svgx:width="0.66,0.22,0.55,0.61,0.53,0.42,0.55,0.52,0.36,0.42,0.42,0.52,0.36,0.36,0.5,0.36" style="fill:rgb(0,0,0);font-family:AdvOT1ef757c0;font-size:9.27px;stroke:none;">C. The precursor</text>
   <text y="478.201" x="42.86,47.678,52.31,58.583,63.401,67.255,70.628,73.9652,76.762,80.617,84.953,89.873,92.282,96.914,99.323,102.122,105.976,110.7964,113.613,117.6918,120.473,125.291,127.7,131.073,133.871,136.28,141.292,145.147,147.928,150.748,153.546,158.466,161.838,165.693,169.547,172.827,176.2,178.998,182.852,187.6724,190.49,196.763,200.617,203.026,207.27,212.19,214.971,217.76,220.076,224.709,228.082,231.4192,234.258,238.89,242.745,245.061,249.694,255.99759999999998,258.75,263.188,267.626" svgx:width="0.52,0.5,0.68,0.52,0.42,0.36,0.36,0.55,0.42,0.47,0.53,0.26,0.5,0.26,0.3,0.42,0.52,0.55,0.44,0.55,0.52,0.26,0.36,0.3,0.26,0.54,0.42,0.3,0.55,0.3,0.53,0.36,0.42,0.42,0.35,0.36,0.3,0.42,0.52,0.55,0.68,0.42,0.26,0.46,0.53,0.3,0.55,0.25,0.5,0.36,0.36,0.55,0.5,0.42,0.25,0.5,0.68,0.55,0.48,0.48,0.48" style="fill:rgb(0,0,0);font-family:AdvOT1ef757c0;font-size:9.27px;stroke:none;">powders exhibited a distinct three-step weight loss below 400</text>
   <text y="478.201" x="272.068" svgx:width="0.38" style="fill:rgb(0,0,0);font-family:AdvP44E6F4;font-size:9.27px;stroke:none;">u</text>
   <text y="478.201" x="275.64,281.7582,284.484,288.533" svgx:width="0.66,0.55,0.44,0.36" style="fill:rgb(0,0,0);font-family:AdvOT1ef757c0;font-size:9.27px;stroke:none;">C as</text>
   <text y="488.859" x="42.86,46.9388,48.699,52.071,55.926,59.298,64.116,66.433,69.21400000000001,71.037,75.669,78.3573,80.221,83.019,87.939,91.83239999999999,93.601,98.419,102.274,106.128,110.761,118.284,123.102,127.735,131.107,133.516,136.314,138.723,143.356,148.3618,150.238,154.871,157.5593,159.365,162.164,167.083,170.9764,172.745,180.269,184.123,186.921,190.97,193.2875,195.14,198.512,202.561,204.878,207.676,211.01319999999998,212.828,216.877,221.89,226.7104,228.532,233.35,237.204,241.54,244.338,247.711,250.12,255.133,257.1724,259.033,264.722,269.642,273.5354,275.304,278.102,282.735,285.533,289.582" svgx:width="0.44,0.55,0.36,0.42,0.36,0.52,0.25,0.3,0.55,0.5,0.29,0.55,0.3,0.53,0.42,0.55,0.52,0.42,0.42,0.5,0.81,0.52,0.5,0.36,0.26,0.3,0.26,0.5,0.54,0.55,0.5,0.29,0.55,0.3,0.53,0.42,0.55,0.81,0.42,0.3,0.44,0.25,0.55,0.36,0.44,0.25,0.3,0.36,0.55,0.44,0.54,0.52,0.55,0.52,0.42,0.47,0.3,0.36,0.26,0.54,0.22,0.55,0.61,0.53,0.42,0.55,0.3,0.5,0.3,0.44,0.25" style="fill:rgb(0,0,0);font-family:AdvOT1ef757c0;font-size:9.27px;stroke:none;">a result of the decomposition of the metal salts and dextrin. The total</text>
   <text y="499.517" x="42.86,49.132,52.987,55.396,59.639,64.559,67.34,68.939,71.255,75.888,79.26,82.5972,84.246,88.879,91.5673,93.204,96.002,100.922,104.8154,106.357,111.175,114.547,118.402,122.256,127.074,130.447,133.819,138.452,141.7892,143.491,148.309,152.942,159.214,164.032,167.887,171.259,174.59619999999998,176.26,182.532,186.581,189.91819999999998,191.567,196.005,200.4546,203.586,209.859,212.657,219.606,221.6454,223.202,230.049,235.0548,236.695,239.494,244.413,248.3064,249.848,254.481,257.279,262.199,266.053,269.3902,271.052,275.972,280.021,285.033,289.851" svgx:width="0.68,0.42,0.26,0.46,0.53,0.3,0.55,0.25,0.5,0.36,0.36,0.55,0.5,0.29,0.55,0.3,0.53,0.42,0.55,0.52,0.36,0.42,0.42,0.52,0.36,0.36,0.5,0.36,0.55,0.52,0.5,0.68,0.52,0.42,0.36,0.36,0.55,0.68,0.44,0.36,0.55,0.48,0.48,0.55,0.68,0.3,0.75,0.22,0.55,0.74,0.54,0.55,0.3,0.53,0.42,0.55,0.5,0.3,0.53,0.42,0.36,0.55,0.53,0.44,0.54,0.52,0.22" style="fill:rgb(0,0,0);font-family:AdvOT1ef757c0;font-size:9.27px;stroke:none;">weight loss of the precursor powders was 76 wt%. On the other hand,</text>
   <text y="510.175" x="42.86,45.658,50.578,54.432,57.805,61.6984,65.084,71.356,75.405,78.7422,82.205,87.217,91.852,95.301,99.934,104.567,107.939,111.794,115.166,119.41,123.264,128.0844,131.585,137.858,141.712,144.121,148.365,153.285,156.066,159.478,161.795,166.427,169.8,173.1372,176.656,179.065,184.0708,187.485,190.283,195.203,199.09640000000002,202.508,207.326,211.959,218.232,223.05,226.904,230.277,233.61419999999998,237.149,241.967,246.599,249.972,252.77,256.05,258.848,262.22,266.075,270.124,272.922,276.776,281.5964,285.055,289.104" svgx:width="0.3,0.53,0.42,0.36,0.42,0.55,0.68,0.44,0.36,0.55,0.54,0.5,0.55,0.5,0.5,0.36,0.42,0.36,0.46,0.42,0.52,0.55,0.68,0.42,0.26,0.46,0.53,0.3,0.55,0.25,0.5,0.36,0.36,0.55,0.26,0.54,0.55,0.3,0.53,0.42,0.55,0.52,0.5,0.68,0.52,0.42,0.36,0.36,0.55,0.52,0.5,0.36,0.3,0.35,0.3,0.36,0.42,0.44,0.3,0.42,0.52,0.55,0.44,0.3" style="fill:rgb(0,0,0);font-family:AdvOT1ef757c0;font-size:9.27px;stroke:none;">there was no observed weight loss in the powders post-treated at</text>
   <text y="520.833" x="42.86,47.298,51.736" svgx:width="0.48,0.48,0.48" style="fill:rgb(0,0,0);font-family:AdvOT1ef757c0;font-size:9.27px;stroke:none;">450</text>
   <text y="520.833" x="56.182" svgx:width="0.38" style="fill:rgb(0,0,0);font-family:AdvP44E6F4;font-size:9.27px;stroke:none;">u</text>
   <text y="520.833" x="59.754,65.87219999999999,68.201,72.834,76.688,79.005,83.637,89.9406,92.353,96.791,101.229" svgx:width="0.66,0.55,0.5,0.42,0.25,0.5,0.68,0.55,0.48,0.48,0.48" style="fill:rgb(0,0,0);font-family:AdvOT1ef757c0;font-size:9.27px;stroke:none;">C below 800</text>
   <text y="520.833" x="105.675" svgx:width="0.38" style="fill:rgb(0,0,0);font-family:AdvP44E6F4;font-size:9.27px;stroke:none;">u</text>
   <text y="520.833" x="109.247,115.325" svgx:width="0.66,0.22" style="fill:rgb(0,0,0);font-family:AdvOT1ef757c0;font-size:9.27px;stroke:none;">C.</text>
   <text y="531.717" x="52.1,56.918,59.327,63.571,68.388,71.761,75.6544,79.483,83.93260000000001,87.759,91.132,96.052,100.685,106.957,110.29419999999999,114.179,116.977,121.897,125.7904,129.599,137.122,141.755,145.127,149.945,154.865,159.498,161.814,166.447,170.69,173.099,176.954,180.2912,184.252,188.885,191.5733,195.42,198.219,203.138,207.03140000000002,210.841,215.659,220.291,223.664,226.462,229.742,232.54,235.913,239.767,243.816,246.614,250.468,255.2884,259.143,264.638,269.65,274.468" svgx:width="0.52,0.26,0.46,0.52,0.36,0.42,0.55,0.48,0.55,0.36,0.53,0.5,0.68,0.36,0.55,0.3,0.53,0.42,0.55,0.81,0.5,0.36,0.52,0.53,0.5,0.25,0.5,0.46,0.26,0.42,0.36,0.55,0.5,0.29,0.55,0.3,0.53,0.42,0.55,0.52,0.5,0.36,0.3,0.35,0.3,0.36,0.42,0.44,0.3,0.42,0.52,0.55,0.59,0.54,0.52,0.42" style="fill:rgb(0,0,0);font-family:AdvOT1ef757c0;font-size:9.27px;stroke:none;">Figure 2 shows the morphologies of the post-treated ZnFe</text>
   <text y="533.253" x="278.362" svgx:width="0.48" style="fill:rgb(0,0,0);font-family:AdvOT1ef757c0;font-size:6.18px;stroke:none;">2</text>
   <text y="531.723" x="281.707" svgx:width="0.74" style="fill:rgb(0,0,0);font-family:AdvOT1ef757c0;font-size:9.27px;stroke:none;">O</text>
   <text y="533.253" x="288.567" svgx:width="0.48" style="fill:rgb(0,0,0);font-family:AdvOT1ef757c0;font-size:6.18px;stroke:none;">4</text>
   <text y="542.381" x="42.86,47.678,52.31,58.583,63.401,67.255,70.628,74.0,76.0394,78.407,84.096,89.016,92.9094,95.188,100.683,105.695,110.513" svgx:width="0.52,0.5,0.68,0.52,0.42,0.36,0.36,0.22,0.55,0.61,0.53,0.42,0.55,0.59,0.54,0.52,0.42" style="fill:rgb(0,0,0);font-family:AdvOT1ef757c0;font-size:9.27px;stroke:none;">powders. The ZnFe</text>
   <text y="543.912" x="114.406" svgx:width="0.48" style="fill:rgb(0,0,0);font-family:AdvOT1ef757c0;font-size:6.18px;stroke:none;">2</text>
   <text y="542.381" x="117.751" svgx:width="0.74" style="fill:rgb(0,0,0);font-family:AdvOT1ef757c0;font-size:9.27px;stroke:none;">O</text>
   <text y="543.912" x="124.611" svgx:width="0.48" style="fill:rgb(0,0,0);font-family:AdvOT1ef757c0;font-size:6.18px;stroke:none;">4</text>
   <text y="542.381" x="130.28,135.098,139.731,146.004,150.821,154.676,158.048,161.3852,163.786,168.604,171.977,175.831,180.649,184.698,188.071,191.925,196.74540000000002,199.163,205.436,207.845,210.643,215.563,220.195,225.013,227.794,230.175,234.993,238.847,243.184,245.982,249.354,251.763,256.7688,259.146,264.066,268.115,272.9354,275.304,278.676,281.085,288.609" svgx:width="0.52,0.5,0.68,0.52,0.42,0.36,0.36,0.55,0.52,0.36,0.42,0.52,0.44,0.36,0.42,0.52,0.55,0.68,0.26,0.3,0.53,0.5,0.52,0.3,0.55,0.52,0.42,0.47,0.3,0.36,0.26,0.54,0.55,0.53,0.44,0.52,0.55,0.36,0.26,0.81,0.35" style="fill:rgb(0,0,0);font-family:AdvOT1ef757c0;font-size:9.27px;stroke:none;">powders prepared without dextrin had sim-</text>
   <text y="553.039" x="42.86,45.269,47.586,51.635,54.9722,57.147,64.671,69.304,72.676,77.494,82.414,87.047,89.363,93.996,98.239,102.5032,104.657,109.29,113.144,115.84,120.473,123.846,127.7394,129.829,133.878,138.891,143.7114,145.873,149.922,152.618,155.416,159.271,162.60819999999998,164.808,169.626,174.259,177.632,180.43,183.71,186.508,189.88,193.735,197.784,200.582,208.105,211.96,216.972,219.75300000000001,221.956,226.005,228.786,230.97,235.408,239.846" svgx:width="0.26,0.25,0.44,0.36,0.55,0.81,0.5,0.36,0.52,0.53,0.5,0.25,0.5,0.46,0.46,0.55,0.5,0.42,0.29,0.5,0.36,0.42,0.55,0.44,0.54,0.52,0.55,0.44,0.29,0.3,0.42,0.36,0.55,0.52,0.5,0.36,0.3,0.35,0.3,0.36,0.42,0.44,0.3,0.81,0.42,0.54,0.3,0.55,0.44,0.3,0.55,0.48,0.48,0.48" style="fill:rgb(0,0,0);font-family:AdvOT1ef757c0;font-size:9.27px;stroke:none;">ilar morphology before and after post-treatment at 450</text>
   <text y="553.039" x="244.29" svgx:width="0.38" style="fill:rgb(0,0,0);font-family:AdvP44E6F4;font-size:9.27px;stroke:none;">u</text>
   <text y="553.039" x="247.862,253.94,255.9794,258.123,262.172,265.5092,267.704,271.077,275.997,280.629,286.902" svgx:width="0.66,0.22,0.55,0.44,0.36,0.55,0.36,0.53,0.5,0.68,0.54" style="fill:rgb(0,0,0);font-family:AdvOT1ef757c0;font-size:9.27px;stroke:none;">C, as shown</text>
   <text y="563.697" x="42.86,45.269,50.2748,53.065,57.883,60.292,64.536,69.354,72.726,76.58,79.9172,82.829,87.267,91.3458,94.111,98.16,103.173,107.99340000000001,110.836,115.274,119.323,121.3624,124.159,129.848,134.767,138.66039999999998,141.451,146.269,150.901,154.756,159.286,166.81,170.859,174.231,178.762,182.616,187.434,189.4734,192.362,195.734,200.552,205.472,209.326,212.699,215.108,218.962,223.011,225.3285,228.192,231.565,236.485,240.534,245.352,249.24540000000002,252.003,256.636,259.32430000000005,262.152,264.95,269.87,273.7634,276.552,281.37,284.742,288.597" svgx:width="0.26,0.54,0.55,0.52,0.26,0.46,0.52,0.36,0.42,0.36,0.55,0.48,0.44,0.55,0.44,0.54,0.52,0.55,0.48,0.44,0.22,0.55,0.61,0.53,0.42,0.55,0.52,0.5,0.42,0.49,0.81,0.44,0.36,0.49,0.42,0.52,0.22,0.55,0.36,0.52,0.53,0.42,0.36,0.26,0.42,0.44,0.25,0.55,0.36,0.53,0.44,0.52,0.42,0.55,0.5,0.29,0.55,0.3,0.53,0.42,0.55,0.52,0.36,0.42,0.35" style="fill:rgb(0,0,0);font-family:AdvOT1ef757c0;font-size:9.27px;stroke:none;">in Figures 1a and 2a. The pockmarked, spherical shape of the pre-</text>
   <text y="574.355" x="42.86,46.715,51.533,54.905,58.278,62.91,66.24719999999999,68.996,73.814,78.447,84.719,89.537,93.391,96.764,100.10119999999999,102.899,109.171,111.58,114.378,119.298,123.931,128.749,131.53,134.25,139.068,142.923,147.259,150.057,153.43,155.839,160.8448,163.618,169.89,173.939,177.2762,180.003,187.526,191.575,193.984,198.996,201.795,205.844,208.252,213.265,217.119,221.9394,224.734,228.588,232.831,236.686,241.6918,244.407,248.456,251.152,253.95,257.804,261.14119999999997,263.909,268.727,272.581,276.436,281.069,288.592" svgx:width="0.42,0.52,0.36,0.36,0.5,0.36,0.55,0.52,0.5,0.68,0.52,0.42,0.36,0.36,0.55,0.68,0.26,0.3,0.53,0.5,0.52,0.3,0.55,0.52,0.42,0.47,0.3,0.36,0.26,0.54,0.55,0.68,0.44,0.36,0.55,0.81,0.44,0.26,0.54,0.3,0.44,0.26,0.54,0.42,0.52,0.55,0.42,0.46,0.42,0.54,0.55,0.44,0.29,0.3,0.42,0.36,0.55,0.52,0.42,0.42,0.5,0.81,0.35" style="fill:rgb(0,0,0);font-family:AdvOT1ef757c0;font-size:9.27px;stroke:none;">cursor powders without dextrin was maintained even after decom-</text>
   <text y="585.012" x="42.86,47.678,52.311,55.684,58.093,60.891,63.3,67.932,72.9378,75.289,79.922,82.6103,84.927,87.725,92.645,96.5384,98.873,102.727,105.136,110.149,114.0424,116.334,120.383,125.396,130.2164,132.548,134.957,138.33,142.963,147.9688,150.35,153.722,157.771,160.088,162.886,166.2232,168.605,171.403,176.03799999999998,178.356,181.052,185.685,189.058,196.5667,198.936,201.734,206.654,210.54739999999998,212.826,218.32,223.333,228.151" svgx:width="0.52,0.5,0.36,0.26,0.3,0.26,0.5,0.54,0.55,0.5,0.29,0.55,0.3,0.53,0.42,0.55,0.42,0.26,0.54,0.42,0.55,0.44,0.54,0.52,0.55,0.26,0.36,0.5,0.54,0.55,0.36,0.44,0.25,0.3,0.36,0.55,0.3,0.5,0.55,0.29,0.5,0.36,0.81,0.55,0.3,0.53,0.42,0.55,0.59,0.54,0.52,0.42" style="fill:rgb(0,0,0);font-family:AdvOT1ef757c0;font-size:9.27px;stroke:none;">position of the zinc and iron salts to form the ZnFe</text>
   <text y="586.545" x="232.044" svgx:width="0.48" style="fill:rgb(0,0,0);font-family:AdvOT1ef757c0;font-size:6.18px;stroke:none;">2</text>
   <text y="585.014" x="235.389" svgx:width="0.74" style="fill:rgb(0,0,0);font-family:AdvOT1ef757c0;font-size:9.27px;stroke:none;">O</text>
   <text y="586.545" x="242.249" svgx:width="0.48" style="fill:rgb(0,0,0);font-family:AdvOT1ef757c0;font-size:6.18px;stroke:none;">4</text>
   <text y="585.014" x="247.861,252.679,257.312,263.585,268.403,272.257,275.63,277.6694,280.006,286.853" svgx:width="0.52,0.5,0.68,0.52,0.42,0.36,0.22,0.55,0.74,0.54" style="fill:rgb(0,0,0);font-family:AdvOT1ef757c0;font-size:9.27px;stroke:none;">powder. On</text>
   <text y="595.672" x="42.86,45.658,50.578,54.4714,56.864,61.496,64.294,69.214,73.069,76.4062,78.86,83.78,87.829,92.842,97.66,99.6994,102.162,104.96,109.88,113.7734,116.165,123.689,128.321,131.694,136.512,141.432,146.064,148.381,153.013,157.257,161.5212,163.959,168.591,171.2793,173.709,176.507,181.427,185.3204,187.713,192.531,197.164,203.436,208.254,212.108,215.481,218.8182,221.332,226.15,229.523,233.377,238.195,242.244,245.616,249.471,254.2914,256.765,263.038,265.447,268.245,273.1581,275.588,280.406,284.26,288.596" svgx:width="0.3,0.53,0.42,0.55,0.5,0.3,0.53,0.42,0.36,0.55,0.53,0.44,0.54,0.52,0.22,0.55,0.3,0.53,0.42,0.55,0.81,0.5,0.36,0.52,0.53,0.5,0.25,0.5,0.46,0.46,0.55,0.5,0.29,0.55,0.3,0.53,0.42,0.55,0.52,0.5,0.68,0.52,0.42,0.36,0.36,0.55,0.52,0.36,0.42,0.52,0.44,0.36,0.42,0.52,0.55,0.68,0.26,0.3,0.53,0.55,0.52,0.42,0.47,0.35" style="fill:rgb(0,0,0);font-family:AdvOT1ef757c0;font-size:9.27px;stroke:none;">the other hand, the morphology of the powders prepared with dex-</text>
   <text y="606.33" x="42.86,45.658,49.031,51.44,56.4458,58.507,62.362,67.282,71.331,76.343,80.587,84.441,89.26140000000001,91.39,95.439,98.135,100.933,104.788,108.12519999999999,110.212,115.03,119.663,123.036,125.834,129.114,131.912,135.284,139.139,143.188,145.986,153.509,157.364,162.484,165.26500000000001,167.303,171.352,174.133,176.261,179.059,182.914,190.437,195.255,199.109,202.482,206.531,209.329,214.147,217.519,221.374,224.7112,226.889,230.937,235.57,240.203,244.446,248.3394,250.359,254.797,259.236" svgx:width="0.3,0.36,0.26,0.54,0.55,0.42,0.53,0.44,0.54,0.46,0.42,0.52,0.55,0.44,0.29,0.3,0.42,0.36,0.55,0.52,0.5,0.36,0.3,0.35,0.3,0.36,0.42,0.44,0.3,0.81,0.42,0.54,0.3,0.55,0.44,0.3,0.55,0.3,0.42,0.81,0.52,0.42,0.36,0.44,0.3,0.52,0.36,0.42,0.36,0.55,0.44,0.5,0.5,0.46,0.42,0.55,0.48,0.48,0.48" style="fill:rgb(0,0,0);font-family:AdvOT1ef757c0;font-size:9.27px;stroke:none;">trin changed after post-treatment at temperatures above 350</text>
   <text y="606.33" x="263.678" svgx:width="0.38" style="fill:rgb(0,0,0);font-family:AdvP44E6F4;font-size:9.27px;stroke:none;">u</text>
   <text y="606.33" x="267.25,273.328,275.3674,277.398,283.087,288.007" svgx:width="0.66,0.22,0.55,0.61,0.53,0.42" style="fill:rgb(0,0,0);font-family:AdvOT1ef757c0;font-size:9.27px;stroke:none;">C. The</text>
   <text y="616.988" x="42.86,45.556,47.965,50.282,52.598,56.452,61.2724,64.064,67.436,70.234,73.607,78.425,82.279,85.077,89.895,93.268,97.1614,99.951,104.584,107.2723,110.043,112.841,117.761,121.6544,124.386,129.204,132.577,136.431,140.286,145.104,148.476,151.849,156.481,159.8182,162.655,167.473,172.106,178.378,183.196,187.05,190.423,193.7602,196.614,200.469,205.388,209.437,214.45,218.693,222.548,227.3684,230.177,232.586,237.598,240.396,245.03099999999998,247.809,251.8878,254.669,258.912,263.545,265.861,270.392,275.117,278.49,283.41,287.264,289.58" svgx:width="0.29,0.26,0.25,0.25,0.42,0.52,0.55,0.36,0.3,0.36,0.52,0.42,0.3,0.52,0.36,0.42,0.55,0.5,0.29,0.55,0.3,0.53,0.42,0.55,0.52,0.36,0.42,0.42,0.52,0.36,0.36,0.5,0.36,0.55,0.52,0.5,0.68,0.52,0.42,0.36,0.36,0.55,0.42,0.53,0.44,0.54,0.46,0.42,0.52,0.55,0.26,0.54,0.3,0.5,0.55,0.44,0.55,0.46,0.5,0.25,0.49,0.51,0.36,0.53,0.42,0.25,0.25" style="fill:rgb(0,0,0);font-family:AdvOT1ef757c0;font-size:9.27px;stroke:none;">filled structure of the precursor powders changed into a yolk–shell</text>
   <text y="627.646" x="42.86,46.233,49.031,52.403,57.221,61.076,63.874,68.692,72.064,75.95739999999999,78.804,85.077,87.486,90.284,95.1971,98.023,102.1018,104.94,108.794,113.427,116.799,120.653,123.637,127.88,132.513,134.922,139.74,142.723,146.096,151.016,154.87,157.187,159.5045,162.37,166.225,170.858,175.87,178.566,180.975,185.219,190.037,193.409,197.458,200.256,202.665,207.298,212.3038,215.209,219.258,221.954,224.752,228.606,231.9432,234.882,239.7,244.332,247.705,250.503,253.783,256.581,259.954,263.808,267.857,270.655,278.178,282.033,287.045,289.843" svgx:width="0.36,0.3,0.36,0.52,0.42,0.3,0.52,0.36,0.42,0.55,0.68,0.26,0.3,0.53,0.55,0.44,0.55,0.42,0.5,0.36,0.42,0.32,0.46,0.5,0.26,0.52,0.32,0.36,0.53,0.42,0.25,0.25,0.55,0.42,0.5,0.54,0.29,0.26,0.46,0.52,0.36,0.44,0.3,0.26,0.5,0.54,0.55,0.44,0.29,0.3,0.42,0.36,0.55,0.52,0.5,0.36,0.3,0.35,0.3,0.36,0.42,0.44,0.3,0.81,0.42,0.54,0.3,0.22" style="fill:rgb(0,0,0);font-family:AdvOT1ef757c0;font-size:9.27px;stroke:none;">structure with a core/void/shell configuration after post-treatment,</text>
   <text y="638.303" x="42.86,46.909,50.2462,53.235,56.608,61.528,66.161,72.433,77.4388,80.449,82.858,87.8638,90.823,93.621,98.541,102.4344,105.394,109.73,114.937,123.0946,126.143,130.192,135.205,140.02540000000002,142.981,148.67,153.877,162.0346,165.092,167.501,175.024,179.073,183.317,187.171,190.5082,193.552,195.961,200.9668,203.926,208.744,211.153,215.397,220.215,223.587,227.442,230.7792,233.861,238.299,242.931,247.657,250.353,252.3924,255.348,261.037,265.957,269.8504,272.809,278.498,283.705" svgx:width="0.44,0.36,0.55,0.36,0.53,0.5,0.68,0.54,0.55,0.26,0.54,0.55,0.3,0.53,0.42,0.55,0.47,0.56,0.88,0.55,0.44,0.54,0.52,0.55,0.61,0.56,0.88,0.55,0.26,0.81,0.44,0.46,0.42,0.36,0.55,0.26,0.54,0.55,0.52,0.26,0.46,0.52,0.36,0.42,0.36,0.55,0.48,0.5,0.51,0.29,0.22,0.55,0.61,0.53,0.42,0.55,0.61,0.56,0.88" style="fill:rgb(0,0,0);font-family:AdvOT1ef757c0;font-size:9.27px;stroke:none;">as shown in the SEM and TEM images in Figures 2b–f. The TEM</text>
   <text y="648.961" x="42.86,45.269,52.793,56.841,61.085,64.939,68.27619999999999,70.243,74.875,77.5633,79.484,82.282,87.202,91.0954,92.977,98.471,103.484,108.302" svgx:width="0.26,0.81,0.44,0.46,0.42,0.36,0.55,0.5,0.29,0.55,0.3,0.53,0.42,0.55,0.59,0.54,0.52,0.42" style="fill:rgb(0,0,0);font-family:AdvOT1ef757c0;font-size:9.27px;stroke:none;">images of the ZnFe</text>
   <text y="650.494" x="112.195" svgx:width="0.48" style="fill:rgb(0,0,0);font-family:AdvOT1ef757c0;font-size:6.18px;stroke:none;">2</text>
   <text y="648.964" x="115.54" svgx:width="0.74" style="fill:rgb(0,0,0);font-family:AdvOT1ef757c0;font-size:9.27px;stroke:none;">O</text>
   <text y="650.494" x="122.4" svgx:width="0.48" style="fill:rgb(0,0,0);font-family:AdvOT1ef757c0;font-size:6.18px;stroke:none;">4</text>
   <text y="648.964" x="127.616,132.434,137.066,143.339,148.157,152.011,155.384,158.72119999999998,160.725,165.543,170.176,173.548,176.347,179.626,182.425,185.797,189.652,193.701,196.499,200.353,205.17340000000002,207.157,211.206,213.987,215.888,220.326,224.764" svgx:width="0.52,0.5,0.68,0.52,0.42,0.36,0.36,0.55,0.52,0.5,0.36,0.3,0.35,0.3,0.36,0.42,0.44,0.3,0.42,0.52,0.55,0.44,0.3,0.55,0.48,0.48,0.48" style="fill:rgb(0,0,0);font-family:AdvOT1ef757c0;font-size:9.27px;stroke:none;">powders post-treated at 450</text>
   <text y="648.964" x="229.209" svgx:width="0.38" style="fill:rgb(0,0,0);font-family:AdvP44E6F4;font-size:9.27px;stroke:none;">u</text>
   <text y="648.964" x="232.781,238.8992,240.775,244.629,246.945,250.8,254.849,258.221,260.538,264.8022,266.741,270.113,275.033,279.666,287.83" svgx:width="0.66,0.55,0.42,0.25,0.42,0.44,0.36,0.25,0.46,0.55,0.36,0.53,0.5,0.68,0.44" style="fill:rgb(0,0,0);font-family:AdvOT1ef757c0;font-size:9.27px;stroke:none;">C clearly showa</text>
   <text y="659.621" x="42.86,50.383,52.792,57.804,60.213,67.737,72.555,80.06370000000001,83.849,88.482,91.1703,94.961,97.759,104.032,108.667,112.422,115.795,120.715,124.569,126.886,129.202,132.5392,136.404,138.813,143.81879999999998,147.572,151.427,155.476,159.33,164.24310000000003,168.038,172.856,176.905,180.278,183.076,185.485,189.339,191.656,195.51,197.5494,201.374,207.063,211.983,215.8764,219.629,223.484,225.8,229.654,237.178,241.032,246.045,248.843,252.892,255.2095,258.975,266.498,270.547,275.365,280.183,282.592,287.604" svgx:width="0.81,0.26,0.54,0.26,0.81,0.52,0.81,0.55,0.5,0.29,0.55,0.3,0.68,0.5,0.55,0.36,0.53,0.42,0.25,0.25,0.36,0.55,0.26,0.54,0.55,0.42,0.44,0.42,0.53,0.55,0.52,0.44,0.36,0.3,0.26,0.42,0.25,0.42,0.22,0.55,0.61,0.53,0.42,0.55,0.42,0.25,0.42,0.81,0.42,0.54,0.3,0.44,0.25,0.55,0.81,0.44,0.52,0.52,0.26,0.54,0.46" style="fill:rgb(0,0,0);font-family:AdvOT1ef757c0;font-size:9.27px;stroke:none;">minimum of two shells in each particle. The elemental mapping</text>
   <text y="670.279" x="42.86,45.268,52.792,56.841,61.084,64.939,68.27619999999999,71.943,76.576,79.26429999999999,82.942,85.74,90.66,94.5534,98.193,103.687,108.7,113.518" svgx:width="0.26,0.81,0.44,0.46,0.42,0.36,0.55,0.5,0.29,0.55,0.3,0.53,0.42,0.55,0.59,0.54,0.52,0.42" style="fill:rgb(0,0,0);font-family:AdvOT1ef757c0;font-size:9.27px;stroke:none;">images of the ZnFe</text>
   <text y="671.811" x="117.411" svgx:width="0.48" style="fill:rgb(0,0,0);font-family:AdvOT1ef757c0;font-size:6.18px;stroke:none;">2</text>
   <text y="670.28" x="120.699" svgx:width="0.74" style="fill:rgb(0,0,0);font-family:AdvOT1ef757c0;font-size:9.27px;stroke:none;">O</text>
   <text y="671.811" x="127.559" svgx:width="0.48" style="fill:rgb(0,0,0);font-family:AdvOT1ef757c0;font-size:6.18px;stroke:none;">4</text>
   <text y="670.28" x="134.532,138.776,143.408,145.725,150.255,154.981,158.353,163.273,167.128,169.444,171.76149999999998,175.465,180.283,184.916,191.189,196.007,199.861,203.234,206.5712,210.275,215.093,219.726,223.098,225.896,229.176,231.974,235.347,239.201,243.25,246.048,249.903,254.7234,258.408,262.457,265.238,268.953,273.391,277.829" svgx:width="0.46,0.5,0.25,0.49,0.51,0.36,0.53,0.42,0.25,0.25,0.55,0.52,0.5,0.68,0.52,0.42,0.36,0.36,0.55,0.52,0.5,0.36,0.3,0.35,0.3,0.36,0.42,0.44,0.3,0.42,0.52,0.55,0.44,0.3,0.55,0.48,0.48,0.48" style="fill:rgb(0,0,0);font-family:AdvOT1ef757c0;font-size:9.27px;stroke:none;">yolk–shell powders post-treated at 450</text>
   <text y="670.28" x="282.274" svgx:width="0.38" style="fill:rgb(0,0,0);font-family:AdvP44E6F4;font-size:9.27px;stroke:none;">u</text>
   <text y="670.28" x="285.846" svgx:width="0.66" style="fill:rgb(0,0,0);font-family:AdvOT1ef757c0;font-size:9.27px;stroke:none;">C</text>
   <text y="680.938" x="42.86,46.038,50.856,53.265,57.509,62.327,65.699,69.5924,71.548,75.986,80.229,83.3808,85.381,88.753,93.673,98.306,104.6096,106.528,109.326,114.246,118.1394,120.077,124.895,129.908,132.317,135.013,139.646,143.018,152.562,157.38,159.789,163.162,165.96,169.333,171.742,176.374,181.192,183.99,186.399,191.032,196.0378,198.031,202.664,205.35229999999999,207.329,212.823,217.8288,219.858,223.907,228.92,233.7404,235.676,240.494,244.3874,246.335,250.189,254.822,262.345,267.163,271.796,276.808,280.663,285.675,288.473" svgx:width="0.34,0.52,0.26,0.46,0.52,0.36,0.42,0.55,0.48,0.46,0.34,0.55,0.36,0.53,0.5,0.68,0.55,0.3,0.53,0.42,0.55,0.52,0.54,0.26,0.29,0.5,0.36,0.81,0.52,0.26,0.36,0.3,0.36,0.26,0.5,0.52,0.3,0.26,0.5,0.54,0.55,0.5,0.29,0.55,0.59,0.54,0.55,0.44,0.54,0.52,0.55,0.52,0.42,0.55,0.42,0.5,0.81,0.52,0.5,0.54,0.42,0.54,0.3,0.36" style="fill:rgb(0,0,0);font-family:AdvOT1ef757c0;font-size:9.27px;stroke:none;">(Figure 2g) show the uniformdistribution of Zn and Fe components</text>
   <text y="691.596" x="42.86,46.909,49.226,51.5435,53.745,58.378,62.621,66.476,69.8132,72.114,74.912,79.832,83.7254,85.89,90.708,95.341,101.613,106.431,110.286,113.658,115.6974,117.922,123.611,128.531,132.4244,134.647,140.049,145.256,150.9107,153.186,156.559,161.377,164.749,167.445,171.494,175.349,179.24239999999998,181.476,185.525,188.897,192.752,196.801,200.13819999999998,202.396,207.029,209.7173,211.977,214.775,219.695,223.58839999999998,225.754,231.248,236.261,241.079" svgx:width="0.44,0.25,0.25,0.55,0.5,0.46,0.42,0.36,0.55,0.3,0.53,0.42,0.55,0.52,0.5,0.68,0.52,0.42,0.36,0.22,0.55,0.61,0.53,0.42,0.55,0.58,0.56,0.61,0.55,0.36,0.52,0.36,0.29,0.44,0.42,0.42,0.55,0.44,0.36,0.42,0.44,0.36,0.55,0.5,0.29,0.55,0.3,0.53,0.42,0.55,0.59,0.54,0.52,0.42" style="fill:rgb(0,0,0);font-family:AdvOT1ef757c0;font-size:9.27px;stroke:none;">all over the powder. The BET surface areas of the ZnFe</text>
   <text y="693.127" x="244.97" svgx:width="0.48" style="fill:rgb(0,0,0);font-family:AdvOT1ef757c0;font-size:6.18px;stroke:none;">2</text>
   <text y="691.597" x="248.315" svgx:width="0.74" style="fill:rgb(0,0,0);font-family:AdvOT1ef757c0;font-size:9.27px;stroke:none;">O</text>
   <text y="693.127" x="255.175" svgx:width="0.48" style="fill:rgb(0,0,0);font-family:AdvOT1ef757c0;font-size:6.18px;stroke:none;">4</text>
   <text y="691.597" x="260.731,265.549,270.181,276.454,281.272,285.126,288.499" svgx:width="0.52,0.5,0.68,0.52,0.42,0.36,0.36" style="fill:rgb(0,0,0);font-family:AdvOT1ef757c0;font-size:9.27px;stroke:none;">powders</text>
   <text y="702.255" x="42.86,49.133,51.542,54.34,59.2531,61.568,65.812,70.445,72.761,77.292,80.572,83.944,88.864,92.718,95.035,97.35249999999999,99.723,103.772,108.784,113.60440000000001,115.937,118.633,121.042,123.359,125.675,129.529,134.3494,136.743,140.116,142.914,146.287,151.105,154.959,157.757,162.575,165.948,169.802,173.1392,175.522,180.339,184.972,188.345,191.143,194.423,197.221,200.593,204.448,208.497,211.295,215.149,219.9694,222.35,226.399,229.18,231.535,235.973,240.411" svgx:width="0.68,0.26,0.3,0.53,0.55,0.46,0.5,0.25,0.49,0.35,0.36,0.53,0.42,0.25,0.25,0.55,0.44,0.54,0.52,0.55,0.29,0.26,0.25,0.25,0.42,0.52,0.55,0.36,0.3,0.36,0.52,0.42,0.3,0.52,0.36,0.42,0.36,0.55,0.52,0.5,0.36,0.3,0.35,0.3,0.36,0.42,0.44,0.3,0.42,0.52,0.55,0.44,0.3,0.55,0.48,0.48,0.48" style="fill:rgb(0,0,0);font-family:AdvOT1ef757c0;font-size:9.27px;stroke:none;">with yolk-shell and filled structures post-treated at 450</text>
   <text y="702.255" x="244.856" svgx:width="0.38" style="fill:rgb(0,0,0);font-family:AdvP44E6F4;font-size:9.27px;stroke:none;">u</text>
   <text y="702.255" x="248.428,254.5462,256.875,263.148,267.002,270.375,274.2684,276.548,280.987,285.425,287.444" svgx:width="0.66,0.55,0.68,0.42,0.36,0.42,0.55,0.48,0.48,0.22,0.48" style="fill:rgb(0,0,0);font-family:AdvOT1ef757c0;font-size:9.27px;stroke:none;">C were 21.7</text>
   <text y="712.912" x="42.86,46.909,51.921,56.7414,59.131,63.569,65.589,70.0386,73.134" svgx:width="0.44,0.54,0.52,0.55,0.48,0.22,0.48,0.55,0.81" style="fill:rgb(0,0,0);font-family:AdvOT1ef757c0;font-size:9.27px;stroke:none;">and 3.3 m</text>
   <text y="709.512" x="80.674" svgx:width="0.48" style="fill:rgb(0,0,0);font-family:AdvOT1ef757c0;font-size:5.13px;stroke:none;">2</text>
   <text y="712.913" x="85.833" svgx:width="0.46" style="fill:rgb(0,0,0);font-family:AdvOT1ef757c0;font-size:9.27px;stroke:none;">g</text>
   <text y="709.512" x="90.085" svgx:width="0.83" style="fill:rgb(0,0,0);font-family:AdvP414BFB;font-size:5.13px;stroke:none;">2</text>
   <text y="709.512" x="94.847" svgx:width="0.48" style="fill:rgb(0,0,0);font-family:AdvOT1ef757c0;font-size:5.13px;stroke:none;">1</text>
   <text y="712.913" x="97.625,99.6644,102.048,105.42,109.274,112.647,117.465,121.319,125.174,127.972,130.381,134.624,138.479,140.795,145.039" svgx:width="0.22,0.55,0.36,0.42,0.36,0.52,0.42,0.42,0.3,0.26,0.46,0.42,0.25,0.46,0.22" style="fill:rgb(0,0,0);font-family:AdvOT1ef757c0;font-size:9.27px;stroke:none;">, respectively.</text>
   <text y="723.798" x="52.101,56.919,59.328,63.572,68.389,71.762,75.6554,78.86,83.196,87.6456,90.823,94.195,99.115,103.748,110.02,113.35719999999999,116.562,119.36,124.28,128.17340000000002,131.302,137.278,142.967,149.7341,152.958,157.776,161.825,164.624,167.422,171.276,174.649,179.661,182.9982,186.238,190.87,193.5583,196.726,199.524,204.444,208.3374,211.523,216.341,220.973,224.346,227.144,230.424,233.222,236.595,240.449,244.498,247.296,251.15,255.9704,259.202,264.696,269.709,274.527" svgx:width="0.52,0.26,0.46,0.52,0.36,0.42,0.55,0.47,0.48,0.55,0.36,0.53,0.5,0.68,0.36,0.55,0.3,0.53,0.42,0.55,0.64,0.61,0.73,0.55,0.52,0.44,0.3,0.3,0.42,0.36,0.54,0.36,0.55,0.5,0.29,0.55,0.3,0.53,0.42,0.55,0.52,0.5,0.36,0.3,0.35,0.3,0.36,0.42,0.44,0.3,0.42,0.52,0.55,0.59,0.54,0.52,0.42" style="fill:rgb(0,0,0);font-family:AdvOT1ef757c0;font-size:9.27px;stroke:none;">Figure S2 shows the XRD patterns of the post-treated ZnFe</text>
   <text y="725.329" x="278.362" svgx:width="0.48" style="fill:rgb(0,0,0);font-family:AdvOT1ef757c0;font-size:6.18px;stroke:none;">2</text>
   <text y="723.798" x="281.707" svgx:width="0.74" style="fill:rgb(0,0,0);font-family:AdvOT1ef757c0;font-size:9.27px;stroke:none;">O</text>
   <text y="725.329" x="288.567" svgx:width="0.48" style="fill:rgb(0,0,0);font-family:AdvOT1ef757c0;font-size:6.18px;stroke:none;">4</text>
   <text y="734.456" x="42.86,47.678,52.31,58.583,63.401,67.255,70.628,74.0,76.0394,78.351,84.039,88.959,92.8524,95.132,99.95,104.582,107.955,110.753,114.033,116.831,120.204,124.058,128.107,130.905,134.76,139.5804,141.961,146.778,151.411,157.684,162.502,166.356,169.729,173.0662,175.41,180.33,184.379,189.1994,191.568,195.6468,197.917,202.735,207.553,210.926,214.81939999999997,217.136,222.631,227.643,232.461" svgx:width="0.52,0.5,0.68,0.52,0.42,0.36,0.36,0.22,0.55,0.61,0.53,0.42,0.55,0.52,0.5,0.36,0.3,0.35,0.3,0.36,0.42,0.44,0.3,0.42,0.52,0.55,0.52,0.5,0.68,0.52,0.42,0.36,0.36,0.55,0.53,0.44,0.52,0.55,0.44,0.55,0.52,0.52,0.36,0.42,0.55,0.59,0.54,0.52,0.42" style="fill:rgb(0,0,0);font-family:AdvOT1ef757c0;font-size:9.27px;stroke:none;">powders. The post-treated powders had a pure ZnFe</text>
   <text y="735.987" x="236.296" svgx:width="0.48" style="fill:rgb(0,0,0);font-family:AdvOT1ef757c0;font-size:6.18px;stroke:none;">2</text>
   <text y="734.456" x="239.641" svgx:width="0.74" style="fill:rgb(0,0,0);font-family:AdvOT1ef757c0;font-size:9.27px;stroke:none;">O</text>
   <text y="735.987" x="246.501" svgx:width="0.48" style="fill:rgb(0,0,0);font-family:AdvOT1ef757c0;font-size:6.18px;stroke:none;">4</text>
   <text y="734.456" x="252.17,256.988,261.908,265.957,269.329,273.2224,275.471,281.744,284.153,286.951" svgx:width="0.52,0.53,0.44,0.36,0.42,0.55,0.68,0.26,0.3,0.53" style="fill:rgb(0,0,0);font-family:AdvOT1ef757c0;font-size:9.27px;stroke:none;">phase with</text>
   <text y="745.114" x="42.86,47.873,52.507999999999996,54.369,56.778,64.301,69.119,73.937,77.31,79.719,82.517,86.7812,88.669,93.487,98.407,102.456,105.828,109.683,113.0202,114.975,117.384,120.757,124.129,127.983,131.356,136.174,140.028,143.883,146.681,149.09,153.333,157.2264,159.139,163.772,166.4603,168.324,173.142,176.996,181.332,184.13,187.503,189.912,194.9178,196.84,200.889,205.707,210.525,212.934,215.732,218.141,222.385,226.239,228.2784,230.176,235.383,240.303,244.352,247.725,251.6184,253.477,256.85,260.704,265.522,269.571,272.944,276.993,279.791,282.2,286.832" svgx:width="0.54,0.5,0.55,0.26,0.81,0.52,0.52,0.36,0.26,0.3,0.46,0.55,0.52,0.53,0.44,0.36,0.42,0.36,0.55,0.26,0.36,0.36,0.42,0.36,0.52,0.42,0.42,0.3,0.26,0.46,0.42,0.55,0.5,0.29,0.55,0.52,0.42,0.47,0.3,0.36,0.26,0.54,0.55,0.44,0.52,0.52,0.26,0.3,0.26,0.46,0.42,0.22,0.55,0.56,0.53,0.44,0.36,0.42,0.55,0.36,0.42,0.52,0.44,0.36,0.44,0.3,0.26,0.5,0.54" style="fill:rgb(0,0,0);font-family:AdvOT1ef757c0;font-size:9.27px;stroke:none;">no impurity phases irrespective of dextrin additive. Phase separation</text>
   <text y="555.591" x="303.874,308.507,311.19530000000003,313.059,316.913,320.962,324.816,329.72909999999996,331.598,339.121,342.976,345.774,349.823,352.1405,354.048,357.903,362.536,370.059,374.877,379.51,384.522,388.376,393.389,396.17,398.099,401.954,406.586,411.404,413.721,418.5414,420.38,425.3,429.349,433.592,437.48539999999997,439.315,443.948,447.802,451.657,456.475,459.847,463.22,467.074,471.8944,473.841,478.659,483.477,486.85,489.259,494.271,498.53520000000003,500.374,503.173,508.092,511.98539999999997,513.811,518.629,523.262,526.634,529.432,532.712,535.51,538.883,542.737,546.786,549.584" svgx:width="0.5,0.29,0.55,0.42,0.44,0.42,0.53,0.55,0.81,0.42,0.3,0.44,0.25,0.55,0.42,0.5,0.81,0.52,0.5,0.54,0.42,0.54,0.3,0.55,0.42,0.5,0.52,0.25,0.52,0.55,0.53,0.44,0.46,0.42,0.55,0.5,0.42,0.42,0.52,0.36,0.36,0.42,0.52,0.55,0.52,0.52,0.36,0.26,0.54,0.46,0.55,0.3,0.53,0.42,0.55,0.52,0.5,0.36,0.3,0.35,0.3,0.36,0.42,0.44,0.3,0.35" style="fill:rgb(0,0,0);font-family:AdvOT1ef757c0;font-size:9.27px;stroke:none;">of each metal component could have occurred during the post-treat-</text>
   <text y="566.136" x="303.874,311.398,315.252,320.264,323.045,325.305,330.123,333.495,338.128,341.982,345.837,349.209,352.5462,354.899,357.595,362.228,365.5652,367.825,370.623,375.543,379.4364,381.658,385.902,390.534,392.851,397.381,402.107,405.479,410.399,414.253,416.57,418.8875,421.174,425.992,430.624,436.897,441.715,445.569,448.942,452.2792,454.567,459.199,462.5362,464.828,469.646,474.464,477.837,480.246,485.258,489.5222,491.814,494.612,499.532,503.42539999999997,505.647,509.02,513.838,517.21,521.259,525.503,528.783,533.601,536.973,541.217,543.626,548.638" svgx:width="0.81,0.42,0.54,0.3,0.55,0.52,0.36,0.5,0.42,0.42,0.36,0.36,0.55,0.29,0.5,0.36,0.55,0.3,0.53,0.42,0.55,0.46,0.5,0.25,0.49,0.51,0.36,0.53,0.42,0.25,0.25,0.55,0.52,0.5,0.68,0.52,0.42,0.36,0.36,0.55,0.5,0.36,0.55,0.52,0.52,0.36,0.26,0.54,0.46,0.55,0.3,0.53,0.42,0.55,0.36,0.52,0.36,0.44,0.46,0.35,0.52,0.36,0.46,0.26,0.54,0.46" style="fill:rgb(0,0,0);font-family:AdvOT1ef757c0;font-size:9.27px;stroke:none;">ment process for the yolk–shell powders or during the spray-drying</text>
   <text y="576.68" x="303.874,308.692,312.065,316.697,320.552,324.406,327.779,331.1162,333.072,335.768,340.401,343.7382,345.658,348.456,353.376,357.26939999999996,359.151,363.969,367.341,371.196,375.05,379.868,383.241,386.613,391.246,394.5832,396.569,401.387,406.019,412.292,417.11,420.964,424.337,427.709,429.7484,431.662,438.704,443.336,449.609,453.463,457.707,461.561,464.934,466.9734,468.853,473.671,478.591,482.64,486.012,489.9054,491.814,495.187,499.041,503.859,507.908,511.281,515.33,518.128,520.537,525.169,530.1748,532.124,536.756,539.4443,541.365,544.163,549.083" svgx:width="0.52,0.36,0.5,0.42,0.42,0.36,0.36,0.55,0.29,0.5,0.36,0.55,0.3,0.53,0.42,0.55,0.52,0.36,0.42,0.42,0.52,0.36,0.36,0.5,0.36,0.55,0.52,0.5,0.68,0.52,0.42,0.36,0.36,0.22,0.55,0.76,0.5,0.68,0.42,0.46,0.42,0.36,0.22,0.55,0.52,0.53,0.44,0.36,0.42,0.55,0.36,0.42,0.52,0.44,0.36,0.44,0.3,0.26,0.5,0.54,0.55,0.5,0.29,0.55,0.3,0.53,0.42" style="fill:rgb(0,0,0);font-family:AdvOT1ef757c0;font-size:9.27px;stroke:none;">process for the precursor powders. However, phase separation of the</text>
   <text y="587.225" x="303.874,307.728,310.137,315.15,319.04339999999996,320.542,324.591,329.604,334.4244,336.02,338.429,341.802,346.434,351.43980000000005,353.028,356.883,361.515,369.039,373.857,378.489,383.502,387.356,392.369,395.167,398.50419999999997,400.084,404.902,407.311,412.1314,413.748,418.76,423.393,426.174,427.695,432.327,436.182,440.036,444.854,448.1912,449.805,452.214,457.2198,458.82,461.618,466.538,470.4314,471.916,476.734,480.107,483.961,488.779,492.828,496.2,500.249,503.048,505.456,510.089,515.0948,516.705,521.523,524.895,529.528,533.382,537.236,540.609,543.9462000000001,545.619,550.251" svgx:width="0.42,0.26,0.54,0.42,0.55,0.44,0.54,0.52,0.55,0.26,0.36,0.5,0.54,0.55,0.42,0.5,0.81,0.52,0.5,0.54,0.42,0.54,0.3,0.36,0.55,0.52,0.26,0.52,0.55,0.54,0.5,0.3,0.55,0.5,0.42,0.42,0.52,0.36,0.55,0.26,0.54,0.55,0.3,0.53,0.42,0.55,0.52,0.36,0.42,0.52,0.44,0.36,0.44,0.3,0.26,0.5,0.54,0.55,0.52,0.36,0.5,0.42,0.42,0.36,0.36,0.55,0.5,0.29" style="fill:rgb(0,0,0);font-family:AdvOT1ef757c0;font-size:9.27px;stroke:none;">zinc and iron components did not occur in the preparation process of</text>
   <text y="597.77" x="303.874,306.672,311.592,315.48539999999997,319.125,324.619,329.632,334.45" svgx:width="0.3,0.53,0.42,0.55,0.59,0.54,0.52,0.42" style="fill:rgb(0,0,0);font-family:AdvOT1ef757c0;font-size:9.27px;stroke:none;">the ZnFe</text>
   <text y="599.301" x="338.343" svgx:width="0.48" style="fill:rgb(0,0,0);font-family:AdvOT1ef757c0;font-size:6.18px;stroke:none;">2</text>
   <text y="597.77" x="341.631" svgx:width="0.74" style="fill:rgb(0,0,0);font-family:AdvOT1ef757c0;font-size:9.27px;stroke:none;">O</text>
   <text y="599.301" x="348.491" svgx:width="0.48" style="fill:rgb(0,0,0);font-family:AdvOT1ef757c0;font-size:6.18px;stroke:none;">4</text>
   <text y="597.77" x="355.521,360.339,364.972,371.244,376.062,379.917,383.289,386.662,388.7014,392.372,398.061,402.981,406.835,410.208,414.062,416.758,421.391,424.763,428.618,430.6574,434.382,439.2,444.12,448.169,451.541,455.395,458.675,463.493,468.311,471.684,475.5774,479.283,484.778,489.79,494.608" svgx:width="0.52,0.5,0.68,0.52,0.42,0.36,0.36,0.22,0.55,0.61,0.53,0.42,0.36,0.42,0.29,0.5,0.36,0.42,0.22,0.55,0.52,0.53,0.44,0.36,0.42,0.35,0.52,0.52,0.36,0.42,0.55,0.59,0.54,0.52,0.42" style="fill:rgb(0,0,0);font-family:AdvOT1ef757c0;font-size:9.27px;stroke:none;">powders. Therefore, phase-pure ZnFe</text>
   <text y="599.301" x="498.444" svgx:width="0.48" style="fill:rgb(0,0,0);font-family:AdvOT1ef757c0;font-size:6.18px;stroke:none;">2</text>
   <text y="597.77" x="501.789" svgx:width="0.74" style="fill:rgb(0,0,0);font-family:AdvOT1ef757c0;font-size:9.27px;stroke:none;">O</text>
   <text y="599.301" x="508.649" svgx:width="0.48" style="fill:rgb(0,0,0);font-family:AdvOT1ef757c0;font-size:6.18px;stroke:none;">4</text>
   <text y="597.77" x="515.679,519.922,524.555,526.871,531.402,536.127,539.5,544.42,548.274,550.59" svgx:width="0.46,0.5,0.25,0.49,0.51,0.36,0.53,0.42,0.25,0.25" style="fill:rgb(0,0,0);font-family:AdvOT1ef757c0;font-size:9.27px;stroke:none;">yolk–shell</text>
   <text y="608.258" x="303.875,308.693,313.325,319.598,324.416,328.27,331.643,334.98019999999997,338.288,344.561,348.415,351.787,355.68039999999996,358.981,363.799,367.172,371.026,375.844,379.893,383.265,387.12,391.9404,395.265,399.119,403.363,407.217,412.2228,415.504,419.553,422.334,425.652,429.7308,432.965,435.282,439.914,446.2176,449.463,454.281,458.914,462.286,465.085,468.364,471.163,474.535,478.39,482.438,485.237,492.76,496.614,501.627,504.408,507.745,510.543,514.397,521.921,526.739,530.593,533.966,538.015,540.813,545.631,549.003" svgx:width="0.52,0.5,0.68,0.52,0.42,0.36,0.36,0.55,0.68,0.42,0.36,0.42,0.55,0.52,0.36,0.42,0.52,0.44,0.36,0.42,0.52,0.55,0.42,0.46,0.42,0.54,0.55,0.44,0.3,0.55,0.44,0.55,0.25,0.5,0.68,0.55,0.52,0.5,0.36,0.3,0.35,0.3,0.36,0.42,0.44,0.3,0.81,0.42,0.54,0.3,0.55,0.3,0.42,0.81,0.52,0.42,0.36,0.44,0.3,0.52,0.36,0.42" style="fill:rgb(0,0,0);font-family:AdvOT1ef757c0;font-size:9.27px;stroke:none;">powders were prepared even at a low post-treatment temperature</text>
   <text y="618.803" x="303.875,308.507,311.19530000000003,313.059,317.498,321.936" svgx:width="0.5,0.29,0.55,0.48,0.48,0.48" style="fill:rgb(0,0,0);font-family:AdvOT1ef757c0;font-size:9.27px;stroke:none;">of 350</text>
   <text y="618.803" x="326.382" svgx:width="0.38" style="fill:rgb(0,0,0);font-family:AdvP44E6F4;font-size:9.27px;stroke:none;">u</text>
   <text y="618.803" x="329.954,336.032,338.0714,339.932,345.621,350.54,354.4334,356.259,363.782,368.415,371.788,376.606,381.525,386.158,388.474,393.107,397.351,399.759,403.614,406.9512,408.927,413.56,416.24830000000003,418.112,420.91,425.83,429.72339999999997,431.549,436.367,440.999,447.272,452.09,455.944,459.317,462.6542,464.601,469.419,472.791,476.646,481.464,485.513,488.885,492.74,497.5604,499.467,502.163,505.536,510.169,519.593,522.391,527.311,531.2044000000001,533.03,536.402,541.22,544.593,548.642" svgx:width="0.66,0.22,0.55,0.61,0.53,0.42,0.55,0.81,0.5,0.36,0.52,0.53,0.5,0.25,0.5,0.46,0.26,0.42,0.36,0.55,0.5,0.29,0.55,0.3,0.53,0.42,0.55,0.52,0.5,0.68,0.52,0.42,0.36,0.36,0.55,0.52,0.36,0.42,0.52,0.44,0.36,0.42,0.52,0.55,0.29,0.36,0.5,0.81,0.3,0.53,0.42,0.55,0.36,0.52,0.36,0.44,0.46" style="fill:rgb(0,0,0);font-family:AdvOT1ef757c0;font-size:9.27px;stroke:none;">C. The morphologies of the powders prepared fromthe spray</text>
   <text y="629.348" x="303.875,307.247,311.88,314.196,319.014,321.812,324.221,328.854,333.8598,336.02,342.292,344.701,347.499,352.4121,354.559,359.377,363.231,367.567,370.365,373.738,376.147,381.1528,383.302,387.351,392.364,397.1844,399.347,404.165,408.798,412.17,414.968,418.248,421.047,424.419,428.273,432.322,435.121,438.975,443.79540000000003,445.95,449.999,452.78000000000003,454.964,459.402,463.84" svgx:width="0.36,0.5,0.25,0.52,0.3,0.26,0.5,0.54,0.55,0.68,0.26,0.3,0.53,0.55,0.52,0.42,0.47,0.3,0.36,0.26,0.54,0.55,0.44,0.54,0.52,0.55,0.52,0.5,0.36,0.3,0.35,0.3,0.36,0.42,0.44,0.3,0.42,0.52,0.55,0.44,0.3,0.55,0.48,0.48,0.48" style="fill:rgb(0,0,0);font-family:AdvOT1ef757c0;font-size:9.27px;stroke:none;">solution with dextrin and post-treated at 200</text>
   <text y="629.348" x="468.284" svgx:width="0.38" style="fill:rgb(0,0,0);font-family:AdvP44E6F4;font-size:9.27px;stroke:none;">u</text>
   <text y="629.348" x="471.856,477.9742,480.019,484.068,487.441,491.33439999999996,493.456,496.828,501.748,506.381,512.654,517.6598,519.818,522.227,527.2328,529.4,534.218,536.627,540.87,545.688,549.061" svgx:width="0.66,0.55,0.44,0.36,0.42,0.55,0.36,0.53,0.5,0.68,0.54,0.55,0.26,0.54,0.55,0.52,0.26,0.46,0.52,0.36,0.42" style="fill:rgb(0,0,0);font-family:AdvOT1ef757c0;font-size:9.27px;stroke:none;">C are shown in Figure</text>
   <text y="639.893" x="303.875,308.211,312.649,314.6884,316.857,322.546,327.466,331.3594,333.468,338.286,342.919,349.191,354.009,357.864,361.236,364.5732,366.804,371.622,376.254,379.627,382.425,385.705,388.503,391.876,395.73,399.779,402.577,406.431,411.2514,413.463,417.512,420.293,422.534,426.972,431.41" svgx:width="0.47,0.48,0.22,0.55,0.61,0.53,0.42,0.55,0.52,0.5,0.68,0.52,0.42,0.36,0.36,0.55,0.52,0.5,0.36,0.3,0.35,0.3,0.36,0.42,0.44,0.3,0.42,0.52,0.55,0.44,0.3,0.55,0.48,0.48,0.48" style="fill:rgb(0,0,0);font-family:AdvOT1ef757c0;font-size:9.27px;stroke:none;">S3. The powders post-treated at 200</text>
   <text y="639.893" x="435.799" svgx:width="0.38" style="fill:rgb(0,0,0);font-family:AdvP44E6F4;font-size:9.27px;stroke:none;">u</text>
   <text y="639.893" x="439.37,445.4882,447.648,453.921,456.33,459.128,464.048,466.457,471.4628,473.671,477.72,482.72580000000005,484.896,488.945,491.261,496.079,503.602,506.011,511.024,515.1028,517.268,521.9,526.533,530.582,533.3629999999999,535.58,541.852,545.706,549.079" svgx:width="0.66,0.55,0.68,0.26,0.3,0.53,0.26,0.54,0.55,0.44,0.54,0.55,0.44,0.25,0.52,0.81,0.26,0.54,0.44,0.55,0.5,0.5,0.44,0.3,0.55,0.68,0.42,0.36,0.42" style="fill:rgb(0,0,0);font-family:AdvOT1ef757c0;font-size:9.27px;stroke:none;">C within an alumina boat were</text>
   <text y="650.438" x="303.875,308.693,311.102,315.345,317.754,322.572,326.426,331.2464,334.716,337.125,342.138,344.936,349.57099999999997,353.028,355.826,362.099,366.734,370.206,373.579,377.433,381.676,384.085,388.718,393.731,397.103,399.1424,402.578,407.211,412.223,416.1164,419.586,424.404,428.453,431.826,436.36830000000003,439.826,444.459,447.832,452.464,458.737,463.74280000000005,467.209,471.258,476.27,481.0904,484.557,487.355,492.275,496.16839999999996,499.581,504.214,507.012,511.932,515.786,519.1232,522.655,527.288,529.604,533.653,537.508,542.0503,545.503,549.552" svgx:width="0.52,0.26,0.46,0.26,0.52,0.42,0.52,0.55,0.26,0.54,0.3,0.5,0.55,0.3,0.68,0.5,0.55,0.36,0.42,0.46,0.26,0.5,0.54,0.36,0.22,0.55,0.5,0.54,0.42,0.55,0.52,0.44,0.36,0.49,0.55,0.5,0.36,0.5,0.68,0.54,0.55,0.44,0.54,0.52,0.55,0.3,0.53,0.42,0.55,0.5,0.3,0.53,0.42,0.36,0.55,0.5,0.25,0.44,0.42,0.49,0.55,0.44,0.36" style="fill:rgb(0,0,0);font-family:AdvOT1ef757c0;font-size:9.27px;stroke:none;">divided into two regions, one dark brown and the other black as</text>
   <text y="660.926" x="303.875,307.247,312.167,316.8,323.072,328.0778,330.521,335.153,339.41720000000004,341.86,346.678,351.598,356.23,359.028,363.661,367.904,371.277,375.326,380.144,385.0571,387.555,389.964,394.9698,397.42,402.238,404.647,408.89,413.708,417.081,420.9744,423.442,427.779,432.217,434.2564,436.709,442.397,447.317,451.2104,453.603,458.421,461.793,465.648,469.502,474.32,477.693,481.065,485.698,489.0352,491.588,496.406,501.038,507.311,512.129,515.983,519.356,522.6932,525.207,530.025,532.434,535.806,539.661,543.515,546.313,548.63" svgx:width="0.36,0.53,0.5,0.68,0.54,0.55,0.5,0.46,0.55,0.52,0.53,0.5,0.3,0.5,0.46,0.36,0.44,0.52,0.53,0.55,0.26,0.54,0.55,0.52,0.26,0.46,0.52,0.36,0.42,0.55,0.47,0.48,0.22,0.55,0.61,0.53,0.42,0.55,0.52,0.36,0.42,0.42,0.52,0.36,0.36,0.5,0.36,0.55,0.52,0.5,0.68,0.52,0.42,0.36,0.36,0.55,0.52,0.26,0.36,0.42,0.42,0.3,0.25,0.46" style="fill:rgb(0,0,0);font-family:AdvOT1ef757c0;font-size:9.27px;stroke:none;">shown by photograph in Figure S3. The precursor powders directly</text>
   <text y="671.471" x="303.875,308.693,312.065,315.92,320.738,324.787,328.159,332.013,336.8334,339.592,344.224,348.4882,351.157,353.956,358.875,362.7684,365.387,368.76,373.578,376.95,380.999,385.243,388.523,393.341,396.713,400.957,403.366,408.378,412.6422,415.391,420.209,423.581,428.214,432.069,435.923,439.295,442.6322,445.438,449.487,454.5,459.3204,461.993,464.791,469.711,473.6044,476.28,481.098,486.018,490.067,493.439,497.293,500.573,505.391,510.209,513.582,517.4754,520.218,525.712,530.724,535.542" svgx:width="0.52,0.36,0.42,0.52,0.44,0.36,0.42,0.52,0.55,0.5,0.46,0.55,0.3,0.53,0.42,0.55,0.36,0.52,0.36,0.44,0.46,0.35,0.52,0.36,0.46,0.26,0.54,0.46,0.55,0.52,0.36,0.5,0.42,0.42,0.36,0.36,0.55,0.44,0.54,0.52,0.55,0.3,0.53,0.42,0.55,0.52,0.53,0.44,0.36,0.42,0.35,0.52,0.52,0.36,0.42,0.55,0.59,0.54,0.52,0.42" style="fill:rgb(0,0,0);font-family:AdvOT1ef757c0;font-size:9.27px;stroke:none;">prepared by the spray-drying process and the phase-pure ZnFe</text>
   <text y="673.001" x="539.376" svgx:width="0.48" style="fill:rgb(0,0,0);font-family:AdvOT1ef757c0;font-size:6.18px;stroke:none;">2</text>
   <text y="671.471" x="542.721" svgx:width="0.74" style="fill:rgb(0,0,0);font-family:AdvOT1ef757c0;font-size:9.27px;stroke:none;">O</text>
   <text y="673.001" x="549.581" svgx:width="0.48" style="fill:rgb(0,0,0);font-family:AdvOT1ef757c0;font-size:6.18px;stroke:none;">4</text>
   <text y="682.016" x="303.874,308.117,312.75,315.066,319.597,324.322,327.695,332.615,336.469,338.786,341.1035,344.07,348.887,353.52,359.793,364.611,368.465,371.838,375.1752,378.143,384.415,388.27,391.642,395.5354,398.439,402.683,406.537,408.853,411.17,415.802,422.10560000000004,425.029,429.078,434.09,438.9104,441.867,446.685,450.734,454.106,458.6483,461.54,466.172,469.545,474.178,480.45,485.463,487.5024,490.454,493.826,497.681,501.053,505.871,509.726,513.58,516.378,518.787,523.031,526.885,529.201,533.445,535.4844,538.473,544.162,549.082" svgx:width="0.46,0.5,0.25,0.49,0.51,0.36,0.53,0.42,0.25,0.25,0.55,0.52,0.5,0.68,0.52,0.42,0.36,0.36,0.55,0.68,0.42,0.36,0.42,0.55,0.46,0.42,0.25,0.25,0.5,0.68,0.55,0.44,0.54,0.52,0.55,0.52,0.44,0.36,0.49,0.55,0.5,0.36,0.5,0.68,0.54,0.22,0.55,0.36,0.42,0.36,0.52,0.42,0.42,0.3,0.26,0.46,0.42,0.25,0.46,0.22,0.55,0.61,0.53,0.42" style="fill:rgb(0,0,0);font-family:AdvOT1ef757c0;font-size:9.27px;stroke:none;">yolk–shell powders were yellow and dark brown, respectively. The</text>
   <text y="692.56" x="303.874,308.21,313.417,321.5746,324.397,326.806,334.329,338.378,342.621,346.476,349.8132,352.686,355.095,360.10080000000005,362.948,367.766,370.175,374.418,379.236,382.609,386.463,389.8002,392.655,396.991,401.429,405.5078,408.302,412.351,417.364,422.1844,425.027,429.363,433.801,438.436,441.241,444.614,449.534,454.166,460.4696,463.238,466.036,470.956,474.8494,477.638,485.162,489.794,493.167,497.985,502.905,507.537,509.854,514.486,518.73,521.139,524.993,528.3302000000001,531.214,535.846,538.5343,541.362,544.16,549.08" svgx:width="0.47,0.56,0.88,0.55,0.26,0.81,0.44,0.46,0.42,0.36,0.55,0.26,0.54,0.55,0.52,0.26,0.46,0.52,0.36,0.42,0.36,0.55,0.47,0.48,0.44,0.55,0.44,0.54,0.52,0.55,0.47,0.48,0.5,0.55,0.36,0.53,0.5,0.68,0.55,0.3,0.53,0.42,0.55,0.81,0.5,0.36,0.52,0.53,0.5,0.25,0.5,0.46,0.26,0.42,0.36,0.55,0.5,0.29,0.55,0.3,0.53,0.42" style="fill:rgb(0,0,0);font-family:AdvOT1ef757c0;font-size:9.27px;stroke:none;">SEM images in Figures S4a and S4b show the morphologies of the</text>
   <text y="703.049" x="303.874,308.507,310.823,314.872,318.726,323.2683,324.794,328.843,333.856,338.6764,340.214,345.032,349.081,352.454,356.9963,358.526,363.159,366.531,371.164,377.437,382.44280000000003,383.982,388.8,393.432,399.705,404.523,408.377,411.75,415.122,417.1614,418.735,422.108,425.962,429.334,434.152,438.007,441.861,444.659,447.068,451.312,455.166,457.482,461.726,463.7654,465.338,471.026,475.946,479.8394,481.325,486.143,490.192,493.564,498.10630000000003,499.637,504.269,507.642,512.275,518.547,523.5528,525.149,529.967,534.599,540.872,545.69,549.544" svgx:width="0.5,0.25,0.44,0.42,0.49,0.55,0.44,0.54,0.52,0.55,0.52,0.44,0.36,0.49,0.55,0.5,0.36,0.5,0.68,0.54,0.55,0.52,0.5,0.68,0.52,0.42,0.36,0.36,0.22,0.55,0.36,0.42,0.36,0.52,0.42,0.42,0.3,0.26,0.46,0.42,0.25,0.46,0.22,0.55,0.61,0.53,0.42,0.55,0.52,0.44,0.36,0.49,0.55,0.5,0.36,0.5,0.68,0.54,0.55,0.52,0.5,0.68,0.52,0.42,0.36" style="fill:rgb(0,0,0);font-family:AdvOT1ef757c0;font-size:9.27px;stroke:none;">black and dark brown powders, respectively. The dark brown powder</text>
   <text y="713.594" x="303.874,308.794,312.843,317.6634,321.052,325.1308,328.535,332.779,337.412,339.728,344.259,348.984,352.356,357.276,361.131,363.447,365.7645,369.185,372.558,375.356,378.728,383.546,387.401,390.199,395.017,398.389,402.244,404.28340000000003,407.737,414.01,418.929,422.784,426.156,430.011,434.06,437.3972,440.847,443.645,448.565,452.4584,455.814,460.446,462.763,466.812,470.666,475.2083,478.605,483.422,488.055,494.328,499.146,503.0,506.3372,509.842,514.762,518.811,523.6314,527.02,531.0988,534.504,537.2,539.609,541.926,544.242,548.096" svgx:width="0.53,0.44,0.52,0.55,0.44,0.55,0.46,0.5,0.25,0.49,0.51,0.36,0.53,0.42,0.25,0.25,0.55,0.36,0.3,0.36,0.52,0.42,0.3,0.52,0.36,0.42,0.22,0.55,0.68,0.53,0.42,0.36,0.42,0.44,0.36,0.55,0.3,0.53,0.42,0.55,0.5,0.25,0.44,0.42,0.49,0.55,0.52,0.5,0.68,0.52,0.42,0.36,0.55,0.53,0.44,0.52,0.55,0.44,0.55,0.29,0.26,0.25,0.25,0.42,0.52" style="fill:rgb(0,0,0);font-family:AdvOT1ef757c0;font-size:9.27px;stroke:none;">had a yolk–shell structure, whereas the black powder had a filled</text>
   <text y="724.138" x="303.874,307.246,310.045,313.417,318.235,322.089,324.888,329.706,333.078,336.932,338.9714,342.652,348.341,353.261,357.1544,360.737,364.591,368.64,372.013,376.645,381.278,386.291,388.7,392.554,396.603,399.401,401.81,406.546,411.5518,415.163,419.796,422.4843,426.162,430.98,434.834,439.171,441.969,445.341,447.75,452.7558,456.436,461.254,464.627,469.26,474.078,478.896,482.75,486.604,491.4244,495.101,499.734,502.05,506.099,509.954,514.4963,518.176,523.67,528.683,533.408,538.226,542.08,546.805" svgx:width="0.36,0.3,0.36,0.52,0.42,0.3,0.52,0.36,0.42,0.22,0.55,0.61,0.53,0.42,0.55,0.42,0.44,0.36,0.5,0.5,0.54,0.26,0.42,0.44,0.3,0.26,0.5,0.54,0.55,0.5,0.29,0.55,0.52,0.42,0.47,0.3,0.36,0.26,0.54,0.55,0.52,0.36,0.5,0.52,0.52,0.42,0.42,0.52,0.55,0.5,0.25,0.44,0.42,0.49,0.55,0.59,0.54,0.51,0.52,0.42,0.51,0.66" style="fill:rgb(0,0,0);font-family:AdvOT1ef757c0;font-size:9.27px;stroke:none;">structure. The carbonization of dextrin produced black Zn–Fe–C</text>
   <text y="734.683" x="303.874,307.728,312.361,319.884,324.702,329.335,332.708,335.117,337.915,341.8084,343.333,348.151,352.784,359.056,363.874,367.729,371.101,374.4382,375.989,380.038,383.3752,384.946,388.995,394.0008,395.548,397.957,402.969,405.767,409.622,412.994,420.518,424.372,429.19,431.599,435.648,438.446,442.3394,443.85,448.668,452.041,456.674,461.492,466.31,470.164,472.945,474.521,479.339,484.157,487.53,489.939,494.951,499.21520000000004,500.713,503.512,508.431,512.3244,513.81,518.628,523.26,526.633,529.431,532.711,535.509,538.882,542.736,546.785,549.583" svgx:width="0.42,0.5,0.81,0.52,0.5,0.36,0.26,0.3,0.42,0.55,0.52,0.5,0.68,0.52,0.42,0.36,0.36,0.55,0.44,0.36,0.55,0.44,0.54,0.55,0.26,0.54,0.3,0.42,0.36,0.81,0.42,0.52,0.26,0.44,0.3,0.42,0.55,0.52,0.36,0.5,0.52,0.52,0.42,0.3,0.55,0.52,0.52,0.36,0.26,0.54,0.46,0.55,0.3,0.53,0.42,0.55,0.52,0.5,0.36,0.3,0.35,0.3,0.36,0.42,0.44,0.3,0.35" style="fill:rgb(0,0,0);font-family:AdvOT1ef757c0;font-size:9.27px;stroke:none;">composite powders as an intermediate product during the post-treat-</text>
   <text y="745.228" x="303.874,311.397,315.252,320.264,323.045,324.624,329.442,332.814,337.447,341.301,345.155,348.528,351.901,353.9404,355.578,361.267,366.187,370.0804,371.623,374.995,378.85,383.668,387.522,391.571,394.369,398.223,403.0434,404.675,408.529,413.162,420.685,425.318,430.136,433.509,436.307,438.716,443.348,448.35380000000004,449.973,454.022,459.034,463.8544,465.393,469.248,473.88,478.893,481.691,485.063,489.112,492.967,495.765,498.174,502.807,507.81280000000004,509.444,514.262,517.635,522.267,526.122,529.976,533.349,536.721,540.576,543.9132000000001,545.615,550.247" svgx:width="0.81,0.42,0.54,0.3,0.55,0.52,0.36,0.5,0.42,0.42,0.36,0.36,0.22,0.55,0.61,0.53,0.42,0.55,0.36,0.42,0.52,0.42,0.44,0.3,0.42,0.52,0.55,0.42,0.5,0.81,0.5,0.52,0.36,0.3,0.26,0.5,0.54,0.55,0.44,0.54,0.52,0.55,0.42,0.5,0.54,0.3,0.36,0.44,0.42,0.3,0.26,0.5,0.54,0.55,0.52,0.36,0.5,0.42,0.42,0.36,0.36,0.42,0.36,0.55,0.5,0.29" style="fill:rgb(0,0,0);font-family:AdvOT1ef757c0;font-size:9.27px;stroke:none;">ment process. The repeated combustion and contraction processes of</text>
  </g>
  <rect style="fill:pink;opacity:0.2;stroke:blue;stroke-width:0.3;" x="-0.113" y="17.524" height="36.964" width="595.446" title="2"/>
  <text y="17.524" class="image" id="image.2.1" width="595" height="36" x="-0.113" style="font-size:5.0px;">image.2.1.0_595.18_54</text>
  <rect style="fill:pink;opacity:0.2;stroke:blue;stroke-width:0.3;" x="77.556" y="69.455" height="271.956" width="179.727" title="2"/>
  <text y="69.455" class="image" id="image.2.2" width="179" height="271" x="77.556" style="font-size:5.0px;">image.2.2.78_257.69_341</text>
  <g begin="text">
   <text y="338.23" x="42.86,47.441,49.821,53.877,58.458,61.718,65.3601,68.144" svgx:width="0.54,0.28,0.48,0.54,0.38,0.43,0.55,0.49" style="fill:rgb(0,0,0);font-family:AdvOT5e4d79fc;font-size:8.47px;stroke:none;">Figure 1</text>
   <text y="338.23" x="74.721" svgx:width="0.26" style="fill:rgb(0,0,0);font-family:AdvOT5e4d79fc;font-size:8.97px;stroke:none;">|</text>
   <text y="338.23" x="78.179,82.32,87.164,94.6176,96.887,99.267,106.321,110.106,114.163,117.778,120.9966,123.135,127.454,130.0797,132.319,135.046,139.627,143.2691,145.471,149.256,152.432,155.337,159.833,163.093,166.709,171.206,174.991,178.252,181.867,186.3561,188.612,193.109,197.428,203.161,207.657,211.273,214.534,217.7526,219.906,224.402,227.663,231.279,235.775,239.56,242.821,246.437,250.92610000000002,253.183,255.825,259.086,263.404,270.4341,272.685,275.411,279.993" svgx:width="0.49,0.57,0.88,0.55,0.28,0.83,0.45,0.48,0.43,0.38,0.55,0.51,0.31,0.55,0.32,0.54,0.43,0.55,0.45,0.38,0.34,0.53,0.38,0.43,0.53,0.45,0.38,0.43,0.53,0.55,0.53,0.51,0.68,0.53,0.43,0.38,0.38,0.55,0.53,0.38,0.43,0.53,0.45,0.38,0.43,0.53,0.55,0.31,0.38,0.51,0.83,0.55,0.32,0.54,0.43" style="fill:rgb(0,0,0);font-family:AdvOT5e4d79fc;font-size:8.47px;stroke:none;">SEM images of the as-prepared powders prepared from the</text>
   <text y="348.718" x="42.86,46.036,50.533,53.793,57.578,61.4742,62.872,66.048,70.367,72.568,77.15,79.877,82.256,86.575,91.249,94.46759999999999,95.866,101.599,103.979,106.705,111.287,115.606,120.187,122.8974,124.381,128.166,132.841,137.33010000000002,138.78,144.513,146.893,149.62,154.1938,155.618,160.114,163.73,167.693,170.42,173.68,176.06,180.734,182.76680000000002,184.189,187.094,190.879,193.75879999999998,195.244,200.977,203.356,206.083,210.664,214.983,219.564,222.27439999999999,223.759,228.255,231.871,235.834,238.561,241.821,244.201,248.8595,250.29,254.075,258.749,263.23810000000003,264.689,267.594,271.997,274.8768,276.368,282.1,284.48,287.207" svgx:width="0.38,0.53,0.38,0.45,0.46,0.55,0.38,0.51,0.26,0.54,0.32,0.28,0.51,0.55,0.38,0.55,0.68,0.28,0.32,0.54,0.51,0.54,0.32,0.55,0.45,0.55,0.53,0.55,0.68,0.28,0.32,0.54,0.55,0.53,0.43,0.47,0.32,0.38,0.28,0.55,0.24,0.55,0.34,0.45,0.34,0.55,0.68,0.28,0.32,0.54,0.51,0.54,0.32,0.55,0.53,0.43,0.47,0.32,0.38,0.28,0.55,0.55,0.45,0.55,0.53,0.55,0.34,0.52,0.34,0.55,0.68,0.28,0.32,0.54" style="fill:rgb(0,0,0);font-family:AdvOT5e4d79fc;font-size:8.47px;stroke:none;">spray solutions without and with dextrin: (a) without dextrin and (b) with</text>
   <text y="359.149" x="42.86,47.357,50.973,54.936,57.663,60.923,63.303,67.977" svgx:width="0.53,0.43,0.47,0.32,0.38,0.28,0.55,0.24" style="fill:rgb(0,0,0);font-family:AdvOT5e4d79fc;font-size:8.47px;stroke:none;">dextrin.</text>
  </g>
  <rect style="fill:pink;opacity:0.2;stroke:blue;stroke-width:0.3;" x="304.611" y="69.455" height="434.551" width="247.652" title="2"/>
  <text y="69.455" class="image" id="image.2.3" width="247" height="434" x="304.611" style="font-size:5.0px;">image.2.3.305_552.69_504</text>
  <g begin="text">
   <text y="500.882" x="303.874,308.455,310.835,314.891,319.472,322.733,326.37510000000003,329.158" svgx:width="0.54,0.28,0.48,0.54,0.38,0.43,0.55,0.49" style="fill:rgb(0,0,0);font-family:AdvOT5e4d79fc;font-size:8.47px;stroke:none;">Figure 2</text>
   <text y="500.882" x="335.735" svgx:width="0.26" style="fill:rgb(0,0,0);font-family:AdvOT5e4d79fc;font-size:8.97px;stroke:none;">|</text>
   <text y="500.882" x="339.194,343.335,348.178,355.673,357.7058,359.886,365.178,370.022,377.516,379.5488,381.768,385.554,390.228,394.7171,396.962,400.578,402.78,406.396,413.45,417.066,421.74,424.467,428.252,430.4542,432.677,439.731,443.516,448.013,452.509,454.889,459.563,463.6286,465.841,468.22,475.274,479.06,483.116,486.732,489.9506,492.145,496.464,499.0897,501.329,504.056,508.637,512.2791,514.425,519.54,524.215,528.796" svgx:width="0.49,0.57,0.88,0.24,0.55,0.63,0.57,0.88,0.24,0.55,0.45,0.55,0.53,0.55,0.43,0.26,0.43,0.83,0.43,0.55,0.32,0.45,0.26,0.55,0.83,0.45,0.53,0.53,0.28,0.55,0.48,0.55,0.28,0.83,0.45,0.48,0.43,0.38,0.55,0.51,0.31,0.55,0.32,0.54,0.43,0.55,0.6,0.55,0.54,0.43" style="fill:rgb(0,0,0);font-family:AdvOT5e4d79fc;font-size:8.47px;stroke:none;">SEM, TEM, and elemental mapping images of the ZnFe</text>
   <text y="502.242" x="532.46" svgx:width="0.49" style="fill:rgb(0,0,0);font-family:AdvOT5e4d79fc;font-size:5.64px;stroke:none;">2</text>
   <text y="500.882" x="535.578" svgx:width="0.75" style="fill:rgb(0,0,0);font-family:AdvOT5e4d79fc;font-size:8.47px;stroke:none;">O</text>
   <text y="502.242" x="541.927" svgx:width="0.49" style="fill:rgb(0,0,0);font-family:AdvOT5e4d79fc;font-size:5.64px;stroke:none;">4</text>
   <text y="511.313" x="303.874,308.371,312.689,318.422,322.919,326.535,329.795,333.0136,335.167,339.664,343.983,347.158,349.885,352.79,355.516,358.777,362.393,366.178,368.905,372.521,377.0101,379.272,383.057,385.7674,388.003,391.881,395.667,398.927,401.306,405.625,410.207,413.4256,415.611,418.338,421.954,429.008,433.504,437.12,440.38,444.166,446.892,451.474,454.734,458.35,461.526,463.5588,465.838,468.743,472.528,475.4078,477.63,483.363,485.743,488.47,493.051,497.37,501.951,504.6614,506.94,511.436,515.052,519.015,521.742,525.002,527.382,532.056" svgx:width="0.53,0.51,0.68,0.53,0.43,0.38,0.38,0.55,0.53,0.51,0.38,0.32,0.34,0.32,0.38,0.43,0.45,0.32,0.43,0.53,0.55,0.45,0.32,0.55,0.46,0.45,0.38,0.28,0.51,0.54,0.38,0.55,0.32,0.43,0.83,0.53,0.43,0.38,0.45,0.32,0.54,0.38,0.43,0.38,0.24,0.55,0.34,0.45,0.34,0.55,0.68,0.28,0.32,0.54,0.51,0.54,0.32,0.55,0.53,0.43,0.47,0.32,0.38,0.28,0.55,0.24" style="fill:rgb(0,0,0);font-family:AdvOT5e4d79fc;font-size:8.47px;stroke:none;">powders post-treated at various temperatures: (a) without dextrin,</text>
   <text y="521.801" x="303.874,308.015,312.156" svgx:width="0.49,0.49,0.49" style="fill:rgb(0,0,0);font-family:AdvOT5e4d79fc;font-size:8.47px;stroke:none;">450</text>
   <text y="521.802" x="316.29" svgx:width="0.45" style="fill:rgb(0,0,0);font-family:AdvP4072C;font-size:9.31px;stroke:none;">6</text>
   <text y="521.802" x="320.485,326.125,328.1578,330.35,333.254,337.658,340.5378,342.765,348.498,350.877,353.604,358.1778,360.452,364.949,368.565,372.528,375.255,378.515,380.895,385.569,387.6018,389.818,393.959,398.1" svgx:width="0.67,0.24,0.55,0.34,0.52,0.34,0.55,0.68,0.28,0.32,0.54,0.55,0.53,0.43,0.47,0.32,0.38,0.28,0.55,0.24,0.55,0.49,0.49,0.49" style="fill:rgb(0,0,0);font-family:AdvOT5e4d79fc;font-size:8.47px;stroke:none;">C, (b) with dextrin, 350</text>
   <text y="521.802" x="402.236" svgx:width="0.45" style="fill:rgb(0,0,0);font-family:AdvP4072C;font-size:9.31px;stroke:none;">6</text>
   <text y="521.802" x="406.431,412.071,414.10380000000004,416.296,419.201,422.723,425.6028,427.861,433.594,435.974,438.7,443.2738,445.492,449.988,453.604,457.568,460.294,463.555,465.934,470.609,472.6418,474.858,478.999,483.14" svgx:width="0.67,0.24,0.55,0.34,0.42,0.34,0.55,0.68,0.28,0.32,0.54,0.55,0.53,0.43,0.47,0.32,0.38,0.28,0.55,0.24,0.55,0.49,0.49,0.49" style="fill:rgb(0,0,0);font-family:AdvOT5e4d79fc;font-size:8.47px;stroke:none;">C, (c) with dextrin, 400</text>
   <text y="521.802" x="487.332" svgx:width="0.45" style="fill:rgb(0,0,0);font-family:AdvP4072C;font-size:9.31px;stroke:none;">6</text>
   <text y="521.802" x="491.471,497.111,499.1438,501.335,504.24,508.737,513.055,515.697,518.5768,520.837,526.57,528.949,531.676" svgx:width="0.67,0.24,0.55,0.34,0.53,0.51,0.31,0.34,0.55,0.68,0.28,0.32,0.54" style="fill:rgb(0,0,0);font-family:AdvOT5e4d79fc;font-size:8.47px;stroke:none;">C, (d–f) with</text>
   <text y="532.233" x="303.875,308.371,311.987,315.95,318.677,321.937,324.317,328.991,331.0238,333.241,337.382,341.523" svgx:width="0.53,0.43,0.47,0.32,0.38,0.28,0.55,0.24,0.55,0.49,0.49,0.49" style="fill:rgb(0,0,0);font-family:AdvOT5e4d79fc;font-size:8.47px;stroke:none;">dextrin, 450</text>
   <text y="532.233" x="345.657" svgx:width="0.45" style="fill:rgb(0,0,0);font-family:AdvP4072C;font-size:9.31px;stroke:none;">6</text>
   <text y="532.233" x="349.852,355.492,357.5248,359.717,363.502,368.176,372.6651,374.91,377.815,381.871,384.75079999999997,386.986,390.602,392.803,396.419,403.473,407.089,411.764,414.491,418.276,420.4782,422.7,429.754,433.54,438.036,442.533,444.913,449.587,453.6526,455.865,458.244,465.298,469.083,473.14,476.756,479.931" svgx:width="0.67,0.24,0.55,0.45,0.55,0.53,0.55,0.34,0.48,0.34,0.55,0.43,0.26,0.43,0.83,0.43,0.55,0.32,0.45,0.26,0.55,0.83,0.45,0.53,0.53,0.28,0.55,0.48,0.55,0.28,0.83,0.45,0.48,0.43,0.38,0.24" style="fill:rgb(0,0,0);font-family:AdvOT5e4d79fc;font-size:8.47px;stroke:none;">C, and (g) elemental mapping images.</text>
   <text y="23.924" x="382.45,390.728,398.964,407.201,410.758,416.935,423.462,426.559,432.626,436.863,442.59,446.147,451.414,457.711,466.518" svgx:width="0.71,0.71,0.71,0.28,0.52,0.55,0.24,0.51,0.34,0.48,0.28,0.44,0.53,0.76,0.54" style="fill:rgb(255,255,255);font-family:AdvOT144a03c1;font-size:10.96px;stroke:none;">www.nature.com/</text>
   <text y="23.924" x="472.932,477.864,482.905,486.127,492.089,498.39,501.831,505.053,508.845,512.067,517.108,521.579,527.541,534.182,540.593,545.064,548.505" svgx:width="0.41,0.42,0.25,0.5,0.53,0.27,0.25,0.3,0.25,0.42,0.36,0.5,0.56,0.54,0.36,0.27,0.41" style="fill:rgb(255,255,255);font-family:AdvOT1415ea69.B;font-size:10.96px;stroke:none;">scientificreports</text>
  </g>
  <path style="fill:rgb(23,22,21);stroke:none;stroke-width:1.0;" d="M77.560 51.820 L257.100 51.820 L257.100 323.770 L77.560 323.770 M304.610 51.820 L552.080 51.820 L552.080 486.370 L304.610 486.370 "/>
  <g begin="text">
   <text y="768.132" x="42.86,47.092,52.32,54.146,58.29,64.515,68.078,69.903,73.529,75.354" svgx:width="0.53,0.66,0.23,0.52,0.78,0.45,0.23,0.47,0.23,0.66" style="fill:rgb(178,178,177);font-family:AdvOT144a03c1;font-size:7.97px;stroke:none;">SCIENTIFIC</text>
   <text y="768.132" x="82.658,87.058,90.875,95.02,101.245,105.644,109.207" svgx:width="0.55,0.48,0.52,0.78,0.55,0.45,0.52" style="fill:rgb(178,178,177);font-family:AdvOT1415ea69.B;font-size:7.97px;stroke:none;">REPORTS</text>
   <text y="768.132" x="117.411,121.8742,123.987,128.8487,130.96,133.351,135.382,140.276,145.169,150.063,154.9247,157.038,161.5012,163.557,168.953,175.76,177.585,179.976,182.039,186.932,191.826,194.233,199.127,204.02,208.914,213.808,218.287,221.325,223.979,228.044,232.603,237.497,242.391,247.284,252.178" svgx:width="0.56,0.55,0.61,0.55,0.3,0.55,0.61,0.61,0.61,0.61,0.55,0.56,0.55,0.68,0.85,0.23,0.3,0.55,0.61,0.61,0.3,0.61,0.61,0.61,0.61,0.56,0.4,0.33,0.51,0.57,0.61,0.61,0.61,0.61,0.61" style="fill:rgb(0,0,0);font-family:AdvOT735b620e;font-size:7.97px;stroke:none;">| 4 : 5857 | DOI: 10.1038/srep05857</text>
   <text y="768.132" x="547.542" svgx:width="0.68" style="fill:rgb(0,0,0);font-family:AdvOTf32ed098.B;font-size:7.97px;stroke:none;">2</text>
  </g>
 </g>
</svg>
