<?xml version="1.0" encoding="UTF-8"?>
<svg height="740.2" width="2820.932" xmlns="http://www.w3.org/2000/svg">
 <g id="page" xmlns:svgx="http://www.xml-cml.org/schema/svgx">
  <g begin="text">
   <text y="96.095" x="56.693,59.341,64.839,68.093,72.566,76.337,78.985,83.458,87.932,92.405,97.5778,101.077,106.371,109.019,112.887,117.279,120.768,126.267,130.74,136.239,141.426,145.294,148.547,152.318,157.709,162.183,165.436,170.827,174.598,179.071,182.939,185.0862,188.555,191.896,195.01919999999998,198.586,201.195,204.9038,208.451,213.667,218.14,220.788,223.436,227.91,232.491,236.964,242.1368,245.636,248.87,254.261,258.735,261.8582,265.425,268.033,273.532,278.006,283.192,286.963" svgx:width="0.26,0.55,0.32,0.45,0.38,0.26,0.45,0.45,0.45,0.53,0.55,0.53,0.26,0.38,0.45,0.55,0.55,0.45,0.55,0.52,0.38,0.32,0.38,0.54,0.45,0.32,0.54,0.38,0.45,0.38,0.22,0.55,0.33,0.32,0.55,0.26,0.38,0.55,0.52,0.45,0.26,0.26,0.45,0.46,0.45,0.53,0.55,0.32,0.54,0.45,0.32,0.55,0.26,0.55,0.45,0.52,0.38,0.36" style="fill:rgb(23,22,21);font-family:AdvOTa9103878;font-size:9.76px;stroke:none;">interlaced disc nanostructures. It is believed that incor-</text>
   <text y="108.055" x="56.693,62.197,67.593,71.573,76.218,79.681,82.539,87.935,93.303,97.236,102.633,105.4634,109.376,118.746,128.897,135.826,143.536,150.0752,153.971,162.413,165.271,168.734,171.591,176.587,181.232,184.685,189.369,194.5418,198.436,202.514,207.159,211.842,217.238,222.947,228.392,233.076,237.056,241.448,245.333,251.002,256.603,261.248,264.106,268.75,273.434,276.897,279.754,285.151" svgx:width="0.53,0.52,0.38,0.45,0.32,0.26,0.52,0.55,0.55,0.52,0.29,0.55,0.93,1.01,0.68,0.76,0.67,0.55,0.83,0.26,0.32,0.26,0.48,0.45,0.32,0.45,0.53,0.55,0.38,0.45,0.45,0.52,0.55,0.53,0.45,0.38,0.45,0.55,0.55,0.54,0.45,0.26,0.45,0.45,0.32,0.26,0.52,0.55" style="fill:rgb(23,22,21);font-family:AdvOTa9103878;font-size:9.76px;stroke:none;">poration of MWCNT mitigated secondary nucleation</text>
   <text y="120.015" x="56.693,61.057,66.447,71.6198,74.892,79.569,83.23,88.307,95.112,98.256,103.5264,106.808,111.885,117.253,120.526,123.67,128.952,133.344,136.626,140.385,145.667,149.328,152.169,156.533,160.898,165.29,168.542,173.619,176.4494,179.712,182.856,188.138,192.53,195.812,200.996,204.657,207.196,215.329,219.693,223.354,227.746,230.96,236.349,240.713,246.103,251.18,256.364,258.903,262.662,267.026,270.785" svgx:width="0.45,0.55,0.53,0.55,0.48,0.38,0.52,0.7,0.32,0.54,0.55,0.52,0.55,0.55,0.32,0.54,0.45,0.55,0.38,0.54,0.38,0.29,0.45,0.45,0.45,0.55,0.52,0.29,0.55,0.32,0.54,0.45,0.55,0.53,0.38,0.26,0.83,0.45,0.38,0.45,0.55,0.55,0.45,0.55,0.52,0.53,0.26,0.38,0.45,0.38,0.22" style="fill:rgb(23,22,21);font-family:AdvOTa9103878;font-size:9.76px;stroke:none;">and growth on the surface of the primary nanodiscs.</text>
   <text y="131.975" x="64.689,71.531,76.177,80.773,83.544,86.315,90.707,94.475,99.179,104.489,107.26,110.636,115.281,123.676,132.041,136.686,140.063,143.956,148.34799999999998,152.116,159.144,163.741,167.4498,171.276,175.17,179.766,184.363,189.672,193.566,198.983,203.579,208.7518,212.54,215.614,220.923,224.6318,228.351,233.797,239.311,243.205,247.597,251.365,258.168,263.683,271.2958,275.075,279.671,285.293" svgx:width="0.68,0.45,0.45,0.26,0.26,0.45,0.55,0.46,0.52,0.26,0.32,0.45,0.83,0.83,0.45,0.32,0.38,0.45,0.55,0.7,0.45,0.38,0.55,0.38,0.45,0.45,0.52,0.38,0.53,0.45,0.53,0.55,0.29,0.52,0.38,0.55,0.53,0.54,0.38,0.45,0.55,0.68,0.54,0.78,0.55,0.45,0.55,0.53" style="fill:rgb(23,22,21);font-family:AdvOTa9103878;font-size:9.76px;stroke:none;">Cyclic voltammetry was recorded for pure CuO and</text>
   <text y="143.935" x="56.693,63.303,68.653,76.278,79.832,88.951,98.812,105.422,112.93,119.433,121.5802,124.89,129.254,132.9628,136.401,140.16,145.442,150.627,157.432,162.79999999999998,166.16,168.699,174.067,177.437,182.514,185.052,189.729,195.128,198.789,203.18099999999998,206.522,211.404,213.5512,216.901,221.977,227.054,230.7628,234.074,239.151,244.336,247.479,252.7494,256.13,259.889,264.253,272.386,277.678,280.216,284.58,288.339" svgx:width="0.68,0.54,0.78,0.36,0.93,1.01,0.68,0.76,0.67,0.22,0.55,0.45,0.38,0.55,0.38,0.54,0.52,0.7,0.55,0.55,0.26,0.55,0.55,0.52,0.26,0.48,0.54,0.38,0.45,0.55,0.5,0.22,0.55,0.52,0.52,0.38,0.55,0.52,0.52,0.32,0.54,0.55,0.38,0.45,0.83,0.53,0.26,0.45,0.38,0.22" style="fill:rgb(23,22,21);font-family:AdvOTa9103878;font-size:9.76px;stroke:none;">CuO/MWCNT, as shown in Figure 5. For both samples,</text>
   <text y="155.896" x="56.693,59.995,65.435,69.827,73.423,80.172,86.90639999999999,90.494,95.827,99.646,104.881,107.88,110.577,113.274,117.796,121.5048,125.169,132.143,136.665,140.484,144.876,148.473,154.03,158.552,163.075,166.894,169.591,173.983,177.579,180.276,185.619,190.141,195.689,198.991,201.687,206.21,210.683,213.2206,216.865,220.158,225.23319999999998,228.829,232.17,237.611,242.846,246.763,251.155,254.751,258.571,263.093,268.436,273.671,277.49,280.792,285.315" svgx:width="0.32,0.54,0.45,0.55,0.68,0.69,0.55,0.53,0.38,0.52,0.29,0.26,0.26,0.45,0.38,0.55,0.7,0.45,0.38,0.45,0.55,0.55,0.45,0.45,0.38,0.26,0.45,0.55,0.26,0.53,0.45,0.55,0.32,0.26,0.45,0.45,0.26,0.55,0.32,0.52,0.55,0.32,0.54,0.52,0.38,0.45,0.55,0.38,0.45,0.53,0.52,0.38,0.32,0.45,0.53" style="fill:rgb(23,22,21);font-family:AdvOTa9103878;font-size:9.76px;stroke:none;">the CV profiles were nearly identical to those reported</text>
   <text y="167.797" x="56.693,59.798,65.138,68.8468,72.568,75.917,81.463,85.85499999999999,89.625,96.498,101.995,109.6078,113.389,119.061,123.65,129.264,134.605,138.627,142.035,145.96,151.456,156.104,159.511,165.008,168.933,173.561,177.2698,181.04,184.437,189.583,194.689,197.081,202.187,207.332,210.74,212.8872,216.637,222.358,225.463,228.529,231.331,235.959,238.761,243.35,249.003,252.12619999999998,255.915,260.504,263.277,267.905,272.493,275.901,279.826,285.166" svgx:width="0.29,0.52,0.38,0.55,0.32,0.54,0.45,0.55,0.68,0.54,0.78,0.55,0.55,0.45,0.55,0.52,0.38,0.32,0.38,0.54,0.45,0.32,0.54,0.38,0.45,0.38,0.55,0.32,0.5,0.5,0.22,0.5,0.5,0.32,0.22,0.55,0.56,0.29,0.29,0.26,0.45,0.26,0.45,0.55,0.32,0.55,0.45,0.26,0.45,0.45,0.32,0.38,0.52,0.55" style="fill:rgb(23,22,21);font-family:AdvOTa9103878;font-size:9.76px;stroke:none;">for the CuO nanostructures [10,12]. Efficient electron</text>
   <text y="179.757" x="56.693,60.15,64.125,68.802,74.505,78.578,84.075,89.515,93.479,96.6022,100.51,105.891,110.283,114.22,117.052,122.755,126.212,130.187,135.577,141.075,146.67,151.348,154.2,159.903,164.5878,168.515,177.879,188.054,194.977,202.71,209.2492,213.139,218.754,224.251,229.642,235.01,238.937,241.77,244.622,248.079,253.674,256.526,261.204,264.661,267.513,272.903,278.271,282.199,287.638" svgx:width="0.32,0.38,0.45,0.55,0.38,0.53,0.52,0.38,0.32,0.55,0.52,0.45,0.55,0.26,0.55,0.32,0.38,0.52,0.53,0.54,0.45,0.26,0.55,0.48,0.55,0.93,1.01,0.68,0.76,0.67,0.55,0.54,0.53,0.52,0.55,0.55,0.26,0.26,0.32,0.54,0.26,0.45,0.32,0.26,0.52,0.55,0.55,0.52,0.29" style="fill:rgb(23,22,21);font-family:AdvOTa9103878;font-size:9.76px;stroke:none;">transport by introducing MWCNT upon lithiation of</text>
   <text y="191.718" x="56.693,59.837,65.119,69.511,72.851,79.461,84.743,92.35579999999999,95.698,102.503,106.867,110.5758,114.014,118.378,123.533,128.923,131.764,134.302,137.963,146.096,150.578,155.7508,159.082,164.159,168.551,171.833,174.977,180.337,184.72899999999998,187.991,192.355,197.745,203.027,207.489,212.878,217.242,221.607,226.7798,230.169,233.83,238.195,243.379,248.534,253.3164,256.638,261.822,266.186,270.55,275.52,279.2288,282.608,285.147" svgx:width="0.32,0.54,0.45,0.55,0.68,0.54,0.78,0.55,0.7,0.45,0.38,0.55,0.45,0.52,0.55,0.29,0.26,0.38,0.83,0.45,0.53,0.55,0.52,0.45,0.55,0.32,0.54,0.45,0.55,0.45,0.55,0.54,0.45,0.55,0.45,0.45,0.53,0.55,0.38,0.45,0.53,0.52,0.49,0.55,0.53,0.45,0.45,0.5,0.38,0.55,0.26,0.55" style="fill:rgb(23,22,21);font-family:AdvOTa9103878;font-size:9.76px;stroke:none;">the CuO was confirmed by the enhanced redox peaks in</text>
   <text y="203.678" x="56.693,59.942,65.33,69.722,73.148,79.834,86.5684,89.986,94.466,99.746,103.532,108.109,112.471,116.1798,119.733,123.022,131.152,135.661,140.131,143.888,149.275,153.042,157.512,162.6848,166.131,171.313,176.68099999999998,180.157,184.021,188.384,196.622,201.912,204.556,208.918,212.6268,216.18,221.392,224.2224,227.687,231.444,234.147,242.365,245.009,247.653,252.123,255.8318,259.209,267.428,271.898,275.762,279.4708,282.966,287.328" svgx:width="0.32,0.54,0.45,0.55,0.68,0.69,0.55,0.45,0.54,0.38,0.46,0.45,0.38,0.55,0.32,0.83,0.45,0.45,0.38,0.54,0.38,0.45,0.53,0.55,0.52,0.55,0.55,0.38,0.45,0.83,0.53,0.26,0.45,0.38,0.55,0.52,0.29,0.55,0.38,0.26,0.83,0.26,0.26,0.45,0.38,0.55,0.83,0.45,0.38,0.38,0.55,0.45,0.32" style="fill:rgb(23,22,21);font-family:AdvOTa9103878;font-size:9.76px;stroke:none;">the CV curves (measured on samples of similar mass at</text>
   <text y="215.638" x="56.693,60.093,65.593,69.985,73.739,77.706,82.356,90.687,95.079,98.833,103.542,108.866,111.641,115.042,119.634,124.567,128.959,132.674,136.699,143.732,148.323,152.974,158.14679999999998,161.871,165.779,170.43,173.772,178.422,181.764,183.9112,187.674,194.423,199.982,204.573,208.482,213.073,216.191,221.515,225.374,230.024,232.1712,235.934,238.71,241.8332,245.635,248.411,252.1198,255.893,261.217,265.867,268.643,271.418,276.01,280.719,285.311" svgx:width="0.32,0.54,0.45,0.55,0.38,0.45,0.83,0.45,0.55,0.46,0.52,0.26,0.32,0.45,0.48,0.45,0.55,0.38,0.7,0.45,0.45,0.53,0.55,0.38,0.45,0.32,0.45,0.32,0.22,0.55,0.67,0.54,0.45,0.38,0.45,0.29,0.52,0.38,0.45,0.22,0.55,0.26,0.32,0.55,0.26,0.38,0.55,0.52,0.45,0.26,0.26,0.45,0.46,0.45,0.53" style="fill:rgb(23,22,21);font-family:AdvOTa9103878;font-size:9.76px;stroke:none;">the same voltage sweep rate). Therefore, it is believed</text>
   <text y="227.598" x="56.693,60.228,65.902,70.657,73.7802,77.854,87.296,97.549,104.55,112.313,118.8522,122.917,125.867,134.391,139.967,144.02,149.488,154.351,159.107,164.2798,168.344,171.919,177.592,181.984,186.038,191.917,194.4546,198.547,203.303,206.233,210.989,215.745,219.28,223.333,228.801,233.557,238.313,241.848,244.778,249.641,252.571,256.106,260.498,264.553,269.992,272.8224,276.905,280.48,286.153" svgx:width="0.32,0.54,0.45,0.32,0.55,0.93,1.01,0.68,0.76,0.67,0.55,0.26,0.83,0.53,0.38,0.52,0.46,0.45,0.53,0.55,0.32,0.54,0.45,0.55,0.56,0.26,0.55,0.45,0.26,0.45,0.45,0.32,0.38,0.52,0.45,0.45,0.32,0.26,0.46,0.26,0.32,0.45,0.55,0.52,0.29,0.55,0.32,0.54,0.45" style="fill:rgb(23,22,21);font-family:AdvOTa9103878;font-size:9.76px;stroke:none;">that MWCNT improved the Li electroactivity of the</text>
   <text y="239.558" x="56.693,63.303,68.585,76.1978,79.373,84.763,89.127,94.516,99.593,103.352,106.496,110.157,115.439,119.804,122.947,128.229,131.891,136.255,139.9638,143.265,148.342,152.706,157.07,161.435,166.717,170.476,174.868,178.072,183.148,185.9784,189.182,191.721,194.865,198.5738,201.826,206.19,209.031,211.872,216.237,220.601,223.7242,226.996,232.073,237.441,240.606,244.97,250.047,255.437,260.621,265.903,270.267,273.411,275.95,280.421,282.96,286.104" svgx:width="0.68,0.54,0.78,0.55,0.55,0.45,0.55,0.52,0.38,0.32,0.38,0.54,0.45,0.32,0.54,0.38,0.45,0.38,0.55,0.52,0.45,0.45,0.45,0.54,0.38,0.45,0.55,0.52,0.29,0.55,0.26,0.32,0.38,0.55,0.45,0.29,0.29,0.45,0.45,0.32,0.55,0.52,0.55,0.55,0.45,0.52,0.55,0.53,0.54,0.45,0.32,0.26,0.46,0.26,0.32,0.45" style="fill:rgb(23,22,21);font-family:AdvOTa9103878;font-size:9.76px;stroke:none;">CuO nanostructures because of its effect on conductivity</text>
   <text y="251.518" x="56.693,61.058,66.448,71.62079999999999,74.895,78.04,83.323,87.71499999999999,90.939,95.304,98.146,100.988,103.528,107.893,110.433,114.798,120.188,123.3112,126.662,131.028,133.567,137.932,142.297,145.442,149.104,154.182,159.54999999999998,162.892,168.078,172.443,175.588,180.8584,184.102,187.247,192.13,197.012,199.142,204.025,208.907,212.052" svgx:width="0.45,0.55,0.53,0.55,0.32,0.54,0.45,0.55,0.45,0.29,0.29,0.26,0.45,0.26,0.45,0.55,0.32,0.55,0.45,0.26,0.45,0.45,0.32,0.38,0.52,0.55,0.55,0.53,0.45,0.32,0.54,0.55,0.32,0.5,0.5,0.22,0.5,0.5,0.32,0.22" style="fill:rgb(23,22,21);font-family:AdvOTa9103878;font-size:9.76px;stroke:none;">and the efficient electron path [16,26].</text>
   <text y="263.42" x="64.689,69.965,72.703,77.579,83.06,86.92,91.312,94.969,99.84899999999999,103.526,107.377,111.94,117.265,121.125,125.689,129.647,134.21,139.799,143.142,146.8508,150.566,153.909,159.39,163.78199999999998,167.439,172.003,177.484,182.047,185.908,190.783,195.347,199.1,204.425,207.163,211.121,215.684,221.165,225.729,229.589,234.465,238.857,242.514,247.79,252.353,257.835,262.398,267.069,269.806,275.083,278.7918,282.448,287.724" svgx:width="0.52,0.26,0.48,0.54,0.38,0.45,0.55,0.5,0.55,0.38,0.45,0.53,0.38,0.45,0.38,0.45,0.55,0.32,0.38,0.55,0.32,0.54,0.45,0.55,0.45,0.54,0.45,0.38,0.48,0.45,0.36,0.53,0.26,0.38,0.45,0.54,0.45,0.38,0.48,0.45,0.55,0.52,0.45,0.54,0.45,0.46,0.26,0.52,0.38,0.55,0.52,0.29" style="fill:rgb(23,22,21);font-family:AdvOTa9103878;font-size:9.76px;stroke:none;">Figure 6 represents the charge-discharge behavior of</text>
   <text y="275.38" x="56.693,63.587,69.153,77.062,80.9,90.235,100.322,107.216,114.92,121.4592,125.29,129.938,135.299,143.716,149.185,154.546,158.589,161.411,164.839,169.231,173.061,177.709,180.532,185.18,189.829,193.257,197.202,202.563,208.031,212.738,216.4468,220.335,224.984,228.1072,231.956,236.34799999999998,240.178,244.142,248.791,252.219,256.611,260.44,265.821,268.6514,272.51,279.365,283.203,288.369" svgx:width="0.68,0.54,0.78,0.36,0.93,1.01,0.68,0.76,0.67,0.55,0.45,0.52,0.83,0.53,0.52,0.38,0.26,0.32,0.45,0.55,0.45,0.26,0.45,0.45,0.32,0.38,0.52,0.53,0.45,0.38,0.55,0.45,0.32,0.55,0.45,0.55,0.38,0.45,0.32,0.45,0.55,0.52,0.29,0.55,0.68,0.36,0.5,0.22" style="fill:rgb(23,22,21);font-family:AdvOTa9103878;font-size:9.76px;stroke:none;">CuO/MWCNT composite electrodes at a rate of C/5.</text>
   <text y="287.34" x="56.693,63.195,68.477,72.869,76.19,79.032,81.57,85.231,88.99,92.11319999999999,95.522,100.706,103.245,107.004,111.368,116.65,121.014,124.773,129.45,133.84199999999998,137.134,141.498,146.887,152.0598,155.45,159.814,165.096,169.46,173.121,177.798,182.19,185.55,189.915,194.279,199.463,203.827,208.192,210.837,213.981,216.52,220.884,224.59279999999998,228.011,234.816,239.181,242.842,247.234,250.575,255.456,257.585,262.466,267.348,272.228,275.579,279.943,285.332" svgx:width="0.67,0.54,0.45,0.55,0.29,0.26,0.38,0.38,0.32,0.55,0.53,0.26,0.38,0.45,0.54,0.45,0.38,0.48,0.45,0.55,0.45,0.55,0.53,0.55,0.45,0.54,0.45,0.38,0.48,0.45,0.55,0.45,0.45,0.53,0.45,0.45,0.26,0.32,0.26,0.45,0.38,0.55,0.7,0.45,0.38,0.45,0.55,0.5,0.22,0.5,0.5,0.5,0.55,0.45,0.55,0.53" style="fill:rgb(23,22,21);font-family:AdvOTa9103878;font-size:9.76px;stroke:none;">The first discharge and charge capacities were 1,025 and</text>
   <text y="299.3" x="56.693,61.731,66.769,71.649,75.273,83.562,90.49159999999999,94.106,99.37639999999999,103.01" svgx:width="0.5,0.5,0.5,0.55,0.83,0.71,0.55,0.54,0.55,0.48" style="fill:rgb(23,22,21);font-family:AdvOTa9103878;font-size:9.76px;stroke:none;">657 mA h g</text>
   <text y="295.03" x="107.887,110.721" svgx:width="0.36,0.5" style="fill:rgb(23,22,21);font-family:AdvOTa9103878;font-size:6.51px;stroke:none;">-1</text>
   <text y="299.339" x="114.576,116.72319999999999,120.304,124.156,128.692,132.623,137.979,142.515,147.051,150.367,153.077,157.721,162.257,164.967,169.503,171.65019999999998,175.231,179.767,185.328,190.5008,194.111,198.503,202.103,207.557,210.267,215.116,220.3864,224.016,227.849,232.386,237.029,241.565,245.398,249.329,252.039,257.288,259.998,264.39,267.991,272.527,277.063,282.419,286.955" svgx:width="0.22,0.55,0.38,0.45,0.38,0.53,0.45,0.45,0.32,0.26,0.46,0.45,0.26,0.45,0.22,0.55,0.45,0.55,0.53,0.55,0.45,0.55,0.54,0.26,0.48,0.54,0.55,0.38,0.45,0.46,0.45,0.38,0.38,0.26,0.52,0.26,0.45,0.55,0.45,0.45,0.53,0.45,0.36" style="fill:rgb(23,22,21);font-family:AdvOTa9103878;font-size:9.76px;stroke:none;">, respectively, and a high reversible capa-</text>
   <text y="311.299" x="56.689,61.334,64.172,67.635,72.027,75.853,81.249,84.07939999999999,87.934,92.618,98.063,103.566,107.547,112.875,117.978,120.836,129.229,133.913,137.317,142.001,144.859,149.251,153.076,158.238,163.4,168.28,172.184,180.578,187.5076,191.354,196.6244,200.538" svgx:width="0.45,0.26,0.32,0.45,0.55,0.52,0.29,0.55,0.45,0.53,0.53,0.38,0.52,0.49,0.26,0.83,0.45,0.32,0.45,0.26,0.45,0.55,0.5,0.5,0.5,0.55,0.83,0.71,0.55,0.54,0.55,0.48" style="fill:rgb(23,22,21);font-family:AdvOTa9103878;font-size:9.76px;stroke:none;">city of approximately 440 mA h g</text>
   <text y="306.936" x="205.455,208.46" svgx:width="0.36,0.5" style="fill:rgb(23,22,21);font-family:AdvOTa9103878;font-size:6.51px;stroke:none;">-1</text>
   <text y="311.301" x="216.0,221.326,226.71,230.162,234.834,237.68,243.377,248.048,253.2208,257.065,261.737,264.885,268.337,273.008,276.7168,280.551,285.711" svgx:width="0.52,0.52,0.32,0.45,0.26,0.55,0.45,0.53,0.55,0.45,0.29,0.32,0.45,0.38,0.55,0.5,0.5" style="fill:rgb(23,22,21);font-family:AdvOTa9103878;font-size:9.76px;stroke:none;">obtained after 20</text>
   <text y="323.261" x="56.691,61.172,65.653,70.184,72.839,77.321,81.197,83.3442,86.869,93.489,98.888,103.369,107.245,111.637,115.125,121.871,127.27,135.013,138.684,147.851,157.83,164.557,172.094,178.6332,182.131,186.612,191.845,200.078,205.411,210.626,214.485,217.123,220.415,224.807,228.296,233.795,238.259,243.816,248.992,252.9,256.143,259.904,265.286,269.818,273.061,278.501,282.262,286.794" svgx:width="0.45,0.45,0.45,0.26,0.45,0.38,0.22,0.55,0.67,0.54,0.45,0.38,0.45,0.55,0.68,0.54,0.78,0.36,0.93,1.01,0.68,0.76,0.67,0.55,0.45,0.52,0.83,0.53,0.52,0.38,0.26,0.32,0.45,0.55,0.55,0.45,0.55,0.52,0.38,0.32,0.38,0.54,0.45,0.32,0.54,0.38,0.45,0.38" style="fill:rgb(23,22,21);font-family:AdvOTa9103878;font-size:9.76px;stroke:none;">cycles. These CuO/MWCNT composite nanostructures</text>
   <text y="335.221" x="56.691,61.372,66.415,72.014,74.87,80.264,83.12,86.581,91.263,96.4358,100.338,104.72999999999999,108.612,114.212,117.067,122.061,127.661,132.342,136.0508,139.943,143.922,148.603,153.392,158.074,162.052,166.129,168.984,174.388,177.244,181.636,185.519,188.374,191.23,194.691,200.291,203.146,208.746,216.8468,220.769,224.855,228.317,233.711,237.689,242.371,247.365,251.757,255.639,260.321,265.002,270.504,275.186,279.867,282.723,286.184" svgx:width="0.45,0.49,0.54,0.26,0.52,0.26,0.32,0.45,0.53,0.55,0.45,0.55,0.54,0.26,0.48,0.54,0.45,0.38,0.55,0.38,0.45,0.46,0.45,0.38,0.38,0.26,0.52,0.26,0.45,0.55,0.26,0.26,0.32,0.54,0.26,0.54,0.83,0.55,0.38,0.32,0.52,0.38,0.45,0.48,0.45,0.55,0.45,0.45,0.53,0.45,0.45,0.26,0.32,0.45" style="fill:rgb(23,22,21);font-family:AdvOTa9103878;font-size:9.76px;stroke:none;">exhibited a higher reversible lithium storage capacity</text>
   <text y="347.182" x="56.691,61.174,66.682,71.8548,75.413,80.629,85.112,88.375,91.638,96.121,99.82979999999999,103.319,107.792,112.324,117.599,122.082,126.614,129.272,132.535,136.927,140.416,144.216,148.699,151.962,156.445,161.954,165.217,167.874,173.07,178.438,181.967,185.23,190.631,195.114,200.482,204.011,207.273,212.675,217.067,220.556,225.888,231.289,235.07,239.462,242.951,249.699,255.1,262.7128,266.272,271.78,276.264,281.772,286.968" svgx:width="0.45,0.55,0.53,0.55,0.52,0.45,0.32,0.32,0.45,0.38,0.55,0.45,0.45,0.53,0.45,0.45,0.26,0.32,0.45,0.55,0.38,0.45,0.32,0.45,0.55,0.32,0.26,0.52,0.55,0.55,0.32,0.54,0.45,0.55,0.55,0.32,0.54,0.45,0.55,0.53,0.54,0.38,0.45,0.55,0.68,0.54,0.78,0.55,0.55,0.45,0.55,0.52,0.36" style="fill:rgb(23,22,21);font-family:AdvOTa9103878;font-size:9.76px;stroke:none;">and better capacity retention than the pure CuO nano-</text>
   <text y="359.083" x="56.691,62.371,65.405,69.66,74.481,78.18979999999999,82.759,86.389,91.962,94.996,100.169,105.947,110.104,114.496,118.948,124.326,127.965,130.1122,134.603,141.63,147.408,151.79999999999998,156.252,160.507,166.187,171.047,175.869,178.903,182.24,185.275,189.667,194.177,198.998,203.878,209.558,214.418,219.279,222.313,225.953,230.345,234.855,240.428,243.2584,247.739,251.379,257.108,261.5,266.01,273.096,278.874,286.996" svgx:width="0.53,0.26,0.38,0.45,0.38,0.55,0.32,0.52,0.26,0.48,0.54,0.38,0.45,0.55,0.5,0.32,0.22,0.55,0.67,0.54,0.45,0.55,0.38,0.53,0.45,0.45,0.26,0.29,0.26,0.45,0.55,0.45,0.45,0.53,0.45,0.45,0.26,0.32,0.45,0.55,0.52,0.29,0.55,0.32,0.54,0.45,0.55,0.68,0.54,0.78,0.36" style="fill:rgb(23,22,21);font-family:AdvOTa9103878;font-size:9.76px;stroke:none;">discs (Figure 3). The specific capacity of the CuO/</text>
   <text y="371.043" x="56.691,65.946,76.012,82.827,90.452,96.99119999999999,100.655,105.244,110.526,118.864,124.253,129.535,133.499,136.243,139.592,144.161,147.8698,151.64,158.611,163.18,166.8888,170.61,175.179,179.143,182.492,185.236,193.574,198.143,201.492,206.061,211.2338,214.907,218.304,223.3792,227.033,232.364,236.756,240.418,245.466,250.553,257.385,261.039,265.92,269.787,274.356,278.925,282.274,286.843" svgx:width="0.93,1.01,0.68,0.76,0.67,0.55,0.45,0.52,0.83,0.53,0.52,0.38,0.26,0.32,0.45,0.38,0.55,0.7,0.45,0.38,0.55,0.45,0.38,0.32,0.26,0.83,0.45,0.32,0.45,0.53,0.55,0.32,0.52,0.55,0.52,0.45,0.55,0.5,0.5,0.7,0.55,0.48,0.38,0.45,0.45,0.32,0.45,0.38" style="fill:rgb(23,22,21);font-family:AdvOTa9103878;font-size:9.76px;stroke:none;">MWCNT composites was estimated to be 47% greater</text>
   <text y="383.004" x="56.691,60.334,66.116,70.98,76.348,81.634,85.278,91.06,95.875,98.9982,104.381,109.958,112.7884,118.122,123.806,129.588,133.749,138.141,143.388,150.497,156.279,163.8918,169.208,175.048,179.913,185.802,191.379,197.063,200.101,204.36,209.175,213.424,215.5712,220.905,227.878,233.66,236.698,240.4068,245.771,250.644,256.329,262.013,265.051,268.695,271.733,277.31,283.151,288.015" svgx:width="0.32,0.54,0.45,0.55,0.55,0.32,0.54,0.45,0.32,0.55,0.52,0.29,0.55,0.53,0.54,0.38,0.45,0.55,0.68,0.54,0.78,0.55,0.55,0.45,0.55,0.52,0.53,0.26,0.38,0.45,0.38,0.22,0.55,0.67,0.54,0.26,0.38,0.55,0.45,0.53,0.53,0.26,0.32,0.26,0.52,0.55,0.45,0.26" style="fill:rgb(23,22,21);font-family:AdvOTa9103878;font-size:9.76px;stroke:none;">than that of pure CuO nanodiscs. This additional</text>
   <text y="394.964" x="56.691,59.408,62.125,65.447,70.908,73.625,79.086,87.1868,90.873,94.811,98.133,103.389,107.229,111.772,116.627,121.01899999999999,124.617,129.159,133.702,139.065,143.608,148.151,150.868,154.191,158.583,162.18,164.897,170.265,173.912,177.234,182.695,187.087,190.684,197.483,202.943,210.747,214.48,223.709,233.749,240.537,248.136,254.6752,258.225,262.816,268.033,276.345,281.708,286.963" svgx:width="0.26,0.26,0.32,0.54,0.26,0.54,0.83,0.55,0.38,0.32,0.52,0.38,0.45,0.48,0.45,0.55,0.45,0.45,0.53,0.45,0.45,0.26,0.32,0.45,0.55,0.26,0.55,0.55,0.32,0.54,0.45,0.55,0.68,0.54,0.78,0.36,0.93,1.01,0.68,0.76,0.67,0.55,0.45,0.52,0.83,0.53,0.52,0.36" style="fill:rgb(23,22,21);font-family:AdvOTa9103878;font-size:9.76px;stroke:none;">lithium storage capacity in the CuO/MWCNT compo-</text>
   <text y="406.924" x="56.691,60.563,63.215,66.472,70.949,74.6578,78.209,86.426,90.904,95.29599999999999,98.73,102.504,106.865,110.835,116.22,118.872,121.9952,125.507,128.461,132.236,137.426,145.52679999999998,149.05,152.307,157.703,162.095,165.578,170.055,173.01,175.847,178.557,183.035,185.687,190.047,195.608,198.7312,202.243,206.721,209.373,213.85,218.21,221.555,225.301,230.491,235.859,239.333,242.59,246.364,250.842,256.227,260.099,265.397,270.587,274.362,277.4852,280.997,286.216" svgx:width="0.38,0.26,0.32,0.45,0.38,0.55,0.83,0.45,0.45,0.55,0.38,0.45,0.38,0.54,0.26,0.32,0.55,0.29,0.38,0.52,0.83,0.55,0.32,0.54,0.45,0.55,0.45,0.29,0.29,0.26,0.45,0.26,0.45,0.55,0.32,0.55,0.45,0.26,0.45,0.45,0.32,0.38,0.52,0.55,0.55,0.32,0.38,0.45,0.55,0.38,0.53,0.52,0.38,0.32,0.55,0.52,0.45" style="fill:rgb(23,22,21);font-family:AdvOTa9103878;font-size:9.76px;stroke:none;">sites may result from the efficient electron transport by</text>
   <text y="418.884" x="56.691,59.834,65.195,69.58699999999999,72.908,75.446,80.836,85.2,90.365,94.026,99.21,104.365,108.027,112.391,115.535,118.2,123.277,128.645,132.035,137.112,139.9424,143.312,152.362,162.223,168.833,176.253,182.79219999999998,186.173,188.711,194.079,197.45,202.732,205.27,210.035,215.3054,218.656,222.415,227.697,231.358,234.306,238.671,243.035,247.427,250.807,255.171,258.832,263.274,267.666,270.987,277.597,282.879" svgx:width="0.32,0.54,0.45,0.55,0.26,0.55,0.45,0.52,0.38,0.53,0.52,0.38,0.45,0.32,0.26,0.52,0.55,0.55,0.52,0.29,0.55,0.93,1.01,0.68,0.76,0.67,0.55,0.26,0.55,0.55,0.54,0.26,0.48,0.54,0.55,0.38,0.54,0.38,0.29,0.45,0.45,0.45,0.55,0.45,0.38,0.45,0.45,0.55,0.68,0.54,0.78" style="fill:rgb(23,22,21);font-family:AdvOTa9103878;font-size:9.76px;stroke:none;">the incorporation of MWCNT in high surface area CuO</text>
   <text y="430.844" x="56.691,62.279,66.843,72.431,77.707,81.665,85.008,88.869,94.35,98.913,102.256,107.738,111.598,116.161,120.12,122.2672,125.903,132.654,138.135,142.698,146.559,151.122,154.163,159.439,163.299,167.863,170.0102,173.646,178.923,182.282,187.78,192.36,196.0688,199.674,203.648,209.146,213.023,216.031,220.611,225.142,229.534,233.188,241.518,246.81,252.211,254.965,257.973,260.727,265.258,269.838,273.198,275.952,281.245,286.85" svgx:width="0.55,0.45,0.55,0.52,0.38,0.32,0.38,0.54,0.45,0.32,0.54,0.38,0.45,0.38,0.22,0.55,0.67,0.54,0.45,0.38,0.45,0.29,0.52,0.38,0.45,0.22,0.55,0.52,0.32,0.54,0.45,0.38,0.55,0.38,0.54,0.38,0.29,0.45,0.45,0.45,0.55,0.83,0.52,0.53,0.26,0.29,0.26,0.45,0.45,0.32,0.26,0.52,0.55,0.38" style="fill:rgb(23,22,21);font-family:AdvOTa9103878;font-size:9.76px;stroke:none;">nanostructures. Therefore, other surface modifications</text>
   <text y="442.804" x="56.691,62.475,66.737,69.739,75.632,80.3168,85.839,90.657,95.525,99.689,105.268,110.848,116.216,121.729,127.29,130.99880000000002,136.472,141.349,146.929,152.821,158.508,164.234,169.102,172.748,175.789,180.725,185.117,190.649,199.266,204.084,207.769,212.588,215.649,219.3578,224.89,229.766,235.346,241.131,244.172,249.3448,254.829,260.516,266.096,270.358,274.551,277.592,283.172,286.214" svgx:width="0.54,0.38,0.26,0.55,0.48,0.55,0.45,0.45,0.38,0.52,0.52,0.55,0.55,0.52,0.38,0.55,0.45,0.52,0.55,0.53,0.54,0.45,0.32,0.26,0.46,0.45,0.55,0.83,0.45,0.32,0.45,0.26,0.38,0.55,0.45,0.52,0.54,0.26,0.53,0.55,0.53,0.52,0.38,0.38,0.26,0.52,0.26,0.45" style="fill:rgb(23,22,21);font-family:AdvOTa9103878;font-size:9.76px;stroke:none;">using carbon or conductive metals could possibly</text>
   <text y="408.222" x="304.72,307.796,313.312,317.207,320.586,326.102,330.749,334.4578,338.121,340.893,349.261,354.679,358.575,363.886,368.592,372.984,376.696,381.294,384.067,388.666,393.313,396.691,400.587,405.898,410.497,416.013,420.612,428.979,431.752,436.35,440.949,443.4866,447.237,452.655,457.254,461.149,464.225,469.536,473.432,481.799,486.398,492.021,496.669,501.061,504.772,510.103,512.9334,516.684,520.081,525.598,530.196,534.189" svgx:width="0.29,0.54,0.38,0.32,0.54,0.45,0.38,0.55,0.26,0.83,0.53,0.38,0.52,0.46,0.45,0.55,0.45,0.26,0.45,0.45,0.32,0.38,0.52,0.45,0.54,0.45,0.83,0.26,0.45,0.45,0.26,0.55,0.53,0.45,0.38,0.29,0.52,0.38,0.83,0.45,0.55,0.45,0.45,0.55,0.52,0.29,0.55,0.32,0.54,0.45,0.38,0.45" style="fill:rgb(23,22,21);font-family:AdvOTa9103878;font-size:9.76px;stroke:none;">further improve electrochemical performance of these</text>
   <text y="420.183" x="304.72,311.33,316.612,324.2248,327.508,332.897,337.261,342.651,347.728,351.487,354.631,358.292,363.574,367.938,371.082,376.364,380.025,384.389,388.148" svgx:width="0.68,0.54,0.78,0.55,0.55,0.45,0.55,0.52,0.38,0.32,0.38,0.54,0.45,0.32,0.54,0.38,0.45,0.38,0.22" style="fill:rgb(23,22,21);font-family:AdvOTa9103878;font-size:9.76px;stroke:none;">CuO nanostructures.</text>
   <text y="444.133" x="304.724,310.809,316.679,322.661,327.34,330.111,335.98,340.362,343.133,349.002" svgx:width="0.59,0.57,0.58,0.45,0.27,0.57,0.43,0.27,0.57,0.58" style="fill:rgb(23,22,21);font-family:AdvOT3b30f6db.B;font-size:10.26px;stroke:none;">Conclusion</text>
   <text y="456.095" x="304.724,307.976,313.344,316.684,320.443,325.725,333.858,341.991,346.355,350.017,354.381,356.52819999999997,359.888,363.031,368.313,372.705,375.987,379.746,385.028,389.48,393.845,398.209,401.968,405.727,408.568,413.85,416.3876,419.757,422.295,427.372,434.177,437.731,440.875,445.239,453.489,458.674,463.038,466.699,471.063,474.207,479.489,483.15,487.542,490.903,494.661,499.026,504.415,507.559,512.841,517.205,520.964,523.503,527.2118,530.649,535.726" svgx:width="0.33,0.55,0.55,0.38,0.54,0.83,0.83,0.45,0.38,0.45,0.22,0.55,0.32,0.54,0.45,0.55,0.38,0.54,0.45,0.45,0.45,0.38,0.38,0.29,0.54,0.26,0.55,0.26,0.52,0.7,0.36,0.32,0.45,0.83,0.53,0.45,0.38,0.45,0.32,0.54,0.38,0.45,0.55,0.38,0.45,0.55,0.32,0.54,0.45,0.38,0.26,0.38,0.55,0.52,0.29" style="fill:rgb(23,22,21);font-family:AdvOTa9103878;font-size:9.76px;stroke:none;">In summary, the successful low-temperature synthesis of</text>
   <text y="468.055" x="304.724,310.065,315.503,320.024,323.939,328.42,332.159,337.5,342.938,346.756,351.14799999999997,354.693,359.731,363.441,370.56579999999997,374.152,380.898,386.336,394.118,397.828,400.523,406.068,409.368,413.889,417.706,420.401,424.921,429.442,433.923,439.0958,442.71,448.266,452.786,458.283,463.516,468.857,471.551,475.466,479.987,483.6958,487.3,494.261,498.781,502.4898,506.094,511.425,515.946,524.235,529.468,535.013" svgx:width="0.53,0.54,0.45,0.38,0.45,0.36,0.53,0.54,0.38,0.45,0.55,0.5,0.36,0.73,0.55,0.68,0.54,0.78,0.36,0.26,0.55,0.32,0.45,0.38,0.26,0.45,0.45,0.45,0.53,0.55,0.55,0.45,0.55,0.52,0.53,0.26,0.38,0.45,0.38,0.55,0.7,0.45,0.38,0.55,0.53,0.45,0.83,0.52,0.55,0.36" style="fill:rgb(23,22,21);font-family:AdvOTa9103878;font-size:9.76px;stroke:none;">phase-pure 2-D CuO-interlaced nanodiscs was demon-</text>
   <text y="480.015" x="304.724,308.681,312.023,315.883,320.445,323.787,328.35,333.5228,337.189,342.688,346.645,349.382,354.97,359.6548,363.301,367.258,369.995,378.326,383.708,386.445,390.837,394.493,399.875,404.438,409.918,414.481,419.863,423.723,428.998,433.873,438.435,444.023,448.585,451.927,454.664,459.939,465.307,468.954,474.278,477.1084,480.744,485.824,489.576,496.7008,500.348,507.146,512.626,515.968,523.792,531.508" svgx:width="0.38,0.32,0.38,0.45,0.32,0.45,0.53,0.55,0.54,0.38,0.26,0.55,0.48,0.55,0.38,0.26,0.83,0.53,0.26,0.45,0.55,0.53,0.45,0.54,0.45,0.53,0.38,0.52,0.48,0.45,0.55,0.45,0.32,0.26,0.52,0.55,0.55,0.52,0.29,0.55,0.5,0.36,0.73,0.55,0.68,0.54,0.32,0.78,0.77,0.32" style="fill:rgb(23,22,21);font-family:AdvOTa9103878;font-size:9.76px;stroke:none;">strated using simple dehydrogenation of 1-D Cu(OH)</text>
   <text y="481.607" x="534.898" svgx:width="0.5" style="fill:rgb(23,22,21);font-family:AdvOTa9103878;font-size:6.51px;stroke:none;">2</text>
   <text y="491.981" x="304.724,310.114,314.478,319.975,325.052,331.935,334.473,338.223,342.587,346.2958,349.734,354.098,357.2212,360.62,365.501,370.481,373.224,379.8608,383.183,385.79,391.158,394.518,398.277,403.354,406.029,411.311,414.533,417.072,422.149,427.626,429.7732,433.123,439.625,444.907,449.299,452.679,457.863,462.315,465.459,469.911,472.45,475.066,478.77479999999997,482.155,487.232,490.0624,493.49,496.634,501.994,506.386,509.707,514.384,518.045,523.258,530.064,533.295" svgx:width="0.55,0.45,0.55,0.52,0.7,0.26,0.38,0.45,0.38,0.55,0.45,0.32,0.55,0.5,0.5,0.28,0.68,0.55,0.26,0.55,0.55,0.38,0.52,0.26,0.54,0.32,0.26,0.52,0.55,0.22,0.55,0.67,0.54,0.45,0.55,0.53,0.45,0.32,0.45,0.26,0.26,0.38,0.55,0.52,0.29,0.55,0.32,0.54,0.45,0.55,0.48,0.38,0.52,0.7,0.32,0.54" style="fill:rgb(23,22,21);font-family:AdvOTa9103878;font-size:9.76px;stroke:none;">nanowires at 60°C in solution. The details of the growth</text>
   <text y="503.883" x="304.724,309.089,313.004,318.188,322.64,327.004,330.295,334.0038,337.441,342.596,345.4264,348.835,352.067,357.349,361.741,365.16,371.848,377.13,384.833,388.465,391.072,396.461,399.742,404.106,407.904,410.442,414.934,419.298,423.779,428.9518,432.342,437.731,442.203,447.699,452.776,458.078,460.685,464.444,468.905,472.61379999999997,476.052,482.965,487.329,491.068,495.46,498.83,502.687,507.969,512.782,517.459,521.911,525.768,528.911,533.364" svgx:width="0.45,0.38,0.53,0.45,0.45,0.32,0.38,0.55,0.52,0.29,0.55,0.32,0.54,0.45,0.55,0.68,0.54,0.78,0.36,0.26,0.55,0.32,0.45,0.38,0.26,0.45,0.45,0.45,0.53,0.55,0.55,0.45,0.55,0.52,0.53,0.26,0.38,0.45,0.38,0.55,0.7,0.45,0.38,0.45,0.55,0.38,0.54,0.48,0.48,0.45,0.38,0.32,0.45,0.53" style="fill:rgb(23,22,21);font-family:AdvOTa9103878;font-size:9.76px;stroke:none;">aspects of the CuO-interlaced nanodiscs were suggested</text>
   <text y="515.843" x="304.724,309.896,314.288,317.723,320.962,326.339,330.731,334.107,338.586,343.757,351.985,357.157,359.79,365.274,369.635,374.8078,378.312,382.791,385.726,388.565,393.092,397.453,400.741,404.4498,407.943,413.115,415.9454,419.409,422.648,428.024,432.416,435.852,441.014,444.77,447.403,451.862,457.248,460.536,465.014,470.1868,473.632,477.994,481.281,484.51,488.969,493.33,498.775,506.993,511.354,516.907,520.0302,523.484,527.963,533.349" svgx:width="0.52,0.45,0.55,0.32,0.54,0.45,0.55,0.45,0.52,0.83,0.52,0.26,0.55,0.45,0.53,0.55,0.45,0.29,0.29,0.45,0.45,0.32,0.38,0.55,0.52,0.29,0.55,0.32,0.54,0.45,0.55,0.52,0.38,0.26,0.45,0.55,0.32,0.45,0.53,0.55,0.45,0.32,0.32,0.45,0.45,0.54,0.83,0.45,0.55,0.32,0.55,0.45,0.55,0.53" style="fill:rgb(23,22,21);font-family:AdvOTa9103878;font-size:9.76px;stroke:none;">by the combined effects of the oriented attachment and</text>
   <text y="527.803" x="304.724,308.581,313.863,319.067,322.923,327.288,332.618,338.008,342.372,347.927,351.0502,354.508,359.78,362.387,366.146,370.041,375.196,377.803,383.193,386.424,389.031,394.186,399.576,403.256,408.529,412.268,416.632,421.172,423.779,429.051,431.658,434.89,439.254,442.544,445.151,450.306,455.674,459.152,464.424,468.163,473.318,477.683,482.223,485.982,489.877,494.241,497.9498,501.496,506.651,511.132,514.891,519.411,524.5838,528.032,533.188" svgx:width="0.38,0.54,0.52,0.38,0.45,0.53,0.54,0.45,0.55,0.32,0.55,0.53,0.26,0.38,0.38,0.52,0.26,0.54,0.32,0.26,0.52,0.55,0.36,0.53,0.38,0.45,0.45,0.26,0.53,0.26,0.32,0.45,0.32,0.26,0.52,0.55,0.55,0.53,0.38,0.52,0.45,0.45,0.38,0.38,0.45,0.38,0.55,0.52,0.45,0.38,0.45,0.53,0.55,0.52,0.55" style="fill:rgb(23,22,21);font-family:AdvOTa9103878;font-size:9.76px;stroke:none;">subsequent dissolution-precipitation processes based on</text>
   <text y="539.763" x="304.724,308.642,313.166,317.084,320.387,324.91,333.202,337.726,341.029,343.726,348.118,351.667,354.97,359.493,367.785,373.129,377.603,381.463,385.937,389.279,394.72,398.541,403.064,406.5776,410.204,414.679,420.237,425.4098,429.027,432.31,435.008,443.3,447.823,451.536,456.88,461.403,466.747,471.27,476.819,482.162,486.686,492.185,495.3082,498.935,507.266,512.502,516.322,521.666,527.107,532.343,535.041" svgx:width="0.38,0.45,0.38,0.32,0.45,0.83,0.45,0.32,0.26,0.45,0.55,0.32,0.45,0.83,0.53,0.45,0.38,0.45,0.32,0.54,0.38,0.45,0.36,0.55,0.45,0.55,0.53,0.55,0.32,0.26,0.83,0.45,0.36,0.53,0.45,0.53,0.45,0.55,0.53,0.45,0.55,0.32,0.55,0.83,0.52,0.38,0.53,0.54,0.52,0.26,0.36" style="fill:rgb(23,22,21);font-family:AdvOTa9103878;font-size:9.76px;stroke:none;">systematic temperature- and time-dependent morphol-</text>
   <text y="551.724" x="304.724,309.992,314.859,319.251,322.85,327.444,332.106,337.373,340.102,345.574,348.909,351.637,356.905,362.485,366.434,368.5812,372.219,378.912,384.384,388.939,392.888,397.28,400.879,407.679,413.152,420.7648,424.433,430.013,434.607,440.187,445.454,449.403,452.737,456.589,462.061,466.616,469.95,475.423,479.274,483.829,487.5378,491.254,496.726,501.32,506.4928,510.161,514.553,518.152,520.93,525.465,529.317,534.184" svgx:width="0.52,0.48,0.45,0.55,0.45,0.46,0.52,0.26,0.54,0.32,0.26,0.52,0.55,0.38,0.22,0.55,0.67,0.54,0.45,0.38,0.45,0.55,0.68,0.54,0.78,0.55,0.55,0.45,0.55,0.52,0.38,0.32,0.38,0.54,0.45,0.32,0.54,0.38,0.45,0.38,0.55,0.54,0.45,0.53,0.55,0.45,0.55,0.26,0.45,0.38,0.48,0.45" style="fill:rgb(23,22,21);font-family:AdvOTa9103878;font-size:9.76px;stroke:none;">ogy evolutions. These CuO nanostructures had a large</text>
   <text y="563.684" x="304.724,308.483,313.853,317.592,320.434,324.905,329.269,333.661,337.09,341.454,345.194,349.558,354.039,356.1862,359.595,363.959,369.231,374.415,378.184,383.261,388.162,390.701,398.931,403.295,406.527,410.891,413.557,417.949,421.319,426.2,431.08,434.47" svgx:width="0.38,0.54,0.38,0.29,0.45,0.45,0.45,0.55,0.45,0.38,0.45,0.45,0.22,0.55,0.45,0.53,0.53,0.38,0.52,0.49,0.26,0.83,0.45,0.32,0.45,0.26,0.45,0.55,0.5,0.5,0.55,0.83" style="fill:rgb(23,22,21);font-family:AdvOTa9103878;font-size:9.76px;stroke:none;">surface area, approximately 60 m</text>
   <text y="559.333" x="442.715" svgx:width="0.5" style="fill:rgb(23,22,21);font-family:AdvOTa9103878;font-size:6.51px;stroke:none;">2</text>
   <text y="563.698" x="449.745" svgx:width="0.48" style="fill:rgb(23,22,21);font-family:AdvOTa9103878;font-size:9.76px;stroke:none;">g</text>
   <text y="559.333" x="454.507,457.172" svgx:width="0.36,0.5" style="fill:rgb(23,22,21);font-family:AdvOTa9103878;font-size:6.51px;stroke:none;">-1</text>
   <text y="563.698" x="460.913,463.0602,466.469,470.833,476.33,481.5028,484.892,488.036,493.455,497.847,501.168,505.532,508.481,511.429,515.793,520.275,523.419,527.1278,530.595,535.75" svgx:width="0.22,0.55,0.45,0.55,0.53,0.55,0.32,0.54,0.45,0.55,0.45,0.29,0.29,0.45,0.45,0.32,0.38,0.55,0.52,0.29" style="fill:rgb(23,22,21);font-family:AdvOTa9103878;font-size:9.76px;stroke:none;">, and the effects of</text>
   <text y="575.658" x="304.728,308.155,313.72,318.368,321.189,324.8978,328.668,333.315,338.988,344.553,349.2,354.873,359.52,364.168,369.3408,373.179,377.827,382.474,385.901,388.723,393.429,397.82099999999997,401.649,405.672,408.494,411.92,416.568,420.2768,424.164,429.524,433.916,437.745,443.417,448.065,453.737,459.097,463.139,466.566,470.511,476.076,480.723,484.15,489.715,493.66,496.481,502.154,506.8388,510.658,516.047,521.4150000000001,525.234,528.691,534.256" svgx:width="0.32,0.54,0.45,0.26,0.38,0.55,0.45,0.55,0.54,0.45,0.55,0.45,0.45,0.53,0.55,0.45,0.45,0.32,0.26,0.46,0.45,0.55,0.38,0.26,0.32,0.45,0.38,0.55,0.52,0.45,0.55,0.55,0.45,0.55,0.52,0.38,0.32,0.38,0.54,0.45,0.32,0.54,0.38,0.26,0.55,0.48,0.55,0.52,0.55,0.55,0.32,0.54,0.45" style="fill:rgb(23,22,21);font-family:AdvOTa9103878;font-size:9.76px;stroke:none;">their enhanced active sites by nanostructuring on the</text>
   <text y="587.618" x="304.728,309.323,312.092,316.686,321.281,324.655,328.547,333.854,338.508,344.01,348.605,356.968,359.737,364.332,368.927,371.4646,375.22,380.635,385.288,389.18,392.251,397.559,401.45,409.814,414.408,420.077,424.672,429.064,432.781,438.108,440.9384,444.685,451.545,457.057,464.6698,468.398,473.051,478.32,483.832,486.601,491.7738,495.501,500.828,505.21999999999997,508.938,512.0,517.512,521.404,524.778,530.29,534.885" svgx:width="0.45,0.26,0.45,0.45,0.32,0.38,0.52,0.45,0.54,0.45,0.83,0.26,0.45,0.45,0.26,0.55,0.53,0.45,0.38,0.29,0.52,0.38,0.83,0.45,0.55,0.45,0.45,0.55,0.52,0.29,0.55,0.68,0.54,0.78,0.55,0.45,0.52,0.54,0.26,0.53,0.55,0.52,0.45,0.55,0.29,0.54,0.38,0.32,0.54,0.45,0.38" style="fill:rgb(23,22,21);font-family:AdvOTa9103878;font-size:9.76px;stroke:none;">electrochemical performance of CuO could be further</text>
   <text y="599.52" x="304.728,308.389,312.754,317.118,319.656,322.195,326.462,330.826,335.9988,339.31,344.387,348.779,352.012,355.156,360.438,364.83,368.054,370.592,375.981,380.346,385.423,389.084,394.268,399.345,403.007,407.371,410.515,413.053,418.13,423.498,426.849,431.926,434.7564,438.018,447.069,456.93,463.54,470.96,477.462,481.221" svgx:width="0.38,0.45,0.45,0.26,0.26,0.44,0.45,0.53,0.55,0.52,0.45,0.55,0.32,0.54,0.45,0.55,0.26,0.55,0.45,0.52,0.38,0.53,0.52,0.38,0.45,0.32,0.26,0.52,0.55,0.55,0.52,0.29,0.55,0.93,1.01,0.68,0.76,0.67,0.38,0.22" style="fill:rgb(23,22,21);font-family:AdvOTa9103878;font-size:9.76px;stroke:none;">realized by the incorporation of MWCNTs.</text>
   <text y="629.462" x="304.724,309.469,312.809,316.545,320.744,324.943,330.465,332.333,336.143,340.417,344.691,348.606,354.905,358.716,362.915,365.478" svgx:width="0.63,0.45,0.5,0.56,0.56,0.74,0.25,0.51,0.57,0.57,0.51,0.84,0.51,0.56,0.34,0.42" style="fill:rgb(23,22,21);font-family:AdvOTce3d9a73;font-size:7.47px;stroke:none;">Acknowledgements</text>
   <text y="638.42" x="304.724,308.146,312.114,313.668,316.35720000000003,318.898,321.073,324.652,327.371,330.95,334.29,336.464,339.73,343.6891,346.223,351.587,354.927,357.61620000000005,360.173,362.892,366.778,370.82,374.862,378.83,381.094,383.35,386.929,390.96279999999996,393.452,397.494,400.78080000000006,403.262,406.684,410.57,412.826,416.712,418.886,422.465,424.639,428.771,432.111,434.831,438.41,442.4438,444.925,448.347,451.926,455.191,459.159,463.126,467.094,468.738,472.705,476.747,480.03380000000004,482.516,487.335,490.914,494.254,497.833,499.387,503.354,507.397,513.464,517.043,521.01" svgx:width="0.46,0.53,0.21,0.36,0.55,0.29,0.48,0.36,0.48,0.45,0.29,0.44,0.53,0.55,0.72,0.45,0.36,0.55,0.36,0.52,0.54,0.54,0.53,0.29,0.3,0.48,0.54,0.55,0.54,0.44,0.55,0.46,0.52,0.3,0.52,0.29,0.48,0.29,0.54,0.45,0.36,0.48,0.54,0.55,0.46,0.48,0.44,0.53,0.53,0.53,0.21,0.53,0.54,0.44,0.55,0.64,0.48,0.45,0.48,0.21,0.53,0.54,0.81,0.48,0.53,0.3" style="fill:rgb(23,22,21);font-family:AdvOT07517017;font-size:7.47px;stroke:none;">This research was supported by Future-based Technology Development</text>
   <text y="647.379" x="304.724,308.46,310.634,314.602,318.644,320.819,324.158,330.2087,332.788,334.731,339.476,342.816,346.783,350.7421,353.254,356.676,358.23,361.809,363.363,367.405,370.125,372.0672,374.63,377.97,381.938,385.9718,388.461,390.717,394.685,398.2706,400.759,404.495,406.67,408.224,412.191,414.365,415.92,418.176,421.4628,424.004,427.74,431.319,434.039,437.618,440.958,443.132,446.397,450.35609999999997,452.92,457.119,460.698,464.666,466.922,470.501,472.675,475.3642,477.921,481.656,483.831,487.798,491.84,494.015,497.355,503.4057,505.925,508.181,512.149,514.323,518.291,522.251,526.293" svgx:width="0.5,0.29,0.53,0.54,0.29,0.45,0.81,0.55,0.26,0.63,0.45,0.53,0.53,0.55,0.46,0.21,0.48,0.21,0.54,0.36,0.26,0.55,0.45,0.53,0.54,0.55,0.3,0.53,0.48,0.55,0.5,0.29,0.21,0.53,0.29,0.21,0.3,0.44,0.55,0.5,0.48,0.36,0.48,0.45,0.29,0.44,0.53,0.55,0.56,0.48,0.53,0.3,0.48,0.29,0.36,0.55,0.5,0.29,0.53,0.54,0.29,0.45,0.81,0.55,0.3,0.53,0.29,0.53,0.52,0.54,0.53" style="fill:rgb(23,22,21);font-family:AdvOT07517017;font-size:7.47px;stroke:none;">Program (Nano Fields) and the Priority Research Centers Program through</text>
   <text y="656.338" x="304.724,306.981,310.948,314.5336,317.023,321.767,325.107,327.364,328.918,332.885,336.853,340.193,341.76169999999996,344.295,348.031,351.61,354.33,357.909,361.248,363.423,366.688,370.64709999999997,373.211,376.633,380.6,384.486,388.453,392.496,395.835,398.092,399.646,403.614,407.57309999999995,410.121,414.089,416.0312,418.572,422.226,426.193,428.368,431.947,435.3085,437.79,439.732,444.477,448.213,451.635,453.5772,456.103,458.046,461.931,465.898,469.941,473.52,477.55379999999997,480.087,484.13,487.4168,489.898,492.154,496.122,499.7076,502.196,507.95,509.504,513.471,515.026,517.745,520.002,522.176,525.4628,527.989,531.957" svgx:width="0.3,0.53,0.48,0.55,0.63,0.45,0.3,0.21,0.53,0.53,0.45,0.21,0.55,0.5,0.48,0.36,0.48,0.45,0.29,0.44,0.53,0.55,0.46,0.53,0.52,0.53,0.54,0.45,0.3,0.21,0.53,0.53,0.55,0.53,0.26,0.55,0.49,0.53,0.29,0.48,0.45,0.55,0.26,0.63,0.5,0.46,0.26,0.55,0.26,0.52,0.53,0.54,0.48,0.54,0.55,0.54,0.44,0.55,0.3,0.53,0.48,0.55,0.77,0.21,0.53,0.21,0.36,0.3,0.29,0.44,0.55,0.53,0.26" style="fill:rgb(23,22,21);font-family:AdvOT07517017;font-size:7.47px;stroke:none;">the National Research Foundation of Korea (NRF) funded by the Ministry of</text>
   <text y="665.296" x="304.724,308.146,312.189,316.074,319.339,322.679,324.936,326.49,330.457,334.425,335.6949,338.228,341.65,344.915,346.469,350.048,354.016,357.281,360.8666,363.4,366.74,370.708,374.7418,377.231,380.653,384.232,387.497,391.464,395.432,399.399,400.954,405.011,409.053,412.3398,414.821,416.764,420.343,423.922,427.501,431.08,433.254,436.833,440.412,443.991,447.57,451.149,454.728,458.3136,460.855,464.195,468.162,472.19579999999996,474.685,478.264,481.843,485.422,489.001,491.175,494.754,498.333,501.912,505.581,509.16,512.739,516.318,518.261" svgx:width="0.46,0.54,0.52,0.44,0.45,0.3,0.21,0.53,0.53,0.17,0.55,0.46,0.44,0.21,0.48,0.53,0.44,0.48,0.55,0.45,0.53,0.54,0.55,0.46,0.48,0.44,0.53,0.53,0.53,0.21,0.53,0.54,0.44,0.55,0.26,0.48,0.48,0.48,0.48,0.29,0.48,0.48,0.48,0.48,0.48,0.48,0.48,0.55,0.45,0.53,0.54,0.55,0.48,0.48,0.48,0.48,0.29,0.48,0.48,0.48,0.48,0.48,0.48,0.48,0.26,0.17" style="fill:rgb(23,22,21);font-family:AdvOT07517017;font-size:7.47px;stroke:none;">Education, Science and Technology (2010-0019116 and 2010-0029617).</text>
   <text y="683.266" x="304.724,309.469,313.668,316.231,320.43,324.629,327.274,330.465,332.18309999999997,334.656,337.996,342.195,346.395,348.957,351.602,353.47,357.826,362.026,364.588,366.456,370.656,374.855" svgx:width="0.63,0.56,0.34,0.56,0.56,0.35,0.42,0.23,0.55,0.45,0.56,0.56,0.34,0.35,0.25,0.58,0.56,0.34,0.25,0.56,0.56,0.42" style="fill:rgb(23,22,21);font-family:AdvOTce3d9a73;font-size:7.47px;stroke:none;">Authors’ contributions</text>
   <text y="692.225" x="304.724,308.146,310.321,315.14,318.5762,321.11,324.375,327.715,329.889,332.064,333.618,337.197,341.2308,343.727,347.695,351.58,353.82099999999997,356.369,358.626,362.593,366.1786,368.668,372.867,376.752,381.75690000000003,384.262,387.601,391.569,395.6028,398.092,402.291,406.176,411.153,413.798,419.551,425.618,429.817,434.562,437.9982,440.502,443.222,446.561,452.629,456.671,458.225,461.8106,464.314,468.357,470.531,474.177,478.219,481.559,483.734,487.074,489.33,490.884,494.852,498.81109999999995,501.33,504.67,508.637,512.6708,515.22,519.262,521.436,524.776,526.719,528.975,532.554" svgx:width="0.46,0.29,0.64,0.46,0.55,0.44,0.45,0.29,0.29,0.21,0.48,0.54,0.55,0.53,0.52,0.3,0.55,0.3,0.53,0.48,0.55,0.56,0.52,0.67,0.55,0.45,0.53,0.54,0.55,0.56,0.52,0.67,0.34,0.77,0.81,0.56,0.63,0.46,0.55,0.36,0.45,0.81,0.54,0.21,0.48,0.55,0.54,0.29,0.48,0.54,0.45,0.29,0.45,0.3,0.21,0.53,0.53,0.55,0.45,0.53,0.54,0.55,0.54,0.29,0.45,0.26,0.3,0.48,0.54" style="fill:rgb(23,22,21);font-family:AdvOT07517017;font-size:7.47px;stroke:none;">S-DS carried out the CuO and CuO/MWCNT sample preparation and drafted</text>
   <text y="701.184" x="304.724,306.981,310.948,314.5336,317.023,323.09,326.43,330.397,334.283,337.002,340.268,342.442,343.996,348.038,350.295,351.5649,354.098,357.834,360.008,364.678,367.241,368.5109,370.992,374.414,376.588,381.258,384.598,385.8679,388.393,391.733,395.701,399.7348,402.224,406.894,409.068,415.135,418.5712,421.105,425.147,428.487,430.661,432.918,434.472,437.737,439.291,443.334,446.674,448.93,452.509,456.5428,459.092,460.646,464.6051,467.139,473.206,474.76,478.025,480.199,484.167,486.887,489.143,491.317,495.203,498.468,500.724,504.61,506.784,510.124,511.6927,514.248,517.588,521.556" svgx:width="0.3,0.53,0.48,0.55,0.81,0.45,0.53,0.52,0.36,0.44,0.29,0.21,0.54,0.3,0.17,0.55,0.5,0.29,0.63,0.34,0.17,0.55,0.46,0.29,0.63,0.45,0.17,0.55,0.45,0.53,0.54,0.55,0.63,0.29,0.81,0.46,0.55,0.54,0.45,0.29,0.3,0.21,0.44,0.21,0.54,0.45,0.3,0.48,0.54,0.55,0.21,0.53,0.55,0.81,0.21,0.44,0.29,0.53,0.36,0.3,0.29,0.52,0.44,0.3,0.52,0.29,0.45,0.21,0.55,0.45,0.53,0.54" style="fill:rgb(23,22,21);font-family:AdvOT07517017;font-size:7.47px;stroke:none;">the manuscript. Y-HJ, S-HL, and H-WS participated in microstructural and</text>
   <text y="710.142" x="304.724,308.303,309.857,313.436,316.702,318.958,321.132,325.1,328.365,332.333,335.912,341.979,343.533,346.798,350.25,351.8187,354.277,357.617,361.585,364.925,366.479,369.744,372.464,376.043,378.762,380.0319,382.565,387.385,389.559,395.626,399.2863,401.783,405.825,409.404,412.124,413.678,417.72,421.688,425.267,429.3008,431.887,434.143,438.111,441.6966,444.185,446.905,449.162,453.047,457.089,460.354,461.6239,464.083,465.637,469.216,472.556,476.58979999999997,479.161,481.417,485.385,488.9706,491.459,495.502,497.056,499.775,503.041,506.926,509.646,512.365,513.92,517.887,521.8461,524.395,528.363" svgx:width="0.48,0.21,0.48,0.44,0.3,0.29,0.53,0.44,0.53,0.48,0.81,0.21,0.44,0.45,0.21,0.55,0.45,0.53,0.45,0.21,0.44,0.36,0.48,0.36,0.17,0.55,0.64,0.29,0.81,0.49,0.55,0.54,0.48,0.36,0.21,0.54,0.53,0.48,0.54,0.55,0.3,0.53,0.48,0.55,0.36,0.3,0.52,0.54,0.44,0.17,0.55,0.21,0.48,0.45,0.54,0.55,0.3,0.53,0.48,0.55,0.54,0.21,0.36,0.44,0.52,0.36,0.36,0.21,0.53,0.53,0.55,0.53,0.26" style="fill:rgb(23,22,21);font-family:AdvOT07517017;font-size:7.47px;stroke:none;">electrochemical analyses. D-WK designed the study, lead the discussion of</text>
   <text y="719.101" x="304.724,306.981,310.948,314.5336,317.023,319.197,322.776,325.496,329.381,330.935,333.192,335.88120000000004,338.452,341.792,345.759,349.7928,352.342,356.384,359.724,361.898,364.155,365.709,368.974,370.528,374.571,377.91,380.167,383.746,387.77979999999997,390.329,391.883,395.84209999999996,398.376,403.74,405.915,407.469,409.725,411.28,415.247,419.2808,421.792,424.049,428.016,431.6016,434.091,440.158,443.498,447.465,451.351,454.16,457.425,459.6,461.154,465.196,467.452,468.7219,471.166,475.522,477.076,478.6447,481.141,484.481,488.366,490.623,494.59,498.558,500.814,503.5032,506.029,508.204,511.783,515.122,519.1558,521.675,525.015,528.983" svgx:width="0.3,0.53,0.48,0.55,0.29,0.48,0.36,0.52,0.21,0.3,0.36,0.55,0.45,0.53,0.54,0.55,0.54,0.45,0.29,0.3,0.21,0.44,0.21,0.54,0.45,0.3,0.48,0.54,0.55,0.21,0.53,0.55,0.72,0.29,0.21,0.3,0.21,0.53,0.54,0.55,0.3,0.53,0.48,0.55,0.81,0.45,0.53,0.52,0.36,0.44,0.29,0.21,0.54,0.3,0.17,0.55,0.58,0.21,0.21,0.55,0.45,0.52,0.3,0.53,0.53,0.29,0.36,0.55,0.29,0.48,0.45,0.54,0.55,0.45,0.53,0.54" style="fill:rgb(23,22,21);font-family:AdvOT07517017;font-size:7.47px;stroke:none;">the results and participated in writing the manuscript. All authors read and</text>
   <text y="728.06" x="304.724,308.064,312.106,316.149,318.323,322.29,325.63,329.209,333.2428,335.792,338.048,342.016,345.6016,348.091,350.033,351.587,355.555,358.895,360.46369999999996,363.004,369.071,372.411,376.379,380.264,382.984,386.249,388.423,389.978,394.02,396.276" svgx:width="0.45,0.54,0.54,0.29,0.53,0.45,0.48,0.54,0.55,0.3,0.53,0.48,0.55,0.26,0.21,0.53,0.45,0.21,0.55,0.81,0.45,0.53,0.52,0.36,0.44,0.29,0.21,0.54,0.3,0.17" style="fill:rgb(23,22,21);font-family:AdvOT07517017;font-size:7.47px;stroke:none;">approved the final manuscript.</text>
  </g>
  <path style="fill:rgb(23,22,21);stroke:none;stroke-width:1.0;" d="M60.660 470.720 L286.580 470.720 L286.580 471.000 L60.660 471.000 "/>
  <path style="fill:rgb(23,22,21);stroke:none;stroke-width:0.25;" d="M286.580 470.720 L287.260 470.780 C289.030 471.280 290.100 472.170 290.490 474.010 L290.550 474.750 L290.330 474.750 L290.270 474.070 C289.950 472.500 288.780 471.350 287.210 471.060 L286.580 471.000 "/>
  <path style="fill:rgb(23,22,21);stroke:none;stroke-width:0.25;" d="M290.550 474.750 L290.550 726.240 L290.320 726.240 L290.320 474.750 "/>
  <path style="fill:rgb(23,22,21);stroke:none;stroke-width:0.25;" d="M290.550 726.240 L290.490 726.920 C290.260 728.550 288.890 729.910 287.260 730.150 L286.580 730.200 L286.580 729.980 L287.210 729.920 C288.670 729.700 290.050 728.330 290.270 726.860 L290.320 726.240 "/>
  <path style="fill:rgb(23,22,21);stroke:none;stroke-width:0.25;" d="M286.580 730.200 L60.660 730.200 L60.660 729.980 L286.580 729.980 "/>
  <path style="fill:rgb(23,22,21);stroke:none;stroke-width:0.25;" d="M60.660 730.200 L59.980 730.150 C58.350 729.910 56.990 728.550 56.750 726.920 L56.690 726.240 L56.920 726.240 L56.980 726.860 C57.190 728.330 58.570 729.700 60.040 729.920 L60.660 729.980 "/>
  <path style="fill:rgb(23,22,21);stroke:none;stroke-width:0.25;" d="M56.690 726.240 L56.690 474.750 L56.920 474.750 L56.920 726.240 "/>
  <path style="fill:rgb(23,22,21);stroke:none;stroke-width:0.25;" d="M56.690 474.750 L56.750 474.010 C57.100 472.270 58.300 471.210 59.980 470.780 L60.660 470.720 L60.660 471.000 L60.040 471.060 C58.460 471.350 57.290 472.500 56.980 474.070 L56.920 474.750 "/>
  <rect style="fill:pink;opacity:0.2;stroke:blue;stroke-width:0.3;" x="62.922" y="483.197" height="215.196" width="223.164" title="6"/>
  <text y="483.197" class="image" id="image.6.1" width="223" height="215" x="62.922" style="font-size:5.0px;">image.6.1.63_286.483_698</text>
  <g begin="text">
   <text y="690.949" x="66.339,67.728,68.233,69.497,70.761,71.518,72.782,73.414" svgx:width="0.61,0.22,0.56,0.56,0.33,0.56,0.28,0.56" style="fill:rgb(190,70,148);font-family:Helvetica;font-size:2.27px;stroke:none;">Figure 5</text>
  </g>
  <g begin="text">
   <text y="704.069" x="62.929,67.245,69.568,74.386,79.117,82.277,86.4214,89.478" svgx:width="0.52,0.27,0.58,0.57,0.38,0.52,0.55,0.55" style="fill:rgb(23,22,21);font-family:AdvOT3b30f6db.B;font-size:7.97px;stroke:none;">Figure 5</text>
   <text y="704.069" x="96.89,101.707,105.861,109.594,111.756,113.918,117.50450000000001,120.552,124.707,129.356,131.518,134.422,138.577,145.465,152.354,156.589,159.54,162.491,166.47600000000003,169.523,172.188,176.837,179.6265,182.673,187.49,192.139,195.13,199.19469999999998,202.218,207.034,211.683,217.262,220.246,224.44,229.089,233.6319,236.632,241.448,246.097,251.822,254.646,261.367,268.423,273.24,278.717" svgx:width="0.58,0.5,0.45,0.25,0.25,0.45,0.55,0.5,0.56,0.25,0.34,0.5,0.84,0.84,0.51,0.34,0.35,0.5,0.55,0.31,0.56,0.35,0.55,0.58,0.56,0.35,0.51,0.55,0.58,0.56,0.7,0.55,0.5,0.56,0.57,0.55,0.58,0.56,0.7,0.33,0.82,0.86,0.58,0.67,0.52" style="fill:rgb(23,22,21);font-family:AdvOTce3d9a73;font-size:7.97px;stroke:none;">Cyclic voltammetry for pure CuO and CuO/MWCNT</text>
   <text y="704.069" x="283.01" svgx:width="0.17" style="fill:rgb(23,22,21);font-family:AdvOT07517017;font-size:7.97px;stroke:none;">.</text>
   <text y="713.992" x="62.929,67.408,70.891,74.374,76.032,77.69,81.1968,83.795,87.358,91.59,93.248,95.655,99.217,105.689,112.161,115.979,118.386,120.705,124.2118,126.77,131.003,133.0752,135.729,140.041,144.185,146.505,150.3306,152.96,157.44,161.584,166.9239,169.515,173.077,177.309,181.6128,184.251,188.731,192.875,198.183,200.917,207.054,213.526,217.926,222.987,226.6532,229.267,232.75,236.982,243.454,247.766,251.998,254.899,256.557,258.964" svgx:width="0.56,0.44,0.44,0.21,0.21,0.44,0.55,0.45,0.53,0.21,0.3,0.45,0.81,0.81,0.48,0.3,0.29,0.44,0.55,0.53,0.26,0.55,0.54,0.52,0.29,0.48,0.55,0.56,0.52,0.67,0.55,0.45,0.53,0.54,0.55,0.56,0.52,0.67,0.34,0.77,0.81,0.56,0.63,0.46,0.55,0.44,0.53,0.81,0.54,0.53,0.36,0.21,0.3,0.48" style="fill:rgb(23,22,21);font-family:AdvOT07517017;font-size:7.97px;stroke:none;">Cyclic voltammetry of pure CuO and CuO/MWCNT composite</text>
   <text y="723.971" x="62.929,67.161,70.724,74.956,79.188,82.089,84.496,86.816,90.96,94.443,96.85,100.915,103.234,107.052,109.92120000000001,112.591,114.249,118.47309999999999,121.151,123.558,127.791,131.6166,134.191,136.263,137.921,140.24,143.141,145.53199999999998,148.194,150.601,154.419,158.6431,161.289,164.772,168.255,171.738,173.396,177.214,180.115" svgx:width="0.53,0.45,0.53,0.53,0.36,0.3,0.29,0.52,0.44,0.3,0.52,0.29,0.48,0.36,0.55,0.21,0.53,0.55,0.3,0.53,0.48,0.55,0.26,0.21,0.29,0.36,0.3,0.55,0.3,0.48,0.53,0.55,0.44,0.44,0.44,0.21,0.48,0.36,0.17" style="fill:rgb(23,22,21);font-family:AdvOT07517017;font-size:7.97px;stroke:none;">nanostructures in the first ten cycles.</text>
  </g>
  <path style="fill:rgb(23,22,21);stroke:none;stroke-width:0.25;" d="M308.690 89.690 L534.610 89.690 L534.610 89.920 L308.690 89.920 "/>
  <path style="fill:rgb(23,22,21);stroke:none;stroke-width:0.25;" d="M534.610 89.690 L535.290 89.750 C536.920 89.990 538.290 91.350 538.530 92.980 L538.580 93.660 L538.360 93.660 L538.300 92.980 C537.990 91.410 536.810 90.260 535.240 89.970 L534.610 89.920 "/>
  <path style="fill:rgb(23,22,21);stroke:none;stroke-width:0.25;" d="M538.580 93.660 L538.580 369.520 L538.360 369.520 L538.360 93.660 "/>
  <path style="fill:rgb(23,22,21);stroke:none;stroke-width:0.25;" d="M538.580 369.520 L538.530 370.200 C538.350 371.820 536.800 373.180 535.290 373.440 L534.610 373.490 L534.610 373.210 L535.240 373.150 C536.790 372.960 538.010 371.650 538.300 370.150 L538.360 369.520 "/>
  <path style="fill:rgb(23,22,21);stroke:none;stroke-width:0.25;" d="M534.610 373.490 L308.690 373.490 L308.690 373.210 L534.610 373.210 "/>
  <path style="fill:rgb(23,22,21);stroke:none;stroke-width:0.25;" d="M308.690 373.490 L308.010 373.440 C306.510 373.180 304.960 371.820 304.780 370.200 L304.720 369.520 L304.950 369.520 L305.010 370.150 C305.300 371.650 306.520 372.960 308.070 373.150 L308.690 373.210 "/>
  <path style="fill:rgb(23,22,21);stroke:none;stroke-width:0.25;" d="M304.720 369.520 L304.720 93.660 L304.950 93.660 L304.950 369.520 "/>
  <path style="fill:rgb(23,22,21);stroke:none;stroke-width:0.25;" d="M304.720 93.660 L304.780 92.980 C305.020 91.350 306.380 89.980 308.010 89.740 L308.690 89.690 L308.690 89.910 L308.070 89.970 C306.550 90.200 305.280 91.510 305.010 92.980 L304.950 93.660 "/>
  <rect style="fill:pink;opacity:0.2;stroke:blue;stroke-width:0.3;" x="310.932" y="102.137" height="219.606" width="223.201" title="6"/>
  <text y="102.137" class="image" id="image.6.2" width="223" height="219" x="310.932" style="font-size:5.0px;">image.6.2.311_534.102_322</text>
  <g begin="text">
   <text y="314.257" x="314.483,315.918,316.439,317.745,319.05,319.832,321.138,321.791" svgx:width="0.61,0.22,0.56,0.56,0.33,0.56,0.28,0.56" style="fill:rgb(190,70,148);font-family:Helvetica;font-size:2.35px;stroke:none;">Figure 6</text>
  </g>
  <g begin="text">
   <text y="327.402" x="310.961,315.105,317.257,321.904,326.463,329.451,333.59540000000004,336.242" svgx:width="0.52,0.27,0.58,0.57,0.38,0.52,0.55,0.55" style="fill:rgb(23,22,21);font-family:AdvOT3b30f6db.B;font-size:7.97px;stroke:none;">Figure 6</text>
   <text y="327.402" x="343.272,347.918,352.398,356.383,359.204,363.763,367.828,370.315,374.874,376.866,380.182,383.744,388.224,392.145,394.967,399.525,403.5897,406.26,410.907,414.972,419.451,423.436,427.421,429.414,433.893,436.68249999999995,439.313,443.792,446.2627,448.949,453.595,458.075,463.63,466.284,472.835,479.722,484.368,489.597,493.7414,496.403,499.966,504.445,511.164,515.811,520.29,523.606,525.598,528.332" svgx:width="0.58,0.56,0.5,0.35,0.57,0.51,0.31,0.57,0.25,0.42,0.45,0.56,0.5,0.35,0.57,0.51,0.55,0.58,0.51,0.56,0.5,0.5,0.25,0.56,0.35,0.55,0.56,0.31,0.55,0.58,0.56,0.7,0.33,0.82,0.86,0.58,0.67,0.52,0.55,0.45,0.56,0.84,0.58,0.56,0.42,0.25,0.34,0.51" style="fill:rgb(23,22,21);font-family:AdvOTce3d9a73;font-size:7.97px;stroke:none;">Charge-discharge behavior of CuO/MWCNT composite</text>
   <text y="337.381" x="310.961,315.025,317.018,321.083,324.645,327.379,330.201,334.68,339.239,343.216" svgx:width="0.51,0.25,0.51,0.45,0.34,0.35,0.56,0.57,0.51,0.42" style="fill:rgb(23,22,21);font-family:AdvOTce3d9a73;font-size:7.97px;stroke:none;">electrodes</text>
   <text y="337.381" x="346.563,347.9179,350.533,355.426,358.989,360.647,364.21,367.772,372.004,376.237,379.138,381.545,385.107,387.443,389.1,392.6068,395.269,399.581,401.239,404.14,407.623,411.855,415.418,417.737,421.97,425.787,428.521,432.004,436.236,439.799,442.118,446.43,450.2556,452.87,456.433,460.665,462.323,464.73,468.292,472.604,476.4296,479.06,483.372,485.691,489.924,491.996,493.654,495.311,499.129,501.9982,504.629,508.861,510.9332,513.587,518.066,522.211,527.519" svgx:width="0.17,0.55,0.61,0.45,0.21,0.45,0.45,0.53,0.53,0.36,0.3,0.45,0.3,0.21,0.44,0.55,0.54,0.21,0.36,0.44,0.53,0.45,0.29,0.54,0.48,0.34,0.44,0.53,0.45,0.29,0.54,0.48,0.55,0.45,0.53,0.21,0.3,0.45,0.54,0.48,0.55,0.54,0.29,0.53,0.26,0.21,0.21,0.48,0.36,0.55,0.53,0.26,0.55,0.56,0.52,0.67,0.34" style="fill:rgb(23,22,21);font-family:AdvOT07517017;font-size:7.97px;stroke:none;">. Galvanostatic discharge/charge voltage profiles of CuO/</text>
   <text y="347.359" x="310.961,317.098,323.569,328.049,333.11,336.7762,339.366,342.849,347.082,353.553,357.865,362.097,364.999,366.656,369.063,372.8886,375.479,379.712,383.274,387.506,391.739,394.64,397.047,399.366,403.511,406.89,409.297,413.441,415.761,419.579,422.4482,425.142,428.704,431.095,433.758,437.3445,439.934,442.254,445.816,448.224,452.0496,454.727,458.959,461.0312,463.63,468.109,470.843,474.661,476.0159,478.654,480.312,484.544,487.445,491.263,493.654,496.284,499.185,503.417,507.649,513.372,516.2411999999999,518.903,521.31,525.542" svgx:width="0.77,0.81,0.56,0.63,0.46,0.55,0.44,0.53,0.81,0.54,0.53,0.36,0.21,0.3,0.48,0.55,0.53,0.45,0.53,0.53,0.36,0.3,0.29,0.52,0.44,0.3,0.52,0.29,0.48,0.36,0.55,0.45,0.3,0.55,0.45,0.55,0.29,0.45,0.3,0.48,0.55,0.53,0.26,0.55,0.56,0.34,0.48,0.17,0.55,0.21,0.53,0.36,0.48,0.3,0.55,0.36,0.53,0.53,0.72,0.36,0.55,0.3,0.53,0.48" style="fill:rgb(23,22,21);font-family:AdvOT07517017;font-size:7.97px;stroke:none;">MWCNT composite nanostructures at a rate of C/5. Inset shows the</text>
   <text y="357.282" x="310.961,314.444,318.676,325.148,329.459,333.022,335.341,336.999,339.821,344.053,348.2771,350.931,355.163,357.2352,359.89,362.791,367.103,370.92,374.403,376.061,378.134,379.791,383.2978,385.912,389.395,392.958,397.27,400.833,404.316,405.973,408.38,410.038,413.856,416.7252,419.363,421.021,425.24510000000004,427.868,432.179,436.324,438.643,442.4686,445.099,449.578,453.723,459.0629,461.653,465.216,469.448,473.7518,476.39,480.869,485.014,490.322,493.056,499.193,505.665,510.144,515.205" svgx:width="0.44,0.53,0.81,0.54,0.45,0.29,0.21,0.36,0.53,0.53,0.55,0.53,0.26,0.55,0.36,0.54,0.48,0.44,0.21,0.26,0.21,0.44,0.55,0.44,0.45,0.54,0.45,0.44,0.21,0.3,0.21,0.48,0.36,0.55,0.21,0.53,0.55,0.54,0.52,0.29,0.48,0.55,0.56,0.52,0.67,0.55,0.45,0.53,0.54,0.55,0.56,0.52,0.67,0.34,0.77,0.81,0.56,0.63,0.46" style="fill:rgb(23,22,21);font-family:AdvOT07517017;font-size:7.97px;stroke:none;">comparison of specific capacities in pure CuO and CuO/MWCNT</text>
   <text y="367.261" x="310.961,314.444,318.676,325.148,329.459,333.692,336.593,338.251,340.658,344.4836,347.074,351.306,354.868,359.101,363.333,366.234,368.641,370.96,375.105,378.484,380.891,385.036,387.355,391.173,394.074" svgx:width="0.44,0.53,0.81,0.54,0.53,0.36,0.21,0.3,0.48,0.55,0.53,0.45,0.53,0.53,0.36,0.3,0.29,0.52,0.44,0.3,0.52,0.29,0.48,0.36,0.17" style="fill:rgb(23,22,21);font-family:AdvOT07517017;font-size:7.97px;stroke:none;">composite nanostructures.</text>
   <text y="40.307" x="56.695,60.593,64.578" svgx:width="0.49,0.5,0.54" style="fill:rgb(23,22,21);font-family:AdvOT46dcae81;font-size:7.97px;stroke:none;">Seo</text>
   <text y="40.307" x="71.552,75.114,77.5847,80.223,84.368" svgx:width="0.45,0.31,0.55,0.52,0.22" style="fill:rgb(23,22,21);font-family:AdvOT65f8a23b.I;font-size:7.97px;stroke:none;">et al</text>
   <text y="40.307" x="86.121" svgx:width="0.2" style="fill:rgb(23,22,21);font-family:AdvOT46dcae81;font-size:7.97px;stroke:none;">.</text>
   <text y="40.307" x="90.314,95.295,99.439,103.672,107.816,110.717,114.033,118.177,119.915,123.50150000000001,126.084,130.228,133.791,136.692,140.255,144.399,146.886,150.202,154.4261,157.04,160.523,164.086,166.572,169.059,172.622,175.109" svgx:width="0.63,0.52,0.53,0.52,0.36,0.42,0.52,0.22,0.45,0.55,0.52,0.45,0.36,0.45,0.52,0.31,0.42,0.53,0.55,0.44,0.45,0.31,0.31,0.45,0.31,0.36" style="fill:rgb(23,22,21);font-family:AdvOT65f8a23b.I;font-size:7.97px;stroke:none;">Nanoscale Research Letters</text>
   <text y="40.307" x="180.68,184.745,188.809,192.874,196.939" svgx:width="0.51,0.51,0.51,0.51,0.2" style="fill:rgb(23,22,21);font-family:AdvOT46dcae81;font-size:7.97px;stroke:none;">2011,</text>
   <text y="40.307" x="201.147" svgx:width="0.55" style="fill:rgb(23,22,21);font-family:AdvOT3b30f6db.B;font-size:7.97px;stroke:none;">6</text>
   <text y="40.307" x="205.515,207.085,211.15,215.215" svgx:width="0.2,0.51,0.51,0.51" style="fill:rgb(23,22,21);font-family:AdvOT46dcae81;font-size:7.97px;stroke:none;">:397</text>
   <text y="50.23" x="56.695,61.095,63.661,66.228,70.707,72.277,74.931,77.585,83.395,89.126,94.936,96.506,100.906,104.724,109.123,113.435,116.583,120.146,123.964,125.789,129.774,132.34,136.238,139.386,141.211,145.196,147.763,150.329,151.899,155.462,159.774,166.413,169.067,172.63,176.886,181.285,183.852,187.837,192.237,194.803,197.457,201.522,204.176,208.241,210.895,214.872,218.937" svgx:width="0.55,0.32,0.32,0.56,0.2,0.33,0.33,0.73,0.73,0.73,0.2,0.55,0.48,0.55,0.54,0.4,0.45,0.48,0.23,0.5,0.32,0.5,0.4,0.23,0.5,0.32,0.32,0.2,0.45,0.54,0.83,0.33,0.45,0.54,0.55,0.32,0.5,0.55,0.32,0.33,0.51,0.33,0.51,0.33,0.51,0.51,0.51" style="fill:rgb(23,22,21);font-family:AdvOT46dcae81;font-size:7.97px;stroke:none;">http://www.nanoscalereslett.com/content/6/1/397</text>
   <text y="40.307" x="499.472,503.704,507.522,511.921,515.906,518.521,522.5857,525.263,529.575,531.8863,534.501" svgx:width="0.53,0.48,0.55,0.5,0.55,0.51,0.55,0.54,0.29,0.55,0.51" style="fill:rgb(23,22,21);font-family:AdvOT46dcae81;font-size:7.97px;stroke:none;">Page 6 of 7</text>
  </g>
 </g>
</svg>
