<?xml version="1.0" encoding="UTF-8"?>
<svg height="740.2" width="2572.922" xmlns="http://www.w3.org/2000/svg">
 <g id="page" xmlns:svgx="http://www.xml-cml.org/schema/svgx">
  <g begin="text">
   <text y="96.095" x="56.693,62.273,67.14,72.007,77.375,81.306,86.173,91.041,96.767,101.029,105.896,111.0688,115.019,120.58,124.972,128.913,132.54,138.325,142.71699999999998,146.599,150.861,153.902,159.082,164.925,167.966,171.31,174.352,179.219,184.086,189.929,193.0522,197.013,201.997,207.577,210.618,216.344,225.019,229.411,233.293,238.17,243.955,248.773,254.665,259.845,264.237,268.178,273.904,279.591,285.171" svgx:width="0.52,0.45,0.45,0.55,0.55,0.45,0.45,0.54,0.38,0.45,0.53,0.55,0.52,0.45,0.55,0.32,0.54,0.45,0.55,0.38,0.26,0.48,0.55,0.26,0.29,0.26,0.45,0.45,0.55,0.32,0.55,0.46,0.52,0.26,0.54,0.83,0.45,0.55,0.45,0.54,0.45,0.55,0.48,0.45,0.55,0.54,0.53,0.52,0.55" style="fill:rgb(23,22,21);font-family:AdvOTa9103878;font-size:9.76px;stroke:none;">been caused by the significant volume change upon</text>
   <text y="108.055" x="56.693,61.055,65.417,69.78,72.316,74.853,80.24,84.92479999999999,87.688,90.83,95.709,100.589,103.731" svgx:width="0.45,0.45,0.45,0.26,0.26,0.55,0.48,0.55,0.32,0.5,0.5,0.32,0.22" style="fill:rgb(23,22,21);font-family:AdvOTa9103878;font-size:9.76px;stroke:none;">cycling [27].</text>
   <text y="120.015" x="64.689,70.255,75.821,79.972,88.594,93.447,97.08,100.108,105.674,111.042,119.334,124.949,127.7794,136.061,140.914,146.48,155.102,160.776,166.391,170.639,173.666,177.299,182.153,185.8618,194.231,199.797,204.189,212.442,215.469,221.348,226.201,231.816,235.967,241.64,247.206,251.357,256.21,259.843,262.871,268.437,273.805,282.097,287.712" svgx:width="0.52,0.52,0.38,0.83,0.45,0.32,0.26,0.52,0.55,0.55,0.52,0.29,0.55,0.45,0.52,0.83,0.53,0.52,0.38,0.26,0.32,0.45,0.38,0.55,0.52,0.45,0.55,0.26,0.55,0.45,0.52,0.38,0.53,0.52,0.38,0.45,0.32,0.26,0.52,0.55,0.55,0.52,0.29" style="fill:rgb(23,22,21);font-family:AdvOTa9103878;font-size:9.76px;stroke:none;">Formation of composites by incorporation of</text>
   <text y="131.975" x="56.693,65.912,75.892,82.669,90.258,96.928,100.6368,103.784,108.316,112.848,118.216,121.354,126.706,130.535,135.78,140.42,143.126,148.479,152.871,155.901,160.433,165.801,168.939,173.471,179.028,184.478,189.01,194.568,199.1,203.632,208.8048,211.913,216.446,219.152,223.684,228.216,231.528,235.357,240.602,246.16,248.866,253.258,256.288,260.82,266.065,271.622,276.975,282.425,286.957" svgx:width="0.93,1.01,0.68,0.76,0.67,0.38,0.55,0.45,0.45,0.55,0.55,0.53,0.38,0.52,0.46,0.26,0.53,0.45,0.55,0.45,0.55,0.55,0.45,0.55,0.54,0.45,0.55,0.45,0.45,0.53,0.55,0.45,0.26,0.45,0.45,0.32,0.38,0.52,0.55,0.26,0.45,0.55,0.45,0.52,0.55,0.53,0.54,0.45,0.36" style="fill:rgb(23,22,21);font-family:AdvOTa9103878;font-size:9.76px;stroke:none;">MWCNTs can provide an enhanced electronic conduc-</text>
   <text y="143.935" x="56.693,60.081,62.912,67.628,70.41,73.867,78.259,81.463,86.852,89.6824,92.974,97.582,100.413,105.022,109.669,113.057,116.962,122.352,127.79,132.398,136.1068,139.487,144.095,149.767,154.9398,158.213,162.86,165.643,170.29,174.293,177.681,180.463,184.855,188.118,193.439,198.965,202.08,205.194,209.783,213.747,217.4558,220.777,223.891,229.222,232.9308,236.134,240.05,244.697,247.47,252.117,256.764,260.787,263.57,269.242,273.9268,277.18,280.577,286.103" svgx:width="0.32,0.26,0.46,0.26,0.32,0.45,0.55,0.52,0.29,0.55,0.45,0.26,0.45,0.45,0.32,0.38,0.52,0.53,0.45,0.38,0.55,0.45,0.55,0.53,0.55,0.45,0.26,0.45,0.38,0.32,0.26,0.45,0.55,0.52,0.54,0.29,0.29,0.45,0.38,0.38,0.55,0.29,0.52,0.38,0.55,0.38,0.45,0.26,0.45,0.45,0.38,0.26,0.55,0.48,0.55,0.32,0.54,0.45" style="fill:rgb(23,22,21);font-family:AdvOTa9103878;font-size:9.76px;stroke:none;">tivity of electrodes and elastic buffers for releasing the</text>
   <text y="155.896" x="56.693,60.81,64.312,68.332,73.054,75.951,81.31899999999999,84.794,90.229,93.0594,96.582,103.55,109.191,116.8038,120.299,125.851,131.491,135.511,138.408,144.155,148.8398,152.315,155.827,161.467,165.859,169.343,175.188,177.7256,181.2,185.922,191.358,197.105,201.935,206.658,210.677,214.795,217.691,223.127,228.495,231.969,235.989,240.712,245.434,250.157,253.659,256.556,261.991,267.359,270.892,274.394,279.634,284.874,288.376" svgx:width="0.38,0.32,0.38,0.45,0.26,0.55,0.55,0.52,0.29,0.55,0.68,0.54,0.78,0.55,0.53,0.54,0.38,0.26,0.55,0.48,0.55,0.32,0.54,0.45,0.55,0.56,0.26,0.55,0.45,0.52,0.55,0.46,0.45,0.38,0.38,0.26,0.52,0.55,0.55,0.38,0.45,0.45,0.45,0.32,0.26,0.52,0.55,0.55,0.32,0.5,0.5,0.32,0.22" style="fill:rgb(23,22,21);font-family:AdvOTa9103878;font-size:9.76px;stroke:none;">strain of CuO during the Li conversion reaction [28].</text>
   <text y="167.797" x="56.693,61.922,64.613,69.442,74.876,78.69,83.082,86.116,91.15,95.542,98.576,102.487,107.921,113.151,120.108,123.8168,126.909,130.196,135.63,140.022,143.056,149.916,156.063,163.18779999999998,166.213,171.54,176.056,179.352,182.649,187.165,190.979,196.347,199.43,204.698,207.5284,210.591,213.888,219.322,223.714,226.748,233.491,238.925,246.702,250.409,259.612,269.625,276.387,283.96" svgx:width="0.52,0.26,0.48,0.54,0.38,0.45,0.55,0.5,0.45,0.55,0.38,0.54,0.52,0.7,0.38,0.55,0.32,0.54,0.45,0.55,0.69,0.61,0.73,0.55,0.53,0.45,0.32,0.32,0.45,0.38,0.55,0.55,0.52,0.29,0.55,0.32,0.54,0.45,0.55,0.68,0.54,0.78,0.36,0.93,1.01,0.68,0.76,0.67" style="fill:rgb(23,22,21);font-family:AdvOTa9103878;font-size:9.76px;stroke:none;">Figure 4a shows the XRD pattern of the CuO/MWCNT</text>
   <text y="179.757" x="56.693,61.057,66.212,74.345,79.529,84.753,88.512,91.05,94.272,98.636,102.493,104.6402,107.482,114.092,119.169,127.439,132.623,136.987,140.766,145.13,150.3028,153.185,156.328,161.4032,164.295,167.439,172.799,177.191,179.995,186.702,192.804,199.9288,202.724,207.908,212.361,215.504,218.765,223.13,226.869,232.237,235.09,240.167,242.9974,245.859,251.043,256.403,260.143,264.53499999999997,267.338,273.948,279.298,286.924" svgx:width="0.45,0.52,0.83,0.53,0.52,0.38,0.26,0.32,0.45,0.38,0.22,0.55,0.68,0.52,0.83,0.53,0.45,0.38,0.45,0.53,0.55,0.32,0.52,0.55,0.32,0.54,0.45,0.55,0.69,0.61,0.73,0.55,0.53,0.45,0.32,0.32,0.45,0.38,0.55,0.55,0.52,0.29,0.55,0.53,0.54,0.38,0.45,0.55,0.68,0.54,0.78,0.36" style="fill:rgb(23,22,21);font-family:AdvOTa9103878;font-size:9.76px;stroke:none;">composites. Compared to the XRD pattern of pure CuO-</text>
   <text y="191.718" x="56.693,59.724,65.607,69.244,74.101,78.255,81.287,86.144,91.001,95.859,101.03179999999999,105.891,111.773,116.63,122.513,128.083,133.76,136.792,141.044,145.901,149.6098,154.517,158.144,163.714,166.746,171.916,177.691,181.845,186.237,191.028,196.402,201.26,204.896,207.04319999999998,211.872,215.509,221.284,226.142,229.2652,234.133,239.703,242.5334,247.353,251.038,256.764,261.156,266.006,273.089,278.864,286.982" svgx:width="0.26,0.55,0.32,0.45,0.38,0.26,0.45,0.45,0.45,0.53,0.55,0.55,0.45,0.55,0.52,0.53,0.26,0.38,0.45,0.38,0.55,0.32,0.52,0.26,0.48,0.54,0.38,0.45,0.55,0.5,0.45,0.32,0.22,0.55,0.32,0.54,0.45,0.32,0.55,0.52,0.29,0.55,0.32,0.54,0.45,0.55,0.68,0.54,0.78,0.36" style="fill:rgb(23,22,21);font-family:AdvOTa9103878;font-size:9.76px;stroke:none;">interlaced nanodiscs (Figure 1a), that of the CuO/</text>
   <text y="203.678" x="56.693,65.963,76.044,82.873,90.513,97.0522,100.203,104.797,110.094,118.446,123.85,129.147,133.126,135.884,139.247,143.831,147.53979999999999,150.749,154.717,160.219,165.516,172.541,177.124,182.2968,185.458,190.051,195.41899999999998,198.609,203.203,208.607,214.011,216.769,220.132,222.89,228.187,233.796,238.38,240.9176,244.106,249.491,254.075,258.659,263.539,266.709,271.293,274.4162,277.644,282.745,287.788" svgx:width="0.93,1.01,0.68,0.76,0.67,0.55,0.45,0.52,0.83,0.53,0.52,0.38,0.26,0.32,0.45,0.38,0.55,0.38,0.54,0.52,0.7,0.45,0.53,0.55,0.45,0.55,0.55,0.45,0.53,0.53,0.26,0.32,0.26,0.52,0.55,0.45,0.26,0.55,0.53,0.45,0.45,0.5,0.55,0.45,0.32,0.55,0.5,0.5,0.28" style="fill:rgb(23,22,21);font-family:AdvOTa9103878;font-size:9.76px;stroke:none;">MWCNT composites showed an additional peak at 25°</text>
   <text y="96.075" x="304.722,309.799,314.191,316.966,320.109,325.47,329.862,332.616,341.667,351.528,358.138,365.558,372.0972,374.911,380.096,385.378,389.742,393.501,397.865,400.0122,402.864,407.941,411.602,416.757,424.8578,427.643,432.03499999999997,434.839,439.203,444.28,452.413,457.598,462.05,465.711,468.249,472.008,477.085,482.453,485.296,490.373,493.2034,496.065,499.209,504.491,508.883,511.657,518.463,522.827,525.365,530.14,535.422" svgx:width="0.52,0.45,0.55,0.32,0.54,0.45,0.55,0.93,1.01,0.68,0.76,0.67,0.55,0.53,0.54,0.45,0.38,0.45,0.22,0.55,0.52,0.38,0.52,0.83,0.55,0.45,0.55,0.45,0.52,0.83,0.53,0.45,0.38,0.26,0.38,0.52,0.55,0.55,0.52,0.29,0.55,0.32,0.54,0.45,0.55,0.7,0.45,0.26,0.48,0.54,0.32" style="fill:rgb(23,22,21);font-family:AdvOTa9103878;font-size:9.76px;stroke:none;">by the MWCNT phase. From a comparison of the weight</text>
   <text y="108.035" x="304.722,307.433,312.681,316.651,320.3598,323.511,328.76,333.296,336.612,343.588,348.125,352.719,358.087,361.17,366.556,372.01,375.843,380.235,383.269,390.07,395.524,403.1368,406.24,410.835,416.386,421.5588,424.662,431.404,436.907,444.675,448.4,457.623,467.656,474.437,482.029,488.5682,491.613,496.208,501.427,509.732,515.088,520.337,524.268,526.978,530.294,534.83" svgx:width="0.26,0.52,0.38,0.38,0.55,0.52,0.45,0.32,0.7,0.45,0.45,0.55,0.55,0.53,0.54,0.38,0.45,0.55,0.68,0.54,0.78,0.55,0.45,0.55,0.53,0.55,0.68,0.54,0.78,0.36,0.93,1.01,0.68,0.76,0.67,0.55,0.45,0.52,0.83,0.53,0.52,0.38,0.26,0.32,0.45,0.38" style="fill:rgb(23,22,21);font-family:AdvOTa9103878;font-size:9.76px;stroke:none;">loss between pure CuO and CuO/MWCNT composites</text>
   <text y="119.996" x="304.722,310.117,313.988,316.639,322.14,326.8248,329.79,334.182,337.108,340.364,345.758,350.234,354.008,362.253,367.442,372.231,376.005,380.364,385.017,387.667,395.912,400.389,403.645,407.419,410.069,414.461,417.387,421.864,427.365,431.842,434.493,438.969,443.348,447.707,451.4158,454.4,457.686,464.3,471.628,478.604,481.889,484.0362,486.99,490.217,495.612,500.004,502.978,505.629,511.13,515.607,520.796,524.57,529.866,535.056" svgx:width="0.54,0.38,0.26,0.55,0.48,0.55,0.45,0.55,0.32,0.54,0.45,0.38,0.83,0.52,0.48,0.38,0.45,0.46,0.26,0.83,0.45,0.32,0.38,0.26,0.45,0.55,0.45,0.55,0.45,0.26,0.45,0.44,0.45,0.38,0.55,0.32,0.67,0.74,0.71,0.32,0.22,0.55,0.32,0.54,0.45,0.55,0.26,0.55,0.45,0.52,0.38,0.53,0.52,0.36" style="fill:rgb(23,22,21);font-family:AdvOTa9103878;font-size:9.76px;stroke:none;">using a thermogravimetric analyzer (TGA), the incorpo-</text>
   <text y="131.956" x="304.722,308.873,313.726,317.359,322.212,327.3848,331.45,336.264,344.886,350.501,356.272,362.151,365.2742,369.347,374.904,377.7344,381.817,391.337,401.688,408.786,416.696,423.2352,427.241,430.269,435.637,439.682,443.315,449.086,453.478,457.532,462.347,467.961,476.574,482.247,487.813,492.061,495.089,498.722,503.575,507.2838,511.397,516.27,521.836,525.986,530.137,534.99" svgx:width="0.38,0.45,0.32,0.45,0.53,0.55,0.45,0.83,0.52,0.54,0.55,0.32,0.55,0.52,0.29,0.55,0.93,1.01,0.68,0.76,0.67,0.55,0.26,0.55,0.55,0.32,0.54,0.45,0.55,0.45,0.52,0.83,0.53,0.52,0.38,0.26,0.32,0.45,0.38,0.55,0.45,0.52,0.38,0.38,0.45,0.36" style="fill:rgb(23,22,21);font-family:AdvOTa9103878;font-size:9.76px;stroke:none;">rated amount of MWCNT in the composites corre-</text>
   <text y="143.916" x="304.722,308.481,313.666,318.743,324.132,329.316,333.681,338.8538,341.628,344.772,349.8472,352.573,356.937,362.121,367.306,370.967,376.044,380.818,383.357,391.49,395.854,398.998,403.362,405.9,410.292,413.067,417.948,422.83,429.635,431.7822,434.556,438.92,442.6288,445.384,449.142,454.424,459.501,466.306,471.674,474.469,477.007,482.375,485.13,490.207,492.746,497.422,502.704,506.366,510.758,513.474,518.355,523.432" svgx:width="0.38,0.53,0.52,0.55,0.53,0.45,0.53,0.55,0.32,0.52,0.55,0.45,0.53,0.53,0.38,0.52,0.49,0.26,0.83,0.45,0.32,0.45,0.26,0.45,0.55,0.5,0.5,0.7,0.22,0.55,0.45,0.38,0.55,0.38,0.54,0.52,0.7,0.55,0.55,0.26,0.55,0.55,0.52,0.26,0.48,0.54,0.38,0.45,0.55,0.5,0.52,0.22" style="fill:rgb(23,22,21);font-family:AdvOTa9103878;font-size:9.76px;stroke:none;">sponded to approximately 13%, as shown in Figure 4b.</text>
   <text y="155.876" x="312.719,317.888,320.519,325.289,330.664,334.418,338.81,342.302,347.178,351.704,353.925,359.0978,362.6,366.451,371.728,376.996,383.796,387.5048,391.104,394.331,398.788,404.065,406.696,411.153,415.61,418.1476,421.619,426.789,432.369,437.441,443.021,452.0978,455.552,458.164,466.39,470.847,475.616,480.073,483.7818,487.273,492.433,495.2634,498.784,502.011,507.386,511.778,515.211,521.914,527.289,535.007" svgx:width="0.52,0.26,0.48,0.54,0.38,0.45,0.55,0.5,0.45,0.22,0.53,0.55,0.38,0.54,0.52,0.7,0.38,0.55,0.32,0.45,0.53,0.26,0.45,0.45,0.26,0.55,0.52,0.56,0.51,0.56,0.93,0.55,0.26,0.83,0.45,0.48,0.45,0.38,0.55,0.52,0.29,0.55,0.32,0.54,0.45,0.55,0.68,0.54,0.78,0.36" style="fill:rgb(23,22,21);font-family:AdvOTa9103878;font-size:9.76px;stroke:none;">Figure 4c,d shows typical FESEM images of the CuO/</text>
   <text y="167.778" x="304.722,313.773,323.634,330.244,337.664,344.2032,347.584,351.948,357.025,365.158,370.43,375.507,379.266,381.882,385.026,389.39,391.5372,394.868,403.918,413.779,420.389,427.917,434.419,438.1278,441.527,448.332,452.696,456.358,460.75,464.09,467.849,473.102,477.466,480.61,483.148,487.513,490.168,492.707,497.099,500.371,505.555,508.094,511.94,517.125,521.489,525.15,529.007,533.371" svgx:width="0.93,1.01,0.68,0.76,0.67,0.55,0.45,0.52,0.83,0.53,0.52,0.38,0.26,0.32,0.45,0.22,0.55,0.93,1.01,0.68,0.76,0.67,0.38,0.55,0.7,0.45,0.38,0.45,0.55,0.38,0.53,0.45,0.32,0.26,0.45,0.26,0.26,0.45,0.55,0.53,0.26,0.38,0.53,0.45,0.38,0.38,0.45,0.53" style="fill:rgb(23,22,21);font-family:AdvOTa9103878;font-size:9.76px;stroke:none;">MWCNT composite. MWCNTs were spatially dispersed</text>
   <text y="179.738" x="304.722,307.48,312.848,316.556,319.919,325.421,329.813,333.471,338.064,343.361,351.714,357.118,362.414,366.393,369.151,372.514,377.098,380.8068,384.582,391.607,394.365,397.728,403.23,408.527,414.028,417.1512,420.946,425.481,431.09,435.48199999999997,439.198,443.792,449.196,454.6,458.481,463.065,467.649,470.407,474.991,480.288,483.046,487.438,491.154,495.738,500.635,505.531,508.289,513.586,521.938,526.522,530.403,534.987" svgx:width="0.26,0.55,0.55,0.32,0.54,0.45,0.55,0.45,0.52,0.83,0.53,0.52,0.38,0.26,0.32,0.45,0.38,0.55,0.7,0.26,0.32,0.54,0.52,0.54,0.32,0.55,0.45,0.55,0.45,0.55,0.45,0.53,0.53,0.38,0.45,0.45,0.26,0.45,0.52,0.26,0.45,0.55,0.45,0.48,0.48,0.26,0.52,0.83,0.45,0.38,0.45,0.36" style="fill:rgb(23,22,21);font-family:AdvOTa9103878;font-size:9.76px;stroke:none;">in the composites without any appreciable agglomera-</text>
   <text y="191.698" x="304.722,307.866,310.405,315.482,320.871,323.0182,326.319,329.57,334.938,338.279,342.643,347.828,353.012,355.551,358.694,361.233,366.31,371.699,373.8462,377.167,380.311,385.593,389.985,393.267,401.399,406.476,410.138,415.322,420.604,425.681,428.22,433.404,438.081,442.473,445.764,450.841,453.6714,456.992,463.602,468.884,476.4968,479.78,482.319,487.687,491.008,494.152,499.434,503.826,507.108,511.472,516.549,524.682,529.866,534.943" svgx:width="0.32,0.26,0.52,0.55,0.22,0.55,0.33,0.55,0.55,0.45,0.53,0.53,0.26,0.32,0.26,0.52,0.55,0.22,0.55,0.32,0.54,0.45,0.55,0.83,0.52,0.38,0.53,0.54,0.52,0.26,0.52,0.48,0.45,0.55,0.52,0.29,0.55,0.68,0.54,0.78,0.55,0.26,0.55,0.55,0.32,0.54,0.45,0.55,0.45,0.52,0.83,0.53,0.52,0.36" style="fill:rgb(23,22,21);font-family:AdvOTa9103878;font-size:9.76px;stroke:none;">tion. In addition, the morphology of CuO in the compo-</text>
   <text y="203.658" x="304.722,308.481,311.127,314.359,318.723,322.4318,325.928,332.733,337.205,340.9138,344.352,347.193,352.407,357.689,363.176,368.3488,371.738,374.97,380.0452,383.415,388.57,392.962,396.332,404.465,409.659,413.418,416.689,419.296,423.688,427.009,432.281,435.942,438.578,446.799,451.163,454.903,459.295,462.665,468.054,472.526,477.915,483.129,488.313,490.949,494.708,499.17,503.027,505.1742,508.523,513.913,519.126,522.2492,525.648,528.88,534.162" svgx:width="0.38,0.26,0.32,0.45,0.38,0.55,0.7,0.45,0.38,0.55,0.29,0.52,0.54,0.55,0.53,0.55,0.32,0.52,0.55,0.52,0.45,0.55,0.83,0.52,0.38,0.32,0.26,0.45,0.55,0.53,0.38,0.26,0.83,0.45,0.38,0.45,0.55,0.55,0.45,0.55,0.52,0.53,0.26,0.38,0.45,0.38,0.22,0.55,0.55,0.52,0.32,0.55,0.32,0.54,0.45" style="fill:rgb(23,22,21);font-family:AdvOTa9103878;font-size:9.76px;stroke:none;">sites was found to be mostly primary nanodiscs, not the</text>
  </g>
  <path style="fill:rgb(23,22,21);stroke:none;stroke-width:1.0;" d="M60.660 227.230 L534.610 227.230 L534.610 227.450 L60.660 227.450 "/>
  <path style="fill:rgb(23,22,21);stroke:none;stroke-width:0.25;" d="M534.610 227.230 L535.290 227.280 C536.920 227.520 538.290 228.880 538.530 230.510 L538.580 231.200 L538.360 231.200 L538.300 230.570 C538.080 229.110 536.700 227.730 535.240 227.510 L534.610 227.450 "/>
  <path style="fill:rgb(23,22,21);stroke:none;stroke-width:0.25;" d="M538.580 231.190 L538.580 726.240 L538.360 726.240 L538.360 231.190 "/>
  <path style="fill:rgb(23,22,21);stroke:none;stroke-width:0.25;" d="M538.580 726.240 L538.530 726.920 C538.290 728.550 536.920 729.910 535.290 730.150 L534.610 730.200 L534.610 729.980 L535.240 729.920 C536.700 729.700 538.080 728.330 538.300 726.860 L538.360 726.240 "/>
  <path style="fill:rgb(23,22,21);stroke:none;stroke-width:0.25;" d="M534.610 730.200 L60.660 730.200 L60.660 729.980 L534.610 729.980 "/>
  <path style="fill:rgb(23,22,21);stroke:none;stroke-width:0.25;" d="M60.660 730.200 L59.980 730.150 C58.350 729.910 56.990 728.550 56.750 726.920 L56.690 726.240 L56.920 726.240 L56.980 726.860 C57.190 728.330 58.570 729.700 60.040 729.920 L60.660 729.980 "/>
  <path style="fill:rgb(23,22,21);stroke:none;stroke-width:0.25;" d="M56.690 726.240 L56.690 231.190 L56.920 231.190 L56.920 726.240 "/>
  <path style="fill:rgb(23,22,21);stroke:none;stroke-width:0.25;" d="M56.690 231.190 L56.750 230.510 C56.990 228.880 58.350 227.520 59.980 227.280 L60.660 227.220 L60.660 227.450 L60.040 227.510 C58.570 227.730 57.190 229.100 56.980 230.570 L56.920 231.190 "/>
  <rect style="fill:pink;opacity:0.2;stroke:blue;stroke-width:0.3;" x="62.922" y="239.777" height="468.606" width="469.986" title="5"/>
  <text y="239.777" class="image" id="image.5.1" width="469" height="468" x="62.922" style="font-size:5.0px;">image.5.1.63_533.240_708</text>
  <g begin="text">
   <text y="713.991" x="62.929,67.074,69.226,73.872,78.431,81.42,85.5644,88.33" svgx:width="0.52,0.27,0.58,0.57,0.38,0.52,0.55,0.55" style="fill:rgb(23,22,21);font-family:AdvOT3b30f6db.B;font-size:7.97px;stroke:none;">Figure 4</text>
   <text y="713.991" x="95.416,100.142,104.621,110.0406,112.767,117.413,121.398,124.132,126.866,130.931,133.752,138.2152,140.997,145.476,147.9467,150.633,153.367,157.846,161.9107,164.637,169.283,173.763,179.318,181.972,188.524,195.41,200.056,205.365,209.5094,212.315,215.877,220.356,227.075,231.722,236.201,239.517,241.509,244.243,248.308" svgx:width="0.59,0.56,0.68,0.55,0.58,0.5,0.34,0.34,0.51,0.35,0.56,0.55,0.56,0.31,0.55,0.34,0.56,0.51,0.55,0.58,0.56,0.7,0.33,0.82,0.86,0.58,0.67,0.52,0.55,0.45,0.56,0.84,0.58,0.56,0.42,0.25,0.34,0.51,0.42" style="fill:rgb(23,22,21);font-family:AdvOTce3d9a73;font-size:7.97px;stroke:none;">XRD pattern of the CuO/MWCNT composites</text>
   <text y="713.991" x="251.719" svgx:width="0.17" style="fill:rgb(23,22,21);font-family:AdvOT07517017;font-size:7.97px;stroke:none;">.</text>
   <text y="713.991" x="255.744,258.064,262.049" svgx:width="0.29,0.5,0.29" style="fill:rgb(23,22,21);font-family:AdvOTce3d9a73;font-size:7.97px;stroke:none;">(a)</text>
   <text y="713.991" x="267.086,271.398,275.383,280.4838,283.241,287.553,291.116,293.523,295.93,299.748,302.179,306.4031,309.097,313.329,315.4012,318.111,320.518,324.75,328.5756,331.318,335.797,339.941,345.25,347.983,354.12,360.592,365.071,370.133,373.7992,376.556,380.039,384.272,390.743,395.055,399.288,402.189,403.846,406.253,410.0786,412.837,417.069,420.632,424.864,429.096,431.997,434.404,436.724,440.956,444.439,446.846,450.99,453.31,457.127,460.028" svgx:width="0.54,0.5,0.64,0.55,0.54,0.45,0.3,0.3,0.48,0.29,0.53,0.55,0.53,0.26,0.55,0.3,0.53,0.48,0.55,0.56,0.52,0.67,0.34,0.77,0.81,0.56,0.63,0.46,0.55,0.44,0.53,0.81,0.54,0.53,0.36,0.21,0.3,0.48,0.55,0.53,0.45,0.53,0.53,0.36,0.3,0.29,0.52,0.44,0.3,0.52,0.29,0.48,0.36,0.17" style="fill:rgb(23,22,21);font-family:AdvOT07517017;font-size:7.97px;stroke:none;">XRD pattern of the CuO/MWCNT composite nanostructures.</text>
   <text y="713.991" x="464.149,466.468,471.115" svgx:width="0.29,0.58,0.29" style="fill:rgb(23,22,21);font-family:AdvOTce3d9a73;font-size:7.97px;stroke:none;">(b)</text>
   <text y="713.991" x="476.168,479.818,484.712,489.33459999999997,492.045,496.277,498.3492,501.059,505.371,509.515,511.835,515.6605999999999,518.41,522.889,527.034" svgx:width="0.46,0.61,0.58,0.55,0.53,0.26,0.55,0.54,0.52,0.29,0.48,0.55,0.56,0.52,0.67" style="fill:rgb(23,22,21);font-family:AdvOT07517017;font-size:7.97px;stroke:none;">TGA of pure CuO</text>
   <text y="723.969" x="62.929,66.492,70.724,75.0278,77.666,82.145,86.29,91.598,94.332,100.469,106.941,111.34,116.401,120.0672,122.682,126.165,130.397,136.869,141.181,145.413,148.314,149.972,152.379,156.2046,158.795,163.027,166.59,170.822,175.054,177.955,180.362,182.681,186.826,190.309,192.716,196.781,199.1,202.918,205.819" svgx:width="0.45,0.53,0.54,0.55,0.56,0.52,0.67,0.34,0.77,0.81,0.56,0.63,0.46,0.55,0.44,0.53,0.81,0.54,0.53,0.36,0.21,0.3,0.48,0.55,0.53,0.45,0.53,0.53,0.36,0.3,0.29,0.52,0.44,0.3,0.52,0.29,0.48,0.36,0.17" style="fill:rgb(23,22,21);font-family:AdvOT07517017;font-size:7.97px;stroke:none;">and CuO/MWCNT composite nanostructures.</text>
   <text y="723.969" x="209.82,212.139,215.702,218.189,222.748" svgx:width="0.29,0.45,0.31,0.57,0.29" style="fill:rgb(23,22,21);font-family:AdvOTce3d9a73;font-size:7.97px;stroke:none;">(c-d)</text>
   <text y="723.969" x="227.681,231.331,234.814,239.126,240.784,244.267,247.83,249.5037,252.118,255.768,259.418,263.069,266.719,272.8559,275.478,277.136,283.608,287.171,291.483,295.3,298.1692,300.824,305.056,307.1282,309.782,312.189,316.421,320.2466,322.877,327.356,331.501,336.809,339.543,345.68,352.152,356.551,361.612,365.2782,367.893,371.376,375.608,382.08,386.392,390.624,393.525,395.183,397.59,401.4156,404.006,408.238,411.801,416.033,420.265,423.166,425.573,427.893,432.037,435.52,437.927,441.992,444.311,448.129,451.03" svgx:width="0.46,0.44,0.54,0.21,0.44,0.45,0.21,0.55,0.46,0.46,0.46,0.46,0.77,0.55,0.21,0.81,0.45,0.54,0.48,0.36,0.55,0.53,0.26,0.55,0.3,0.53,0.48,0.55,0.56,0.52,0.67,0.34,0.77,0.81,0.56,0.63,0.46,0.55,0.44,0.53,0.81,0.54,0.53,0.36,0.21,0.3,0.48,0.55,0.53,0.45,0.53,0.53,0.36,0.3,0.29,0.52,0.44,0.3,0.52,0.29,0.48,0.36,0.17" style="fill:rgb(23,22,21);font-family:AdvOT07517017;font-size:7.97px;stroke:none;">Typical FESEM images of the CuO/MWCNT composite nanostructures.</text>
   <text y="40.31" x="56.696,60.594,64.579" svgx:width="0.49,0.5,0.54" style="fill:rgb(23,22,21);font-family:AdvOT46dcae81;font-size:7.97px;stroke:none;">Seo</text>
   <text y="40.31" x="71.553,75.116,77.5867,80.224,84.369" svgx:width="0.45,0.31,0.55,0.52,0.22" style="fill:rgb(23,22,21);font-family:AdvOT65f8a23b.I;font-size:7.97px;stroke:none;">et al</text>
   <text y="40.31" x="86.122" svgx:width="0.2" style="fill:rgb(23,22,21);font-family:AdvOT46dcae81;font-size:7.97px;stroke:none;">.</text>
   <text y="40.31" x="90.315,95.296,99.441,103.673,107.817,110.718,114.034,118.179,119.916,123.5025,126.085,130.229,133.792,136.693,140.256,144.401,146.887,150.203,154.4271,157.041,160.524,164.087,166.574,169.06,172.623,175.11" svgx:width="0.63,0.52,0.53,0.52,0.36,0.42,0.52,0.22,0.45,0.55,0.52,0.45,0.36,0.45,0.52,0.31,0.42,0.53,0.55,0.44,0.45,0.31,0.31,0.45,0.31,0.36" style="fill:rgb(23,22,21);font-family:AdvOT65f8a23b.I;font-size:7.97px;stroke:none;">Nanoscale Research Letters</text>
   <text y="40.31" x="180.681,184.746,188.81,192.875,196.94" svgx:width="0.51,0.51,0.51,0.51,0.2" style="fill:rgb(23,22,21);font-family:AdvOT46dcae81;font-size:7.97px;stroke:none;">2011,</text>
   <text y="40.31" x="201.148" svgx:width="0.55" style="fill:rgb(23,22,21);font-family:AdvOT3b30f6db.B;font-size:7.97px;stroke:none;">6</text>
   <text y="40.31" x="205.516,207.086,211.151,215.216" svgx:width="0.2,0.51,0.51,0.51" style="fill:rgb(23,22,21);font-family:AdvOT46dcae81;font-size:7.97px;stroke:none;">:397</text>
   <text y="50.233" x="56.696,61.096,63.662,66.229,70.708,72.278,74.932,77.586,83.397,89.127,94.937,96.508,100.907,104.725,109.124,113.436,116.584,120.147,123.965,125.79,129.775,132.342,136.239,139.387,141.212,145.198,147.764,150.33,151.9,155.463,159.775,166.414,169.068,172.631,176.887,181.287,183.853,187.838,192.238,194.804,197.458,201.523,204.177,208.242,210.896,214.873,218.938" svgx:width="0.55,0.32,0.32,0.56,0.2,0.33,0.33,0.73,0.73,0.73,0.2,0.55,0.48,0.55,0.54,0.4,0.45,0.48,0.23,0.5,0.32,0.5,0.4,0.23,0.5,0.32,0.32,0.2,0.45,0.54,0.83,0.33,0.45,0.54,0.55,0.32,0.5,0.55,0.32,0.33,0.51,0.33,0.51,0.33,0.51,0.51,0.51" style="fill:rgb(23,22,21);font-family:AdvOT46dcae81;font-size:7.97px;stroke:none;">http://www.nanoscalereslett.com/content/6/1/397</text>
   <text y="40.31" x="499.473,503.705,507.523,511.922,515.907,518.522,522.5867000000001,525.264,529.576,531.8873,534.502" svgx:width="0.53,0.48,0.55,0.5,0.55,0.51,0.55,0.54,0.29,0.55,0.51" style="fill:rgb(23,22,21);font-family:AdvOT46dcae81;font-size:7.97px;stroke:none;">Page 5 of 7</text>
  </g>
 </g>
</svg>
