<?xml version="1.0" encoding="UTF-8"?>
<svg height="20.0" width="519.5211267605634" xmlns="http://www.w3.org/2000/svg">
 <g>
  <rect x="10.0" y="-215.0" width="3.5211267605633805" height="225.0" style="fill:cyan;opacity:0.3;"/>
  <text x="10.0" y="10.0" transform="matrix(6.123233995736766E-17,-1.0,1.0,6.123233995736766E-17,0.0,20.0)" style="font-size:1.0000000000000013px;">influenza</text>
  <rect x="13.0" y="-73.0" width="3.5211267605633805" height="83.0" style="fill:cyan;opacity:0.3;"/>
  <text x="13.0" y="10.0" transform="matrix(6.123233995736766E-17,-1.0,1.0,6.123233995736766E-17,3.0,23.0)" style="font-size:1.0000000000000013px;">severe acute re</text>
  <rect x="17.0" y="-68.0" width="3.5211267605633805" height="78.0" style="fill:cyan;opacity:0.3;"/>
  <text x="17.0" y="10.0" transform="matrix(6.123233995736766E-17,-1.0,1.0,6.123233995736766E-17,6.999999999999998,27.0)" style="font-size:1.0000000000000013px;">infectious dise</text>
  <rect x="20.0" y="-63.0" width="3.5211267605633805" height="73.0" style="fill:cyan;opacity:0.3;"/>
  <text x="20.0" y="10.0" transform="matrix(6.123233995736766E-17,-1.0,1.0,6.123233995736766E-17,9.999999999999998,30.0)" style="font-size:1.0000000000000013px;">pneumonia</text>
  <rect x="24.0" y="-23.0" width="3.5211267605633805" height="33.0" style="fill:cyan;opacity:0.3;"/>
  <text x="24.0" y="10.0" transform="matrix(6.123233995736766E-17,-1.0,1.0,6.123233995736766E-17,13.999999999999998,34.0)" style="font-size:1.0000000000000013px;">hepatitis</text>
  <rect x="27.0" y="-18.0" width="3.5211267605633805" height="28.0" style="fill:cyan;opacity:0.3;"/>
  <text x="27.0" y="10.0" transform="matrix(6.123233995736766E-17,-1.0,1.0,6.123233995736766E-17,17.0,37.0)" style="font-size:1.0000000000000013px;">suppression</text>
  <rect x="31.0" y="-16.0" width="3.5211267605633805" height="26.0" style="fill:cyan;opacity:0.3;"/>
  <text x="31.0" y="10.0" transform="matrix(6.123233995736766E-17,-1.0,1.0,6.123233995736766E-17,21.0,41.0)" style="font-size:1.0000000000000013px;">measles</text>
  <rect x="34.0" y="-13.0" width="3.5211267605633805" height="23.0" style="fill:cyan;opacity:0.3;"/>
  <text x="34.0" y="10.0" transform="matrix(6.123233995736766E-17,-1.0,1.0,6.123233995736766E-17,24.0,44.0)" style="font-size:1.0000000000000013px;">dengue fever</text>
  <rect x="38.0" y="-13.0" width="3.5211267605633805" height="23.0" style="fill:cyan;opacity:0.3;"/>
  <text x="38.0" y="10.0" transform="matrix(6.123233995736766E-17,-1.0,1.0,6.123233995736766E-17,28.0,48.0)" style="font-size:1.0000000000000013px;">malaria</text>
  <rect x="41.0" y="-11.0" width="3.5211267605633805" height="21.0" style="fill:cyan;opacity:0.3;"/>
  <text x="41.0" y="10.0" transform="matrix(6.123233995736766E-17,-1.0,1.0,6.123233995736766E-17,31.0,51.0)" style="font-size:1.0000000000000013px;">avian influenza</text>
  <rect x="45.0" y="-11.0" width="3.5211267605633805" height="21.0" style="fill:cyan;opacity:0.3;"/>
  <text x="45.0" y="10.0" transform="matrix(6.123233995736766E-17,-1.0,1.0,6.123233995736766E-17,35.0,55.0)" style="font-size:1.0000000000000013px;">chikungunya</text>
  <rect x="48.0" y="-5.0" width="3.5211267605633805" height="15.0" style="fill:cyan;opacity:0.3;"/>
  <text x="48.0" y="10.0" transform="matrix(6.123233995736766E-17,-1.0,1.0,6.123233995736766E-17,38.0,58.0)" style="font-size:1.0000000000000013px;">smallpox</text>
  <rect x="52.0" y="-5.0" width="3.5211267605633805" height="15.0" style="fill:cyan;opacity:0.3;"/>
  <text x="52.0" y="10.0" transform="matrix(6.123233995736766E-17,-1.0,1.0,6.123233995736766E-17,42.0,62.0)" style="font-size:1.0000000000000013px;">respiratory dis</text>
  <rect x="55.0" y="-5.0" width="3.5211267605633805" height="15.0" style="fill:cyan;opacity:0.3;"/>
  <text x="55.0" y="10.0" transform="matrix(6.123233995736766E-17,-1.0,1.0,6.123233995736766E-17,45.0,65.0)" style="font-size:1.0000000000000013px;">infectious dise</text>
  <rect x="59.0" y="-3.0" width="3.5211267605633805" height="13.0" style="fill:cyan;opacity:0.3;"/>
  <text x="59.0" y="10.0" transform="matrix(6.123233995736766E-17,-1.0,1.0,6.123233995736766E-17,49.0,69.0)" style="font-size:1.0000000000000013px;">plague</text>
  <rect x="62.0" y="-3.0" width="3.5211267605633805" height="13.0" style="fill:cyan;opacity:0.3;"/>
  <text x="62.0" y="10.0" transform="matrix(6.123233995736766E-17,-1.0,1.0,6.123233995736766E-17,52.0,72.0)" style="font-size:1.0000000000000013px;">encephalitis</text>
  <rect x="66.0" y="-3.0" width="3.5211267605633805" height="13.0" style="fill:cyan;opacity:0.3;"/>
  <text x="66.0" y="10.0" transform="matrix(6.123233995736766E-17,-1.0,1.0,6.123233995736766E-17,56.0,76.0)" style="font-size:1.0000000000000013px;">viral disease</text>
  <rect x="69.0" y="-3.0" width="3.5211267605633805" height="13.0" style="fill:cyan;opacity:0.3;"/>
  <text x="69.0" y="10.0" transform="matrix(6.123233995736766E-17,-1.0,1.0,6.123233995736766E-17,59.0,79.0)" style="font-size:1.0000000000000013px;">severe acute re</text>
  <rect x="73.0" y="-1.0" width="3.5211267605633805" height="11.0" style="fill:cyan;opacity:0.3;"/>
  <text x="73.0" y="10.0" transform="matrix(6.123233995736766E-17,-1.0,1.0,6.123233995736766E-17,62.99999999999999,83.0)" style="font-size:1.0000000000000013px;">respiratory fai</text>
  <rect x="76.0" y="0.0" width="3.5211267605633805" height="10.0" style="fill:cyan;opacity:0.3;"/>
  <text x="76.0" y="10.0" transform="matrix(6.123233995736766E-17,-1.0,1.0,6.123233995736766E-17,66.0,86.0)" style="font-size:1.0000000000000013px;">acute respirato</text>
  <rect x="80.0" y="0.0" width="3.5211267605633805" height="10.0" style="fill:cyan;opacity:0.3;"/>
  <text x="80.0" y="10.0" transform="matrix(6.123233995736766E-17,-1.0,1.0,6.123233995736766E-17,70.0,90.0)" style="font-size:1.0000000000000013px;">conjunctivitis</text>
  <rect x="83.0" y="0.0" width="3.5211267605633805" height="10.0" style="fill:cyan;opacity:0.3;"/>
  <text x="83.0" y="10.0" transform="matrix(6.123233995736766E-17,-1.0,1.0,6.123233995736766E-17,73.0,93.0)" style="font-size:1.0000000000000013px;">viral pneumonia</text>
  <rect x="87.0" y="0.0" width="3.5211267605633805" height="10.0" style="fill:cyan;opacity:0.3;"/>
  <text x="87.0" y="10.0" transform="matrix(6.123233995736766E-17,-1.0,1.0,6.123233995736766E-17,77.0,97.0)" style="font-size:1.0000000000000013px;">cancer</text>
  <rect x="90.0" y="2.0" width="3.5211267605633805" height="8.0" style="fill:cyan;opacity:0.3;"/>
  <text x="90.0" y="10.0" transform="matrix(6.123233995736766E-17,-1.0,1.0,6.123233995736766E-17,80.0,100.0)" style="font-size:1.0000000000000013px;">tuberculosis</text>
  <rect x="94.0" y="2.0" width="3.5211267605633805" height="8.0" style="fill:cyan;opacity:0.3;"/>
  <text x="94.0" y="10.0" transform="matrix(6.123233995736766E-17,-1.0,1.0,6.123233995736766E-17,84.0,104.0)" style="font-size:1.0000000000000013px;">endocarditis</text>
  <rect x="98.0" y="2.0" width="3.5211267605633805" height="8.0" style="fill:cyan;opacity:0.3;"/>
  <text x="98.0" y="10.0" transform="matrix(6.123233995736766E-17,-1.0,1.0,6.123233995736766E-17,88.0,108.0)" style="font-size:1.0000000000000013px;">meningitis</text>
  <rect x="101.0" y="4.0" width="3.5211267605633805" height="6.0" style="fill:cyan;opacity:0.3;"/>
  <text x="101.0" y="10.0" transform="matrix(6.123233995736766E-17,-1.0,1.0,6.123233995736766E-17,91.0,111.0)" style="font-size:1.0000000000000013px;">common cold</text>
  <rect x="105.0" y="4.0" width="3.5211267605633805" height="6.0" style="fill:cyan;opacity:0.3;"/>
  <text x="105.0" y="10.0" transform="matrix(6.123233995736766E-17,-1.0,1.0,6.123233995736766E-17,95.0,115.0)" style="font-size:1.0000000000000013px;">obesity</text>
  <rect x="108.0" y="4.0" width="3.5211267605633805" height="6.0" style="fill:cyan;opacity:0.3;"/>
  <text x="108.0" y="10.0" transform="matrix(6.123233995736766E-17,-1.0,1.0,6.123233995736766E-17,98.0,118.0)" style="font-size:1.0000000000000013px;">liver disease</text>
  <rect x="112.0" y="4.0" width="3.5211267605633805" height="6.0" style="fill:cyan;opacity:0.3;"/>
  <text x="112.0" y="10.0" transform="matrix(6.123233995736766E-17,-1.0,1.0,6.123233995736766E-17,102.0,122.0)" style="font-size:1.0000000000000013px;">thrombocytopeni</text>
  <rect x="115.0" y="4.0" width="3.5211267605633805" height="6.0" style="fill:cyan;opacity:0.3;"/>
  <text x="115.0" y="10.0" transform="matrix(6.123233995736766E-17,-1.0,1.0,6.123233995736766E-17,105.0,125.0)" style="font-size:1.0000000000000013px;">stroke</text>
  <rect x="119.0" y="4.0" width="3.5211267605633805" height="6.0" style="fill:cyan;opacity:0.3;"/>
  <text x="119.0" y="10.0" transform="matrix(6.123233995736766E-17,-1.0,1.0,6.123233995736766E-17,109.0,129.0)" style="font-size:1.0000000000000013px;">shortness</text>
  <rect x="122.0" y="5.0" width="3.5211267605633805" height="5.0" style="fill:cyan;opacity:0.3;"/>
  <text x="122.0" y="10.0" transform="matrix(6.123233995736766E-17,-1.0,1.0,6.123233995736766E-17,112.0,132.0)" style="font-size:1.0000000000000013px;">hepatocellular </text>
  <rect x="126.0" y="5.0" width="3.5211267605633805" height="5.0" style="fill:cyan;opacity:0.3;"/>
  <text x="126.0" y="10.0" transform="matrix(6.123233995736766E-17,-1.0,1.0,6.123233995736766E-17,116.0,136.0)" style="font-size:1.0000000000000013px;">bubonic plague</text>
  <rect x="129.0" y="5.0" width="3.5211267605633805" height="5.0" style="fill:cyan;opacity:0.3;"/>
  <text x="129.0" y="10.0" transform="matrix(6.123233995736766E-17,-1.0,1.0,6.123233995736766E-17,119.0,139.0)" style="font-size:1.0000000000000013px;">pneumonic plagu</text>
  <rect x="133.0" y="5.0" width="3.5211267605633805" height="5.0" style="fill:cyan;opacity:0.3;"/>
  <text x="133.0" y="10.0" transform="matrix(6.123233995736766E-17,-1.0,1.0,6.123233995736766E-17,122.99999999999999,143.0)" style="font-size:1.0000000000000013px;">viral disease.</text>
  <rect x="136.0" y="5.0" width="3.5211267605633805" height="5.0" style="fill:cyan;opacity:0.3;"/>
  <text x="136.0" y="10.0" transform="matrix(6.123233995736766E-17,-1.0,1.0,6.123233995736766E-17,125.99999999999999,146.0)" style="font-size:1.0000000000000013px;">infectious dise</text>
  <rect x="140.0" y="5.0" width="3.5211267605633805" height="5.0" style="fill:cyan;opacity:0.3;"/>
  <text x="140.0" y="10.0" transform="matrix(6.123233995736766E-17,-1.0,1.0,6.123233995736766E-17,130.0,150.0)" style="font-size:1.0000000000000013px;">bacterial pneum</text>
  <rect x="143.0" y="5.0" width="3.5211267605633805" height="5.0" style="fill:cyan;opacity:0.3;"/>
  <text x="143.0" y="10.0" transform="matrix(6.123233995736766E-17,-1.0,1.0,6.123233995736766E-17,133.0,153.0)" style="font-size:1.0000000000000013px;">microcephaly</text>
  <rect x="147.0" y="7.0" width="3.5211267605633805" height="3.0" style="fill:cyan;opacity:0.3;"/>
  <text x="147.0" y="10.0" transform="matrix(6.123233995736766E-17,-1.0,1.0,6.123233995736766E-17,137.0,157.0)" style="font-size:1.0000000000000013px;">infective endoc</text>
  <rect x="150.0" y="7.0" width="3.5211267605633805" height="3.0" style="fill:cyan;opacity:0.3;"/>
  <text x="150.0" y="10.0" transform="matrix(6.123233995736766E-17,-1.0,1.0,6.123233995736766E-17,140.0,160.0)" style="font-size:1.0000000000000013px;">encephalopathy</text>
  <rect x="154.0" y="7.0" width="3.5211267605633805" height="3.0" style="fill:cyan;opacity:0.3;"/>
  <text x="154.0" y="10.0" transform="matrix(6.123233995736766E-17,-1.0,1.0,6.123233995736766E-17,144.0,164.0)" style="font-size:1.0000000000000013px;">aseptic meningi</text>
  <rect x="157.0" y="7.0" width="3.5211267605633805" height="3.0" style="fill:cyan;opacity:0.3;"/>
  <text x="157.0" y="10.0" transform="matrix(6.123233995736766E-17,-1.0,1.0,6.123233995736766E-17,147.0,167.0)" style="font-size:1.0000000000000013px;">thalassemia</text>
  <rect x="161.0" y="7.0" width="3.5211267605633805" height="3.0" style="fill:cyan;opacity:0.3;"/>
  <text x="161.0" y="10.0" transform="matrix(6.123233995736766E-17,-1.0,1.0,6.123233995736766E-17,151.0,171.0)" style="font-size:1.0000000000000013px;">colorectal canc</text>
  <rect x="164.0" y="7.0" width="3.5211267605633805" height="3.0" style="fill:cyan;opacity:0.3;"/>
  <text x="164.0" y="10.0" transform="matrix(6.123233995736766E-17,-1.0,1.0,6.123233995736766E-17,154.0,174.0)" style="font-size:1.0000000000000013px;">dengue fever,</text>
  <rect x="168.0" y="7.0" width="3.5211267605633805" height="3.0" style="fill:cyan;opacity:0.3;"/>
  <text x="168.0" y="10.0" transform="matrix(6.123233995736766E-17,-1.0,1.0,6.123233995736766E-17,158.0,178.0)" style="font-size:1.0000000000000013px;">infective endoc</text>
  <rect x="171.0" y="7.0" width="3.5211267605633805" height="3.0" style="fill:cyan;opacity:0.3;"/>
  <text x="171.0" y="10.0" transform="matrix(6.123233995736766E-17,-1.0,1.0,6.123233995736766E-17,161.0,181.0)" style="font-size:1.0000000000000013px;">dengue hemorrha</text>
  <rect x="175.0" y="7.0" width="3.5211267605633805" height="3.0" style="fill:cyan;opacity:0.3;"/>
  <text x="175.0" y="10.0" transform="matrix(6.123233995736766E-17,-1.0,1.0,6.123233995736766E-17,165.0,185.0)" style="font-size:1.0000000000000013px;">myelitis</text>
  <rect x="179.0" y="7.0" width="3.5211267605633805" height="3.0" style="fill:cyan;opacity:0.3;"/>
  <text x="179.0" y="10.0" transform="matrix(6.123233995736766E-17,-1.0,1.0,6.123233995736766E-17,169.0,189.0)" style="font-size:1.0000000000000013px;">adjustment diso</text>
  <rect x="182.0" y="7.0" width="3.5211267605633805" height="3.0" style="fill:cyan;opacity:0.3;"/>
  <text x="182.0" y="10.0" transform="matrix(6.123233995736766E-17,-1.0,1.0,6.123233995736766E-17,172.0,192.0)" style="font-size:1.0000000000000013px;">cardiovascular </text>
  <rect x="186.0" y="7.0" width="3.5211267605633805" height="3.0" style="fill:cyan;opacity:0.3;"/>
  <text x="186.0" y="10.0" transform="matrix(6.123233995736766E-17,-1.0,1.0,6.123233995736766E-17,176.0,196.0)" style="font-size:1.0000000000000013px;">multiple sclero</text>
  <rect x="189.0" y="7.0" width="3.5211267605633805" height="3.0" style="fill:cyan;opacity:0.3;"/>
  <text x="189.0" y="10.0" transform="matrix(6.123233995736766E-17,-1.0,1.0,6.123233995736766E-17,179.0,199.0)" style="font-size:1.0000000000000013px;">syphilis</text>
  <rect x="193.0" y="7.0" width="3.5211267605633805" height="3.0" style="fill:cyan;opacity:0.3;"/>
  <text x="193.0" y="10.0" transform="matrix(6.123233995736766E-17,-1.0,1.0,6.123233995736766E-17,183.0,203.0)" style="font-size:1.0000000000000013px;">mental disorder</text>
  <rect x="196.0" y="7.0" width="3.5211267605633805" height="3.0" style="fill:cyan;opacity:0.3;"/>
  <text x="196.0" y="10.0" transform="matrix(6.123233995736766E-17,-1.0,1.0,6.123233995736766E-17,186.0,206.0)" style="font-size:1.0000000000000013px;">chickenpox</text>
  <rect x="200.0" y="7.0" width="3.5211267605633805" height="3.0" style="fill:cyan;opacity:0.3;"/>
  <text x="200.0" y="10.0" transform="matrix(6.123233995736766E-17,-1.0,1.0,6.123233995736766E-17,190.0,210.0)" style="font-size:1.0000000000000013px;">gastroenteritis</text>
  <rect x="203.0" y="7.0" width="3.5211267605633805" height="3.0" style="fill:cyan;opacity:0.3;"/>
  <text x="203.0" y="10.0" transform="matrix(6.123233995736766E-17,-1.0,1.0,6.123233995736766E-17,193.0,213.0)" style="font-size:1.0000000000000013px;">acute respirato</text>
  <rect x="207.0" y="7.0" width="3.5211267605633805" height="3.0" style="fill:cyan;opacity:0.3;"/>
  <text x="207.0" y="10.0" transform="matrix(6.123233995736766E-17,-1.0,1.0,6.123233995736766E-17,197.0,217.0)" style="font-size:1.0000000000000013px;">acute respirato</text>
  <rect x="210.0" y="7.0" width="3.5211267605633805" height="3.0" style="fill:cyan;opacity:0.3;"/>
  <text x="210.0" y="10.0" transform="matrix(6.123233995736766E-17,-1.0,1.0,6.123233995736766E-17,200.0,220.0)" style="font-size:1.0000000000000013px;">postpartum depr</text>
  <rect x="214.0" y="7.0" width="3.5211267605633805" height="3.0" style="fill:cyan;opacity:0.3;"/>
  <text x="214.0" y="10.0" transform="matrix(6.123233995736766E-17,-1.0,1.0,6.123233995736766E-17,204.0,224.0)" style="font-size:1.0000000000000013px;">scarlet fever</text>
  <rect x="217.0" y="7.0" width="3.5211267605633805" height="3.0" style="fill:cyan;opacity:0.3;"/>
  <text x="217.0" y="10.0" transform="matrix(6.123233995736766E-17,-1.0,1.0,6.123233995736766E-17,207.0,227.0)" style="font-size:1.0000000000000013px;">schizophrenia</text>
  <rect x="221.0" y="7.0" width="3.5211267605633805" height="3.0" style="fill:cyan;opacity:0.3;"/>
  <text x="221.0" y="10.0" transform="matrix(6.123233995736766E-17,-1.0,1.0,6.123233995736766E-17,211.0,231.0)" style="font-size:1.0000000000000013px;">viral pneumonia</text>
  <rect x="224.0" y="7.0" width="3.5211267605633805" height="3.0" style="fill:cyan;opacity:0.3;"/>
  <text x="224.0" y="10.0" transform="matrix(6.123233995736766E-17,-1.0,1.0,6.123233995736766E-17,214.0,234.0)" style="font-size:1.0000000000000013px;">viral pneumonia</text>
  <rect x="228.0" y="7.0" width="3.5211267605633805" height="3.0" style="fill:cyan;opacity:0.3;"/>
  <text x="228.0" y="10.0" transform="matrix(6.123233995736766E-17,-1.0,1.0,6.123233995736766E-17,218.0,238.0)" style="font-size:1.0000000000000013px;">respiratory dis</text>
  <rect x="231.0" y="7.0" width="3.5211267605633805" height="3.0" style="fill:cyan;opacity:0.3;"/>
  <text x="231.0" y="10.0" transform="matrix(6.123233995736766E-17,-1.0,1.0,6.123233995736766E-17,221.0,241.0)" style="font-size:1.0000000000000013px;">mood disorder</text>
  <rect x="235.0" y="7.0" width="3.5211267605633805" height="3.0" style="fill:cyan;opacity:0.3;"/>
  <text x="235.0" y="10.0" transform="matrix(6.123233995736766E-17,-1.0,1.0,6.123233995736766E-17,225.0,245.0)" style="font-size:1.0000000000000013px;">learning disabi</text>
  <rect x="238.0" y="7.0" width="3.5211267605633805" height="3.0" style="fill:cyan;opacity:0.3;"/>
  <text x="238.0" y="10.0" transform="matrix(6.123233995736766E-17,-1.0,1.0,6.123233995736766E-17,228.0,248.0)" style="font-size:1.0000000000000013px;">diarrhea</text>
  <rect x="242.0" y="7.0" width="3.5211267605633805" height="3.0" style="fill:cyan;opacity:0.3;"/>
  <text x="242.0" y="10.0" transform="matrix(6.123233995736766E-17,-1.0,1.0,6.123233995736766E-17,232.0,252.0)" style="font-size:1.0000000000000013px;">delusional diso</text>
  <rect x="245.0" y="7.0" width="3.5211267605633805" height="3.0" style="fill:cyan;opacity:0.3;"/>
  <text x="245.0" y="10.0" transform="matrix(6.123233995736766E-17,-1.0,1.0,6.123233995736766E-17,235.0,255.0)" style="font-size:1.0000000000000013px;">neuropathy</text>
  <rect x="249.0" y="7.0" width="3.5211267605633805" height="3.0" style="fill:cyan;opacity:0.3;"/>
  <text x="249.0" y="10.0" transform="matrix(6.123233995736766E-17,-1.0,1.0,6.123233995736766E-17,238.99999999999997,259.0)" style="font-size:1.0000000000000013px;">mumps</text>
  <rect x="252.0" y="7.0" width="3.5211267605633805" height="3.0" style="fill:cyan;opacity:0.3;"/>
  <text x="252.0" y="10.0" transform="matrix(6.123233995736766E-17,-1.0,1.0,6.123233995736766E-17,241.99999999999997,262.0)" style="font-size:1.0000000000000013px;">panic disorder</text>
  <rect x="256.0" y="7.0" width="3.5211267605633805" height="3.0" style="fill:cyan;opacity:0.3;"/>
  <text x="256.0" y="10.0" transform="matrix(6.123233995736766E-17,-1.0,1.0,6.123233995736766E-17,245.99999999999997,266.0)" style="font-size:1.0000000000000013px;">dengue fever.</text>
  <rect x="260.0" y="7.0" width="3.5211267605633805" height="3.0" style="fill:cyan;opacity:0.3;"/>
  <text x="260.0" y="10.0" transform="matrix(6.123233995736766E-17,-1.0,1.0,6.123233995736766E-17,249.99999999999997,270.0)" style="font-size:1.0000000000000013px;">breast cancer</text>
  <rect x="263.0" y="7.0" width="3.5211267605633805" height="3.0" style="fill:cyan;opacity:0.3;"/>
  <text x="263.0" y="10.0" transform="matrix(6.123233995736766E-17,-1.0,1.0,6.123233995736766E-17,252.99999999999997,273.0)" style="font-size:1.0000000000000013px;">rash</text>
  <rect x="267.0" y="9.0" width="3.5211267605633805" height="1.0" style="fill:cyan;opacity:0.3;"/>
  <text x="267.0" y="10.0" transform="matrix(6.123233995736766E-17,-1.0,1.0,6.123233995736766E-17,257.0,277.0)" style="font-size:1.0000000000000013px;">pyuria</text>
  <rect x="270.0" y="9.0" width="3.5211267605633805" height="1.0" style="fill:cyan;opacity:0.3;"/>
  <text x="270.0" y="10.0" transform="matrix(6.123233995736766E-17,-1.0,1.0,6.123233995736766E-17,260.0,280.0)" style="font-size:1.0000000000000013px;">liver disease,</text>
  <rect x="274.0" y="9.0" width="3.5211267605633805" height="1.0" style="fill:cyan;opacity:0.3;"/>
  <text x="274.0" y="10.0" transform="matrix(6.123233995736766E-17,-1.0,1.0,6.123233995736766E-17,264.0,284.0)" style="font-size:1.0000000000000013px;">filariasis</text>
  <rect x="277.0" y="9.0" width="3.5211267605633805" height="1.0" style="fill:cyan;opacity:0.3;"/>
  <text x="277.0" y="10.0" transform="matrix(6.123233995736766E-17,-1.0,1.0,6.123233995736766E-17,267.0,287.0)" style="font-size:1.0000000000000013px;">infective endoc</text>
  <rect x="281.0" y="9.0" width="3.5211267605633805" height="1.0" style="fill:cyan;opacity:0.3;"/>
  <text x="281.0" y="10.0" transform="matrix(6.123233995736766E-17,-1.0,1.0,6.123233995736766E-17,271.0,291.0)" style="font-size:1.0000000000000013px;">liver disease.</text>
  <rect x="284.0" y="9.0" width="3.5211267605633805" height="1.0" style="fill:cyan;opacity:0.3;"/>
  <text x="284.0" y="10.0" transform="matrix(6.123233995736766E-17,-1.0,1.0,6.123233995736766E-17,274.0,294.0)" style="font-size:1.0000000000000013px;">lung cancer</text>
  <rect x="288.0" y="9.0" width="3.5211267605633805" height="1.0" style="fill:cyan;opacity:0.3;"/>
  <text x="288.0" y="10.0" transform="matrix(6.123233995736766E-17,-1.0,1.0,6.123233995736766E-17,278.0,298.0)" style="font-size:1.0000000000000013px;">tetanus</text>
  <rect x="291.0" y="9.0" width="3.5211267605633805" height="1.0" style="fill:cyan;opacity:0.3;"/>
  <text x="291.0" y="10.0" transform="matrix(6.123233995736766E-17,-1.0,1.0,6.123233995736766E-17,281.0,301.0)" style="font-size:1.0000000000000013px;">cardiovascular </text>
  <rect x="295.0" y="9.0" width="3.5211267605633805" height="1.0" style="fill:cyan;opacity:0.3;"/>
  <text x="295.0" y="10.0" transform="matrix(6.123233995736766E-17,-1.0,1.0,6.123233995736766E-17,285.0,305.0)" style="font-size:1.0000000000000013px;">scabies</text>
  <rect x="298.0" y="9.0" width="3.5211267605633805" height="1.0" style="fill:cyan;opacity:0.3;"/>
  <text x="298.0" y="10.0" transform="matrix(6.123233995736766E-17,-1.0,1.0,6.123233995736766E-17,288.0,308.0)" style="font-size:1.0000000000000013px;">myasthenia grav</text>
  <rect x="302.0" y="9.0" width="3.5211267605633805" height="1.0" style="fill:cyan;opacity:0.3;"/>
  <text x="302.0" y="10.0" transform="matrix(6.123233995736766E-17,-1.0,1.0,6.123233995736766E-17,292.0,312.0)" style="font-size:1.0000000000000013px;">asthma</text>
  <rect x="305.0" y="9.0" width="3.5211267605633805" height="1.0" style="fill:cyan;opacity:0.3;"/>
  <text x="305.0" y="10.0" transform="matrix(6.123233995736766E-17,-1.0,1.0,6.123233995736766E-17,295.0,315.0)" style="font-size:1.0000000000000013px;">marburg virus d</text>
  <rect x="309.0" y="9.0" width="3.5211267605633805" height="1.0" style="fill:cyan;opacity:0.3;"/>
  <text x="309.0" y="10.0" transform="matrix(6.123233995736766E-17,-1.0,1.0,6.123233995736766E-17,299.0,319.0)" style="font-size:1.0000000000000013px;">neonatal abstin</text>
  <rect x="312.0" y="9.0" width="3.5211267605633805" height="1.0" style="fill:cyan;opacity:0.3;"/>
  <text x="312.0" y="10.0" transform="matrix(6.123233995736766E-17,-1.0,1.0,6.123233995736766E-17,302.0,322.0)" style="font-size:1.0000000000000013px;">yellow fever.</text>
  <rect x="316.0" y="9.0" width="3.5211267605633805" height="1.0" style="fill:cyan;opacity:0.3;"/>
  <text x="316.0" y="10.0" transform="matrix(6.123233995736766E-17,-1.0,1.0,6.123233995736766E-17,306.0,326.0)" style="font-size:1.0000000000000013px;">dengue hemorrha</text>
  <rect x="319.0" y="9.0" width="3.5211267605633805" height="1.0" style="fill:cyan;opacity:0.3;"/>
  <text x="319.0" y="10.0" transform="matrix(6.123233995736766E-17,-1.0,1.0,6.123233995736766E-17,309.0,329.0)" style="font-size:1.0000000000000013px;">respiratory fai</text>
  <rect x="323.0" y="9.0" width="3.5211267605633805" height="1.0" style="fill:cyan;opacity:0.3;"/>
  <text x="323.0" y="10.0" transform="matrix(6.123233995736766E-17,-1.0,1.0,6.123233995736766E-17,313.0,333.0)" style="font-size:1.0000000000000013px;">common cold.</text>
  <rect x="326.0" y="9.0" width="3.5211267605633805" height="1.0" style="fill:cyan;opacity:0.3;"/>
  <text x="326.0" y="10.0" transform="matrix(6.123233995736766E-17,-1.0,1.0,6.123233995736766E-17,316.0,336.0)" style="font-size:1.0000000000000013px;">post-traumatic </text>
  <rect x="330.0" y="9.0" width="3.5211267605633805" height="1.0" style="fill:cyan;opacity:0.3;"/>
  <text x="330.0" y="10.0" transform="matrix(6.123233995736766E-17,-1.0,1.0,6.123233995736766E-17,320.0,340.0)" style="font-size:1.0000000000000013px;">bacterial menin</text>
  <rect x="333.0" y="9.0" width="3.5211267605633805" height="1.0" style="fill:cyan;opacity:0.3;"/>
  <text x="333.0" y="10.0" transform="matrix(6.123233995736766E-17,-1.0,1.0,6.123233995736766E-17,323.0,343.0)" style="font-size:1.0000000000000013px;">common cold,</text>
  <rect x="337.0" y="9.0" width="3.5211267605633805" height="1.0" style="fill:cyan;opacity:0.3;"/>
  <text x="337.0" y="10.0" transform="matrix(6.123233995736766E-17,-1.0,1.0,6.123233995736766E-17,327.0,347.0)" style="font-size:1.0000000000000013px;">typhus</text>
  <rect x="340.0" y="9.0" width="3.5211267605633805" height="1.0" style="fill:cyan;opacity:0.3;"/>
  <text x="340.0" y="10.0" transform="matrix(6.123233995736766E-17,-1.0,1.0,6.123233995736766E-17,330.0,350.0)" style="font-size:1.0000000000000013px;">bacterial pneum</text>
  <rect x="344.0" y="9.0" width="3.5211267605633805" height="1.0" style="fill:cyan;opacity:0.3;"/>
  <text x="344.0" y="10.0" transform="matrix(6.123233995736766E-17,-1.0,1.0,6.123233995736766E-17,334.0,354.0)" style="font-size:1.0000000000000013px;">coronary aneury</text>
  <rect x="348.0" y="9.0" width="3.5211267605633805" height="1.0" style="fill:cyan;opacity:0.3;"/>
  <text x="348.0" y="10.0" transform="matrix(6.123233995736766E-17,-1.0,1.0,6.123233995736766E-17,338.0,358.0)" style="font-size:1.0000000000000013px;">diabetes mellit</text>
  <rect x="351.0" y="9.0" width="3.5211267605633805" height="1.0" style="fill:cyan;opacity:0.3;"/>
  <text x="351.0" y="10.0" transform="matrix(6.123233995736766E-17,-1.0,1.0,6.123233995736766E-17,341.0,361.0)" style="font-size:1.0000000000000013px;">vasculitis</text>
  <rect x="355.0" y="9.0" width="3.5211267605633805" height="1.0" style="fill:cyan;opacity:0.3;"/>
  <text x="355.0" y="10.0" transform="matrix(6.123233995736766E-17,-1.0,1.0,6.123233995736766E-17,345.0,365.0)" style="font-size:1.0000000000000013px;">bacterial pneum</text>
  <rect x="358.0" y="9.0" width="3.5211267605633805" height="1.0" style="fill:cyan;opacity:0.3;"/>
  <text x="358.0" y="10.0" transform="matrix(6.123233995736766E-17,-1.0,1.0,6.123233995736766E-17,348.0,368.0)" style="font-size:1.0000000000000013px;">acute dissemina</text>
  <rect x="362.0" y="9.0" width="3.5211267605633805" height="1.0" style="fill:cyan;opacity:0.3;"/>
  <text x="362.0" y="10.0" transform="matrix(6.123233995736766E-17,-1.0,1.0,6.123233995736766E-17,352.0,372.0)" style="font-size:1.0000000000000013px;">herpes simplex</text>
  <rect x="365.0" y="9.0" width="3.5211267605633805" height="1.0" style="fill:cyan;opacity:0.3;"/>
  <text x="365.0" y="10.0" transform="matrix(6.123233995736766E-17,-1.0,1.0,6.123233995736766E-17,355.0,375.0)" style="font-size:1.0000000000000013px;">amnesia</text>
  <rect x="369.0" y="9.0" width="3.5211267605633805" height="1.0" style="fill:cyan;opacity:0.3;"/>
  <text x="369.0" y="10.0" transform="matrix(6.123233995736766E-17,-1.0,1.0,6.123233995736766E-17,359.0,379.0)" style="font-size:1.0000000000000013px;">toxic shock syn</text>
  <rect x="372.0" y="9.0" width="3.5211267605633805" height="1.0" style="fill:cyan;opacity:0.3;"/>
  <text x="372.0" y="10.0" transform="matrix(6.123233995736766E-17,-1.0,1.0,6.123233995736766E-17,362.0,382.0)" style="font-size:1.0000000000000013px;">viral hepatitis</text>
  <rect x="376.0" y="9.0" width="3.5211267605633805" height="1.0" style="fill:cyan;opacity:0.3;"/>
  <text x="376.0" y="10.0" transform="matrix(6.123233995736766E-17,-1.0,1.0,6.123233995736766E-17,366.0,386.0)" style="font-size:1.0000000000000013px;">hemorrhagic dis</text>
  <rect x="379.0" y="9.0" width="3.5211267605633805" height="1.0" style="fill:cyan;opacity:0.3;"/>
  <text x="379.0" y="10.0" transform="matrix(6.123233995736766E-17,-1.0,1.0,6.123233995736766E-17,369.0,389.0)" style="font-size:1.0000000000000013px;">cerebral venous</text>
  <rect x="383.0" y="9.0" width="3.5211267605633805" height="1.0" style="fill:cyan;opacity:0.3;"/>
  <text x="383.0" y="10.0" transform="matrix(6.123233995736766E-17,-1.0,1.0,6.123233995736766E-17,373.0,393.0)" style="font-size:1.0000000000000013px;">lymphadenopathy</text>
  <rect x="386.0" y="9.0" width="3.5211267605633805" height="1.0" style="fill:cyan;opacity:0.3;"/>
  <text x="386.0" y="10.0" transform="matrix(6.123233995736766E-17,-1.0,1.0,6.123233995736766E-17,376.0,396.0)" style="font-size:1.0000000000000013px;">rheumatic fever</text>
  <rect x="390.0" y="9.0" width="3.5211267605633805" height="1.0" style="fill:cyan;opacity:0.3;"/>
  <text x="390.0" y="10.0" transform="matrix(6.123233995736766E-17,-1.0,1.0,6.123233995736766E-17,380.0,400.0)" style="font-size:1.0000000000000013px;">pneumonic plagu</text>
  <rect x="393.0" y="9.0" width="3.5211267605633805" height="1.0" style="fill:cyan;opacity:0.3;"/>
  <text x="393.0" y="10.0" transform="matrix(6.123233995736766E-17,-1.0,1.0,6.123233995736766E-17,383.0,403.0)" style="font-size:1.0000000000000013px;">tungiasis</text>
  <rect x="397.0" y="9.0" width="3.5211267605633805" height="1.0" style="fill:cyan;opacity:0.3;"/>
  <text x="397.0" y="10.0" transform="matrix(6.123233995736766E-17,-1.0,1.0,6.123233995736766E-17,387.0,407.0)" style="font-size:1.0000000000000013px;">pneumonic plagu</text>
  <rect x="400.0" y="9.0" width="3.5211267605633805" height="1.0" style="fill:cyan;opacity:0.3;"/>
  <text x="400.0" y="10.0" transform="matrix(6.123233995736766E-17,-1.0,1.0,6.123233995736766E-17,390.0,410.0)" style="font-size:1.0000000000000013px;">pulmonary tuber</text>
  <rect x="404.0" y="9.0" width="3.5211267605633805" height="1.0" style="fill:cyan;opacity:0.3;"/>
  <text x="404.0" y="10.0" transform="matrix(6.123233995736766E-17,-1.0,1.0,6.123233995736766E-17,394.0,414.0)" style="font-size:1.0000000000000013px;">viral disease,</text>
  <rect x="407.0" y="9.0" width="3.5211267605633805" height="1.0" style="fill:cyan;opacity:0.3;"/>
  <text x="407.0" y="10.0" transform="matrix(6.123233995736766E-17,-1.0,1.0,6.123233995736766E-17,397.0,417.0)" style="font-size:1.0000000000000013px;">myocarditis</text>
  <rect x="411.0" y="9.0" width="3.5211267605633805" height="1.0" style="fill:cyan;opacity:0.3;"/>
  <text x="411.0" y="10.0" transform="matrix(6.123233995736766E-17,-1.0,1.0,6.123233995736766E-17,401.0,421.0)" style="font-size:1.0000000000000013px;">severe acute re</text>
  <rect x="414.0" y="9.0" width="3.5211267605633805" height="1.0" style="fill:cyan;opacity:0.3;"/>
  <text x="414.0" y="10.0" transform="matrix(6.123233995736766E-17,-1.0,1.0,6.123233995736766E-17,404.0,424.0)" style="font-size:1.0000000000000013px;">bronchiolitis</text>
  <rect x="418.0" y="9.0" width="3.5211267605633805" height="1.0" style="fill:cyan;opacity:0.3;"/>
  <text x="418.0" y="10.0" transform="matrix(6.123233995736766E-17,-1.0,1.0,6.123233995736766E-17,408.0,428.0)" style="font-size:1.0000000000000013px;">optic neuritis</text>
  <rect x="421.0" y="9.0" width="3.5211267605633805" height="1.0" style="fill:cyan;opacity:0.3;"/>
  <text x="421.0" y="10.0" transform="matrix(6.123233995736766E-17,-1.0,1.0,6.123233995736766E-17,411.0,431.0)" style="font-size:1.0000000000000013px;">typhoid fever,</text>
  <rect x="425.0" y="9.0" width="3.5211267605633805" height="1.0" style="fill:cyan;opacity:0.3;"/>
  <text x="425.0" y="10.0" transform="matrix(6.123233995736766E-17,-1.0,1.0,6.123233995736766E-17,415.0,435.0)" style="font-size:1.0000000000000013px;">botulism</text>
  <rect x="429.0" y="9.0" width="3.5211267605633805" height="1.0" style="fill:cyan;opacity:0.3;"/>
  <text x="429.0" y="10.0" transform="matrix(6.123233995736766E-17,-1.0,1.0,6.123233995736766E-17,419.0,439.0)" style="font-size:1.0000000000000013px;">acute conjuncti</text>
  <rect x="432.0" y="9.0" width="3.5211267605633805" height="1.0" style="fill:cyan;opacity:0.3;"/>
  <text x="432.0" y="10.0" transform="matrix(6.123233995736766E-17,-1.0,1.0,6.123233995736766E-17,422.0,442.0)" style="font-size:1.0000000000000013px;">stomatitis</text>
  <rect x="436.0" y="9.0" width="3.5211267605633805" height="1.0" style="fill:cyan;opacity:0.3;"/>
  <text x="436.0" y="10.0" transform="matrix(6.123233995736766E-17,-1.0,1.0,6.123233995736766E-17,426.0,446.0)" style="font-size:1.0000000000000013px;">yellow fever</text>
  <rect x="439.0" y="9.0" width="3.5211267605633805" height="1.0" style="fill:cyan;opacity:0.3;"/>
  <text x="439.0" y="10.0" transform="matrix(6.123233995736766E-17,-1.0,1.0,6.123233995736766E-17,429.0,449.0)" style="font-size:1.0000000000000013px;">proteinuria</text>
  <rect x="443.0" y="9.0" width="3.5211267605633805" height="1.0" style="fill:cyan;opacity:0.3;"/>
  <text x="443.0" y="10.0" transform="matrix(6.123233995736766E-17,-1.0,1.0,6.123233995736766E-17,433.0,453.0)" style="font-size:1.0000000000000013px;">diabetes mellit</text>
  <rect x="446.0" y="9.0" width="3.5211267605633805" height="1.0" style="fill:cyan;opacity:0.3;"/>
  <text x="446.0" y="10.0" transform="matrix(6.123233995736766E-17,-1.0,1.0,6.123233995736766E-17,436.0,456.0)" style="font-size:1.0000000000000013px;">brachial plexus</text>
  <rect x="450.0" y="9.0" width="3.5211267605633805" height="1.0" style="fill:cyan;opacity:0.3;"/>
  <text x="450.0" y="10.0" transform="matrix(6.123233995736766E-17,-1.0,1.0,6.123233995736766E-17,440.0,460.0)" style="font-size:1.0000000000000013px;">multiple sclero</text>
  <rect x="453.0" y="9.0" width="3.5211267605633805" height="1.0" style="fill:cyan;opacity:0.3;"/>
  <text x="453.0" y="10.0" transform="matrix(6.123233995736766E-17,-1.0,1.0,6.123233995736766E-17,443.0,463.0)" style="font-size:1.0000000000000013px;">pericarditis</text>
  <rect x="457.0" y="9.0" width="3.5211267605633805" height="1.0" style="fill:cyan;opacity:0.3;"/>
  <text x="457.0" y="10.0" transform="matrix(6.123233995736766E-17,-1.0,1.0,6.123233995736766E-17,447.0,467.0)" style="font-size:1.0000000000000013px;">heart disease</text>
  <rect x="460.0" y="9.0" width="3.5211267605633805" height="1.0" style="fill:cyan;opacity:0.3;"/>
  <text x="460.0" y="10.0" transform="matrix(6.123233995736766E-17,-1.0,1.0,6.123233995736766E-17,450.0,470.0)" style="font-size:1.0000000000000013px;">substance abuse</text>
  <rect x="464.0" y="9.0" width="3.5211267605633805" height="1.0" style="fill:cyan;opacity:0.3;"/>
  <text x="464.0" y="10.0" transform="matrix(6.123233995736766E-17,-1.0,1.0,6.123233995736766E-17,454.0,474.0)" style="font-size:1.0000000000000013px;">coronary aneury</text>
  <rect x="467.0" y="9.0" width="3.5211267605633805" height="1.0" style="fill:cyan;opacity:0.3;"/>
  <text x="467.0" y="10.0" transform="matrix(6.123233995736766E-17,-1.0,1.0,6.123233995736766E-17,457.0,477.0)" style="font-size:1.0000000000000013px;">cirrhosis</text>
  <rect x="471.0" y="9.0" width="3.5211267605633805" height="1.0" style="fill:cyan;opacity:0.3;"/>
  <text x="471.0" y="10.0" transform="matrix(6.123233995736766E-17,-1.0,1.0,6.123233995736766E-17,461.0,481.0)" style="font-size:1.0000000000000013px;">diphtheria</text>
  <rect x="474.0" y="9.0" width="3.5211267605633805" height="1.0" style="fill:cyan;opacity:0.3;"/>
  <text x="474.0" y="10.0" transform="matrix(6.123233995736766E-17,-1.0,1.0,6.123233995736766E-17,464.0,484.0)" style="font-size:1.0000000000000013px;">chronic obstruc</text>
  <rect x="478.0" y="9.0" width="3.5211267605633805" height="1.0" style="fill:cyan;opacity:0.3;"/>
  <text x="478.0" y="10.0" transform="matrix(6.123233995736766E-17,-1.0,1.0,6.123233995736766E-17,468.0,488.0)" style="font-size:1.0000000000000013px;">viral hepatitis</text>
  <rect x="481.0" y="9.0" width="3.5211267605633805" height="1.0" style="fill:cyan;opacity:0.3;"/>
  <text x="481.0" y="10.0" transform="matrix(6.123233995736766E-17,-1.0,1.0,6.123233995736766E-17,470.99999999999994,491.0)" style="font-size:1.0000000000000013px;">mental disorder</text>
  <rect x="485.0" y="9.0" width="3.5211267605633805" height="1.0" style="fill:cyan;opacity:0.3;"/>
  <text x="485.0" y="10.0" transform="matrix(6.123233995736766E-17,-1.0,1.0,6.123233995736766E-17,474.99999999999994,495.0)" style="font-size:1.0000000000000013px;">mental disorder</text>
  <rect x="488.0" y="9.0" width="3.5211267605633805" height="1.0" style="fill:cyan;opacity:0.3;"/>
  <text x="488.0" y="10.0" transform="matrix(6.123233995736766E-17,-1.0,1.0,6.123233995736766E-17,477.99999999999994,498.0)" style="font-size:1.0000000000000013px;">polyneuropathy</text>
  <rect x="492.0" y="9.0" width="3.5211267605633805" height="1.0" style="fill:cyan;opacity:0.3;"/>
  <text x="492.0" y="10.0" transform="matrix(6.123233995736766E-17,-1.0,1.0,6.123233995736766E-17,481.99999999999994,502.0)" style="font-size:1.0000000000000013px;">rabies</text>
  <rect x="495.0" y="9.0" width="3.5211267605633805" height="1.0" style="fill:cyan;opacity:0.3;"/>
  <text x="495.0" y="10.0" transform="matrix(6.123233995736766E-17,-1.0,1.0,6.123233995736766E-17,484.99999999999994,505.0)" style="font-size:1.0000000000000013px;">chronic obstruc</text>
  <rect x="499.0" y="9.0" width="3.5211267605633805" height="1.0" style="fill:cyan;opacity:0.3;"/>
  <text x="499.0" y="10.0" transform="matrix(6.123233995736766E-17,-1.0,1.0,6.123233995736766E-17,488.99999999999994,509.0)" style="font-size:1.0000000000000013px;">prostate cancer</text>
  <rect x="502.0" y="9.0" width="3.5211267605633805" height="1.0" style="fill:cyan;opacity:0.3;"/>
  <text x="502.0" y="10.0" transform="matrix(6.123233995736766E-17,-1.0,1.0,6.123233995736766E-17,491.99999999999994,512.0)" style="font-size:1.0000000000000013px;">aseptic meningi</text>
  <rect x="506.0" y="9.0" width="3.5211267605633805" height="1.0" style="fill:cyan;opacity:0.3;"/>
  <text x="506.0" y="10.0" transform="matrix(6.123233995736766E-17,-1.0,1.0,6.123233995736766E-17,495.99999999999994,516.0)" style="font-size:1.0000000000000013px;">metabolic acido</text>
 </g>
</svg>
