<?xml version="1.0" encoding="UTF-8" standalone="no"?>
<!DOCTYPE svg PUBLIC "-//W3C//DTD SVG 1.1//EN"
 "http://www.w3.org/Graphics/SVG/1.1/DTD/svg11.dtd">
<!-- Generated by graphviz version 2.36.0 (20140111.2315)
 -->
<!-- Title: metabolism Pages: 1 -->
<svg width="355pt" height="620pt"
 viewBox="0.00 0.00 355.00 620.00" xmlns="http://www.w3.org/2000/svg" xmlns:xlink="http://www.w3.org/1999/xlink">
<g id="graph0" class="graph" transform="scale(1 1) rotate(0) translate(4 616)">
<!--
<title>metabolism</title>
-->

<polygon fill="white" stroke="none" points="-4,4 -4,-616 351,-616 351,4 -4,4"/>
<ellipse cx="240" cy="-590" rx="20" ry="7" fill="yellow"/>
<text x="270" y="-590" font-size="10">Cytoplasmic</text>
<ellipse cx="240" cy="-570" rx="20" ry="7" fill="lightgreen"/>
<text x="270" y="-570" font-size="10">NPC</text>
<ellipse cx="240" cy="-550" rx="20" ry="7" fill="cyan"/>
<text x="270" y="-550" font-size="10">Nuclear</text>
<line x1="220" y1="-530" x2="260" y2="-530" stroke="blue" stroke-width="4.0" stroke-dasharray="5 5"/>
<text x="270" y="-530" font-size="10">PlasmidBound</text>
<line x1="220" y1="-515" x2="260" y2="-515" stroke="blue" stroke-width="4.0"/>
<text x="270" y="-515" font-size="10">Complex</text>
<line x1="220" y1="-500" x2="260" y2="-500" stroke="red" stroke-width="4.0" stroke-dasharray="5 5"/>
<text x="270" y="-500" font-size="10">ComplexBound</text>
<line x1="220" y1="-485" x2="260" y2="-485" stroke="red" stroke-width="4.0"/>
<text x="270" y="-485" font-size="10">Complex</text>
<line x1="220" y1="-470" x2="260" y2="-470" stroke="brown" stroke-width="4.0" />
<text x="270" y="-470" font-size="10">Vector</text>

<!-- C_TOT -->
<g id="node1" class="node"><title>Complex_total</title>
<ellipse stroke="red" stroke-width="4.0" fill="red"   cx="166" cy="-594" rx="38.4949" ry="18"/>
<text text-anchor="middle" x="166" y="-590.3" font-family="Times,serif" font-size="14.00">C_TOT</text>
</g>
<!-- C_I -->
<g id="node2" class="node"><title>Complex_Internal</title>
<ellipse stroke="red" stroke-width="4.0" fill="orange"   cx="166" cy="-522" rx="27" ry="18"/>
<text text-anchor="middle" x="166" y="-518.3" font-family="Times,serif" font-size="14.00">C_I</text>
</g>
<!-- init -->
<g id="edge1" class="edge"><title>init</title>
<path fill="none" stroke="black" stroke-width="2.5"  d="M166,-575.697C166,-567.983 166,-558.712 166,-550.112"/>
<polygon fill="black" stroke="black" stroke-width="2.5"  points="169.5,-550.104 166,-540.104 162.5,-550.104 169.5,-550.104"/>
</g>
<!-- C_C -->
<g id="node3" class="node"><title>Complex_Cytoplasmic</title>
<ellipse stroke="red" stroke-width="4.0" fill="yellow"   cx="166" cy="-450" rx="26.949" ry="18"/>
<text text-anchor="middle" x="166" y="-446.3" font-family="Times,serif" font-size="14.00">C_C</text>
</g>
<!-- escape -->
<g id="escape" class="edge"><title>escape</title>
<path fill="none" stroke="black" stroke-width="0.9"  d="M166,-503.697C166,-495.983 166,-486.712 166,-478.112"/>
<polygon fill="black" stroke="black" stroke-width="2.5"  points="169.5,-478.104 166,-468.104 162.5,-478.104 169.5,-478.104"/>
</g>
<!-- CB_C -->
<g id="node4" class="node"><title>Complex_Bound_Cytoplasmic</title>
<ellipse stroke="red" stroke-width="4.0" stroke-dasharray="5 5" fill="yellow"   cx="81" cy="-378" rx="33.1991" ry="18"/>
<text text-anchor="middle" x="81" y="-374.3" font-family="Times,serif" font-size="14.00">CB_C</text>
</g>
<!-- bind -->
<g id="edge3" class="edge"><title>bind</title>
<path fill="none" stroke="black" stroke-width="1.4"  d="M149.611,-435.503C137.352,-425.407 120.359,-411.414 106.353,-399.879"/>
<polygon fill="black" stroke="black" stroke-width="2.5"  points="108.453,-397.075 98.509,-393.419 104.003,-402.478 108.453,-397.075"/>
</g>
<!-- V_C -->
<g id="node5" class="node"><title>Vector_Cytoplasmic</title>
<ellipse stroke="brown" stroke-width="4.0" fill="yellow"   cx="166" cy="-378" rx="27.4223" ry="18"/>
<text text-anchor="middle" x="166" y="-374.3" font-family="Times,serif" font-size="14.00">V_C</text>
</g>
<!-- unpack -->
<g id="edge4" class="edge"><title>unpack</title>
<path fill="none" stroke="black" stroke-width="6.0"  d="M166,-431.697C166,-423.983 166,-414.712 166,-406.112"/>
<polygon fill="black" stroke="black" stroke-width="2.5"  points="169.5,-406.104 166,-396.104 162.5,-406.104 169.5,-406.104"/>
</g>
<!-- P_C -->
<g id="node6" class="node"><title>Plasmid_Cytoplasmic</title>
<ellipse stroke="blue" stroke-width="4.0" fill="yellow"   cx="243" cy="-378" rx="27" ry="18"/>
<text text-anchor="middle" x="243" y="-374.3" font-family="Times,serif" font-size="14.00">P_C</text>
</g>
<!-- unpack -->
<g id="edge5" class="edge"><title>unpack</title>
<path fill="none" stroke="black" stroke-width="6.0"  d="M181.582,-434.834C192.613,-424.806 207.59,-411.191 219.993,-399.916"/>
<polygon fill="black" stroke="black" stroke-width="2.5"  points="222.659,-402.222 227.704,-392.906 217.95,-397.043 222.659,-402.222"/>
</g>
<!-- CB_NPC -->
<g id="node7" class="node"><title>Complex_Bound_NPC</title>
<ellipse stroke="red" stroke-width="4.0" stroke-dasharray="5 5" fill="lime"   cx="76" cy="-306" rx="44.271" ry="18"/>
<text text-anchor="middle" x="76" y="-302.3" font-family="Times,serif" font-size="14.00">CB_NPC</text>
</g>
<!-- NPC -->
<g id="edge6" class="edge"><title>NPC</title>
<path fill="none" stroke="black" stroke-width="4.0"  d="M79.764,-359.697C79.2131,-351.983 78.5509,-342.712 77.9366,-334.112"/>
<polygon fill="black" stroke="black" stroke-width="2.5"  points="81.4254,-333.83 77.2217,-324.104 74.4432,-334.328 81.4254,-333.83"/>
</g>
<!-- V? -->
<g id="node13" class="node"><title>Vector?</title>
<ellipse stroke="brown" stroke-width="4.0" fill="lightgray"   cx="166" cy="-306" rx="27" ry="18"/>
<text text-anchor="middle" x="166" y="-302.3" font-family="Times,serif" font-size="14.00">V?</text>
</g>
<!-- bind -->
<g id="edge12" class="edge"><title>bind</title>
<path fill="none" stroke="black" stroke-width="1.4"  d="M166,-359.697C166,-351.983 166,-342.712 166,-334.112"/>
<polygon fill="black" stroke="black" stroke-width="2.5"  points="169.5,-334.104 166,-324.104 162.5,-334.104 169.5,-334.104"/>
</g>
<!-- PB_C -->
<g id="node14" class="node"><title>Plasmid_Bound_Cytoplasmic</title>
<ellipse stroke="blue" stroke-width="4.0" stroke-dasharray="5 5" fill="yellow"   cx="243" cy="-306" rx="32.2457" ry="18"/>
<text text-anchor="middle" x="243" y="-302.3" font-family="Times,serif" font-size="14.00">PB_C</text>
</g>
<!-- bind -->
<g id="edge13" class="edge"><title>bind</title>
<path fill="none" stroke="black" stroke-width="1.4"  d="M243,-359.697C243,-351.983 243,-342.712 243,-334.112"/>
<polygon fill="black" stroke="black" stroke-width="2.5"  points="246.5,-334.104 243,-324.104 239.5,-334.104 246.5,-334.104"/>
</g>
<!-- XP_C -->
<g id="node15" class="node"><title>XP_Cytoplasmic</title>
<ellipse stroke="blue" stroke-width="4.0" fill="yellow"   cx="320" cy="-306" rx="27" ry="18"/>
<text text-anchor="middle" x="320" y="-302.3" font-family="Times,serif" font-size="14.00">XP_C</text>
</g>
<!-- degrad -->
<g id="edge14" class="edge"><title>degrad</title>
<path fill="none" stroke="black" stroke-width="1.6"  d="M258.582,-362.834C269.613,-352.806 284.59,-339.191 296.993,-327.916"/>
<polygon fill="black" stroke="black" stroke-width="2.5"  points="299.659,-330.222 304.704,-320.906 294.95,-325.043 299.659,-330.222"/>
</g>
<!-- CB_N -->
<g id="node8" class="node"><title>Complex_Bound_Nuclear</title>
<ellipse stroke="red" stroke-width="4.0" stroke-dasharray="5 5" fill="cyan"   cx="91" cy="-234" rx="33.1991" ry="18"/>
<text text-anchor="middle" x="91" y="-230.3" font-family="Times,serif" font-size="14.00">CB_N</text>
</g>
<!-- in -->
<g id="edge7" class="edge"><title>in</title>
<path fill="none" stroke="black" stroke-width="1.5"  d="M79.6311,-288.055C81.3012,-280.261 83.3239,-270.822 85.1974,-262.079"/>
<polygon fill="black" stroke="black" stroke-width="2.5"  points="88.6251,-262.787 87.2982,-252.275 81.7805,-261.32 88.6251,-262.787"/>
</g>
<!-- C_N -->
<g id="node9" class="node"><title>Complex_Nuclear</title>
<ellipse stroke="red" stroke-width="4.0" fill="cyan"   cx="114" cy="-162" rx="27.4223" ry="18"/>
<text text-anchor="middle" x="114" y="-158.3" font-family="Times,serif" font-size="14.00">C_N</text>
</g>
<!-- dissoc -->
<g id="edge8" class="edge"><title>dissoc</title>
<path fill="none" stroke="black" stroke-width="4.1"  d="M96.5677,-216.055C99.195,-208.059 102.391,-198.331 105.326,-189.4"/>
<polygon fill="black" stroke="black" stroke-width="2.5"  points="108.687,-190.382 108.484,-179.789 102.037,-188.197 108.687,-190.382"/>
</g>
<!-- V_N -->
<g id="node10" class="node"><title>Vector_Nuclear</title>
<ellipse stroke="brown" stroke-width="4.0" fill="cyan"   cx="75" cy="-90" rx="28.3955" ry="18"/>
<text text-anchor="middle" x="75" y="-86.3" font-family="Times,serif" font-size="14.00">V_N</text>
</g>
<!-- unpack -->
<g id="edge9" class="edge"><title>unpack</title>
<path fill="none" stroke="black" stroke-width="6.0"  d="M104.955,-144.765C100.18,-136.195 94.2181,-125.494 88.8731,-115.9"/>
<polygon fill="black" stroke="black" stroke-width="2.5"  points="91.9209,-114.18 83.9964,-107.147 85.8059,-117.586 91.9209,-114.18"/>
</g>
<!-- P_N -->
<g id="node11" class="node"><title>Plasmid_Nuclear</title>
<ellipse stroke="blue" stroke-width="4.0" fill="cyan"   cx="152" cy="-90" rx="27" ry="18"/>
<text text-anchor="middle" x="152" y="-86.3" font-family="Times,serif" font-size="14.00">P_N</text>
</g>
<!-- unpack -->
<g id="edge10" class="edge"><title>unpack</title>
<path fill="none" stroke="black" stroke-width="6.0"  d="M122.813,-144.765C127.418,-136.283 133.155,-125.714 138.321,-116.197"/>
<polygon fill="black" stroke="black" stroke-width="2.5"  points="141.539,-117.606 143.234,-107.147 135.387,-114.266 141.539,-117.606"/>
</g>
<!-- Protein -->
<g id="node12" class="node"><title>Protein</title>
<ellipse stroke="black" stroke-width="1.5" fill="lightblue"   cx="152" cy="-18" rx="37.0701" ry="18"/>
<text text-anchor="middle" x="152" y="-14.3" font-family="Times,serif" font-size="14.00">Protein</text>
</g>
<!-- protein -->
<g id="edge11" class="edge"><title>protein</title>
<path fill="none" stroke="black" stroke-width="1.0"  d="M152,-71.6966C152,-63.9827 152,-54.7125 152,-46.1124"/>
<polygon fill="black" stroke="black" stroke-width="2.5"  points="155.5,-46.1043 152,-36.1043 148.5,-46.1044 155.5,-46.1043"/>
</g>
<!-- PB_NPC -->
<g id="node17" class="node"><title>Plasmid_Bound_NPC</title>
<ellipse stroke="blue" stroke-width="4.0" stroke-dasharray="5 5" fill="lime"   cx="216" cy="-234" rx="44.2946" ry="18"/>
<text text-anchor="middle" x="216" y="-230.3" font-family="Times,serif" font-size="14.00">PB_NPC</text>
</g>
<!-- NPC -->
<g id="edge16" class="edge"><title>NPC</title>
<path fill="none" stroke="black" stroke-width="4.0"  d="M236.464,-288.055C233.425,-280.176 229.738,-270.617 226.335,-261.794"/>
<polygon fill="black" stroke="black" stroke-width="2.5"  points="229.528,-260.346 222.663,-252.275 222.997,-262.865 229.528,-260.346"/>
</g>
<!-- X? -->
<g id="node16" class="node"><title>X?</title>
<ellipse stroke="blue" stroke-width="4.0" fill="lightgray"   cx="320" cy="-234" rx="27" ry="18"/>
<text text-anchor="middle" x="320" y="-230.3" font-family="Times,serif" font-size="14.00">X?</text>
</g>
<!-- bind -->
<g id="edge15" class="edge"><title>bind</title>
<path fill="none" stroke="black" stroke-width="1.4"  d="M320,-287.697C320,-279.983 320,-270.712 320,-262.112"/>
<polygon fill="black" stroke="black" stroke-width="2.5"  points="323.5,-262.104 320,-252.104 316.5,-262.104 323.5,-262.104"/>
</g>
<!-- PB_N -->
<g id="node18" class="node"><title>Plasmid_Bound_Nuclear</title>
<ellipse stroke="blue" stroke-width="4.0" stroke-dasharray="5 5" fill="cyan"   cx="204" cy="-162" rx="33.2209" ry="18"/>
<text text-anchor="middle" x="204" y="-158.3" font-family="Times,serif" font-size="14.00">PB_N</text>
</g>
<!-- in -->
<g id="edge17" class="edge"><title>in</title>
<path fill="none" stroke="black" stroke-width="1.5"  d="M213.034,-215.697C211.711,-207.983 210.122,-198.712 208.648,-190.112"/>
<polygon fill="black" stroke="black" stroke-width="2.5"  points="212.072,-189.369 206.932,-180.104 205.172,-190.552 212.072,-189.369"/>
</g>
<!-- diss -->
<g id="edge18" class="edge"><title>diss</title>
<path fill="none" stroke="black" stroke-width="4.1"  d="M192.2,-145.116C185.458,-136.04 176.878,-124.49 169.378,-114.393"/>
<polygon fill="black" stroke="black" stroke-width="2.5"  points="172.168,-112.28 163.396,-106.34 166.549,-116.455 172.168,-112.28"/>
</g>
<!-- VB_N -->
<g id="node19" class="node"><title>Vector_Bound_Nuclear</title>
<ellipse stroke="brown" stroke-width="4.0" fill="cyan" cx="34" cy="-162" rx="34.1708" ry="18"/>
<text text-anchor="middle" x="34" y="-158.3" font-family="Times,serif" font-size="14.00">VB_N</text>
</g>
<!-- diss -->
<g id="edge19" class="edge"><title>diss</title>
<path fill="none" stroke="black" stroke-width="4.1"  d="M43.7164,-144.411C48.7411,-135.832 54.974,-125.191 60.5507,-115.67"/>
<polygon fill="black" stroke="black" stroke-width="2.5"  points="63.6016,-117.386 65.6355,-106.988 57.5614,-113.848 63.6016,-117.386"/>
</g>
</g>
</svg>
