<?xml version="1.0" encoding="UTF-8"?>
<svg height="742.756" width="2824.192" xmlns="http://www.w3.org/2000/svg">
 <g id="page" xmlns:svgx="http://www.xml-cml.org/schema/svgx">
  <g begin="text">
   <text y="300.756" x="56.693,59.848,64.944,68.031,71.187,76.308,80.718,83.848,87.621,90.595,94.975,100.233,105.437,109.644,113.319,118.513,121.605,126.094,130.336,132.774,138.076,142.299,146.211,148.36700000000002,151.483,154.639,159.76,164.17,167.414,171.795,175.294,179.675,183.288,186.444,190.714,193.262,196.384,200.764,205.001,207.439,209.987,213.108,217.489,222.122,227.326,231.59,236.999,242.022,245.74599999999998,248.939,251.377,256.767,259.937,264.34700000000004,267.477,271.858,277.115,282.309,285.449" svgx:width="0.32,0.52,0.55,0.32,0.54,0.45,0.55,0.38,0.32,0.45,0.55,0.53,0.45,0.38,0.53,0.55,0.46,0.45,0.26,0.54,0.45,0.38,0.22,0.55,0.32,0.54,0.45,0.55,0.45,0.38,0.45,0.38,0.32,0.45,0.26,0.55,0.45,0.45,0.26,0.26,0.55,0.45,0.49,0.53,0.45,0.55,0.53,0.38,0.55,0.26,0.55,0.55,0.45,0.55,0.45,0.55,0.53,0.55,0.52" style="fill:rgb(23,22,21);font-family:AdvTT86d47313;font-size:9.8px;stroke:none;">to the standard values, the crystal cell expands in a and b</text>
   <text y="312.775" x="56.693,61.897,64.29,67.965,72.345,76.593,79.748,82.148,87.137,92.547,96.271,99.043,103.424,108.681,113.875,116.675,121.056,126.029,131.439,134.42,138.095,142.357,146.737,149.893,153.617,156.417,158.855,164.245,167.075,171.48499999999999,174.218,179.422,181.815,185.49,189.871,194.118,197.273,199.673,204.769,210.049,212.205,214.981,221.33,226.632,231.042,233.859,238.24,242.42,244.968,247.516,250.243,254.731,259.711,262.149,267.451,275.472,279.882,282.672,287.661" svgx:width="0.53,0.26,0.38,0.45,0.45,0.32,0.26,0.52,0.55,0.38,0.55,0.45,0.55,0.53,0.55,0.45,0.52,0.55,0.32,0.38,0.45,0.45,0.32,0.38,0.55,0.26,0.55,0.55,0.45,0.55,0.53,0.26,0.38,0.45,0.45,0.32,0.26,0.52,0.55,0.22,0.55,0.67,0.54,0.45,0.55,0.45,0.45,0.26,0.26,0.55,0.46,0.52,0.26,0.54,0.83,0.45,0.55,0.52,0.29" style="fill:rgb(23,22,21);font-family:AdvTT86d47313;font-size:9.8px;stroke:none;">directions and contracts in c direction. The cell volume of</text>
   <text y="324.737" x="56.693,61.995,65.537,69.918,75.062,77.5,82.91,86.344,88.783,91.331,96.096,100.506,104.713,113.798,119.057" svgx:width="0.54,0.38,0.45,0.54,0.26,0.55,0.36,0.26,0.26,0.5,0.45,0.55,0.93,0.55,0.78" style="fill:rgb(23,22,21);font-family:AdvTT86d47313;font-size:9.8px;stroke:none;">urchin-like MnO</text>
   <text y="326.381" x="126.652" svgx:width="0.5" style="fill:rgb(23,22,21);font-family:AdvTT86d47313;font-size:6.53px;stroke:none;">2</text>
   <text y="324.737" x="134.589,137.027,140.75099999999998,145.078,149.978,154.716,159.616,161.576,166.476,171.376,175.579" svgx:width="0.26,0.38,0.55,0.5,0.5,0.5,0.22,0.5,0.5,0.55,0.71" style="fill:rgb(23,22,21);font-family:AdvTT86d47313;font-size:9.8px;stroke:none;">is 274.02 Å</text>
   <text y="320.372" x="182.438" svgx:width="0.5" style="fill:rgb(23,22,21);font-family:AdvTT86d47313;font-size:6.53px;stroke:none;">3</text>
   <text y="324.737" x="186.009,188.165,192.416,198.765,204.067,208.477,212.598,216.851,221.216,225.596,229.152,233.533,238.054,242.464,246.728,250.501,252.851,257.133,261.543,265.72,270.709,273.551,277.852,281.008,286.129" svgx:width="0.22,0.55,0.67,0.54,0.45,0.55,0.45,0.46,0.45,0.38,0.45,0.48,0.45,0.55,0.38,0.26,0.44,0.45,0.55,0.52,0.29,0.55,0.32,0.54,0.45" style="fill:rgb(23,22,21);font-family:AdvTT86d47313;font-size:9.8px;stroke:none;">. The average size of the</text>
   <text y="336.756" x="56.693,61.073,65.31,70.514,75.571,78.01,82.39,86.627,90.194,94.45,96.888,101.269,107.943,111.511,113.896,116.444,121.21,125.61999999999999,129.26,138.345,143.603" svgx:width="0.45,0.45,0.53,0.53,0.26,0.45,0.45,0.36,0.45,0.26,0.45,0.7,0.36,0.26,0.26,0.5,0.45,0.55,0.93,0.55,0.78" style="fill:rgb(23,22,21);font-family:AdvTT86d47313;font-size:9.8px;stroke:none;">caddice-clew-like MnO</text>
   <text y="338.4" x="151.2" svgx:width="0.5" style="fill:rgb(23,22,21);font-family:AdvTT86d47313;font-size:6.53px;stroke:none;">2</text>
   <text y="336.756" x="158.513,162.894,166.393,170.774,174.387,177.543,181.814,184.362,187.993,192.688,196.214,200.594,202.96,208.369,212.093,215.715,218.263,221.987,225.637,230.017,234.254,236.692,241.073,246.273,248.712,253.092,256.082,260.463,265.65700000000004,269.291,272.447,277.543,281.14,286.13" svgx:width="0.45,0.38,0.45,0.38,0.32,0.45,0.26,0.55,0.48,0.38,0.45,0.26,0.55,0.38,0.55,0.26,0.38,0.55,0.45,0.45,0.26,0.45,0.54,0.26,0.45,0.32,0.45,0.53,0.55,0.32,0.52,0.55,0.52,0.45" style="fill:rgb(23,22,21);font-family:AdvTT86d47313;font-size:9.8px;stroke:none;">crystal grains is calculated to be</text>
   <text y="348.775" x="56.693,61.593,66.49300000000001,70.356,75.766,83.9,87.761,92.142,96.378,100.759,105.675,109.35,114.406,116.954,122.229,126.93299999999999,130.789,133.945,139.041,142.922,146.077,151.199,155.609,159.533,164.531,168.911,174.103,178.484,181.983,185.658,189.863,193.587,197.46,201.841,206.928,212.23,216.452,219.608,222.008,226.997" svgx:width="0.5,0.5,0.55,0.55,0.83,0.55,0.45,0.45,0.45,0.52,0.38,0.53,0.26,0.55,0.48,0.55,0.32,0.52,0.55,0.32,0.54,0.45,0.55,0.51,0.45,0.54,0.45,0.38,0.38,0.45,0.38,0.55,0.45,0.53,0.54,0.45,0.32,0.26,0.52,0.55" style="fill:rgb(23,22,21);font-family:AdvTT86d47313;font-size:9.8px;stroke:none;">32 nm according to the Scherrer equation</text>
   <text y="348.775" x="236.353" svgx:width="0.72" style="fill:rgb(23,22,21);font-family:AdvTT8861b38f.I;font-size:9.8px;stroke:none;">D</text>
   <text y="348.775" x="245.253" svgx:width="0.58" style="fill:rgb(23,22,21);font-family:AdvTT86d47313;font-size:9.8px;stroke:none;">=</text>
   <text y="348.775" x="252.85,259.2" svgx:width="0.66,0.5" style="fill:rgb(23,22,21);font-family:AdvTT8861b38f.I;font-size:9.8px;stroke:none;">Kλ</text>
   <text y="348.775" x="264.018" svgx:width="0.36" style="fill:rgb(23,22,21);font-family:AdvTT86d47313;font-size:9.8px;stroke:none;">/</text>
   <text y="348.775" x="267.477" svgx:width="0.52" style="fill:rgb(23,22,21);font-family:AdvTT8861b38f.I;font-size:9.8px;stroke:none;">β</text>
   <text y="348.775" x="272.522,276.903,281.82" svgx:width="0.45,0.52,0.38" style="fill:rgb(23,22,21);font-family:AdvTT86d47313;font-size:9.8px;stroke:none;">cos</text>
   <text y="348.775" x="285.505" svgx:width="0.51" style="fill:rgb(23,22,21);font-family:AdvTT8861b38f.I;font-size:9.8px;stroke:none;">θ</text>
   <text y="360.737" x="56.693,61.995,65.595,68.143,73.418,78.122,81.695,84.85,90.029,94.439,98.022,101.795,104.769,108.444,113.386,118.795,123.364,127.745,131.358,134.494,138.104,143.308,145.701,148.553,151.257,154.931,159.137,163.517,166.563,169.001,174.097,179.48700000000002,183.061,188.265,192.472,196.853,201.75300000000001,205.284,210.38,213.222,216.793,219.949,224.673,229.573,234.312,237.448,241.115" svgx:width="0.54,0.38,0.26,0.55,0.48,0.55,0.32,0.54,0.45,0.55,0.38,0.32,0.38,0.52,0.55,0.48,0.45,0.38,0.32,0.55,0.53,0.26,0.29,0.29,0.38,0.45,0.45,0.32,0.26,0.52,0.55,0.55,0.53,0.45,0.45,0.5,0.55,0.52,0.29,0.55,0.32,0.5,0.5,0.5,0.32,0.55,0.32" style="fill:rgb(23,22,21);font-family:AdvTT86d47313;font-size:9.8px;stroke:none;">using the strongest diffraction peak of (211) [</text>
   <text y="360.737" x="244.176" svgx:width="0.72" style="fill:rgb(23,22,21);font-family:AdvTT8861b38f.I;font-size:9.8px;stroke:none;">D</text>
   <text y="360.737" x="254.835,257.383,261.10699999999997,264.699,269.08,272.579,276.96,280.573,283.729,287.999" svgx:width="0.26,0.38,0.55,0.45,0.38,0.45,0.38,0.32,0.45,0.26" style="fill:rgb(23,22,21);font-family:AdvTT86d47313;font-size:9.8px;stroke:none;">is crystal</text>
   <text y="372.755" x="56.693,61.388,64.914,69.294,71.66,77.05,80.22,83.993,86.4,90.682,95.092,98.135,101.291,106.526,114.689,117.845" svgx:width="0.48,0.38,0.45,0.26,0.55,0.55,0.38,0.26,0.44,0.45,0.55,0.32,0.55,0.83,0.32,0.22" style="fill:rgb(23,22,21);font-family:AdvTT86d47313;font-size:9.8px;stroke:none;">grain size (nm),</text>
   <text y="372.755" x="123.024" svgx:width="0.66" style="fill:rgb(23,22,21);font-family:AdvTT8861b38f.I;font-size:9.8px;stroke:none;">K</text>
   <text y="372.755" x="132.605,135.153,138.87699999999998,142.016,145.172,150.293,154.703,157.833,162.831,167.212,172.404,176.784,180.284,183.959,188.221,191.945,195.024,199.404,204.378,209.787,213.392,216.547,220.762,226.172,229.308,232.441,235.596,240.321,242.457,247.181,252.081,255.061" svgx:width="0.26,0.38,0.55,0.32,0.54,0.45,0.55,0.51,0.45,0.54,0.45,0.38,0.38,0.45,0.38,0.55,0.45,0.52,0.55,0.38,0.32,0.45,0.55,0.32,0.55,0.32,0.5,0.22,0.5,0.5,0.32,0.22" style="fill:rgb(23,22,21);font-family:AdvTT86d47313;font-size:9.8px;stroke:none;">is the Scherrer constant (0.89),</text>
   <text y="372.755" x="260.391" svgx:width="0.5" style="fill:rgb(23,22,21);font-family:AdvTT8861b38f.I;font-size:9.8px;stroke:none;">λ</text>
   <text y="372.755" x="268.442,270.88,274.604,277.854,281.009,286.131" svgx:width="0.26,0.38,0.55,0.32,0.54,0.45" style="fill:rgb(23,22,21);font-family:AdvTT86d47313;font-size:9.8px;stroke:none;">is the</text>
   <text y="384.774" x="56.694,63.044,66.611,70.13,74.511,78.92099999999999,82.546,89.376,93.487,97.975,102.218,104.656,109.037,114.294,118.988,122.005,127.297,131.019,134.174,138.899,141.035,145.816,150.716,155.454,160.354,165.092,169.99200000000002,173.652,179.062,187.089,190.225,193.949,196.801,201.772,205.49599999999998,209.143,215.777,221.069,224.733,231.194,236.524" svgx:width="0.69,0.36,0.38,0.45,0.45,0.55,0.7,0.45,0.46,0.45,0.26,0.45,0.55,0.48,0.32,0.54,0.55,0.32,0.5,0.22,0.5,0.5,0.5,0.5,0.5,0.5,0.55,0.55,0.83,0.32,0.55,0.29,0.52,0.38,0.55,0.68,0.54,0.55,0.67,0.55,0.22" style="fill:rgb(23,22,21);font-family:AdvTT86d47313;font-size:9.8px;stroke:none;">X-ray wavelength (0.154056 nm) for Cu Kα,</text>
   <text y="384.774" x="242.363" svgx:width="0.52" style="fill:rgb(23,22,21);font-family:AdvTT8861b38f.I;font-size:9.8px;stroke:none;">β</text>
   <text y="384.774" x="251.151,253.699,257.423,261.129,264.285,269.406,273.81600000000003,277.514,280.365,285.507,288.055" svgx:width="0.26,0.38,0.55,0.32,0.54,0.45,0.55,0.29,0.54,0.26,0.26" style="fill:rgb(23,22,21);font-family:AdvTT86d47313;font-size:9.8px;stroke:none;">is the full</text>
   <text y="396.735" x="56.695,63.526,65.937,71.14,74.101,79.393,82.264,86.645,89.78099999999999,92.526,97.828,102.107,104.545,107.387,110.215,118.378,122.758,127.45,129.888,138.051,143.211,151.34500000000003,154.209,157.365,162.317,172.215,179.608,188.692,191.828,194.631,199.62,202.46200000000002,205.346,208.502,213.623,218.033,220.823,226.027,230.291,234.671,239.571,242.309,245.465,250.19,255.089,259.828,262.983,265.139,267.878,272.259,277.517" svgx:width="0.7,0.26,0.53,0.32,0.54,0.55,0.45,0.32,0.55,0.54,0.45,0.26,0.29,0.55,0.83,0.45,0.49,0.26,0.83,0.54,0.83,0.55,0.32,0.52,1.01,0.77,0.93,0.32,0.55,0.52,0.29,0.55,0.32,0.54,0.45,0.55,0.53,0.45,0.45,0.5,0.55,0.32,0.5,0.5,0.5,0.32,0.22,0.55,0.45,0.55,0.53" style="fill:rgb(23,22,21);font-family:AdvTT86d47313;font-size:9.8px;stroke:none;">width at half maximum (FWHM) of the peak (211), and</text>
   <text y="396.735" x="285.507" svgx:width="0.51" style="fill:rgb(23,22,21);font-family:AdvTT8861b38f.I;font-size:9.8px;stroke:none;">θ</text>
   <text y="408.754" x="56.695,59.243,62.967,65.993,69.148,74.326,78.73599999999999,81.753,86.133,91.391,96.085,98.477,102.887,105.904,111.0,113.842,116.845,122.049,124.442,127.294,129.998,133.673,137.878,142.258,145.304,147.742,152.838,158.228,161.235,166.439,170.702,175.083,179.83,182.986,184.933,191.763,196.952,199.39,201.938,206.34799999999998,209.311,212.467,217.645,222.055,225.071,233.235,237.487,241.867,245.64,250.81,254.485,258.69,263.884,266.967,272.171,274.564,278.944,286.979" svgx:width="0.26,0.38,0.55,0.32,0.54,0.45,0.55,0.45,0.55,0.48,0.26,0.45,0.55,0.52,0.29,0.55,0.53,0.26,0.29,0.29,0.38,0.45,0.45,0.32,0.26,0.52,0.55,0.55,0.53,0.45,0.45,0.5,0.32,0.22,0.7,0.54,0.26,0.26,0.45,0.55,0.32,0.54,0.45,0.55,0.83,0.45,0.45,0.38,0.54,0.38,0.45,0.53,0.55,0.53,0.26,0.45,0.83,0.36" style="fill:rgb(23,22,21);font-family:AdvTT86d47313;font-size:9.8px;stroke:none;">is the angle of diffraction peak],while the measured diam-</text>
   <text y="420.773" x="56.695,61.076,64.066,68.446,72.17,74.724,79.82,82.66199999999999,85.269,89.649,93.886,99.09,104.147,106.586,110.966,115.203,118.77,123.026,125.464,129.845,136.576,140.035,142.583,144.967,149.867,154.277,156.873,165.957,171.216" svgx:width="0.45,0.32,0.45,0.38,0.55,0.52,0.29,0.55,0.45,0.45,0.53,0.53,0.26,0.45,0.45,0.36,0.45,0.26,0.45,0.7,0.36,0.26,0.26,0.5,0.45,0.55,0.93,0.55,0.78" style="fill:rgb(23,22,21);font-family:AdvTT86d47313;font-size:9.8px;stroke:none;">eter of caddice-clew-like MnO</text>
   <text y="422.362" x="178.753" svgx:width="0.5" style="fill:rgb(23,22,21);font-family:AdvTT86d47313;font-size:6.53px;stroke:none;">2</text>
   <text y="420.775" x="185.102,187.65,191.374,194.004,198.903,203.803,206.419,211.829,219.856,222.012,224.674,231.024,236.325,240.73499999999999,243.27,247.465,251.953,256.196,259.871,264.076,268.77,273.18,275.754,279.527,281.934,286.217" svgx:width="0.26,0.38,0.55,0.5,0.5,0.55,0.55,0.83,0.22,0.55,0.67,0.54,0.45,0.55,0.45,0.46,0.45,0.38,0.45,0.48,0.45,0.55,0.38,0.26,0.44,0.45" style="fill:rgb(23,22,21);font-family:AdvTT86d47313;font-size:9.8px;stroke:none;">is 53 nm. The average size</text>
   <text y="432.737" x="56.693,61.789,64.631,67.918,71.074,76.252,80.66199999999999,83.962,89.264,92.807,97.187,102.331,104.77,110.179,113.614,116.052,118.6,123.366,127.776,131.076,140.161,145.42" svgx:width="0.52,0.29,0.55,0.32,0.54,0.45,0.55,0.54,0.38,0.45,0.54,0.26,0.55,0.36,0.26,0.26,0.5,0.45,0.55,0.93,0.55,0.78" style="fill:rgb(23,22,21);font-family:AdvTT86d47313;font-size:9.8px;stroke:none;">of the urchin-like MnO</text>
   <text y="434.381" x="153.014" svgx:width="0.5" style="fill:rgb(23,22,21);font-family:AdvTT86d47313;font-size:6.53px;stroke:none;">2</text>
   <text y="432.737" x="160.044,164.425,167.924,172.305,175.918,179.074,183.344,185.892,189.24,193.934,197.404,201.785,204.207,209.617,213.34099999999998,216.68,219.118,222.84199999999998,226.261,230.642,234.878,237.316,241.697,246.841,249.389,253.644,256.799,261.014,266.208,269.575,272.73,277.826,281.14,286.13" svgx:width="0.45,0.38,0.45,0.38,0.32,0.45,0.26,0.55,0.48,0.38,0.45,0.26,0.55,0.38,0.55,0.26,0.38,0.55,0.45,0.45,0.26,0.45,0.54,0.26,0.45,0.32,0.45,0.53,0.55,0.32,0.52,0.55,0.52,0.45" style="fill:rgb(23,22,21);font-family:AdvTT86d47313;font-size:9.8px;stroke:none;">crystal grains is calculated to be</text>
   <text y="444.756" x="56.693,61.593,66.49300000000001,69.506,74.915,83.049,86.117,90.497,94.734,99.114,104.031,107.706,112.762,115.31,120.585,125.28899999999999,128.351,131.507,136.603,139.633,142.788,147.91,152.32,155.393,160.391,164.772,169.964,174.344,177.9,181.575,185.781,189.505,192.527,196.907,201.995,207.296,211.519,214.675,217.075,222.064,227.473,229.62900000000002,232.665,239.015,244.316,248.726,251.714,259.878,264.13,268.51,272.18,277.482,281.025,285.405" svgx:width="0.5,0.5,0.55,0.55,0.83,0.55,0.45,0.45,0.45,0.52,0.38,0.53,0.26,0.55,0.48,0.55,0.32,0.52,0.55,0.32,0.54,0.45,0.55,0.51,0.45,0.54,0.45,0.38,0.38,0.45,0.38,0.55,0.45,0.53,0.54,0.45,0.32,0.26,0.52,0.55,0.22,0.55,0.67,0.54,0.45,0.55,0.83,0.45,0.45,0.38,0.54,0.38,0.45,0.53" style="fill:rgb(23,22,21);font-family:AdvTT86d47313;font-size:9.8px;stroke:none;">51 nm according to the Scherrer equation. The measured</text>
   <text y="456.774" x="56.693,61.897,64.29,68.671,76.706,81.086,84.076,88.457,92.181,96.265,101.255,104.097,108.341,111.496,116.675,121.085,125.235,129.008,134.192,139.181,142.856,145.992,150.123,155.532,159.761,165.17,170.136,173.811,178.753,183.957,187.68099999999998,191.849,196.945,202.33499999999998,206.475,211.777,215.319,219.7,224.844,227.392,232.667,236.126,238.674,241.058,245.958,250.368,254.495,263.579,268.838" svgx:width="0.53,0.26,0.45,0.83,0.45,0.32,0.45,0.38,0.55,0.52,0.29,0.55,0.32,0.54,0.45,0.55,0.38,0.54,0.52,0.38,0.32,0.55,0.55,0.45,0.55,0.52,0.38,0.52,0.53,0.38,0.55,0.52,0.55,0.55,0.54,0.38,0.45,0.54,0.26,0.55,0.36,0.26,0.26,0.5,0.45,0.55,0.93,0.55,0.78" style="fill:rgb(23,22,21);font-family:AdvTT86d47313;font-size:9.8px;stroke:none;">diameter of the short nanorods on urchin-like MnO</text>
   <text y="458.362" x="276.435" svgx:width="0.5" style="fill:rgb(23,22,21);font-family:AdvTT86d47313;font-size:6.53px;stroke:none;">2</text>
   <text y="456.775" x="284.315,286.753" svgx:width="0.26,0.38" style="fill:rgb(23,22,21);font-family:AdvTT86d47313;font-size:9.8px;stroke:none;">is</text>
   <text y="468.737" x="56.694,61.074,66.048,71.037,76.338,79.47399999999999,82.035,86.935,91.83500000000001,94.394,99.803,107.83,109.986,112.592,119.531,123.25500000000001,125.915,130.296,134.532,139.92200000000003,142.583,147.572,151.982,154.601,158.374,162.595,166.976,172.233,174.389,176.995,180.151,185.272,189.682,192.415,196.796,201.032,203.471,207.851,212.995,215.543,219.798,222.954,227.169,232.363,234.992,239.373,242.929,247.181,250.954,253.984,258.365,260.73,263.278,265.663,268.818,273.228,275.754,279.527,281.934,286.216" svgx:width="0.45,0.52,0.52,0.54,0.32,0.55,0.5,0.5,0.55,0.55,0.83,0.22,0.55,0.71,0.38,0.55,0.45,0.45,0.55,0.55,0.52,0.45,0.55,0.38,0.45,0.45,0.55,0.22,0.55,0.32,0.54,0.45,0.55,0.45,0.45,0.26,0.45,0.54,0.26,0.45,0.32,0.45,0.53,0.55,0.45,0.38,0.45,0.38,0.32,0.45,0.26,0.26,0.26,0.32,0.45,0.55,0.38,0.26,0.44,0.45" style="fill:rgb(23,22,21);font-family:AdvTT86d47313;font-size:9.8px;stroke:none;">about 50 nm. As can be seen, the calculated crystallite size</text>
   <text y="480.755" x="56.694,61.182,65.424,67.863,73.164,77.574,80.902,85.998,88.84,92.184,96.565,100.801,106.005,111.062,113.501,117.881,122.118,125.685,129.941,132.379,136.76,143.434,147.002,149.387,151.935,156.701,161.111,164.467,173.552,178.81" svgx:width="0.46,0.45,0.26,0.54,0.45,0.55,0.52,0.29,0.55,0.45,0.45,0.53,0.53,0.26,0.45,0.45,0.36,0.45,0.26,0.45,0.7,0.36,0.26,0.26,0.5,0.45,0.55,0.93,0.55,0.78" style="fill:rgb(23,22,21);font-family:AdvTT86d47313;font-size:9.8px;stroke:none;">value of caddice-clew-like MnO</text>
   <text y="482.4" x="186.406" svgx:width="0.5" style="fill:rgb(23,22,21);font-family:AdvTT86d47313;font-size:6.53px;stroke:none;">2</text>
   <text y="480.756" x="193.493,197.873,201.373,205.754,209.367,212.522,216.793,219.341,222.746,225.184,228.908,232.384,236.79399999999998,240.207,242.645,245.193,248.201,251.356,253.756,258.166,261.523,265.296,273.315,277.696,280.118,282.556,286.937" svgx:width="0.45,0.38,0.45,0.38,0.32,0.45,0.26,0.55,0.26,0.38,0.55,0.45,0.55,0.26,0.26,0.32,0.32,0.26,0.45,0.55,0.38,0.83,0.45,0.26,0.26,0.45,0.38" style="fill:rgb(23,22,21);font-family:AdvTT86d47313;font-size:9.8px;stroke:none;">crystal is a little smaller</text>
   <text y="492.775" x="56.693,59.849,65.027,69.408,74.798,77.499,80.655,85.833,90.243,92.976,101.14,105.392,109.772,113.545,118.715,122.39,126.652,131.846,134.645,139.01,143.391,145.813,151.115,155.338,157.494,160.27,165.366,170.532,173.668,176.484,179.64,184.761,189.171,192.075,196.455,200.692,203.13,207.511,212.655,215.203,219.458,222.613,226.828,232.022,234.822,239.203,242.759,247.139,250.753,253.908,258.123,260.671,263.056,265.603,268.611,273.021,275.754,279.527,281.934,286.217" svgx:width="0.32,0.54,0.45,0.55,0.55,0.32,0.54,0.45,0.55,0.83,0.45,0.45,0.38,0.54,0.38,0.45,0.53,0.55,0.46,0.45,0.26,0.54,0.45,0.22,0.55,0.52,0.54,0.32,0.55,0.32,0.54,0.45,0.55,0.45,0.45,0.26,0.45,0.54,0.26,0.45,0.32,0.45,0.53,0.55,0.45,0.38,0.45,0.38,0.32,0.45,0.26,0.26,0.26,0.32,0.45,0.55,0.38,0.26,0.44,0.45" style="fill:rgb(23,22,21);font-family:AdvTT86d47313;font-size:9.8px;stroke:none;">than the measured value, but the calculated crystallite size</text>
   <text y="504.737" x="56.693,61.182,65.424,67.862,73.164,77.574,81.752,86.847,89.689,93.941,99.242,102.728,107.109,112.253,114.801,120.076,123.534,126.082,128.467,133.367,137.777,141.959,151.044,156.302" svgx:width="0.46,0.45,0.26,0.54,0.45,0.55,0.52,0.29,0.55,0.54,0.38,0.45,0.54,0.26,0.55,0.36,0.26,0.26,0.5,0.45,0.55,0.93,0.55,0.78" style="fill:rgb(23,22,21);font-family:AdvTT86d47313;font-size:9.8px;stroke:none;">value of urchin-like MnO</text>
   <text y="506.381" x="163.899" svgx:width="0.5" style="fill:rgb(23,22,21);font-family:AdvTT86d47313;font-size:6.53px;stroke:none;">2</text>
   <text y="504.737" x="171.836,176.217,179.716,184.097,187.71,190.866,195.136,197.684,201.94,204.378,208.10199999999998,212.428,214.976,220.025,224.406,229.663,232.819,235.219,239.6,243.836,246.384,248.54,252.737,259.676,262.035,265.191,270.369,275.358,280.66,285.223" svgx:width="0.45,0.38,0.45,0.38,0.32,0.45,0.26,0.55,0.26,0.38,0.55,0.26,0.53,0.45,0.55,0.32,0.26,0.45,0.45,0.26,0.22,0.55,0.71,0.26,0.32,0.54,0.52,0.54,0.48,0.54" style="fill:rgb(23,22,21);font-family:AdvTT86d47313;font-size:9.8px;stroke:none;">crystal is identical. Although</text>
   <text y="516.756" x="56.693,59.693,64.839,69.249,71.982,80.882,86.136" svgx:width="0.32,0.54,0.45,0.55,0.93,0.55,0.78" style="fill:rgb(23,22,21);font-family:AdvTT86d47313;font-size:9.8px;stroke:none;">the MnO</text>
   <text y="518.4" x="93.543" svgx:width="0.5" style="fill:rgb(23,22,21);font-family:AdvTT86d47313;font-size:6.53px;stroke:none;">2</text>
   <text y="516.756" x="100.006,107.987,110.353,114.551,118.044,122.958,130.939,135.137,138.11,142.309,145.801,148.167,152.365,154.731,158.45499999999998,161.308,165.506,168.999,173.409,176.142,178.466,183.856,186.63,194.623,196.989,201.187,204.68,209.594,217.575,221.773,224.746,228.998,232.72199999999998,235.405,239.033,243.231,247.429,249.795,253.993,256.149,258.869,261.842,266.961,271.16,275.57000000000005,278.36,282.558,286.051" svgx:width="0.83,0.26,0.45,0.38,0.52,0.83,0.45,0.32,0.45,0.38,0.26,0.45,0.26,0.38,0.55,0.45,0.38,0.45,0.55,0.26,0.55,0.55,0.83,0.26,0.45,0.38,0.52,0.83,0.45,0.32,0.45,0.38,0.55,0.38,0.45,0.45,0.26,0.45,0.22,0.55,0.32,0.54,0.45,0.45,0.55,0.45,0.38,0.45" style="fill:rgb(23,22,21);font-family:AdvTT86d47313;font-size:9.8px;stroke:none;">micromaterials are in micrometer scale, they are</text>
   <text y="528.775" x="56.693,60.897,65.816,71.05,73.725,76.097,79.595,87.582,91.786,96.98,99.949,102.954,108.05,111.005,115.385,118.885,122.513,126.717,134.704,139.623,141.995,146.405,149.309,154.241,158.651,161.611,166.827,171.031,176.264,181.184,189.171,193.423,196.371,200.575,204.073,206.445,210.649,213.021,216.617,218.773,221.72,228.183,233.103,238.336,241.932,246.137,251.164,256.289,260.493,265.727,268.706,271.077,275.281,277.437,280.384,284.588,286.96" svgx:width="0.45,0.52,0.55,0.29,0.26,0.38,0.83,0.45,0.53,0.55,0.32,0.52,0.55,0.45,0.38,0.38,0.45,0.83,0.52,0.26,0.45,0.55,0.52,0.45,0.55,0.55,0.45,0.55,0.52,0.83,0.45,0.32,0.45,0.38,0.26,0.45,0.26,0.38,0.22,0.55,0.68,0.52,0.55,0.38,0.45,0.53,0.54,0.45,0.55,0.32,0.26,0.45,0.22,0.55,0.45,0.26,0.36" style="fill:rgb(23,22,21);font-family:AdvTT86d47313;font-size:9.8px;stroke:none;">confirmed to assemble by nanomaterials. Consequently, al-</text>
   <text y="540.736" x="56.693,59.668,64.789,69.705,74.826,79.34,84.632,89.262,92.209,97.368,101.77799999999999,106.325,109.33,115.98,121.07600000000001,125.731,134.635,139.864" svgx:width="0.32,0.54,0.52,0.54,0.48,0.54,0.55,0.32,0.54,0.45,0.55,0.32,0.7,0.52,0.55,0.93,0.55,0.78" style="fill:rgb(23,22,21);font-family:AdvTT86d47313;font-size:9.8px;stroke:none;">though the two MnO</text>
   <text y="542.381" x="147.345" svgx:width="0.5" style="fill:rgb(23,22,21);font-family:AdvTT86d47313;font-size:6.53px;stroke:none;">2</text>
   <text y="540.737" x="155.622,163.605,165.973,170.173,173.668,178.583,186.566,190.766,193.742,197.942,201.437,203.804,208.004,210.372,214.096,218.706,222.958,226.417,230.827,235.43,242.063,244.431,247.406,252.698,257.327,259.709,264.732,268.932,274.162,277.137,279.505,283.757,287.957" svgx:width="0.83,0.26,0.45,0.38,0.52,0.83,0.45,0.32,0.45,0.38,0.26,0.45,0.26,0.38,0.55,0.45,0.38,0.45,0.55,0.7,0.26,0.32,0.54,0.55,0.26,0.53,0.45,0.55,0.32,0.26,0.45,0.45,0.26" style="fill:rgb(23,22,21);font-family:AdvTT86d47313;font-size:9.8px;stroke:none;">micromaterials are with identical</text>
   <text y="552.756" x="56.693,61.074,64.573,68.954,72.567,75.722,79.993,82.541,87.08,90.853,93.883,97.558,102.67,107.051,110.097,115.398,118.884,123.265,125.421,129.939,133.095,138.216,142.597,147.007,151.483,159.646,163.898,168.308,172.855,178.157,182.266,186.754,191.164,195.646,199.419,204.377,212.54,216.95,221.441,226.645,229.038,231.89,234.594,238.974,242.474,246.854,252.112,256.492,260.90200000000004,265.378,267.816,273.20599999999996,277.851,281.007,286.128" svgx:width="0.45,0.38,0.45,0.38,0.32,0.45,0.26,0.55,0.38,0.32,0.38,0.54,0.45,0.32,0.54,0.38,0.45,0.22,0.55,0.32,0.54,0.45,0.45,0.55,0.83,0.45,0.45,0.55,0.54,0.45,0.46,0.45,0.55,0.38,0.52,0.83,0.45,0.55,0.53,0.26,0.29,0.29,0.45,0.38,0.45,0.55,0.45,0.45,0.55,0.26,0.55,0.55,0.32,0.54,0.45" style="fill:rgb(23,22,21);font-family:AdvTT86d47313;font-size:9.8px;stroke:none;">crystal structure, they may have some difference in the</text>
   <text y="564.774" x="56.693,61.074,63.439,67.82,72.2,75.356,78.859,83.849,88.229,93.43,97.81,105.789,108.336,112.592,116.972,119.52,122.23,127.434,131.641,135.316,137.99,143.086,146.607,154.77,159.023,164.432,168.661,173.071,175.804,180.184,183.908,186.745,189.901,195.079,199.489,202.222,207.524,211.01,215.391,220.591,223.03,228.439,231.874,234.312,236.86,241.626,246.036,248.769,257.854,263.112" svgx:width="0.45,0.26,0.45,0.45,0.32,0.38,0.52,0.45,0.54,0.45,0.83,0.26,0.45,0.45,0.26,0.55,0.53,0.45,0.38,0.29,0.52,0.38,0.83,0.45,0.55,0.45,0.45,0.55,0.45,0.38,0.55,0.32,0.54,0.45,0.55,0.54,0.38,0.45,0.54,0.26,0.55,0.36,0.26,0.26,0.5,0.45,0.55,0.93,0.55,0.78" style="fill:rgb(23,22,21);font-family:AdvTT86d47313;font-size:9.8px;stroke:none;">electrochemical performance as the urchin-like MnO</text>
   <text y="566.362" x="270.652" svgx:width="0.5" style="fill:rgb(23,22,21);font-family:AdvTT86d47313;font-size:6.53px;stroke:none;">2</text>
   <text y="564.775" x="277.115,282.417,286.797" svgx:width="0.54,0.45,0.38" style="fill:rgb(23,22,21);font-family:AdvTT86d47313;font-size:9.8px;stroke:none;">has</text>
   <text y="576.737" x="56.694,59.849,65.027,69.437,71.944,76.325,80.958,86.162,90.426,95.835,100.858,105.238,110.432,112.933,115.481,119.736,122.892,125.859,128.407,132.662,137.072,139.579,144.783,149.047,152.722,156.927,165.09,169.342,172.498,176.713,180.388,184.027" svgx:width="0.32,0.54,0.45,0.55,0.45,0.49,0.53,0.45,0.55,0.53,0.45,0.53,0.55,0.26,0.45,0.32,0.32,0.26,0.45,0.45,0.55,0.53,0.45,0.38,0.45,0.83,0.45,0.32,0.45,0.38,0.38,0.22" style="fill:rgb(23,22,21);font-family:AdvTT86d47313;font-size:9.8px;stroke:none;">the expanded lattice parameters.</text>
   <text y="600.775" x="56.693,61.385,63.685,68.377,72.489,75.645,78.902,84.072,88.185,93.355,98.047,105.803,108.226,112.339,116.939,119.23899999999999,122.003,127.366,132.058,135.382,138.253,143.423,146.68,154.436,159.036,164.206,168.319" svgx:width="0.51,0.25,0.51,0.45,0.34,0.35,0.56,0.45,0.56,0.51,0.84,0.25,0.45,0.5,0.25,0.55,0.58,0.51,0.35,0.31,0.56,0.35,0.84,0.5,0.56,0.45,0.51" style="fill:rgb(23,22,21);font-family:AdvTT99c4c969;font-size:9.2px;stroke:none;">Electrochemical performance</text>
   <text y="612.737" x="56.693,61.789,64.337,69.031,74.333,78.008,82.41799999999999,87.761,92.661,97.965,103.169,106.844,111.224,114.997,119.378,124.788,128.126,131.85,137.197,140.353,145.654,150.064,155.396,158.551,162.932,168.135,170.683,175.064,179.546,182.094,187.37,191.75,197.052,201.433,205.107,209.802,214.299,217.866,223.07,225.618,229.391,233.771,239.073,243.552,247.227,251.922,256.332,261.694,266.182,271.278,273.826,276.982,281.362,286.057" svgx:width="0.52,0.26,0.48,0.54,0.38,0.45,0.55,0.5,0.55,0.53,0.38,0.45,0.38,0.45,0.55,0.32,0.38,0.55,0.32,0.54,0.45,0.55,0.32,0.45,0.53,0.26,0.45,0.45,0.26,0.55,0.45,0.54,0.45,0.38,0.48,0.45,0.36,0.53,0.26,0.38,0.45,0.54,0.45,0.38,0.48,0.45,0.55,0.46,0.52,0.26,0.32,0.45,0.48,0.45" style="fill:rgb(23,22,21);font-family:AdvTT86d47313;font-size:9.8px;stroke:none;">Figure 4 presents the typical charge-discharge voltage</text>
   <text y="624.756" x="56.693,61.073,66.375,70.413,74.901,79.282,83.006,86.4,91.496,94.338,97.739,100.894,106.196,110.606,114.01,118.39,123.8,128.896,134.099,138.48,142.20399999999998,145.645,148.8,153.181,158.277,166.44,171.644,176.024,179.699,184.08,189.274,192.7,195.855,200.951,204.322,207.477,212.779,217.189,220.535,223.387,228.689,231.237,233.785,237.203,242.299,246.68,249.835,252.991,257.371,261.046,265.427,268.56300000000005,272.012,276.393,281.489,286.98" svgx:width="0.45,0.54,0.38,0.46,0.45,0.38,0.55,0.52,0.29,0.55,0.32,0.54,0.45,0.55,0.45,0.55,0.52,0.53,0.45,0.38,0.55,0.32,0.45,0.52,0.83,0.53,0.45,0.38,0.45,0.53,0.55,0.32,0.52,0.55,0.32,0.54,0.45,0.55,0.29,0.54,0.26,0.26,0.55,0.52,0.45,0.32,0.32,0.45,0.38,0.45,0.32,0.55,0.45,0.52,0.55,0.36" style="fill:rgb(23,22,21);font-family:AdvTT86d47313;font-size:9.8px;stroke:none;">curves of the anodes (compared to the full battery) con-</text>
   <text y="636.774" x="56.693,60.466,63.621,67.296,72.598,76.979,80.134,84.515,89.709,93.317,96.169,99.844,104.94,113.074,116.618,125.703,131.112" svgx:width="0.38,0.32,0.38,0.54,0.45,0.32,0.45,0.53,0.55,0.29,0.38,0.52,0.83,0.55,0.93,0.55,0.78" style="fill:rgb(23,22,21);font-family:AdvTT86d47313;font-size:9.8px;stroke:none;">structed from MnO</text>
   <text y="638.362" x="138.784" svgx:width="0.5" style="fill:rgb(23,22,21);font-family:AdvTT86d47313;font-size:6.53px;stroke:none;">2</text>
   <text y="636.775" x="145.984,154.148,156.695,161.076,164.751,169.847,178.01,182.495,185.65,190.031,193.706,196.254,200.634,203.182,206.90599999999998,210.501,214.881,218.017,221.499,226.399,228.536,233.436,236.976,243.64,247.067,250.742,255.123,258.278,262.68800000000005,266.23,268.778,274.168,277.625,280.781,286.083" svgx:width="0.83,0.26,0.45,0.38,0.52,0.83,0.45,0.32,0.45,0.38,0.26,0.45,0.26,0.38,0.55,0.45,0.32,0.55,0.5,0.22,0.5,0.55,0.68,0.55,0.38,0.45,0.32,0.45,0.55,0.26,0.55,0.55,0.32,0.54,0.45" style="fill:rgb(23,22,21);font-family:AdvTT86d47313;font-size:9.8px;stroke:none;">micromaterials at 0.2 C rate in the</text>
   <text y="648.737" x="56.693,61.182,66.278,68.826,71.981,76.362,81.056,85.466,89.689,93.364,97.744,103.154,107.848,112.258,116.448,121.544,124.386,128.581,133.481,135.617,140.517,145.417,149.557,152.713,157.809,162.03,166.93,169.066,173.966,178.866,183.063,189.825,193.948,197.103,201.592,205.365,207.52100000000002,211.693,217.2,219.748,223.315,228.823" svgx:width="0.46,0.52,0.26,0.32,0.45,0.48,0.45,0.55,0.38,0.45,0.55,0.48,0.45,0.55,0.52,0.29,0.55,0.5,0.22,0.5,0.5,0.55,0.32,0.52,0.55,0.5,0.22,0.5,0.5,0.55,0.69,0.55,0.32,0.46,0.38,0.22,0.55,0.56,0.26,0.36,0.56,0.26" style="fill:rgb(23,22,21);font-family:AdvTT86d47313;font-size:9.8px;stroke:none;">voltage range of 0.01 to 3.60 V (vs. Li/Li</text>
   <text y="644.372" x="231.42" svgx:width="0.58" style="fill:rgb(23,22,21);font-family:AdvTT86d47313;font-size:6.53px;stroke:none;">+</text>
   <text y="648.737" x="235.729,238.885,241.041,245.197,250.293,255.389,259.113,263.226,267.606,270.154,274.621,278.296,280.844,283.999,288.38" svgx:width="0.32,0.22,0.55,0.52,0.52,0.38,0.55,0.45,0.26,0.45,0.38,0.26,0.32,0.45,0.22" style="fill:rgb(23,22,21);font-family:AdvTT86d47313;font-size:9.8px;stroke:none;">). For clarity,</text>
   <text y="660.756" x="56.694,61.607,66.835,69.2,73.61,76.23,79.821,84.019,86.384,90.765,94.889,97.894,102.092,107.286,109.915,114.113,118.366,122.564,124.929,129.182,132.90599999999998,135.588,139.786,143.279,147.689,150.308,153.936,159.056,163.969,170.618,175.845,178.001,180.607,187.545,191.26899999999998,193.873,197.445,202.564,207.478,214.126,219.353,221.50900000000001,224.115,227.12,232.239,236.649,239.269,242.242,248.89,253.986,256.592,261.864,265.223,274.18,279.381" svgx:width="0.52,0.55,0.26,0.45,0.55,0.38,0.45,0.26,0.45,0.45,0.32,0.45,0.53,0.55,0.45,0.45,0.45,0.26,0.45,0.38,0.55,0.45,0.38,0.45,0.55,0.38,0.54,0.52,0.7,0.55,0.22,0.55,0.71,0.38,0.55,0.38,0.54,0.52,0.7,0.55,0.22,0.55,0.32,0.54,0.45,0.55,0.32,0.7,0.52,0.55,0.55,0.36,0.93,0.55,0.78" style="fill:rgb(23,22,21);font-family:AdvTT86d47313;font-size:9.8px;stroke:none;">only selected cycles are shown. As shown, the two α-MnO</text>
   <text y="662.4" x="286.866" svgx:width="0.5" style="fill:rgb(23,22,21);font-family:AdvTT86d47313;font-size:6.53px;stroke:none;">2</text>
   <text y="672.775" x="56.693,64.678,67.047,71.25,74.746,79.664,87.649,91.851,94.828,99.03,102.527,104.897,109.099,111.468,115.19200000000001,117.648,122.566,127.483,130.461,135.75300000000001,138.227,143.33,147.412,151.721,156.131,158.58,163.683,166.053,170.569,175.861,178.335,180.716,185.948,188.317,191.294,193.664,197.866,200.41400000000002,202.855,207.881,210.25,213.845,218.047,223.171,227.423,230.919,235.435,239.845,242.238,245.81,250.836,255.216,259.34,261.721,264.395,266.764,271.17400000000004,273.568,277.77,281.972,286.997" svgx:width="0.83,0.26,0.45,0.38,0.52,0.83,0.45,0.32,0.45,0.38,0.26,0.45,0.26,0.38,0.55,0.52,0.52,0.32,0.54,0.55,0.54,0.45,0.46,0.45,0.55,0.54,0.26,0.48,0.54,0.55,0.26,0.55,0.26,0.32,0.26,0.45,0.26,0.55,0.53,0.26,0.38,0.45,0.54,0.45,0.38,0.48,0.45,0.55,0.38,0.53,0.45,0.45,0.26,0.29,0.26,0.45,0.55,0.45,0.45,0.53,0.36" style="fill:rgb(23,22,21);font-family:AdvTT86d47313;font-size:9.8px;stroke:none;">micromaterials both have high initial discharge specific cap-</text>
   <text y="684.737" x="56.693,60.898,65.103,67.476,70.456,74.866,77.542,81.923,85.647,88.37,92.575,97.604,102.632,106.131,111.052,115.669,118.041,126.029,130.234,133.214,137.42,139.792,144.202,146.878,151.584,153.545,158.27,162.994,167.894,170.648,178.636,185.399,190.691,193.45" svgx:width="0.45,0.45,0.26,0.32,0.45,0.55,0.45,0.38,0.55,0.45,0.53,0.53,0.38,0.52,0.49,0.26,0.83,0.45,0.32,0.45,0.26,0.45,0.55,0.5,0.22,0.5,0.5,0.5,0.55,0.83,0.71,0.54,0.55,0.48" style="fill:rgb(23,22,21);font-family:AdvTT86d47313;font-size:9.8px;stroke:none;">acity as approximately 1,400 mAh g</text>
   <text y="680.372" x="197.972,202.054" svgx:width="0.58,0.5" style="fill:rgb(23,22,21);font-family:AdvTT86d47313;font-size:6.53px;stroke:none;">−1</text>
   <text y="684.737" x="205.568,207.72400000000002,210.427,217.06,222.219,224.543,226.924,231.334,234.068,237.015,242.174,246.584,249.277,252.282,257.384,261.58,266.512,270.027,274.223,277.227,279.552,283.747,287.999" svgx:width="0.22,0.55,0.7,0.54,0.26,0.26,0.45,0.55,0.32,0.54,0.45,0.55,0.32,0.54,0.45,0.52,0.38,0.45,0.32,0.26,0.45,0.45,0.26" style="fill:rgb(23,22,21);font-family:AdvTT86d47313;font-size:9.8px;stroke:none;">, while the theoretical</text>
   <text y="696.756" x="56.693,62.1,64.851,68.827,73.41,78.915,83.498,87.376,92.273,96.68299999999999,99.813,103.782,109.188,113.894,118.478,121.229,124.233,127.012,131.422,134.495,139.078,143.662,149.068,153.652,158.187,160.938,164.296,168.706,171.836,174.558,178.28199999999998,181.475,186.577,188.917,194.019,199.122,204.02200000000002,207.173,215.539,222.68,227.972,231.128" svgx:width="0.53,0.26,0.38,0.45,0.54,0.45,0.38,0.48,0.45,0.55,0.38,0.53,0.45,0.45,0.26,0.29,0.26,0.45,0.55,0.45,0.45,0.53,0.45,0.45,0.26,0.32,0.45,0.55,0.26,0.38,0.55,0.5,0.22,0.5,0.5,0.5,0.55,0.83,0.71,0.54,0.55,0.48" style="fill:rgb(23,22,21);font-family:AdvTT86d47313;font-size:9.8px;stroke:none;">discharge specific capacity is 1,232 mAh g</text>
   <text y="692.391" x="236.012,240.548" svgx:width="0.58,0.5" style="fill:rgb(23,22,21);font-family:AdvTT86d47313;font-size:6.53px;stroke:none;">−1</text>
   <text y="696.756" x="244.403,246.559,249.675,256.308,261.808,266.218,269.348,273.94,278.929,282.274,286.129" svgx:width="0.22,0.55,0.67,0.54,0.45,0.55,0.45,0.49,0.32,0.38,0.45" style="fill:rgb(23,22,21);font-family:AdvTT86d47313;font-size:9.8px;stroke:none;">. The extra</text>
   <text y="708.775" x="56.694,62.1,64.851,68.827,73.411,78.915,83.499,87.376,92.273,96.68299999999999,100.607,104.576,109.983,114.689,119.272,122.023,125.078,127.828,132.238,136.105,140.689,145.272,150.679,155.262,159.846,162.597,165.955,168.706,173.289,177.01299999999998,180.943,186.242,189.084,192.988,196.346,201.851,206.261,210.185,214.834,218.916,222.714,228.121,231.998,236.582,241.988,246.572,250.45,255.033,260.227,264.104,273.391,279.004" svgx:width="0.53,0.26,0.38,0.45,0.54,0.45,0.38,0.48,0.45,0.55,0.38,0.53,0.45,0.45,0.26,0.29,0.26,0.45,0.55,0.45,0.45,0.53,0.45,0.45,0.26,0.32,0.26,0.45,0.38,0.55,0.52,0.29,0.55,0.32,0.54,0.45,0.55,0.45,0.38,0.36,0.53,0.38,0.45,0.53,0.45,0.38,0.45,0.53,0.55,0.93,0.55,0.78" style="fill:rgb(23,22,21);font-family:AdvTT86d47313;font-size:9.8px;stroke:none;">discharge specific capacities of the as-prepared MnO</text>
   <text y="710.362" x="286.866" svgx:width="0.5" style="fill:rgb(23,22,21);font-family:AdvTT86d47313;font-size:6.53px;stroke:none;">2</text>
   <text y="720.737" x="56.693,65.065,67.822,72.411,76.295,81.599,89.971,94.561,97.925,102.514,106.398,109.155,113.744,116.501,120.22500000000001,123.871,132.243,136.833,141.243,144.826,148.682,153.271,157.253,162.763,165.52,168.656,172.266,175.294,179.198,184.47,192.60399999999998,196.262,199.607,205.137,209.547,213.131,216.211,221.483,225.386,233.72,238.329,241.713,244.489,249.762,255.152,258.832,264.105,266.947,270.568,274.593,279.865,282.643,285.365" svgx:width="0.83,0.26,0.45,0.38,0.52,0.83,0.45,0.32,0.45,0.38,0.26,0.45,0.26,0.38,0.55,0.83,0.45,0.45,0.55,0.38,0.45,0.38,0.54,0.26,0.32,0.55,0.29,0.38,0.52,0.83,0.55,0.32,0.54,0.45,0.55,0.29,0.52,0.38,0.83,0.45,0.32,0.26,0.52,0.55,0.55,0.52,0.29,0.55,0.38,0.52,0.26,0.26,0.53" style="fill:rgb(23,22,21);font-family:AdvTT86d47313;font-size:9.8px;stroke:none;">micromaterials may result from the formation of solid</text>
   <text y="732.756" x="56.693,61.279,64.033,68.739,73.331,76.693,80.573,85.875,88.629,93.164,96.566,100.976,105.75,108.528,114.144,117.505,122.092,125.972,129.03,133.616,138.203,142.613,147.444,150.805,156.009,161.722,165.191,168.327,173.185,175.907,180.493,185.079,189.666,193.39,198.17,205.206,210.714,213.468,218.054,223.346,228.202,230.923,234.647,239.54,244.646,250.261,255.563,262.6,267.99,272.861,277.51,281.234,286.127" svgx:width="0.45,0.26,0.45,0.45,0.32,0.38,0.52,0.26,0.45,0.32,0.45,0.55,0.26,0.55,0.32,0.45,0.38,0.29,0.45,0.45,0.45,0.55,0.32,0.51,0.56,0.33,0.32,0.55,0.26,0.45,0.45,0.45,0.38,0.55,0.7,0.54,0.26,0.45,0.54,0.55,0.26,0.38,0.55,0.5,0.55,0.52,0.7,0.55,0.55,0.45,0.38,0.55,0.45" style="fill:rgb(23,22,21);font-family:AdvTT86d47313;font-size:9.8px;stroke:none;">electrolyte interface (SEI) layer which is known as a</text>
   <text y="324.739" x="304.723,309.418,313.625,316.173,319.577,322.125,324.509,329.409,333.819,337.606,340.044,344.425,348.661,353.042,355.861,358.017,361.871,366.251,371.169,376.578,379.616,383.997,386.362,391.772,394.186,399.595,404.29900000000004,408.075,412.456,415.446,420.747,424.97,427.518,431.773,437.183,441.593,445.323,450.419,455.074,457.512,462.715,466.979,470.438,475.534,479.914,483.59,487.971,493.165,496.97,501.959,504.507,506.891,511.586,516.53,524.693,528.945,532.62,536.393" svgx:width="0.48,0.45,0.26,0.36,0.26,0.26,0.5,0.45,0.55,0.26,0.45,0.45,0.45,0.38,0.22,0.55,0.45,0.52,0.55,0.32,0.45,0.26,0.55,0.26,0.55,0.48,0.55,0.45,0.32,0.54,0.45,0.26,0.45,0.55,0.45,0.55,0.52,0.49,0.26,0.53,0.45,0.36,0.52,0.45,0.38,0.45,0.53,0.55,0.52,0.26,0.26,0.48,0.52,0.83,0.45,0.38,0.38,0.22" style="fill:rgb(23,22,21);font-family:AdvTT86d47313;font-size:9.8px;stroke:none;">gel-like layer, containing ethylene oxide-based oligomers,</text>
   <text y="336.758" x="304.723,310.231,312.604,316.742,318.898,321.958,327.465" svgx:width="0.56,0.26,0.52,0.22,0.55,0.56,0.26" style="fill:rgb(23,22,21);font-family:AdvTT86d47313;font-size:9.8px;stroke:none;">LiF, Li</text>
   <text y="338.4" x="329.896" svgx:width="0.5" style="fill:rgb(23,22,21);font-family:AdvTT86d47313;font-size:6.53px;stroke:none;">2</text>
   <text y="336.756" x="333.468,340.102" svgx:width="0.68,0.78" style="fill:rgb(23,22,21);font-family:AdvTT86d47313;font-size:9.8px;stroke:none;">CO</text>
   <text y="338.4" x="347.584" svgx:width="0.5" style="fill:rgb(23,22,21);font-family:AdvTT86d47313;font-size:6.53px;stroke:none;">3</text>
   <text y="336.756" x="351.212,353.368,356.485,360.865,366.123,371.317,374.4,376.948,379.332,382.488,387.666,390.214,395.377,403.511,406.658,411.039,413.405,418.305,422.532,425.08,428.202,432.582,436.819,440.493,445.436,450.532,455.811,460.191,463.181,467.591,470.664,473.82,479.735,487.275,493.91" svgx:width="0.22,0.55,0.45,0.55,0.53,0.55,0.26,0.26,0.32,0.54,0.26,0.54,0.83,0.55,0.45,0.26,0.5,0.45,0.26,0.55,0.45,0.45,0.38,0.52,0.52,0.55,0.45,0.32,0.45,0.55,0.32,0.61,0.78,0.68,0.78" style="fill:rgb(23,22,21);font-family:AdvTT86d47313;font-size:9.8px;stroke:none;">, and lithium alkyl carbonate (ROCO</text>
   <text y="338.4" x="501.449" svgx:width="0.5" style="fill:rgb(23,22,21);font-family:AdvTT86d47313;font-size:6.53px;stroke:none;">2</text>
   <text y="336.756" x="505.02,510.528,512.901,516.056,518.212,521.234,526.438,531.609,535.011" svgx:width="0.56,0.26,0.32,0.22,0.55,0.53,0.54,0.38,0.36" style="fill:rgb(23,22,21);font-family:AdvTT86d47313;font-size:9.8px;stroke:none;">Li), dur-</text>
   <text y="348.775" x="304.725,307.273,312.548,317.252,320.825,323.981,329.159,333.569,337.153,340.005,342.425,346.1,349.682,352.81800000000004,356.485,361.689,364.082,367.855,372.076,377.378,381.6,385.275,389.821,392.259,397.668,402.372,405.922,411.126,414.653,419.642,424.022,428.259,432.032,435.756,439.371,442.432,447.332,452.071,455.226,457.382,460.915,467.264,472.566,476.976,480.53,485.734,488.127,491.9,496.121,501.423,505.646,509.321,513.866,518.276,521.859,525.632,530.704,535.084" svgx:width="0.26,0.55,0.48,0.55,0.32,0.54,0.45,0.55,0.29,0.26,0.38,0.38,0.32,0.55,0.53,0.26,0.38,0.45,0.54,0.45,0.38,0.48,0.26,0.55,0.48,0.55,0.53,0.38,0.52,0.45,0.45,0.38,0.38,0.55,0.32,0.5,0.5,0.32,0.22,0.55,0.67,0.54,0.45,0.55,0.53,0.26,0.38,0.45,0.54,0.45,0.38,0.48,0.45,0.55,0.38,0.53,0.45,0.36" style="fill:rgb(23,22,21);font-family:AdvTT86d47313;font-size:9.8px;stroke:none;">ing the first discharging process [29]. The discharge spe-</text>
   <text y="360.737" x="304.725,309.106,311.471,314.323,316.744,321.15400000000005,325.418,329.798,334.035,339.238,343.445,347.826,350.249,353.404,355.748,360.129,363.853,368.164,373.153,375.995,380.296,383.452,388.63,393.04,397.304,401.684,405.457,409.024,414.085,417.76,422.022,427.226,431.433,435.108,439.313,444.507,448.837,457.922,463.181" svgx:width="0.45,0.26,0.29,0.26,0.45,0.55,0.45,0.45,0.53,0.45,0.45,0.26,0.32,0.26,0.45,0.38,0.55,0.52,0.29,0.55,0.32,0.54,0.45,0.55,0.45,0.38,0.36,0.53,0.38,0.45,0.53,0.45,0.38,0.45,0.53,0.55,0.93,0.55,0.78" style="fill:rgb(23,22,21);font-family:AdvTT86d47313;font-size:9.8px;stroke:none;">cific capacities of the as-prepared MnO</text>
   <text y="362.381" x="470.721" svgx:width="0.5" style="fill:rgb(23,22,21);font-family:AdvTT86d47313;font-size:6.53px;stroke:none;">2</text>
   <text y="360.737" x="478.715,486.743,489.291,493.536,497.211,502.172,510.335,514.581,517.736,521.951,525.626,528.039,532.419,534.785" svgx:width="0.83,0.26,0.45,0.38,0.52,0.83,0.45,0.32,0.45,0.38,0.26,0.45,0.26,0.38" style="fill:rgb(23,22,21);font-family:AdvTT86d47313;font-size:9.8px;stroke:none;">micromaterials</text>
   <text y="372.756" x="304.724,307.272,312.662,317.48,320.636,325.757,330.16700000000003,335.054,338.827,343.208,347.47,352.459,357.868,363.062,367.879,372.259,376.496,380.876,383.299,387.709,392.54,396.921,400.42,404.83000000000004,409.719,414.619,419.357,424.257,429.108,437.271,444.075,449.36699999999996,454.28" svgx:width="0.26,0.55,0.55,0.32,0.54,0.45,0.55,0.38,0.45,0.45,0.52,0.55,0.53,0.55,0.45,0.45,0.45,0.26,0.45,0.55,0.45,0.38,0.45,0.55,0.5,0.5,0.5,0.55,0.83,0.71,0.54,0.55,0.48" style="fill:rgb(23,22,21);font-family:AdvTT86d47313;font-size:9.8px;stroke:none;">in the second cycle are 500 mAh g</text>
   <text y="368.391" x="458.872,463.068" svgx:width="0.58,0.5" style="fill:rgb(23,22,21);font-family:AdvTT86d47313;font-size:6.53px;stroke:none;">−1</text>
   <text y="372.756" x="466.696,469.644,474.024,478.261,483.465,488.522,490.961,495.341,499.578,503.145,507.401,509.839,514.22,520.951,524.409,526.957,529.342,534.242" svgx:width="0.32,0.45,0.45,0.53,0.53,0.26,0.45,0.45,0.36,0.45,0.26,0.45,0.7,0.36,0.26,0.26,0.5,0.45" style="fill:rgb(23,22,21);font-family:AdvTT86d47313;font-size:9.8px;stroke:none;">(caddice-clew-like</text>
   <text y="384.775" x="304.725,313.621,318.841" svgx:width="0.93,0.55,0.78" style="fill:rgb(23,22,21);font-family:AdvTT86d47313;font-size:9.8px;stroke:none;">MnO</text>
   <text y="386.362" x="326.324" svgx:width="0.5" style="fill:rgb(23,22,21);font-family:AdvTT86d47313;font-size:6.53px;stroke:none;">2</text>
   <text y="384.775" x="329.839,332.975,335.962,340.158,345.43,350.624,353.593,358.309,363.025,367.92499999999995,370.905,378.884,385.687,390.979,393.964" svgx:width="0.32,0.55,0.45,0.55,0.53,0.55,0.5,0.5,0.5,0.55,0.83,0.71,0.54,0.55,0.48" style="fill:rgb(23,22,21);font-family:AdvTT86d47313;font-size:9.8px;stroke:none;">) and 600 mAh g</text>
   <text y="380.41" x="398.438,402.577" svgx:width="0.58,0.5" style="fill:rgb(23,22,21);font-family:AdvTT86d47313;font-size:6.53px;stroke:none;">−1</text>
   <text y="384.775" x="409.209,412.186,417.308,420.804,425.005,430.127,432.496,437.726,441.114,443.483,445.851,450.572,454.982,457.942,466.843,472.073" svgx:width="0.32,0.54,0.38,0.45,0.54,0.26,0.55,0.36,0.26,0.26,0.5,0.45,0.55,0.93,0.55,0.78" style="fill:rgb(23,22,21);font-family:AdvTT86d47313;font-size:9.8px;stroke:none;">(urchin-like MnO</text>
   <text y="386.362" x="479.565" svgx:width="0.5" style="fill:rgb(23,22,21);font-family:AdvTT86d47313;font-size:6.53px;stroke:none;">2</text>
   <text y="384.775" x="483.08,486.051,488.207,491.153,494.643,498.838,502.466,507.456,511.836,516.016,518.986,521.349,525.652,529.847,532.21,536.405" svgx:width="0.32,0.22,0.55,0.38,0.45,0.38,0.53,0.45,0.45,0.32,0.26,0.46,0.45,0.26,0.45,0.22" style="fill:rgb(23,22,21);font-family:AdvTT86d47313;font-size:9.8px;stroke:none;">), respectively.</text>
   <text y="396.737" x="304.725,310.962,316.12,320.339,323.852,328.262,332.129,334.454,338.178,342.164,346.36,351.75,355.657,359.852,362.846,365.794,370.013,375.261,380.401,384.62,387.567,389.949,394.883,400.27299999999997,404.18,408.399,413.333,421.335,426.324,430.543,434.001,438.22,443.41400000000004,447.348,450.342,455.438,459.299,462.293,467.433,471.843,475.71,478.091,483.339,485.725,488.719,491.043,495.262,497.81,501.668,506.711,509.097,512.669,516.864,522.004,526.223,529.736,534.215" svgx:width="0.67,0.54,0.45,0.38,0.45,0.55,0.26,0.38,0.55,0.45,0.55,0.55,0.45,0.32,0.32,0.45,0.55,0.54,0.45,0.32,0.26,0.52,0.55,0.55,0.45,0.52,0.83,0.53,0.45,0.38,0.45,0.53,0.55,0.32,0.52,0.55,0.32,0.54,0.45,0.55,0.26,0.55,0.26,0.32,0.26,0.45,0.26,0.55,0.53,0.26,0.38,0.45,0.54,0.45,0.38,0.48,0.45" style="fill:rgb(23,22,21);font-family:AdvTT86d47313;font-size:9.8px;stroke:none;">There is an attenuation compared to the initial discharge</text>
   <text y="408.755" x="304.725,309.207,313.69,318.996,323.478,327.961,330.61,333.868,338.403,340.559,345.093,352.122,355.076,358.333,362.816,366.53999999999996,371.036,374.294,379.697,384.107,388.654,391.602,394.252,397.206,400.463,405.755,410.328,414.81,419.346,423.828,426.376,429.101,434.599,439.645,441.801,446.335,449.592,454.996,459.406,463.953,469.225,471.875,475.75,480.233,485.636,490.119,493.896,498.692,503.10200000000003,507.649,511.524,516.829,521.422,525.9,528.448,531.513,534.06" svgx:width="0.45,0.45,0.53,0.45,0.45,0.26,0.32,0.45,0.22,0.55,0.71,0.29,0.32,0.45,0.38,0.55,0.32,0.54,0.45,0.55,0.29,0.26,0.29,0.32,0.54,0.55,0.45,0.45,0.45,0.26,0.26,0.55,0.48,0.22,0.55,0.32,0.54,0.45,0.55,0.53,0.26,0.38,0.45,0.54,0.45,0.38,0.48,0.45,0.55,0.38,0.53,0.45,0.45,0.26,0.29,0.26,0.45" style="fill:rgb(23,22,21);font-family:AdvTT86d47313;font-size:9.8px;stroke:none;">capacity. After the fifth cycling, the discharge specific</text>
   <text y="420.774" x="304.725,309.212,313.7,319.01,323.498,327.985,330.64,333.902,336.557,341.044,344.768,348.584,353.787,356.62899999999996,360.42,363.682,369.091,373.50100000000003,377.254,381.789,385.814,389.381,394.771,398.513,403.048,408.321,412.808,416.59,421.077,426.271,430.034,439.226,444.742" svgx:width="0.45,0.45,0.53,0.45,0.45,0.26,0.32,0.26,0.45,0.38,0.55,0.52,0.29,0.55,0.32,0.54,0.45,0.55,0.45,0.38,0.36,0.53,0.38,0.45,0.53,0.45,0.38,0.45,0.53,0.55,0.93,0.55,0.78" style="fill:rgb(23,22,21);font-family:AdvTT86d47313;font-size:9.8px;stroke:none;">capacities of the as-prepared MnO</text>
   <text y="422.362" x="452.466" svgx:width="0.5" style="fill:rgb(23,22,21);font-family:AdvTT86d47313;font-size:6.53px;stroke:none;">2</text>
   <text y="420.775" x="459.949,468.218,470.766,475.304,479.102,484.303,492.571,497.057,500.317,504.803,508.582,511.235,515.721,518.374,522.0980000000001,525.914,530.399,534.179" svgx:width="0.83,0.26,0.45,0.38,0.52,0.83,0.45,0.32,0.45,0.38,0.26,0.45,0.26,0.38,0.55,0.45,0.38,0.45" style="fill:rgb(23,22,21);font-family:AdvTT86d47313;font-size:9.8px;stroke:none;">micromaterials are</text>
   <text y="432.737" x="304.725,309.625,314.363,319.263,322.243,330.407,337.211,342.503,345.488" svgx:width="0.5,0.5,0.5,0.55,0.83,0.71,0.54,0.55,0.48" style="fill:rgb(23,22,21);font-family:AdvTT86d47313;font-size:9.8px;stroke:none;">356 mAh g</text>
   <text y="428.372" x="350.079,354.331" svgx:width="0.58,0.5" style="fill:rgb(23,22,21);font-family:AdvTT86d47313;font-size:6.53px;stroke:none;">−1</text>
   <text y="432.737" x="360.964,363.968,368.221,372.601,377.688,382.892,385.285,389.666,393.902,397.361,401.741,404.164,408.544,415.219,418.677,421.225,423.61,428.51,432.92,435.799,444.883,450.142" svgx:width="0.32,0.45,0.45,0.53,0.53,0.26,0.45,0.45,0.36,0.45,0.26,0.45,0.7,0.36,0.26,0.26,0.5,0.45,0.55,0.93,0.55,0.78" style="fill:rgb(23,22,21);font-family:AdvTT86d47313;font-size:9.8px;stroke:none;">(caddice-clew-like MnO</text>
   <text y="434.381" x="457.738" svgx:width="0.5" style="fill:rgb(23,22,21);font-family:AdvTT86d47313;font-size:6.53px;stroke:none;">2</text>
   <text y="432.737" x="461.31,464.446,467.49,471.871,477.128,482.322,485.292,490.192,494.93,499.83,502.81,510.973,517.777,523.0690000000001,526.054" svgx:width="0.32,0.55,0.45,0.55,0.53,0.55,0.5,0.5,0.5,0.55,0.83,0.71,0.54,0.55,0.48" style="fill:rgb(23,22,21);font-family:AdvTT86d47313;font-size:9.8px;stroke:none;">) and 465 mAh g</text>
   <text y="428.372" x="530.702,534.898" svgx:width="0.58,0.5" style="fill:rgb(23,22,21);font-family:AdvTT86d47313;font-size:6.53px;stroke:none;">−1</text>
   <text y="444.756" x="304.724,307.88,313.058,316.733,320.938,326.24,328.649,334.058,337.436,339.984,342.369,347.269,351.67900000000003,355.295,364.379,369.638" svgx:width="0.32,0.54,0.38,0.45,0.54,0.26,0.55,0.36,0.26,0.26,0.5,0.45,0.55,0.93,0.55,0.78" style="fill:rgb(23,22,21);font-family:AdvTT86d47313;font-size:9.8px;stroke:none;">(urchin-like MnO</text>
   <text y="446.4" x="377.178" svgx:width="0.5" style="fill:rgb(23,22,21);font-family:AdvTT86d47313;font-size:6.53px;stroke:none;">2</text>
   <text y="444.756" x="380.806,383.962,386.118,389.707,393.382,397.588,401.361,406.432,410.813,415.193,418.224,420.772,425.084,429.465,431.887,436.268,438.424,442.035,445.298,450.688,454.337,457.492,462.614,467.024,470.721,474.396,478.601,483.805,488.012,492.393,495.439,499.819,505.01300000000003,508.648,513.028,518.172,522.553,526.053,530.747,535.01" svgx:width="0.32,0.22,0.55,0.38,0.45,0.38,0.53,0.45,0.45,0.32,0.26,0.46,0.45,0.26,0.45,0.22,0.55,0.33,0.55,0.55,0.32,0.54,0.45,0.55,0.38,0.45,0.53,0.45,0.45,0.32,0.45,0.53,0.55,0.45,0.54,0.45,0.38,0.48,0.45,0.36" style="fill:rgb(23,22,21);font-family:AdvTT86d47313;font-size:9.8px;stroke:none;">), respectively. In the repeated charge-</text>
   <text y="456.775" x="304.725,309.928,312.322,316.094,320.315,325.617,329.84,333.515,338.06,342.47,346.394,350.774,355.011,359.391,361.814,364.252,369.662,374.356,376.512,380.41,383.566,388.744,393.15400000000005,396.964,402.168,404.561,408.334,412.555,417.857,422.136,425.811,430.3,434.71000000000004,438.577,442.35,447.421,451.802,456.182,458.59,461.442,463.805,468.21500000000003,472.082,476.463,480.699,485.903,490.11,494.491,496.913,500.069,504.47900000000004,508.252,512.632,517.121,521.348,526.758,529.739,535.041" svgx:width="0.53,0.26,0.38,0.45,0.54,0.45,0.38,0.48,0.45,0.55,0.45,0.45,0.45,0.26,0.26,0.55,0.48,0.22,0.55,0.32,0.54,0.45,0.55,0.53,0.26,0.38,0.45,0.54,0.45,0.38,0.48,0.45,0.55,0.38,0.53,0.45,0.45,0.26,0.29,0.26,0.45,0.55,0.45,0.45,0.53,0.45,0.45,0.26,0.32,0.45,0.55,0.45,0.46,0.45,0.55,0.32,0.54,0.36" style="fill:rgb(23,22,21);font-family:AdvTT86d47313;font-size:9.8px;stroke:none;">discharge cycling, the discharge specific capacity eventu-</text>
   <text y="468.737" x="304.725,309.105,311.471,314.019,318.42900000000003,321.109,326.313,330.693,334.943,339.323,343.56,347.284,350.08,353.235,358.331,361.021,365.273,370.369,375.364,380.666,383.802,386.476,391.376,396.115,401.015,403.768,411.932,418.736,424.02799999999996,426.786" svgx:width="0.45,0.26,0.26,0.45,0.55,0.53,0.45,0.45,0.45,0.45,0.38,0.55,0.32,0.52,0.55,0.45,0.52,0.52,0.54,0.32,0.55,0.5,0.5,0.5,0.55,0.83,0.71,0.54,0.55,0.48" style="fill:rgb(23,22,21);font-family:AdvTT86d47313;font-size:9.8px;stroke:none;">ally decays to about 250 mAh g</text>
   <text y="464.372" x="431.376,435.572" svgx:width="0.58,0.5" style="fill:rgb(23,22,21);font-family:AdvTT86d47313;font-size:6.53px;stroke:none;">−1</text>
   <text y="468.737" x="439.2,441.356,444.075,451.621,455.868,459.543,463.748,465.904,468.623,471.779,476.957,481.367,484.043,486.591,490.846,494.521,499.01,503.42,506.267,510.647,514.884,520.087,524.294,528.675,531.098,534.253" svgx:width="0.22,0.55,0.77,0.45,0.38,0.45,0.22,0.55,0.32,0.54,0.45,0.55,0.26,0.45,0.38,0.48,0.45,0.55,0.45,0.45,0.53,0.45,0.45,0.26,0.32,0.45" style="fill:rgb(23,22,21);font-family:AdvTT86d47313;font-size:9.8px;stroke:none;">. Here, the large capacity</text>
   <text y="480.756" x="304.725,307.273,312.208,315.981,319.705,324.114,332.277,336.529,340.939,345.317,349.697,354.671,362.721,367.13100000000003,371.566,374.418,377.915,383.011,391.14500000000004,395.546,398.702,405.354,410.45,414.935,417.657,422.037,426.274,429.505,433.278,435.434,439.823,444.919,450.198,454.608,458.986,461.534,465.258,469.701,472.857,477.978,482.38800000000003,486.879,491.26,495.496,500.7,504.964,509.345,511.71,514.866,519.276,523.616,526.054,531.15,534.785" svgx:width="0.26,0.52,0.38,0.38,0.55,0.83,0.45,0.45,0.55,0.45,0.52,0.83,0.45,0.55,0.29,0.38,0.52,0.83,0.55,0.32,0.7,0.52,0.55,0.29,0.45,0.45,0.32,0.38,0.22,0.55,0.52,0.55,0.45,0.55,0.26,0.38,0.55,0.32,0.54,0.45,0.55,0.45,0.45,0.53,0.45,0.45,0.26,0.32,0.45,0.55,0.26,0.52,0.38,0.38" style="fill:rgb(23,22,21);font-family:AdvTT86d47313;font-size:9.8px;stroke:none;">loss may come from two facts: one is the capacity loss</text>
   <text y="492.774" x="304.725,307.576,311.074,316.17,324.30400000000003,329.159,332.314,337.493,341.903,346.79,349.228,354.638,358.866,363.962,371.962,377.166,379.559,383.939,386.985,391.39500000000004,396.226,401.43,405.811,410.06,415.156,423.212,428.416,433.36,437.133,439.483,442.639,445.039,450.135,455.525,460.403,465.392,468.234,473.159,478.156,483.534,486.768,491.641,494.493,496.913,499.352,507.515,509.671,514.489,521.319,526.507,528.945,533.326" svgx:width="0.29,0.38,0.52,0.83,0.55,0.32,0.54,0.45,0.55,0.26,0.55,0.45,0.52,0.83,0.53,0.26,0.45,0.32,0.45,0.55,0.53,0.45,0.45,0.52,0.83,0.53,0.52,0.38,0.26,0.32,0.26,0.52,0.55,0.55,0.52,0.29,0.55,0.51,0.56,0.33,0.55,0.29,0.26,0.26,0.83,0.22,0.55,0.7,0.54,0.26,0.45,0.54" style="fill:rgb(23,22,21);font-family:AdvTT86d47313;font-size:9.8px;stroke:none;">from the incomplete decomposition of SEI film, which</text>
   <text y="504.736" x="304.725,310.026,314.249,319.453,324.511,328.891,334.149,337.873,341.463,343.901,349.291,352.858,357.238,359.661,362.209,365.727,370.627,375.821,379.276,382.432,385.966,390.346,395.604,399.377,401.784,404.939,407.339,412.329,417.719,421.286,429.449,433.701,436.857,441.072,443.62,447.138,452.234,456.889,459.437,464.486,468.866,472.59,476.107,478.655,483.931,488.183,490.731,495.893,501.097,503.49,508.9,513.6039999999999,517.039,523.674,528.832,536.485" svgx:width="0.54,0.45,0.53,0.53,0.45,0.55,0.38,0.55,0.26,0.55,0.55,0.45,0.26,0.26,0.55,0.5,0.53,0.55,0.32,0.38,0.45,0.55,0.38,0.26,0.32,0.26,0.52,0.55,0.55,0.83,0.45,0.32,0.45,0.26,0.55,0.52,0.49,0.26,0.53,0.45,0.38,0.55,0.26,0.55,0.45,0.26,0.54,0.53,0.26,0.55,0.48,0.55,0.68,0.54,0.78,0.22" style="fill:rgb(23,22,21);font-family:AdvTT86d47313;font-size:9.8px;stroke:none;">happens in all 3d transition metal oxides including CuO,</text>
   <text y="516.755" x="304.725,312.173,314.589,322.129,324.285,326.835,331.216,336.473,341.66700000000003,344.297,350.817" svgx:width="0.76,0.26,0.78,0.22,0.55,0.45,0.55,0.53,0.55,0.68,0.52" style="fill:rgb(23,22,21);font-family:AdvTT86d47313;font-size:9.8px;stroke:none;">NiO, and Co</text>
   <text y="518.4" x="355.861" svgx:width="0.5" style="fill:rgb(23,22,21);font-family:AdvTT86d47313;font-size:6.53px;stroke:none;">3</text>
   <text y="516.756" x="359.433" svgx:width="0.78" style="fill:rgb(23,22,21);font-family:AdvTT86d47313;font-size:9.8px;stroke:none;">O</text>
   <text y="518.4" x="367.03" svgx:width="0.5" style="fill:rgb(23,22,21);font-family:AdvTT86d47313;font-size:6.53px;stroke:none;">4</text>
   <text y="516.756" x="373.266,376.42,381.318,386.056,389.211,391.367,393.823,396.979,402.157,406.567,409.131,414.12,417.275,422.454,426.834,430.558,432.998,438.094,443.374,447.78400000000005,450.347,452.785,456.509,459.135,463.513,467.75,472.952,477.216,481.468,484.016,487.023,491.43300000000005,493.997,496.543,501.478,505.249,508.973,511.567,515.946,520.125,525.425,529.081,533.459" svgx:width="0.32,0.5,0.5,0.32,0.22,0.55,0.32,0.54,0.45,0.55,0.52,0.32,0.54,0.45,0.38,0.55,0.52,0.55,0.45,0.55,0.26,0.38,0.55,0.45,0.45,0.53,0.45,0.45,0.26,0.32,0.45,0.55,0.26,0.52,0.38,0.38,0.55,0.45,0.45,0.54,0.38,0.45,0.53" style="fill:rgb(23,22,21);font-family:AdvTT86d47313;font-size:9.8px;stroke:none;">[29]; the other one is capacity loss caused</text>
   <text y="528.775" x="304.725,309.821,314.23100000000005,318.898,322.054,327.232,331.64200000000005,336.36,340.74,343.163,347.543,351.924,354.955,358.63,363.572,368.776,373.18600000000004,377.858,383.062,388.177,390.725,395.037,399.417,402.974,405.412,409.694,414.075,417.23,419.585,424.681,430.07099999999997,434.779,439.16,444.417,449.611,454.396,456.944,461.879,465.652,469.376,474.125,479.221,482.063,486.768,489.316,494.591,497.746,501.961,505.363,508.821,514.025,518.289,521.964,524.923,527.471,531.726,534.164" svgx:width="0.52,0.45,0.55,0.32,0.54,0.45,0.55,0.45,0.26,0.45,0.45,0.32,0.38,0.52,0.53,0.45,0.55,0.53,0.54,0.26,0.46,0.45,0.38,0.26,0.44,0.45,0.32,0.26,0.52,0.55,0.55,0.45,0.55,0.53,0.55,0.26,0.52,0.38,0.38,0.55,0.52,0.29,0.55,0.26,0.55,0.32,0.45,0.38,0.36,0.53,0.45,0.38,0.32,0.26,0.45,0.26,0.45" style="fill:rgb(23,22,21);font-family:AdvTT86d47313;font-size:9.8px;stroke:none;">by the electrode pulverization and loss of inter-particle</text>
   <text y="540.736" x="304.725,309.305,314.601,320.21,323.566,328.146,332.682,335.81800000000004,338.862,344.191,347.91499999999996,350.823,354.168,359.67,364.08000000000004,367.096,372.5,377.08,380.955,384.311,387.059,391.639,394.387,398.797,401.757,408.788,411.536,414.891,420.183,423.225,427.761,433.09,438.493,443.897,448.478,452.202,455.11,458.162,463.458,466.206,468.754,471.761,476.342,481.638,484.385,487.133,491.839,496.431,499.787,505.083,508.807,511.772,517.158,522.66,527.0699999999999,530.086,533.442" svgx:width="0.45,0.52,0.55,0.32,0.45,0.45,0.32,0.55,0.52,0.38,0.55,0.32,0.54,0.45,0.55,0.53,0.45,0.38,0.32,0.26,0.45,0.26,0.45,0.55,0.7,0.26,0.32,0.54,0.55,0.45,0.52,0.53,0.53,0.45,0.38,0.55,0.29,0.52,0.26,0.26,0.55,0.45,0.52,0.26,0.26,0.45,0.45,0.32,0.52,0.38,0.55,0.53,0.54,0.45,0.55,0.32,0.52" style="fill:rgb(23,22,21);font-family:AdvTT86d47313;font-size:9.8px;stroke:none;">contact or the particle with copper foil collector due to</text>
   <text y="552.755" x="304.725,307.477,312.063,315.943,320.842,325.252,331.046,335.752,341.053,343.806,349.312,357.68,362.09000000000003,367.771,372.364,377.361,382.769,387.354,392.969,396.947,399.699,405.0,410.615,414.387,418.972,424.273,429.887,433.247,437.127,441.713,446.298,449.658,452.411,457.712,463.102,468.824,474.267,479.773,483.653,486.406,491.961,496.665,502.392,506.305,510.89,516.299,520.884,525.469,528.83,533.415" svgx:width="0.26,0.45,0.38,0.48,0.45,0.55,0.46,0.52,0.26,0.54,0.83,0.45,0.55,0.45,0.49,0.53,0.45,0.55,0.38,0.26,0.52,0.55,0.36,0.45,0.52,0.55,0.32,0.38,0.45,0.45,0.32,0.26,0.52,0.55,0.55,0.53,0.54,0.38,0.26,0.55,0.48,0.55,0.38,0.45,0.53,0.45,0.45,0.32,0.45,0.53" style="fill:rgb(23,22,21);font-family:AdvTT86d47313;font-size:9.8px;stroke:none;">large volume expansion/contraction during repeated</text>
   <text y="564.774" x="304.725,309.105,314.249,318.63,322.129,326.823,329.216,334.625,339.194,342.652,347.856,350.249,354.022,358.243,363.545,367.824,371.499,375.988,378.536,383.811,388.515,392.088,397.292,400.762,405.858,410.116,414.496,418.109,421.882,426.103,429.827,433.474,437.854,443.112,448.30600000000004,451.9,455.672,460.053,464.372,468.752,472.309,476.71900000000005,480.246,485.449,489.657,493.332,496.346,498.894,503.149,505.587,509.997,513.581,517.962,522.482,527.176,530.702,535.083" svgx:width="0.45,0.54,0.45,0.38,0.48,0.26,0.55,0.48,0.36,0.53,0.26,0.38,0.45,0.54,0.45,0.38,0.48,0.26,0.55,0.48,0.55,0.53,0.38,0.52,0.45,0.45,0.38,0.38,0.45,0.38,0.55,0.45,0.55,0.53,0.55,0.38,0.45,0.46,0.45,0.38,0.45,0.55,0.53,0.45,0.38,0.32,0.26,0.45,0.26,0.45,0.55,0.45,0.48,0.48,0.38,0.45,0.36" style="fill:rgb(23,22,21);font-family:AdvTT86d47313;font-size:9.8px;stroke:none;">charging-discharging processes and severe particle aggre-</text>
   <text y="576.735" x="304.725,309.419,313.626,316.781,319.181,324.277,329.557,331.713,336.36,343.19,348.322,350.87,355.126,360.41799999999995,365.047,367.595,371.319,375.932,380.312,385.286,393.449,401.443,406.539,411.929,416.58,419.018,424.40799999999996,429.109,433.49,435.855,438.403,443.055,446.211,449.745,454.125,459.383,463.156,465.506,468.661,471.061,476.157,481.54699999999997,486.141,494.305,498.557,501.713,505.927,508.475,513.127,518.223,522.878,525.426,530.475,534.856" svgx:width="0.48,0.45,0.32,0.26,0.52,0.55,0.22,0.55,0.7,0.54,0.26,0.45,0.54,0.55,0.26,0.38,0.55,0.45,0.52,0.83,0.83,0.52,0.55,0.55,0.26,0.55,0.55,0.45,0.26,0.26,0.55,0.32,0.38,0.45,0.55,0.38,0.26,0.32,0.26,0.52,0.55,0.55,0.83,0.45,0.32,0.45,0.26,0.55,0.52,0.49,0.26,0.53,0.45,0.38" style="fill:rgb(23,22,21);font-family:AdvTT86d47313;font-size:9.8px;stroke:none;">gation, which is common in all transition metal oxides</text>
   <text y="588.754" x="304.725,307.786,312.686,317.424,320.58,322.736,326.666,329.929,335.31899999999996,339.252,342.103,346.338,350.719,353.874,356.03000000000003,359.944,365.04,370.035,373.191,378.48299999999995,382.394,385.549,390.728,395.13800000000003,399.118,408.203,413.461" svgx:width="0.32,0.5,0.5,0.32,0.22,0.55,0.33,0.55,0.55,0.29,0.45,0.45,0.32,0.22,0.55,0.52,0.52,0.32,0.54,0.55,0.32,0.54,0.45,0.55,0.93,0.55,0.78" style="fill:rgb(23,22,21);font-family:AdvTT86d47313;font-size:9.8px;stroke:none;">[30]. In fact, both the MnO</text>
   <text y="590.4" x="421.001" svgx:width="0.5" style="fill:rgb(23,22,21);font-family:AdvTT86d47313;font-size:6.53px;stroke:none;">2</text>
   <text y="588.756" x="428.712,436.762,439.31,443.565,447.24,452.182,460.346,464.598,467.754,471.968,475.643,478.035,482.415,484.781,488.505,492.548,496.321,501.505,504.357,507.004,511.385,515.109,519.023,521.874,525.372,530.468" svgx:width="0.83,0.26,0.45,0.38,0.52,0.83,0.45,0.32,0.45,0.38,0.26,0.45,0.26,0.38,0.55,0.38,0.54,0.29,0.29,0.45,0.38,0.55,0.29,0.38,0.52,0.83" style="fill:rgb(23,22,21);font-family:AdvTT86d47313;font-size:9.8px;stroke:none;">micromaterials suffer from</text>
   <text y="600.718" x="304.724,309.928,314.872,319.968,323.692,326.438,330.819,335.055,339.436,341.858,344.296,349.706,354.41,357.222,360.995,364.025,368.406,373.324,375.872,378.256,380.804,383.811,388.221,391.068,396.164,399.006,401.84,404.996,410.174,414.584,417.431,422.635,425.028,428.801,433.022,438.323,442.603,446.278,450.766,455.17600000000004,458.08,461.853,466.868,471.248,475.629,478.177,480.814,483.362,487.77200000000005,490.565,494.945,499.182,504.385,508.649,513.03,515.396,518.551,522.766,524.9219999999999,527.812,534.751" svgx:width="0.53,0.52,0.52,0.38,0.55,0.45,0.45,0.45,0.26,0.26,0.55,0.48,0.55,0.38,0.32,0.45,0.52,0.26,0.26,0.26,0.32,0.45,0.55,0.52,0.29,0.55,0.32,0.54,0.45,0.55,0.53,0.26,0.38,0.45,0.54,0.45,0.38,0.48,0.45,0.55,0.38,0.53,0.45,0.45,0.26,0.29,0.26,0.45,0.55,0.45,0.45,0.53,0.45,0.45,0.26,0.32,0.45,0.22,0.55,0.71,0.38" style="fill:rgb(23,22,21);font-family:AdvTT86d47313;font-size:9.8px;stroke:none;">poor cycling stability of the discharge specific capacity. As</text>
   <text y="612.737" x="304.724,310.026,313.626,318.927,323.207,325.645,327.801,332.902,337.998,343.277,347.687,352.802,357.182,359.888,362.74,367.12,371.34,374.496,376.896,381.384,385.79400000000004,390.842,397.672,401.897,406.307,411.422,414.577,419.673,424.745,432.795,435.343,438.351,440.899,445.437,449.818,452.864,457.274,462.331,465.487,470.665,475.07500000000005,480.19,485.393,488.92,493.91,499.005,501.393,505.773,513.907,519.025,521.463,525.187,530.363,533.519" svgx:width="0.54,0.38,0.54,0.45,0.26,0.22,0.55,0.52,0.55,0.45,0.55,0.45,0.29,0.29,0.45,0.45,0.32,0.26,0.46,0.45,0.55,0.7,0.45,0.45,0.55,0.32,0.52,0.55,0.83,0.26,0.32,0.26,0.48,0.45,0.32,0.45,0.55,0.32,0.54,0.45,0.55,0.53,0.38,0.52,0.52,0.26,0.45,0.83,0.55,0.26,0.38,0.55,0.32,0.52" style="fill:rgb(23,22,21);font-family:AdvTT86d47313;font-size:9.8px;stroke:none;">usual, one effective way to mitigate the problem is to</text>
   <text y="624.755" x="304.724,307.576,311.811,316.8,320.475,322.866,327.246,331.483,334.639,339.04900000000004,343.729,348.139,352.913,358.215,363.118,365.666,368.05,373.146,380.00600000000003,384.718,388.491,391.464,395.139,400.309,404.689,407.679,412.981,416.524,420.904,423.06,427.693,432.073,435.79699999999997,440.675,445.08500000000004,449.803,455.105,460.065,462.612,464.997,470.093,476.95300000000003,481.608,484.156,489.431,492.586,496.801,500.476,502.868,507.964,511.688,516.36,520.741,525.658,530.96,533.369" svgx:width="0.29,0.45,0.52,0.38,0.26,0.45,0.45,0.32,0.45,0.55,0.45,0.55,0.54,0.52,0.26,0.26,0.52,0.7,0.55,0.38,0.32,0.38,0.54,0.45,0.32,0.54,0.38,0.45,0.22,0.55,0.45,0.38,0.55,0.45,0.55,0.54,0.52,0.26,0.26,0.52,0.7,0.55,0.26,0.55,0.32,0.45,0.38,0.26,0.52,0.38,0.55,0.45,0.52,0.54,0.26,0.53" style="fill:rgb(23,22,21);font-family:AdvTT86d47313;font-size:9.8px;stroke:none;">fabricate a hollow structure, as a hollow interior could</text>
   <text y="636.717" x="304.724,309.928,313.455,318.444,322.933,325.361,330.565,334.975,337.493,341.874,346.507,349.663,353.197,357.607,360.17,363.022,366.52,370.9,375.31,377.858,381.631,386.702,391.083,395.319,399.72900000000004,402.293,405.145,410.116,413.84,416.409,420.789,423.155,425.703,430.084,434.437,436.985,441.24,444.395,446.795,452.205,456.909,459.438,462.594,467.715,472.125,474.745,478.518,481.491,485.166,490.335,494.716,497.706,503.008,506.55,510.931,513.4789999999999,516.018,519.791,522.764,526.439,530.701,533.14" svgx:width="0.53,0.38,0.52,0.46,0.26,0.53,0.45,0.55,0.45,0.49,0.32,0.38,0.45,0.55,0.29,0.38,0.45,0.45,0.55,0.38,0.53,0.45,0.45,0.45,0.55,0.29,0.52,0.38,0.55,0.45,0.26,0.26,0.45,0.46,0.26,0.45,0.32,0.26,0.55,0.48,0.55,0.32,0.54,0.45,0.55,0.38,0.32,0.38,0.54,0.45,0.32,0.54,0.38,0.45,0.26,0.55,0.38,0.32,0.38,0.45,0.26,0.55" style="fill:rgb(23,22,21);font-family:AdvTT86d47313;font-size:9.8px;stroke:none;">provide extra free space for alleviating the structural strain</text>
   <text y="648.736" x="304.724,309.105,314.363,319.557,322.47,326.851,331.087,335.468,340.441,348.492,356.655,361.644,366.848,371.055,374.211,376.611,382.02,386.724,389.537,392.692,397.814,402.22400000000005,405.127,407.565,411.946,415.502,420.197,424.607,427.521,431.887,436.983,439.37,444.672,452.693,457.103,460.119,464.608,468.85,472.525,474.859,479.24,482.286,484.724,489.82,495.21,498.047,502.427,506.2,509.973,514.885,519.266,521.688,526.069,529.059,533.439" svgx:width="0.45,0.55,0.53,0.55,0.45,0.45,0.45,0.52,0.83,0.83,0.52,0.53,0.45,0.32,0.26,0.55,0.48,0.55,0.32,0.54,0.45,0.55,0.26,0.45,0.38,0.48,0.45,0.55,0.46,0.52,0.26,0.54,0.83,0.45,0.55,0.46,0.45,0.38,0.26,0.45,0.32,0.26,0.52,0.55,0.55,0.45,0.38,0.38,0.52,0.45,0.26,0.45,0.32,0.45,0.53" style="fill:rgb(23,22,21);font-family:AdvTT86d47313;font-size:9.8px;stroke:none;">and accommodating the large volume variation associated</text>
   <text y="660.754" x="304.724,311.662,314.316,317.579,322.871,328.917,332.699,337.186,342.497,346.984,351.472,354.734,359.222,364.416,370.446,376.061" svgx:width="0.7,0.26,0.32,0.54,0.55,0.38,0.45,0.53,0.45,0.45,0.32,0.45,0.53,0.55,0.56,0.26" style="fill:rgb(23,22,21);font-family:AdvTT86d47313;font-size:9.8px;stroke:none;">with repeated Li</text>
   <text y="656.391" x="378.709" svgx:width="0.58" style="fill:rgb(23,22,21);font-family:AdvTT86d47313;font-size:6.53px;stroke:none;">+</text>
   <text y="660.756" x="389.027,391.681,396.882,402.272,408.334,410.882,416.442,420.354,424.84,428.621,431.883,434.536,439.632,445.252,448.819,453.359,458.257,461.518,465.299,469.786,474.272,477.533,480.081,485.357,490.747,496.809,502.138,505.919,511.121,515.607,520.093,523.972,527.851,532.337,536.419" svgx:width="0.26,0.52,0.55,0.55,0.26,0.55,0.38,0.45,0.38,0.32,0.26,0.52,0.55,0.36,0.45,0.49,0.32,0.38,0.45,0.45,0.32,0.26,0.52,0.55,0.55,0.53,0.38,0.52,0.45,0.45,0.38,0.38,0.45,0.38,0.22" style="fill:rgb(23,22,21);font-family:AdvTT86d47313;font-size:9.8px;stroke:none;">ion insertion/extraction processes,</text>
   <text y="672.718" x="304.725,309.518,312.066,316.718,319.383,324.891,329.595,334.019,337.793,340.341,344.313,348.723,353.157,356.412,361.508,365.993,368.541,376.878,382.18,385.954,391.149,395.737,400.216,405.41,409.854,414.334,418.869,423.349,425.897,428.621,434.12,438.824,443.304,447.16,450.414,454.95,460.046,462.773,465.42,467.968,471.315,475.794,477.95,482.371,490.024,495.219,502.149,506.741,511.333,515.813,518.874,521.03,525.451,528.739,534.14" svgx:width="0.48,0.26,0.46,0.26,0.55,0.48,0.55,0.38,0.26,0.38,0.45,0.55,0.32,0.52,0.55,0.26,0.83,0.53,0.38,0.52,0.46,0.45,0.53,0.55,0.45,0.45,0.45,0.26,0.26,0.55,0.48,0.55,0.38,0.32,0.45,0.52,0.26,0.26,0.26,0.32,0.45,0.22,0.55,0.77,0.52,0.7,0.45,0.46,0.45,0.38,0.22,0.55,0.32,0.54,0.45" style="fill:rgb(23,22,21);font-family:AdvTT86d47313;font-size:9.8px;stroke:none;">giving rise to improved cycling stability. However, the</text>
   <text y="684.737" x="304.725,310.131,313.91,318.394,323.8,326.451,331.965,335.636,338.288,340.836,345.941,350.351,354.105,363.289,368.845" svgx:width="0.54,0.38,0.45,0.54,0.26,0.55,0.36,0.26,0.26,0.5,0.45,0.55,0.93,0.55,0.78" style="fill:rgb(23,22,21);font-family:AdvTT86d47313;font-size:9.8px;stroke:none;">urchin-like MnO</text>
   <text y="686.381" x="376.611" svgx:width="0.5" style="fill:rgb(23,22,21);font-family:AdvTT86d47313;font-size:6.53px;stroke:none;">2</text>
   <text y="684.737" x="384.094,386.642,392.032,395.943,399.201,404.605,407.254,410.978,414.851,418.628,423.111,426.986,431.468,435.951,439.727,444.21,449.50199999999995,453.338,455.886,461.501,466.807,471.289,475.772,480.966,484.842,490.246,494.838,498.562,502.435,506.845,510.655,516.059,521.257,523.907,526.455,531.73" svgx:width="0.26,0.55,0.55,0.32,0.54,0.26,0.38,0.55,0.38,0.45,0.38,0.45,0.45,0.38,0.45,0.54,0.55,0.26,0.55,0.53,0.45,0.45,0.53,0.55,0.54,0.45,0.38,0.55,0.45,0.55,0.54,0.52,0.26,0.26,0.52,0.7" style="fill:rgb(23,22,21);font-family:AdvTT86d47313;font-size:9.8px;stroke:none;">in this research indeed has a hollow</text>
   <text y="696.756" x="304.725,307.378,312.892,316.153,320.688,324.468,327.121,332.322,336.046,339.805,345.006,350.412,353.548,357.442,362.714,367.915,373.116,376.84,380.656,385.141,389.626,394.112,396.765,399.313,404.929,409.633,413.489,417.344,420.605,425.14,430.236,432.964,435.616,438.164,441.512,445.991,448.147,452.0,457.103,462.303,464.459,468.313,472.798,478.313,483.513,486.774,492.18,496.666,500.39,504.206,508.684,511.641,514.598,519.19,523.675,526.936,529.484,534.136" svgx:width="0.26,0.55,0.32,0.45,0.38,0.26,0.52,0.38,0.55,0.52,0.54,0.32,0.55,0.53,0.52,0.52,0.38,0.55,0.45,0.45,0.45,0.26,0.26,0.55,0.48,0.55,0.38,0.32,0.45,0.52,0.26,0.26,0.26,0.32,0.45,0.22,0.55,0.51,0.52,0.22,0.55,0.45,0.55,0.52,0.32,0.54,0.45,0.38,0.55,0.45,0.29,0.29,0.45,0.45,0.32,0.26,0.46,0.45" style="fill:rgb(23,22,21);font-family:AdvTT86d47313;font-size:9.8px;stroke:none;">interior but poor cycling stability. So, another effective</text>
   <text y="708.718" x="304.725,308.597,311.885,315.659,320.194,323.449,327.928,332.721,337.13100000000003,340.829,344.083,349.17900000000003,352.928,355.476,363.813,369.142,372.883,378.078,382.666,387.076,390.773,394.061,399.462,403.872,407.682,412.161,416.641,421.12,423.767,426.414,431.923,436.627,440.313,444.226,447.48,451.96,457.155,459.801,462.349,465.074,468.362,472.77200000000005,476.412,479.059,482.783,486.542,489.83,495.216,499.62600000000003,503.324,508.822,513.358,517.836,523.03,526.738,529.685,534.88" svgx:width="0.38,0.32,0.38,0.45,0.32,0.45,0.48,0.45,0.55,0.32,0.52,0.55,0.26,0.83,0.53,0.38,0.52,0.46,0.45,0.55,0.32,0.54,0.45,0.55,0.45,0.45,0.45,0.26,0.26,0.55,0.48,0.55,0.38,0.32,0.45,0.52,0.26,0.26,0.26,0.32,0.45,0.55,0.26,0.38,0.55,0.32,0.54,0.45,0.55,0.55,0.45,0.45,0.53,0.55,0.29,0.52,0.38" style="fill:rgb(23,22,21);font-family:AdvTT86d47313;font-size:9.8px;stroke:none;">strategy to improve the cycling stability is the need for</text>
   <text y="720.736" x="304.725,307.983,313.388,317.798,320.645,325.237,329.206,332.773,338.163,341.905,346.44,351.713,356.196,359.974,364.457,369.651,372.508,381.695,387.208" svgx:width="0.32,0.54,0.45,0.55,0.45,0.38,0.36,0.53,0.38,0.45,0.53,0.45,0.38,0.45,0.53,0.55,0.93,0.55,0.78" style="fill:rgb(23,22,21);font-family:AdvTT86d47313;font-size:9.8px;stroke:none;">the as-prepared MnO</text>
   <text y="722.381" x="394.979" svgx:width="0.5" style="fill:rgb(23,22,21);font-family:AdvTT86d47313;font-size:6.53px;stroke:none;">2</text>
   <text y="720.737" x="401.499,405.383,409.874,418.148,423.463,426.121,430.613,434.496,436.652,439.486,444.581,449.861,453.585,456.381,460.859,465.762,470.253,478.527,483.842,486.501,490.992,493.148,495.981,499.836,505.249,509.74,512.399,514.947,517.785,522.276,527.483,531.974,535.13" svgx:width="0.38,0.45,0.83,0.53,0.26,0.45,0.38,0.22,0.55,0.52,0.52,0.38,0.55,0.45,0.49,0.45,0.83,0.53,0.26,0.45,0.22,0.55,0.38,0.54,0.45,0.26,0.26,0.55,0.45,0.52,0.45,0.32,0.36" style="fill:rgb(23,22,21);font-family:AdvTT86d47313;font-size:9.8px;stroke:none;">samples. For example, shell coat-</text>
   <text y="732.756" x="304.725,307.384,312.904,317.608,322.882,326.738,332.15,336.641,341.933,347.243,351.835,355.55899999999997,360.849,365.385,369.876,373.617,378.824,384.031,389.421,394.689,399.181,404.277,408.876,412.107,414.765,420.286,425.275,427.431,432.701,438.016,443.112,445.839,450.318,455.632,460.123,463.865,467.663,472.87,475.418,479.82800000000003,485.286,489.764,494.971,499.462,502.728,505.387,510.907,515.953,518.1089999999999,523.324,527.859,533.38" svgx:width="0.26,0.55,0.48,0.55,0.38,0.54,0.45,0.54,0.55,0.45,0.38,0.55,0.45,0.45,0.38,0.52,0.52,0.55,0.55,0.45,0.52,0.45,0.32,0.26,0.55,0.48,0.22,0.55,0.53,0.52,0.26,0.45,0.53,0.45,0.38,0.38,0.52,0.26,0.45,0.55,0.45,0.52,0.45,0.32,0.26,0.55,0.48,0.22,0.55,0.45,0.55,0.53" style="fill:rgb(23,22,21);font-family:AdvTT86d47313;font-size:9.8px;stroke:none;">ing such as carbon coating, polypyrrole coating, and</text>
  </g>
  <path style="fill:rgb(23,22,21);stroke:none;stroke-width:1.0;" d="M308.750 90.030 L534.560 90.030 L534.560 90.260 L308.750 90.260 "/>
  <path style="fill:rgb(23,22,21);stroke:none;stroke-width:0.25;" d="M534.560 90.030 L535.290 90.090 C536.850 90.260 538.330 91.800 538.530 93.320 L538.580 94.000 L538.350 94.000 L538.300 93.370 C538.080 91.900 536.750 90.540 535.240 90.310 L534.560 90.260 "/>
  <path style="fill:rgb(23,22,21);stroke:none;stroke-width:0.25;" d="M538.580 94.000 L538.580 290.720 L538.360 290.720 L538.360 94.000 "/>
  <path style="fill:rgb(23,22,21);stroke:none;stroke-width:0.25;" d="M538.580 290.720 L538.530 291.400 C538.340 292.920 536.850 294.460 535.290 294.630 L534.560 294.690 L534.560 294.460 L535.240 294.410 C536.700 294.190 538.080 292.810 538.300 291.350 L538.360 290.720 "/>
  <path style="fill:rgb(23,22,21);stroke:none;stroke-width:0.25;" d="M534.560 294.690 L308.750 294.690 L308.750 294.460 L534.560 294.460 "/>
  <path style="fill:rgb(23,22,21);stroke:none;stroke-width:0.25;" d="M308.750 294.690 L308.010 294.630 C306.450 294.460 304.970 292.920 304.780 291.400 L304.730 290.720 L304.950 290.720 L305.010 291.350 C305.270 292.870 306.530 294.170 308.070 294.410 L308.750 294.460 "/>
  <path style="fill:rgb(23,22,21);stroke:none;stroke-width:0.25;" d="M304.720 290.720 L304.720 94.000 L304.950 94.000 L304.950 290.720 "/>
  <path style="fill:rgb(23,22,21);stroke:none;stroke-width:0.25;" d="M304.720 94.000 L304.780 93.320 C304.970 91.800 306.450 90.260 308.010 90.090 L308.750 90.030 L308.750 90.260 L308.070 90.310 C306.550 90.540 305.220 91.890 305.010 93.370 L304.950 94.000 "/>
  <rect style="fill:pink;opacity:0.2;stroke:blue;stroke-width:0.3;" x="314.192" y="102.564" height="160.157" width="214.988" title="4"/>
  <text y="102.564" class="image" id="image.4.1" width="214" height="160" x="314.192" style="font-size:5.0px;">image.4.1.314_529.103_263</text>
  <g begin="text">
   <text y="268.441" x="310.734,314.894,317.054,321.718,326.294,329.294,333.454,335.792" svgx:width="0.52,0.27,0.58,0.57,0.38,0.52,0.55,0.55" style="fill:rgb(23,22,21);font-family:AdvTTaf7f9f4f.B;font-size:8.0px;stroke:none;">Figure 4</text>
   <text y="268.441" x="342.595,347.259,351.755,355.755,358.587,363.163,367.243,369.739,374.23,376.23,379.558,383.134,387.63,391.63,394.462,399.037,403.11699999999996,405.468,408.796,413.46,417.54,421.116,423.116,425.612,427.612,431.21200000000005,433.531,437.107,441.107,445.771,449.77,453.346,455.346,458.09,462.09,464.586,468.586,472.989,474.989,477.733,481.733,486.309,490.389,492.775,496.351,500.847,503.679,507.679,511.759,515.119,517.437,521.933" svgx:width="0.58,0.56,0.5,0.35,0.57,0.51,0.31,0.57,0.25,0.42,0.45,0.56,0.5,0.35,0.57,0.51,0.55,0.42,0.58,0.51,0.45,0.25,0.31,0.25,0.45,0.55,0.45,0.5,0.58,0.5,0.45,0.25,0.34,0.5,0.31,0.5,0.56,0.25,0.34,0.5,0.57,0.51,0.55,0.45,0.56,0.35,0.5,0.51,0.42,0.55,0.56,0.31" style="fill:rgb(23,22,21);font-family:AdvTT99c4c969;font-size:8.0px;stroke:none;">Charge-discharge specific capacity-voltage curves of</text>
   <text y="278.476" x="310.734,317.31,321.806" svgx:width="0.82,0.56,0.7" style="fill:rgb(23,22,21);font-family:AdvTT99c4c969;font-size:8.0px;stroke:none;">MnO</text>
   <text y="279.78" x="327.345" svgx:width="0.53" style="fill:rgb(23,22,21);font-family:AdvTT99c4c969;font-size:5.33px;stroke:none;">2</text>
   <text y="278.476" x="332.901,336.901,341.397,345.893,350.468,354.548,356.939,363.683,367.683,370.427,374.507,377.339,379.339,383.338,385.229,388.589,390.955,392.955,397.435,399.856,402.6,407.096,411.176,413.576,418.24,422.736,425.479,429.559,434.055,436.707,438.707,442.706,444.706,447.082,449.914,453.914,458.409,462.985,467.065,469.419,473.915,476.39500000000004,478.83,483.078,484.91,489.158,493.398,494.931,499.651,501.223,505.471,507.303,511.551,515.7909999999999,518.174,522.894,525.317,529.317" svgx:width="0.5,0.56,0.56,0.57,0.51,0.55,0.84,0.5,0.34,0.51,0.35,0.25,0.5,0.25,0.42,0.55,0.25,0.56,0.55,0.34,0.56,0.51,0.55,0.58,0.56,0.34,0.51,0.56,0.34,0.25,0.5,0.25,0.55,0.35,0.5,0.56,0.57,0.51,0.55,0.56,0.31,0.55,0.53,0.23,0.53,0.53,0.55,0.59,0.55,0.53,0.23,0.53,0.53,0.55,0.59,0.55,0.5,0.34" style="fill:rgb(23,22,21);font-family:AdvTT99c4c969;font-size:8.0px;stroke:none;">anode materials in the potential range of 0.01 ~ 3.60 V at</text>
   <text y="288.454" x="310.734,314.982,316.814,321.05400000000003,323.433,328.097,329.93699999999995,332.277,334.605,338.605" svgx:width="0.53,0.23,0.53,0.55,0.58,0.23,0.55,0.29,0.5,0.29" style="fill:rgb(23,22,21);font-family:AdvTT99c4c969;font-size:8.0px;stroke:none;">0.2 C. (a)</text>
   <text y="288.454" x="343.332,347.828,351.404,355.732,360.06,361.724,365.219,369.051,371.379,374.875,376.539,380.295,386.039,388.367,390.031,391.695,395.023,398.863,401.215,404.791,409.039" svgx:width="0.56,0.45,0.54,0.54,0.21,0.44,0.48,0.29,0.44,0.21,0.48,0.72,0.29,0.21,0.21,0.42,0.48,0.55,0.45,0.53,0.54" style="fill:rgb(23,22,21);font-family:AdvTTb5929f4c;font-size:8.0px;stroke:none;">Caddice-clew-like and</text>
   <text y="288.454" x="415.785,418.113,422.777" svgx:width="0.29,0.58,0.29" style="fill:rgb(23,22,21);font-family:AdvTT99c4c969;font-size:8.0px;stroke:none;">(b)</text>
   <text y="288.454" x="427.464,431.624,433.952,437.448,441.696,443.36,447.608,449.936,451.6,453.264,456.592,460.43199999999996,462.784,468.944,473.192" svgx:width="0.52,0.29,0.44,0.53,0.21,0.53,0.29,0.21,0.21,0.42,0.48,0.55,0.77,0.53,0.67" style="fill:rgb(23,22,21);font-family:AdvTTb5929f4c;font-size:8.0px;stroke:none;">urchin-like MnO</text>
   <text y="289.814" x="478.488" svgx:width="0.48" style="fill:rgb(23,22,21);font-family:AdvTTb5929f4c;font-size:5.33px;stroke:none;">2</text>
   <text y="288.454" x="483.76,486.672,490.248,496.744,501.072,502.736,506.568,509.386" svgx:width="0.36,0.45,0.81,0.54,0.21,0.48,0.36,0.17" style="fill:rgb(23,22,21);font-family:AdvTTb5929f4c;font-size:8.0px;stroke:none;">samples.</text>
  </g>
  <path style="fill:rgb(23,22,21);stroke:none;stroke-width:0.25;" d="M60.720 90.030 L286.530 90.030 L286.530 90.260 L60.720 90.260 "/>
  <path style="fill:rgb(23,22,21);stroke:none;stroke-width:0.25;" d="M286.530 90.030 L287.260 90.090 C288.820 90.260 290.300 91.800 290.490 93.320 L290.550 94.000 L290.320 94.000 L290.270 93.370 C290.050 91.900 288.720 90.540 287.210 90.310 L286.530 90.260 "/>
  <path style="fill:rgb(23,22,21);stroke:none;stroke-width:0.25;" d="M290.550 94.000 L290.550 269.070 L290.320 269.070 L290.320 94.000 "/>
  <path style="fill:rgb(23,22,21);stroke:none;stroke-width:0.25;" d="M290.550 269.070 L290.490 269.740 C290.300 271.270 288.820 272.800 287.260 272.980 L286.530 273.030 L286.530 272.810 L287.210 272.750 C288.670 272.530 290.050 271.150 290.270 269.690 L290.320 269.070 "/>
  <path style="fill:rgb(23,22,21);stroke:none;stroke-width:0.25;" d="M286.530 273.030 L60.720 273.030 L60.720 272.810 L286.530 272.810 "/>
  <path style="fill:rgb(23,22,21);stroke:none;stroke-width:0.25;" d="M60.720 273.030 L59.980 272.980 C58.420 272.800 56.940 271.260 56.750 269.740 L56.690 269.060 L56.920 269.060 L56.980 269.690 C57.190 271.150 58.570 272.530 60.040 272.750 L60.720 272.810 "/>
  <path style="fill:rgb(23,22,21);stroke:none;stroke-width:0.25;" d="M56.690 269.070 L56.690 94.000 L56.920 94.000 L56.920 269.070 "/>
  <path style="fill:rgb(23,22,21);stroke:none;stroke-width:0.25;" d="M56.690 94.000 L56.750 93.320 C56.940 91.800 58.420 90.260 59.980 90.090 L60.720 90.030 L60.720 90.260 L60.040 90.310 C58.520 90.540 57.190 91.890 56.980 93.370 L56.920 94.000 "/>
  <rect style="fill:pink;opacity:0.2;stroke:blue;stroke-width:0.3;" x="66.161" y="102.564" height="148.535" width="214.988" title="4"/>
  <text y="102.564" class="image" id="image.4.2" width="214" height="148" x="66.161" style="font-size:5.0px;">image.4.2.66_281.103_251</text>
  <g begin="text">
   <text y="256.819" x="62.702,66.862,69.022,73.686,78.262,81.262,85.422,87.76" svgx:width="0.52,0.27,0.58,0.57,0.38,0.52,0.55,0.55" style="fill:rgb(23,22,21);font-family:AdvTTaf7f9f4f.B;font-size:8.0px;stroke:none;">Figure 3</text>
   <text y="256.819" x="94.564,98.532,102.837,106.917,108.847,113.438,117.69,123.13,125.061,129.533,133.342,135.895,138.448,142.336,144.977,149.282,152.64200000000002,154.555,158.863,161.343,163.342,169.691,173.996" svgx:width="0.52,0.56,0.51,0.55,0.59,0.56,0.68,0.55,0.58,0.5,0.34,0.34,0.51,0.35,0.56,0.42,0.55,0.56,0.31,0.55,0.82,0.56,0.7" style="fill:rgb(23,22,21);font-family:AdvTT99c4c969;font-size:8.0px;stroke:none;">The XRD patterns of MnO</text>
   <text y="258.123" x="179.376" svgx:width="0.53" style="fill:rgb(23,22,21);font-family:AdvTT99c4c969;font-size:5.33px;stroke:none;">2</text>
   <text y="256.819" x="184.479,191.041,194.859,197.422,201.277,203.927,205.746,209.564,211.322,214.468,216.308,218.266,220.364,224.162" svgx:width="0.84,0.5,0.34,0.51,0.35,0.25,0.5,0.25,0.42,0.23,0.55,0.29,0.5,0.29" style="fill:rgb(23,22,21);font-family:AdvTT99c4c969;font-size:8.0px;stroke:none;">materials. (a)</text>
   <text y="256.819" x="228.473,232.776,236.12,240.256,244.391,245.862,249.165,252.804,254.939,258.243,259.714,263.353,268.904,271.039,272.51,273.982,277.117" svgx:width="0.56,0.45,0.54,0.54,0.21,0.44,0.48,0.29,0.44,0.21,0.48,0.72,0.29,0.21,0.21,0.42,0.48" style="fill:rgb(23,22,21);font-family:AdvTTb5929f4c;font-size:8.0px;stroke:none;">Caddice-clew-like</text>
   <text y="266.797" x="62.703,66.048,70.13" svgx:width="0.45,0.53,0.54" style="fill:rgb(23,22,21);font-family:AdvTTb5929f4c;font-size:8.0px;stroke:none;">and</text>
   <text y="266.797" x="76.423,78.52,82.998" svgx:width="0.29,0.58,0.29" style="fill:rgb(23,22,21);font-family:AdvTT99c4c969;font-size:8.0px;stroke:none;">(b)</text>
   <text y="266.797" x="87.308,91.266,93.393,96.687,100.733,102.196,106.242,108.368,109.831,111.293,114.42,118.26,120.202,126.211,130.258" svgx:width="0.52,0.29,0.44,0.53,0.21,0.53,0.29,0.21,0.21,0.42,0.48,0.55,0.77,0.53,0.67" style="fill:rgb(23,22,21);font-family:AdvTTb5929f4c;font-size:8.0px;stroke:none;">urchin-like MnO</text>
   <text y="268.158" x="135.383" svgx:width="0.48" style="fill:rgb(23,22,21);font-family:AdvTTb5929f4c;font-size:5.33px;stroke:none;">2</text>
   <text y="266.797" x="140.258,142.977,146.321,152.624,156.758,158.228,161.867,164.585" svgx:width="0.36,0.45,0.81,0.54,0.21,0.48,0.36,0.17" style="fill:rgb(23,22,21);font-family:AdvTTb5929f4c;font-size:8.0px;stroke:none;">samples.</text>
   <text y="40.423" x="56.693,60.525,64.525,68.941" svgx:width="0.48,0.5,0.55,0.55" style="fill:rgb(23,22,21);font-family:AdvTTe45e47d2;font-size:8.0px;stroke:none;">Feng</text>
   <text y="40.423" x="75.685,79.261,81.741,84.188,88.348,90.092,91.772,94.11,99.11,103.27,107.518,111.678,114.59,117.918,122.078,123.822,127.422,129.77,133.929,137.505,140.417,143.993,148.153,150.649,153.977,158.217,160.554,164.05,167.626,170.122,172.618,176.194,178.69" svgx:width="0.45,0.31,0.55,0.52,0.22,0.21,0.55,0.63,0.52,0.53,0.52,0.36,0.42,0.52,0.22,0.45,0.55,0.52,0.45,0.36,0.45,0.52,0.31,0.42,0.53,0.55,0.44,0.45,0.31,0.31,0.45,0.31,0.36" style="fill:rgb(23,22,21);font-family:AdvTT7329fd89.I;font-size:8.0px;stroke:none;">et al. Nanoscale Research Letters</text>
   <text y="40.423" x="183.967,188.047,192.127,196.207,200.287" svgx:width="0.51,0.51,0.51,0.51,0.2" style="fill:rgb(23,22,21);font-family:AdvTTe45e47d2;font-size:8.0px;stroke:none;">2014,</text>
   <text y="40.423" x="204.263" svgx:width="0.55" style="fill:rgb(23,22,21);font-family:AdvTTaf7f9f4f.B;font-size:8.0px;stroke:none;">9</text>
   <text y="40.423" x="208.629,210.204,214.284,218.364,222.44400000000002,500.142,504.39,508.222,512.638,516.638,519.021,523.101,525.485,529.813,532.133,534.499" svgx:width="0.2,0.51,0.51,0.51,0.55,0.53,0.48,0.55,0.5,0.55,0.51,0.55,0.54,0.29,0.55,0.51" style="fill:rgb(23,22,21);font-family:AdvTTe45e47d2;font-size:8.0px;stroke:none;">:290 Page 4 of 8</text>
   <text y="50.401" x="56.693,61.109,63.685,66.261,70.757,72.333,74.997,77.661,83.492,89.235,95.067,96.643,101.059,104.891,109.307,113.634,116.794,120.37,124.202,126.034,129.941,132.517,136.517,139.677,141.509,145.508,148.084,150.66,152.236,155.812,160.14,166.735,169.399,172.975,177.303,181.718,184.294,188.294,192.71,195.286,197.95,202.03,204.694,208.688,211.352,215.432,219.512" svgx:width="0.55,0.32,0.32,0.56,0.2,0.33,0.33,0.73,0.73,0.73,0.2,0.55,0.48,0.55,0.54,0.4,0.45,0.48,0.23,0.5,0.32,0.5,0.4,0.23,0.5,0.32,0.32,0.2,0.45,0.54,0.83,0.33,0.45,0.54,0.55,0.32,0.5,0.55,0.32,0.33,0.51,0.33,0.51,0.33,0.51,0.51,0.51" style="fill:rgb(23,22,21);font-family:AdvTTe45e47d2;font-size:8.0px;stroke:none;">http://www.nanoscalereslett.com/content/9/1/290</text>
  </g>
 </g>
</svg>
