<?xml version="1.0" encoding="UTF-8"?>
<svg height="743.89" width="2576.161" xmlns="http://www.w3.org/2000/svg">
 <g id="page" xmlns:svgx="http://www.xml-cml.org/schema/svgx">
  <g begin="text">
   <text y="96.775" x="56.693,61.789,64.631,68.428,73.328,78.293,83.19300000000001,86.967,92.063,95.641" svgx:width="0.52,0.29,0.55,0.5,0.5,0.5,0.55,0.52,0.55,0.48" style="fill:rgb(23,22,21);font-family:AdvTT86d47313;font-size:9.8px;stroke:none;">of 120 F g</text>
   <text y="92.41" x="100.346,104.655" svgx:width="0.58,0.5" style="fill:rgb(23,22,21);font-family:AdvTT86d47313;font-size:6.53px;stroke:none;">−1</text>
   <text y="96.775" x="112.082,116.462,121.946,127.14,130.904,133.452,138.548,145.378,149.759,153.48299999999998,157.322,161.703,167.004,171.385,175.06,179.754,184.135,187.702,190.857,194.532,199.048,204.458,208.231,211.082,215.463,219.18699999999998,222.973,226.648,231.028,234.801,237.349,241.122,244.278,248.658,254.068,258.448,262.829,264.985,268.837,275.668,280.969,283.517,286.065" svgx:width="0.45,0.55,0.53,0.55,0.26,0.52,0.7,0.45,0.38,0.55,0.45,0.54,0.45,0.38,0.48,0.45,0.36,0.32,0.38,0.45,0.55,0.38,0.29,0.45,0.38,0.55,0.38,0.45,0.38,0.26,0.38,0.32,0.45,0.55,0.45,0.45,0.22,0.55,0.7,0.54,0.26,0.26,0.45" style="fill:rgb(23,22,21);font-family:AdvTT86d47313;font-size:9.8px;stroke:none;">and lower charge-transfer resistance, while</text>
   <text y="108.737" x="56.693,59.848,65.15,69.56,74.834,78.607,83.811,88.384,92.764,95.312,98.164,100.712,105.122,110.381,114.761,119.225,124.429,128.809,133.19,135.738,138.893,143.274,148.684,153.064,157.474,162.822,167.918,170.76000000000002,176.088,181.39,185.065,189.445,194.747,197.295,202.791,206.358,208.906,211.454,216.354,220.764,226.035,235.12,240.606" svgx:width="0.32,0.54,0.45,0.55,0.38,0.53,0.45,0.45,0.26,0.29,0.26,0.45,0.55,0.45,0.45,0.53,0.45,0.45,0.26,0.32,0.45,0.55,0.45,0.45,0.55,0.52,0.29,0.55,0.54,0.38,0.45,0.54,0.26,0.55,0.36,0.26,0.26,0.5,0.45,0.55,0.93,0.55,0.78" style="fill:rgb(23,22,21);font-family:AdvTT86d47313;font-size:9.8px;stroke:none;">the specific capacitance of urchin-like MnO</text>
   <text y="110.381" x="248.258" svgx:width="0.5" style="fill:rgb(23,22,21);font-family:AdvTT86d47313;font-size:6.53px;stroke:none;">2</text>
   <text y="108.737" x="257.216,265.379,269.76,272.915,277.296,280.971,283.519,288.0" svgx:width="0.83,0.45,0.32,0.45,0.38,0.26,0.45,0.26" style="fill:rgb(23,22,21);font-family:AdvTT86d47313;font-size:9.8px;stroke:none;">material</text>
   <text y="120.756" x="56.694,63.525,68.033,71.757,76.537,80.917,86.013,91.109,96.411,99.547,104.317,109.217,114.117,118.83,123.926,128.469" svgx:width="0.7,0.45,0.38,0.55,0.45,0.52,0.52,0.54,0.32,0.55,0.5,0.5,0.55,0.52,0.55,0.48" style="fill:rgb(23,22,21);font-family:AdvTT86d47313;font-size:9.8px;stroke:none;">was about 48 F g</text>
   <text y="116.391" x="133.172,137.48" svgx:width="0.58,0.5" style="fill:rgb(23,22,21);font-family:AdvTT86d47313;font-size:6.53px;stroke:none;">−1</text>
   <text y="120.756" x="141.165,143.321,148.025,157.11,162.206,165.881,170.261,175.357,179.846,184.226,187.257,189.413,194.117,197.273,202.574,206.955,211.365,216.114,218.966,224.062,229.363,234.773,239.96699999999998,244.744,247.9,253.202,257.612,262.319,267.621,273.031,275.579,280.783,286.084" svgx:width="0.22,0.55,0.93,0.52,0.38,0.45,0.52,0.46,0.45,0.38,0.22,0.55,0.32,0.54,0.45,0.45,0.55,0.29,0.52,0.54,0.55,0.53,0.55,0.32,0.54,0.45,0.55,0.54,0.55,0.26,0.53,0.54,0.45" style="fill:rgb(23,22,21);font-family:AdvTT86d47313;font-size:9.8px;stroke:none;">. Moreover, they found the unique</text>
   <text y="132.775" x="56.693,61.074,65.454,70.658,75.039,79.419,81.967,85.123,89.632,95.041,99.422,103.832,108.0,113.096,115.938,120.133,124.513,128.894,134.098,139.301,141.849,146.325,150.706,154.273,158.653,161.201,165.582,172.412,175.979,178.64,181.188,186.088,190.498,194.628,203.712,209.122" svgx:width="0.45,0.45,0.53,0.45,0.45,0.26,0.32,0.45,0.55,0.45,0.45,0.55,0.52,0.29,0.55,0.45,0.45,0.53,0.53,0.26,0.45,0.45,0.36,0.45,0.26,0.45,0.7,0.36,0.26,0.26,0.5,0.45,0.55,0.93,0.55,0.78" style="fill:rgb(23,22,21);font-family:AdvTT86d47313;font-size:9.8px;stroke:none;">capacitance of caddice-clew-like MnO</text>
   <text y="134.363" x="216.794" svgx:width="0.5" style="fill:rgb(23,22,21);font-family:AdvTT86d47313;font-size:6.53px;stroke:none;">2</text>
   <text y="132.775" x="224.674,231.505,236.012,239.736,243.949,252.113,256.493,259.041,264.451,267.08,271.49,275.584,280.788,286.09" svgx:width="0.7,0.45,0.38,0.55,0.83,0.45,0.26,0.55,0.26,0.45,0.55,0.53,0.54,0.45" style="fill:rgb(23,22,21);font-family:AdvTT86d47313;font-size:9.8px;stroke:none;">was mainly due</text>
   <text y="144.737" x="56.694,59.849,64.945,69.506,72.662,77.964,82.374,86.911,89.459,94.868,99.326,104.422,112.586,117.789,122.17,126.551,129.687,134.42,138.193,141.348,145.023,150.325,154.706,157.861,163.163,166.838,171.218,173.374,178.017,184.423,189.725,194.105,197.859,202.24,205.092,210.188,213.863,218.243,220.399,224.959,228.115,233.416,237.826,242.364,246.039,250.419,252.967,257.444,260.599,263.147,268.243,273.653,277.426,282.728,285.276" svgx:width="0.32,0.52,0.55,0.32,0.54,0.45,0.55,0.26,0.55,0.45,0.52,0.83,0.53,0.45,0.45,0.32,0.55,0.38,0.32,0.38,0.54,0.45,0.32,0.54,0.38,0.45,0.22,0.55,0.67,0.54,0.45,0.38,0.45,0.29,0.52,0.38,0.45,0.22,0.55,0.32,0.54,0.45,0.55,0.38,0.45,0.26,0.45,0.32,0.26,0.52,0.55,0.38,0.54,0.26,0.53" style="fill:rgb(23,22,21);font-family:AdvTT86d47313;font-size:9.8px;stroke:none;">to the incompact structure. Therefore, the relationship</text>
   <text y="156.756" x="56.694,61.79,66.17,69.326,76.254,80.634,85.015,90.405,95.416,99.797,102.345,106.868,111.249,114.405,118.079,123.175,127.556,132.858,137.37,145.533,148.081,152.461,156.842,159.39000000000001,164.412,169.616,173.997,177.672,180.523,185.619,189.294,197.578,201.959,207.368,211.749,216.159,221.163,225.543,230.953,236.147,241.175,249.338,254.434,258.109,263.313,268.615,273.711,276.259,281.355,286.049" svgx:width="0.52,0.45,0.32,0.7,0.45,0.45,0.55,0.55,0.45,0.26,0.45,0.45,0.32,0.38,0.52,0.45,0.54,0.45,0.83,0.26,0.45,0.45,0.26,0.55,0.53,0.45,0.38,0.29,0.52,0.38,0.83,0.45,0.55,0.45,0.45,0.55,0.45,0.55,0.53,0.55,0.83,0.52,0.38,0.53,0.54,0.52,0.26,0.52,0.48,0.45" style="fill:rgb(23,22,21);font-family:AdvTT86d47313;font-size:9.8px;stroke:none;">between electrochemical performance and morphology</text>
   <text y="168.774" x="56.694,59.242,62.965999999999994,66.105,71.309,73.856,76.708,79.56,83.941,87.705,92.085,97.495,100.631,103.806,110.636,115.938,120.319,125.709,128.864,137.949,143.358" svgx:width="0.26,0.38,0.55,0.53,0.26,0.29,0.29,0.45,0.38,0.45,0.55,0.32,0.55,0.7,0.54,0.45,0.55,0.55,0.93,0.55,0.78" style="fill:rgb(23,22,21);font-family:AdvTT86d47313;font-size:9.8px;stroke:none;">is different when MnO</text>
   <text y="170.363" x="151.03" svgx:width="0.5" style="fill:rgb(23,22,21);font-family:AdvTT86d47313;font-size:6.53px;stroke:none;">2</text>
   <text y="168.775" x="157.833,165.996,170.377,173.533,177.913,181.588,184.136,188.618,191.166,194.23,196.778,200.50199999999998,203.698,208.999,212.772,217.153,222.34699999999998,225.468,230.003,233.72699999999998,236.863,241.244,243.792,248.316,252.696,255.852,259.527,264.623,269.003,274.305,278.685,286.98" svgx:width="0.83,0.45,0.32,0.45,0.38,0.26,0.45,0.26,0.55,0.26,0.38,0.55,0.54,0.38,0.45,0.53,0.55,0.45,0.38,0.55,0.45,0.26,0.45,0.45,0.32,0.38,0.52,0.45,0.54,0.45,0.83,0.36" style="fill:rgb(23,22,21);font-family:AdvTT86d47313;font-size:9.8px;stroke:none;">material is used as electrochem-</text>
   <text y="180.737" x="56.693,59.241,63.622,68.002,70.55,75.459,79.232,84.534,89.738,94.118,97.793,102.174,106.554,111.758,116.138,120.643,123.191,126.347,131.443,135.167,139.976,145.072,148.796,153.639,158.117,161.84099999999998,166.734,171.115,176.524,181.62,186.824,191.234,196.102,201.198,204.04000000000002,208.914,211.462,214.01,217.166,222.467,225.015,230.317,238.48,242.048,244.595,249.846,255.236,260.051,265.147,269.527,272.683,275.839,280.348,284.022,288.403" svgx:width="0.26,0.45,0.45,0.26,0.55,0.38,0.54,0.53,0.45,0.38,0.45,0.45,0.53,0.45,0.45,0.26,0.32,0.52,0.38,0.55,0.52,0.38,0.55,0.45,0.38,0.55,0.45,0.55,0.52,0.53,0.45,0.55,0.52,0.29,0.55,0.26,0.26,0.32,0.54,0.26,0.54,0.83,0.36,0.26,0.52,0.55,0.55,0.52,0.45,0.32,0.32,0.45,0.38,0.45,0.22" style="fill:rgb(23,22,21);font-family:AdvTT86d47313;font-size:9.8px;stroke:none;">ical supercapacitor or as anode of lithium-ion battery.</text>
   <text y="192.756" x="56.693,61.789,66.885,70.60900000000001,75.629,78.784,84.086,88.496,93.487,97.868,103.071,108.275,110.823,113.371,117.865,122.246,125.401,127.949,133.045,138.435,143.491,148.587,153.97699999999998,159.025,161.573,164.121,167.359,172.66,175.208,180.51,188.673,192.241,194.789,199.884,205.274,210.389,215.485,219.865,223.021,226.177,230.557,234.232,238.735,240.89100000000002,245.878,251.18,254.855,259.236,264.537,267.085,272.581,276.148,278.696,281.244,286.144" svgx:width="0.52,0.52,0.38,0.55,0.32,0.54,0.45,0.55,0.45,0.53,0.53,0.26,0.26,0.45,0.45,0.32,0.26,0.52,0.55,0.55,0.52,0.55,0.55,0.26,0.26,0.32,0.54,0.26,0.54,0.83,0.36,0.26,0.52,0.55,0.55,0.52,0.45,0.32,0.32,0.45,0.38,0.45,0.22,0.55,0.54,0.38,0.45,0.54,0.26,0.55,0.36,0.26,0.26,0.5,0.45" style="fill:rgb(23,22,21);font-family:AdvTT86d47313;font-size:9.8px;stroke:none;">For the application on lithium-ion battery, urchin-like</text>
   <text y="204.774" x="56.693,65.778,71.187" svgx:width="0.93,0.55,0.78" style="fill:rgb(23,22,21);font-family:AdvTT86d47313;font-size:9.8px;stroke:none;">MnO</text>
   <text y="206.363" x="78.86" svgx:width="0.5" style="fill:rgb(23,22,21);font-family:AdvTT86d47313;font-size:6.53px;stroke:none;">2</text>
   <text y="204.775" x="85.493,93.656,98.037,101.192,105.676,109.351,111.899,116.279,118.827,121.777,124.325,128.049,131.074,136.17,140.551,143.706,146.862,151.242,154.917" svgx:width="0.83,0.45,0.32,0.45,0.38,0.26,0.45,0.26,0.55,0.26,0.38,0.55,0.52,0.45,0.32,0.32,0.45,0.38,0.22" style="fill:rgb(23,22,21);font-family:AdvTT86d47313;font-size:9.8px;stroke:none;">material is better.</text>
   <text y="216.737" x="64.687,67.95,73.34,78.01,83.106,86.781,91.984,96.365,100.089,104.656,107.811,112.90700000000001,117.525,122.219,126.6,129.148,134.538,139.239,142.09,147.392,151.067,154.223,159.524,163.905,167.629,172.234,177.536,182.945,188.221,192.602,196.277,200.05,203.205,207.586,212.995,218.199,220.747,226.263,230.967,235.56,240.656,243.49800000000002,248.089,251.244,256.546,260.956,265.607,270.811,273.359,276.211,279.062,283.443,286.981" svgx:width="0.33,0.55,0.55,0.52,0.38,0.53,0.45,0.38,0.55,0.32,0.52,0.55,0.48,0.45,0.26,0.55,0.55,0.29,0.54,0.38,0.32,0.54,0.45,0.38,0.55,0.54,0.55,0.53,0.45,0.38,0.38,0.32,0.45,0.55,0.53,0.26,0.55,0.48,0.55,0.52,0.29,0.55,0.32,0.54,0.45,0.55,0.53,0.26,0.29,0.29,0.45,0.38,0.36" style="fill:rgb(23,22,21);font-family:AdvTT86d47313;font-size:9.8px;stroke:none;">In order to gain further understanding of the differ-</text>
   <text y="228.756" x="56.693,61.074,66.483,70.864,75.244,78.968,83.679,86.227,91.617,96.322,99.477,104.779,109.189,113.783,118.164,120.712,125.235,129.616,132.772,136.446,141.542,145.923,151.225,155.737,163.9,166.448,170.828,175.209,177.757,182.439,187.643,192.024,195.699,198.55,203.646,207.321,215.485,219.97,225.38,229.76,234.141,238.168,240.324,244.915,250.422,253.686,258.684,263.34,266.495,270.876,274.649,277.804,280.352,285.762" svgx:width="0.45,0.55,0.45,0.45,0.38,0.55,0.26,0.55,0.55,0.32,0.54,0.45,0.55,0.45,0.26,0.45,0.45,0.32,0.38,0.52,0.45,0.54,0.45,0.83,0.26,0.45,0.45,0.26,0.55,0.53,0.45,0.38,0.29,0.52,0.38,0.83,0.45,0.55,0.45,0.45,0.38,0.22,0.55,0.56,0.33,0.51,0.55,0.32,0.45,0.38,0.32,0.26,0.55,0.48" style="fill:rgb(23,22,21);font-family:AdvTT86d47313;font-size:9.8px;stroke:none;">ences in the electrochemical performances, EIS testing</text>
   <text y="240.774" x="56.693,63.523,68.031,71.75500000000001,76.819,81.2,85.58,89.255,92.93,95.478,99.95,105.144,110.098,115.193,120.495,123.651,125.807,130.847,135.943,138.491,143.185,148.487,152.162,156.572,161.631,166.531,171.496,176.7,180.375,184.755,188.528,192.909,198.425,201.656,205.38,210.444,213.599,218.901,223.311,228.302,233.809,237.073,242.071,247.124,250.799,255.179,258.952,264.254,266.802,270.141,273.865,278.871,281.723,286.819" svgx:width="0.7,0.45,0.38,0.55,0.45,0.45,0.38,0.38,0.26,0.45,0.53,0.55,0.52,0.54,0.32,0.22,0.55,0.52,0.26,0.48,0.54,0.38,0.45,0.55,0.5,0.55,0.53,0.38,0.45,0.38,0.45,0.55,0.32,0.38,0.55,0.32,0.54,0.45,0.55,0.56,0.33,0.51,0.55,0.38,0.45,0.38,0.54,0.26,0.32,0.38,0.55,0.29,0.52,0.38" style="fill:rgb(23,22,21);font-family:AdvTT86d47313;font-size:9.8px;stroke:none;">was carried out. Figure 6 presents the EIS results for</text>
   <text y="252.736" x="56.693,59.241,61.789,64.944,70.246,72.794,78.096,86.23,90.085,94.466,98.846,101.394,103.942,107.666,111.459,115.839,118.691,121.847,126.227,129.951,133.683,136.838,142.14,146.54999999999998,150.294,153.146,155.693,158.545,161.701,166.993,170.76,175.14,179.521,183.902,186.449,190.859,194.628,199.008,202.144,205.909,211.005,216.209,220.589,225.97899999999998,229.777,234.157,236.705,240.38,244.761,250.063,252.611,255.74699999999999,259.541,264.029,269.125,271.673,274.829,279.209,283.904,288.398" svgx:width="0.26,0.26,0.32,0.54,0.26,0.54,0.83,0.55,0.45,0.45,0.26,0.26,0.38,0.55,0.45,0.29,0.32,0.45,0.38,0.55,0.32,0.54,0.45,0.55,0.29,0.26,0.29,0.32,0.54,0.55,0.45,0.45,0.45,0.26,0.45,0.55,0.45,0.32,0.55,0.52,0.53,0.45,0.55,0.55,0.45,0.26,0.38,0.45,0.54,0.26,0.32,0.55,0.46,0.52,0.26,0.32,0.45,0.48,0.45,0.22" style="fill:rgb(23,22,21);font-family:AdvTT86d47313;font-size:9.8px;stroke:none;">lithium cells after the fifth cycle at open circuit voltage.</text>
   <text y="264.755" x="56.693,63.722,67.446,73.87,77.643,82.945,88.041,94.96,100.35,106.695,109.243,114.633,121.038,126.134,128.682,133.376,138.678,142.353,146.763,153.183,158.083,161.238,165.619,168.774,170.93,177.334,180.489,185.791,190.201,196.552,199.1,207.263,212.467,216.848,222.052,226.432,231.842,236.351,240.761,247.066,250.839,256.042,260.558,264.939,268.094,271.769,276.17900000000003,282.555,287.651" svgx:width="0.71,0.38,0.55,0.38,0.54,0.52,0.7,0.55,0.55,0.26,0.55,0.55,0.52,0.26,0.48,0.54,0.38,0.45,0.55,0.5,0.32,0.45,0.32,0.22,0.55,0.32,0.54,0.45,0.55,0.26,0.83,0.53,0.45,0.53,0.45,0.55,0.45,0.45,0.55,0.38,0.53,0.45,0.45,0.32,0.38,0.45,0.55,0.52,0.29" style="fill:rgb(23,22,21);font-family:AdvTT86d47313;font-size:9.8px;stroke:none;">As shown in Figure 5(a), the impedance spectra of</text>
   <text y="276.773" x="56.693,61.074,65.454,70.658,75.862,78.41,82.885,87.266,90.833,95.213,97.761,102.142,109.077,112.645,115.192,117.74,122.64,127.05,131.811,140.896,146.305" svgx:width="0.45,0.45,0.53,0.53,0.26,0.45,0.45,0.36,0.45,0.26,0.45,0.7,0.36,0.26,0.26,0.5,0.45,0.55,0.93,0.55,0.78" style="fill:rgb(23,22,21);font-family:AdvTT86d47313;font-size:9.8px;stroke:none;">caddice-clew-like MnO</text>
   <text y="278.362" x="153.978" svgx:width="0.5" style="fill:rgb(23,22,21);font-family:AdvTT86d47313;font-size:6.53px;stroke:none;">2</text>
   <text y="276.775" x="162.482,166.862,171.958,177.368,181.141,183.689,187.462,190.59799999999998,195.477,200.573,203.41500000000002,208.177,211.332,218.163,223.25900000000001,228.077,233.173,238.268,240.816,245.197,248.353,252.763,257.613,261.386,265.767,273.93,276.478,280.859,283.407,286.981" svgx:width="0.45,0.52,0.55,0.38,0.26,0.38,0.32,0.55,0.52,0.29,0.55,0.32,0.7,0.52,0.55,0.52,0.52,0.26,0.45,0.32,0.45,0.55,0.38,0.45,0.83,0.26,0.45,0.26,0.38,0.36" style="fill:rgb(23,22,21);font-family:AdvTT86d47313;font-size:9.8px;stroke:none;">consist of two oblate semicir-</text>
   <text y="288.737" x="56.693,61.074,63.621,68.002,71.726,74.722,77.27,82.66,85.607,90.908,93.456,98.15,103.452,107.019,110.175,115.371,118.938,127.101,131.482,136.686,139.234,144.535,152.66899999999998,155.68,158.532,162.207,166.587,171.791,177.093,181.473,186.975,191.355,195.765,198.653,202.328,206.709,211.403,213.951,219.047,224.437,227.396,231.777,237.187,242.381,245.312,249.692,255.082,258.067,260.615,266.025,270.405,272.953,275.501,280.911,285.291" svgx:width="0.45,0.26,0.45,0.38,0.55,0.26,0.55,0.55,0.54,0.26,0.48,0.54,0.36,0.32,0.52,0.36,0.83,0.45,0.53,0.26,0.54,0.83,0.55,0.29,0.38,0.45,0.53,0.54,0.45,0.55,0.45,0.45,0.55,0.38,0.45,0.48,0.26,0.52,0.55,0.55,0.45,0.55,0.53,0.55,0.45,0.55,0.55,0.26,0.55,0.45,0.26,0.26,0.55,0.45,0.53" style="fill:rgb(23,22,21);font-family:AdvTT86d47313;font-size:9.8px;stroke:none;">cles in high-to-medium frequency region and an inclined</text>
   <text y="300.755" x="56.693,59.241,61.789,67.198,71.60799999999999,75.968,78.516,83.906,88.271,90.819,95.915,102.746,106.313,109.165,112.933,117.313,122.517,127.819,132.199,137.609,141.989,146.399,150.803,154.478,158.859,163.553,166.101,171.197,176.606,178.762,183.175,190.006,195.308,197.856,200.404,204.814,209.197,212.353,217.654,222.064,226.375,229.531,236.361,241.457,245.878,249.651,254.032,262.195,264.743,269.123,271.671,275.346,279.838,282.386,286.766" svgx:width="0.26,0.26,0.55,0.45,0.55,0.26,0.55,0.55,0.26,0.52,0.7,0.36,0.29,0.38,0.45,0.53,0.54,0.45,0.55,0.45,0.45,0.55,0.38,0.45,0.48,0.26,0.52,0.55,0.22,0.55,0.7,0.54,0.26,0.26,0.45,0.55,0.32,0.54,0.45,0.55,0.32,0.7,0.52,0.55,0.38,0.45,0.83,0.26,0.45,0.26,0.38,0.45,0.26,0.45,0.38" style="fill:rgb(23,22,21);font-family:AdvTT86d47313;font-size:9.8px;stroke:none;">line in low-frequency region, while the two semicircles</text>
   <text y="312.774" x="56.693,61.789,64.631,68.655,73.956,77.631,82.012,87.314,89.862,95.271,98.929,101.477,104.025,108.924,113.334,117.297,126.382,131.792" svgx:width="0.52,0.29,0.55,0.54,0.38,0.45,0.54,0.26,0.55,0.36,0.26,0.26,0.5,0.45,0.55,0.93,0.55,0.78" style="fill:rgb(23,22,21);font-family:AdvTT86d47313;font-size:9.8px;stroke:none;">of urchin-like MnO</text>
   <text y="314.362" x="139.464" svgx:width="0.5" style="fill:rgb(23,22,21);font-family:AdvTT86d47313;font-size:6.53px;stroke:none;">2</text>
   <text y="312.775" x="147.118,151.499,155.174,159.584,163.559,168.969,174.065,177.201,181.247,185.628,190.148,193.921,196.469,199.017,203.427,207.439,212.643,215.191,218.964,222.12,224.668,230.077,234.771,240.073,242.621,246.501,251.803,256.183,261.279,263.827,268.208,270.36400000000003,274.394,280.8,286.102" svgx:width="0.45,0.38,0.45,0.55,0.55,0.52,0.32,0.55,0.45,0.45,0.38,0.26,0.26,0.45,0.55,0.53,0.26,0.38,0.32,0.26,0.55,0.48,0.54,0.26,0.38,0.54,0.45,0.52,0.26,0.45,0.22,0.55,0.67,0.54,0.45" style="fill:rgb(23,22,21);font-family:AdvTT86d47313;font-size:9.8px;stroke:none;">are not easily distinguishable. The</text>
   <text y="324.737" x="56.693,59.241,67.405,72.608,76.989,82.193,86.573,91.983,96.492,100.902,106.81,110.583,115.787,120.303,124.683,127.839,131.514,135.924,141.846,145.521,149.901,152.753,155.301,159.875,164.255,167.391,173.481,177.254,181.758,186.246,190.627,194.302,198.682,201.23,207.213,212.417,216.092,221.188,225.568,229.949,233.722,237.601,241.981,245.70499999999998,251.66,254.816,260.118,264.587,267.723,273.657,276.813,281.193,286.093" svgx:width="0.26,0.83,0.53,0.45,0.53,0.45,0.55,0.45,0.45,0.55,0.38,0.53,0.45,0.45,0.32,0.38,0.45,0.55,0.38,0.45,0.29,0.26,0.45,0.45,0.32,0.55,0.38,0.45,0.46,0.45,0.38,0.45,0.26,0.55,0.53,0.38,0.52,0.45,0.45,0.38,0.38,0.45,0.38,0.55,0.32,0.54,0.45,0.32,0.55,0.32,0.45,0.5,0.45" style="fill:rgb(23,22,21);font-family:AdvTT86d47313;font-size:9.8px;stroke:none;">impedance spectra reflect several processes that take</text>
   <text y="336.755" x="56.693,61.897,64.445,68.826,73.206,77.616,83.169,85.717,91.107,96.605,101.015,106.64,110.413,114.793,118.468,121.016,125.397,129.317,131.473,136.97,142.478,145.026,150.52,158.683,161.231,165.997,169.672,174.052,177.208,179.756,184.852,190.24200000000002,195.818,198.973,204.275,207.95,213.046,218.348,223.042,228.334,233.916,237.689,242.99,246.665,249.517,253.985,258.366,262.776,268.271,271.123,273.671,276.219,284.382,288.397" svgx:width="0.53,0.26,0.45,0.45,0.45,0.55,0.26,0.55,0.55,0.45,0.55,0.38,0.45,0.38,0.26,0.45,0.38,0.22,0.55,0.56,0.26,0.55,0.83,0.26,0.48,0.38,0.45,0.32,0.26,0.52,0.55,0.55,0.32,0.54,0.38,0.52,0.54,0.48,0.54,0.55,0.38,0.54,0.38,0.29,0.45,0.45,0.45,0.55,0.29,0.26,0.26,0.83,0.38,0.22" style="fill:rgb(23,22,21);font-family:AdvTT86d47313;font-size:9.8px;stroke:none;">place in a series: Li migration through surface films,</text>
   <text y="348.774" x="56.693,61.074,66.376,70.756,74.431,79.125,83.535,86.458,89.613,93.288,97.669,103.078,106.851,109.703,114.084,117.128,119.284,122.118,125.891,130.986,133.534,136.082,141.286,144.853,148.626,151.882,156.262,159.418,163.828,166.679,171.882,174.43,177.282,180.134,185.436,189.3,191.848,196.944,202.353,204.50900000000001,207.329,211.709,217.193,222.387,225.244,228.096,230.644,236.053,240.434,242.982,245.53,249.91,252.066,254.951,259.332,263.712,268.093,273.49,281.653,286.955" svgx:width="0.45,0.54,0.45,0.38,0.48,0.45,0.55,0.32,0.38,0.45,0.55,0.38,0.29,0.45,0.38,0.22,0.55,0.38,0.52,0.26,0.26,0.53,0.36,0.38,0.32,0.45,0.32,0.45,0.55,0.53,0.26,0.29,0.29,0.54,0.38,0.26,0.52,0.55,0.22,0.55,0.45,0.55,0.53,0.55,0.29,0.26,0.55,0.45,0.26,0.26,0.45,0.22,0.55,0.45,0.45,0.45,0.54,0.83,0.54,0.36" style="fill:rgb(23,22,21);font-family:AdvTT86d47313;font-size:9.8px;stroke:none;">charge transfer, solid-state diffusion, and finally, accumu-</text>
   <text y="360.736" x="56.693,59.241,63.622,66.778,69.326,74.421,79.811,83.566,88.662,91.504,95.244,100.752,103.3,106.98,109.528,114.918,118.601,121.757,127.059,131.469,135.155,140.251,145.553,148.101,153.001,156.755,161.851,164.693,168.377,171.533,176.834,181.244,184.931,189.312,193.692,196.848,199.396,203.98,208.39,212.031,220.194,224.73,228.503,232.276,234.43200000000002,238.11,245.048,250.438,254.155,256.703,262.112,265.268,269.648,273.323,277.704,282.084,287.288" svgx:width="0.26,0.45,0.32,0.26,0.52,0.55,0.55,0.52,0.29,0.55,0.56,0.26,0.55,0.26,0.55,0.55,0.32,0.54,0.45,0.55,0.52,0.54,0.26,0.5,0.55,0.52,0.29,0.55,0.32,0.54,0.45,0.55,0.45,0.45,0.32,0.26,0.46,0.45,0.55,0.83,0.45,0.38,0.38,0.22,0.55,0.71,0.55,0.55,0.26,0.55,0.32,0.45,0.38,0.45,0.45,0.53,0.32" style="fill:rgb(23,22,21);font-family:AdvTT86d47313;font-size:9.8px;stroke:none;">lation of Li in the bulk of the active mass. An intercept</text>
   <text y="372.754" x="56.693,61.074,64.21,67.635,70.791,76.092" svgx:width="0.45,0.32,0.55,0.32,0.54,0.45" style="fill:rgb(23,22,21);font-family:AdvTT86d47313;font-size:9.8px;stroke:none;">at the</text>
   <text y="372.754" x="83.849" svgx:width="0.63" style="fill:rgb(23,22,21);font-family:AdvTT8861b38f.I;font-size:9.8px;stroke:none;">Z</text>
   <text y="374.4" x="89.972,92.728,96.013,99.383" svgx:width="0.38,0.45,0.45,0.26" style="fill:rgb(23,22,21);font-family:AdvTT86d47313;font-size:6.53px;stroke:none;">real</text>
   <text y="372.756" x="104.655,109.134,113.926,116.474,120.19800000000001,123.647,126.195,131.58499999999998,134.986,140.288,142.836,147.53,152.831,156.399,159.25,162.925,167.306,172.51,177.811,182.325,187.735,192.115,196.525,199.9,203.575,207.956,212.65,215.198,220.294,225.68400000000003,229.097,233.478,238.574,242.249,245.924,250.304,254.077,259.371,264.467,269.876,275.08,278.804,282.275,285.431" svgx:width="0.45,0.49,0.26,0.38,0.55,0.26,0.55,0.55,0.54,0.26,0.48,0.54,0.36,0.29,0.38,0.45,0.53,0.54,0.45,0.55,0.45,0.45,0.55,0.38,0.45,0.48,0.26,0.52,0.55,0.55,0.45,0.52,0.38,0.38,0.45,0.38,0.53,0.52,0.55,0.53,0.38,0.55,0.32,0.52" style="fill:rgb(23,22,21);font-family:AdvTT86d47313;font-size:9.8px;stroke:none;">axis in high-frequency region corresponds to</text>
   <text y="384.775" x="56.693,59.849,65.151,69.56099999999999,72.795,77.891,83.192,91.447,93.995,98.405,101.595,105.975,108.523,113.047,117.427,120.583,124.258,129.354,131.902,136.405,139.56,143.97,147.177,150.852,155.232,159.005,161.553,165.326,168.482,172.972,178.382,182.762,187.172,190.377" svgx:width="0.32,0.54,0.45,0.55,0.52,0.54,0.83,0.26,0.45,0.55,0.45,0.26,0.45,0.45,0.32,0.38,0.52,0.26,0.45,0.32,0.45,0.55,0.38,0.45,0.38,0.26,0.38,0.32,0.45,0.55,0.45,0.45,0.55,0.32" style="fill:rgb(23,22,21);font-family:AdvTT86d47313;font-size:9.8px;stroke:none;">the ohmic electrolyte resistance (</text>
   <text y="384.775" x="193.55" svgx:width="0.59" style="fill:rgb(23,22,21);font-family:AdvTT8861b38f.I;font-size:9.8px;stroke:none;">R</text>
   <text y="386.362" x="199.446" svgx:width="0.38" style="fill:rgb(23,22,21);font-family:AdvTT86d47313;font-size:6.53px;stroke:none;">s</text>
   <text y="384.775" x="202.337,205.493,207.649,210.841,217.368,222.67,227.07999999999998,230.23,233.082,235.63,239.305,243.157,246.293,249.62,253.393,257.773,265.936,268.484,272.978,275.526,279.201,283.581,286.129" svgx:width="0.32,0.22,0.55,0.67,0.54,0.45,0.55,0.29,0.26,0.38,0.38,0.32,0.55,0.38,0.45,0.83,0.26,0.45,0.26,0.38,0.45,0.26,0.45" style="fill:rgb(23,22,21);font-family:AdvTT86d47313;font-size:9.8px;stroke:none;">). The first semicircle</text>
   <text y="396.737" x="56.694,59.242,64.632,69.28,72.435,77.737,82.14699999999999,86.855,92.157,94.705,99.399,104.691,109.362,112.214,115.889,120.27,125.473,130.775,135.156,140.657,145.038,149.448,154.094,158.573,162.346,166.726,170.401,173.029,178.125,182.506,186.23,190.945,194.1,199.196,203.871,207.026,212.328,216.738,221.389,226.896,229.444,233.012,235.56,240.656,246.046,250.756,258.92,261.468,266.233,269.908,274.289,277.444,279.992,285.088" svgx:width="0.26,0.55,0.55,0.32,0.54,0.45,0.55,0.54,0.26,0.48,0.54,0.55,0.29,0.38,0.45,0.53,0.54,0.45,0.55,0.45,0.45,0.55,0.45,0.38,0.45,0.38,0.26,0.52,0.45,0.38,0.55,0.32,0.52,0.55,0.32,0.54,0.45,0.55,0.56,0.26,0.36,0.26,0.52,0.55,0.55,0.83,0.26,0.48,0.38,0.45,0.32,0.26,0.52,0.55" style="fill:rgb(23,22,21);font-family:AdvTT86d47313;font-size:9.8px;stroke:none;">in the high frequency ascribes to the Li-ion migration</text>
   <text y="408.755" x="56.694,60.369,64.749,68.522,71.07,74.843,77.999,82.489,87.899,92.279,96.689,100.064" svgx:width="0.38,0.45,0.38,0.26,0.38,0.32,0.45,0.55,0.45,0.45,0.55,0.32" style="fill:rgb(23,22,21);font-family:AdvTT86d47313;font-size:9.8px;stroke:none;">resistance (</text>
   <text y="408.755" x="103.238" svgx:width="0.59" style="fill:rgb(23,22,21);font-family:AdvTT8861b38f.I;font-size:9.8px;stroke:none;">R</text>
   <text y="410.4" x="109.134,111.964" svgx:width="0.38,0.29" style="fill:rgb(23,22,21);font-family:AdvTT86d47313;font-size:6.53px;stroke:none;">sf</text>
   <text y="408.756" x="115.143,118.279,121.72,124.876,130.177,133.852,138.948,144.34,149.034,154.326,157.72,160.876,166.177,170.587,173.991,178.989,184.496,187.73000000000002,191.169,194.021,196.569,199.117,207.28,211.053,213.209,216.681,223.208,228.51,232.92,236.241,240.014,244.518,248.898,253.994,259.404,264.598,268.045,271.818,276.199,284.362,286.91" svgx:width="0.32,0.55,0.32,0.54,0.38,0.52,0.54,0.48,0.54,0.55,0.32,0.54,0.45,0.55,0.51,0.56,0.33,0.55,0.29,0.26,0.26,0.83,0.38,0.22,0.55,0.67,0.54,0.45,0.55,0.38,0.45,0.45,0.52,0.55,0.53,0.55,0.38,0.45,0.83,0.26,0.36" style="fill:rgb(23,22,21);font-family:AdvTT86d47313;font-size:9.8px;stroke:none;">) through the SEI films. The second semi-</text>
   <text y="420.775" x="56.693,61.073,63.621,67.296,71.677,74.225,78.63499999999999,82.999,85.547,90.937,95.357,98.513,103.815,108.225,112.536,117.837,120.385,125.079,130.381,133.948,137.197,142.293,145.86,154.023,158.404,163.608,166.156,171.457,179.591,184.083,186.934,190.609,194.99,200.194,205.495,209.876,215.378,219.758,224.168,228.473,233.009,236.782,241.162,244.837,247.385,252.481,256.862,260.586,265.041,268.196,273.29200000000003,277.683,280.839,286.141" svgx:width="0.45,0.26,0.38,0.45,0.26,0.45,0.55,0.26,0.55,0.55,0.32,0.54,0.45,0.55,0.54,0.26,0.48,0.54,0.36,0.32,0.52,0.36,0.83,0.45,0.53,0.26,0.54,0.83,0.55,0.29,0.38,0.45,0.53,0.54,0.45,0.55,0.45,0.45,0.55,0.45,0.38,0.45,0.38,0.26,0.52,0.45,0.38,0.55,0.32,0.52,0.55,0.32,0.54,0.45" style="fill:rgb(23,22,21);font-family:AdvTT86d47313;font-size:9.8px;stroke:none;">circle in the high-to-medium frequency ascribes to the</text>
   <text y="432.737" x="56.693,61.073,66.375,70.756,74.431,79.125,83.535,86.854,90.009,93.684,98.065,103.475,107.248,110.212,114.593,118.31700000000001,121.55,125.225,129.606,133.379,135.927,139.7,142.855,147.346,152.755,157.136,161.546,164.807" svgx:width="0.45,0.54,0.45,0.38,0.48,0.45,0.55,0.32,0.38,0.45,0.55,0.38,0.29,0.45,0.38,0.55,0.38,0.45,0.38,0.26,0.38,0.32,0.45,0.55,0.45,0.45,0.55,0.32" style="fill:rgb(23,22,21);font-family:AdvTT86d47313;font-size:9.8px;stroke:none;">charge transfer resistance (</text>
   <text y="432.737" x="167.98" svgx:width="0.59" style="fill:rgb(23,22,21);font-family:AdvTT8861b38f.I;font-size:9.8px;stroke:none;">R</text>
   <text y="434.381" x="173.82,177.106" svgx:width="0.45,0.32" style="fill:rgb(23,22,21);font-family:AdvTT86d47313;font-size:6.53px;stroke:none;">ct</text>
   <text y="432.737" x="179.49,182.645,184.80100000000002,188.107,194.633,199.935,204.345,207.553,210.101,215.51,219.891,222.52,225.068,230.478,234.858,240.052,243.383,245.931,248.479,253.889,258.29900000000004,261.582,265.962,269.098,272.466,275.014,280.11,286.941" svgx:width="0.32,0.22,0.55,0.67,0.54,0.45,0.55,0.26,0.55,0.45,0.26,0.26,0.55,0.45,0.53,0.55,0.26,0.26,0.55,0.45,0.55,0.45,0.32,0.55,0.26,0.52,0.7,0.36" style="fill:rgb(23,22,21);font-family:AdvTT86d47313;font-size:9.8px;stroke:none;">). The inclined line at low-</text>
   <text y="444.756" x="56.693,59.545,63.22,67.6,72.804,78.106,82.486,87.988,92.369,96.779,103.182,106.857,111.237,115.931,118.479,123.575,128.965,135.44,139.115,143.496,148.699,152.448,156.828,160.601,164.982,170.391,173.708,177.432,183.856,187.011,192.313,196.72299999999998,203.131,213.029,217.409,221.16,226.256,231.558,235.232,239.936,246.389,248.937,257.1,262.304,266.684,271.888,276.269,281.678,286.059" svgx:width="0.29,0.38,0.45,0.53,0.54,0.45,0.55,0.45,0.45,0.55,0.38,0.45,0.48,0.26,0.52,0.55,0.55,0.38,0.45,0.53,0.38,0.45,0.38,0.45,0.55,0.32,0.38,0.55,0.32,0.54,0.45,0.55,1.01,0.45,0.38,0.52,0.54,0.38,0.48,0.55,0.26,0.83,0.53,0.45,0.53,0.45,0.55,0.45,0.45" style="fill:rgb(23,22,21);font-family:AdvTT86d47313;font-size:9.8px;stroke:none;">frequency region represents the Warburg impedance</text>
   <text y="456.774" x="56.693" svgx:width="0.32" style="fill:rgb(23,22,21);font-family:AdvTT86d47313;font-size:9.8px;stroke:none;">(</text>
   <text y="456.774" x="59.868" svgx:width="0.95" style="fill:rgb(23,22,21);font-family:AdvTT8861b38f.I;font-size:9.8px;stroke:none;">W</text>
   <text y="458.362" x="69.165" svgx:width="0.38" style="fill:rgb(23,22,21);font-family:AdvTT86d47313;font-size:6.53px;stroke:none;">s</text>
   <text y="456.775" x="72.0,75.156,77.31200000000001,82.091,88.921,94.223,96.771,101.152,106.444,111.288,113.836,117.56,122.343,126.822,130.595,134.368,139.463,143.943,146.491,150.872,154.027,158.408,163.60199999999998,168.435,175.265,177.813,180.969,186.261,191.055,193.603,196.151,199.307,204.608,207.156,212.458,220.621,224.189,226.736,231.987,237.377,242.135,247.339,249.887,252.739,255.59,260.892,264.665,267.307,272.403,277.793,282.558,285.106" svgx:width="0.32,0.22,0.55,0.7,0.54,0.26,0.45,0.54,0.55,0.26,0.38,0.55,0.45,0.38,0.38,0.52,0.45,0.26,0.45,0.32,0.45,0.53,0.55,0.7,0.26,0.32,0.54,0.55,0.26,0.26,0.32,0.54,0.26,0.54,0.83,0.36,0.26,0.52,0.55,0.55,0.53,0.26,0.29,0.29,0.54,0.38,0.26,0.52,0.55,0.55,0.26,0.55" style="fill:rgb(23,22,21);font-family:AdvTT86d47313;font-size:9.8px;stroke:none;">), which is associated with lithium-ion diffusion in</text>
   <text y="468.737" x="56.693,59.849,65.152,69.562,72.512,76.893,81.275,84.431,86.98,91.565,95.975,98.878,107.042,111.424,114.581,118.962,122.638,125.187,129.669,132.217,135.167,138.342,143.243,148.144,150.282,155.183,160.083,163.24" svgx:width="0.32,0.54,0.45,0.55,0.45,0.45,0.32,0.26,0.46,0.45,0.55,0.83,0.45,0.32,0.45,0.38,0.26,0.45,0.26,0.55,0.32,0.5,0.5,0.22,0.5,0.5,0.32,0.22" style="fill:rgb(23,22,21);font-family:AdvTT86d47313;font-size:9.8px;stroke:none;">the active material [32,33].</text>
   <text y="96.776" x="312.717,319.244,324.545,328.95500000000004,332.9,338.104,342.484,346.159,350.54,358.809,363.189,366.345,370.725,374.4,378.12399999999997,382.223,387.319,390.161,394.241,396.789,404.953,410.229,414.609,419.813,424.194,429.603,433.984,438.394,442.487,446.26,451.464,455.98,460.36,463.516,467.191,471.601,475.652,482.483,486.863,490.538,494.94800000000004,499.009,502.782,505.33,513.493,518.795,521.343,525.724,528.879,533.26" svgx:width="0.67,0.54,0.45,0.55,0.53,0.45,0.38,0.45,0.83,0.45,0.32,0.45,0.38,0.38,0.55,0.52,0.29,0.55,0.26,0.83,0.53,0.45,0.53,0.45,0.55,0.45,0.45,0.55,0.38,0.53,0.45,0.45,0.32,0.38,0.45,0.55,0.7,0.45,0.38,0.45,0.55,0.38,0.26,0.83,0.54,0.26,0.45,0.32,0.45,0.53" style="fill:rgb(23,22,21);font-family:AdvTT86d47313;font-size:9.8px;stroke:none;">The parameters of impedance spectra were simulated</text>
   <text y="108.737" x="304.723,309.819,314.22900000000004,317.989,324.339,329.337,331.885,340.048,345.252,355.237,357.785,363.175,366.972,370.745,375.841,378.693,381.848,388.679,393.059,396.734,401.115,403.271,407.111,411.491,416.901,422.095,425.876,429.032,434.334,438.744,442.544,446.317,451.521,456.038,460.418,463.574,467.249,471.65900000000005,475.427,480.728,485.109,490.303,494.136,499.232,503.612,507.993,513.383,517.209,520.061,522.609,525.765,528.92,533.301" svgx:width="0.52,0.45,0.55,0.63,0.51,0.26,0.83,0.53,1.01,0.26,0.55,0.55,0.38,0.52,0.29,0.32,0.7,0.45,0.38,0.45,0.22,0.55,0.45,0.55,0.53,0.55,0.32,0.54,0.45,0.55,0.38,0.53,0.45,0.45,0.32,0.38,0.45,0.55,0.54,0.45,0.53,0.55,0.52,0.45,0.45,0.55,0.55,0.29,0.26,0.32,0.32,0.45,0.53" style="fill:rgb(23,22,21);font-family:AdvTT86d47313;font-size:9.8px;stroke:none;">by ZSimpWin software, and the spectra had been fitted</text>
   <text y="120.756" x="304.723,311.554,314.102,317.257,322.549,325.7,330.08,335.46999999999997,338.569,342.95,348.153,353.455,356.003,360.491,364.872,367.42,371.801,377.21,380.346,383.527,387.908,390.456,394.131,398.511,403.813,406.361,409.497,412.781,416.554,421.855,426.951,433.782,439.17199999999997,442.318,444.866,450.256,453.316,456.472,461.773,466.18300000000005,469.304,471.852,477.261,481.034,485.415,488.55100000000004,491.641,496.737,499.579,502.696,507.792,510.34,515.034,520.336,524.011,528.4209999999999,531.496,536.396" svgx:width="0.7,0.26,0.32,0.54,0.55,0.45,0.55,0.55,0.45,0.53,0.54,0.26,0.46,0.45,0.26,0.45,0.55,0.32,0.55,0.45,0.26,0.38,0.45,0.54,0.26,0.32,0.55,0.38,0.54,0.52,0.7,0.55,0.55,0.26,0.55,0.55,0.32,0.54,0.45,0.55,0.26,0.55,0.38,0.45,0.32,0.55,0.52,0.29,0.55,0.52,0.26,0.48,0.54,0.38,0.45,0.55,0.5,0.22" style="fill:rgb(23,22,21);font-family:AdvTT86d47313;font-size:9.8px;stroke:none;">with an equivalent circuit shown in the inset of Figure 6.</text>
   <text y="132.775" x="304.723,307.987,313.377,317.649,320.805,326.107,330.51700000000005,334.827,339.208,344.412,349.714,352.261,356.75,361.13,363.678,368.059,373.468,376.60400000000004,380.976,385.357,387.905,391.58,395.96,401.262,403.81,406.946,411.307,416.403,419.245,423.553,429.06,432.324,437.442,439.598,443.848,448.229,453.433,457.813,461.488,464.624,468.964,471.815,475.49,480.586,488.72,493.059,496.214,501.516" svgx:width="0.33,0.55,0.55,0.32,0.54,0.45,0.55,0.45,0.53,0.54,0.26,0.46,0.45,0.26,0.45,0.55,0.32,0.55,0.45,0.26,0.38,0.45,0.54,0.26,0.32,0.55,0.52,0.29,0.55,0.56,0.33,0.51,0.22,0.55,0.45,0.53,0.45,0.38,0.32,0.55,0.29,0.38,0.52,0.83,0.55,0.32,0.54,0.45" style="fill:rgb(23,22,21);font-family:AdvTT86d47313;font-size:9.8px;stroke:none;">In the equivalent circuit of EIS, apart from the</text>
   <text y="132.775" x="510.177" svgx:width="0.59" style="fill:rgb(23,22,21);font-family:AdvTT8861b38f.I;font-size:9.8px;stroke:none;">R</text>
   <text y="134.363" x="516.076" svgx:width="0.38" style="fill:rgb(23,22,21);font-family:AdvTT86d47313;font-size:6.53px;stroke:none;">s</text>
   <text y="132.775" x="519.137" svgx:width="0.22" style="fill:rgb(23,22,21);font-family:AdvTT86d47313;font-size:9.8px;stroke:none;">,</text>
   <text y="132.775" x="525.543" svgx:width="0.59" style="fill:rgb(23,22,21);font-family:AdvTT8861b38f.I;font-size:9.8px;stroke:none;">R</text>
   <text y="134.363" x="531.439,534.269" svgx:width="0.38,0.29" style="fill:rgb(23,22,21);font-family:AdvTT86d47313;font-size:6.53px;stroke:none;">sf</text>
   <text y="132.775" x="536.428" svgx:width="0.22" style="fill:rgb(23,22,21);font-family:AdvTT86d47313;font-size:9.8px;stroke:none;">,</text>
   <text y="144.737" x="304.725" svgx:width="0.59" style="fill:rgb(23,22,21);font-family:AdvTT8861b38f.I;font-size:9.8px;stroke:none;">R</text>
   <text y="146.381" x="310.564,313.849" svgx:width="0.45,0.32" style="fill:rgb(23,22,21);font-family:AdvTT86d47313;font-size:6.53px;stroke:none;">ct</text>
   <text y="144.737" x="316.346,318.502,322.526,326.907,332.316" svgx:width="0.22,0.55,0.45,0.55,0.53" style="fill:rgb(23,22,21);font-family:AdvTT86d47313;font-size:9.8px;stroke:none;">, and</text>
   <text y="144.737" x="341.574" svgx:width="0.95" style="fill:rgb(23,22,21);font-family:AdvTT8861b38f.I;font-size:9.8px;stroke:none;">W</text>
   <text y="146.381" x="350.872" svgx:width="0.38" style="fill:rgb(23,22,21);font-family:AdvTT86d47313;font-size:6.53px;stroke:none;">s</text>
   <text y="144.737" x="353.934,356.09000000000003,360.114,363.269,368.571,372.98100000000005,377.178,381.559,386.655,390.33,394.005,398.385,402.158,407.452,412.548,417.957,423.161,425.709,431.119,435.82300000000004,439.881,444.261,449.357,454.848,458.621,461.777,466.157,471.567,474.70300000000003,478.83,484.033,489.335,493.853,497.626,502.036,506.042,510.422,512.97,517.351,525.601,529.981,535.391" svgx:width="0.22,0.55,0.32,0.54,0.45,0.55,0.45,0.52,0.38,0.38,0.45,0.38,0.53,0.52,0.55,0.53,0.26,0.55,0.48,0.55,0.45,0.52,0.55,0.38,0.32,0.45,0.55,0.32,0.55,0.53,0.54,0.45,0.38,0.45,0.55,0.45,0.26,0.45,0.83,0.45,0.55,0.32" style="fill:rgb(23,22,21);font-family:AdvTT86d47313;font-size:9.8px;stroke:none;">, the corresponding constant phase element</text>
   <text y="156.756" x="304.725,307.88,314.515,320.022,325.53,328.666,333.865,336.413,340.137,345.317,350.618,354.391,358.772,363.966,369.128,371.676,377.085,380.858,384.014,388.394,392.775,397.969,403.144,408.24,411.082,416.24,421.443,426.745,430.42,434.83000000000004,440.05,444.431,448.811,454.015,458.396,462.776,465.324,468.48,472.989,478.398,482.779,487.189,492.264,497.468,502.77,507.18,512.333,515.489,520.585,525.713,528.869,534.171" svgx:width="0.32,0.68,0.56,0.56,0.32,0.55,0.26,0.38,0.55,0.54,0.38,0.45,0.53,0.55,0.26,0.55,0.38,0.32,0.45,0.45,0.53,0.55,0.52,0.29,0.55,0.53,0.54,0.38,0.45,0.55,0.45,0.45,0.53,0.45,0.45,0.26,0.32,0.45,0.55,0.45,0.45,0.55,0.53,0.54,0.45,0.55,0.32,0.52,0.55,0.32,0.54,0.45" style="fill:rgb(23,22,21);font-family:AdvTT86d47313;font-size:9.8px;stroke:none;">(CPE) is used instead of pure capacitance due to the</text>
   <text y="168.775" x="304.725,310.134,315.23,320.64,324.284,326.832,332.036,336.416,340.797,343.345,347.075,352.484,356.865,360.021,365.322,368.997,373.40700000000004,377.179,382.275,385.11699999999996,388.801,391.956,397.258,401.668,405.412,409.792,412.34,416.864,421.244,424.4,428.075,433.171,438.375,442.755,444.911,448.668,455.195,460.497,464.90700000000004,468.624,473.112,477.493,480.041,485.343,489.723,493.447,497.254,502.35" svgx:width="0.55,0.52,0.55,0.36,0.26,0.53,0.45,0.45,0.26,0.55,0.55,0.45,0.32,0.54,0.38,0.45,0.55,0.52,0.29,0.55,0.32,0.54,0.45,0.55,0.45,0.26,0.45,0.45,0.32,0.38,0.52,0.53,0.45,0.22,0.55,0.67,0.54,0.45,0.55,0.46,0.45,0.26,0.54,0.45,0.38,0.55,0.52,0.29" style="fill:rgb(23,22,21);font-family:AdvTT86d47313;font-size:9.8px;stroke:none;">non-ideal nature of the electrode. The values of</text>
   <text y="168.775" x="508.932" svgx:width="0.59" style="fill:rgb(23,22,21);font-family:AdvTT8861b38f.I;font-size:9.8px;stroke:none;">R</text>
   <text y="170.363" x="514.828,517.658" svgx:width="0.38,0.29" style="fill:rgb(23,22,21);font-family:AdvTT86d47313;font-size:6.53px;stroke:none;">sf</text>
   <text y="168.775" x="523.559,527.939,533.349" svgx:width="0.45,0.55,0.53" style="fill:rgb(23,22,21);font-family:AdvTT86d47313;font-size:9.8px;stroke:none;">and</text>
   <text y="180.737" x="304.725" svgx:width="0.59" style="fill:rgb(23,22,21);font-family:AdvTT8861b38f.I;font-size:9.8px;stroke:none;">R</text>
   <text y="182.381" x="310.564,313.849" svgx:width="0.45,0.32" style="fill:rgb(23,22,21);font-family:AdvTT86d47313;font-size:6.53px;stroke:none;">ct</text>
   <text y="180.737" x="320.031,324.412,328.793,331.34,335.721,341.023,343.571,347.951,351.107,355.487,360.68100000000004,364.593,367.444,371.119,376.215,384.349,388.177,391.333,396.634,401.04400000000004,404.845,410.048,412.596,416.977,425.14,429.62,432.775,437.156,440.831,444.555,448.386,453.482,456.324,460.178,463.333,468.635,473.045,476.846,482.147,484.695,489.389,494.681,498.502,501.354,505.029,509.41,514.613,519.915,524.296,529.797,534.178" svgx:width="0.45,0.45,0.26,0.45,0.54,0.26,0.45,0.32,0.45,0.53,0.55,0.29,0.38,0.52,0.83,0.55,0.32,0.54,0.45,0.55,0.53,0.26,0.45,0.83,0.45,0.32,0.45,0.38,0.38,0.55,0.52,0.29,0.55,0.32,0.54,0.45,0.55,0.54,0.26,0.48,0.54,0.55,0.29,0.38,0.45,0.53,0.54,0.45,0.55,0.45,0.45" style="fill:rgb(23,22,21);font-family:AdvTT86d47313;font-size:9.8px;stroke:none;">calculated from the diameters of the high frequency</text>
   <text y="192.756" x="304.724,309.105,314.514,319.708,325.304,328.459,333.761,338.17100000000005,343.673,348.974,351.522,356.217,361.518,365.086,368.334,373.43,376.997,385.161,389.541,394.745,397.293,402.595,410.72900000000004,416.41,419.261,422.936,427.317,432.521,437.822,442.203,447.612,451.993,456.403,461.991,465.764,470.144,478.308,480.856,485.236,487.784,491.459,495.951,498.498,502.879,506.603,512.221,514.769,520.159,525.714,528.869,534.171" svgx:width="0.45,0.55,0.53,0.55,0.32,0.54,0.45,0.55,0.54,0.26,0.48,0.54,0.36,0.32,0.52,0.36,0.83,0.45,0.53,0.26,0.54,0.83,0.55,0.29,0.38,0.45,0.53,0.54,0.45,0.55,0.45,0.45,0.55,0.38,0.45,0.83,0.26,0.45,0.26,0.38,0.45,0.26,0.45,0.38,0.55,0.26,0.55,0.55,0.32,0.54,0.45" style="fill:rgb(23,22,21);font-family:AdvTT86d47313;font-size:9.8px;stroke:none;">and the high-to-medium frequency semicircles in the</text>
   <text y="204.775" x="304.724,312.172,316.552,321.756,327.058,329.606,333.467,336.603,343.161,348.365,350.913,356.009,359.319,363.043,369.638,372.489,377.585,381.30899999999997,387.836,390.992,396.293,400.70300000000003,407.282,411.662,414.21,418.734,423.115,426.27,429.945,435.041,440.334,444.715,448.43899999999996,455.017,459.398,463.073,467.483,474.066,477.839,483.141,491.304,499.468,503.848,507.523,510.071,514.354,518.854,524.048,530.589,533.137" svgx:width="0.76,0.45,0.53,0.54,0.26,0.38,0.32,0.55,0.53,0.26,0.52,0.32,0.38,0.55,0.29,0.52,0.38,0.55,0.32,0.54,0.45,0.55,0.45,0.26,0.45,0.45,0.32,0.38,0.52,0.53,0.45,0.38,0.55,0.45,0.38,0.45,0.55,0.38,0.54,0.83,0.83,0.45,0.38,0.26,0.44,0.45,0.53,0.55,0.26,0.55" style="fill:rgb(23,22,21);font-family:AdvTT86d47313;font-size:9.8px;stroke:none;">Nyquist plots for the electrodes are summarized in</text>
   <text y="216.736" x="304.724,310.336,314.717,319.813,322.361,326.771,330.292,335.192,337.348,340.837,347.363,352.665,357.07500000000005,360.623,365.111,369.492,372.039,377.341,381.75100000000003,385.227,390.323" svgx:width="0.67,0.45,0.52,0.26,0.45,0.55,0.5,0.22,0.55,0.67,0.54,0.45,0.55,0.46,0.45,0.26,0.54,0.45,0.55,0.52,0.29" style="fill:rgb(23,22,21);font-family:AdvTT86d47313;font-size:9.8px;stroke:none;">Table 1. The value of</text>
   <text y="216.736" x="396.736" svgx:width="0.59" style="fill:rgb(23,22,21);font-family:AdvTT8861b38f.I;font-size:9.8px;stroke:none;">R</text>
   <text y="218.381" x="402.633" svgx:width="0.38" style="fill:rgb(23,22,21);font-family:AdvTT86d47313;font-size:6.53px;stroke:none;">s</text>
   <text y="216.737" x="408.926,411.778,416.874,420.598,424.12,429.421,433.096,437.477,442.779,445.327,450.736,454.394,456.941,459.489,464.389,468.79900000000004,472.252,481.336,486.822" svgx:width="0.29,0.52,0.38,0.55,0.54,0.38,0.45,0.54,0.26,0.55,0.36,0.26,0.26,0.5,0.45,0.55,0.93,0.55,0.78" style="fill:rgb(23,22,21);font-family:AdvTT86d47313;font-size:9.8px;stroke:none;">for urchin-like MnO</text>
   <text y="218.381" x="494.475" svgx:width="0.5" style="fill:rgb(23,22,21);font-family:AdvTT86d47313;font-size:6.53px;stroke:none;">2</text>
   <text y="216.737" x="501.619,504.167,507.89099999999996,511.483,516.383,518.52,523.42,528.321,536.428" svgx:width="0.26,0.38,0.55,0.5,0.22,0.5,0.5,0.82,0.22" style="fill:rgb(23,22,21);font-family:AdvTT86d47313;font-size:9.8px;stroke:none;">is 7.12Ω,</text>
   <text y="228.756" x="304.725,311.556,316.857,319.405,321.953,326.363,332.278,335.433,340.735,345.14500000000004,351.156,355.644,360.025,362.573,367.875,372.285,378.199,383.295" svgx:width="0.7,0.54,0.26,0.26,0.45,0.55,0.32,0.54,0.45,0.55,0.46,0.45,0.26,0.54,0.45,0.55,0.52,0.29" style="fill:rgb(23,22,21);font-family:AdvTT86d47313;font-size:9.8px;stroke:none;">while the value of</text>
   <text y="228.756" x="392.088" svgx:width="0.59" style="fill:rgb(23,22,21);font-family:AdvTT8861b38f.I;font-size:9.8px;stroke:none;">R</text>
   <text y="230.4" x="397.984" svgx:width="0.38" style="fill:rgb(23,22,21);font-family:AdvTT86d47313;font-size:6.53px;stroke:none;">s</text>
   <text y="228.756" x="406.715,409.567,414.663,418.387,424.233,428.614,432.994,438.198,443.402,445.95,450.425,454.806,458.373,462.754,465.302,469.682,476.617,480.185,482.733,485.281,490.181,494.591,500.485,509.57,514.979" svgx:width="0.29,0.52,0.38,0.55,0.45,0.45,0.53,0.53,0.26,0.45,0.45,0.36,0.45,0.26,0.45,0.7,0.36,0.26,0.26,0.5,0.45,0.55,0.93,0.55,0.78" style="fill:rgb(23,22,21);font-family:AdvTT86d47313;font-size:9.8px;stroke:none;">for caddice-clew-like MnO</text>
   <text y="230.4" x="522.652" svgx:width="0.5" style="fill:rgb(23,22,21);font-family:AdvTT86d47313;font-size:6.53px;stroke:none;">2</text>
   <text y="228.756" x="532.233,534.781" svgx:width="0.26,0.38" style="fill:rgb(23,22,21);font-family:AdvTT86d47313;font-size:9.8px;stroke:none;">is</text>
   <text y="240.775" x="304.725,309.625,311.762,316.662,321.619,329.67,331.826,335.907,342.313,347.615,351.995,357.091,360.851,365.232,368.387,370.935,375.316,379.697,382.245,384.793,389.173,391.329,395.434,398.59,403.892,408.302,412.499,416.987,421.368,423.916,429.217,433.627,437.728,442.824" svgx:width="0.5,0.22,0.5,0.5,0.82,0.22,0.55,0.67,0.54,0.45,0.52,0.38,0.45,0.32,0.26,0.45,0.45,0.26,0.26,0.45,0.22,0.55,0.32,0.54,0.45,0.55,0.46,0.45,0.26,0.54,0.45,0.55,0.52,0.29" style="fill:rgb(23,22,21);font-family:AdvTT86d47313;font-size:9.8px;stroke:none;">8.05Ω. Theoretically, the value of</text>
   <text y="240.775" x="449.745" svgx:width="0.59" style="fill:rgb(23,22,21);font-family:AdvTT8861b38f.I;font-size:9.8px;stroke:none;">R</text>
   <text y="242.362" x="455.641" svgx:width="0.38" style="fill:rgb(23,22,21);font-family:AdvTT86d47313;font-size:6.53px;stroke:none;">s</text>
   <text y="240.775" x="462.557,465.409,470.505,474.229,478.262,483.358,488.454,491.609,496.90099999999995,501.052,506.56,509.108,512.675,521.76,527.245" svgx:width="0.29,0.52,0.38,0.55,0.52,0.52,0.32,0.54,0.55,0.56,0.26,0.36,0.93,0.55,0.78" style="fill:rgb(23,22,21);font-family:AdvTT86d47313;font-size:9.8px;stroke:none;">for both Li/MnO</text>
   <text y="242.362" x="534.898" svgx:width="0.5" style="fill:rgb(23,22,21);font-family:AdvTT86d47313;font-size:6.53px;stroke:none;">2</text>
   <text y="252.737" x="304.724,309.105,313.485,316.033,318.581,322.305,325.53,329.303,334.605,339.701,345.003,347.551,352.745,355.918,361.014,365.42400000000004,368.561,371.716,377.018,381.428,384.548,388.321,392.702,400.865,405.27500000000003,408.416,412.895,416.61899999999997,419.811,422.663,427.759,431.483,434.551,437.707,443.009,447.41900000000004,450.539,454.312,458.692,466.856,471.266,474.407,478.787,481.335,485.859,490.239,493.395,497.07,502.166,504.714,509.094,512.25,516.66,519.875,525.177,528.95,533.33" svgx:width="0.45,0.45,0.26,0.26,0.38,0.55,0.38,0.54,0.52,0.54,0.26,0.53,0.55,0.52,0.45,0.55,0.32,0.54,0.45,0.55,0.38,0.45,0.83,0.45,0.55,0.45,0.38,0.55,0.29,0.52,0.38,0.55,0.32,0.54,0.45,0.55,0.38,0.45,0.83,0.45,0.55,0.45,0.26,0.45,0.45,0.32,0.38,0.52,0.26,0.45,0.32,0.45,0.55,0.54,0.38,0.45,0.53" style="fill:rgb(23,22,21);font-family:AdvTT86d47313;font-size:9.8px;stroke:none;">cells should be the same as for the same electrolyte used</text>
   <text y="264.756" x="304.724,310.026,314.407,318.082,322.462,324.618,329.499,336.026,341.328,345.738,350.476,354.249,356.797,359.345,364.039,369.341,372.47700000000003,377.405,382.609,385.157,388.009,390.861,395.241,398.916,403.297,408.706,413.087,417.497,422.42,430.583,434.964,439.374,444.191,449.287,453.697,458.647,463.028,467.409,472.71,476.483,480.864,486.058,490.963,496.059,500.46900000000005,505.306,508.461,513.763,518.173,523.05,526.206,528.754,534.164" svgx:width="0.54,0.45,0.38,0.45,0.22,0.55,0.67,0.54,0.45,0.55,0.38,0.26,0.26,0.48,0.54,0.32,0.55,0.53,0.26,0.29,0.29,0.45,0.38,0.45,0.55,0.45,0.45,0.55,0.83,0.45,0.45,0.55,0.52,0.45,0.55,0.45,0.45,0.54,0.38,0.45,0.53,0.55,0.52,0.45,0.55,0.32,0.54,0.45,0.55,0.32,0.26,0.55,0.45" style="fill:rgb(23,22,21);font-family:AdvTT86d47313;font-size:9.8px;stroke:none;">here. The slight difference may be caused by the tiny</text>
   <text y="276.775" x="304.724,309.928,312.476,315.328,318.18,322.56,326.324,330.705,336.114,340.495,344.90500000000003,350.362,352.91,358.3,363.742,366.898,372.2,376.61,382.054,387.15,391.531,394.686,397.842,402.223,405.897,410.307,415.843,421.047,425.428,429.808,434.708,439.089,443.783,448.19300000000004,453.658,458.862,462.537,466.918,470.78,474.553,479.854,483.529,487.939,493.344,498.44,502.85,508.311,516.475,520.855,526.265,531.566,536.034" svgx:width="0.53,0.26,0.29,0.29,0.45,0.38,0.45,0.55,0.45,0.45,0.55,0.26,0.55,0.55,0.32,0.54,0.45,0.55,0.52,0.45,0.32,0.32,0.45,0.38,0.45,0.55,0.53,0.45,0.45,0.5,0.45,0.48,0.45,0.55,0.53,0.38,0.45,0.38,0.38,0.54,0.38,0.45,0.55,0.52,0.45,0.55,0.83,0.45,0.55,0.54,0.45,0.26" style="fill:rgb(23,22,21);font-family:AdvTT86d47313;font-size:9.8px;stroke:none;">difference in the battery package pressure by manual</text>
   <text y="288.736" x="304.724,309.82,315.024,319.405,323.079,327.46,330.616,333.164,338.26,343.65,347.981,353.077,356.801,360.964,364.12,369.421,373.831,378.029,381.184,383.732,389.142,393.552,397.758,402.961,405.509,408.361,411.213,415.594,419.268,423.649,429.059,433.439,437.84900000000005,442.091,444.639,450.029,454.281,457.436,462.738,467.148,471.345,475.726,483.889,488.985,494.287,499.696,502.83200000000005,507.119,512.215,515.057,519.251,523.632,526.18,530.703,535.084" svgx:width="0.52,0.53,0.45,0.38,0.45,0.32,0.26,0.52,0.55,0.55,0.52,0.38,0.55,0.32,0.54,0.45,0.55,0.32,0.26,0.55,0.45,0.55,0.53,0.26,0.29,0.29,0.45,0.38,0.45,0.55,0.45,0.45,0.55,0.26,0.55,0.55,0.32,0.54,0.45,0.55,0.45,0.83,0.52,0.54,0.55,0.32,0.55,0.52,0.29,0.55,0.45,0.26,0.45,0.45,0.36" style="fill:rgb(23,22,21);font-family:AdvTT86d47313;font-size:9.8px;stroke:none;">operation or the tiny difference in the amount of elec-</text>
   <text y="300.755" x="304.724,307.88,311.555,316.651,319.199,323.579,326.835,331.245,334.375,338.755,343.959,349.163,353.65,358.844,362.041,365.197,370.293,373.493,376.649,381.95,386.36,389.594,395.102,397.65,401.217,410.302,415.787" svgx:width="0.32,0.38,0.52,0.26,0.45,0.32,0.45,0.55,0.45,0.53,0.53,0.45,0.53,0.55,0.32,0.52,0.55,0.32,0.54,0.45,0.55,0.56,0.26,0.36,0.93,0.55,0.78" style="fill:rgb(23,22,21);font-family:AdvTT86d47313;font-size:9.8px;stroke:none;">trolyte added to the Li/MnO</text>
   <text y="302.4" x="423.439" svgx:width="0.5" style="fill:rgb(23,22,21);font-family:AdvTT86d47313;font-size:6.53px;stroke:none;">2</text>
   <text y="300.756" x="430.299,434.68,439.06,441.608,444.245,447.969,451.219,456.315,460.725,463.919,472.082,476.462,481.872,487.174,491.554,494.102,497.368,502.464,507.667,512.048,515.723,520.103,523.259,525.807,530.903,536.429" svgx:width="0.45,0.45,0.26,0.26,0.38,0.55,0.52,0.45,0.55,0.83,0.45,0.55,0.54,0.45,0.26,0.55,0.52,0.53,0.45,0.38,0.45,0.32,0.26,0.52,0.55,0.22" style="fill:rgb(23,22,21);font-family:AdvTT86d47313;font-size:9.8px;stroke:none;">cells by manual operation.</text>
   <text y="312.775" x="304.725,311.565,316.865,322.48,326.457,329.21,334.619,339.204,343.084,345.837,351.451,356.15500000000003,360.919,364.32,369.827,374.237,379.011,382.372,385.125,390.739,395.149,399.923,405.332,408.085,411.141,414.198,418.783,422.663,427.248,432.863,437.448,441.858,446.633,449.411,454.801,459.616,468.006,472.592,478.206,483.712,488.298,490.846,495.668,500.941,506.349,510.935,514.814,519.4,522.76,525.513,530.814,536.428" svgx:width="0.68,0.52,0.55,0.38,0.26,0.53,0.45,0.38,0.26,0.55,0.48,0.55,0.32,0.54,0.45,0.55,0.32,0.26,0.55,0.45,0.55,0.53,0.26,0.29,0.29,0.45,0.38,0.45,0.55,0.45,0.45,0.55,0.26,0.55,0.55,0.83,0.45,0.55,0.54,0.45,0.26,0.55,0.52,0.53,0.45,0.38,0.45,0.32,0.26,0.52,0.55,0.22" style="fill:rgb(23,22,21);font-family:AdvTT86d47313;font-size:9.8px;stroke:none;">Considering the tiny difference in manual operation,</text>
   <text y="324.737" x="304.725,308.089,313.6,318.01000000000005,321.083,325.052,333.424,338.013,340.77,343.318,346.439,351.852,354.609,357.669,360.674,365.263,369.147,373.736,379.354,383.89,388.3,391.373,396.678" svgx:width="0.32,0.54,0.45,0.55,0.38,0.83,0.45,0.26,0.26,0.55,0.53,0.26,0.29,0.29,0.45,0.38,0.45,0.55,0.45,0.45,0.55,0.52,0.29" style="fill:rgb(23,22,21);font-family:AdvTT86d47313;font-size:9.8px;stroke:none;">the small difference of</text>
   <text y="324.737" x="402.633" svgx:width="0.59" style="fill:rgb(23,22,21);font-family:AdvTT8861b38f.I;font-size:9.8px;stroke:none;">R</text>
   <text y="326.381" x="408.699" svgx:width="0.38" style="fill:rgb(23,22,21);font-family:AdvTT86d47313;font-size:6.53px;stroke:none;">s</text>
   <text y="324.737" x="414.652,417.399,421.123,424.316,428.851,433.43,438.01,442.589,447.992,451.347,455.926,461.221,463.968,468.37800000000004,471.451,475.42,478.167,483.776,488.355,492.76500000000004,495.838,499.193,504.693,509.103,512.177,517.506,523.006,531.369,534.116" svgx:width="0.26,0.38,0.55,0.45,0.45,0.45,0.45,0.53,0.32,0.45,0.52,0.26,0.45,0.55,0.38,0.26,0.55,0.45,0.45,0.55,0.32,0.54,0.45,0.55,0.52,0.54,0.83,0.26,0.45" style="fill:rgb(23,22,21);font-family:AdvTT86d47313;font-size:9.8px;stroke:none;">is acceptable since the ohmic</text>
   <text y="336.756" x="304.724,309.307,312.057,316.763,321.355,324.712,328.589,333.887,336.637,341.172,344.574,348.98400000000004,352.227,356.083,360.665,364.64,367.39,371.365,374.722,379.305,384.916,389.498,394.081,397.805,401.167,406.465,409.30699999999996,412.645,416.002,421.506,425.916,429.16,438.457,444.068" svgx:width="0.45,0.26,0.45,0.45,0.32,0.38,0.52,0.26,0.45,0.32,0.45,0.55,0.38,0.45,0.38,0.26,0.38,0.32,0.45,0.55,0.45,0.45,0.38,0.55,0.52,0.29,0.55,0.32,0.54,0.45,0.55,0.93,0.55,0.78" style="fill:rgb(23,22,21);font-family:AdvTT86d47313;font-size:9.8px;stroke:none;">electrolyte resistances of the MnO</text>
   <text y="338.4" x="451.956" svgx:width="0.5" style="fill:rgb(23,22,21);font-family:AdvTT86d47313;font-size:6.53px;stroke:none;">2</text>
   <text y="336.756" x="458.929,467.299,470.054,474.641,478.523,483.826,492.196,496.783,500.145,504.681,508.593,511.348,515.935,518.69,522.4140000000001,525.719,530.307,534.188" svgx:width="0.83,0.26,0.45,0.38,0.52,0.83,0.45,0.32,0.45,0.38,0.26,0.45,0.26,0.38,0.55,0.45,0.38,0.45" style="fill:rgb(23,22,21);font-family:AdvTT86d47313;font-size:9.8px;stroke:none;">micromaterials are</text>
   <text y="348.775" x="304.725,308.695,311.44,319.8,322.545,325.29,329.867,333.739,335.895,340.373,347.006,352.505" svgx:width="0.38,0.26,0.83,0.26,0.26,0.45,0.38,0.22,0.55,0.67,0.54,0.45" style="fill:rgb(23,22,21);font-family:AdvTT86d47313;font-size:9.8px;stroke:none;">similar. The</text>
   <text y="348.775" x="361.417" svgx:width="0.59" style="fill:rgb(23,22,21);font-family:AdvTT8861b38f.I;font-size:9.8px;stroke:none;">R</text>
   <text y="350.362" x="367.483,370.488" svgx:width="0.38,0.29" style="fill:rgb(23,22,21);font-family:AdvTT86d47313;font-size:6.53px;stroke:none;">sf</text>
   <text y="348.775" x="377.121,381.71,387.327" svgx:width="0.45,0.55,0.53" style="fill:rgb(23,22,21);font-family:AdvTT86d47313;font-size:9.8px;stroke:none;">and</text>
   <text y="348.775" x="397.02" svgx:width="0.59" style="fill:rgb(23,22,21);font-family:AdvTT8861b38f.I;font-size:9.8px;stroke:none;">R</text>
   <text y="350.362" x="403.03,406.545" svgx:width="0.45,0.32" style="fill:rgb(23,22,21);font-family:AdvTT86d47313;font-size:6.53px;stroke:none;">ct</text>
   <text y="348.775" x="413.348,418.651,421.493,425.964,429.327,434.835,439.245,443.68,449.178,453.06,457.647,463.203,465.924,471.541,475.315,478.069,480.824,485.931,490.341,494.831,504.129,509.746" svgx:width="0.52,0.29,0.55,0.32,0.54,0.45,0.55,0.54,0.38,0.45,0.54,0.26,0.55,0.36,0.26,0.26,0.5,0.45,0.55,0.93,0.55,0.78" style="fill:rgb(23,22,21);font-family:AdvTT86d47313;font-size:9.8px;stroke:none;">of the urchin-like MnO</text>
   <text y="350.362" x="517.549" svgx:width="0.5" style="fill:rgb(23,22,21);font-family:AdvTT86d47313;font-size:6.53px;stroke:none;">2</text>
   <text y="348.775" x="525.713,530.29,534.161" svgx:width="0.45,0.38,0.45" style="fill:rgb(23,22,21);font-family:AdvTT86d47313;font-size:9.8px;stroke:none;">are</text>
   <text y="360.737" x="304.726,313.097,318.606,323.194,328.486,332.436,335.191,340.495,347.534,352.122,355.846,359.719,363.063,368.573,373.108,378.498,382.462,385.864,391.373,395.962,399.098,403.048,408.32,411.162,415.123,418.525,424.034,428.444,432.425,437.013,441.602,447.013,452.425,455.18,459.769,464.357,468.132,472.667,475.446,480.034,487.072,490.847,493.603,496.359,501.466,505.87600000000003,509.8,519.097,524.715" svgx:width="0.83,0.54,0.45,0.54,0.55,0.26,0.52,0.7,0.45,0.38,0.55,0.32,0.54,0.45,0.55,0.55,0.32,0.54,0.45,0.32,0.55,0.52,0.29,0.55,0.32,0.54,0.45,0.55,0.45,0.45,0.53,0.53,0.26,0.45,0.45,0.36,0.45,0.26,0.45,0.7,0.36,0.26,0.26,0.5,0.45,0.55,0.93,0.55,0.78" style="fill:rgb(23,22,21);font-family:AdvTT86d47313;font-size:9.8px;stroke:none;">much lower than that of the caddice-clew-like MnO</text>
   <text y="362.381" x="532.573" svgx:width="0.5" style="fill:rgb(23,22,21);font-family:AdvTT86d47313;font-size:6.53px;stroke:none;">2</text>
   <text y="360.737" x="536.428" svgx:width="0.22" style="fill:rgb(23,22,21);font-family:AdvTT86d47313;font-size:9.8px;stroke:none;">.</text>
   <text y="372.756" x="304.725,308.187,311.32300000000004,315.273,320.675,324.548,329.841,334.528,339.106,342.83,346.817,350.17,355.67,360.249,363.38500000000005,367.335,370.688,376.188,380.598,384.465,390.191,392.937,396.702,399.448,404.742,410.132,414.039,422.43,425.176,430.068,433.941,438.519,441.873,444.619,449.913,455.303,459.21,463.083,467.661,471.632,474.378,478.349,481.703,486.281,491.889,496.467,500.877,504.744,508.146,513.645,517.518,522.811,528.311,533.203" svgx:width="0.33,0.32,0.55,0.53,0.38,0.52,0.46,0.45,0.38,0.55,0.32,0.54,0.45,0.32,0.55,0.32,0.54,0.45,0.55,0.56,0.26,0.36,0.26,0.52,0.55,0.55,0.83,0.26,0.48,0.38,0.45,0.32,0.26,0.52,0.55,0.55,0.38,0.45,0.38,0.26,0.38,0.32,0.45,0.55,0.45,0.45,0.55,0.32,0.54,0.38,0.52,0.54,0.48,0.54" style="fill:rgb(23,22,21);font-family:AdvTT86d47313;font-size:9.8px;stroke:none;">It proves that the Li-ion migration resistance through</text>
   <text y="384.774" x="304.725,308.088,313.596,318.00600000000003,323.858,329.016,334.731,337.965,343.858,346.917,349.672,352.426,360.796,364.52,370.435,374.97,380.586,385.78000000000003,391.642,396.229,401.737,406.325,410.207,415.107,419.51700000000005,425.312,428.674,432.556,437.092,442.704,446.684,449.742,454.33,458.054,463.854,467.736,472.323,476.303,479.058,483.038,486.4,490.987,496.604,501.191,505.601,511.396,516.698,519.54,525.372,528.734,534.243" svgx:width="0.32,0.54,0.45,0.55,0.51,0.56,0.33,0.55,0.29,0.26,0.26,0.83,0.38,0.55,0.45,0.55,0.53,0.55,0.45,0.54,0.45,0.38,0.48,0.45,0.55,0.32,0.38,0.45,0.55,0.38,0.29,0.45,0.38,0.55,0.38,0.45,0.38,0.26,0.38,0.32,0.45,0.55,0.45,0.45,0.55,0.52,0.29,0.55,0.32,0.54,0.45" style="fill:rgb(23,22,21);font-family:AdvTT86d47313;font-size:9.8px;stroke:none;">the SEI films and charge transfer resistance of the</text>
   <text y="396.736" x="304.725,310.228,314.104,318.685,324.188,326.937,332.547,336.315,339.064,341.813,346.914,351.324,356.835,366.077,371.687" svgx:width="0.54,0.38,0.45,0.54,0.26,0.55,0.36,0.26,0.26,0.5,0.45,0.55,0.93,0.55,0.78" style="fill:rgb(23,22,21);font-family:AdvTT86d47313;font-size:9.8px;stroke:none;">urchin-like MnO</text>
   <text y="398.381" x="379.559" svgx:width="0.5" style="fill:rgb(23,22,21);font-family:AdvTT86d47313;font-size:6.53px;stroke:none;">2</text>
   <text y="396.737" x="388.743,393.335,397.222,401.632,407.087,415.477,420.991,425.583,430.875,436.411,439.132,444.44,451.482,456.074,459.798,465.202,468.569,474.083,478.675,484.065,489.56,492.927,498.44,502.976,506.112,511.65,516.957,519.799,525.291,528.658,534.172" svgx:width="0.45,0.38,0.45,0.55,0.83,0.54,0.45,0.54,0.55,0.26,0.52,0.7,0.45,0.38,0.55,0.32,0.54,0.45,0.55,0.55,0.32,0.54,0.45,0.32,0.55,0.52,0.29,0.55,0.32,0.54,0.45" style="fill:rgb(23,22,21);font-family:AdvTT86d47313;font-size:9.8px;stroke:none;">are much lower than that of the</text>
   <text y="408.756" x="304.725,309.105,313.342,318.546,323.603,326.041,330.422,334.658,338.226,342.482,344.92,349.3,355.975,359.542,361.928,364.476,369.241,373.651,377.972,387.057,392.315" svgx:width="0.45,0.45,0.53,0.53,0.26,0.45,0.45,0.36,0.45,0.26,0.45,0.7,0.36,0.26,0.26,0.5,0.45,0.55,0.93,0.55,0.78" style="fill:rgb(23,22,21);font-family:AdvTT86d47313;font-size:9.8px;stroke:none;">caddice-clew-like MnO</text>
   <text y="410.4" x="399.855" svgx:width="0.5" style="fill:rgb(23,22,21);font-family:AdvTT86d47313;font-size:6.53px;stroke:none;">2</text>
   <text y="408.756" x="403.483,405.639,409.946,417.492,421.739,425.414,429.619,431.77500000000003,436.082,439.237,444.416,448.826,453.146,455.585,460.994,463.692,466.24,471.403,475.783,481.041,485.421,489.831,494.081,499.07,501.912,506.27,509.425,514.604,519.014,523.277,526.433,528.833,534.243" svgx:width="0.22,0.55,0.77,0.45,0.38,0.45,0.22,0.55,0.32,0.54,0.45,0.55,0.26,0.55,0.29,0.26,0.54,0.45,0.55,0.45,0.45,0.55,0.52,0.29,0.55,0.32,0.54,0.45,0.55,0.32,0.26,0.55,0.45" style="fill:rgb(23,22,21);font-family:AdvTT86d47313;font-size:9.8px;stroke:none;">. Here, the influence of the tiny</text>
   <text y="420.775" x="304.725,310.132,312.882,315.937,318.942,323.525,327.403,331.986,337.599,342.134,346.54400000000004,352.736,355.486,360.876,367.108,370.466,375.971,380.38100000000003,386.573,391.845,396.428,399.787,403.145,407.729,411.606,416.016,422.208,427.615,432.198,436.781,441.884,446.468,451.365,455.77500000000003,461.909,467.352,471.23,475.813,479.789,483.765,489.27,493.147,497.557,503.692,508.276,513.888,519.082,525.283,528.628,534.133" svgx:width="0.53,0.26,0.29,0.29,0.45,0.38,0.45,0.55,0.45,0.45,0.55,0.26,0.55,0.55,0.32,0.54,0.45,0.55,0.52,0.45,0.32,0.32,0.45,0.38,0.45,0.55,0.53,0.45,0.45,0.5,0.45,0.48,0.45,0.55,0.53,0.38,0.45,0.38,0.38,0.54,0.38,0.45,0.55,0.45,0.55,0.53,0.55,0.32,0.54,0.45" style="fill:rgb(23,22,21);font-family:AdvTT86d47313;font-size:9.8px;stroke:none;">difference in the battery package pressure and the</text>
   <text y="432.737" x="304.725,309.3,317.691,322.982,328.479,334.083,337.21900000000005,344.174,349.465,352.30699999999996,359.216,363.792,366.57,371.219,375.811,379.213,383.068,388.359,391.137,395.713,399.064,403.47400000000005,410.345,415.674,421.06399999999996,427.977,431.322,436.819" svgx:width="0.45,0.83,0.52,0.54,0.55,0.32,0.55,0.52,0.29,0.55,0.45,0.26,0.45,0.45,0.32,0.38,0.52,0.26,0.45,0.32,0.45,0.55,0.52,0.55,0.55,0.32,0.54,0.45" style="fill:rgb(23,22,21);font-family:AdvTT86d47313;font-size:9.8px;stroke:none;">amount of electrolyte on the</text>
   <text y="432.737" x="448.157" svgx:width="0.59" style="fill:rgb(23,22,21);font-family:AdvTT8861b38f.I;font-size:9.8px;stroke:none;">R</text>
   <text y="434.381" x="454.224,457.228" svgx:width="0.38,0.29" style="fill:rgb(23,22,21);font-family:AdvTT86d47313;font-size:6.53px;stroke:none;">sf</text>
   <text y="432.737" x="466.299,470.887,476.505" svgx:width="0.45,0.55,0.53" style="fill:rgb(23,22,21);font-family:AdvTT86d47313;font-size:9.8px;stroke:none;">and</text>
   <text y="432.737" x="488.579" svgx:width="0.59" style="fill:rgb(23,22,21);font-family:AdvTT8861b38f.I;font-size:9.8px;stroke:none;">R</text>
   <text y="434.381" x="494.646,498.104" svgx:width="0.45,0.32" style="fill:rgb(23,22,21);font-family:AdvTT86d47313;font-size:6.53px;stroke:none;">ct</text>
   <text y="432.737" x="507.401,511.98,516.559,521.949,528.861,534.155" svgx:width="0.45,0.45,0.55,0.55,0.52,0.45" style="fill:rgb(23,22,21);font-family:AdvTT86d47313;font-size:9.8px;stroke:none;">can be</text>
   <text y="444.756" x="304.725,310.325,314.895,319.779,322.558,327.207,331.799,335.201,339.736,345.179,347.335,353.853,359.041,364.327,366.483,373.001,376.345,381.837,386.247,392.779,398.271,402.183,406.754,412.245,414.984,420.583,424.382,427.12,429.858,434.948,439.358,445.889,454.28,459.566,463.478,468.872,474.364,479.693,482.415,487.744,492.619,497.02900000000005,503.561,506.282,510.006,516.601,524.991,530.277,534.142" svgx:width="0.55,0.45,0.48,0.26,0.45,0.45,0.32,0.45,0.53,0.22,0.55,0.51,0.52,0.22,0.55,0.32,0.54,0.45,0.55,0.54,0.38,0.45,0.54,0.26,0.55,0.36,0.26,0.26,0.5,0.45,0.55,0.83,0.52,0.38,0.53,0.54,0.52,0.26,0.52,0.48,0.45,0.55,0.26,0.38,0.55,0.83,0.52,0.38,0.45" style="fill:rgb(23,22,21);font-family:AdvTT86d47313;font-size:9.8px;stroke:none;">neglected. So, the urchin-like morphology is more</text>
   <text y="456.774" x="304.725,307.778,312.256,316.945,322.242,326.118,330.699,335.996,338.745,343.15500000000003,346.116,349.177,354.474,358.198,361.107,363.855,366.604,369.961,375.463,378.212,383.715,391.849,394.827,397.549,402.845,408.235,411.179,416.584,419.333,422.385,425.438,430.994,434.963,437.711,443.008,448.39799999999997,451.342,455.934,461.545,466.73900000000003,469.708,473.065,476.94,481.522,487.132,491.106,494.159,498.74,501.915,504.071,506.961,511.554,517.164,522.358,525.328,528.685,534.187" svgx:width="0.29,0.45,0.46,0.52,0.38,0.45,0.52,0.26,0.45,0.55,0.29,0.52,0.38,0.55,0.26,0.26,0.32,0.54,0.26,0.54,0.83,0.55,0.26,0.52,0.55,0.55,0.53,0.26,0.29,0.29,0.54,0.38,0.26,0.52,0.55,0.55,0.45,0.55,0.53,0.55,0.32,0.38,0.45,0.55,0.38,0.29,0.45,0.38,0.22,0.55,0.45,0.55,0.53,0.55,0.32,0.54,0.45" style="fill:rgb(23,22,21);font-family:AdvTT86d47313;font-size:9.8px;stroke:none;">favorable for lithium ion diffusion and transfer, and the</text>
   <text y="468.736" x="304.725,308.601,313.182,317.764,322.345,325.702,328.45,333.747,339.137,343.725,349.053,351.895,356.478,365.774,371.385" svgx:width="0.38,0.45,0.45,0.45,0.32,0.26,0.52,0.55,0.55,0.52,0.29,0.55,0.93,0.55,0.78" style="fill:rgb(23,22,21);font-family:AdvTT86d47313;font-size:9.8px;stroke:none;">reaction of MnO</text>
   <text y="470.381" x="379.276" svgx:width="0.5" style="fill:rgb(23,22,21);font-family:AdvTT86d47313;font-size:6.53px;stroke:none;">2</text>
   <text y="468.737" x="387.496,395.864,398.617,403.202,407.082,412.383,420.751,425.336,428.697,433.282,437.162,439.915,444.45,447.203,450.92699999999996,455.537,462.572,465.325,468.685,473.977,478.607,481.359,484.112,487.473,492.979,495.732,501.238,509.372,513.994,516.747,522.048,527.438,532.083,534.804" svgx:width="0.83,0.26,0.45,0.38,0.52,0.83,0.45,0.32,0.45,0.38,0.26,0.45,0.26,0.38,0.55,0.7,0.26,0.32,0.54,0.55,0.26,0.26,0.32,0.54,0.26,0.54,0.83,0.55,0.26,0.52,0.55,0.55,0.26,0.38" style="fill:rgb(23,22,21);font-family:AdvTT86d47313;font-size:9.8px;stroke:none;">micromaterials with lithium ion is</text>
   <text y="480.756" x="304.725,313.097,318.608,323.197,328.489,331.36,335.896,340.602,344.583,347.34,351.929,355.813" svgx:width="0.83,0.54,0.45,0.54,0.55,0.45,0.45,0.38,0.26,0.45,0.38,0.22" style="fill:rgb(23,22,21);font-family:AdvTT86d47313;font-size:9.8px;stroke:none;">much easier.</text>
   <text y="505.814" x="304.724,310.832,316.724,322.729,327.333,330.114,336.005,340.404,343.185,349.076,355.238" svgx:width="0.59,0.57,0.58,0.45,0.27,0.57,0.43,0.27,0.57,0.58,0.43" style="fill:rgb(23,22,21);font-family:AdvTTaf7f9f4f.B;font-size:10.3px;stroke:none;">Conclusions</text>
   <text y="517.777" x="304.724,307.988,313.378,316.8,320.573,325.874,334.038,342.312,346.692,350.367,354.748,356.904,360.341,363.496,370.327,375.423,378.879,387.964,393.373" svgx:width="0.33,0.55,0.55,0.38,0.54,0.83,0.83,0.45,0.38,0.45,0.22,0.55,0.32,0.7,0.52,0.55,0.93,0.55,0.78" style="fill:rgb(23,22,21);font-family:AdvTT86d47313;font-size:9.8px;stroke:none;">In summary, two MnO</text>
   <text y="519.421" x="401.046" svgx:width="0.5" style="fill:rgb(23,22,21);font-family:AdvTT86d47313;font-size:6.53px;stroke:none;">2</text>
   <text y="517.777" x="408.132,416.296,418.844,423.224,426.899,431.995,440.158,444.643,447.798,452.179,455.854,458.402,462.782,465.33,469.054,472.593,479.424,481.972,485.127,490.419,493.91,499.212,502.887,507.267,512.569,515.117,520.526,524.093,526.641,529.189,534.089" svgx:width="0.83,0.26,0.45,0.38,0.52,0.83,0.45,0.32,0.45,0.38,0.26,0.45,0.26,0.38,0.55,0.7,0.26,0.32,0.54,0.55,0.54,0.38,0.45,0.54,0.26,0.55,0.36,0.26,0.26,0.5,0.45" style="fill:rgb(23,22,21);font-family:AdvTT86d47313;font-size:9.8px;stroke:none;">micromaterials with urchin-like</text>
   <text y="529.795" x="304.725,309.312,314.928,320.122,325.587,330.122,334.709,340.12,345.53,348.285,352.821,357.413,361.187,365.774,368.529,373.116,380.154,383.928,386.682,389.437,394.544,398.954,404.352,412.722,418.024,421.906,427.317,432.825,438.128,440.883,446.185,451.086,453.841,458.428,462.152,467.67,472.205,476.117,480.52700000000004,485.925,491.311,495.193,499.78,505.191,509.778,513.66,518.247,523.4409999999999,528.905,534.178" svgx:width="0.45,0.55,0.53,0.55,0.45,0.45,0.53,0.53,0.26,0.45,0.45,0.36,0.45,0.26,0.45,0.7,0.36,0.26,0.26,0.5,0.45,0.55,0.83,0.52,0.38,0.53,0.54,0.52,0.26,0.52,0.48,0.26,0.45,0.38,0.55,0.45,0.38,0.45,0.55,0.53,0.38,0.45,0.53,0.45,0.38,0.45,0.53,0.55,0.52,0.45" style="fill:rgb(23,22,21);font-family:AdvTT86d47313;font-size:9.8px;stroke:none;">and caddice-clew-like morphologies are prepared by</text>
   <text y="541.814" x="304.725,310.229,314.813,320.219,324.097,329.396,332.754,338.259,342.842,346.72,355.086,359.67,362.218,366.303,374.669,379.253,382.611,388.116,393.415,398.821,400.97700000000003,405.001,411.01,416.309,419.668,424.96,429.022,432.366,437.871,442.281,446.431,451.015,454.892,459.476,463.452,466.81,471.393,474.144,476.895,479.646,485.258,489.668,493.706,499.112,504.617,509.323,513.292,517.875,521.599,525.699,530.282,534.16" svgx:width="0.54,0.45,0.53,0.38,0.52,0.32,0.54,0.45,0.38,0.83,0.45,0.26,0.55,0.83,0.45,0.32,0.54,0.52,0.53,0.22,0.55,0.59,0.52,0.32,0.54,0.55,0.32,0.54,0.45,0.55,0.45,0.38,0.45,0.38,0.32,0.45,0.26,0.26,0.26,0.55,0.45,0.55,0.53,0.54,0.45,0.38,0.45,0.38,0.55,0.45,0.38,0.45" style="fill:rgb(23,22,21);font-family:AdvTT86d47313;font-size:9.8px;stroke:none;">hydrothermal method. Both the crystalline phases are</text>
   <text y="553.776" x="304.725,310.337,314.102,323.385,328.992" svgx:width="0.55,0.36,0.93,0.55,0.78" style="fill:rgb(23,22,21);font-family:AdvTT86d47313;font-size:9.8px;stroke:none;">α-MnO</text>
   <text y="555.421" x="336.869" svgx:width="0.5" style="fill:rgb(23,22,21);font-family:AdvTT86d47313;font-size:6.53px;stroke:none;">2</text>
   <text y="553.777" x="340.724,342.88,345.94,352.969,358.466,361.244,365.82,371.11199999999997,374.211,376.954,380.678,383.813,388.389,392.357,396.325,400.901,406.505,409.856,412.599,417.174,419.722,422.787,426.188,431.284,434.351,439.057,443.741,448.316,451.095,456.593,461.169,464.519,468.92900000000003,472.003,475.347,480.844,485.254,488.27,492.183,496.775,499.518,504.093,507.444,510.222,515.513,521.118,525.086,530.582,533.361" svgx:width="0.22,0.55,0.7,0.54,0.26,0.45,0.54,0.55,0.26,0.38,0.55,0.45,0.38,0.38,0.45,0.55,0.32,0.26,0.45,0.26,0.55,0.32,0.52,0.55,0.45,0.46,0.45,0.26,0.54,0.45,0.32,0.45,0.55,0.32,0.54,0.45,0.55,0.38,0.45,0.26,0.45,0.32,0.26,0.52,0.55,0.38,0.54,0.26,0.53" style="fill:rgb(23,22,21);font-family:AdvTT86d47313;font-size:9.8px;stroke:none;">, which is essential to evaluate the relationship</text>
   <text y="565.795" x="304.724,310.034,314.569,317.939,324.983,329.577,334.171,339.561,343.071,347.607,350.385,355.091,359.626,362.996,366.884,372.194,376.729,382.245,386.839,395.216,397.977,402.572,407.107,409.65500000000003,413.173,418.559,423.153,427.042,430.107,435.417,439.306,447.682,452.218,457.83,462.424,467.019,470.743,474.276,478.87,484.493,489.687,493.167,501.557,506.867,510.756,516.173,521.688,526.998,529.76,535.069" svgx:width="0.52,0.45,0.32,0.7,0.45,0.45,0.55,0.55,0.45,0.26,0.45,0.45,0.32,0.38,0.52,0.45,0.54,0.45,0.83,0.26,0.45,0.45,0.26,0.55,0.53,0.45,0.38,0.29,0.52,0.38,0.83,0.45,0.55,0.45,0.45,0.38,0.55,0.45,0.55,0.53,0.55,0.83,0.52,0.38,0.53,0.54,0.52,0.26,0.52,0.36" style="fill:rgb(23,22,21);font-family:AdvTT86d47313;font-size:9.8px;stroke:none;">between electrochemical performances and morpholo-</text>
   <text y="577.814" x="304.724,309.619,312.368,316.95,320.674,323.753,329.05,331.892,334.945,344.231,349.841" svgx:width="0.48,0.26,0.45,0.38,0.55,0.52,0.29,0.55,0.93,0.55,0.78" style="fill:rgb(23,22,21);font-family:AdvTT86d47313;font-size:9.8px;stroke:none;">gies of MnO</text>
   <text y="579.458" x="357.732" svgx:width="0.5" style="fill:rgb(23,22,21);font-family:AdvTT86d47313;font-size:6.53px;stroke:none;">2</text>
   <text y="577.814" x="364.422,369.004,372.881,377.464,381.439,384.796,389.378,392.128,395.852,398.931,403.637,407.361,410.44,415.023,420.634,425.932,431.338,435.92,439.644,442.723,445.777,451.075,454.799,457.764,460.542,463.292,466.65,472.153,474.903,480.407,488.772,492.541,495.291,500.589,505.979,509.036,514.334,518.916,522.274,525.631,530.214,534.091" svgx:width="0.45,0.38,0.45,0.38,0.32,0.45,0.26,0.38,0.55,0.45,0.38,0.55,0.45,0.55,0.52,0.53,0.45,0.38,0.55,0.29,0.52,0.38,0.55,0.26,0.26,0.32,0.54,0.26,0.54,0.83,0.36,0.26,0.52,0.55,0.55,0.52,0.45,0.32,0.32,0.45,0.38,0.45" style="fill:rgb(23,22,21);font-family:AdvTT86d47313;font-size:9.8px;stroke:none;">crystals as anodes for lithium-ion battery</text>
   <text y="589.776" x="304.725,309.31,314.719,320.127,322.88,325.633,330.218,334.804,338.164,340.917,346.218,351.832,353.988,356.935,362.951,368.252,371.612,376.904,379.946,383.306,388.813,393.223,396.183,400.889,404.971,408.713,414.121,418.001,422.586,427.995,432.58,436.46,440.996,446.19,449.234,454.847,458.631,467.873,473.5" svgx:width="0.45,0.53,0.53,0.26,0.26,0.45,0.45,0.32,0.26,0.52,0.55,0.22,0.55,0.59,0.52,0.32,0.54,0.55,0.32,0.54,0.45,0.55,0.45,0.38,0.36,0.53,0.38,0.45,0.53,0.45,0.38,0.45,0.53,0.55,0.55,0.36,0.93,0.55,0.78" style="fill:rgb(23,22,21);font-family:AdvTT86d47313;font-size:9.8px;stroke:none;">application. Both the as-prepared α-MnO</text>
   <text y="591.421" x="481.379" svgx:width="0.5" style="fill:rgb(23,22,21);font-family:AdvTT86d47313;font-size:6.53px;stroke:none;">2</text>
   <text y="589.777" x="488.069,492.65,497.642,503.143,505.891,511.187,513.935,517.0709999999999,520.115,525.614,528.361,533.255" svgx:width="0.45,0.49,0.54,0.26,0.52,0.26,0.32,0.55,0.54,0.26,0.48,0.54" style="fill:rgb(23,22,21);font-family:AdvTT86d47313;font-size:9.8px;stroke:none;">exhibit high</text>
   <text y="601.795" x="304.725,307.273,312.548,314.986,318.142,320.542,324.922,327.47,330.86,334.633,339.705,344.085,348.466,350.874,353.725,356.146,360.55600000000004,363.969,368.35,372.586,377.79,382.054,386.434,388.8,391.956,396.226,398.382,401.839,406.828,412.13,415.266,418.734,421.889,427.011,431.42100000000005,434.891,440.095,442.488,446.261,450.482,455.783,460.063,463.738,468.227,472.637,476.221,480.602,484.838,489.219,491.584,494.132,499.408,504.112,507.571,511.344,514.374,518.755,523.672,526.22,528.605,531.153,534.16" svgx:width="0.26,0.55,0.26,0.32,0.26,0.45,0.26,0.55,0.38,0.53,0.45,0.45,0.26,0.29,0.26,0.45,0.55,0.45,0.45,0.53,0.45,0.45,0.26,0.32,0.45,0.22,0.55,0.52,0.54,0.32,0.55,0.32,0.54,0.45,0.55,0.53,0.26,0.38,0.45,0.54,0.45,0.38,0.48,0.45,0.55,0.45,0.45,0.45,0.26,0.26,0.55,0.48,0.55,0.38,0.32,0.45,0.52,0.26,0.26,0.26,0.32,0.45" style="fill:rgb(23,22,21);font-family:AdvTT86d47313;font-size:9.8px;stroke:none;">initial specific capacity, but the discharge cycling stability</text>
   <text y="613.814" x="304.725,307.273,310.997,313.682,318.886,323.83,328.819,332.494,334.65000000000003,337.266,340.324,345.487,349.259,352.39500000000004,355.011,357.559,362.949,365.613,369.993,374.374,378.028,382.43800000000005,385.114,390.104,392.94599999999997,395.659,398.815,403.993,406.431,410.155,412.951,416.626,420.831,424.604,428.825,433.205,436.705,441.086,446.23,448.386,451.105,454.261,459.382,463.79200000000003,466.468,471.77,475.313,479.693,484.837,487.385,492.661,496.119,498.667,501.051,505.951,510.36100000000005,512.957,522.042,527.3" svgx:width="0.26,0.38,0.55,0.53,0.52,0.52,0.38,0.22,0.55,0.31,0.54,0.38,0.32,0.55,0.26,0.55,0.55,0.45,0.45,0.38,0.45,0.55,0.52,0.29,0.55,0.32,0.54,0.26,0.38,0.55,0.38,0.45,0.38,0.45,0.45,0.38,0.45,0.54,0.22,0.55,0.32,0.54,0.45,0.55,0.54,0.38,0.45,0.54,0.26,0.55,0.36,0.26,0.26,0.5,0.45,0.55,0.93,0.55,0.78" style="fill:rgb(23,22,21);font-family:AdvTT86d47313;font-size:9.8px;stroke:none;">is poor. Just in case of this research, the urchin-like MnO</text>
   <text y="615.458" x="534.898" svgx:width="0.5" style="fill:rgb(23,22,21);font-family:AdvTT86d47313;font-size:6.53px;stroke:none;">2</text>
   <text y="625.777" x="304.724,313.092,317.678,321.038,325.624,329.503,332.256,336.842,339.39,343.645,349.151,353.857,357.581,361.851,367.18,371.765,375.126,378.486,383.072,386.796,391.009,395.544,398.297,403.003,407.588,410.948,414.828,420.129,424.714,430.221,434.806,443.174,445.927,450.513,455.048,457.596,461.851,467.26,471.845,475.725,478.781,484.082,487.962,496.33,500.916,506.53,511.115,515.701,517.857,522.05,528.684,534.182" svgx:width="0.83,0.45,0.32,0.45,0.38,0.26,0.45,0.26,0.55,0.54,0.45,0.38,0.55,0.52,0.45,0.32,0.32,0.45,0.38,0.55,0.45,0.26,0.45,0.45,0.32,0.38,0.52,0.45,0.54,0.45,0.83,0.26,0.45,0.45,0.26,0.55,0.53,0.45,0.38,0.29,0.52,0.38,0.83,0.45,0.55,0.45,0.45,0.22,0.55,0.67,0.54,0.45" style="fill:rgb(23,22,21);font-family:AdvTT86d47313;font-size:9.8px;stroke:none;">material has better electrochemical performance. The</text>
   <text y="637.795" x="304.724,308.607,313.195,317.176,322.686,325.441,328.9,332.62399999999997,335.533,339.502,345.012,349.914,354.815,359.404,363.385,366.521,369.394,372.757,378.267,382.855,385.99100000000004,388.864,394.276,397.031,400.091,403.151,407.739,411.622,416.21,421.827,424.963,427.836,436.208,441.511,445.394,450.805,456.315,461.619,464.374,469.678,474.58,477.336,481.924,485.64799999999997,488.558,491.313,496.931,502.342,506.93,511.519,516.713,519.569,525.079,529.557,534.207" svgx:width="0.38,0.45,0.38,0.54,0.26,0.32,0.38,0.55,0.38,0.54,0.48,0.48,0.45,0.38,0.32,0.55,0.32,0.54,0.45,0.32,0.55,0.53,0.26,0.29,0.29,0.45,0.38,0.45,0.55,0.32,0.55,0.83,0.52,0.38,0.53,0.54,0.52,0.26,0.52,0.48,0.26,0.45,0.38,0.55,0.26,0.55,0.53,0.45,0.45,0.53,0.55,0.54,0.45,0.46,0.45" style="fill:rgb(23,22,21);font-family:AdvTT86d47313;font-size:9.8px;stroke:none;">results suggest that different morphologies indeed have</text>
  </g>
  <path style="fill:rgb(23,22,21);stroke:none;stroke-width:1.0;" d="M60.720 487.330 L286.530 487.330 L286.530 487.620 L60.720 487.620 "/>
  <path style="fill:rgb(23,22,21);stroke:none;stroke-width:0.25;" d="M286.530 487.330 L287.260 487.390 C288.750 487.620 290.300 489.060 290.490 490.620 L290.550 491.360 L290.320 491.360 L290.270 490.680 C289.980 489.180 288.750 487.870 287.210 487.670 L286.530 487.620 "/>
  <path style="fill:rgb(23,22,21);stroke:none;stroke-width:0.25;" d="M290.550 491.360 L290.550 728.730 L290.320 728.730 L290.320 491.360 "/>
  <path style="fill:rgb(23,22,21);stroke:none;stroke-width:0.25;" d="M290.550 728.730 L290.490 729.470 C290.300 731.030 288.750 732.470 287.260 732.700 L286.530 732.760 L286.530 732.470 L287.210 732.420 C288.750 732.220 289.980 730.910 290.270 729.410 L290.320 728.730 "/>
  <path style="fill:rgb(23,22,21);stroke:none;stroke-width:0.25;" d="M286.530 732.760 L60.720 732.760 L60.720 732.470 L286.530 732.470 "/>
  <path style="fill:rgb(23,22,21);stroke:none;stroke-width:0.25;" d="M60.720 732.760 L59.980 732.700 C58.490 732.470 56.940 731.030 56.750 729.470 L56.690 728.730 L56.920 728.730 L56.980 729.410 C57.270 730.910 58.490 732.220 60.040 732.420 L60.720 732.470 "/>
  <path style="fill:rgb(23,22,21);stroke:none;stroke-width:0.25;" d="M56.690 728.730 L56.690 491.360 L56.920 491.360 L56.920 728.730 "/>
  <path style="fill:rgb(23,22,21);stroke:none;stroke-width:0.25;" d="M56.690 491.360 L56.750 490.620 C56.940 489.060 58.490 487.620 59.980 487.390 L60.720 487.330 L60.720 487.620 L60.040 487.670 C58.490 487.870 57.270 489.180 56.980 490.680 L56.920 491.360 "/>
  <rect style="fill:pink;opacity:0.2;stroke:blue;stroke-width:0.3;" x="66.161" y="499.868" height="170.872" width="214.988" title="6"/>
  <text y="499.868" class="image" id="image.6.1" width="214" height="170" x="66.161" style="font-size:5.0px;">image.6.1.66_281.500_671</text>
  <g begin="text">
   <text y="676.517" x="62.702,66.862,69.022,73.686,78.262,81.262,85.422,87.76" svgx:width="0.52,0.27,0.58,0.57,0.38,0.52,0.55,0.55" style="fill:rgb(23,22,21);font-family:AdvTTaf7f9f4f.B;font-size:8.0px;stroke:none;">Figure 6</text>
   <text y="676.517" x="94.564,99.891,103.891,108.467,112.963,114.963,118.291,121.011,123.364,128.028,130.028,134.524,137.244,139.635,144.131,146.611,149.046,152.958,154.958,157.622,164.198,168.694" svgx:width="0.67,0.5,0.57,0.56,0.25,0.42,0.34,0.55,0.58,0.25,0.56,0.34,0.55,0.56,0.31,0.55,0.49,0.25,0.33,0.82,0.56,0.7" style="fill:rgb(23,22,21);font-family:AdvTT99c4c969;font-size:8.0px;stroke:none;">Nyquist plot of Li/MnO</text>
   <text y="677.821" x="174.217" svgx:width="0.53" style="fill:rgb(23,22,21);font-family:AdvTT99c4c969;font-size:5.33px;stroke:none;">2</text>
   <text y="676.517" x="179.773,183.349,187.429,189.429,191.429,194.78900000000002,197.121,201.121,203.617,206.361,210.441,213.241,215.66,218.156,220.156,224.156,228.23600000000002,230.627,234.203,238.699,242.699,245.531,250.107,252.107,256.603,261.163,263.509,267.509,272.005" svgx:width="0.45,0.51,0.25,0.25,0.42,0.55,0.5,0.31,0.34,0.51,0.35,0.55,0.31,0.25,0.5,0.51,0.55,0.45,0.56,0.5,0.35,0.57,0.25,0.56,0.57,0.55,0.5,0.56,0.57" style="fill:rgb(23,22,21);font-family:AdvTT99c4c969;font-size:8.0px;stroke:none;">cells after five charging and</text>
   <text y="686.495" x="62.703,67.279,69.279,72.607,76.182,80.678,84.678,87.421,91.997,93.997,98.493,103.053,105.449,109.025,113.025,116.601,118.601,122.681,126.041,128.41,132.41,135.13,137.538,142.034,146.698,150.778,155.25799999999998,157.607,161.183,163.183,166.015,169.591,174.087,176.087,178.807,181.192,185.192,189.687,191.687,194.431,198.431,203.007,207.087" svgx:width="0.57,0.25,0.42,0.45,0.56,0.5,0.35,0.57,0.25,0.56,0.57,0.55,0.45,0.5,0.45,0.25,0.51,0.42,0.55,0.5,0.34,0.55,0.56,0.58,0.51,0.56,0.55,0.45,0.25,0.35,0.45,0.56,0.25,0.34,0.55,0.5,0.56,0.25,0.34,0.5,0.57,0.51,0.23" style="fill:rgb(23,22,21);font-family:AdvTT99c4c969;font-size:8.0px;stroke:none;">discharging cycles at open circuit voltage.</text>
   <text y="686.495" x="211.238,214.902,219.15,222.99,225.354,227.434,229.762,233.594,237.922,242.082,245.914,250.162,253.658,257.178,259.483,261.811,265.387,269.635,273.963,277.795" svgx:width="0.46,0.53,0.48,0.55,0.26,0.29,0.48,0.54,0.52,0.48,0.53,0.44,0.44,0.55,0.29,0.45,0.53,0.54,0.48,0.54" style="fill:rgb(23,22,21);font-family:AdvTTb5929f4c;font-size:8.0px;stroke:none;">The frequency ranged</text>
   <text y="696.473" x="62.703,64.783,67.111,71.359,77.839,80.221,84.053,85.381,89.221,91.559,96.559,99.759,102.104,104.52,108.75999999999999,111.175,115.007,118.839,122.679,125.008,128.336,133.336,136.536,138.898,144.642,146.306,148.722,152.96200000000002,155.338,158.914,163.154,165.543,169.119,173.447,177.775,179.439,181.103,184.935,189.255,191.622,196.286,200.766,203.131,206.042,207.706,212.034,216.282,219.858,221.538,223.937,227.513,234.009,238.336,240.0,241.664,244.08,248.144,252.472,256.312,258.689,262.937,265.017,267.42" svgx:width="0.26,0.29,0.53,0.81,0.55,0.48,0.17,0.48,0.55,0.63,0.4,0.55,0.3,0.53,0.55,0.48,0.48,0.48,0.55,0.42,0.63,0.4,0.55,0.72,0.21,0.3,0.53,0.55,0.45,0.53,0.55,0.45,0.54,0.54,0.21,0.21,0.48,0.54,0.55,0.58,0.56,0.55,0.36,0.21,0.54,0.53,0.45,0.21,0.55,0.45,0.81,0.54,0.21,0.21,0.3,0.52,0.54,0.48,0.55,0.53,0.26,0.55,0.48" style="fill:rgb(23,22,21);font-family:AdvTTb5929f4c;font-size:8.0px;stroke:none;">from 0.1 Hz to 100 kHz with an applied AC signal amplitude of 5</text>
   <text y="706.508" x="62.703,69.199,73.199" svgx:width="0.81,0.5,0.17" style="fill:rgb(23,22,21);font-family:AdvTTb5929f4c;font-size:8.0px;stroke:none;">mV.</text>
   <text y="706.508" x="76.876,79.204,83.204" svgx:width="0.29,0.5,0.29" style="fill:rgb(23,22,21);font-family:AdvTT99c4c969;font-size:8.0px;stroke:none;">(a)</text>
   <text y="706.508" x="87.931,92.427,96.003,100.331,104.659,106.323,109.819,113.651,115.979,119.396,121.06,124.891,130.635,132.963,134.627,136.291,139.619,143.459,145.814,149.39,153.638" svgx:width="0.56,0.45,0.54,0.54,0.21,0.44,0.48,0.29,0.44,0.21,0.48,0.72,0.29,0.21,0.21,0.42,0.48,0.55,0.45,0.53,0.54" style="fill:rgb(23,22,21);font-family:AdvTTb5929f4c;font-size:8.0px;stroke:none;">Caddice-clew-like and</text>
   <text y="706.508" x="160.328,162.656,167.32" svgx:width="0.29,0.58,0.29" style="fill:rgb(23,22,21);font-family:AdvTT99c4c969;font-size:8.0px;stroke:none;">(b)</text>
   <text y="706.508" x="172.063,176.223,178.551,182.047,186.295,187.959,192.207,194.535,196.199,197.863,201.191,205.031,207.326,213.486,217.734" svgx:width="0.52,0.29,0.44,0.53,0.21,0.53,0.29,0.21,0.21,0.42,0.48,0.55,0.77,0.53,0.67" style="fill:rgb(23,22,21);font-family:AdvTTb5929f4c;font-size:8.0px;stroke:none;">urchin-like MnO</text>
   <text y="707.811" x="223.03" svgx:width="0.48" style="fill:rgb(23,22,21);font-family:AdvTTb5929f4c;font-size:5.33px;stroke:none;">2</text>
   <text y="706.507" x="228.302,231.214,234.79,241.286,245.614,247.278,251.11,254.022,255.382,257.726,261.39,264.886,271.382,275.71,279.958,281.622" svgx:width="0.36,0.45,0.81,0.54,0.21,0.48,0.36,0.17,0.55,0.46,0.44,0.81,0.54,0.53,0.21,0.36" style="fill:rgb(23,22,21);font-family:AdvTTb5929f4c;font-size:8.0px;stroke:none;">samples. Symbols</text>
   <text y="716.486" x="62.703,65.031,68.863,73.191,75.519,79.351,82.263,86.095,90.255,92.655,95.074,98.906,102.322,106.65,110.482,112.81,114.474,120.97,124.802,129.05,131.358,134.934,136.614,139.011,143.339,146.915,149.331,152.93099999999998,155.282,158.858,163.106,167.426,169.796,171.46,173.124,177.372,181.204,184.084,186.52,188.848,192.68,197.008,199.336,203.168,206.08,209.821,214.069,216.469,218.892,220.972,222.636,225.052,227.468,231.3,235.62,237.997,240.909,245.237,249.069,252.565,254.981,257.309,260.90900000000005,263.226,267.386,270.298,271.962,276.21" svgx:width="0.29,0.48,0.54,0.29,0.48,0.36,0.48,0.53,0.3,0.55,0.48,0.43,0.54,0.48,0.29,0.21,0.81,0.48,0.53,0.3,0.45,0.21,0.55,0.54,0.45,0.3,0.45,0.55,0.45,0.53,0.54,0.55,0.21,0.21,0.53,0.48,0.36,0.55,0.29,0.48,0.54,0.29,0.48,0.36,0.48,0.53,0.3,0.55,0.26,0.21,0.3,0.3,0.48,0.54,0.55,0.36,0.54,0.48,0.44,0.3,0.29,0.45,0.55,0.52,0.36,0.21,0.53,0.54" style="fill:rgb(23,22,21);font-family:AdvTTb5929f4c;font-size:8.0px;stroke:none;">represent experimental data and lines represent fitted spectra using</text>
   <text y="726.52" x="62.703,66.535,70.863,75.023,76.687,80.263,83.839,85.503,89.334,93.487,95.887,98.306,101.802,103.466,105.794,109.29,113.45,115.114,117.53,118.89,121.267,124.931,129.179,133.019,135.327,136.991,141.239,144.151,147.983,150.383,152.788,154.452,157.332,159.762,162.178,166.425,170.26500000000001,172.631,176.463,180.791,184.951,186.615,190.191,193.767,195.431,199.263,203.415,205.815,208.235,211.731,213.395,215.722,219.218,223.378,225.042,227.458" svgx:width="0.48,0.54,0.52,0.21,0.45,0.45,0.21,0.48,0.53,0.3,0.55,0.44,0.21,0.29,0.44,0.52,0.21,0.3,0.17,0.55,0.46,0.53,0.48,0.55,0.21,0.53,0.36,0.48,0.3,0.55,0.21,0.36,0.55,0.3,0.53,0.48,0.55,0.48,0.54,0.52,0.21,0.45,0.45,0.21,0.48,0.53,0.3,0.55,0.44,0.21,0.29,0.44,0.52,0.21,0.3,0.17" style="fill:rgb(23,22,21);font-family:AdvTTb5929f4c;font-size:8.0px;stroke:none;">equivalent circuit. The inset is the equivalent circuit.</text>
  </g>
  <path style="fill:rgb(23,22,21);stroke:none;stroke-width:0.25;" d="M304.720 683.320 L538.580 683.320 L538.580 683.430 L304.720 683.430 "/>
  <path style="fill:rgb(23,22,21);stroke:none;stroke-width:0.25;" d="M348.610 97.110 L304.730 97.110 L304.730 97.230 L348.610 97.230 L348.610 97.110 "/>
  <path style="fill:rgb(23,22,21);stroke:none;stroke-width:0.25;" d="M423.780 97.110 L348.600 97.110 L348.600 97.230 L423.780 97.230 L423.780 97.110 "/>
  <path style="fill:rgb(23,22,21);stroke:none;stroke-width:0.25;" d="M500.770 97.110 L423.780 97.110 L423.780 97.230 L500.770 97.230 L500.770 97.110 "/>
  <path style="fill:rgb(23,22,21);stroke:none;stroke-width:0.25;" d="M538.580 97.110 L500.770 97.110 L500.770 97.230 L538.580 97.230 L538.580 97.110 "/>
  <g begin="text">
   <text y="668.296" x="304.724,309.593,314.273,319.61,322.04,326.72,329.442" svgx:width="0.54,0.52,0.59,0.27,0.52,0.55,0.55" style="fill:rgb(23,22,21);font-family:AdvTTaf7f9f4f.B;font-size:9.0px;stroke:none;">Table 1</text>
   <text y="668.296" x="337.096" svgx:width="0.57" style="fill:rgb(23,22,21);font-family:AdvTT837b8832.BI;font-size:9.0px;stroke:none;">R</text>
   <text y="669.827" x="342.255" svgx:width="0.43" style="fill:rgb(23,22,21);font-family:AdvTTaf7f9f4f.B;font-size:6.0px;stroke:none;">s</text>
   <text y="668.296" x="345.146" svgx:width="0.25" style="fill:rgb(23,22,21);font-family:AdvTTaf7f9f4f.B;font-size:9.0px;stroke:none;">,</text>
   <text y="668.296" x="350.078" svgx:width="0.57" style="fill:rgb(23,22,21);font-family:AdvTT837b8832.BI;font-size:9.0px;stroke:none;">R</text>
   <text y="669.827" x="355.238,358.12" svgx:width="0.43,0.33" style="fill:rgb(23,22,21);font-family:AdvTTaf7f9f4f.B;font-size:6.0px;stroke:none;">sf</text>
   <text y="668.296" x="360.397,362.647,365.329,370.009,375.256" svgx:width="0.25,0.55,0.52,0.58,0.59" style="fill:rgb(23,22,21);font-family:AdvTTaf7f9f4f.B;font-size:9.0px;stroke:none;">, and</text>
   <text y="668.296" x="383.301" svgx:width="0.57" style="fill:rgb(23,22,21);font-family:AdvTT837b8832.BI;font-size:9.0px;stroke:none;">R</text>
   <text y="669.827" x="388.46,391.477" svgx:width="0.45,0.36" style="fill:rgb(23,22,21);font-family:AdvTTaf7f9f4f.B;font-size:6.0px;stroke:none;">ct</text>
   <text y="668.296" x="396.624,400.647,405.327,407.757,411.78,416.928,419.358,424.038,427.314,431.993,437.303,440.107,443.104,446.479,451.627,459.277,461.991,468.174,472.854,478.191,483.339,485.769,489.612,492.85200000000003,495.609,500.946,503.376,508.524,511.8,515.67,518.343,521.34,526.488" svgx:width="0.45,0.52,0.27,0.45,0.57,0.27,0.52,0.36,0.52,0.59,0.55,0.33,0.38,0.57,0.85,0.55,0.69,0.52,0.59,0.57,0.27,0.43,0.36,0.55,0.59,0.27,0.57,0.36,0.43,0.55,0.33,0.57,0.38" style="fill:rgb(23,22,21);font-family:AdvTTaf7f9f4f.B;font-size:9.0px;stroke:none;">calculated from Nyquist plots for</text>
   <text y="679.294" x="304.724,308.0,313.247,317.927,320.655,328.242,333.489" svgx:width="0.36,0.58,0.52,0.55,0.84,0.58,0.71" style="fill:rgb(23,22,21);font-family:AdvTTaf7f9f4f.B;font-size:9.0px;stroke:none;">the MnO</text>
   <text y="680.825" x="339.817" svgx:width="0.55" style="fill:rgb(23,22,21);font-family:AdvTTaf7f9f4f.B;font-size:6.0px;stroke:none;">2</text>
   <text y="679.295" x="346.28,353.966,358.646,361.922,366.602,369.977,372.407,377.087,379.517" svgx:width="0.85,0.52,0.36,0.52,0.38,0.27,0.52,0.27,0.43" style="fill:rgb(23,22,21);font-family:AdvTTaf7f9f4f.B;font-size:9.0px;stroke:none;">materials</text>
   <text y="692.448" x="348.605" svgx:width="0.55" style="fill:rgb(0,0,0);font-family:AdvTT83913201.I;font-size:8.0px;stroke:none;">R</text>
   <text y="693.808" x="353.027" svgx:width="0.42" style="fill:rgb(0,0,0);font-family:AdvTT99c4c969;font-size:5.33px;stroke:none;">s</text>
   <text y="692.448" x="357.902,360.227,365.98699999999997,368.391,371.967" svgx:width="0.29,0.72,0.55,0.45,0.84" style="fill:rgb(0,0,0);font-family:AdvTT99c4c969;font-size:8.0px;stroke:none;">(Ω cm</text>
   <text y="688.876" x="378.652" svgx:width="0.53" style="fill:rgb(0,0,0);font-family:AdvTT99c4c969;font-size:5.33px;stroke:none;">2</text>
   <text y="692.448" x="381.883" svgx:width="0.29" style="fill:rgb(0,0,0);font-family:AdvTT99c4c969;font-size:8.0px;stroke:none;">)</text>
   <text y="692.448" x="423.78" svgx:width="0.55" style="fill:rgb(0,0,0);font-family:AdvTT83913201.I;font-size:8.0px;stroke:none;">R</text>
   <text y="693.808" x="428.145,430.641" svgx:width="0.42,0.31" style="fill:rgb(0,0,0);font-family:AdvTT99c4c969;font-size:5.33px;stroke:none;">sf</text>
   <text y="692.448" x="434.948,437.273,443.033,445.38,448.956" svgx:width="0.29,0.72,0.55,0.45,0.84" style="fill:rgb(0,0,0);font-family:AdvTT99c4c969;font-size:8.0px;stroke:none;">(Ω cm</text>
   <text y="688.876" x="455.698" svgx:width="0.53" style="fill:rgb(0,0,0);font-family:AdvTT99c4c969;font-size:5.33px;stroke:none;">2</text>
   <text y="692.448" x="458.872" svgx:width="0.29" style="fill:rgb(0,0,0);font-family:AdvTT99c4c969;font-size:8.0px;stroke:none;">)</text>
   <text y="692.448" x="500.769" svgx:width="0.55" style="fill:rgb(0,0,0);font-family:AdvTT83913201.I;font-size:8.0px;stroke:none;">R</text>
   <text y="693.808" x="505.19,507.872" svgx:width="0.45,0.34" style="fill:rgb(0,0,0);font-family:AdvTT99c4c969;font-size:5.33px;stroke:none;">ct</text>
   <text y="692.448" x="512.334,514.658,520.418,522.766,526.341" svgx:width="0.29,0.72,0.55,0.45,0.84" style="fill:rgb(0,0,0);font-family:AdvTT99c4c969;font-size:8.0px;stroke:none;">(Ω cm</text>
   <text y="688.876" x="533.083" svgx:width="0.53" style="fill:rgb(0,0,0);font-family:AdvTT99c4c969;font-size:5.33px;stroke:none;">2</text>
   <text y="692.448" x="536.258" svgx:width="0.29" style="fill:rgb(0,0,0);font-family:AdvTT99c4c969;font-size:8.0px;stroke:none;">)</text>
   <text y="705.6" x="304.725,308.32500000000005,360.0,363.832,365.16,368.992,372.832,432.283,436.115,439.947,443.779,445.107,448.939,452.779,509.442,513.274,517.106,520.938,522.266,526.098" svgx:width="0.45,0.55,0.48,0.17,0.48,0.48,0.55,0.48,0.48,0.48,0.17,0.48,0.48,0.55,0.48,0.48,0.48,0.17,0.48,0.48" style="fill:rgb(0,0,0);font-family:AdvTTb5929f4c;font-size:8.0px;stroke:none;">a 8.05 121.40 146.90</text>
   <text y="719.603" x="304.725,309.045,360.0,363.832,365.16,368.992,372.832,434.155,437.987,441.818,443.146,446.978,450.818,511.37,515.202,519.034,520.362,524.194" svgx:width="0.54,0.55,0.48,0.17,0.48,0.48,0.55,0.48,0.48,0.17,0.48,0.48,0.55,0.48,0.48,0.17,0.48,0.48" style="fill:rgb(0,0,0);font-family:AdvTTb5929f4c;font-size:8.0px;stroke:none;">b 7.12 94.66 43.64</text>
   <text y="732.756" x="304.724,308.077,309.477,311.584,314.713,318.066,322.0,325.934,327.537,330.666,334.166,336.28,339.409,341.012,344.512,349.615,351.838,353.441,355.044,358.32,361.82,363.913,369.527,373.391" svgx:width="0.48,0.2,0.55,0.45,0.48,0.56,0.56,0.23,0.45,0.5,0.3,0.45,0.23,0.5,0.73,0.3,0.23,0.23,0.47,0.5,0.55,0.8,0.55,0.69" style="fill:rgb(0,0,0);font-family:AdvTTe45e47d2;font-size:7.0px;stroke:none;">a, caddice-clew-like MnO</text>
   <text y="733.89" x="378.255" svgx:width="0.51" style="fill:rgb(0,0,0);font-family:AdvTTe45e47d2;font-size:4.67px;stroke:none;">2</text>
   <text y="732.756" x="383.017,385.782,389.135,394.966,398.9,400.503,404.003,405.40299999999996,407.509,411.443,412.84299999999996,414.993,418.78,421.034,424.163,428.026,429.629,433.493,435.607,437.21,438.813,442.089,445.589,447.762,453.376,457.24" svgx:width="0.4,0.48,0.83,0.56,0.23,0.5,0.2,0.55,0.56,0.2,0.55,0.54,0.32,0.45,0.55,0.23,0.55,0.3,0.23,0.23,0.47,0.5,0.55,0.8,0.55,0.69" style="fill:rgb(0,0,0);font-family:AdvTTe45e47d2;font-size:7.0px;stroke:none;">sample; b, urchin-like MnO</text>
   <text y="733.89" x="462.047" svgx:width="0.51" style="fill:rgb(0,0,0);font-family:AdvTTe45e47d2;font-size:4.67px;stroke:none;">2</text>
   <text y="732.756" x="466.809,469.574,472.927,478.828,482.762,484.365,487.865" svgx:width="0.4,0.48,0.83,0.56,0.23,0.5,0.2" style="fill:rgb(0,0,0);font-family:AdvTTe45e47d2;font-size:7.0px;stroke:none;">sample.</text>
   <text y="40.422" x="56.693,60.525,64.525,68.941" svgx:width="0.48,0.5,0.55,0.55" style="fill:rgb(23,22,21);font-family:AdvTTe45e47d2;font-size:8.0px;stroke:none;">Feng</text>
   <text y="40.422" x="75.685,79.261,81.741,84.189,88.349,90.092,91.772,94.11,99.11,103.27,107.518,111.678,114.59,117.918,122.078,123.822,127.422,129.77,133.93,137.506,140.417,143.993,148.153,150.649,153.977,158.217,160.554,164.05,167.626,170.122,172.618,176.194,178.69" svgx:width="0.45,0.31,0.55,0.52,0.22,0.21,0.55,0.63,0.52,0.53,0.52,0.36,0.42,0.52,0.22,0.45,0.55,0.52,0.45,0.36,0.45,0.52,0.31,0.42,0.53,0.55,0.44,0.45,0.31,0.31,0.45,0.31,0.36" style="fill:rgb(23,22,21);font-family:AdvTT7329fd89.I;font-size:8.0px;stroke:none;">et al. Nanoscale Research Letters</text>
   <text y="40.422" x="183.967,188.047,192.127,196.207,200.287" svgx:width="0.51,0.51,0.51,0.51,0.2" style="fill:rgb(23,22,21);font-family:AdvTTe45e47d2;font-size:8.0px;stroke:none;">2014,</text>
   <text y="40.422" x="204.263" svgx:width="0.55" style="fill:rgb(23,22,21);font-family:AdvTTaf7f9f4f.B;font-size:8.0px;stroke:none;">9</text>
   <text y="40.422" x="208.629,210.205,214.285,218.364,222.44400000000002,500.143,504.39,508.222,512.638,516.638,519.021,523.101,525.485,529.813,532.133,534.499" svgx:width="0.2,0.51,0.51,0.51,0.55,0.53,0.48,0.55,0.5,0.55,0.51,0.55,0.54,0.29,0.55,0.51" style="fill:rgb(23,22,21);font-family:AdvTTe45e47d2;font-size:8.0px;stroke:none;">:290 Page 6 of 8</text>
   <text y="50.401" x="56.693,61.109,63.685,66.261,70.757,72.333,74.997,77.661,83.493,89.235,95.067,96.643,101.059,104.891,109.307,113.635,116.795,120.37,124.202,126.034,129.941,132.517,136.517,139.677,141.509,145.509,148.085,150.661,152.236,155.812,160.14,166.735,169.399,172.975,177.303,181.719,184.294,188.294,192.71,195.286,197.95,202.03,204.694,208.688,211.352,215.432,219.512" svgx:width="0.55,0.32,0.32,0.56,0.2,0.33,0.33,0.73,0.73,0.73,0.2,0.55,0.48,0.55,0.54,0.4,0.45,0.48,0.23,0.5,0.32,0.5,0.4,0.23,0.5,0.32,0.32,0.2,0.45,0.54,0.83,0.33,0.45,0.54,0.55,0.32,0.5,0.55,0.32,0.33,0.51,0.33,0.51,0.33,0.51,0.51,0.51" style="fill:rgb(23,22,21);font-family:AdvTTe45e47d2;font-size:8.0px;stroke:none;">http://www.nanoscalereslett.com/content/9/1/290</text>
  </g>
 </g>
</svg>
