<?xml version="1.0" encoding="UTF-8"?>
<svg height="778.132" width="2615.335" xmlns="http://www.w3.org/2000/svg">
 <g id="page" xmlns:svgx="http://www.xml-cml.org/schema/svgx">
  <g begin="text">
   <text y="553.606" x="42.86,49.132,54.052,56.461,60.316,65.2291,67.861,71.716,76.348,79.721,83.093,86.948,90.32,95.138,99.771,104.784,109.60440000000001,112.252,115.05" svgx:width="0.68,0.53,0.26,0.42,0.53,0.55,0.42,0.5,0.36,0.36,0.42,0.36,0.52,0.5,0.54,0.52,0.55,0.3,0.5" style="fill:rgb(0,0,0);font-family:AdvOT1ef757c0;font-size:9.27px;stroke:none;">which correspond to</text>
   <text y="553.606" x="122.287" svgx:width="0.5" style="fill:rgb(0,0,0);font-family:AdvOT7d6df7ab.I;font-size:9.27px;stroke:none;">d</text>
   <text y="553.606" x="126.935,130.215,133.587,138.405,142.454,146.309,148.718,153.73,157.99419999999998,160.611,164.854,168.903,171.219,176.037,179.892,183.2292,185.896,190.528,193.2163,195.873,200.312,202.331,206.769,211.2186,213.789,217.838,222.85,227.6704,230.343,234.781,236.801,241.239,245.6886,248.768,253.781,261.304,263.3434,265.946,269.8,274.433,279.446,282.818,285.227,288.6" svgx:width="0.35,0.36,0.52,0.44,0.42,0.26,0.54,0.46,0.55,0.46,0.44,0.25,0.52,0.42,0.36,0.55,0.5,0.29,0.55,0.48,0.22,0.48,0.48,0.55,0.44,0.54,0.52,0.55,0.48,0.22,0.48,0.48,0.55,0.54,0.81,0.22,0.55,0.42,0.5,0.54,0.36,0.26,0.36,0.35" style="fill:rgb(0,0,0);font-family:AdvOT1ef757c0;font-size:9.27px;stroke:none;">-spacing values of 0.25 and 0.22 nm, consis-</text>
   <text y="564.264" x="42.86,45.658,49.512,54.525,57.306,61.568,67.841,70.25,73.048,77.9611,82.205,85.003,89.923,93.8164,98.023,101.201,105.639,110.077,114.515,117.6668,121.947,125.996,131.009,135.8294,140.032,143.21,147.649,152.087,156.525,159.67680000000001,163.957,168.775,171.092,175.141,180.153,184.007,187.3442,191.68,195.053,198.907,203.725,208.358,211.73,214.528,218.383,223.20340000000002,227.453,230.15,234.782,238.1192,242.421,245.793,248.202,253.215,257.458,259.774,263.6674,267.876,271.73,275.103,279.346,282.719,285.517,289.566" svgx:width="0.3,0.42,0.54,0.3,0.55,0.68,0.26,0.3,0.53,0.55,0.3,0.53,0.42,0.55,0.34,0.48,0.48,0.48,0.34,0.55,0.44,0.54,0.52,0.55,0.34,0.48,0.48,0.48,0.34,0.55,0.52,0.25,0.44,0.54,0.42,0.36,0.55,0.36,0.42,0.52,0.5,0.36,0.3,0.42,0.52,0.55,0.29,0.5,0.36,0.55,0.36,0.26,0.54,0.46,0.25,0.42,0.55,0.42,0.36,0.46,0.36,0.3,0.44,0.25" style="fill:rgb(0,0,0);font-family:AdvOT1ef757c0;font-size:9.27px;stroke:none;">tent with the (111) and (200) planes reported for single crystal</text>
   <text y="574.865" x="42.86,51.06,56.072" svgx:width="0.88,0.54,0.74" style="fill:rgb(0,0,0);font-family:AdvOT1ef757c0;font-size:9.27px;stroke:none;">MnO</text>
   <text y="571.464" x="62.929,65.692" svgx:width="0.48,0.48" style="fill:rgb(0,0,0);font-family:AdvOT1ef757c0;font-size:5.13px;stroke:none;">26</text>
   <text y="574.866" x="68.428,70.4674,73.531,79.22,84.139,88.0324,91.106,94.479,98.333,100.649,104.504,108.358,111.13900000000001,114.237,118.286,121.658,125.513,129.5918,132.662,136.516,138.833,142.687,146.541,149.339,152.712,157.345,162.3508,165.488,170.306,172.715,175.411,178.107,181.48,185.529,189.383,192.181,194.59,199.223,204.2288,207.385,210.563,214.899,221.264,226.471,233.226,236.3778,239.53,244.348,248.397,251.195,253.993,257.847,261.22,266.22580000000005,269.294,272.666,277.586,282.219,288.491" svgx:width="0.22,0.55,0.61,0.53,0.42,0.55,0.36,0.42,0.25,0.42,0.42,0.3,0.55,0.44,0.36,0.42,0.44,0.55,0.42,0.25,0.42,0.42,0.3,0.36,0.5,0.54,0.55,0.52,0.26,0.29,0.29,0.36,0.44,0.42,0.3,0.26,0.5,0.54,0.55,0.34,0.47,0.69,0.56,0.73,0.34,0.55,0.52,0.44,0.3,0.3,0.42,0.36,0.54,0.55,0.36,0.53,0.5,0.68,0.36" style="fill:rgb(0,0,0);font-family:AdvOT1ef757c0;font-size:9.27px;stroke:none;">. The select area electron diffraction (SAED) pattern shows</text>
   <text y="585.524" x="42.86,46.9388,48.813,53.631,58.263,60.58,64.823,68.103,71.957,75.33,79.574,82.946,85.744,89.793,92.109,94.426,96.835,101.847,105.7404,107.718,112.536,114.945,117.641,120.337,123.71,127.759,131.613,134.411,136.82,141.453,146.4588,148.424,153.242,157.291,160.089,162.887,166.741,170.114,175.127,177.1664,179.095,183.913,188.731,192.62439999999998,194.515,197.313,201.94799999999998,203.869,206.668,211.587,215.48039999999997,217.419,222.237,224.646,227.342,230.038,233.893,237.265,241.12,246.132,248.913,250.869,255.501,258.874,261.283,265.137,270.15,272.948,276.997,279.795,282.204,286.836" svgx:width="0.44,0.55,0.52,0.5,0.25,0.46,0.35,0.42,0.36,0.46,0.36,0.3,0.44,0.25,0.25,0.26,0.54,0.42,0.55,0.52,0.26,0.29,0.29,0.36,0.44,0.42,0.3,0.26,0.5,0.54,0.55,0.52,0.44,0.3,0.3,0.42,0.36,0.54,0.22,0.55,0.52,0.52,0.42,0.55,0.3,0.5,0.55,0.3,0.53,0.42,0.55,0.52,0.26,0.29,0.29,0.42,0.36,0.42,0.54,0.3,0.55,0.5,0.36,0.26,0.42,0.54,0.3,0.44,0.3,0.26,0.5,0.54" style="fill:rgb(0,0,0);font-family:AdvOT1ef757c0;font-size:9.27px;stroke:none;">a poly-crystalline diffraction pattern, due to the different orientation</text>
   <text y="596.125" x="42.86,45.556,48.929,53.561,63.156,67.4,71.449,74.821,77.23,81.863,86.681,90.0182,92.184,100.383,105.396,112.2558,114.351,121.198,126.405,129.7422,131.869,135.047,139.865,142.274,146.517,151.335,154.708,158.6014,160.726,165.164,169.982,172.0214,174.106,176.515,181.527,184.9,188.754,191.552,194.73,196.7694,198.881,204.57,209.49,213.3834,215.435,218.131,220.54,223.913,227.286,230.067,232.217,235.015,239.935,243.307,247.162,251.05540000000002,253.08,257.898,260.307,263.003,265.7,269.072,273.121,276.975,279.774,282.183,286.815" svgx:width="0.29,0.36,0.5,0.81,0.46,0.44,0.36,0.26,0.5,0.52,0.36,0.55,0.88,0.54,0.74,0.55,0.74,0.56,0.36,0.55,0.34,0.52,0.26,0.46,0.52,0.36,0.42,0.55,0.48,0.52,0.22,0.55,0.26,0.54,0.36,0.42,0.3,0.34,0.22,0.55,0.61,0.53,0.42,0.55,0.29,0.26,0.36,0.36,0.3,0.55,0.3,0.53,0.36,0.42,0.42,0.55,0.52,0.26,0.29,0.29,0.36,0.44,0.42,0.3,0.26,0.5,0.54" style="fill:rgb(0,0,0);font-family:AdvOT1ef757c0;font-size:9.27px;stroke:none;">fromvarious MnO NPs (Figure 2d, inset). The first three diffraction</text>
   <text y="606.783" x="42.86,46.232,48.641,53.654,57.897,61.2342,63.666,68.299,70.9873,73.417,76.215,81.135,85.0284,87.42,91.756,98.122,103.329,110.09609999999999,112.479,117.297,121.346,124.215,127.013,130.867,134.24,139.2458,141.676,145.53,150.163,153.536,156.908,160.763,164.135,168.953,173.586,178.598,183.41840000000002,185.84,188.638,193.273,195.705,198.503,203.423,207.3164,209.708,212.886,217.324,221.763,226.201,229.379,231.4184,233.803,236.981,241.419,245.857,250.295,253.4468,255.914,259.962,264.975,269.79540000000003,272.241,275.419,279.857,284.295,288.733" svgx:width="0.36,0.26,0.54,0.46,0.36,0.55,0.5,0.29,0.55,0.3,0.53,0.42,0.55,0.47,0.69,0.56,0.73,0.55,0.52,0.44,0.3,0.3,0.42,0.36,0.54,0.55,0.42,0.5,0.36,0.36,0.42,0.36,0.52,0.5,0.54,0.52,0.55,0.3,0.5,0.55,0.3,0.53,0.42,0.55,0.34,0.48,0.48,0.48,0.34,0.22,0.55,0.34,0.48,0.48,0.48,0.34,0.55,0.44,0.54,0.52,0.55,0.34,0.48,0.48,0.48,0.34" style="fill:rgb(0,0,0);font-family:AdvOT1ef757c0;font-size:9.27px;stroke:none;">rings of the SAED pattern correspond to the (111), (200) and (220)</text>
   <text y="617.384" x="42.86,45.176,49.225,52.023,54.821,57.23,61.085,64.9784,67.352,72.17,74.486,78.535,83.547,87.402,90.774" svgx:width="0.25,0.44,0.3,0.3,0.26,0.42,0.42,0.55,0.52,0.25,0.44,0.54,0.42,0.36,0.22" style="fill:rgb(0,0,0);font-family:AdvOT1ef757c0;font-size:9.27px;stroke:none;">lattice planes.</text>
   <text y="628.269" x="52.101,57.79,62.71,66.6034,69.619,72.991,75.79,79.162,83.98,87.834,90.633,95.451,98.823,102.7164,105.733,109.782,114.795,119.61540000000001,122.628,127.445,132.365,136.414,139.787,143.68040000000002,146.722,151.54,156.358,159.73,162.139,164.938,169.20219999999998,172.234,176.867,179.5553,182.552,185.35,190.27,192.679,196.0162,199.106,207.306,212.318,219.165,226.114,232.2322,235.219,240.232,244.281,249.293,253.926,257.78,262.413,269.937,274.755,279.387,282.76,285.169,287.967" svgx:width="0.61,0.53,0.42,0.55,0.36,0.3,0.36,0.52,0.42,0.3,0.52,0.36,0.42,0.55,0.44,0.54,0.52,0.55,0.52,0.53,0.44,0.36,0.42,0.55,0.52,0.52,0.36,0.26,0.3,0.46,0.55,0.5,0.29,0.55,0.3,0.53,0.26,0.36,0.55,0.88,0.54,0.74,0.75,0.66,0.55,0.54,0.44,0.54,0.5,0.42,0.5,0.81,0.52,0.5,0.36,0.26,0.3,0.42" style="fill:rgb(0,0,0);font-family:AdvOT1ef757c0;font-size:9.27px;stroke:none;">The structure and phase purity of this MnO@C nanocomposite</text>
   <text y="638.871" x="42.86,47.103,50.476,55.109,61.381,66.3868,70.64,75.273,80.27879999999999,84.53,91.377,93.7872,98.079,100.775,105.408,109.457,116.9657,121.21,123.619,126.9562,131.244,133.94,138.758,142.131,144.929,149.849,153.703,157.0402,161.406,165.26,170.18,174.229,177.601,181.65,185.505,188.303,192.157,195.53,197.939,201.793,205.647,210.4674,214.754,219.387,223.6512,227.907,233.883,237.163,240.536,244.585,248.8492,253.079,257.897,260.306,263.002,265.699,269.071,273.12,276.975,279.773,282.182,286.814" svgx:width="0.46,0.36,0.5,0.68,0.54,0.55,0.5,0.54,0.55,0.74,0.26,0.55,0.29,0.5,0.44,0.81,0.55,0.26,0.36,0.55,0.29,0.52,0.36,0.3,0.53,0.42,0.36,0.55,0.42,0.53,0.44,0.36,0.44,0.42,0.3,0.42,0.36,0.26,0.42,0.42,0.52,0.55,0.5,0.46,0.55,0.64,0.35,0.36,0.44,0.46,0.55,0.52,0.26,0.29,0.29,0.36,0.44,0.42,0.3,0.26,0.5,0.54" style="fill:rgb(0,0,0);font-family:AdvOT1ef757c0;font-size:9.27px;stroke:none;">grown on Ni foam is further characterized by X-ray diffraction</text>
   <text y="649.529" x="42.86,46.038,52.014,57.703,64.457,67.635,69.6744,74.608,80.881,85.801,88.21,92.064,96.9771,101.934,106.752,109.161,112.534,117.352,119.668,123.717,127.961,131.2982,136.348,142.62,146.475,148.791,151.107,154.387,157.76,161.614,164.987,169.619,171.936,176.179,180.034,184.8544,189.809,194.627,197.036,199.732,202.429,205.801,209.85,213.705,216.503,218.912,223.544,228.5498,233.577,238.395,242.249,246.298,250.829,254.1662,259.145,263.194,265.975,270.937,275.375,279.813,281.833" svgx:width="0.34,0.64,0.61,0.73,0.34,0.22,0.55,0.68,0.53,0.26,0.42,0.53,0.55,0.52,0.26,0.36,0.52,0.25,0.44,0.46,0.36,0.55,0.68,0.42,0.25,0.25,0.35,0.36,0.42,0.36,0.5,0.25,0.46,0.42,0.52,0.55,0.52,0.26,0.29,0.29,0.36,0.44,0.42,0.3,0.26,0.5,0.54,0.55,0.52,0.42,0.44,0.49,0.36,0.55,0.44,0.3,0.55,0.48,0.48,0.22,0.48" style="fill:rgb(0,0,0);font-family:AdvOT1ef757c0;font-size:9.27px;stroke:none;">(XRD), which displays well-resolved diffraction peaks at 34.9</text>
   <text y="649.529" x="286.298" svgx:width="0.38" style="fill:rgb(0,0,0);font-family:AdvP44E6F4;font-size:9.27px;stroke:none;">u</text>
   <text y="649.529" x="289.87" svgx:width="0.22" style="fill:rgb(0,0,0);font-family:AdvOT1ef757c0;font-size:9.27px;stroke:none;">,</text>
   <text y="660.13" x="42.86,47.298,51.736,53.756" svgx:width="0.48,0.48,0.22,0.48" style="fill:rgb(0,0,0);font-family:AdvOT1ef757c0;font-size:9.27px;stroke:none;">40.5</text>
   <text y="660.13" x="58.167" svgx:width="0.38" style="fill:rgb(0,0,0);font-family:AdvP44E6F4;font-size:9.27px;stroke:none;">u</text>
   <text y="660.13" x="61.739,63.7784,66.728,71.166,75.604,77.624" svgx:width="0.22,0.55,0.48,0.48,0.22,0.48" style="fill:rgb(0,0,0);font-family:AdvOT1ef757c0;font-size:9.27px;stroke:none;">, 58.7</text>
   <text y="660.13" x="82.092" svgx:width="0.38" style="fill:rgb(0,0,0);font-family:AdvP44E6F4;font-size:9.27px;stroke:none;">u</text>
   <text y="660.13" x="85.664,87.7034,90.653,95.091,99.529,101.549" svgx:width="0.22,0.55,0.48,0.48,0.22,0.48" style="fill:rgb(0,0,0);font-family:AdvOT1ef757c0;font-size:9.27px;stroke:none;">, 70.2</text>
   <text y="660.13" x="105.959" svgx:width="0.38" style="fill:rgb(0,0,0);font-family:AdvP44E6F4;font-size:9.27px;stroke:none;">u</text>
   <text y="660.13" x="109.531,111.5704,114.52,118.958,123.397,125.416" svgx:width="0.22,0.55,0.48,0.48,0.22,0.48" style="fill:rgb(0,0,0);font-family:AdvOT1ef757c0;font-size:9.27px;stroke:none;">, 73.8</text>
   <text y="660.13" x="129.884" svgx:width="0.38" style="fill:rgb(0,0,0);font-family:AdvP44E6F4;font-size:9.27px;stroke:none;">u</text>
   <text y="660.13" x="136.404,139.582,144.4,146.809,151.053,155.871,159.243,163.13639999999998,166.055,170.493,174.347,177.525,179.5644,182.553,188.242,193.162,197.016,200.388,204.28140000000002,207.214,212.032,215.887,219.935,224.466,227.8032,230.799,234.848,238.221,242.1144,245.029,251.301,255.156,257.472,259.7895,262.774,265.183,270.195,275.013,278.867,283.204,287.058" svgx:width="0.34,0.52,0.26,0.46,0.52,0.36,0.42,0.55,0.48,0.42,0.34,0.22,0.55,0.61,0.53,0.42,0.36,0.42,0.55,0.52,0.42,0.44,0.49,0.36,0.55,0.44,0.36,0.42,0.55,0.68,0.42,0.25,0.25,0.55,0.26,0.54,0.52,0.42,0.47,0.42,0.52" style="fill:rgb(0,0,0);font-family:AdvOT1ef757c0;font-size:9.27px;stroke:none;">(Figure 2e). These peaks are well indexed</text>
   <text y="670.788" x="42.861,46.91,50.2472,52.669,55.467,60.387,64.2804,66.673,71.111,75.549,79.987,82.0264,84.417,88.856,93.294,97.732,99.7714,102.162,106.6,111.038,115.477,117.5164,119.964,124.402,128.84,133.278,135.3174,137.709,141.758,146.77,151.59040000000002,153.979,158.418,162.856,167.3056,169.741,173.113,176.968,179.664,181.98,185.835,189.689,192.487,194.896,199.529,204.541,207.8782,210.334,214.966,217.6543,220.085,228.284,233.297,240.1568,242.592,245.77,248.753,254.831,260.038,266.793,271.1499,273.546,279.624,283.673,287.046" svgx:width="0.44,0.36,0.55,0.3,0.53,0.42,0.55,0.48,0.48,0.48,0.22,0.55,0.48,0.48,0.48,0.22,0.55,0.48,0.48,0.48,0.22,0.55,0.48,0.48,0.48,0.22,0.55,0.44,0.54,0.52,0.55,0.48,0.48,0.48,0.55,0.36,0.42,0.29,0.25,0.42,0.42,0.3,0.26,0.5,0.54,0.36,0.55,0.5,0.29,0.55,0.88,0.54,0.74,0.55,0.34,0.32,0.66,0.56,0.73,0.47,0.55,0.66,0.44,0.36,0.52" style="fill:rgb(0,0,0);font-family:AdvOT1ef757c0;font-size:9.27px;stroke:none;">as the 111, 200, 220, 311, and 222 reflections of MnO (JCPDS Card</text>
   <text y="681.389" x="42.861,47.873,52.506,54.5454,56.127,60.565,65.003,68.283,72.721,77.159,81.597,86.035,89.293,91.3324,92.921,95.33,100.33579999999999,101.992,106.235,110.868,115.501,120.32140000000001,121.948,125.997,129.852,133.706,138.339,141.711,146.53140000000002,148.198,154.471,156.88,159.678,164.59109999999998,166.283,169.081,174.001,177.89440000000002,179.492,186.534,192.223,197.912,203.119,212.942,216.991,222.003,226.8234,228.476,232.812,239.178,244.385,252.798,256.17,260.025,263.397,268.215,270.531,273.33,276.702,278.7414,280.407,287.254" svgx:width="0.54,0.5,0.22,0.55,0.48,0.48,0.35,0.48,0.48,0.48,0.48,0.34,0.22,0.55,0.26,0.54,0.55,0.46,0.5,0.5,0.52,0.55,0.44,0.42,0.42,0.5,0.36,0.52,0.55,0.68,0.26,0.3,0.53,0.55,0.3,0.53,0.42,0.55,0.76,0.61,0.61,0.56,0.88,0.44,0.54,0.52,0.55,0.47,0.69,0.56,0.73,0.36,0.42,0.36,0.52,0.25,0.3,0.36,0.22,0.55,0.74,0.5" style="fill:rgb(0,0,0);font-family:AdvOT1ef757c0;font-size:9.27px;stroke:none;">no. 07-0230), in good accord with the HRTEMand SAEDresults. No</text>
   <text y="692.047" x="42.861,46.91,51.728,56.546,58.955,61.753,64.162,68.794,73.807,77.856,80.17349999999999,83.227,88.045,91.899,95.948,100.479,103.8162,106.868,111.501,114.299,119.219,123.073,126.41019999999999,129.488,132.287,137.206,141.255,146.2608,149.275,152.073,156.993,160.88639999999998,163.845,170.692,173.1022,176.148,178.844,183.476,187.525,195.0337,198.031,202.08,205.453,209.34640000000002,212.318,216.951,221.584,224.956,228.811,232.183,236.427,240.281,245.1014,248.149,251.327,256.145,258.554,262.798,267.616,270.988,274.8814,277.913,282.249,286.687,289.865" svgx:width="0.44,0.52,0.52,0.26,0.3,0.26,0.5,0.54,0.44,0.25,0.55,0.52,0.42,0.44,0.49,0.36,0.55,0.5,0.3,0.53,0.42,0.36,0.55,0.3,0.53,0.44,0.54,0.55,0.3,0.53,0.42,0.55,0.74,0.26,0.55,0.29,0.5,0.44,0.81,0.55,0.44,0.36,0.42,0.55,0.5,0.5,0.36,0.42,0.36,0.46,0.42,0.52,0.55,0.34,0.52,0.26,0.46,0.52,0.36,0.42,0.55,0.47,0.48,0.34,0.22" style="fill:rgb(0,0,0);font-family:AdvOT1ef757c0;font-size:9.27px;stroke:none;">additional peaks other than the Ni foam are observed (Figure S3),</text>
   <text y="702.648" x="42.861,45.27,50.282,55.1,57.509,61.364,65.412,68.211,70.62,75.632,79.89620000000001,83.17,85.968,90.888,94.7814,98.024,102.943,105.352,109.596,114.5091,117.81,122.628,127.445,130.818,133.227,136.025,140.2892,143.549,148.181,150.8693,154.15,156.948,161.868,165.76139999999998,169.003,173.636,178.268,181.067,185.116,187.524,192.537,196.391,201.2114,204.493,212.693,217.705,224.56480000000002,227.851,234.698,239.905,243.278,245.3174,248.6,254.289,259.209,263.1024,266.345,270.2,274.249,277.621,282.254,286.887" svgx:width="0.26,0.54,0.52,0.26,0.42,0.44,0.3,0.26,0.54,0.46,0.55,0.3,0.53,0.42,0.55,0.53,0.26,0.46,0.53,0.55,0.52,0.52,0.36,0.26,0.3,0.46,0.55,0.5,0.29,0.55,0.3,0.53,0.42,0.55,0.5,0.5,0.3,0.44,0.26,0.54,0.42,0.52,0.55,0.88,0.54,0.74,0.55,0.74,0.56,0.36,0.22,0.55,0.61,0.53,0.42,0.55,0.42,0.44,0.36,0.5,0.5,0.54" style="fill:rgb(0,0,0);font-family:AdvOT1ef757c0;font-size:9.27px;stroke:none;">indicating the high purity of the obtained MnO NPs. The carbon</text>
   <text y="713.306" x="42.861,46.715,51.348,55.397,58.195,60.604,65.616,69.8802,72.455,74.864,78.2012,80.846,84.7,89.333,94.345,97.041,99.45,102.823,110.346,114.201,119.0214,121.608,126.241,130.5052,133.117,135.915,140.835,144.72840000000002,147.233,152.922,156.971,164.495,168.544,173.5498,176.204,179.577,184.395,188.249,192.103,194.902,198.274,202.3528,204.948,211.221,213.63,216.428,221.34109999999998,223.94,226.738,233.011,237.646,240.211,244.843,248.892,253.905,258.723,262.0602,264.703,268.752,271.533,274.171,278.609,283.047,287.485" svgx:width="0.42,0.5,0.44,0.3,0.26,0.54,0.46,0.55,0.26,0.36,0.55,0.42,0.5,0.54,0.29,0.26,0.36,0.81,0.42,0.52,0.55,0.5,0.46,0.55,0.3,0.53,0.42,0.55,0.61,0.44,0.81,0.44,0.54,0.55,0.36,0.52,0.42,0.42,0.3,0.36,0.44,0.55,0.68,0.26,0.3,0.53,0.55,0.3,0.68,0.5,0.55,0.5,0.44,0.54,0.52,0.36,0.55,0.44,0.3,0.55,0.48,0.48,0.48,0.48" style="fill:rgb(0,0,0);font-family:AdvOT1ef757c0;font-size:9.27px;stroke:none;">coating is confirmed by the Raman spectra with two bands at 1578</text>
   <text y="723.964" x="42.861,46.91,51.922,56.742399999999996,58.848,63.286,67.724,72.162,76.61160000000001,79.712,83.566" svgx:width="0.44,0.54,0.52,0.55,0.48,0.48,0.48,0.48,0.55,0.42,0.81" style="fill:rgb(0,0,0);font-family:AdvOT1ef757c0;font-size:9.27px;stroke:none;">and 1364 cm</text>
   <text y="720.51" x="91.105" svgx:width="0.83" style="fill:rgb(0,0,0);font-family:AdvP414BFB;font-size:5.13px;stroke:none;">2</text>
   <text y="720.51" x="95.868" svgx:width="0.48" style="fill:rgb(0,0,0);font-family:AdvOT1ef757c0;font-size:5.13px;stroke:none;">1</text>
   <text y="723.968" x="100.743,103.921,108.739,111.148,115.392,120.21,123.582,127.4754,129.6,133.936,138.374,141.552,143.5914,145.701,149.75,152.548,155.347,158.719,161.128,165.761,170.579,173.377,177.231,182.0514,184.197,186.995,191.63,193.722,196.52,201.44,205.33339999999998,207.385,213.945,217.225,221.857,225.906,230.919,235.73940000000002,237.886,241.935,246.948,251.7684,253.874,260.628,263.908,268.541,272.59,277.602,282.4224,284.545,289.177" svgx:width="0.34,0.52,0.26,0.46,0.52,0.36,0.42,0.55,0.47,0.48,0.34,0.22,0.55,0.44,0.3,0.3,0.36,0.26,0.5,0.52,0.3,0.42,0.52,0.55,0.3,0.5,0.55,0.3,0.53,0.42,0.55,0.71,0.35,0.5,0.44,0.54,0.52,0.55,0.44,0.54,0.52,0.55,0.73,0.35,0.5,0.44,0.54,0.52,0.55,0.5,0.29" style="fill:rgb(0,0,0);font-family:AdvOT1ef757c0;font-size:9.27px;stroke:none;">(Figure S4), attributed to the G-band and D-band of</text>
   <text y="734.57" x="42.86,46.715,50.763,54.136,58.769,63.401,68.414,70.4534,72.341,74.75,79.762,84.58,86.989,90.843,94.892,97.69,100.099,105.112,109.3762,111.346,114.144,119.064,122.95739999999999,124.782,128.636,132.973,135.382,138.754,141.552,145.407,150.419,154.376,158.26940000000002,160.102,164.735,167.4233,169.344,173.976,178.609,181.407,186.32010000000002,188.223,191.595" svgx:width="0.42,0.44,0.36,0.5,0.5,0.54,0.22,0.55,0.26,0.54,0.52,0.26,0.42,0.44,0.3,0.26,0.54,0.46,0.55,0.3,0.53,0.42,0.55,0.42,0.47,0.26,0.36,0.3,0.42,0.54,0.42,0.42,0.55,0.5,0.29,0.55,0.5,0.5,0.3,0.53,0.55,0.36,0.52" style="fill:rgb(0,0,0);font-family:AdvOT1ef757c0;font-size:9.27px;stroke:none;">carbon, indicating the existence of both sp</text>
   <text y="731.168" x="196.441" svgx:width="0.48" style="fill:rgb(0,0,0);font-family:AdvOT1ef757c0;font-size:5.13px;stroke:none;">2</text>
   <text y="734.57" x="201.09,205.139,210.151,214.97140000000002,216.907,220.28" svgx:width="0.44,0.54,0.52,0.55,0.36,0.52" style="fill:rgb(0,0,0);font-family:AdvOT1ef757c0;font-size:9.27px;stroke:none;">and sp</text>
   <text y="731.168" x="225.128" svgx:width="0.48" style="fill:rgb(0,0,0);font-family:AdvOT1ef757c0;font-size:5.13px;stroke:none;">3</text>
   <text y="734.57" x="229.776,233.631,237.68,241.052,245.685,250.317,255.33,258.703,260.7424,262.659,266.031,269.886,273.258,278.076,281.931,285.785,288.583" svgx:width="0.42,0.44,0.36,0.5,0.5,0.54,0.36,0.22,0.55,0.36,0.42,0.36,0.52,0.42,0.42,0.3,0.35" style="fill:rgb(0,0,0);font-family:AdvOT1ef757c0;font-size:9.27px;stroke:none;">carbons, respect-</text>
   <text y="745.228" x="42.86,45.269,49.512,53.367,55.683,59.927,61.9664,65.198,70.887,75.806,79.6994,82.943,86.992,94.515,99.148,103.966,108.978,111.759,115.088,119.72,122.4083,125.689,133.889,138.901,145.76080000000002,149.047,151.456,156.46179999999998,159.705,162.503,167.423,171.3164,174.559,179.571,183.62,188.633,193.265,197.12,201.753,209.276,214.094,218.727,222.099,224.508,227.306,231.19940000000003,234.484,236.893,240.2302,243.555,248.28,253.098,257.147,262.159,264.958,267.367,270.063,272.472,276.326,281.1464,284.488,288.537" svgx:width="0.26,0.46,0.42,0.25,0.46,0.22,0.55,0.61,0.53,0.42,0.55,0.44,0.81,0.5,0.52,0.54,0.3,0.55,0.5,0.29,0.55,0.88,0.54,0.74,0.55,0.26,0.54,0.55,0.3,0.53,0.42,0.55,0.54,0.44,0.54,0.5,0.42,0.5,0.81,0.52,0.5,0.36,0.26,0.3,0.42,0.55,0.26,0.36,0.55,0.51,0.52,0.44,0.54,0.3,0.26,0.29,0.26,0.42,0.52,0.55,0.44,0.36" style="fill:rgb(0,0,0);font-family:AdvOT1ef757c0;font-size:9.27px;stroke:none;">ively. The amount of MnO in the nanocomposite is quantified as</text>
   <text y="553.607" x="303.874" svgx:width="0.83" style="fill:rgb(0,0,0);font-family:AdvP7DB7;font-size:9.27px;stroke:none;">,</text>
   <text y="553.607" x="311.584,316.022,320.46,322.48,326.918,333.867,335.9064,339.081,346.604,350.459,354.508,357.88,362.698,366.071,369.925,374.7454,377.973,382.606,386.8702,390.048,392.457,397.47,402.288,407.106,410.96,413.758,416.167,420.411,424.265,426.582,430.8462,434.043,437.897,442.53,447.348,452.166,454.482,458.337,463.1574,466.358,471.176,473.493,477.542,480.914,488.438,492.5168,495.726,498.904,501.989,508.067,513.274,516.452,518.4914,521.635,526.453,531.271,534.644,537.442,542.362,546.216,549.589" svgx:width="0.48,0.48,0.22,0.48,0.75,0.22,0.55,0.81,0.42,0.44,0.36,0.52,0.36,0.42,0.52,0.55,0.5,0.46,0.55,0.26,0.54,0.52,0.52,0.42,0.3,0.26,0.46,0.42,0.25,0.46,0.55,0.42,0.5,0.52,0.52,0.25,0.42,0.52,0.55,0.52,0.25,0.44,0.36,0.81,0.44,0.55,0.34,0.33,0.66,0.56,0.34,0.22,0.55,0.52,0.52,0.36,0.3,0.53,0.42,0.36,0.35" style="fill:rgb(0,0,0);font-family:AdvOT1ef757c0;font-size:9.27px;stroke:none;">84.3%, measured by inductively coupled plasma (ICP). Further-</text>
   <text y="564.264" x="303.874,311.397,316.03,319.402,323.257,325.2964,329.442,332.24,337.16,341.0534,345.146" svgx:width="0.81,0.5,0.36,0.42,0.22,0.55,0.3,0.53,0.42,0.55,0.74" style="fill:rgb(0,0,0);font-family:AdvOT1ef757c0;font-size:9.27px;stroke:none;">more, the N</text>
   <text y="565.795" x="352.006" svgx:width="0.48" style="fill:rgb(0,0,0);font-family:AdvOT1ef757c0;font-size:6.18px;stroke:none;">2</text>
   <text y="564.265" x="359.49,362.862,367.495,370.867,375.685,378.484,380.893,385.525,390.5308,394.753,397.162,400.535,405.168,407.966,412.886,416.74,420.113,427.6217,431.774,436.406,439.09430000000003,443.282,446.08,451.0,454.8934,458.986,467.186,472.198,479.045,485.994,492.11220000000003,496.233,501.246,505.295,510.307,514.94,518.794,523.427,530.951,535.768,540.401,543.774,546.183,548.981" svgx:width="0.36,0.5,0.36,0.52,0.3,0.26,0.5,0.54,0.55,0.26,0.36,0.5,0.3,0.53,0.42,0.36,0.81,0.55,0.5,0.29,0.55,0.3,0.53,0.42,0.55,0.88,0.54,0.74,0.75,0.66,0.55,0.54,0.44,0.54,0.5,0.42,0.5,0.81,0.52,0.5,0.36,0.26,0.3,0.42" style="fill:rgb(0,0,0);font-family:AdvOT1ef757c0;font-size:9.27px;stroke:none;">sorption isotherm of the MnO@C nanocomposite</text>
   <text y="574.922" x="303.874,307.246,312.166,316.799,323.071,326.4082,330.803,334.8818,339.251,342.049,346.292,351.11,353.519,357.373,361.422,363.7395,368.107,370.905,375.149,379.967,383.821,387.101,390.187,396.676,401.046,404.901,409.719,413.091,417.335,421.22839999999997,425.595,429.644,434.656,439.4764,443.85,447.9288,452.297,457.115,459.524,462.897,465.695,468.104,473.117,476.971,479.752,484.159,488.013,492.646,497.658,502.476,506.331,511.343,514.716,518.765,521.563,523.972,528.605,533.6108,538.018,541.391,544.189,548.043" svgx:width="0.36,0.53,0.5,0.68,0.36,0.55,0.44,0.55,0.3,0.46,0.52,0.26,0.42,0.44,0.25,0.55,0.3,0.46,0.52,0.42,0.35,0.33,0.7,0.55,0.42,0.52,0.36,0.46,0.42,0.55,0.44,0.54,0.52,0.55,0.44,0.55,0.52,0.26,0.36,0.3,0.26,0.54,0.42,0.3,0.55,0.42,0.5,0.54,0.52,0.42,0.54,0.36,0.44,0.3,0.26,0.5,0.54,0.55,0.36,0.3,0.42,0.52" style="fill:rgb(0,0,0);font-family:AdvOT1ef757c0;font-size:9.27px;stroke:none;">shows a typical type-IV curve and a distinct condensation step</text>
   <text y="585.58" x="303.874,307.052,311.87,314.279,318.522,323.34,326.713,330.6064,335.395,339.833,342.53,345.708,347.7474,352.573,354.982,359.995,364.813,367.222,371.076,375.125,377.923,380.332,385.344,389.6082,394.47,397.268,402.188,406.0814,410.855,414.709,419.045,421.454,424.827,427.625,431.479,436.492,440.346,444.2394,449.067,453.699,456.38730000000004,461.199,468.722,472.576,475.949,480.582,485.4,490.032,493.405,497.29839999999996,502.132,505.504,508.302,511.675,516.493,520.347,523.145,527.963,531.336,535.19" svgx:width="0.34,0.52,0.26,0.46,0.52,0.36,0.42,0.55,0.48,0.29,0.34,0.22,0.55,0.26,0.54,0.52,0.26,0.42,0.44,0.3,0.26,0.54,0.46,0.55,0.3,0.53,0.42,0.55,0.42,0.47,0.26,0.36,0.3,0.42,0.54,0.42,0.42,0.55,0.5,0.29,0.55,0.81,0.42,0.36,0.5,0.52,0.5,0.36,0.42,0.55,0.36,0.3,0.36,0.52,0.42,0.3,0.52,0.36,0.42,0.36" style="fill:rgb(0,0,0);font-family:AdvOT1ef757c0;font-size:9.27px;stroke:none;">(Figure 2f), indicating the existence of mesopore structures</text>
   <text y="582.179" x="538.639,541.402,544.164,545.422,548.184" svgx:width="0.48,0.48,0.22,0.48,0.48" style="fill:rgb(0,0,0);font-family:AdvOT1ef757c0;font-size:5.13px;stroke:none;">28,29</text>
   <text y="585.581" x="550.885" svgx:width="0.22" style="fill:rgb(0,0,0);font-family:AdvOT1ef757c0;font-size:9.27px;stroke:none;">.</text>
   <text y="596.239" x="303.875,309.564,314.484,318.37739999999997,320.543,323.916,328.734,332.106,334.802,338.851,342.706,346.5994,348.833,352.882,356.254,360.109,364.1878,366.408" svgx:width="0.61,0.53,0.42,0.55,0.36,0.52,0.36,0.29,0.44,0.42,0.42,0.55,0.44,0.36,0.42,0.44,0.55,0.34" style="fill:rgb(0,0,0);font-family:AdvOT1ef757c0;font-size:9.27px;stroke:none;">The surface area (</text>
   <text y="596.239" x="369.638" svgx:width="0.46" style="fill:rgb(0,0,0);font-family:AdvOT7d6df7ab.I;font-size:9.27px;stroke:none;">S</text>
   <text y="597.77" x="373.89,377.941,381.846" svgx:width="0.58,0.56,0.61" style="fill:rgb(0,0,0);font-family:AdvOT1ef757c0;font-size:6.18px;stroke:none;">BET</text>
   <text y="596.239" x="386.135,389.28679999999997,391.521,393.93,397.2672,399.515,403.37,407.419,409.735,413.589,418.407,420.724,424.773,427.571,431.425,436.2454,438.52,442.569,445.9062,448.215,452.653,457.1026,460.177" svgx:width="0.34,0.55,0.26,0.36,0.55,0.42,0.44,0.25,0.42,0.52,0.25,0.44,0.3,0.42,0.52,0.55,0.44,0.36,0.55,0.48,0.48,0.55,0.81" style="fill:rgb(0,0,0);font-family:AdvOT1ef757c0;font-size:9.27px;stroke:none;">) is calculated as 28 m</text>
   <text y="592.838" x="467.716" svgx:width="0.48" style="fill:rgb(0,0,0);font-family:AdvOT1ef757c0;font-size:5.13px;stroke:none;">2</text>
   <text y="596.239" x="472.705" svgx:width="0.46" style="fill:rgb(0,0,0);font-family:AdvOT1ef757c0;font-size:9.27px;stroke:none;">g</text>
   <text y="592.838" x="476.901" svgx:width="0.83" style="fill:rgb(0,0,0);font-family:AdvP414BFB;font-size:5.13px;stroke:none;">2</text>
   <text y="592.838" x="481.719" svgx:width="0.48" style="fill:rgb(0,0,0);font-family:AdvOT1ef757c0;font-size:5.13px;stroke:none;">1</text>
   <text y="596.239" x="484.497,486.5364,488.749,495.022,499.942,502.351,506.205,511.11809999999997,513.354,515.763,519.1002000000001,521.348,525.203,529.835,537.359,542.177,546.226,549.598" svgx:width="0.22,0.55,0.68,0.53,0.26,0.42,0.53,0.55,0.26,0.36,0.55,0.42,0.5,0.81,0.52,0.44,0.36,0.35" style="fill:rgb(0,0,0);font-family:AdvOT1ef757c0;font-size:9.27px;stroke:none;">, which is compar-</text>
   <text y="606.897" x="303.874,307.923,312.556,314.872,318.7654,320.485,323.283,327.918,329.67,337.87,342.882" svgx:width="0.44,0.5,0.25,0.42,0.55,0.3,0.5,0.55,0.88,0.54,0.74" style="fill:rgb(0,0,0);font-family:AdvOT1ef757c0;font-size:9.27px;stroke:none;">able to MnO</text>
   <text y="608.428" x="349.795" svgx:width="0.48" style="fill:rgb(0,0,0);font-family:AdvOT1ef757c0;font-size:6.18px;stroke:none;">2</text>
   <text y="606.898" x="354.898,359.91,363.959,368.972,373.604,376.977,379.775,383.148,387.965,391.82,394.618,399.436,402.809,406.663,410.0002,411.875,416.693,420.065,424.698,429.516,434.334,438.188,442.042,446.8624,448.669,453.487,458.5,463.317,467.172,470.5092,472.367,475.739,478.148,485.672,488.081,490.397,494.446,497.7832,499.58,502.378,506.232,513.756,518.574,522.428,525.801,529.85,532.648,537.466,540.838,544.693" svgx:width="0.54,0.44,0.54,0.5,0.36,0.3,0.36,0.52,0.42,0.3,0.52,0.36,0.42,0.36,0.55,0.52,0.36,0.5,0.52,0.52,0.42,0.42,0.52,0.55,0.52,0.54,0.52,0.42,0.36,0.55,0.36,0.26,0.81,0.26,0.25,0.44,0.36,0.55,0.3,0.42,0.81,0.52,0.42,0.36,0.44,0.3,0.52,0.36,0.42,0.36" style="fill:rgb(0,0,0);font-family:AdvOT1ef757c0;font-size:9.27px;stroke:none;">nanostructures produced under similar temperatures</text>
   <text y="603.496" x="548.164" svgx:width="0.48" style="fill:rgb(0,0,0);font-family:AdvOT1ef757c0;font-size:5.13px;stroke:none;">1</text>
   <text y="606.898" x="550.885" svgx:width="0.22" style="fill:rgb(0,0,0);font-family:AdvOT1ef757c0;font-size:9.27px;stroke:none;">.</text>
   <text y="617.555" x="303.875,309.564,314.484,318.37739999999997,320.429,325.247,329.88,333.252,337.1454,339.252,342.624,345.033,348.887,352.7804,354.899,359.717,363.571,366.944,369.353,373.596,377.451,382.2714,384.437,387.133,390.505,395.138,404.79,407.588,412.508,416.40139999999997,418.51,422.559,427.377,430.749,435.382,438.754,443.572,446.37,448.779,453.412,458.4178,460.576,465.209,468.581,472.63,477.643,481.497,486.4101,488.582,491.955,496.875,501.507,507.78,511.11719999999997,513.244,517.3228,519.423,522.795,526.65,528.966,533.015,535.813,538.222,542.466,546.32,548.636" svgx:width="0.61,0.53,0.42,0.55,0.52,0.5,0.36,0.42,0.55,0.36,0.26,0.42,0.42,0.55,0.52,0.42,0.36,0.26,0.46,0.42,0.52,0.55,0.29,0.36,0.5,0.81,0.3,0.53,0.42,0.55,0.44,0.52,0.36,0.5,0.36,0.52,0.3,0.26,0.5,0.54,0.55,0.5,0.36,0.44,0.54,0.42,0.53,0.55,0.36,0.53,0.5,0.68,0.36,0.55,0.44,0.55,0.36,0.42,0.25,0.44,0.3,0.26,0.46,0.42,0.25,0.46" style="fill:rgb(0,0,0);font-family:AdvOT1ef757c0;font-size:9.27px;stroke:none;">The pore size derived fromthe adsorption branch shows a relatively</text>
   <text y="628.213" x="303.875,308.887,312.936,316.309,319.681,324.314,330.61760000000004,333.186,338.003,340.412,343.785,346.583,349.956,352.365,356.997,361.815,364.613,367.022,371.655,376.6608,379.334,383.967,386.6553,389.255,393.693,398.419,402.857,407.3066,410.403,415.415,422.9237,425.483,428.661,433.479,435.888,440.131,444.949,448.322,452.2154,454.85,459.288,461.984,464.0234,466.585,468.994,474.007,477.38,481.234,484.032,487.21,489.2494,491.87,497.559,502.479,506.37239999999997,508.935,512.308,517.126,520.498,523.195,527.244,531.098,534.9914,537.566,541.615,544.988,548.842" svgx:width="0.54,0.44,0.36,0.36,0.5,0.68,0.55,0.52,0.26,0.36,0.3,0.36,0.26,0.5,0.52,0.3,0.26,0.5,0.54,0.55,0.5,0.29,0.55,0.48,0.51,0.48,0.48,0.55,0.54,0.81,0.55,0.34,0.52,0.26,0.46,0.52,0.36,0.42,0.55,0.48,0.29,0.22,0.55,0.26,0.54,0.36,0.42,0.3,0.34,0.22,0.55,0.61,0.53,0.42,0.55,0.36,0.52,0.36,0.29,0.44,0.42,0.42,0.55,0.44,0.36,0.42,0.44" style="fill:rgb(0,0,0);font-family:AdvOT1ef757c0;font-size:9.27px;stroke:none;">narrow distribution of 5–40 nm (Figure 2f, inset). The surface area</text>
   <text y="638.871" x="303.875,307.924,312.936,317.7564,320.883,323.199,327.248,330.621,334.864,338.75739999999996,341.86,346.678,351.31,354.683,358.5764,361.646,365.018,367.427,371.282,375.17539999999997,378.257,382.306,385.678,389.5714,392.713,397.346,401.2,406.213,410.067,412.763,415.172,419.027,421.436,425.485,427.8025,430.925,433.621,438.254,441.5912,444.758,449.576,452.949,457.582,461.825,464.234,469.052,471.461,476.473,480.73720000000003,483.877,487.25,492.068,494.764,497.46,499.869,503.724,506.133,509.987,514.999,517.78,520.955,523.364,528.377,531.175,535.029,538.402,541.098,545.147,549.001" svgx:width="0.44,0.54,0.52,0.55,0.25,0.44,0.36,0.46,0.42,0.55,0.52,0.5,0.36,0.42,0.55,0.36,0.26,0.42,0.42,0.55,0.44,0.36,0.42,0.55,0.5,0.42,0.54,0.42,0.29,0.26,0.42,0.26,0.44,0.25,0.55,0.29,0.5,0.36,0.55,0.52,0.36,0.5,0.46,0.26,0.52,0.26,0.54,0.46,0.55,0.36,0.52,0.29,0.29,0.26,0.42,0.26,0.42,0.54,0.3,0.55,0.26,0.54,0.3,0.42,0.36,0.29,0.44,0.42,0.42" style="fill:rgb(0,0,0);font-family:AdvOT1ef757c0;font-size:9.27px;stroke:none;">and large pore size are beneficial for providing sufficient interface</text>
   <text y="649.529" x="303.875,308.507,312.362,315.16,321.433,325.287,329.141,334.14680000000004,336.587,339.385,344.305,348.1984,350.59,354.445,356.761,360.616,364.47,367.268,370.641,375.273,379.322,383.177,385.975,388.384,392.627,396.5204,398.95,406.473,410.522,413.32,417.175,420.547,422.956,427.005,429.321,432.6582,435.121,439.17,444.182,449.0024,451.448,454.246,459.166,463.0594,465.452,469.306,471.622,475.477,479.331,482.129,485.502,490.134,492.451,496.694,499.492,503.347" svgx:width="0.5,0.42,0.3,0.68,0.42,0.42,0.54,0.55,0.3,0.53,0.42,0.55,0.42,0.25,0.42,0.42,0.3,0.36,0.5,0.44,0.42,0.3,0.26,0.46,0.42,0.55,0.81,0.44,0.3,0.42,0.36,0.26,0.44,0.25,0.36,0.55,0.44,0.54,0.52,0.55,0.3,0.53,0.42,0.55,0.42,0.25,0.42,0.42,0.3,0.36,0.5,0.25,0.46,0.3,0.42,0.22" style="fill:rgb(0,0,0);font-family:AdvOT1ef757c0;font-size:9.27px;stroke:none;">between the electroactive materials and the electrolyte.</text>
   <text y="670.619" x="303.875,308.887,311.583,314.669,319.681,322.378,327.492,335.21,338.295,340.992,345.809,351.0002,352.972,357.891,362.135,365.22,368.306,372.262,375.922,380.18620000000004,382.112,386.355,391.562,396.38,401.393" svgx:width="0.54,0.29,0.33,0.54,0.29,0.55,0.83,0.33,0.29,0.52,0.56,0.55,0.53,0.46,0.33,0.33,0.43,0.4,0.46,0.55,0.46,0.56,0.52,0.54,0.43" style="fill:rgb(0,0,0);font-family:AdvOTb65e897d.B;font-size:9.27px;stroke:none;">Lithium-ion battery anode</text>
   <text y="670.619" x="405.355" svgx:width="0.24" style="fill:rgb(0,0,0);font-family:AdvOT5e4d79fc;font-size:9.27px;stroke:none;">.</text>
   <text y="670.619" x="409.494,415.183,420.102,423.99539999999996,425.878,429.733,432.049,435.903,439.758,442.556,445.928,450.561,454.416,459.335,463.19,470.713,473.122,476.977,481.025,483.3425,485.293,488.666,491.464,496.096,499.469,503.518,507.761,511.6544,513.583,517.437,521.486,526.304,530.353,534.207,536.616,539.414,543.6782,545.615,550.247" svgx:width="0.61,0.53,0.42,0.55,0.42,0.25,0.42,0.42,0.3,0.36,0.5,0.42,0.53,0.42,0.81,0.26,0.42,0.44,0.25,0.55,0.36,0.3,0.5,0.36,0.44,0.46,0.42,0.55,0.42,0.44,0.52,0.44,0.42,0.26,0.3,0.46,0.55,0.5,0.29" style="fill:rgb(0,0,0);font-family:AdvOT1ef757c0;font-size:9.27px;stroke:none;">The electrochemical storage capacity of</text>
   <text y="681.277" x="303.875,306.673,311.593,315.4864,318.388,323.021,327.653,330.451,334.5,336.909,341.922,345.776,350.5964,353.595,361.795,366.807,373.655,380.604,386.7222,389.652,394.665,398.714,403.726,408.359,412.213,416.846,424.369,429.187,433.82,437.192,439.601,442.399,446.254,449.5912,452.638,455.047,458.3842,461.369,464.065,466.474,469.847,473.219,476.0,479.001,481.41,486.422,490.666,494.52,497.893,500.691,503.1,507.344,511.392,514.191,518.045,522.8653999999999,525.83,528.526,533.158,536.4952000000001,539.493,544.413,547.498" svgx:width="0.3,0.53,0.42,0.55,0.5,0.5,0.3,0.44,0.26,0.54,0.42,0.52,0.55,0.88,0.54,0.74,0.75,0.66,0.55,0.54,0.44,0.54,0.5,0.42,0.5,0.81,0.52,0.5,0.36,0.26,0.3,0.42,0.36,0.55,0.26,0.36,0.55,0.29,0.26,0.36,0.36,0.3,0.55,0.26,0.54,0.46,0.42,0.36,0.3,0.26,0.46,0.44,0.3,0.42,0.52,0.55,0.29,0.5,0.36,0.55,0.53,0.33,0.58" style="fill:rgb(0,0,0);font-family:AdvOT1ef757c0;font-size:9.27px;stroke:none;">the obtained MnO@C nanocomposites is first investigated for LIB</text>
   <text y="691.934" x="303.875,307.924,312.936,317.569,322.387,326.241,329.614,331.6534,333.696,339.969,344.889,348.743,352.115,356.0084,358.017,360.816,365.735,369.6284,371.681,376.499,379.872,383.726,387.58,392.398,395.771,399.143,403.776,407.1132,409.212,412.585,417.217,419.534,424.351,427.15,429.559,434.191,439.1968,441.3,443.709,447.0462,449.124,453.942,456.351,459.724,463.578,467.432,470.23,472.547,476.81120000000004,478.831,482.686,487.318,491.367,494.165,498.02,502.8404,504.91,509.543,514.5488,516.589,520.6678,522.712,529.559,531.9692,533.994,536.69,541.323,545.372" svgx:width="0.44,0.54,0.5,0.52,0.42,0.36,0.22,0.55,0.68,0.53,0.42,0.36,0.42,0.55,0.3,0.53,0.42,0.55,0.52,0.36,0.42,0.42,0.52,0.36,0.36,0.5,0.36,0.55,0.36,0.5,0.25,0.52,0.3,0.26,0.5,0.54,0.55,0.26,0.36,0.55,0.52,0.26,0.36,0.42,0.42,0.3,0.25,0.46,0.55,0.42,0.5,0.44,0.3,0.42,0.52,0.55,0.5,0.54,0.55,0.44,0.55,0.74,0.26,0.55,0.29,0.5,0.44,0.81" style="fill:rgb(0,0,0);font-family:AdvOT1ef757c0;font-size:9.27px;stroke:none;">anodes, where the precursor solution is directly coated on a Ni foam</text>
   <text y="702.592" x="303.875,307.247,312.065,316.698,320.07,322.869,326.241,330.29,333.088,336.9814,339.422,344.055,347.909,350.605,355.238,358.61,362.5034,364.878,367.676,372.596,376.45,379.822,387.346,391.395,393.7125,396.172,398.97,402.343,406.197,410.246,413.044,420.568,424.422,429.435,432.233,434.2724,436.765,443.038,445.447,448.245,453.165,457.797,462.615,465.396,467.834,471.883,476.701,481.519,483.927,488.94,493.2042,495.67,499.719,504.732,508.99620000000004,511.432,515.286,519.919,524.931,529.749,534.567,538.421,541.219,543.628,548.641" svgx:width="0.36,0.52,0.5,0.36,0.3,0.36,0.44,0.3,0.42,0.55,0.5,0.42,0.29,0.5,0.36,0.42,0.55,0.3,0.53,0.42,0.36,0.81,0.44,0.25,0.55,0.3,0.36,0.42,0.44,0.3,0.81,0.42,0.54,0.3,0.22,0.55,0.68,0.26,0.3,0.53,0.5,0.52,0.3,0.55,0.44,0.52,0.52,0.26,0.54,0.46,0.55,0.44,0.54,0.46,0.55,0.42,0.5,0.54,0.52,0.52,0.42,0.3,0.26,0.54,0.46" style="fill:rgb(0,0,0);font-family:AdvOT1ef757c0;font-size:9.27px;stroke:none;">substrate before thermal treatment, without adding any conducting</text>
   <text y="713.25" x="303.875,308.693,313.325,315.642,319.885,327.409,331.263,334.636,337.9732,340.273,344.905,348.24219999999997,350.534,355.167,357.576,362.588,367.406,371.26,374.633,378.005,380.0444,382.339,388.417,392.66,396.515,398.831,401.24,405.1334,407.398,411.641,416.274,418.59,421.388,425.437,432.961,440.484,444.339,447.137,450.509,454.77320000000003,457.062,460.24,466.318,472.776,475.9278,478.209,481.007,484.861,488.234,491.032,494.3692,496.691,500.74,504.113,508.0064,510.241,512.937,515.346,518.719,522.091,524.872,527.135,530.99,535.038,538.411,541.784,544.193,548.047" svgx:width="0.52,0.5,0.25,0.46,0.81,0.42,0.36,0.36,0.55,0.5,0.36,0.55,0.5,0.26,0.54,0.52,0.42,0.36,0.36,0.22,0.55,0.66,0.46,0.42,0.25,0.26,0.42,0.55,0.46,0.5,0.25,0.3,0.44,0.81,0.81,0.42,0.3,0.36,0.46,0.55,0.34,0.66,0.7,0.34,0.55,0.3,0.42,0.36,0.3,0.36,0.55,0.44,0.36,0.42,0.55,0.29,0.26,0.36,0.36,0.3,0.55,0.42,0.44,0.36,0.36,0.26,0.42,0.52" style="fill:rgb(0,0,0);font-family:AdvOT1ef757c0;font-size:9.27px;stroke:none;">polymers or binders. Cyclic voltammetry (CV) tests are first carried</text>
   <text y="723.908" x="303.875,308.507,313.325,316.106,319.012,321.81,326.445,329.273,333.127,338.047,342.096,345.469,349.518,353.372,356.17,360.024,363.397,365.806,369.66,373.5534,376.442,379.241,384.16,388.0534,390.899,394.753,397.07,400.924,404.779,407.577,410.949,415.582,419.436,424.356,428.21,435.734,438.143,441.997,446.046,448.3635,451.335,454.707,458.562,462.611,466.465,469.263,471.672,476.305,481.31080000000003,484.217,487.395,492.213,494.622,498.866,503.684,507.056,510.94939999999997,513.812,518.25,522.299,525.477,527.5164,530.366,533.451,538.4568,541.365,544.163,549.083" svgx:width="0.5,0.52,0.3,0.55,0.3,0.5,0.55,0.42,0.53,0.44,0.36,0.44,0.42,0.3,0.42,0.36,0.26,0.42,0.42,0.55,0.3,0.53,0.42,0.55,0.42,0.25,0.42,0.42,0.3,0.36,0.5,0.42,0.53,0.42,0.81,0.26,0.42,0.44,0.25,0.55,0.36,0.42,0.44,0.42,0.3,0.26,0.5,0.54,0.55,0.34,0.52,0.26,0.46,0.52,0.36,0.42,0.55,0.48,0.44,0.34,0.22,0.55,0.33,0.54,0.55,0.3,0.53,0.42" style="fill:rgb(0,0,0);font-family:AdvOT1ef757c0;font-size:9.27px;stroke:none;">out to characterize the electrochemical reaction (Figure 3a). In the</text>
   <text y="734.566" x="303.875,307.247,311.102,315.92,320.738,324.592,327.39,329.799,334.432,339.43780000000004,344.297,349.217,353.266,355.583,358.27130000000005,363.12,366.974,371.218,375.072,377.388,381.243,383.2824,388.121,390.919,395.839,399.7324,404.563,412.086,416.135,418.544,423.5498,428.374,432.228,436.277,439.075,443.995,448.628,453.445,455.854,459.74739999999997,464.601,469.419,473.273,477.322,481.8643,486.712,490.566,492.882,497.515,500.888,504.78139999999996,509.559,512.357,516.992,521.861,526.299,528.319,532.7686,535.807,542.296,547.146,549.555" svgx:width="0.36,0.42,0.52,0.52,0.42,0.3,0.26,0.5,0.54,0.55,0.53,0.44,0.25,0.29,0.55,0.42,0.46,0.42,0.25,0.42,0.22,0.55,0.3,0.53,0.42,0.55,0.81,0.44,0.26,0.54,0.55,0.42,0.44,0.3,0.53,0.5,0.52,0.26,0.42,0.55,0.52,0.42,0.44,0.49,0.55,0.42,0.25,0.5,0.36,0.42,0.55,0.3,0.5,0.55,0.48,0.22,0.48,0.55,0.7,0.55,0.26,0.36" style="fill:rgb(0,0,0);font-family:AdvOT1ef757c0;font-size:9.27px;stroke:none;">reduction half cycle, the main cathodic peak close to 0.1 V is</text>
   <text y="745.224" x="303.875,308.507,313.14,316.513,320.367,323.74,327.983,331.837,336.6574,339.988,344.806,349.624,352.997,355.406,360.418,364.6822,367.994,370.792,375.712,379.6054,382.848,385.544,387.953,391.325,394.698,397.479,400.819,404.674,408.917,412.772,415.088,418.942,420.9814,424.29,428.145,432.777,436.15,439.522,443.377,446.749,451.567,456.2,461.212,466.03,468.439,473.452,477.7162,481.098,483.896,488.531,491.813,494.611,499.531,503.4244,506.667,510.04,513.894,518.712,523.53,527.384,530.182,532.591,537.224,542.2298000000001,545.615,550.248" svgx:width="0.5,0.5,0.36,0.42,0.36,0.46,0.42,0.52,0.55,0.52,0.52,0.36,0.26,0.54,0.46,0.55,0.3,0.53,0.42,0.55,0.29,0.26,0.36,0.36,0.3,0.55,0.42,0.46,0.42,0.25,0.42,0.22,0.55,0.42,0.5,0.36,0.36,0.42,0.36,0.52,0.5,0.54,0.52,0.26,0.54,0.46,0.55,0.3,0.5,0.55,0.3,0.53,0.42,0.55,0.36,0.42,0.52,0.52,0.42,0.3,0.26,0.5,0.54,0.55,0.5,0.29" style="fill:rgb(0,0,0);font-family:AdvOT1ef757c0;font-size:9.27px;stroke:none;">observed during the first cycle, corresponding to the reduction of</text>
  </g>
  <rect style="fill:pink;opacity:0.2;stroke:blue;stroke-width:0.3;" x="-0.113" y="17.524" height="36.964" width="595.446" title="3"/>
  <text y="17.524" class="image" id="image.3.1" width="595" height="36" x="-0.113" style="font-size:5.0px;">image.3.1.0_595.18_54</text>
  <rect style="fill:pink;opacity:0.2;stroke:blue;stroke-width:0.3;" x="105.335" y="69.455" height="436.932" width="385.058" title="3"/>
  <text y="69.455" class="image" id="image.3.2" width="385" height="436" x="105.335" style="font-size:5.0px;">image.3.2.105_490.69_506</text>
  <g begin="text">
   <text y="503.206" x="42.86,47.441,49.821,53.877,58.458,61.718,65.3601,68.144" svgx:width="0.54,0.28,0.48,0.54,0.38,0.43,0.55,0.49" style="fill:rgb(0,0,0);font-family:AdvOT5e4d79fc;font-size:8.47px;stroke:none;">Figure 2</text>
   <text y="503.206" x="74.721" svgx:width="0.26" style="fill:rgb(0,0,0);font-family:AdvOT5e4d79fc;font-size:8.97px;stroke:none;">|</text>
   <text y="503.206" x="79.37,82.546,86.246,88.27879999999999,90.369,94.687,97.90559999999999,99.95,104.006,108.68,118.375,120.661,127.622,131.323,135.201,138.724,141.68849999999998,143.828,148.232,150.6883,152.786,160.365,164.946,171.297,177.555,183.14520000000002,185.27,189.851,193.552,198.133,202.537,206.059,210.463,217.424,221.92,226.324,229.322,231.608,234.25,237.8074,239.92,244.323,248.8968,251.031,254.7578,256.814,263.072,265.3589,267.472,269.937,274.34,278.041,284.9864,287.087,290.085,294.666,298.985,301.983,304.625,307.707,311.408,314.05,317.573,319.6058,321.782,324.957,328.48,331.6986,333.744,338.859,343.533,351.112,353.14480000000003,355.229,358.405,362.901,366.1196,368.155,374.676,379.968,385.083,389.757,399.448,401.735,408.696,412.396,416.275,419.798,422.7625,424.959,428.66,433.241,437.7301,439.812,442.988,445.274,449.855,452.853,456.376,459.018,462.23659999999995,464.302,468.358,473.82,478.495,484.67810000000003,486.808,491.305,495.005,497.647,500.289,503.812,506.895,511.4688,513.566,517.969,520.4253000000001,522.58,530.159,534.741,541.092,547.35" svgx:width="0.38,0.44,0.24,0.55,0.51,0.38,0.55,0.48,0.55,0.89,0.27,0.82,0.44,0.46,0.42,0.35,0.55,0.52,0.29,0.55,0.89,0.54,0.75,0.74,0.66,0.55,0.54,0.44,0.54,0.52,0.42,0.52,0.82,0.53,0.52,0.35,0.27,0.31,0.42,0.55,0.52,0.54,0.55,0.44,0.55,0.74,0.27,0.55,0.29,0.52,0.44,0.82,0.55,0.35,0.54,0.51,0.35,0.31,0.36,0.44,0.31,0.42,0.24,0.55,0.38,0.42,0.38,0.55,0.6,0.55,0.89,0.24,0.55,0.38,0.53,0.38,0.55,0.77,0.63,0.6,0.55,0.89,0.27,0.82,0.44,0.46,0.42,0.35,0.55,0.44,0.54,0.53,0.55,0.38,0.27,0.54,0.35,0.42,0.31,0.38,0.55,0.48,0.64,0.55,0.73,0.55,0.53,0.44,0.31,0.31,0.42,0.36,0.54,0.55,0.52,0.29,0.55,0.89,0.54,0.75,0.74,0.66" style="fill:rgb(0,0,0);font-family:AdvP7627;font-size:8.47px;stroke:none;">(a, b) SEMimages of MnO@C nanocomposite on a Ni foam substrate. (c) TEM, (d) HRTEMimages and (inset) SAED pattern of MnO@C</text>
   <text y="513.694" x="42.86,47.442,51.142,55.723,60.127,63.65,68.053,75.014,79.511,83.914,86.912,89.198,91.84,95.363,98.361,100.3938,102.669,105.844,109.367,112.5856,114.744,120.206,125.499,131.6821,133.849,138.346,142.047,144.689,147.331,150.854,153.936,158.5098,160.777,165.181,167.6373,169.848,177.427,182.008,188.359,194.617,200.2072,202.388,206.97,210.67,215.252,219.655,223.178,227.581,234.542,239.039,243.442,246.44,248.726,251.369,254.9264,257.208,261.612,266.18580000000003,268.376,272.1028,274.272,280.53,282.8169,285.044,287.508,291.912,295.612,302.55740000000003,304.829,307.827,312.408,316.727,319.725,322.367,325.449,329.15,331.792,335.315,337.3478,339.58,342.756,345.22,348.4386,350.579" svgx:width="0.54,0.44,0.54,0.52,0.42,0.52,0.82,0.53,0.52,0.35,0.27,0.31,0.42,0.35,0.24,0.55,0.38,0.42,0.38,0.55,0.64,0.63,0.73,0.55,0.53,0.44,0.31,0.31,0.42,0.36,0.54,0.55,0.52,0.29,0.55,0.89,0.54,0.75,0.74,0.66,0.55,0.54,0.44,0.54,0.52,0.42,0.52,0.82,0.53,0.52,0.35,0.27,0.31,0.42,0.55,0.52,0.54,0.55,0.44,0.55,0.74,0.27,0.55,0.29,0.52,0.44,0.82,0.55,0.35,0.54,0.51,0.35,0.31,0.36,0.44,0.31,0.42,0.24,0.55,0.38,0.29,0.38,0.55,0.74" style="fill:rgb(0,0,0);font-family:AdvP7627;font-size:8.47px;stroke:none;">nanocomposites. (e) XRD pattern of MnO@C nanocomposite on a Ni foam substrate. (f) N</text>
   <text y="515.112" x="356.882" svgx:width="0.48" style="fill:rgb(0,0,0);font-family:AdvP7627;font-size:5.64px;stroke:none;">2</text>
   <text y="513.694" x="362.098,365.095,369.499,372.581,377.078,379.72,382.006,386.41,390.98380000000003,393.277,395.564,398.562,402.965,405.607,410.104,413.627,416.709,423.6544,425.875,429.576,434.157,438.6461,440.898,444.421,448.825,451.907,454.989,458.512,461.51,466.007,470.41,474.991,479.488,481.774,486.356,490.2522,492.487,496.983,501.387,504.469,508.02639999999997,510.231,513.229,515.515,518.953" svgx:width="0.35,0.52,0.36,0.53,0.31,0.27,0.52,0.54,0.55,0.27,0.35,0.52,0.31,0.53,0.42,0.36,0.82,0.55,0.44,0.54,0.53,0.55,0.42,0.52,0.36,0.36,0.42,0.35,0.53,0.52,0.54,0.53,0.27,0.54,0.46,0.55,0.53,0.52,0.36,0.42,0.55,0.35,0.27,0.41,0.42" style="fill:rgb(0,0,0);font-family:AdvP7627;font-size:8.47px;stroke:none;">sorption isotherm and corresponding pore size</text>
   <text y="524.125" x="42.861,47.357,49.644,52.642,55.284,58.366,60.652,64.971,69.553,72.195,74.481,78.885,83.45880000000001,85.719,89.242,93.823,96.906,100.784,104.34140000000001,106.525,109.7,111.987,116.568,119.566,123.089,125.731,128.9496,131.128,135.532,137.9883,140.199,147.778,152.359,158.71,164.968,170.5582,172.796,177.377,181.078,185.659,190.063,193.585,197.989,204.95,209.446,213.85,216.848,219.134,221.776,225.299" svgx:width="0.53,0.27,0.35,0.31,0.36,0.27,0.51,0.54,0.31,0.27,0.52,0.54,0.55,0.42,0.54,0.36,0.46,0.42,0.55,0.38,0.27,0.54,0.35,0.42,0.31,0.38,0.55,0.52,0.29,0.55,0.89,0.54,0.75,0.74,0.66,0.55,0.54,0.44,0.54,0.52,0.42,0.52,0.82,0.53,0.52,0.35,0.27,0.31,0.42,0.24" style="fill:rgb(0,0,0);font-family:AdvP7627;font-size:8.47px;stroke:none;">distribution curve (inset) of MnO@C nanocomposite.</text>
   <text y="23.924" x="382.45,390.728,398.964,407.201,410.758,416.935,423.462,426.559,432.626,436.863,442.59,446.147,451.414,457.711,466.518" svgx:width="0.71,0.71,0.71,0.28,0.52,0.55,0.24,0.51,0.34,0.48,0.28,0.44,0.53,0.76,0.54" style="fill:rgb(255,255,255);font-family:AdvOT144a03c1;font-size:10.96px;stroke:none;">www.nature.com/</text>
   <text y="23.924" x="472.932,477.864,482.905,486.127,492.089,498.39,501.831,505.053,508.845,512.067,517.108,521.579,527.541,534.182,540.593,545.064,548.505" svgx:width="0.41,0.42,0.25,0.5,0.53,0.27,0.25,0.3,0.25,0.42,0.36,0.5,0.56,0.54,0.36,0.27,0.41" style="fill:rgb(255,255,255);font-family:AdvOT1415ea69.B;font-size:10.96px;stroke:none;">scientificreports</text>
  </g>
  <path style="fill:rgb(23,22,21);stroke:none;stroke-width:1.0;" d="M105.330 51.820 L490.390 51.820 L490.390 488.750 L105.330 488.750 "/>
  <g begin="text">
   <text y="768.132" x="42.86,47.092,52.32,54.146,58.29,64.515,68.078,69.903,73.529,75.354" svgx:width="0.53,0.66,0.23,0.52,0.78,0.45,0.23,0.47,0.23,0.66" style="fill:rgb(178,178,177);font-family:AdvOT144a03c1;font-size:7.97px;stroke:none;">SCIENTIFIC</text>
   <text y="768.132" x="82.658,87.058,90.875,95.02,101.245,105.644,109.207" svgx:width="0.55,0.48,0.52,0.78,0.55,0.45,0.52" style="fill:rgb(178,178,177);font-family:AdvOT1415ea69.B;font-size:7.97px;stroke:none;">REPORTS</text>
   <text y="768.132" x="117.411,121.8742,123.987,128.8487,130.96,133.351,135.382,140.276,145.169,150.063,154.9247,157.038,161.5012,163.557,168.953,175.76,177.585,179.976,182.039,186.932,191.826,194.233,199.127,204.02,208.914,213.808,218.287,221.325,223.979,228.044,232.603,237.497,242.391,247.284,252.178" svgx:width="0.56,0.55,0.61,0.55,0.3,0.55,0.61,0.61,0.61,0.61,0.55,0.56,0.55,0.68,0.85,0.23,0.3,0.55,0.61,0.61,0.3,0.61,0.61,0.61,0.61,0.56,0.4,0.33,0.51,0.57,0.61,0.61,0.61,0.61,0.61" style="fill:rgb(0,0,0);font-family:AdvOT735b620e;font-size:7.97px;stroke:none;">| 3 : 2693 | DOI: 10.1038/srep02693</text>
   <text y="768.132" x="547.542" svgx:width="0.68" style="fill:rgb(0,0,0);font-family:AdvOTf32ed098.B;font-size:7.97px;stroke:none;">3</text>
  </g>
 </g>
</svg>
