<?xml version="1.0" encoding="UTF-8"?>
<svg height="778.132" width="2637.956" xmlns="http://www.w3.org/2000/svg">
 <g id="page" xmlns:svgx="http://www.xml-cml.org/schema/svgx">
  <g begin="text">
   <text y="58.507" x="42.86,50.383,55.016,59.834,62.243,64.939,67.348,71.202,75.251,78.049,80.458,85.091,90.09679999999999,92.693,98.966,101.375,104.173,109.0861,111.685,115.54,120.552,124.406,128.65,136.173,140.028,143.4,145.4394,148.026,153.714,157.569,161.423,165.278,170.29,173.088,175.405,179.648,181.6874,184.253,188.3318,190.886,194.259,198.113,203.125,206.498,208.907,211.705,214.114,218.358,222.2514,224.789,229.607,233.461,236.259,240.114,243.968,246.766,249.175,253.808,258.8138,261.469,266.102,268.7903,271.334" svgx:width="0.81,0.5,0.52,0.26,0.29,0.26,0.42,0.44,0.3,0.26,0.5,0.54,0.55,0.68,0.26,0.3,0.53,0.55,0.42,0.54,0.42,0.46,0.81,0.42,0.36,0.22,0.55,0.61,0.42,0.42,0.42,0.54,0.3,0.25,0.46,0.22,0.55,0.44,0.55,0.36,0.42,0.54,0.36,0.26,0.3,0.26,0.46,0.42,0.55,0.52,0.42,0.3,0.42,0.42,0.3,0.26,0.5,0.54,0.55,0.5,0.29,0.55,0.76" style="fill:rgb(23,22,21);font-family:AdvOT1ef757c0;font-size:9.27px;stroke:none;">modification with enzymes. Recently, a sensitive detection of H</text>
   <text y="60.038" x="278.362" svgx:width="0.48" style="fill:rgb(23,22,21);font-family:AdvOT1ef757c0;font-size:6.18px;stroke:none;">2</text>
   <text y="58.507" x="281.707" svgx:width="0.74" style="fill:rgb(23,22,21);font-family:AdvOT1ef757c0;font-size:9.27px;stroke:none;">O</text>
   <text y="60.038" x="288.567" svgx:width="0.48" style="fill:rgb(23,22,21);font-family:AdvOT1ef757c0;font-size:6.18px;stroke:none;">2</text>
   <text y="69.109" x="42.86,49.132,53.181,56.5182,58.507,61.88,65.734,70.552,75.185,78.557,81.355,85.21,90.0304,92.07,96.702,100.9662,102.955,107.0338,108.964,117.164,122.176" svgx:width="0.68,0.44,0.36,0.55,0.36,0.42,0.52,0.5,0.36,0.3,0.42,0.52,0.55,0.5,0.46,0.55,0.44,0.55,0.88,0.54,0.74" style="fill:rgb(23,22,21);font-family:AdvOT1ef757c0;font-size:9.27px;stroke:none;">was reported by a MnO</text>
   <text y="70.696" x="129.033" svgx:width="0.48" style="fill:rgb(23,22,21);font-family:AdvOT1ef757c0;font-size:6.18px;stroke:none;">2</text>
   <text y="69.109" x="132.378,135.361,139.605,142.977,147.026,151.844,156.764,160.619,165.631,169.5244,171.553,176.186,180.522,182.931,187.749,191.6424,193.608,198.62,202.669,207.682,212.314,216.169,220.801,228.325,233.143,237.775,241.148,243.557,246.355,250.209,252.2484,254.27,260.543,262.952,265.75,270.6631,272.639,276.7178,278.705,281.021,285.654" svgx:width="0.32,0.46,0.36,0.44,0.52,0.53,0.42,0.54,0.42,0.55,0.5,0.47,0.26,0.52,0.42,0.55,0.54,0.44,0.54,0.5,0.42,0.5,0.81,0.52,0.5,0.36,0.26,0.3,0.42,0.22,0.55,0.68,0.26,0.3,0.53,0.55,0.44,0.55,0.25,0.5,0.68" style="fill:rgb(23,22,21);font-family:AdvOT1ef757c0;font-size:9.27px;stroke:none;">/graphene oxide nanocomposite, with a low</text>
   <text y="79.766" x="42.86,47.678,51.533,54.331,58.185,62.039,64.838,67.247,71.879,76.8848,79.315,81.631,84.04,91.563,93.972,96.753,99.214,103.846,106.5343,108.965,113.403,115.422" svgx:width="0.52,0.42,0.3,0.42,0.42,0.3,0.26,0.5,0.54,0.55,0.25,0.26,0.81,0.26,0.3,0.55,0.5,0.29,0.55,0.48,0.22,0.48" style="fill:rgb(23,22,21);font-family:AdvOT1ef757c0;font-size:9.27px;stroke:none;">detection limit of 0.8</text>
   <text y="79.766" x="122.967" svgx:width="0.55" style="fill:rgb(23,22,21);font-family:AdvP3EAA99;font-size:9.27px;stroke:none;">m</text>
   <text y="79.766" x="128.07" svgx:width="0.88" style="fill:rgb(23,22,21);font-family:AdvOT1ef757c0;font-size:9.27px;stroke:none;">M</text>
   <text y="76.365" x="136.29,139.052" svgx:width="0.48,0.48" style="fill:rgb(23,22,21);font-family:AdvOT1ef757c0;font-size:5.13px;stroke:none;">25</text>
   <text y="79.767" x="141.789" svgx:width="0.22" style="fill:rgb(23,22,21);font-family:AdvOT1ef757c0;font-size:9.27px;stroke:none;">.</text>
   <text y="90.652" x="52.101,55.186,60.1918,62.646,66.018,70.836,73.245,76.043,79.9364,82.375,87.008,89.6963,92.183,94.982,99.901,103.756,107.128,111.0214,113.444,116.816,120.67,124.043,127.897,131.946,135.319,139.173,144.0861,146.61,151.428,154.8,159.433,163.676,167.049,170.903,174.276,177.648,181.503,184.875,186.9144,189.357,192.73,196.584,200.827,204.682,208.054,212.103,214.4205,216.91,224.434,228.482,230.891,235.89679999999998,238.397,242.252,247.172,251.22,253.537,255.853,259.707,264.72,268.964,272.818,276.1552,278.707,282.079,284.878,287.287,289.603" svgx:width="0.33,0.54,0.55,0.36,0.52,0.26,0.3,0.42,0.55,0.5,0.29,0.55,0.3,0.53,0.42,0.36,0.42,0.55,0.36,0.42,0.36,0.42,0.44,0.36,0.42,0.53,0.55,0.52,0.36,0.5,0.46,0.36,0.42,0.36,0.36,0.42,0.36,0.22,0.55,0.36,0.42,0.46,0.42,0.36,0.44,0.25,0.55,0.81,0.44,0.26,0.54,0.55,0.42,0.53,0.44,0.25,0.25,0.42,0.54,0.46,0.42,0.36,0.55,0.36,0.3,0.26,0.25,0.25" style="fill:rgb(0,0,0);font-family:AdvOT1ef757c0;font-size:9.27px;stroke:none;">In spite of these research progresses, several main challenges still</text>
   <text y="101.31" x="42.86,47.872,51.726,55.581,60.4014,63.1,65.898,70.533,73.191,77.824,81.7174,84.36,88.409,93.227,98.045,101.417,105.272,108.644,112.017,115.871,120.6914,123.421,126.118,130.75,134.0872,136.801,141.434,146.252,149.05,151.459,158.983,161.392,165.246,167.655,172.667,176.9312,179.662,182.46,187.38,191.27339999999998,193.891,197.746,202.378,207.391,212.209,217.027,220.881,223.679,227.728,232.741,236.595,240.4884,243.215,247.264,252.277,257.0974,259.77,263.142,267.191,269.989,273.88239999999996,276.551,281.369,285.223,288.596" svgx:width="0.54,0.42,0.42,0.52,0.55,0.3,0.5,0.55,0.5,0.42,0.55,0.44,0.52,0.52,0.36,0.42,0.36,0.36,0.42,0.52,0.55,0.29,0.5,0.36,0.55,0.5,0.52,0.3,0.26,0.81,0.26,0.42,0.26,0.54,0.46,0.55,0.3,0.53,0.42,0.55,0.42,0.5,0.54,0.52,0.52,0.42,0.3,0.44,0.54,0.42,0.42,0.55,0.44,0.54,0.52,0.55,0.36,0.44,0.3,0.42,0.55,0.52,0.42,0.36,0.35" style="fill:rgb(0,0,0);font-family:AdvOT1ef757c0;font-size:9.27px;stroke:none;">need to be addressed for optimizing the conductance and rate per-</text>
   <text y="111.911" x="42.86,45.556,50.188,53.561,61.084,65.133,70.146,74.0,77.8934,80.618,85.25,87.9383,90.652,98.852,103.864" svgx:width="0.29,0.5,0.36,0.81,0.44,0.54,0.42,0.42,0.55,0.5,0.29,0.55,0.88,0.54,0.74" style="fill:rgb(0,0,0);font-family:AdvOT1ef757c0;font-size:9.27px;stroke:none;">formance of MnO</text>
   <text y="113.499" x="110.778" svgx:width="0.47" style="fill:rgb(0,0,0);font-family:AdvOT1ef757c0;font-size:6.18px;stroke:none;">x</text>
   <text y="111.912" x="114.009,117.289,121.922,125.971,129.343,133.198,138.0184,140.769,144.623,146.939,150.794,154.648,157.446,160.819,165.451,170.269,174.124,177.496,179.5354,182.325,187.143,191.776,195.1132,197.859,200.658,205.577,209.47039999999998,212.203,217.021,219.43,222.803,226.657,230.511,233.292,236.072,240.315,243.688,248.32,254.593,257.391,262.3041,265.042,269.675,272.36330000000004,275.134,278.988,283.621,288.634" svgx:width="0.35,0.5,0.44,0.36,0.42,0.52,0.55,0.42,0.25,0.42,0.42,0.3,0.36,0.5,0.52,0.42,0.36,0.22,0.55,0.52,0.5,0.36,0.55,0.3,0.53,0.42,0.55,0.52,0.26,0.36,0.42,0.42,0.3,0.55,0.46,0.36,0.5,0.68,0.3,0.53,0.55,0.5,0.29,0.55,0.42,0.5,0.54,0.35" style="fill:rgb(0,0,0);font-family:AdvOT1ef757c0;font-size:9.27px;stroke:none;">-based electrodes. For the direct growth of con-</text>
   <text y="122.57" x="42.86,47.678,52.496,56.351,59.149,61.558,66.57,70.8342,75.459,79.314,83.363,86.735,91.368,96.0,101.0058,105.621,110.633,114.682,119.695,124.327,127.7,130.498,133.871,138.688,142.543,145.341,150.159,153.532,157.386,160.7232,165.433,167.842,172.854,176.709,179.025,183.843,188.661,191.07,196.082,200.34619999999998,205.005,208.859,212.908,216.281,220.913,225.546,230.5518,235.166,240.179,244.228,249.24,253.873,256.671,261.489,266.122,269.976,273.3132,278.027,282.076,287.088" svgx:width="0.52,0.52,0.42,0.3,0.26,0.54,0.46,0.55,0.42,0.44,0.36,0.5,0.5,0.54,0.55,0.54,0.44,0.54,0.5,0.36,0.3,0.36,0.52,0.42,0.3,0.52,0.36,0.42,0.36,0.55,0.26,0.54,0.42,0.25,0.52,0.52,0.26,0.54,0.46,0.55,0.42,0.44,0.36,0.5,0.5,0.54,0.55,0.54,0.44,0.54,0.5,0.3,0.52,0.5,0.42,0.36,0.55,0.44,0.54,0.52" style="fill:rgb(0,0,0);font-family:AdvOT1ef757c0;font-size:9.27px;stroke:none;">ducting carbon nanostructures including carbon nanotubes and</text>
   <text y="133.228" x="42.86,47.104,50.476,54.525,59.343,64.263,68.117,73.13,77.0234,80.165,84.798,89.0622,92.128,98.206,104.663,111.418,113.4574,116.619,119.418,124.337,128.2304,131.303,134.676,138.53,143.255,148.073,150.482,153.855,157.709,165.233,169.087,174.1,176.881,180.116,184.749,187.4373,190.548,195.468,197.877,202.121,207.03410000000002,210.221,213.594,217.448,221.497,225.351,228.15,230.559,235.191,240.1968,243.33,246.128,249.982,257.506,262.324,266.178,269.551,273.6,276.398,281.216,284.588,288.443" svgx:width="0.46,0.36,0.44,0.52,0.53,0.42,0.54,0.42,0.55,0.5,0.46,0.55,0.66,0.7,0.73,0.22,0.55,0.3,0.53,0.42,0.55,0.36,0.42,0.51,0.52,0.26,0.36,0.42,0.81,0.42,0.54,0.3,0.55,0.5,0.29,0.55,0.53,0.26,0.46,0.53,0.55,0.36,0.42,0.44,0.42,0.3,0.26,0.5,0.54,0.55,0.3,0.42,0.81,0.52,0.42,0.36,0.44,0.3,0.52,0.36,0.42,0.36" style="fill:rgb(0,0,0);font-family:AdvOT1ef757c0;font-size:9.27px;stroke:none;">graphene by CVD, the requirement of high reaction temperatures</text>
   <text y="143.885" x="42.86,47.678,51.051,54.905,58.759,61.076,65.894,70.712,74.566,77.9032,80.391,83.189,88.109,92.0024,94.337,99.155,102.528,106.4214,108.794,113.427,116.1153,118.545,122.6238,125.007,132.531,136.58,138.896,143.529,146.901,149.31,152.108,156.3722,158.74,163.373,166.0613,168.491,171.864,176.682,181.314,184.687,187.485,190.858,194.907,197.705,201.559,204.932,206.9714,209.424,213.279,216.651,221.469,225.324,229.178,231.587,235.636,237.952,240.269,244.5332,246.955,249.652,251.968,255.822,260.158,262.567,267.2,269.516,273.4094,275.812,279.185,284.003,288.635" svgx:width="0.52,0.36,0.42,0.42,0.25,0.52,0.52,0.42,0.36,0.55,0.3,0.53,0.42,0.55,0.52,0.36,0.42,0.55,0.5,0.29,0.55,0.44,0.55,0.81,0.44,0.25,0.5,0.36,0.26,0.3,0.46,0.55,0.5,0.29,0.55,0.36,0.52,0.5,0.36,0.3,0.36,0.44,0.3,0.42,0.36,0.22,0.55,0.42,0.36,0.52,0.42,0.42,0.26,0.44,0.25,0.25,0.46,0.55,0.29,0.25,0.42,0.47,0.26,0.5,0.25,0.42,0.55,0.36,0.52,0.5,0.35" style="fill:rgb(0,0,0);font-family:AdvOT1ef757c0;font-size:9.27px;stroke:none;">precludes the use of a majority of substrates, especially flexible sub-</text>
   <text y="154.543" x="42.86,46.233,49.031,52.403,56.452,59.251,63.105,66.477,68.5164,70.186,73.272,78.2778,79.995,84.044,88.862,93.679,96.088,98.887,101.296,105.928,110.941,112.9804,114.691,117.489,122.409,126.3024,127.957,130.274,134.906,138.955,143.773,146.182,151.195,155.45919999999998,157.154,161.972,165.827,170.839,174.212,176.621,179.419,183.6832,185.387,190.02,192.7083,194.458,202.658,207.67" svgx:width="0.36,0.3,0.36,0.44,0.3,0.42,0.36,0.22,0.55,0.33,0.54,0.55,0.44,0.52,0.52,0.26,0.3,0.26,0.5,0.54,0.22,0.55,0.3,0.53,0.42,0.55,0.25,0.5,0.44,0.52,0.26,0.54,0.46,0.55,0.52,0.42,0.54,0.36,0.26,0.3,0.46,0.55,0.5,0.29,0.55,0.88,0.54,0.74" style="fill:rgb(0,0,0);font-family:AdvOT1ef757c0;font-size:9.27px;stroke:none;">strates. In addition, the loading density of MnO</text>
   <text y="156.076" x="214.526" svgx:width="0.47" style="fill:rgb(0,0,0);font-family:AdvOT1ef757c0;font-size:6.18px;stroke:none;">x</text>
   <text y="154.545" x="217.757,224.706,232.498,236.352,240.985,248.508,253.326,257.959,261.331,263.74,266.538,270.393,273.73019999999997,275.472,281.744,284.153,286.952" svgx:width="0.75,0.66,0.42,0.5,0.81,0.52,0.5,0.36,0.26,0.3,0.42,0.36,0.55,0.68,0.26,0.3,0.53" style="fill:rgb(0,0,0);font-family:AdvOT1ef757c0;font-size:9.27px;stroke:none;">@Ccomposites with</text>
   <text y="165.146" x="42.86,51.06,56.072" svgx:width="0.88,0.54,0.74" style="fill:rgb(0,0,0);font-family:AdvOT1ef757c0;font-size:9.27px;stroke:none;">MnO</text>
   <text y="166.734" x="62.929" svgx:width="0.47" style="fill:rgb(0,0,0);font-family:AdvOT1ef757c0;font-size:6.18px;stroke:none;">x</text>
   <text y="165.146" x="68.485,73.303,75.712,79.085,82.939,86.793,89.591,91.908,96.1722,98.476,102.719,106.092,110.725,116.997,122.0028,124.384,129.017,134.0228,136.347,140.201,144.834,149.846,154.664,159.482,163.337,166.135,168.544,173.556,177.8202,180.171,183.543,188.361,192.994,196.367,199.165,202.537,206.586,209.384,213.239,216.5762,218.949,221.358,224.6952,227.056,231.874,235.247,240.065,244.113,246.43,248.746,253.0102,255.346,258.718,262.573,265.945,268.743,272.116,274.525,278.379,281.177,285.032,289.85" svgx:width="0.52,0.26,0.36,0.42,0.42,0.3,0.25,0.46,0.55,0.46,0.36,0.5,0.68,0.54,0.55,0.5,0.54,0.55,0.42,0.5,0.54,0.52,0.52,0.42,0.3,0.26,0.54,0.46,0.55,0.36,0.52,0.5,0.36,0.3,0.36,0.44,0.3,0.42,0.36,0.55,0.26,0.36,0.55,0.52,0.36,0.52,0.44,0.25,0.25,0.46,0.55,0.36,0.42,0.36,0.3,0.36,0.26,0.42,0.3,0.42,0.52,0.22" style="fill:rgb(0,0,0);font-family:AdvOT1ef757c0;font-size:9.27px;stroke:none;">directly grown on conducting substrates is usually restricted,</text>
   <text y="175.804" x="42.86,47.678,52.496,56.3894,59.754,62.552,67.187,70.639,73.437,78.357,82.2504,85.606,90.424,92.741,95.539,98.911,102.96,105.758,110.678,113.087,118.0928,121.55,124.246,126.655,128.972,136.4807,139.919,144.551,147.2393,150.69,153.489,158.408,162.3014,165.714,173.914,178.926" svgx:width="0.52,0.52,0.42,0.55,0.3,0.5,0.55,0.3,0.53,0.42,0.55,0.52,0.25,0.3,0.36,0.44,0.3,0.53,0.26,0.54,0.55,0.29,0.26,0.25,0.81,0.55,0.5,0.29,0.55,0.3,0.53,0.42,0.55,0.88,0.54,0.74" style="fill:rgb(0,0,0);font-family:AdvOT1ef757c0;font-size:9.27px;stroke:none;">due to the ultrathin film of the MnO</text>
   <text y="177.335" x="185.783" svgx:width="0.47" style="fill:rgb(0,0,0);font-family:AdvOT1ef757c0;font-size:6.18px;stroke:none;">x</text>
   <text y="175.805" x="192.472,197.105,201.154,205.008,209.539,214.172,218.804,223.817,227.671" svgx:width="0.5,0.44,0.42,0.49,0.5,0.5,0.54,0.42,0.36" style="fill:rgb(0,0,0);font-family:AdvOT1ef757c0;font-size:9.27px;stroke:none;">backbones</text>
   <text y="172.403" x="231.08,233.843" svgx:width="0.48,0.48" style="fill:rgb(0,0,0);font-family:AdvOT1ef757c0;font-size:5.13px;stroke:none;">21</text>
   <text y="175.805" x="236.579,238.6184,242.022,248.869,253.8748,257.273,260.071,264.991,268.88439999999997,272.296,276.929,279.727,284.647,288.501" svgx:width="0.22,0.55,0.74,0.54,0.55,0.3,0.53,0.42,0.55,0.5,0.3,0.53,0.42,0.36" style="fill:rgb(0,0,0);font-family:AdvOT1ef757c0;font-size:9.27px;stroke:none;">. On the other</text>
   <text y="186.463" x="42.861,47.78,51.829,56.842,61.66,63.6994,66.615,72.888,77.807,81.662,86.6678,89.576,92.374,97.294,101.1874,104.033,108.851,112.223,116.078,119.358,122.054,126.687,130.059,137.583,141.437,146.25740000000002,149.218,157.418,162.43" svgx:width="0.53,0.44,0.54,0.52,0.22,0.55,0.68,0.53,0.42,0.54,0.55,0.3,0.53,0.42,0.55,0.52,0.36,0.42,0.35,0.29,0.5,0.36,0.81,0.42,0.52,0.55,0.88,0.54,0.74" style="fill:rgb(0,0,0);font-family:AdvOT1ef757c0;font-size:9.27px;stroke:none;">hand, when the pre-formed MnO</text>
   <text y="187.994" x="169.285" svgx:width="0.47" style="fill:rgb(0,0,0);font-family:AdvOT1ef757c0;font-size:6.18px;stroke:none;">x</text>
   <text y="186.463" x="172.573,179.522,185.6402,188.504,193.516,197.565,202.578,207.211,210.583,213.381,216.754,221.572,225.426,228.224,233.042,236.415,240.269,243.6062,246.615,249.024,252.3612,255.289,259.144,263.776,267.825,270.623,274.478,279.2984,282.275,286.908" svgx:width="0.75,0.66,0.55,0.54,0.44,0.54,0.5,0.36,0.3,0.36,0.52,0.42,0.3,0.52,0.36,0.42,0.36,0.55,0.26,0.36,0.55,0.42,0.5,0.44,0.3,0.42,0.52,0.55,0.5,0.54" style="fill:rgb(0,0,0);font-family:AdvOT1ef757c0;font-size:9.27px;stroke:none;">@C nanostructures is coated on</text>
   <text y="197.121" x="42.86,46.9388,50.117,53.971,58.789,62.161,65.534,69.388,74.401,77.182,80.504,84.358,88.991,91.307,93.624,97.478,101.332,104.13,108.763,112.136,114.1754,117.411,119.82,122.601,125.858,130.491,133.187,135.985,139.84,144.8458,148.139,153.151,157.006,160.86,165.678,169.0152,172.347,176.396,181.214,186.032,188.441,193.454,197.7182,200.978,205.027,209.845,214.181,216.59,218.906,221.315,225.364,228.737,233.00119999999998,236.242,240.874,243.283,248.296,253.114,256.968,260.341,263.6782,267.026,271.075,276.088,280.906,283.889,288.522" svgx:width="0.44,0.55,0.42,0.52,0.36,0.36,0.42,0.54,0.3,0.55,0.42,0.5,0.25,0.25,0.42,0.42,0.3,0.5,0.36,0.22,0.55,0.26,0.3,0.55,0.5,0.29,0.3,0.42,0.54,0.55,0.54,0.42,0.42,0.52,0.36,0.55,0.44,0.52,0.52,0.26,0.54,0.46,0.55,0.44,0.52,0.47,0.26,0.25,0.26,0.44,0.36,0.46,0.55,0.5,0.26,0.54,0.52,0.42,0.36,0.36,0.55,0.44,0.54,0.52,0.32,0.5,0.36" style="fill:rgb(0,0,0);font-family:AdvOT1ef757c0;font-size:9.27px;stroke:none;">a current collector, it often needs adding auxiliary binders and/or</text>
   <text y="207.779" x="42.86,46.714,51.347,56.359,61.177,65.995,69.85,72.648,75.057,79.3,83.1934,86.911,90.283,94.138,98.187,102.43,106.285,111.297,114.095,117.468,119.5074,123.251,126.624,131.442,135.296,140.20909999999998,144.001,148.05,151.3872,155.113,158.967,163.6,168.612,173.43,178.248,182.103,184.901,187.31,192.322,196.5862,200.354,205.172,209.805,212.121,216.365,223.888,227.743" svgx:width="0.42,0.5,0.54,0.52,0.52,0.42,0.3,0.26,0.46,0.42,0.55,0.36,0.42,0.44,0.46,0.42,0.54,0.3,0.36,0.22,0.55,0.36,0.52,0.42,0.53,0.55,0.44,0.36,0.55,0.42,0.5,0.54,0.52,0.52,0.42,0.3,0.26,0.54,0.46,0.55,0.52,0.5,0.25,0.46,0.81,0.42,0.36" style="fill:rgb(0,0,0);font-family:AdvOT1ef757c0;font-size:9.27px;stroke:none;">conductive reagents, such as conducting polymer</text>
   <text y="204.321" x="231.137,233.899" svgx:width="0.48,0.48" style="fill:rgb(0,0,0);font-family:AdvOT1ef757c0;font-size:5.13px;stroke:none;">11</text>
   <text y="207.779" x="240.378,244.427,249.439,254.2594,258.01,262.059,265.913,269.767,272.566,276.809,279.125,282.98,287.992" svgx:width="0.44,0.54,0.52,0.55,0.44,0.42,0.42,0.3,0.46,0.25,0.42,0.54,0.42" style="fill:rgb(0,0,0);font-family:AdvOT1ef757c0;font-size:9.27px;stroke:none;">and acetylene</text>
   <text y="218.381" x="42.86,47.493,49.809,53.858,57.713" svgx:width="0.5,0.25,0.44,0.42,0.49" style="fill:rgb(0,0,0);font-family:AdvOT1ef757c0;font-size:9.27px;stroke:none;">black</text>
   <text y="214.979" x="62.249,65.011" svgx:width="0.48,0.48" style="fill:rgb(0,0,0);font-family:AdvOT1ef757c0;font-size:5.13px;stroke:none;">21</text>
   <text y="218.381" x="67.748,69.7874,72.283,78.556,83.476,85.885,89.739,94.6521,97.228,100.026,104.075,108.606,112.46,115.79719999999999,118.375,122.424,127.242,132.06,134.469,137.267,139.676,144.309,149.322,153.37,155.6875,158.288,160.984,165.033,169.665,173.038,175.447,179.301,183.35,186.148,188.557,193.19,198.1958,200.751,204.124,206.922,210.776,215.594,218.9312,221.558,225.607,230.619,235.4394,237.999,241.853,246.486,249.858,252.657,254.6964,257.218,261.267,264.6042,267.196,273.468,277.323,279.639,281.9565,284.487,288.536" svgx:width="0.22,0.55,0.68,0.53,0.26,0.42,0.53,0.55,0.3,0.44,0.49,0.42,0.36,0.55,0.44,0.52,0.52,0.26,0.3,0.26,0.5,0.54,0.44,0.25,0.55,0.29,0.44,0.5,0.36,0.26,0.42,0.44,0.3,0.26,0.5,0.54,0.55,0.36,0.3,0.42,0.52,0.36,0.55,0.44,0.54,0.52,0.55,0.42,0.5,0.36,0.3,0.22,0.55,0.44,0.36,0.55,0.68,0.42,0.25,0.25,0.55,0.44,0.36" style="fill:rgb(0,0,0);font-family:AdvOT1ef757c0;font-size:9.27px;stroke:none;">, which takes additional fabrication steps and cost, as well as</text>
   <text y="229.039" x="42.86,46.232,50.086,54.904,59.722,63.577,67.431,70.7682,75.402,78.2,83.12,87.0134,91.56,95.414,98.11,100.807,104.661,108.515,111.313,113.722,117.966,121.8594,126.426,133.949,137.998,141.371,144.7082,149.33,154.148,158.002,161.375,165.229,169.084,174.096,176.894,180.943,185.187,189.0804,193.664,198.297,200.9853,205.57,209.425,211.741,215.595,219.45,222.248,225.62,230.253,234.302,238.156,240.955,243.363,247.607,251.5004,256.085,263.608,267.657,270.455,274.31,277.682,280.091,284.14,286.456,289.829" svgx:width="0.36,0.42,0.52,0.52,0.42,0.42,0.36,0.55,0.3,0.53,0.42,0.55,0.42,0.29,0.29,0.42,0.42,0.3,0.26,0.46,0.42,0.55,0.81,0.44,0.36,0.36,0.55,0.52,0.42,0.36,0.42,0.42,0.54,0.3,0.44,0.46,0.42,0.55,0.5,0.29,0.55,0.42,0.25,0.42,0.42,0.3,0.36,0.5,0.44,0.42,0.3,0.26,0.46,0.42,0.55,0.81,0.44,0.3,0.42,0.36,0.26,0.44,0.25,0.36,0.22" style="fill:rgb(0,0,0);font-family:AdvOT1ef757c0;font-size:9.27px;stroke:none;">reduces the effective mass percentage of electroactive materials.</text>
   <text y="239.697" x="42.86,47.678,52.495,55.868,58.666,63.586,67.44,70.813,78.336,82.969,86.342,90.196,92.2354,94.508,97.306,102.226,106.1194,108.285,110.601,114.65,118.504,123.0463,125.293,129.926,132.6143,134.818,139.83,143.879,148.892,153.524,156.897,160.751,164.8,167.116,171.00940000000003,173.256,178.074,182.706,186.079,189.933,193.2702,195.536,198.334,203.254,207.303,210.084,212.374,216.228,220.277,225.28279999999998,227.511,231.559,233.876,236.192,240.825,247.12859999999998,249.338,252.034,256.667,260.00419999999997,262.264,266.118,268.814,271.51,273.919,277.774,280.183,284.037,289.05" svgx:width="0.52,0.52,0.36,0.3,0.53,0.42,0.36,0.81,0.5,0.36,0.42,0.22,0.55,0.3,0.53,0.42,0.55,0.25,0.44,0.42,0.49,0.55,0.5,0.29,0.55,0.54,0.44,0.54,0.5,0.36,0.42,0.44,0.25,0.42,0.55,0.52,0.5,0.36,0.42,0.36,0.55,0.3,0.53,0.44,0.3,0.55,0.42,0.44,0.54,0.55,0.44,0.25,0.25,0.5,0.68,0.55,0.29,0.5,0.36,0.55,0.42,0.29,0.29,0.26,0.42,0.26,0.42,0.54,0.3" style="fill:rgb(0,0,0);font-family:AdvOT1ef757c0;font-size:9.27px;stroke:none;">Furthermore, the lack of nanoscale pores that can allow for efficient</text>
   <text y="250.355" x="42.86,50.383,54.432,57.804,61.141200000000005,63.949,66.747,70.12,74.169,79.181,82.554,87.372,92.005,95.377,98.158,100.971,103.769,108.401,114.674,118.723,122.095,126.993,130.3302,133.116,137.165,142.177,146.9974,149.784,152.48,155.853,160.485,167.99370000000002,170.817,173.615,178.535,182.4284,185.161,189.21,193.064,195.862,198.271,202.515,206.40839999999997,209.199,217.398,222.411" svgx:width="0.81,0.44,0.36,0.36,0.55,0.3,0.36,0.44,0.54,0.36,0.52,0.5,0.36,0.3,0.55,0.3,0.5,0.68,0.44,0.36,0.52,0.36,0.55,0.44,0.54,0.52,0.55,0.29,0.36,0.5,0.81,0.55,0.3,0.53,0.42,0.55,0.44,0.42,0.3,0.26,0.46,0.42,0.55,0.88,0.54,0.74" style="fill:rgb(0,0,0);font-family:AdvOT1ef757c0;font-size:9.27px;stroke:none;">mass transport towards and from the active MnO</text>
   <text y="251.886" x="229.266" svgx:width="0.47" style="fill:rgb(0,0,0);font-family:AdvOT1ef757c0;font-size:6.18px;stroke:none;">x</text>
   <text y="250.356" x="235.275,238.648,241.057,243.855,247.71,251.0472,253.871,257.92,260.236,263.609,268.24399999999997,271.049,273.365,275.774,283.298,285.707,288.505" svgx:width="0.36,0.26,0.3,0.42,0.36,0.55,0.44,0.25,0.36,0.5,0.55,0.25,0.26,0.81,0.26,0.3,0.36" style="fill:rgb(0,0,0);font-family:AdvOT1ef757c0;font-size:9.27px;stroke:none;">sites also limits</text>
   <text y="261.014" x="42.86,45.658,50.578,54.433,56.842,60.1792,62.25,65.622,69.671,72.469,76.3624,78.407,82.262,86.311,91.129,95.178,99.81,102.219,104.536,106.945,109.743,114.0072,116.052,118.749,123.381,126.7182,128.865,132.72,137.732,141.587,144.959,149.203,153.4672,155.511,158.884,161.682,166.315,169.687,173.736,177.98,181.834,183.8734,185.956,190.005,193.3422,195.425,201.697,205.552,207.868,210.1855,212.206,216.255,219.5922,221.731,225.103,228.958,233.97,237.343,239.752,242.55,244.959,249.202,253.09539999999998,255.123,262.646,267.279,269.595,273.45,277.304,282.122,284.438,288.487" svgx:width="0.3,0.53,0.42,0.26,0.36,0.55,0.36,0.44,0.3,0.42,0.55,0.42,0.44,0.52,0.44,0.5,0.26,0.25,0.26,0.3,0.46,0.55,0.29,0.5,0.36,0.55,0.42,0.54,0.42,0.36,0.46,0.46,0.55,0.36,0.3,0.5,0.36,0.44,0.46,0.42,0.22,0.55,0.44,0.36,0.55,0.68,0.42,0.25,0.25,0.55,0.44,0.36,0.55,0.36,0.42,0.54,0.36,0.26,0.3,0.26,0.46,0.42,0.55,0.81,0.5,0.25,0.42,0.42,0.52,0.25,0.44,0.36" style="fill:rgb(0,0,0);font-family:AdvOT1ef757c0;font-size:9.27px;stroke:none;">their rate capability for energy storage, as well as sensitive molecular</text>
   <text y="271.615" x="42.86,47.678,51.533,54.331,58.185,62.039,64.838,67.247,71.879,76.892,78.9314,81.469,87.158,91.012,94.866,98.721,103.733,106.531,108.848,113.091,115.1304,117.64,121.688" svgx:width="0.52,0.42,0.3,0.42,0.42,0.3,0.26,0.5,0.54,0.22,0.55,0.61,0.42,0.42,0.42,0.54,0.3,0.25,0.46,0.22,0.55,0.44,0.54" style="fill:rgb(0,0,0);font-family:AdvOT1ef757c0;font-size:9.27px;stroke:none;">detection. Recently, an</text>
   <text y="271.615" x="129.26,131.762,136.6751,139.181,142.267,144.768,147.566" svgx:width="0.27,0.53,0.55,0.33,0.27,0.3,0.53" style="fill:rgb(0,0,0);font-family:AdvOT7d6df7ab.I;font-size:9.27px;stroke:none;">in situ</text>
   <text y="271.615" x="154.998,162.522,166.376,169.174,174.094,178.727,183.5474,186.123,190.756,194.805,198.177,202.032,206.85240000000002,209.368,214.001,219.0068,221.557,225.6358,228.077,230.774,234.146,238.0,241.855,245.135,248.507,252.556,257.374,259.783,263.638,267.686,270.0035,272.582,277.4,282.033,284.349,288.593" svgx:width="0.81,0.42,0.3,0.53,0.5,0.52,0.55,0.5,0.44,0.36,0.42,0.52,0.55,0.5,0.54,0.55,0.44,0.55,0.29,0.36,0.42,0.42,0.35,0.36,0.44,0.52,0.26,0.42,0.44,0.25,0.55,0.52,0.5,0.25,0.46,0.35" style="fill:rgb(0,0,0);font-family:AdvOT1ef757c0;font-size:9.27px;stroke:none;">method based on a free-radical poly-</text>
   <text y="282.273" x="42.86,50.384,54.238,57.611,60.02,63.874,67.923,70.721,73.13,77.763,82.7688,84.643,87.052,92.0578,93.941,96.739,101.659,105.5524,107.377,112.195,115.568,119.422,122.795,126.649,131.662,135.516,139.4094,141.223,145.856,148.5443,150.408,157.932,161.786,164.584,168.633,170.9505,172.859,177.492,181.828,184.237,189.055,192.9484,194.743,199.561,202.933,206.788,210.642,215.46,218.832,222.205,226.838,230.21,233.5472,235.505,241.778,245.827,249.1642,251.04,254.412,258.266,263.084,267.717,271.09,273.888,277.742,282.5624,284.489,287.287" svgx:width="0.81,0.42,0.36,0.26,0.42,0.44,0.3,0.26,0.5,0.54,0.55,0.26,0.54,0.55,0.3,0.53,0.42,0.55,0.52,0.36,0.42,0.36,0.42,0.54,0.42,0.42,0.55,0.5,0.29,0.55,0.81,0.42,0.3,0.44,0.25,0.55,0.5,0.47,0.26,0.52,0.42,0.55,0.52,0.36,0.42,0.42,0.52,0.36,0.36,0.5,0.36,0.36,0.55,0.68,0.44,0.36,0.55,0.36,0.42,0.52,0.5,0.36,0.3,0.42,0.52,0.55,0.3,0.5" style="fill:rgb(0,0,0);font-family:AdvOT1ef757c0;font-size:9.27px;stroke:none;">merization in the presence of metal oxide precursors was reported to</text>
   <text y="292.931" x="42.86,47.678,51.051,55.683,60.501,65.319,69.174,73.0674,74.836,78.9148,80.675,84.529,87.902,92.534,95.907,99.279,102.559,104.876,107.285,112.297,116.828,120.682,125.50240000000001,127.334,132.152,136.784,139.101,143.344,150.868,154.722,158.0592,159.933,164.945,168.8,171.598,177.871,182.503,185.876,190.41830000000002,192.248,194.657,199.67,203.524,208.157,211.529,216.347,220.98,224.353,228.402,231.2,235.054,239.8744,241.685,247.958,250.367,253.165,258.0781,259.884,264.702" svgx:width="0.52,0.36,0.5,0.52,0.52,0.42,0.42,0.55,0.44,0.55,0.42,0.36,0.5,0.36,0.36,0.35,0.25,0.26,0.54,0.49,0.42,0.52,0.55,0.52,0.5,0.25,0.46,0.81,0.42,0.36,0.55,0.54,0.42,0.3,0.68,0.5,0.36,0.49,0.55,0.26,0.54,0.42,0.5,0.36,0.52,0.5,0.36,0.44,0.3,0.42,0.52,0.55,0.68,0.26,0.3,0.53,0.55,0.52,0.42" style="fill:rgb(0,0,0);font-family:AdvOT1ef757c0;font-size:9.27px;stroke:none;">produce a cross-linked polymer network incorporated with Fe</text>
   <text y="294.463" x="268.611" svgx:width="0.48" style="fill:rgb(0,0,0);font-family:AdvOT1ef757c0;font-size:6.18px;stroke:none;">3</text>
   <text y="292.932" x="271.899" svgx:width="0.74" style="fill:rgb(0,0,0);font-family:AdvOT1ef757c0;font-size:9.27px;stroke:none;">O</text>
   <text y="294.463" x="278.759" svgx:width="0.48" style="fill:rgb(0,0,0);font-family:AdvOT1ef757c0;font-size:6.18px;stroke:none;">4</text>
   <text y="292.932" x="283.918,288.551" svgx:width="0.5,0.36" style="fill:rgb(0,0,0);font-family:AdvOT1ef757c0;font-size:9.27px;stroke:none;">or</text>
   <text y="303.59" x="42.86,51.06,56.072,62.9318,66.047,71.06,75.109,80.121,84.754,89.572,93.621,96.993,99.791,102.2,106.055,108.371,112.226,115.5632,118.772,121.95,128.797,134.005,137.377,140.555,142.5944,145.702,151.975,156.894,159.303,163.158,168.0711,171.214,175.068,179.117,184.12279999999998,187.258,191.89,195.78339999999997,198.88,201.678,206.598,210.453,213.825,221.349,225.397,227.714,230.03,234.2942,237.432,241.287,245.919,250.932,255.175,259.03,262.402,265.2,269.055,273.8754,277.061,279.47,284.482,287.28" svgx:width="0.88,0.54,0.74,0.55,0.54,0.44,0.54,0.5,0.52,0.44,0.36,0.3,0.26,0.42,0.25,0.42,0.36,0.55,0.34,0.74,0.56,0.36,0.34,0.22,0.55,0.68,0.53,0.26,0.42,0.53,0.55,0.42,0.44,0.54,0.55,0.5,0.42,0.55,0.3,0.53,0.42,0.36,0.81,0.44,0.25,0.25,0.46,0.55,0.42,0.5,0.54,0.46,0.42,0.36,0.3,0.42,0.52,0.55,0.26,0.54,0.3,0.5" style="fill:rgb(0,0,0);font-family:AdvOT1ef757c0;font-size:9.27px;stroke:none;">MnO nanoparticles (NPs), which can be thermally converted into</text>
   <text y="314.248" x="42.86,47.678,52.69,55.099,57.796,62.428,65.801,75.005,81.852,87.059,94.008,101.764,106.777,110.826,115.838,120.471,124.325,128.958,136.481,141.299,145.932,149.304,151.713,154.511,158.366,161.7032,163.503,166.2,170.832,174.1692,175.862,180.782,183.868,189.2446,190.943,194.992,199.809,204.627,206.944,209.353,213.207,217.256,220.054,222.463,227.096" svgx:width="0.52,0.54,0.26,0.29,0.5,0.36,0.81,0.74,0.56,0.75,0.66,0.54,0.44,0.54,0.5,0.42,0.5,0.81,0.52,0.5,0.36,0.26,0.3,0.42,0.36,0.55,0.29,0.5,0.36,0.55,0.53,0.33,0.58,0.55,0.44,0.52,0.52,0.25,0.26,0.42,0.44,0.3,0.26,0.5,0.54" style="fill:rgb(0,0,0);font-family:AdvOT1ef757c0;font-size:9.27px;stroke:none;">uniformNP@Cnanocomposites for LIB application</text>
   <text y="310.79" x="232.214,234.977" svgx:width="0.48,0.48" style="fill:rgb(0,0,0);font-family:AdvOT1ef757c0;font-size:5.13px;stroke:none;">26</text>
   <text y="314.249" x="237.713,239.7524,241.398,248.44,253.072,259.345,263.199,267.443,271.297,274.67,276.7094,278.419,281.218,286.137,288.546" svgx:width="0.22,0.55,0.76,0.5,0.68,0.42,0.46,0.42,0.36,0.22,0.55,0.3,0.53,0.26,0.36" style="fill:rgb(0,0,0);font-family:AdvOT1ef757c0;font-size:9.27px;stroke:none;">. However, this</text>
   <text y="324.907" x="42.86,46.909,51.727,56.545,59.918,64.55,68.599,72.454,77.3671,79.995,82.404,85.74119999999999,88.385,91.758,94.556,96.965,99.281,101.5985,104.203,108.057,112.69,117.703,121.075,123.873,127.246,131.295,133.704,138.716,142.571,147.3914,150.068,154.701,158.96519999999998,161.52,164.318,169.238,173.13139999999999,175.693,180.511,183.884,187.7774,190.377,195.01,197.6983,200.298,204.153,208.785,213.798,218.616,223.434,227.288,230.086,232.495,237.508,241.7722,244.406,249.224,253.856,256.173,260.416,267.94,271.794,275.1312,277.798,281.847,285.1842,287.832" svgx:width="0.44,0.52,0.52,0.36,0.5,0.44,0.42,0.53,0.55,0.26,0.36,0.55,0.36,0.3,0.26,0.25,0.25,0.55,0.42,0.5,0.54,0.36,0.3,0.36,0.44,0.26,0.54,0.42,0.52,0.55,0.5,0.46,0.55,0.3,0.53,0.42,0.55,0.52,0.36,0.42,0.55,0.5,0.29,0.55,0.42,0.5,0.54,0.52,0.52,0.42,0.3,0.26,0.54,0.46,0.55,0.52,0.5,0.25,0.46,0.81,0.42,0.36,0.55,0.44,0.36,0.55,0.44" style="fill:rgb(0,0,0);font-family:AdvOT1ef757c0;font-size:9.27px;stroke:none;">approach is still constrained by the use of conducting polymer as a</text>
   <text y="335.508" x="42.86,47.493,49.902,54.915,59.732,63.587,66.9242,70.413,74.462,79.475,84.2954,87.762,91.134,93.933,97.305,102.123,105.977,108.776,113.593,116.966,121.015,123.3325,126.823,131.641,134.05,137.423,141.277,145.132,147.93,150.339,155.351,159.6152,163.051,167.1,171.343,175.198,180.21,183.008,185.0474,188.506,192.555,197.568,202.38840000000002,205.855,208.653,213.573,217.46640000000002,220.878,225.511,230.144,232.942,236.991,239.4,244.412,248.267,253.0874,256.539,259.911,263.766,268.009,271.863,275.236,278.609,281.017,285.65,288.06" svgx:width="0.5,0.26,0.54,0.52,0.42,0.36,0.55,0.44,0.54,0.52,0.55,0.36,0.3,0.36,0.52,0.42,0.3,0.52,0.36,0.44,0.25,0.55,0.52,0.26,0.36,0.42,0.42,0.3,0.26,0.54,0.46,0.55,0.44,0.46,0.42,0.54,0.3,0.22,0.55,0.44,0.54,0.52,0.55,0.3,0.53,0.42,0.55,0.5,0.5,0.3,0.44,0.26,0.54,0.42,0.52,0.55,0.36,0.42,0.46,0.42,0.36,0.36,0.26,0.5,0.25,0.42" style="fill:rgb(0,0,0);font-family:AdvOT1ef757c0;font-size:9.27px;stroke:none;">binder and structural directing agent, and the obtained reversible</text>
   <text y="346.166" x="42.86,46.715,50.764,55.582,59.631,63.485,65.894,68.692,72.9562,75.799,80.432,83.1203,85.948,88.746,93.666,97.5594,100.404,108.604,113.617,120.464,127.413,133.53119999999998,136.348,141.361,145.41,150.422,155.055,158.909,163.542,171.065,175.883,180.516,183.888,186.297,189.096,192.9894,195.877,198.286,201.6232,204.494,207.867,210.665,213.074,215.39,217.70749999999998,220.539,223.235,227.284,230.6212,233.522,236.218,239.591,244.223,251.73170000000002,254.611,257.41,262.329,266.2224,269.012,271.81,276.73,280.584,285.217,288.589" svgx:width="0.42,0.44,0.52,0.44,0.42,0.26,0.3,0.46,0.55,0.5,0.29,0.55,0.3,0.53,0.42,0.55,0.88,0.54,0.74,0.75,0.66,0.55,0.54,0.44,0.54,0.5,0.42,0.5,0.81,0.52,0.5,0.36,0.26,0.3,0.42,0.55,0.26,0.36,0.55,0.36,0.3,0.26,0.25,0.25,0.55,0.29,0.44,0.36,0.55,0.29,0.36,0.5,0.81,0.55,0.3,0.53,0.42,0.55,0.3,0.53,0.42,0.5,0.36,0.35" style="fill:rgb(0,0,0);font-family:AdvOT1ef757c0;font-size:9.27px;stroke:none;">capacity of the MnO@C nanocomposite is still far from the theor-</text>
   <text y="356.824" x="42.86,46.715,49.513,51.922,55.776,59.825,62.142500000000005,64.574,68.817,72.866,75.182,80.0,83.855,87.227" svgx:width="0.42,0.3,0.26,0.42,0.44,0.25,0.55,0.46,0.44,0.25,0.52,0.42,0.36,0.22" style="fill:rgb(0,0,0);font-family:AdvOT1ef757c0;font-size:9.27px;stroke:none;">etical values.</text>
   <text y="367.652" x="52.102,55.187,60.1928,62.136,64.934,69.854,72.263,75.6002,77.5,82.318,86.367,91.184,95.039,98.411,100.4504,102.388,108.661,112.5544,114.407,119.225,123.079,130.603,135.235,140.248,143.62,146.419,149.791,153.84,156.638,160.53140000000002,162.484,166.5628,168.437,171.133,175.182,179.036,181.445,183.762,187.6554,189.526,197.05,200.904,203.702,208.622,213.255,218.0754,219.971,222.667,227.3,230.6372,232.614,237.432,239.841,243.213,247.068,250.922,253.703,255.632,259.486,264.119,268.168,270.966,273.375,278.387,282.6512,284.602,289.235" svgx:width="0.33,0.54,0.55,0.3,0.53,0.26,0.36,0.55,0.52,0.44,0.52,0.42,0.36,0.22,0.55,0.68,0.42,0.55,0.52,0.42,0.81,0.5,0.54,0.36,0.3,0.36,0.44,0.3,0.42,0.55,0.44,0.55,0.29,0.44,0.42,0.26,0.25,0.42,0.55,0.81,0.42,0.3,0.53,0.5,0.52,0.55,0.29,0.5,0.36,0.55,0.52,0.26,0.36,0.42,0.42,0.3,0.55,0.42,0.5,0.44,0.3,0.26,0.54,0.46,0.55,0.5,0.29" style="fill:rgb(0,0,0);font-family:AdvOT1ef757c0;font-size:9.27px;stroke:none;">In this paper, we demonstrate a facile method for direct coating of</text>
   <text y="378.31" x="42.86,51.06,56.073,64.631,69.264,72.636,76.88,80.929,85.941,88.35,92.2434,93.998,98.816,102.189,106.043,109.898,114.716,118.088,121.461,126.093,129.4302,131.246,134.618,139.251,141.567,146.385,149.183,151.592,156.225,161.2308,162.994,167.627,172.639,175.438,180.07299999999998,181.817,185.189,190.007,194.64,198.012,200.811,204.183,208.232,211.03,214.885,218.2222,220.029,226.301,228.71,231.508,236.428,241.061,245.879,248.66,250.416,254.27,258.903,263.916,268.734,273.552,277.406,280.204,282.613,287.626" svgx:width="0.88,0.54,0.74,0.5,0.36,0.46,0.44,0.54,0.26,0.42,0.55,0.52,0.36,0.42,0.42,0.52,0.36,0.36,0.5,0.36,0.55,0.36,0.5,0.25,0.52,0.3,0.26,0.5,0.54,0.55,0.5,0.54,0.3,0.5,0.55,0.36,0.52,0.5,0.36,0.3,0.36,0.44,0.3,0.42,0.36,0.55,0.68,0.26,0.3,0.53,0.5,0.52,0.3,0.55,0.42,0.5,0.54,0.52,0.52,0.42,0.3,0.26,0.54,0.46" style="fill:rgb(0,0,0);font-family:AdvOT1ef757c0;font-size:9.27px;stroke:none;">MnOorganic precursor solution onto substrates without conducting</text>
   <text y="388.968" x="42.86,47.678,52.311,54.627,58.871,66.394,70.249,73.58619999999999,76.366,80.999,83.408,88.421,93.239,97.093,100.465,103.838,105.8774,108.569,111.265,115.898,118.214,120.53,125.163,131.436,135.29,140.1104,142.868,147.501,151.7652,154.434,157.232,162.152,166.006,169.379,176.902,180.951,183.2685,186.012,188.81,192.183,196.037,200.086,202.884,210.408,214.262,219.274,222.055,224.79,227.588,232.22299999999998,234.938,239.182,242.554,247.187,253.4906,256.199,263.722,268.355,273.367,278.0,282.818,285.227,288.599" svgx:width="0.52,0.5,0.25,0.46,0.81,0.42,0.36,0.55,0.5,0.26,0.54,0.52,0.42,0.36,0.36,0.22,0.55,0.29,0.5,0.25,0.25,0.5,0.68,0.42,0.52,0.55,0.5,0.46,0.55,0.3,0.53,0.42,0.36,0.81,0.44,0.25,0.55,0.3,0.36,0.42,0.44,0.3,0.81,0.42,0.54,0.3,0.55,0.3,0.5,0.55,0.46,0.36,0.5,0.68,0.55,0.81,0.5,0.54,0.5,0.52,0.26,0.36,0.35" style="fill:rgb(0,0,0);font-family:AdvOT1ef757c0;font-size:9.27px;stroke:none;">polymer binders, followed by thermal treatment to grow monodis-</text>
   <text y="399.626" x="42.86,47.678,51.533,54.905,58.278,62.132,66.95" svgx:width="0.52,0.42,0.36,0.36,0.42,0.52,0.22" style="fill:rgb(0,0,0);font-family:AdvOT1ef757c0;font-size:9.27px;stroke:none;">persed,</text>
   <text y="399.626" x="72.454" svgx:width="0.83" style="fill:rgb(0,0,0);font-family:AdvP7DB7;font-size:9.27px;stroke:none;">,</text>
   <text y="399.626" x="80.221,84.659,89.10860000000001,92.183,97.196,104.719,107.999,112.817,115.226,119.275,126.798,130.653,133.451,137.305,140.6422,144.172,152.372,157.384,164.2438,167.757,174.604,179.811,183.1482,186.692,190.546,198.07,202.703,206.557,211.375,216.193,220.047,224.8674,228.362,230.771,235.77679999999998,239.303,243.3818,246.787,254.31,258.165,261.537,266.17,270.988,275.62,278.993,283.626,288.444" svgx:width="0.48,0.48,0.55,0.54,0.81,0.35,0.52,0.26,0.44,0.81,0.42,0.3,0.42,0.36,0.55,0.88,0.54,0.74,0.55,0.74,0.56,0.36,0.55,0.42,0.81,0.5,0.42,0.52,0.52,0.42,0.52,0.55,0.26,0.54,0.55,0.44,0.55,0.81,0.42,0.36,0.5,0.52,0.5,0.36,0.5,0.52,0.36" style="fill:rgb(0,0,0);font-family:AdvOT1ef757c0;font-size:9.27px;stroke:none;">10 nm-diameter MnO NPs embedded in a mesoporous</text>
   <text y="410.283" x="42.86,46.715,50.764,54.136,58.769,63.402,68.4078,73.191,80.715,84.764,87.562,90.934,93.343,97.6999,102.502,105.68,110.498,112.907,117.15,121.968,125.341,129.2344,134.023,138.462,141.64,143.6794,148.424,154.113,159.032,161.441,164.7782,169.627,177.827,182.84,189.687,196.636,202.7542,207.498,212.511,216.56,221.572,226.205,230.059,234.692,242.215,247.033,251.666,255.038,257.447,260.246,264.13939999999997,268.954,273.003,275.319,277.636,282.268,288.541" svgx:width="0.42,0.44,0.36,0.5,0.5,0.54,0.55,0.81,0.44,0.3,0.36,0.26,0.47,0.55,0.34,0.52,0.26,0.46,0.52,0.36,0.42,0.55,0.48,0.34,0.22,0.55,0.61,0.53,0.26,0.36,0.55,0.88,0.54,0.74,0.75,0.66,0.55,0.54,0.44,0.54,0.5,0.42,0.5,0.81,0.52,0.5,0.36,0.26,0.3,0.42,0.55,0.44,0.25,0.25,0.5,0.68,0.36" style="fill:rgb(0,0,0);font-family:AdvOT1ef757c0;font-size:9.27px;stroke:none;">carbon matrix (Figure 1). This MnO@C nanocomposite allows</text>
   <text y="420.941" x="42.86,45.557,50.189,53.5262,57.997,61.851,64.548,67.244,69.653,73.507,75.916,79.771,84.783,87.56400000000001,92.127,95.981,100.901,104.95,108.322,112.566,116.4594,120.927,123.725,127.098,131.147,136.159,139.532,142.228,146.082,149.455,151.4944,155.964,158.373,163.37879999999998,167.87,174.142,179.062,181.471,185.325,190.23809999999997,194.743,197.541,202.461,206.3544,210.787,214.641,218.69,222.062,226.695,231.328,236.3338,240.834,248.357,252.406,255.204,258.577,260.986,265.3429,269.805,273.177,277.032,280.404,284.648,288.502" svgx:width="0.29,0.5,0.36,0.55,0.42,0.29,0.29,0.26,0.42,0.26,0.42,0.54,0.3,0.55,0.42,0.53,0.44,0.36,0.46,0.42,0.55,0.3,0.36,0.44,0.54,0.36,0.29,0.42,0.36,0.22,0.55,0.26,0.54,0.55,0.68,0.53,0.26,0.42,0.53,0.55,0.3,0.53,0.42,0.55,0.42,0.44,0.36,0.5,0.5,0.54,0.55,0.81,0.44,0.3,0.36,0.26,0.47,0.55,0.36,0.42,0.36,0.46,0.42,0.36" style="fill:rgb(0,0,0);font-family:AdvOT1ef757c0;font-size:9.27px;stroke:none;">for efficient charge transfer, in which the carbon matrix serves</text>
   <text y="431.543" x="42.86,46.909,50.2462,53.689,56.487,61.407,65.3004,68.656,76.179,80.228,82.545,87.177,90.5142,93.941,98.759,102.808,105.606,110.526,116.798,120.847,125.091,128.4282,131.869,134.565,139.198,142.5352,145.986,149.84,154.853,159.773,163.822,168.834,172.689,176.543,181.3634,184.821,188.676,193.596,197.645,201.017,205.261,209.1544,212.544,215.342,218.715,222.764,227.776,231.149,235.967,240.599,243.972,246.75300000000001,250.189,252.885,256.258,260.891,268.3997,271.789,279.989,285.002" svgx:width="0.44,0.36,0.55,0.3,0.53,0.42,0.55,0.81,0.44,0.25,0.5,0.36,0.55,0.52,0.44,0.3,0.53,0.68,0.44,0.46,0.36,0.55,0.29,0.5,0.36,0.55,0.42,0.54,0.53,0.44,0.54,0.42,0.42,0.52,0.55,0.42,0.53,0.44,0.36,0.46,0.42,0.55,0.3,0.36,0.44,0.54,0.36,0.52,0.5,0.36,0.3,0.55,0.29,0.36,0.5,0.81,0.55,0.88,0.54,0.74" style="fill:rgb(0,0,0);font-family:AdvOT1ef757c0;font-size:9.27px;stroke:none;">as the major pathways for enhanced charge transport from MnO</text>
   <text y="442.201" x="42.86,49.707,54.915,58.287,60.3264,62.646,65.732,70.7378,73.135,77.184,82.002,86.82,89.229,92.027,94.436,99.068,104.081,106.1204,108.455,111.253,116.173,120.0664,122.401,129.925,133.779,137.151,141.784,146.602,151.235,154.607,158.462,161.79919999999998,164.241,168.874,171.5623,173.936,176.734,181.654,185.54739999999998,187.825,191.68,195.729,199.101,203.734,208.366,213.3718,215.775,223.298,227.347,230.145,233.518,235.927,240.2839,242.648,247.281,249.977,252.673,256.527,259.8642,262.264,266.118,268.814,271.51,273.919,277.774,280.183,284.037,289.05" svgx:width="0.74,0.56,0.36,0.22,0.55,0.33,0.54,0.55,0.44,0.52,0.52,0.26,0.3,0.26,0.5,0.54,0.22,0.55,0.3,0.53,0.42,0.55,0.81,0.42,0.36,0.5,0.52,0.5,0.36,0.42,0.36,0.55,0.5,0.29,0.55,0.3,0.53,0.42,0.55,0.42,0.44,0.36,0.5,0.5,0.54,0.55,0.81,0.44,0.3,0.36,0.26,0.47,0.55,0.5,0.29,0.29,0.42,0.36,0.55,0.42,0.29,0.29,0.26,0.42,0.26,0.42,0.54,0.3" style="fill:rgb(0,0,0);font-family:AdvOT1ef757c0;font-size:9.27px;stroke:none;">NPs. In addition, the mesopores of the carbon matrix offer efficient</text>
   <text y="452.858" x="42.86,50.384,54.433,57.805,61.1422,63.043,65.841,69.214,73.263,78.275,81.648,86.466,91.098,94.471,97.25200000000001,99.214,101.91,106.543,109.8802,111.743,115.598,117.914,121.768,125.623,128.421,131.793,136.426,138.742,142.986,145.873,149.76639999999998,151.599,154.971,159.604,161.92,166.738,169.536,171.945,176.578,181.5838,183.46,187.509,192.522,197.3424,199.222,203.076,207.996,211.85,219.374,221.783,225.637,229.686,232.0035,233.918,237.291,242.109,245.963,249.818,252.227,256.081,259.453,261.4924,263.399,269.671,274.591,277.0,279.316,283.20939999999996,285.055,289.104" svgx:width="0.81,0.44,0.36,0.36,0.55,0.3,0.36,0.44,0.54,0.36,0.52,0.5,0.36,0.3,0.55,0.29,0.5,0.36,0.55,0.42,0.25,0.42,0.42,0.3,0.36,0.5,0.25,0.46,0.3,0.42,0.55,0.36,0.5,0.25,0.52,0.3,0.26,0.5,0.54,0.55,0.44,0.54,0.52,0.55,0.42,0.53,0.42,0.81,0.26,0.42,0.44,0.25,0.55,0.36,0.52,0.42,0.42,0.26,0.42,0.36,0.22,0.55,0.68,0.53,0.26,0.25,0.42,0.55,0.44,0.3" style="fill:rgb(0,0,0);font-family:AdvOT1ef757c0;font-size:9.27px;stroke:none;">mass transport for electrolyte solution and chemical species, while at</text>
   <text y="463.516" x="42.86,45.658,50.578,54.4714,56.75,60.123,64.171,71.695,75.5884,77.897,80.695,83.104,90.628,94.5214,96.889,101.707,105.08,109.712,113.956,116.365,121.183,123.592,128.604,132.8682,135.214,139.458,144.09,146.407,151.225,158.748,162.64139999999998,164.978,169.611,174.429,177.125,179.821,183.675,187.0122,189.413,192.11,196.742,200.0792,202.452,210.652,215.665,222.5248,224.847,231.694,236.901,240.2382,242.648,247.466,252.284,255.657,258.065,263.078,267.3422,269.691,272.007,274.416,277.214,282.134,284.543,288.592" svgx:width="0.3,0.53,0.42,0.55,0.36,0.44,0.81,0.42,0.55,0.3,0.26,0.81,0.42,0.55,0.52,0.36,0.5,0.46,0.26,0.52,0.26,0.54,0.46,0.55,0.46,0.5,0.25,0.52,0.81,0.42,0.55,0.5,0.52,0.29,0.29,0.42,0.36,0.55,0.29,0.5,0.36,0.55,0.88,0.54,0.74,0.55,0.74,0.56,0.36,0.55,0.52,0.52,0.36,0.26,0.54,0.46,0.55,0.25,0.26,0.3,0.53,0.26,0.44,0.35" style="fill:rgb(0,0,0);font-family:AdvOT1ef757c0;font-size:9.27px;stroke:none;">the same time providing volume buffer for MnO NPs during lithia-</text>
   <text y="474.174" x="42.86,45.658,48.067,52.7,57.713,60.696,65.514,69.368,71.685,74.094,76.892,81.812,84.221,88.27,91.068,93.477,98.109,103.122,105.1614,110.269,113.067,117.987,122.805,126.1422,131.246,133.562,137.416,141.465,146.283,148.692,153.705,157.9692,162.994,165.792,170.427,175.524,179.378,183.714,187.569,191.423,193.739,196.056,199.91,204.923,207.704,212.771,216.144,220.193,222.991,226.88440000000003,231.934,235.788,239.837,244.655,248.704,253.337,255.746,258.062,260.471,263.269,265.678,269.532,272.8692,278.026,282.075,287.087" svgx:width="0.3,0.26,0.5,0.54,0.32,0.52,0.42,0.25,0.26,0.3,0.53,0.26,0.44,0.3,0.26,0.5,0.54,0.22,0.55,0.3,0.53,0.52,0.36,0.55,0.25,0.42,0.44,0.52,0.26,0.54,0.46,0.55,0.3,0.5,0.55,0.42,0.47,0.42,0.42,0.25,0.25,0.42,0.54,0.3,0.55,0.36,0.44,0.3,0.42,0.55,0.42,0.44,0.52,0.44,0.5,0.26,0.25,0.26,0.3,0.26,0.42,0.36,0.55,0.44,0.54,0.52" style="fill:rgb(0,0,0);font-family:AdvOT1ef757c0;font-size:9.27px;stroke:none;">tion/delithiation, thus leading to excellent rate capabilities and</text>
   <text y="484.776" x="42.86,46.715,50.958,54.813,57.129,59.538,64.55,68.8142,71.434,74.806,77.604,81.653,86.286,88.695,91.011,93.42,96.218,100.4822,103.126,107.758,110.4463,113.103,115.901,120.821,123.23,126.5672,129.261,137.461,142.473,149.32,156.269,162.3872,164.978,169.99,174.039,179.052,183.685,187.539,192.172,199.695,204.607,209.239,212.612,215.021,217.819,221.673,223.7124,226.32,231.138,235.956,239.328,242.126,247.046,250.901,254.273,261.797,266.429,269.802,273.656,275.6954,278.365,281.163,286.083,288.492" svgx:width="0.42,0.46,0.42,0.25,0.26,0.54,0.46,0.55,0.36,0.3,0.44,0.5,0.26,0.25,0.26,0.3,0.46,0.55,0.5,0.29,0.55,0.3,0.53,0.26,0.36,0.55,0.88,0.54,0.74,0.75,0.66,0.55,0.54,0.44,0.54,0.5,0.42,0.5,0.81,0.52,0.5,0.36,0.26,0.3,0.42,0.22,0.55,0.52,0.52,0.36,0.3,0.53,0.42,0.36,0.81,0.5,0.36,0.42,0.22,0.55,0.3,0.53,0.26,0.36" style="fill:rgb(0,0,0);font-family:AdvOT1ef757c0;font-size:9.27px;stroke:none;">cycling stability of this MnO@C nanocomposite. Furthermore, this</text>
   <text y="495.433" x="42.86,46.909,51.727,56.545,59.918,64.55,68.599,72.454,77.3671,80.505,84.36,88.409,93.4148,96.493,101.125,105.0184,108.058,112.107,116.925,121.743,124.06,126.469,130.323,135.1434,138.276,141.074,145.709,148.765,152.8438,155.908,158.224,162.273,165.646,169.889,173.7824,176.885,181.128,185.177,188.55,190.959,194.813,197.611,201.87519999999998,204.948,209.581,212.2693,215.38,218.753,223.571,228.203,231.576,234.374,237.747,241.796,244.594,248.448,251.821,253.8604,256.937,259.346,264.359,268.213,270.529,275.347,280.165,282.574,287.587" svgx:width="0.44,0.52,0.52,0.36,0.5,0.44,0.42,0.53,0.55,0.42,0.44,0.54,0.55,0.5,0.42,0.55,0.44,0.52,0.52,0.25,0.26,0.42,0.52,0.55,0.3,0.5,0.55,0.44,0.55,0.25,0.44,0.36,0.46,0.42,0.55,0.46,0.44,0.36,0.26,0.42,0.3,0.46,0.55,0.5,0.29,0.55,0.36,0.52,0.5,0.36,0.3,0.36,0.44,0.3,0.42,0.36,0.22,0.55,0.26,0.54,0.42,0.25,0.52,0.52,0.26,0.54,0.46" style="fill:rgb(0,0,0);font-family:AdvOT1ef757c0;font-size:9.27px;stroke:none;">approach can be applied to a large variety of substrates, including</text>
   <text y="506.091" x="42.86,45.557,47.873,51.727,56.063,58.472,63.105,65.421,69.3144,70.924,75.557,80.569,84.424,87.7612,89.463,92.159,96.792,100.1292,101.878,106.696,111.329,114.127,117.982,122.994,125.792,128.201,132.25,134.5675,136.235,140.284,145.102,149.92,152.236,154.645,158.5,162.549,165.347,167.756,172.388,177.401,180.7382,182.498,184.907,189.9128,191.568,196.386,201.019,204.392,207.19,211.239,215.871,218.188,222.08139999999997,223.714,227.568,232.58,236.435,239.807,244.051,248.31519999999998,250.02,253.392,256.19,260.823,264.195,268.244,272.488,276.3814,278.026,282.075,287.087" svgx:width="0.29,0.25,0.42,0.47,0.26,0.5,0.25,0.42,0.55,0.5,0.54,0.42,0.36,0.55,0.29,0.5,0.36,0.55,0.52,0.5,0.3,0.42,0.54,0.3,0.26,0.44,0.25,0.55,0.44,0.52,0.52,0.25,0.26,0.42,0.44,0.3,0.26,0.5,0.54,0.36,0.55,0.26,0.54,0.55,0.52,0.5,0.36,0.3,0.44,0.5,0.25,0.42,0.55,0.42,0.54,0.42,0.36,0.46,0.46,0.55,0.36,0.3,0.5,0.36,0.44,0.46,0.42,0.55,0.44,0.54,0.52" style="fill:rgb(0,0,0);font-family:AdvOT1ef757c0;font-size:9.27px;stroke:none;">flexible ones for potential applications in portable energy storage and</text>
   <text y="58.501" x="303.874,307.247,311.101,316.114,319.486,321.895,326.908,331.17220000000003,335.509,340.327,344.182,348.425,350.834,354.689,358.543,361.916,363.9554,368.392,374.757,378.0942,382.452,387.27,390.643,395.275,399.908,402.604,405.977,409.257,413.974,416.67,419.95,423.804,428.437,433.449,437.304,441.158,445.976,448.774,450.8134,455.19,460.11,463.196,468.5726,472.935,476.984,481.997,486.629,491.447,495.302,498.6392,503.097,510.62,514.669,519.487,523.3804,527.701,532.334,535.0223,539.437,542.235,547.155,549.564" svgx:width="0.36,0.42,0.54,0.36,0.26,0.54,0.46,0.55,0.52,0.42,0.46,0.26,0.42,0.42,0.36,0.22,0.55,0.69,0.36,0.55,0.52,0.36,0.5,0.5,0.29,0.36,0.35,0.5,0.29,0.35,0.42,0.5,0.54,0.42,0.42,0.52,0.3,0.22,0.55,0.53,0.33,0.58,0.55,0.44,0.54,0.5,0.52,0.42,0.36,0.55,0.81,0.44,0.52,0.42,0.55,0.5,0.29,0.55,0.3,0.53,0.26,0.36" style="fill:rgb(0,0,0);font-family:AdvOT1ef757c0;font-size:9.27px;stroke:none;">sensing devices. As proofs-of-concept, LIB anodes made of this</text>
   <text y="68.99" x="303.874,311.397,316.03,321.043,325.675,330.493,332.902,336.275,341.093,344.947,348.32,351.692,355.547,360.36740000000003,362.269,370.468,375.481,382.328,389.277,397.192,402.205,406.254,411.266,415.899,419.753,424.386,431.909,436.727,441.36,444.733,447.142,449.94,453.8334,455.643,460.461,462.87,466.243,471.061,473.377,477.426,481.6902,483.537,487.391,491.727,495.581,499.436,501.752,504.068,507.923,512.935,515.7159999999999,517.61,520.982,524.837,529.08,532.935,536.307,539.68,542.089,546.721,549.038" svgx:width="0.81,0.5,0.54,0.5,0.52,0.26,0.36,0.52,0.42,0.36,0.36,0.42,0.52,0.55,0.88,0.54,0.74,0.75,0.66,0.54,0.44,0.54,0.5,0.42,0.5,0.81,0.52,0.5,0.36,0.26,0.3,0.42,0.55,0.52,0.26,0.36,0.52,0.25,0.44,0.46,0.55,0.42,0.47,0.42,0.42,0.25,0.25,0.42,0.54,0.3,0.55,0.36,0.42,0.46,0.42,0.36,0.36,0.26,0.5,0.25,0.42" style="fill:rgb(0,0,0);font-family:AdvOT1ef757c0;font-size:9.27px;stroke:none;">monodispersed MnO@Cnanocomposite display excellent reversible</text>
   <text y="79.478" x="303.874,307.728,311.777,316.595,320.644,324.499,326.908,329.706,332.115,335.969,339.3062,342.256,346.888,349.5763,352.46,357.093,361.337,365.191,368.52819999999997,371.452,375.89,380.329,384.7786,387.667,391.716,396.728,401.5484,404.448,408.886,413.324,417.7736,420.889,428.413,434.778,439.6911,442.546" svgx:width="0.42,0.44,0.52,0.44,0.42,0.26,0.3,0.26,0.42,0.36,0.55,0.5,0.29,0.55,0.5,0.46,0.42,0.36,0.55,0.48,0.48,0.48,0.55,0.44,0.54,0.52,0.55,0.48,0.48,0.48,0.55,0.81,0.69,0.53,0.55,0.46" style="fill:rgb(0,0,0);font-family:AdvOT1ef757c0;font-size:9.27px;stroke:none;">capacities of over 800 and 520 mAh g</text>
   <text y="76.082" x="446.797" svgx:width="0.83" style="fill:rgb(0,0,0);font-family:AdvP414BFB;font-size:5.13px;stroke:none;">2</text>
   <text y="76.082" x="451.615" svgx:width="0.48" style="fill:rgb(0,0,0);font-family:AdvOT1ef757c0;font-size:5.13px;stroke:none;">1</text>
   <text y="79.484" x="457.228,461.277,464.058,466.979,470.833,475.651,479.024,482.396,486.251,491.263,494.044,496.97,501.788,505.642,510.655,514.027,516.436,519.234,521.643,525.498,528.8352000000001,531.78,536.412,539.1003000000001,542.041,546.479,548.499" svgx:width="0.44,0.3,0.55,0.42,0.52,0.36,0.36,0.42,0.54,0.3,0.55,0.52,0.42,0.54,0.36,0.26,0.3,0.26,0.42,0.36,0.55,0.5,0.29,0.55,0.48,0.22,0.48" style="fill:rgb(0,0,0);font-family:AdvOT1ef757c0;font-size:9.27px;stroke:none;">at current densities of 0.1</text>
   <text y="90.028" x="303.875,307.923,312.936,317.7564,321.45,325.89959999999996,328.99,335.3863,339.082" svgx:width="0.44,0.54,0.52,0.55,0.48,0.55,0.69,0.55,0.46" style="fill:rgb(0,0,0);font-family:AdvOT1ef757c0;font-size:9.27px;stroke:none;">and 2 A g</text>
   <text y="86.57" x="343.332" svgx:width="0.83" style="fill:rgb(0,0,0);font-family:AdvP414BFB;font-size:5.13px;stroke:none;">2</text>
   <text y="86.57" x="348.094" svgx:width="0.48" style="fill:rgb(0,0,0);font-family:AdvOT1ef757c0;font-size:5.13px;stroke:none;">1</text>
   <text y="90.028" x="350.872,352.9114,356.598,359.971,363.825,367.198,372.016,375.87,379.725,382.523,384.932,389.175,393.03,395.346,399.589,401.6284,405.355,409.691,414.509,419.327,423.182,426.554,430.409,434.457,439.275,443.324,447.179,449.588,452.386,457.018,460.391,463.7282,467.548,475.072,479.121,483.939,487.8324,491.53,496.163,498.85130000000004,502.585,505.383,510.303,512.712,516.0492,519.82,528.019,533.032,539.879,546.828" svgx:width="0.22,0.55,0.36,0.42,0.36,0.52,0.42,0.42,0.3,0.26,0.46,0.42,0.25,0.46,0.22,0.55,0.47,0.52,0.52,0.42,0.36,0.42,0.44,0.52,0.44,0.42,0.26,0.3,0.5,0.36,0.36,0.55,0.81,0.44,0.52,0.42,0.55,0.5,0.29,0.55,0.3,0.53,0.26,0.36,0.55,0.88,0.54,0.74,0.75,0.66" style="fill:rgb(0,0,0);font-family:AdvOT1ef757c0;font-size:9.27px;stroke:none;">, respectively. Supercapacitors made of this MnO@C</text>
   <text y="100.517" x="303.874,308.887,312.936,317.948,322.581,326.435,331.068,338.591,343.409,348.042,351.414,353.823,356.622,360.5154,363.63,367.484,371.82,376.74,379.149,383.782,386.191,388.972,392.09,395.463,398.261,402.31,406.942,409.259,413.1524,416.242,420.096,424.145,428.963,433.012,436.867,439.276,442.074,446.123,451.135,454.99,458.844,462.1812,465.395,470.028,472.71630000000005,475.827,480.265,484.703,489.15259999999995,492.268,496.317,501.33,506.1504,509.277,513.715,518.1646000000001,521.239,526.0594,529.176" svgx:width="0.54,0.44,0.54,0.5,0.42,0.5,0.81,0.52,0.5,0.36,0.26,0.3,0.42,0.55,0.42,0.47,0.53,0.26,0.5,0.26,0.3,0.55,0.36,0.3,0.44,0.5,0.25,0.42,0.55,0.42,0.44,0.52,0.44,0.42,0.26,0.3,0.44,0.54,0.42,0.42,0.36,0.55,0.5,0.29,0.55,0.48,0.48,0.48,0.55,0.44,0.54,0.52,0.55,0.48,0.48,0.55,0.52,0.55,0.46" style="fill:rgb(0,0,0);font-family:AdvOT1ef757c0;font-size:9.27px;stroke:none;">nanocomposite exhibit stable capacitances of 160 and 40 F g</text>
   <text y="97.115" x="533.424" svgx:width="0.83" style="fill:rgb(0,0,0);font-family:AdvP414BFB;font-size:5.13px;stroke:none;">2</text>
   <text y="97.115" x="538.186" svgx:width="0.48" style="fill:rgb(0,0,0);font-family:AdvOT1ef757c0;font-size:5.13px;stroke:none;">1</text>
   <text y="100.516" x="540.964,543.0034,546.066,550.115" svgx:width="0.22,0.55,0.44,0.3" style="fill:rgb(0,0,0);font-family:AdvOT1ef757c0;font-size:9.27px;stroke:none;">, at</text>
   <text y="111.005" x="303.875,307.729,312.547,315.92,319.292,323.147,328.159,330.94,334.093,338.911,342.765,347.778,351.15,353.559,356.357,358.766,362.621,365.9582,369.129,373.762,376.4503,379.618,384.06759999999997,387.158,391.207,396.219,401.0394,404.166,408.604,413.05359999999996,416.129,422.5253,425.596" svgx:width="0.42,0.52,0.36,0.36,0.42,0.54,0.3,0.55,0.52,0.42,0.54,0.36,0.26,0.3,0.26,0.42,0.36,0.55,0.5,0.29,0.55,0.48,0.55,0.44,0.54,0.52,0.55,0.48,0.48,0.55,0.69,0.55,0.46" style="fill:rgb(0,0,0);font-family:AdvOT1ef757c0;font-size:9.27px;stroke:none;">current densities of 1 and 40 A g</text>
   <text y="107.603" x="429.846" svgx:width="0.83" style="fill:rgb(0,0,0);font-family:AdvP414BFB;font-size:5.13px;stroke:none;">2</text>
   <text y="107.603" x="434.664" svgx:width="0.48" style="fill:rgb(0,0,0);font-family:AdvOT1ef757c0;font-size:5.13px;stroke:none;">1</text>
   <text y="111.005" x="437.386,439.4254,442.545,445.917,449.772,453.144,457.962,461.816,465.671,468.469,470.878,475.121,478.976,481.292,485.536,487.5754,490.734,497.007,501.927,504.336,508.19,513.1031,516.246,520.295,522.612,525.984,530.619,533.708,537.08,542.0,546.633" svgx:width="0.22,0.55,0.36,0.42,0.36,0.52,0.42,0.42,0.3,0.26,0.46,0.42,0.25,0.46,0.22,0.55,0.68,0.53,0.26,0.42,0.53,0.55,0.44,0.25,0.36,0.5,0.55,0.36,0.53,0.5,0.68" style="fill:rgb(0,0,0);font-family:AdvOT1ef757c0;font-size:9.27px;stroke:none;">, respectively, which also show</text>
   <text y="121.55" x="303.875,307.729,312.065,315.919,319.774,322.09,324.406,328.261,333.273,336.05400000000003,338.911,346.435,350.289,354.143,359.063,363.112,368.125,370.534,374.388,378.437,380.7545,383.586,386.958,389.757,393.805,398.438,400.847,403.163,405.572,408.37,412.6342,415.391,420.023,424.267,428.121,431.4582,434.326,437.699,441.553,446.371,450.226,454.275,457.073,460.927,465.7474,468.569,471.265,475.898,478.214,483.032,485.441,490.454,494.7182,497.54,501.589,506.601,511.4214,514.208,517.581,520.379,523.751,527.606,530.404,534.258,539.178,541.587,546.599,550.843" svgx:width="0.42,0.47,0.42,0.42,0.25,0.25,0.42,0.54,0.3,0.55,0.81,0.42,0.42,0.53,0.44,0.54,0.26,0.42,0.44,0.25,0.55,0.36,0.3,0.44,0.5,0.26,0.25,0.26,0.3,0.46,0.55,0.5,0.46,0.42,0.36,0.55,0.36,0.42,0.52,0.42,0.44,0.3,0.42,0.52,0.55,0.29,0.5,0.25,0.52,0.26,0.54,0.46,0.55,0.44,0.54,0.52,0.55,0.36,0.3,0.36,0.42,0.3,0.42,0.53,0.26,0.54,0.46,0.22" style="fill:rgb(0,0,0);font-family:AdvOT1ef757c0;font-size:9.27px;stroke:none;">excellent mechanical stability over repeated folding and stretching.</text>
   <text y="132.038" x="303.875,308.693,311.102,316.114,320.163,322.479,324.796,329.039,331.0784,334.489,337.287,342.207,344.616,347.9532,351.441,359.641,364.653,371.5,378.449,384.5672,387.952,392.964,397.013,402.026,406.658,410.513,415.145,422.669,427.487,432.119,435.492,437.901,440.699,444.5924,448.047,452.865,456.72,464.243,468.876,473.888,477.261,480.059,483.431,487.48,490.279,494.133,497.4702,500.943,504.315,508.17,513.182,516.555,518.964,521.762,524.171,528.415,532.3084,535.753,539.607,541.923,545.778,549.632" svgx:width="0.52,0.26,0.54,0.44,0.25,0.25,0.46,0.22,0.55,0.3,0.53,0.26,0.36,0.55,0.88,0.54,0.74,0.75,0.66,0.55,0.54,0.44,0.54,0.5,0.42,0.5,0.81,0.52,0.5,0.36,0.26,0.3,0.42,0.55,0.52,0.42,0.81,0.5,0.54,0.36,0.3,0.36,0.44,0.3,0.42,0.36,0.55,0.36,0.42,0.54,0.36,0.26,0.3,0.26,0.46,0.42,0.55,0.42,0.25,0.42,0.42,0.35" style="fill:rgb(0,0,0);font-family:AdvOT1ef757c0;font-size:9.27px;stroke:none;">Finally, this MnO@C nanocomposite demonstrates sensitive elec-</text>
   <text y="142.526" x="303.875,306.673,310.045,312.454,316.309,320.358,322.6755,325.135,328.507,332.362,335.734,340.552,345.185,350.197,353.57,357.4634,359.888,362.686,367.32099999999997,369.753" svgx:width="0.3,0.36,0.26,0.42,0.44,0.25,0.55,0.36,0.42,0.36,0.52,0.5,0.54,0.36,0.42,0.55,0.3,0.5,0.55,0.76" style="fill:rgb(0,0,0);font-family:AdvOT1ef757c0;font-size:9.27px;stroke:none;">trical response to H</text>
   <text y="144.113" x="376.781" svgx:width="0.48" style="fill:rgb(0,0,0);font-family:AdvOT1ef757c0;font-size:6.18px;stroke:none;">2</text>
   <text y="142.526" x="380.126" svgx:width="0.74" style="fill:rgb(0,0,0);font-family:AdvOT1ef757c0;font-size:9.27px;stroke:none;">O</text>
   <text y="144.113" x="386.986" svgx:width="0.48" style="fill:rgb(0,0,0);font-family:AdvOT1ef757c0;font-size:6.18px;stroke:none;">2</text>
   <text y="142.526" x="392.768,395.177,400.18280000000004,402.633,407.266,412.084,414.78,417.476,421.331,424.6682,427.125,430.498,435.13,437.447,442.265,445.063,447.472,452.104,457.117,460.489,462.5284,464.997,469.046,474.058,478.8784,481.324,486.244,490.293,493.6302,496.121,500.754,504.608,508.462,513.4678,515.964,520.012,524.83,529.648,531.965,534.374,538.228,543.0483999999999,545.501,548.299" svgx:width="0.26,0.54,0.55,0.5,0.52,0.29,0.29,0.42,0.36,0.55,0.36,0.5,0.25,0.52,0.3,0.26,0.5,0.54,0.36,0.22,0.55,0.44,0.54,0.52,0.55,0.53,0.44,0.36,0.55,0.5,0.42,0.42,0.54,0.55,0.44,0.52,0.52,0.25,0.26,0.42,0.52,0.55,0.3,0.5" style="fill:rgb(0,0,0);font-family:AdvOT1ef757c0;font-size:9.27px;stroke:none;">in buffer solutions, and has been applied to</text>
   <text y="153.071" x="303.874,306.283,311.296,314.094,317.948,321.321,324.693,329.326,333.57,337.619,340.417,344.31039999999996,346.735,349.533,354.453,358.34639999999996,360.795" svgx:width="0.26,0.54,0.3,0.42,0.36,0.36,0.5,0.46,0.44,0.3,0.42,0.55,0.3,0.53,0.42,0.55,0.76" style="fill:rgb(0,0,0);font-family:AdvOT1ef757c0;font-size:9.27px;stroke:none;">interrogate the H</text>
   <text y="154.602" x="367.823" svgx:width="0.48" style="fill:rgb(0,0,0);font-family:AdvOT1ef757c0;font-size:6.18px;stroke:none;">2</text>
   <text y="153.071" x="371.168" svgx:width="0.74" style="fill:rgb(0,0,0);font-family:AdvOT1ef757c0;font-size:9.27px;stroke:none;">O</text>
   <text y="154.602" x="378.028" svgx:width="0.48" style="fill:rgb(0,0,0);font-family:AdvOT1ef757c0;font-size:6.18px;stroke:none;">2</text>
   <text y="153.071" x="383.811,387.665,392.298,397.31,401.165,405.019,410.032,412.83,416.202,420.251,423.049,425.458,430.091,435.09680000000003,437.614,440.023,445.02880000000005,447.478,451.333,455.187,457.503,459.82,464.638,466.954,471.003,474.3402,476.846,480.895,484.267,487.64,491.689,495.932,499.2692,501.791,504.487,509.119,512.4562000000001,514.944,517.742,522.56,530.083,534.716,538.0532000000001,540.57,544.424,548.278,550.595" svgx:width="0.42,0.5,0.54,0.42,0.42,0.54,0.3,0.36,0.44,0.3,0.26,0.5,0.54,0.55,0.26,0.54,0.55,0.42,0.42,0.25,0.25,0.52,0.25,0.44,0.36,0.55,0.44,0.36,0.36,0.44,0.46,0.36,0.55,0.29,0.5,0.36,0.55,0.3,0.52,0.81,0.5,0.36,0.55,0.42,0.42,0.25,0.25" style="fill:rgb(0,0,0);font-family:AdvOT1ef757c0;font-size:9.27px;stroke:none;">concentration in cellular assays for tumor cell</text>
   <text y="163.559" x="303.875,307.923,312.936,316.985,319.301,323.545,326.917,329.326,332.699" svgx:width="0.44,0.54,0.44,0.25,0.46,0.36,0.26,0.36,0.22" style="fill:rgb(0,0,0);font-family:AdvOT1ef757c0;font-size:9.27px;stroke:none;">analysis.</text>
   <text y="188.674" x="303.874,310.281,315.998,320.825,327.034,329.788,333.138" svgx:width="0.68,0.6,0.51,0.66,0.29,0.35,0.51" style="fill:rgb(0,0,0);font-family:AdvOTf32ed098.B;font-size:9.46px;stroke:none;">Results</text>
   <text y="201.317" x="303.874,308.507,312.75,317.957,321.043,326.055,330.011,333.486,336.182,339.7046,341.462,345.706,350.913,355.91880000000003,357.677,361.151,364.236,367.896,373.011,376.865,379.95,385.065,388.725,392.968,395.47090000000003,397.305,401.16,406.172,410.416,414.075,418.319,422.173,425.259,429.215,432.875,435.571,439.62,443.863,446.949,449.645,454.463" svgx:width="0.5,0.46,0.56,0.33,0.54,0.43,0.38,0.29,0.38,0.55,0.46,0.56,0.54,0.55,0.38,0.33,0.4,0.55,0.42,0.33,0.55,0.4,0.46,0.27,0.55,0.42,0.54,0.46,0.4,0.46,0.42,0.33,0.43,0.4,0.29,0.44,0.46,0.33,0.29,0.52,0.56" style="fill:rgb(0,0,0);font-family:AdvOTb65e897d.B;font-size:9.27px;stroke:none;">Synthesis and structural characterization</text>
   <text y="201.317" x="459.779" svgx:width="0.24" style="fill:rgb(0,0,0);font-family:AdvOT5e4d79fc;font-size:9.27px;stroke:none;">.</text>
   <text y="201.317" x="463.748,469.436,474.356,478.2494,480.018,488.218,493.231,500.078,507.027,514.885,519.897,523.946,528.959,533.591,537.446,542.078,549.602" svgx:width="0.61,0.53,0.42,0.55,0.88,0.54,0.74,0.75,0.66,0.54,0.44,0.54,0.5,0.42,0.5,0.81,0.35" style="fill:rgb(0,0,0);font-family:AdvOT1ef757c0;font-size:9.27px;stroke:none;">The MnO@Cnanocom-</text>
   <text y="211.861" x="303.874,308.692,313.325,316.697,319.106,321.904,325.7974,328.252,330.661,333.9982,336.472,339.845,344.088,349.101,351.899,356.819,360.673,364.046,366.454,370.309,374.163,378.9834,381.543,386.176,390.4402,392.882,396.9608,399.402,406.925,411.558,416.376,418.785,421.481,423.89,427.744,432.56440000000003,435.062,442.586,446.44,449.238,454.158,458.791" svgx:width="0.52,0.5,0.36,0.26,0.3,0.42,0.55,0.26,0.36,0.55,0.36,0.46,0.54,0.3,0.53,0.42,0.36,0.26,0.42,0.42,0.52,0.55,0.5,0.46,0.55,0.44,0.55,0.81,0.5,0.52,0.26,0.29,0.26,0.42,0.52,0.55,0.81,0.42,0.3,0.53,0.5,0.52" style="fill:rgb(0,0,0);font-family:AdvOT1ef757c0;font-size:9.27px;stroke:none;">posite is synthesized by a modified method</text>
   <text y="208.403" x="463.634,466.397" svgx:width="0.48,0.48" style="fill:rgb(0,0,0);font-family:AdvOT1ef757c0;font-size:5.13px;stroke:none;">27</text>
   <text y="211.861" x="469.134,471.1734,473.613,476.022,481.0278,483.534,489.806,494.726,497.135,500.99,505.9031,508.366,512.4448,514.886,523.086,528.098,531.378,536.011,538.327,542.181,546.23,549.028" svgx:width="0.22,0.55,0.26,0.54,0.55,0.68,0.53,0.26,0.42,0.53,0.55,0.44,0.55,0.88,0.54,0.35,0.5,0.25,0.42,0.44,0.3,0.42" style="fill:rgb(0,0,0);font-family:AdvOT1ef757c0;font-size:9.27px;stroke:none;">, in which a Mn-oleate</text>
   <text y="222.35" x="303.874,308.692,312.065,315.919,319.773,324.591,327.964,331.336,335.969,339.3062,343.843,347.215,351.848,354.164,358.982,361.78,364.189,368.822,373.8278,378.312,380.721,384.0582,388.574,393.392,395.801,399.173,403.028,406.882,409.68,411.996,416.2602,420.719,424.573,429.206,433.255,436.053,439.907,444.7274,449.236,453.868,458.8738,463.296,467.3748,471.799,475.654,480.286,485.299,490.117,494.935,498.789,501.587,503.996,509.009,513.2732,517.777,521.15,525.968,530.601,533.973,536.771,540.144,544.193,546.991,550.845" svgx:width="0.52,0.36,0.42,0.42,0.52,0.36,0.36,0.5,0.36,0.55,0.36,0.5,0.25,0.52,0.3,0.26,0.5,0.54,0.55,0.26,0.36,0.55,0.52,0.26,0.36,0.42,0.42,0.3,0.25,0.46,0.55,0.42,0.5,0.44,0.3,0.42,0.52,0.55,0.5,0.54,0.55,0.44,0.55,0.42,0.5,0.54,0.52,0.52,0.42,0.3,0.26,0.54,0.46,0.55,0.36,0.52,0.5,0.36,0.3,0.36,0.44,0.3,0.42,0.22" style="fill:rgb(0,0,0);font-family:AdvOT1ef757c0;font-size:9.27px;stroke:none;">precursor solution is directly coated on a conducting substrate,</text>
   <text y="232.838" x="303.874,306.57,311.203,313.519,315.836,320.468,326.741,330.595,335.41540000000003,339.024,343.657,347.9212,351.439,354.238,359.157,363.012,366.384,373.908,377.957,380.2745,383.868,387.722,391.771,394.088,397.942,400.351,405.363,409.412,412.211,414.62,419.252,424.25780000000003,427.919,431.968,434.749,438.351,442.789,447.227" svgx:width="0.29,0.5,0.25,0.25,0.5,0.68,0.42,0.52,0.55,0.5,0.46,0.55,0.3,0.53,0.42,0.36,0.81,0.44,0.25,0.55,0.42,0.44,0.25,0.42,0.26,0.54,0.44,0.3,0.26,0.5,0.54,0.55,0.44,0.3,0.55,0.48,0.48,0.48" style="fill:rgb(0,0,0);font-family:AdvOT1ef757c0;font-size:9.27px;stroke:none;">followed by thermal calcination at 550</text>
   <text y="232.838" x="451.672" svgx:width="0.38" style="fill:rgb(0,0,0);font-family:AdvP44E6F4;font-size:9.27px;stroke:none;">u</text>
   <text y="232.838" x="455.244,461.36220000000003,464.882,467.291,472.2968,475.881,482.246,485.5832,489.203,492.381,500.581,504.435,507.234,512.153,516.786,521.604,524.977,528.155,530.1944,533.821,540.186,542.883,545.681,549.535" svgx:width="0.66,0.55,0.26,0.54,0.55,0.69,0.36,0.55,0.34,0.88,0.42,0.3,0.53,0.5,0.52,0.36,0.34,0.22,0.55,0.69,0.29,0.3,0.42,0.36" style="fill:rgb(0,0,0);font-family:AdvOT1ef757c0;font-size:9.27px;stroke:none;">C in Ar (Methods). After</text>
   <text y="243.383" x="303.874,306.672,311.592,315.48539999999997,318.445,321.817,326.45,328.766,333.584,336.382,338.791,343.424,348.4298,351.44,355.295,359.927,363.976,366.774,369.183,374.196,378.439,380.4784,383.472,386.27,391.19,395.0834,397.985,401.358,406.176,410.809,414.181,416.979,420.352,424.401,427.199,431.0924,434.1,437.472,442.29,445.663,448.359,452.408,456.262,460.1554,463.127,465.536,468.8732,471.914,475.769,480.401,484.645,488.499,491.872,495.726,500.5464,503.55,508.182,512.4462,515.398,519.4768,522.428,527.246,532.258,534.667,537.363,541.996,545.369" svgx:width="0.3,0.53,0.42,0.55,0.36,0.5,0.25,0.52,0.3,0.26,0.5,0.54,0.55,0.42,0.5,0.44,0.3,0.26,0.54,0.46,0.22,0.55,0.3,0.53,0.42,0.55,0.36,0.52,0.5,0.36,0.3,0.36,0.44,0.3,0.42,0.55,0.36,0.52,0.36,0.29,0.44,0.42,0.42,0.55,0.26,0.36,0.55,0.42,0.5,0.46,0.42,0.36,0.42,0.52,0.55,0.5,0.46,0.55,0.44,0.55,0.52,0.54,0.26,0.29,0.5,0.36,0.81" style="fill:rgb(0,0,0);font-family:AdvOT1ef757c0;font-size:9.27px;stroke:none;">the solution coating, the substrate surface is covered by a uniform</text>
   <text y="253.871" x="303.874,306.19,310.239,314.483,318.337,321.6742,325.304,329.937,332.62530000000004,336.189,340.821,344.194,348.827,355.099,360.1048,363.685,367.54,372.172,374.489,379.121,382.4582,386.136,392.409,396.458,400.794,405.0582,408.587,411.959,416.592,418.908,421.317,426.135,428.1744,431.774,438.047,442.967,445.376,449.23,454.1431,457.74,460.538,465.356,468.729,473.741,477.0782,480.701,485.334,487.65,491.699,495.554,500.0963,503.719,507.768,510.464,513.262,517.117,520.4542,524.072,526.87,531.79,535.645,539.017,546.541,550.59" svgx:width="0.25,0.44,0.46,0.42,0.36,0.55,0.5,0.29,0.55,0.5,0.36,0.5,0.68,0.54,0.55,0.42,0.5,0.25,0.5,0.36,0.55,0.68,0.44,0.47,0.46,0.55,0.36,0.5,0.25,0.26,0.52,0.22,0.55,0.68,0.53,0.26,0.42,0.53,0.55,0.3,0.52,0.36,0.54,0.36,0.55,0.5,0.25,0.44,0.42,0.49,0.55,0.44,0.29,0.3,0.42,0.36,0.55,0.3,0.53,0.42,0.36,0.81,0.44,0.25" style="fill:rgb(0,0,0);font-family:AdvOT1ef757c0;font-size:9.27px;stroke:none;">layer of brown color waxy solid, which turns black after thermal</text>
   <text y="264.36" x="303.874,306.672,310.045,313.899,317.948,320.746,328.27,332.124,337.137,339.935,341.9744,347.698,353.387,358.307,360.716,364.0532,369.809,374.627,377.999,382.632,386.486,390.341,393.713,397.0502,402.804,406.659,410.708,415.71380000000005,421.456,426.089,429.9824,435.63,439.678,444.496,449.314,451.631,454.04,457.894,462.7144,468.456,471.254,475.889,481.552,485.6308,491.303,493.619,497.668,501.041,505.284,509.1774,514.888,519.131,523.18,526.553,528.962,532.816,535.614,539.8782,545.559,550.191" svgx:width="0.3,0.36,0.42,0.44,0.3,0.81,0.42,0.54,0.3,0.22,0.55,0.61,0.53,0.26,0.36,0.55,0.52,0.36,0.5,0.42,0.42,0.36,0.36,0.55,0.42,0.44,0.54,0.55,0.5,0.42,0.55,0.44,0.52,0.52,0.25,0.26,0.42,0.52,0.55,0.3,0.5,0.55,0.44,0.55,0.25,0.44,0.36,0.46,0.42,0.55,0.46,0.44,0.36,0.26,0.42,0.3,0.46,0.55,0.5,0.29" style="fill:rgb(0,0,0);font-family:AdvOT1ef757c0;font-size:9.27px;stroke:none;">treatment. This process can be applied to a large variety of</text>
   <text y="274.904" x="303.874,307.247,312.065,316.697,320.07,322.868,326.241,330.29,333.088,336.942,340.315,342.3544,345.94,348.349,353.362,357.216,359.533,364.351,369.169,371.578,376.59,380.8542,384.492,391.339,393.7492,397.362,400.058,404.691,408.74,416.263,418.3024,421.854,427.543,429.9532,433.533,436.229,440.862,443.271,445.587,447.6264,451.221,455.075,459.124,462.497,467.13,471.762,476.7678,480.418,483.114,485.523,490.156,494.01,497.383,499.4224,502.982,506.354,508.763,511.08,513.489,517.343,521.976,526.9818,530.591,536.864,540.913,543.609,547.463,550.836" svgx:width="0.36,0.52,0.5,0.36,0.3,0.36,0.44,0.3,0.42,0.36,0.22,0.55,0.26,0.54,0.42,0.25,0.52,0.52,0.26,0.54,0.46,0.55,0.74,0.26,0.55,0.29,0.5,0.44,0.81,0.22,0.55,0.61,0.26,0.55,0.29,0.5,0.26,0.25,0.22,0.55,0.42,0.44,0.36,0.5,0.5,0.54,0.55,0.29,0.26,0.5,0.42,0.36,0.22,0.55,0.36,0.26,0.25,0.26,0.42,0.5,0.54,0.55,0.68,0.44,0.29,0.42,0.36,0.22" style="fill:rgb(0,0,0);font-family:AdvOT1ef757c0;font-size:9.27px;stroke:none;">substrates, including Ni foam, Ti foil, carbon fiber, silicon wafer,</text>
   <text y="285.393" x="303.874,306.57,308.887,313.705,318.337,321.71,324.119,329.131,332.986,336.266,341.084,345.716,350.534,354.389,359.2094,361.191,363.989,366.398,371.40380000000005,373.323,377.956,382.292,384.701,389.519,393.4124,395.377,398.555,403.373,409.062,415.909,419.0608,421.003,425.247,427.563,431.612,434.985,438.357,440.3964,442.32,446.369,451.381,456.2014,458.194,461.567,466.202,468.116,472.748,477.7538,479.681,482.859,487.676,490.085,494.329,499.147,502.519,506.4124,508.368,512.704,517.142,520.32,522.3594,524.242,526.651,531.663,536.481,538.89,542.745,546.794,549.592" svgx:width="0.29,0.25,0.52,0.5,0.36,0.26,0.54,0.42,0.35,0.52,0.5,0.52,0.42,0.52,0.55,0.3,0.26,0.54,0.55,0.5,0.47,0.26,0.52,0.42,0.55,0.34,0.52,0.61,0.74,0.34,0.55,0.46,0.25,0.44,0.36,0.36,0.22,0.55,0.44,0.54,0.52,0.55,0.36,0.5,0.55,0.5,0.54,0.55,0.34,0.52,0.26,0.46,0.52,0.36,0.42,0.55,0.47,0.48,0.34,0.22,0.55,0.26,0.54,0.52,0.26,0.42,0.44,0.3,0.35" style="fill:rgb(0,0,0);font-family:AdvOT1ef757c0;font-size:9.27px;stroke:none;">fluorine-doped tin oxide (FTO) glass, and so on (Figure S1), indicat-</text>
   <text y="295.938" x="303.874,306.283,311.296,315.5602,320.655,323.454,328.373,332.2664,337.323,341.566,345.421,350.433,354.288,357.66,361.709,364.0265,369.128,373.177,377.42,381.469,383.878,386.194,390.243,394.876,397.285,399.601,402.01,404.808,409.0722,414.199,418.832,421.5203,426.614,429.412,434.332,436.741,440.0782,445.21,448.008,454.281,458.913,462.193,465.566,468.364,472.218,477.0384,482.174,486.028,490.661,494.71,497.508,499.917,504.929,509.173,512.453,516.307,520.94,525.952,530.196,534.05,537.423,540.795,543.204,547.837" svgx:width="0.26,0.54,0.46,0.55,0.3,0.53,0.42,0.55,0.46,0.42,0.54,0.42,0.36,0.44,0.25,0.55,0.44,0.46,0.44,0.26,0.25,0.44,0.5,0.26,0.25,0.26,0.3,0.46,0.55,0.5,0.29,0.55,0.3,0.53,0.26,0.36,0.55,0.3,0.68,0.5,0.35,0.36,0.3,0.42,0.52,0.55,0.42,0.5,0.44,0.3,0.26,0.54,0.46,0.35,0.42,0.5,0.54,0.46,0.42,0.36,0.36,0.26,0.5,0.54" style="fill:rgb(0,0,0);font-family:AdvOT1ef757c0;font-size:9.27px;stroke:none;">ing the general availability of this two-step coating-conversion</text>
   <text y="306.426" x="303.874,311.398,315.252,318.05,322.97,327.603,332.421,334.4604,339.931,345.62,350.54,354.4334,359.887,362.583,364.992,367.308,374.81669999999997,380.296,383.094,388.014,390.423,394.278,398.808,403.821,407.675,411.048,414.3852,419.981,423.354,427.208,430.581,435.399,437.715,440.513,444.368,449.1884,454.678,457.374,460.747,465.379,472.8877,478.376,482.4548,487.901,491.273,493.682,498.695,502.938,505.255,509.1484,514.603,518.458,523.09,527.139,529.937,532.346,537.359,541.6232,547.146,549.555" svgx:width="0.81,0.42,0.3,0.53,0.5,0.52,0.22,0.55,0.61,0.53,0.42,0.55,0.29,0.26,0.25,0.81,0.55,0.3,0.53,0.26,0.42,0.49,0.54,0.42,0.36,0.36,0.55,0.36,0.42,0.36,0.52,0.25,0.3,0.42,0.52,0.55,0.29,0.36,0.5,0.81,0.55,0.44,0.55,0.36,0.26,0.54,0.46,0.25,0.42,0.55,0.42,0.5,0.44,0.3,0.26,0.54,0.46,0.55,0.26,0.36" style="fill:rgb(0,0,0);font-family:AdvOT1ef757c0;font-size:9.27px;stroke:none;">method. The film thickness resulted from a single coating is</text>
   <text y="316.914" x="303.874" svgx:width="0.83" style="fill:rgb(0,0,0);font-family:AdvP7DB7;font-size:9.27px;stroke:none;">,</text>
   <text y="316.914" x="311.585,316.023,320.461,324.9106,327.969,332.982,340.4907,344.354,347.532,352.35,354.759,359.003,363.821,367.193,371.08639999999997,374.856,379.192,383.63,387.679,390.857,392.8964,396.683,400.537,405.17,408.542,411.915,415.769,419.142,423.96,428.593,433.605,438.423,440.832,445.844,450.1082,453.943,456.741,461.376,465.168,469.2468,472.992,478.004,481.859,484.64,488.47,495.993,500.042,503.414,506.7512,510.58,515.398,519.253,522.5902000000001,526.454,530.503,533.876,537.73,541.8088,545.617,550.25" svgx:width="0.48,0.48,0.48,0.55,0.54,0.81,0.55,0.34,0.52,0.26,0.46,0.52,0.36,0.42,0.55,0.47,0.48,0.44,0.34,0.22,0.55,0.42,0.5,0.36,0.36,0.42,0.36,0.52,0.5,0.54,0.52,0.26,0.54,0.46,0.55,0.3,0.5,0.55,0.44,0.55,0.54,0.42,0.3,0.55,0.81,0.44,0.36,0.36,0.55,0.52,0.42,0.36,0.55,0.44,0.36,0.42,0.44,0.55,0.5,0.29" style="fill:rgb(0,0,0);font-family:AdvOT1ef757c0;font-size:9.27px;stroke:none;">300 nm (Figure S2a), corresponding to a net mass per area of</text>
   <text y="327.459" x="303.874" svgx:width="0.83" style="fill:rgb(0,0,0);font-family:AdvP7DB7;font-size:9.27px;stroke:none;">,</text>
   <text y="327.459" x="311.585,316.023,318.043,322.481,326.93059999999997,330.01,337.533,341.79720000000003,345.43,349.284" svgx:width="0.48,0.22,0.48,0.48,0.55,0.81,0.46,0.55,0.42,0.81" style="fill:rgb(0,0,0);font-family:AdvOT1ef757c0;font-size:9.27px;stroke:none;">1.24 mg cm</text>
   <text y="324.0" x="356.825" svgx:width="0.83" style="fill:rgb(0,0,0);font-family:AdvP414BFB;font-size:5.13px;stroke:none;">2</text>
   <text y="324.0" x="361.587" svgx:width="0.48" style="fill:rgb(0,0,0);font-family:AdvOT1ef757c0;font-size:5.13px;stroke:none;">2</text>
   <text y="327.458" x="367.994,371.172,375.99,378.399,382.642,387.46,390.833,394.7264,398.381,402.717,407.155,411.788,414.966,417.0054,420.605,426.294,430.148,434.966,438.82,442.869,445.667,449.522,454.3424,458.023,461.877,466.51,470.559,473.357,475.766,480.778,485.04220000000004,488.694,493.326,496.01430000000005,499.635,502.433,507.353,511.2464,514.886,523.086,528.098,531.378,536.011,538.327,542.181,546.23,549.028" svgx:width="0.34,0.52,0.26,0.46,0.52,0.36,0.42,0.55,0.47,0.48,0.5,0.34,0.22,0.55,0.61,0.42,0.52,0.42,0.44,0.3,0.42,0.52,0.55,0.42,0.5,0.44,0.3,0.26,0.54,0.46,0.55,0.5,0.29,0.55,0.3,0.53,0.42,0.55,0.88,0.54,0.35,0.5,0.25,0.42,0.44,0.3,0.42" style="fill:rgb(0,0,0);font-family:AdvOT1ef757c0;font-size:9.27px;stroke:none;">(Figure S2b). Repeated coating of the Mn-oleate</text>
   <text y="337.947" x="303.874,308.692,312.065,315.919,319.773,324.591,327.964,331.336,335.969,339.3062,344.75,348.122,352.755,355.071,359.889,362.687,365.096,369.729,374.7348,380.183,384.816,389.8218,395.207,398.005,402.925,406.8184,412.158,415.53,420.348,424.981,428.353,431.151,434.608,438.657,441.455,445.34839999999997,450.71,453.026,456.88,460.929,465.747,469.0842,474.52,477.319,481.954,487.333,491.382,496.3878,501.79,505.839,508.155,515.679,520.311,523.684,526.4649999999999,531.894,534.21,536.619,541.632,545.486,549.535" svgx:width="0.52,0.36,0.42,0.42,0.52,0.36,0.36,0.5,0.36,0.55,0.36,0.5,0.25,0.52,0.3,0.26,0.5,0.54,0.55,0.5,0.54,0.55,0.3,0.53,0.42,0.55,0.36,0.52,0.5,0.36,0.3,0.36,0.44,0.3,0.42,0.55,0.25,0.42,0.44,0.52,0.36,0.55,0.3,0.5,0.55,0.44,0.54,0.55,0.44,0.25,0.81,0.5,0.36,0.3,0.55,0.25,0.26,0.54,0.42,0.44,0.36" style="fill:rgb(0,0,0);font-family:AdvOT1ef757c0;font-size:9.27px;stroke:none;">precursor solution on the substrate leads to an almost linear</text>
   <text y="348.435" x="303.874,306.283,311.296,315.15,318.522,322.377,326.426,329.798,333.6914,337.097,341.729,344.4173,347.868,350.667,355.586,359.4794,362.892,365.588,367.997,370.314,377.8227,381.261,388.784,392.833,396.206,399.5432,403.031,409.304,411.713,414.511,419.4241,422.874,425.672,430.592,434.48539999999997,437.841,441.695,446.328,450.377,453.175,455.584,460.597,464.8612,468.286,471.084,473.493,481.016,484.871,488.243,490.2824,493.741,500.783,503.192,507.435,512.355,515.635,519.008,522.862,526.235,530.867,533.184,538.002,540.8,543.209,547.841" svgx:width="0.26,0.54,0.42,0.36,0.42,0.44,0.36,0.42,0.55,0.5,0.29,0.55,0.3,0.53,0.42,0.55,0.29,0.26,0.25,0.81,0.55,0.81,0.44,0.36,0.36,0.55,0.68,0.26,0.3,0.53,0.55,0.3,0.53,0.42,0.55,0.42,0.5,0.44,0.3,0.26,0.54,0.46,0.55,0.3,0.26,0.81,0.42,0.36,0.22,0.55,0.76,0.26,0.46,0.53,0.35,0.36,0.42,0.36,0.5,0.25,0.52,0.3,0.26,0.5,0.54" style="fill:rgb(0,0,0);font-family:AdvOT1ef757c0;font-size:9.27px;stroke:none;">increase of the film mass with the coating times. High-resolution</text>
   <text y="358.98" x="303.874,307.247,311.101,315.15,320.162,325.175,327.584,332.596,336.8602,340.952,344.806,347.123,350.977,354.831,357.629,361.002,365.635,370.6408,374.741,382.265,384.674,388.528,391.901,396.533,399.906,403.76,408.393,413.211,417.47520000000003,421.514,424.692,429.028,434.235,442.435,445.5868,449.747,452.156,459.679,463.728,467.972,471.826,475.1632,479.285,482.657,487.577,492.21,498.5136,502.529,505.327,510.247,514.295,517.0759999999999,521.18,523.979,528.898,532.7914000000001,536.771,540.144,544.962,549.594" svgx:width="0.36,0.42,0.44,0.54,0.54,0.26,0.54,0.46,0.55,0.42,0.25,0.42,0.42,0.3,0.36,0.5,0.54,0.55,0.81,0.26,0.42,0.36,0.5,0.36,0.42,0.5,0.52,0.46,0.55,0.34,0.47,0.56,0.88,0.34,0.55,0.26,0.81,0.44,0.46,0.42,0.36,0.55,0.36,0.53,0.5,0.68,0.55,0.3,0.53,0.44,0.3,0.55,0.3,0.53,0.42,0.55,0.36,0.52,0.5,0.35" style="fill:rgb(0,0,0);font-family:AdvOT1ef757c0;font-size:9.27px;stroke:none;">scanning electron microscopy (SEM) images show that the sub-</text>
   <text y="369.468" x="303.874,307.247,310.045,313.417,317.466,320.264,324.1574,327.402,329.811,333.1482,336.53,340.384,345.017,349.26,353.114,356.487,360.341,365.1614,368.505,374.778,377.187,379.985,384.8981,388.178,392.2568,395.548,398.244,400.653,402.969,410.47769999999997,413.803,418.436,421.1243,424.404,431.928,436.746,439.062,441.86,444.269,447.549,449.865,453.914,458.158,462.012,465.385,469.239,474.057,476.0964,479.454,484.374,488.228,492.565,496.614,500.857,505.49,510.502,514.551,516.868,519.184,523.4481999999999,526.794,530.648,532.964,537.597,540.969,544.824,549.642" svgx:width="0.36,0.3,0.36,0.44,0.3,0.42,0.55,0.26,0.36,0.55,0.42,0.5,0.46,0.42,0.36,0.42,0.52,0.55,0.68,0.26,0.3,0.53,0.55,0.44,0.55,0.29,0.26,0.25,0.81,0.55,0.5,0.29,0.55,0.81,0.52,0.25,0.3,0.26,0.35,0.25,0.44,0.46,0.42,0.36,0.42,0.52,0.22,0.55,0.53,0.42,0.47,0.44,0.46,0.5,0.54,0.44,0.25,0.25,0.46,0.55,0.42,0.25,0.5,0.36,0.42,0.52,0.35" style="fill:rgb(0,0,0);font-family:AdvOT1ef757c0;font-size:9.27px;stroke:none;">strate is covered with a film of multi-layered, hexagonally closed-</text>
   <text y="380.013" x="303.874,308.692,312.741,316.595,321.126,324.98,329.8004,334.092,337.464,342.282,347.202,351.057,354.429,356.838,360.693,364.742,367.0595,371.339,378.186,383.37719999999996,387.61,391.659,395.032,398.404,402.453,406.697,410.069,412.1084,416.354,422.626,425.035,427.834,432.7471,437.047,441.1258,445.324,450.142,455.154,457.563,460.259,464.892,468.265,475.77369999999996,480.077,483.449,485.858,489.713,493.6064,497.822,502.64,505.049,508.421,511.219,514.592,517.001,521.634,526.452,529.25,531.659,536.291,541.2968000000001,545.557,550.19" svgx:width="0.52,0.44,0.42,0.49,0.42,0.52,0.55,0.36,0.52,0.53,0.42,0.36,0.26,0.42,0.44,0.25,0.55,0.74,0.56,0.55,0.44,0.36,0.36,0.44,0.46,0.36,0.22,0.55,0.68,0.26,0.3,0.53,0.55,0.44,0.55,0.52,0.54,0.26,0.29,0.5,0.36,0.81,0.55,0.36,0.26,0.42,0.42,0.55,0.52,0.26,0.36,0.3,0.36,0.26,0.5,0.52,0.3,0.26,0.5,0.54,0.55,0.5,0.29" style="fill:rgb(0,0,0);font-family:AdvOT1ef757c0;font-size:9.27px;stroke:none;">packed spherical NP arrays, with a uniform size distribution of</text>
   <text y="390.501" x="303.874" svgx:width="0.83" style="fill:rgb(0,0,0);font-family:AdvP7DB7;font-size:9.27px;stroke:none;">,</text>
   <text y="390.501" x="311.585,316.023,320.4726,323.547,328.56,336.0687,339.818,342.996,347.814,350.223,354.466,359.284,362.657,366.55039999999997,370.263,374.701,378.75,380.7894,384.55,389.182,392.36,394.3994,398.099,403.788,407.837,412.85,417.668,422.3,429.824,431.8634,435.63,439.003,443.923,448.556,451.928,454.709,458.421,462.276,465.648,469.697,473.551,478.082,481.4192,485.237,489.286,492.658,496.5514,500.261,504.893,509.526,512.898,516.753,520.125,524.369,528.223,533.0433999999999,536.771,541.404,545.648,549.502" svgx:width="0.48,0.48,0.55,0.54,0.81,0.55,0.34,0.52,0.26,0.46,0.52,0.36,0.42,0.55,0.48,0.44,0.22,0.55,0.5,0.34,0.22,0.55,0.61,0.44,0.54,0.52,0.5,0.81,0.22,0.55,0.36,0.53,0.5,0.36,0.3,0.55,0.42,0.36,0.44,0.42,0.49,0.36,0.55,0.44,0.36,0.42,0.55,0.5,0.5,0.36,0.42,0.36,0.46,0.42,0.52,0.55,0.5,0.46,0.42,0.36" style="fill:rgb(0,0,0);font-family:AdvOT1ef757c0;font-size:9.27px;stroke:none;">10 nm (Figure 2a, b). Random, short cracks are observed over</text>
   <text y="400.989" x="303.874,306.672,311.592,315.48539999999997,318.785,321.481,323.89,326.206,333.7147,337.04,340.413,345.231,348.603,351.299,355.348,359.203,363.09639999999996,366.407,371.04,374.894,377.693,383.965,387.82,391.674,396.6798,400.027,404.845,407.253,409.95,412.646,416.5,419.873,423.727,428.74,431.521,434.95,441.797,446.9882,450.314,455.132,459.765,467.288,471.337,473.746,478.758,482.131,484.1704,487.505,493.777,498.697,501.106,504.961,509.8741,513.244,520.767,524.816,529.0802,532.35,535.722,539.577,542.949,547.767,550.084" svgx:width="0.3,0.53,0.42,0.55,0.29,0.26,0.25,0.81,0.55,0.36,0.52,0.36,0.29,0.44,0.42,0.42,0.55,0.5,0.42,0.3,0.68,0.42,0.42,0.54,0.55,0.52,0.26,0.29,0.29,0.42,0.36,0.42,0.54,0.3,0.55,0.74,0.56,0.55,0.52,0.5,0.81,0.44,0.26,0.54,0.36,0.22,0.55,0.68,0.53,0.26,0.42,0.53,0.55,0.81,0.44,0.46,0.55,0.36,0.42,0.36,0.52,0.25,0.3" style="fill:rgb(0,0,0);font-family:AdvOT1ef757c0;font-size:9.27px;stroke:none;">the film surface between different NP domains, which may result</text>
   <text y="411.534" x="303.874,306.57,309.943,314.575,322.08369999999996,324.624,327.422,332.342,336.23539999999997,338.74,342.984,347.616,349.933,354.751,362.274,366.1674,368.675,372.529,377.162,382.174,384.972,388.345,392.394,396.248,399.046,401.455,406.088,411.09380000000004,413.689,418.322,421.01030000000003,423.554,426.352,431.272,435.1654,437.614,442.627,446.676,451.688,456.321,460.175,464.808,472.331,477.243,481.875,485.248,487.657,490.455,494.34839999999997,496.802,501.62,506.438,509.81,512.219,517.232,521.4961999999999,524.071,526.87,531.789,535.644,539.016,546.54,550.589" svgx:width="0.29,0.36,0.5,0.81,0.55,0.3,0.53,0.42,0.55,0.46,0.5,0.25,0.52,0.81,0.42,0.55,0.42,0.5,0.54,0.3,0.36,0.44,0.42,0.3,0.26,0.5,0.54,0.55,0.5,0.29,0.55,0.3,0.53,0.42,0.55,0.54,0.44,0.54,0.5,0.42,0.5,0.81,0.52,0.5,0.36,0.26,0.3,0.42,0.55,0.52,0.52,0.36,0.26,0.54,0.46,0.55,0.3,0.53,0.42,0.36,0.81,0.44,0.25" style="fill:rgb(0,0,0);font-family:AdvOT1ef757c0;font-size:9.27px;stroke:none;">from the volume contraction of the nanocomposite during thermal</text>
   <text y="422.023" x="303.874,306.672,310.045,313.899,317.948,320.746,328.27,332.124,337.136,339.935,341.9744,344.41,351.257,355.889,360.902,364.756,367.554,372.474,376.329,378.645,382.499,385.872,389.245,391.2844,393.734,401.257,405.89,409.262,412.043,414.483,419.116,421.8043,424.177,426.976,431.895,435.78839999999997,438.181,445.028,450.235,453.5722,456.04,460.089,463.461,467.3544,469.76,473.133,475.931,478.34,480.656,482.9735,485.351,489.205,491.521,496.154,499.527,503.381,508.2014,510.636,515.454,519.503,523.357,527.888,531.742,536.5623999999999,539.039,543.088,548.101" svgx:width="0.3,0.36,0.42,0.44,0.3,0.81,0.42,0.54,0.3,0.22,0.55,0.74,0.5,0.54,0.42,0.3,0.53,0.42,0.25,0.42,0.36,0.36,0.22,0.55,0.81,0.5,0.36,0.3,0.55,0.5,0.29,0.55,0.3,0.53,0.42,0.55,0.74,0.56,0.36,0.55,0.44,0.36,0.42,0.55,0.36,0.3,0.26,0.25,0.25,0.55,0.42,0.25,0.5,0.36,0.42,0.52,0.55,0.52,0.44,0.42,0.49,0.42,0.52,0.55,0.44,0.54,0.52" style="fill:rgb(0,0,0);font-family:AdvOT1ef757c0;font-size:9.27px;stroke:none;">treatment. Nonetheless, most of the NPs are still closed packed and</text>
   <text y="432.511" x="303.874,306.672,311.592,315.48539999999997,320.825,328.348,332.397,334.714,339.346,342.719,345.128,347.926,352.1902,357.563,362.195,364.8833,370.262,373.06,377.98,381.8734,387.213,389.909,392.318,394.634,402.1427,407.566,409.975,413.3122,418.734,422.588,427.221,432.234,435.032,437.441,442.453,447.271,451.904,456.722,460.094,462.1334,467.547,473.236,476.609,480.658,485.67,489.043,496.566,498.975,502.348,505.72,508.129,512.762,517.7678,523.164,527.019,529.335,533.189,537.044,539.842,543.214,547.847" svgx:width="0.3,0.53,0.42,0.55,0.81,0.44,0.25,0.5,0.36,0.26,0.3,0.46,0.55,0.5,0.29,0.55,0.3,0.53,0.42,0.55,0.29,0.26,0.25,0.81,0.55,0.26,0.36,0.55,0.42,0.5,0.54,0.3,0.26,0.54,0.52,0.5,0.52,0.36,0.22,0.55,0.61,0.36,0.44,0.54,0.36,0.81,0.26,0.36,0.36,0.26,0.5,0.54,0.55,0.42,0.25,0.42,0.42,0.3,0.36,0.5,0.54" style="fill:rgb(0,0,0);font-family:AdvOT1ef757c0;font-size:9.27px;stroke:none;">the majority of the film is continuous. Transmission electron</text>
   <text y="443.056" x="303.874,311.397,313.806,317.661,321.033,325.666,329.039,332.893,337.526,342.344,346.6082,350.136,353.314,359.003,364.21,372.409,375.5608,379.106,381.515,389.039,393.088,397.331,401.186,404.5232,408.077,411.932,416.268,421.188,423.597,428.229,430.638,433.419,436.991,439.789,444.709,448.758,451.539,455.076,457.874,462.794,466.649,470.021,473.9144,477.413,484.937,489.569,494.582,499.214,504.032,506.441,509.814,514.632,518.486,521.859,525.231,529.086,533.9064,537.451,544.298,549.505" svgx:width="0.81,0.26,0.42,0.36,0.5,0.36,0.42,0.5,0.52,0.46,0.55,0.34,0.61,0.56,0.88,0.34,0.55,0.26,0.81,0.44,0.46,0.42,0.36,0.55,0.42,0.47,0.53,0.26,0.5,0.26,0.3,0.55,0.3,0.53,0.44,0.3,0.55,0.3,0.53,0.42,0.36,0.42,0.55,0.81,0.5,0.54,0.5,0.52,0.26,0.36,0.52,0.42,0.36,0.36,0.42,0.52,0.55,0.74,0.56,0.36" style="fill:rgb(0,0,0);font-family:AdvOT1ef757c0;font-size:9.27px;stroke:none;">microscopy (TEM) images exhibit that these monodispersed NPs</text>
   <text y="453.544" x="303.874,307.923,311.296,315.1894,318.161,322.016,329.539,334.172,338.026,342.844,347.662,351.516,356.3364,359.434,361.843,366.84880000000004,369.866,373.915,378.92080000000004,381.942,385.991,393.514,398.147,401.519,406.337,411.257,415.89,420.708,424.0452,427.127,430.981,435.03,438.403,443.035,447.668,452.6738,455.757,463.281,467.33,470.128,473.5,475.909,480.246,482.2854,485.295,487.704,492.70980000000003,495.727,502.0,506.919,509.328,513.183,518.0961,521.126,524.98,529.029,532.884,537.7971,540.855,547.702" svgx:width="0.44,0.36,0.42,0.55,0.42,0.81,0.5,0.42,0.52,0.52,0.42,0.52,0.55,0.26,0.54,0.55,0.44,0.54,0.55,0.44,0.81,0.5,0.36,0.52,0.53,0.5,0.52,0.36,0.55,0.42,0.44,0.36,0.5,0.5,0.54,0.55,0.81,0.44,0.3,0.36,0.26,0.47,0.22,0.55,0.26,0.54,0.55,0.68,0.53,0.26,0.42,0.53,0.55,0.42,0.44,0.42,0.53,0.55,0.74,0.56" style="fill:rgb(0,0,0);font-family:AdvOT1ef757c0;font-size:9.27px;stroke:none;">are embedded in an amorphous carbon matrix, in which each NP</text>
   <text y="464.089" x="303.874,306.283,309.6202,311.641,315.495,320.128,324.177,326.975,330.83,335.6504,337.607,342.24,346.5042,348.492,351.29,356.21,360.10339999999997,362.042,365.896,369.945,373.318,377.95,382.583,387.58880000000005,389.595,391.911,395.96,400.204,404.058,407.3952,409.437,415.71,418.119,420.917,425.837,430.47,435.288,438.069,440.052,444.684,448.539,450.948,455.96,460.2242,462.219,466.268,470.511,474.755,478.127,481.982,486.225,490.274,493.072,496.927,501.7474,503.776,510.048,512.457,515.255,520.1681,522.144,526.193,531.011,533.327,537.376,541.231,545.085,550.098" svgx:width="0.26,0.36,0.55,0.42,0.5,0.44,0.3,0.42,0.52,0.55,0.5,0.46,0.55,0.3,0.53,0.42,0.55,0.42,0.44,0.36,0.5,0.5,0.54,0.55,0.25,0.44,0.46,0.42,0.36,0.55,0.68,0.26,0.3,0.53,0.5,0.52,0.3,0.55,0.5,0.42,0.26,0.54,0.46,0.55,0.44,0.46,0.46,0.36,0.42,0.46,0.44,0.3,0.42,0.52,0.55,0.68,0.26,0.3,0.53,0.55,0.44,0.52,0.25,0.44,0.42,0.42,0.54,0.3" style="fill:rgb(0,0,0);font-family:AdvOT1ef757c0;font-size:9.27px;stroke:none;">is coated by the carbon layer without being aggregated with adjacent</text>
   <text y="474.577" x="303.874,308.507,313.519,317.374,320.7112,323.944,327.122,331.94,334.349,338.592,343.41,346.783,350.6764,353.878,358.316,362.17,365.348,367.3874,370.546,376.235,381.155,385.04839999999996,388.178,392.227,396.471,400.325,403.697,407.746,411.99,415.8834,419.076,423.894,426.303,430.352,437.875,441.73,444.528,448.382,451.7192,454.963,459.596,462.28430000000003,465.508,468.306,473.226,477.1194,480.248,487.095,492.303,495.6402,498.9,501.309,504.6462,507.858,512.296" svgx:width="0.5,0.54,0.42,0.36,0.55,0.34,0.52,0.26,0.46,0.52,0.36,0.42,0.55,0.48,0.42,0.34,0.22,0.55,0.61,0.53,0.42,0.55,0.44,0.46,0.42,0.36,0.44,0.46,0.42,0.55,0.52,0.26,0.44,0.81,0.42,0.3,0.42,0.36,0.55,0.5,0.29,0.55,0.3,0.53,0.42,0.55,0.74,0.56,0.36,0.55,0.26,0.36,0.55,0.48,0.48" style="fill:rgb(0,0,0);font-family:AdvOT1ef757c0;font-size:9.27px;stroke:none;">ones (Figure 2c). The average diameter of the NPs is 10</text>
   <text y="474.577" x="519.931" svgx:width="0.83" style="fill:rgb(0,0,0);font-family:AdvP414BFB;font-size:9.27px;stroke:none;">6</text>
   <text y="474.577" x="530.815,535.2646000000001,538.356,543.368,550.892" svgx:width="0.48,0.55,0.54,0.81,0.22" style="fill:rgb(0,0,0);font-family:AdvOT1ef757c0;font-size:9.27px;stroke:none;">2 nm.</text>
   <text y="485.065" x="303.874,310.916,313.325,317.568,322.488,325.768,329.14,332.995,336.367,341.0,343.316,348.134,350.932,353.341,357.974,362.9798,364.706,370.395,375.602,385.456,388.634,395.676,401.364,407.053,412.26,420.46,423.61179999999996,425.368,427.777,435.3,439.349,443.593,447.447,450.7842,452.525,455.897,459.752,463.995,467.849,471.898,474.2155,475.882,478.681,483.6,487.649,490.43,492.153,496.008,500.057,503.911,508.8241,510.522,517.369,522.5602,524.242,526.651,529.9882,531.669,535.041,537.45,542.463,546.706,549.023" svgx:width="0.76,0.26,0.46,0.53,0.35,0.36,0.42,0.36,0.5,0.25,0.52,0.3,0.26,0.5,0.54,0.55,0.61,0.56,0.88,0.34,0.76,0.61,0.61,0.56,0.88,0.34,0.55,0.26,0.81,0.44,0.46,0.42,0.36,0.55,0.36,0.42,0.46,0.42,0.44,0.25,0.55,0.3,0.53,0.44,0.3,0.55,0.42,0.44,0.42,0.53,0.55,0.74,0.56,0.55,0.26,0.36,0.55,0.36,0.26,0.54,0.46,0.25,0.42" style="fill:rgb(0,0,0);font-family:AdvOT1ef757c0;font-size:9.27px;stroke:none;">High-resolution TEM(HRTEM) images reveal that each NP is single</text>
   <text y="495.61" x="303.874,307.728,311.101,315.344,318.717,321.515,325.564,327.88,330.197,332.606,337.618,341.5114,344.353,350.626,353.035,355.833,360.7461,363.629,366.325,370.179,376.4826,379.332,383.965,388.598,391.97,395.825,399.197,403.441,407.49,412.122,414.439,418.3324,421.173,424.545,427.343,430.716,435.534,439.388,442.186,447.004,450.377,454.2704,457.117,461.935,465.789,468.485,472.339,476.194,478.992,482.3292,485.237,488.415,493.233,495.642,499.885,504.703,508.076,511.9694,514.831,519.269,524.087,527.265,529.3044,532.179,541.148,545.003,547.319,549.635" svgx:width="0.42,0.36,0.46,0.36,0.3,0.44,0.25,0.25,0.26,0.54,0.42,0.55,0.68,0.26,0.3,0.53,0.55,0.29,0.42,0.68,0.55,0.5,0.5,0.36,0.42,0.36,0.46,0.44,0.5,0.25,0.42,0.55,0.36,0.3,0.36,0.52,0.42,0.3,0.52,0.36,0.42,0.55,0.52,0.42,0.29,0.42,0.42,0.3,0.36,0.55,0.34,0.52,0.26,0.46,0.52,0.36,0.42,0.55,0.48,0.52,0.34,0.22,0.55,0.97,0.42,0.25,0.25,0.35" style="fill:rgb(0,0,0);font-family:AdvOT1ef757c0;font-size:9.27px;stroke:none;">crystalline with few observable structure defects (Figure 2d). Well-</text>
   <text y="506.099" x="303.874,307.247,311.101,314.474,319.106,321.422,325.666,329.52,334.3404,336.246,338.562,342.611,345.409,348.208,350.617,354.471,358.3644,360.227,362.924,366.296,368.705,373.718,377.961,381.816,385.15319999999997,387.1,391.149,394.522,398.4154,400.31,404.943,409.575,412.948,416.802,420.175,424.418,428.273,433.09340000000003,435.007,437.703,441.075,445.708,455.133,457.931,462.851,466.705,470.078,473.97139999999996,475.826,480.838,484.693,488.742,492.114,494.431,498.6952,500.544,503.916,508.734,513.654,517.509,520.881,523.29,527.145,531.194,533.5115,535.468,542.315,547.522,550.894" svgx:width="0.36,0.42,0.36,0.5,0.25,0.46,0.42,0.52,0.55,0.25,0.44,0.3,0.3,0.26,0.42,0.42,0.55,0.29,0.36,0.26,0.54,0.46,0.42,0.36,0.55,0.44,0.36,0.42,0.55,0.5,0.5,0.36,0.42,0.36,0.46,0.42,0.52,0.55,0.29,0.36,0.5,0.81,0.3,0.53,0.42,0.36,0.42,0.55,0.54,0.42,0.44,0.36,0.25,0.46,0.55,0.36,0.52,0.53,0.42,0.36,0.26,0.42,0.44,0.25,0.55,0.74,0.56,0.36,0.22" style="fill:rgb(0,0,0);font-family:AdvOT1ef757c0;font-size:9.27px;stroke:none;">resolved lattice fringes are observed fromthese nearly spherical NPs,</text>
  </g>
  <rect style="fill:pink;opacity:0.2;stroke:blue;stroke-width:0.3;" x="-0.113" y="17.524" height="36.964" width="595.446" title="2"/>
  <text y="17.524" class="image" id="image.2.1" width="595" height="36" x="-0.113" style="font-size:5.0px;">image.2.1.0_595.18_54</text>
  <rect style="fill:pink;opacity:0.2;stroke:blue;stroke-width:0.3;" x="127.956" y="539.666" height="195.364" width="340.005" title="2"/>
  <text y="539.666" class="image" id="image.2.2" width="340" height="195" x="127.956" style="font-size:5.0px;">image.2.2.128_468.540_735</text>
  <g begin="text">
   <text y="731.905" x="42.86,47.441,49.821,53.877,58.458,61.718,65.3601,68.144" svgx:width="0.54,0.28,0.48,0.54,0.38,0.43,0.55,0.49" style="fill:rgb(0,0,0);font-family:AdvOT5e4d79fc;font-size:8.47px;stroke:none;">Figure 1</text>
   <text y="731.905" x="74.721" svgx:width="0.26" style="fill:rgb(0,0,0);font-family:AdvOT5e4d79fc;font-size:8.97px;stroke:none;">|</text>
   <text y="731.905" x="78.179,82.32,85.843,90.425,94.04,101.094,104.88,107.606,109.986,113.5434,115.142,119.46,122.08569999999999,123.702,128.199,131.459,135.075,139.571,143.357,146.617,150.402,153.129,155.509,159.827,164.4855,166.106,170.425,173.0507,174.667,182.161,186.836,189.74,194.059,196.261,199.877,203.662,206.389,210.0311,211.629,216.126,219.386,223.002,226.525,231.106,234.366,237.542,241.86,245.121,247.15380000000002,248.818,253.315,255.694,258.954,262.57,266.093,268.8034,270.417,273.94,278.258,282.044,284.77,287.15,291.824,295.88960000000003,297.515,301.834,304.4597,306.076,310.572,313.833,317.448,320.971,325.553,328.813,331.988,336.307,339.5256,341.167,344.343,348.661,350.863,355.444,358.171,360.551,364.87,369.5285,371.156,375.475,380.1335,381.758,385.5695,387.143,390.666,394.985,399.659,404.156,408.737,412.26,414.987,417.366,422.041,426.1066,427.734,430.91,435.491,439.894,443.07,445.797,449.057,452.842,455.569,459.185,461.2178,462.825,466.611,471.285,475.77410000000003,477.395,480.122,484.703,488.319,491.579,498.633,502.418,504.6202,506.25,509.773,513.558,515.76,519.283,521.662,526.337,530.122,532.849,535.228,539.547,544.2055,545.877,548.604" svgx:width="0.49,0.42,0.54,0.43,0.83,0.45,0.32,0.28,0.42,0.55,0.51,0.31,0.55,0.53,0.38,0.43,0.53,0.45,0.38,0.45,0.32,0.28,0.51,0.55,0.55,0.51,0.31,0.55,0.88,0.55,0.34,0.51,0.26,0.43,0.45,0.32,0.43,0.55,0.53,0.38,0.43,0.42,0.54,0.38,0.38,0.51,0.38,0.24,0.55,0.53,0.28,0.38,0.43,0.42,0.32,0.55,0.42,0.51,0.45,0.32,0.28,0.55,0.48,0.55,0.51,0.31,0.55,0.53,0.38,0.43,0.42,0.54,0.38,0.38,0.51,0.38,0.55,0.38,0.51,0.26,0.54,0.32,0.28,0.51,0.55,0.55,0.51,0.55,0.55,0.45,0.55,0.42,0.51,0.55,0.53,0.54,0.42,0.32,0.28,0.55,0.48,0.55,0.38,0.54,0.52,0.38,0.32,0.38,0.45,0.32,0.43,0.24,0.55,0.45,0.55,0.53,0.55,0.32,0.54,0.43,0.38,0.83,0.45,0.26,0.55,0.42,0.45,0.26,0.42,0.28,0.55,0.45,0.32,0.28,0.51,0.55,0.55,0.32,0.51" style="fill:rgb(0,0,0);font-family:AdvOT5e4d79fc;font-size:8.47px;stroke:none;">Schematic of preparation of Mn-oleate precursor, direct coating of precursor solution on a conducting substrate, and thermal calcination to</text>
   <text y="742.336" x="42.86,47.357,49.737,52.997,56.613,60.135,62.862,65.064,68.96019999999999,71.149,75.205,78.466,82.784,88.54360000000001,90.764,98.258,102.933,109.284,115.72,121.3949,123.531,128.205,131.991,136.665,140.984,144.507,148.825,155.879,160.376,164.695,167.87,170.25,172.977,176.6191,178.86,183.179,187.8375,190.085,192.812,197.393,201.0351,203.181,206.357,210.938,215.341,218.517,221.244,224.504,228.289,231.016,234.6581,236.912,240.087,244.668,247.929,250.571,254.356,257.879,261.495" svgx:width="0.53,0.28,0.38,0.43,0.42,0.32,0.26,0.46,0.55,0.48,0.38,0.51,0.68,0.55,0.88,0.55,0.75,0.76,0.67,0.55,0.55,0.45,0.55,0.51,0.42,0.51,0.83,0.53,0.51,0.38,0.28,0.32,0.43,0.55,0.51,0.55,0.55,0.32,0.54,0.43,0.55,0.38,0.54,0.52,0.38,0.32,0.38,0.45,0.32,0.43,0.55,0.38,0.54,0.38,0.31,0.45,0.42,0.43,0.24" style="fill:rgb(0,0,0);font-family:AdvOT5e4d79fc;font-size:8.47px;stroke:none;">directly grow MnO@C nanocomposite on the substrate surface.</text>
   <text y="23.924" x="382.45,390.728,398.964,407.201,410.758,416.935,423.462,426.559,432.626,436.863,442.59,446.147,451.414,457.711,466.518" svgx:width="0.71,0.71,0.71,0.28,0.52,0.55,0.24,0.51,0.34,0.48,0.28,0.44,0.53,0.76,0.54" style="fill:rgb(255,255,255);font-family:AdvOT144a03c1;font-size:10.96px;stroke:none;">www.nature.com/</text>
   <text y="23.924" x="472.932,477.864,482.905,486.127,492.089,498.39,501.831,505.053,508.845,512.067,517.108,521.579,527.541,534.182,540.593,545.064,548.505" svgx:width="0.41,0.42,0.25,0.5,0.53,0.27,0.25,0.3,0.25,0.42,0.36,0.5,0.56,0.54,0.36,0.27,0.41" style="fill:rgb(255,255,255);font-family:AdvOT1415ea69.B;font-size:10.96px;stroke:none;">scientificreports</text>
  </g>
  <g begin="text">
   <text y="768.132" x="42.86,47.092,52.32,54.146,58.29,64.515,68.078,69.903,73.529,75.354" svgx:width="0.53,0.66,0.23,0.52,0.78,0.45,0.23,0.47,0.23,0.66" style="fill:rgb(178,178,177);font-family:AdvOT144a03c1;font-size:7.97px;stroke:none;">SCIENTIFIC</text>
   <text y="768.132" x="82.658,87.058,90.875,95.02,101.245,105.644,109.207" svgx:width="0.55,0.48,0.52,0.78,0.55,0.45,0.52" style="fill:rgb(178,178,177);font-family:AdvOT1415ea69.B;font-size:7.97px;stroke:none;">REPORTS</text>
   <text y="768.132" x="117.411,121.8742,123.987,128.8487,130.96,133.351,135.382,140.276,145.169,150.063,154.9247,157.038,161.5012,163.557,168.953,175.76,177.585,179.976,182.039,186.932,191.826,194.233,199.127,204.02,208.914,213.808,218.287,221.325,223.979,228.044,232.603,237.497,242.391,247.284,252.178" svgx:width="0.56,0.55,0.61,0.55,0.3,0.55,0.61,0.61,0.61,0.61,0.55,0.56,0.55,0.68,0.85,0.23,0.3,0.55,0.61,0.61,0.3,0.61,0.61,0.61,0.61,0.56,0.4,0.33,0.51,0.57,0.61,0.61,0.61,0.61,0.61" style="fill:rgb(0,0,0);font-family:AdvOT735b620e;font-size:7.97px;stroke:none;">| 3 : 2693 | DOI: 10.1038/srep02693</text>
   <text y="768.132" x="547.542" svgx:width="0.68" style="fill:rgb(0,0,0);font-family:AdvOTf32ed098.B;font-size:7.97px;stroke:none;">2</text>
  </g>
 </g>
</svg>
