<?xml version="1.0" encoding="UTF-8"?>
<svg xmlns="http://www.w3.org/2000/svg">
  <g transform="matrix(1.0,0., 0.,1.0,0.0,20.0)">
    <g transform="matrix(3.8407374853594325,0., 0.,3.8407374853594325,0.0,0.0)">
      <path style=" fill : none; stroke : black; stroke-width : 0.5;" d="M0.903 6.751 L1.529 3.753 L2.58 3.753 C2.939 3.753 3.199 3.79 3.36 3.861 C3.518 3.934 3.674 4.085 3.828 4.315 C4.052 4.647 4.251 5.04 4.426 5.494 L4.91 6.751 L5.919 6.751 L5.404 5.48 C5.231 5.055 5.003 4.647 4.721 4.251 C4.595 4.076 4.409 3.898 4.163 3.717 C4.966 3.609 5.545 3.374 5.906 3.012 C6.265 2.65 6.444 2.195 6.444 1.645 C6.444 1.251 6.361 0.926 6.197 0.667 C6.033 0.411 5.807 0.235 5.519 0.141 C5.23 0.046 4.805 0.0 4.247 0.0 L1.414 0.0 L0.0 6.751 L0.903 6.751 ZM2.16 0.742 L4.363 0.742 C4.709 0.742 4.954 0.768 5.098 0.82 C5.243 0.872 5.361 0.971 5.447 1.118 C5.538 1.264 5.581 1.434 5.581 1.63 C5.581 1.865 5.523 2.082 5.404 2.285 C5.285 2.488 5.115 2.648 4.896 2.768 C4.677 2.888 4.399 2.964 4.058 2.999 C3.882 3.014 3.506 3.022 2.93 3.022 L1.682 3.022 L2.16 0.742 "/>
    </g>
    <text style=" stroke : none; font-size : 7.654321;" x="0.0" y="37.5" font-size="10">R</text>
  </g>
  <g transform="matrix(1.0,0., 0.,1.0,40.0,20.0)">
    <g transform="matrix(3.8407374853594325,0., 0.,3.8407374853594325,0.0,0.0)">
      <path style=" fill : none; stroke : black; stroke-width : 0.5;" d="M0.583 4.694 C0.979 4.972 1.46 5.111 2.026 5.111 C2.441 5.111 2.799 5.041 3.104 4.902 C3.41 4.763 3.638 4.576 3.786 4.343 C3.936 4.11 4.01 3.871 4.01 3.628 C4.01 3.264 3.878 2.953 3.613 2.698 C3.449 2.539 3.046 2.321 2.408 2.044 C2.024 1.879 1.785 1.755 1.694 1.677 C1.553 1.559 1.485 1.425 1.485 1.27 C1.485 1.119 1.566 0.974 1.725 0.843 C1.885 0.71 2.109 0.644 2.398 0.644 C2.757 0.644 3.036 0.731 3.233 0.902 C3.428 1.074 3.532 1.307 3.545 1.603 L4.36 1.547 C4.347 1.083 4.18 0.709 3.86 0.427 C3.54 0.141 3.072 0.0 2.458 0.0 C1.904 0.0 1.475 0.138 1.169 0.414 C0.861 0.692 0.708 1.022 0.708 1.41 C0.708 1.63 0.759 1.826 0.864 1.996 C0.967 2.166 1.125 2.315 1.329 2.44 C1.451 2.518 1.734 2.651 2.174 2.839 C2.615 3.028 2.893 3.186 3.006 3.315 C3.117 3.445 3.171 3.582 3.171 3.725 C3.171 3.925 3.079 4.098 2.895 4.246 C2.712 4.393 2.434 4.468 2.066 4.468 C1.8 4.468 1.57 4.414 1.372 4.306 C1.174 4.199 1.04 4.059 0.966 3.891 C0.891 3.722 0.855 3.518 0.855 3.279 L0.022 3.33 C0.0 3.959 0.187 4.414 0.583 4.694 "/>
    </g>
    <text style=" stroke : none; font-size : 7.654321;" x="0.0" y="37.5" font-size="10">s</text>
  </g>
  <g transform="matrix(1.0,0., 0.,1.0,80.0,20.0)">
    <g transform="matrix(3.8407374853594325,0., 0.,3.8407374853594325,0.0,0.0)">
      <path style=" fill : none; stroke : black; stroke-width : 0.5;" d="M0.246 4.177 C0.408 4.475 0.647 4.705 0.959 4.867 C1.272 5.03 1.617 5.111 1.996 5.111 C2.462 5.111 2.902 4.983 3.321 4.724 C3.742 4.468 4.063 4.097 4.292 3.613 C4.518 3.129 4.631 2.606 4.631 2.044 C4.631 1.418 4.451 0.921 4.091 0.552 C3.73 0.184 3.255 0.0 2.665 0.0 C1.912 0.0 1.307 0.257 0.841 0.774 C0.281 1.401 0.0 2.19 0.0 3.145 C0.0 3.535 0.082 3.878 0.246 4.177 M0.954 2.211 C1.036 1.895 1.162 1.616 1.337 1.376 C1.51 1.138 1.703 0.955 1.919 0.832 C2.134 0.707 2.371 0.644 2.634 0.644 C2.971 0.644 3.251 0.766 3.475 1.011 C3.696 1.255 3.807 1.597 3.807 2.039 C3.807 2.32 3.759 2.611 3.665 2.914 C3.6 3.132 3.515 3.336 3.407 3.526 C3.303 3.714 3.174 3.882 3.024 4.03 C2.875 4.177 2.712 4.287 2.536 4.36 C2.363 4.43 2.184 4.468 2.007 4.468 C1.666 4.468 1.385 4.348 1.164 4.11 C0.942 3.873 0.833 3.524 0.833 3.062 C0.833 2.815 0.873 2.53 0.954 2.211 "/>
    </g>
    <text style=" stroke : none; font-size : 7.654321;" x="0.0" y="37.5" font-size="10">o</text>
  </g>
  <g transform="matrix(1.0,0., 0.,1.0,120.0,20.0)">
    <g transform="matrix(3.8407374853594325,0., 0.,3.8407374853594325,0.0,0.0)">
      <path style="fill : none; stroke : black; stroke-width : 0.5;" d="M0.832 6.865 L1.72 2.619 L2.652 2.619 L2.786 1.973 L1.854 1.973 L1.966 1.449 C2.026 1.145 2.1 0.953 2.184 0.871 C2.268 0.791 2.393 0.75 2.553 0.75 C2.746 0.75 2.983 0.787 3.264 0.86 L3.416 0.131 C3.014 0.043 2.707 0.0 2.496 0.0 C2.191 0.0 1.951 0.048 1.776 0.147 C1.598 0.248 1.47 0.375 1.391 0.528 C1.313 0.681 1.238 0.931 1.165 1.279 L1.02 1.973 L0.276 1.973 L0.143 2.619 L0.888 2.619 L0.0 6.865 L0.832 6.865 "/>
    </g>
    <text style=" stroke : none; font-size : 7.654321;" x="0.0" y="37.5" font-size="10">f</text>
  </g>
  <g transform="matrix(1.0,0., 0.,1.0,160.0,20.0)">
    <g transform="matrix(3.8407374853594325,0., 0.,3.8407374853594325,0.0,0.0)">
      <path style=" fill : none; stroke : black; stroke-width : 0.5;" d="M2.877 4.89 L3.648 4.89 L4.67 0.0 L3.837 0.0 L3.394 2.113 C3.304 2.537 3.226 2.833 3.158 3.001 C3.057 3.266 2.925 3.496 2.764 3.688 C2.605 3.882 2.412 4.037 2.191 4.149 C1.968 4.263 1.738 4.319 1.505 4.319 C1.287 4.319 1.122 4.267 1.011 4.166 C0.898 4.063 0.842 3.919 0.842 3.735 C0.842 3.589 0.869 3.388 0.927 3.126 L1.579 0.0 L0.747 0.0 L0.157 2.822 C0.053 3.323 0.0 3.677 0.0 3.882 C0.0 4.195 0.115 4.459 0.348 4.677 C0.58 4.892 0.884 5.0 1.261 5.0 C1.876 5.0 2.476 4.669 3.062 4.007 L2.877 4.89 "/>
    </g>
    <text style=" stroke : none; font-size : 7.654321;" x="0.0" y="37.5" font-size="10">u</text>
  </g>
  <g transform="matrix(1.0,0., 0.,1.0,200.0,20.0)">
    <g transform="matrix(3.8407374853594325,0., 0.,3.8407374853594325,0.0,0.0)">
      <path style="fill : none; stroke : black; stroke-width : 0.5;" d="M2.964 6.751 L3.734 6.751 L5.144 0.0 L4.315 0.0 L3.761 2.629 C3.453 2.042 2.992 1.748 2.385 1.748 C2.015 1.748 1.648 1.873 1.282 2.119 C0.914 2.363 0.609 2.733 0.365 3.225 C0.121 3.718 0.0 4.263 0.0 4.858 C0.0 5.509 0.153 6.006 0.462 6.348 C0.769 6.69 1.156 6.86 1.621 6.86 C2.138 6.86 2.636 6.589 3.111 6.042 L2.964 6.751 ZM0.993 3.835 C1.104 3.507 1.239 3.237 1.401 3.022 C1.562 2.809 1.726 2.659 1.89 2.569 C2.054 2.481 2.235 2.436 2.436 2.436 C2.742 2.436 2.997 2.544 3.2 2.763 C3.402 2.981 3.503 3.282 3.503 3.669 C3.503 4.436 3.298 5.082 2.886 5.604 C2.579 5.998 2.238 6.194 1.86 6.194 C1.631 6.194 1.437 6.128 1.274 5.998 C1.11 5.867 0.997 5.705 0.929 5.509 C0.861 5.31 0.829 5.042 0.829 4.701 C0.829 4.453 0.884 4.166 0.993 3.835 "/>
    </g>
    <text style=" stroke : none; font-size : 7.654321;" x="0.0" y="37.5" font-size="10">d</text>
  </g>
  <g transform="matrix(1.0,0., 0.,1.0,240.0,20.0)">
    <g transform="matrix(3.8407374853594325,0., 0.,3.8407374853594325,0.0,0.0)">
      <path style=" fill : none; stroke : black; stroke-width : 0.5;" d="M3.292 5.001 L4.135 5.001 C4.067 4.712 4.033 4.493 4.033 4.339 C4.033 4.097 4.076 3.781 4.164 3.395 L4.434 2.179 C4.511 1.835 4.548 1.533 4.548 1.272 C4.548 0.928 4.415 0.648 4.144 0.432 C3.791 0.143 3.312 0.0 2.708 0.0 C2.14 0.0 1.669 0.128 1.294 0.387 C0.923 0.645 0.651 1.016 0.479 1.501 L1.322 1.574 C1.423 1.29 1.584 1.069 1.807 0.915 C2.029 0.76 2.316 0.682 2.666 0.682 C3.037 0.682 3.32 0.758 3.511 0.912 C3.654 1.023 3.723 1.174 3.723 1.368 C3.723 1.518 3.692 1.707 3.628 1.934 C3.403 2.024 3.026 2.079 2.502 2.1 C1.98 2.123 1.625 2.152 1.436 2.188 C1.138 2.244 0.886 2.335 0.68 2.462 C0.475 2.589 0.309 2.758 0.186 2.969 C0.062 3.179 0.0 3.421 0.0 3.694 C0.0 4.109 0.138 4.449 0.414 4.714 C0.69 4.979 1.053 5.111 1.503 5.111 C1.809 5.111 2.093 5.055 2.364 4.939 C2.628 4.824 2.906 4.641 3.196 4.393 C3.214 4.639 3.247 4.842 3.292 5.001 M3.16 3.639 C3.011 3.899 2.811 4.102 2.557 4.249 C2.3 4.395 2.035 4.468 1.759 4.468 C1.46 4.468 1.231 4.393 1.071 4.242 C0.91 4.092 0.83 3.899 0.83 3.666 C0.83 3.49 0.878 3.331 0.98 3.186 C1.08 3.042 1.233 2.939 1.43 2.872 C1.631 2.805 1.975 2.751 2.458 2.708 C2.772 2.68 2.996 2.654 3.128 2.63 C3.261 2.605 3.388 2.57 3.505 2.524 C3.421 3.005 3.305 3.378 3.16 3.639 "/>
    </g>
    <text style=" stroke : none; font-size : 7.654321;" x="0.0" y="37.5" font-size="10">a</text>
  </g>
  <g transform="matrix(1.0,0., 0.,1.0,280.0,20.0)">
    <g transform="matrix(3.8407374853594325,0., 0.,3.8407374853594325,0.0,0.0)">
      <path style="fill : none; stroke : black; stroke-width : 0.5;" d="M2.432 6.751 C2.869 6.751 3.242 6.716 3.542 6.645 C3.938 6.552 4.281 6.41 4.571 6.219 C4.861 6.027 5.139 5.761 5.404 5.421 C5.67 5.083 5.884 4.69 6.049 4.242 C6.213 3.796 6.296 3.3 6.296 2.759 C6.296 2.303 6.229 1.893 6.098 1.529 C5.966 1.163 5.768 0.858 5.509 0.613 C5.247 0.369 4.932 0.199 4.563 0.104 C4.307 0.035 3.932 0.0 3.444 0.0 L1.41 0.0 L0.0 6.751 L2.432 6.751 ZM2.156 0.768 L3.348 0.768 C3.807 0.768 4.147 0.804 4.365 0.875 C4.66 0.969 4.903 1.163 5.095 1.457 C5.285 1.75 5.38 2.169 5.38 2.716 C5.38 3.207 5.309 3.645 5.17 4.031 C5.029 4.417 4.843 4.76 4.61 5.061 C4.432 5.288 4.233 5.471 4.016 5.608 C3.85 5.716 3.649 5.796 3.417 5.852 C3.042 5.942 2.615 5.986 2.134 5.986 L1.063 5.986 L2.156 0.768 "/>
    </g>
    <text style=" stroke : none; font-size : 7.654321;" x="0.0" y="37.5" font-size="10">D</text>
  </g>
  <g transform="matrix(1.0,0., 0.,1.0,320.0,20.0)">
    <g transform="matrix(3.8407374853594325,0., 0.,3.8407374853594325,0.0,0.0)">
      <path style=" fill : none; stroke : black; stroke-width : 0.5;" d="M0.834 5.001 L1.309 2.727 C1.464 1.981 1.712 1.454 2.042 1.147 C2.377 0.841 2.757 0.686 3.183 0.686 C3.395 0.686 3.559 0.738 3.667 0.839 C3.782 0.94 3.838 1.07 3.838 1.235 C3.838 1.378 3.805 1.602 3.74 1.902 L3.092 5.001 L3.924 5.001 L4.548 2.04 C4.627 1.651 4.667 1.365 4.667 1.184 C4.667 0.824 4.555 0.537 4.327 0.322 C4.102 0.108 3.791 0.0 3.395 0.0 C3.097 0.0 2.805 0.077 2.52 0.23 C2.235 0.384 1.929 0.628 1.6 0.962 L1.779 0.111 L1.024 0.111 L0.0 5.001 L0.834 5.001 "/>
    </g>
    <text style=" stroke : none; font-size : 7.654321;" x="0.0" y="37.5" font-size="10">n</text>
  </g>
  <g transform="matrix(1.0,0., 0.,1.0,360.0,20.0)">
    <g transform="matrix(3.8407374853594325,0., 0.,3.8407374853594325,0.0,0.0)">
      <path style="fill : none; stroke : black; stroke-width : 0.5;" d="M1.727 4.891 L4.528 0.0 L3.648 0.0 L2.014 2.944 C1.765 3.391 1.562 3.789 1.401 4.136 C1.333 3.47 1.277 2.989 1.23 2.695 L0.811 0.0 L0.0 0.0 L0.803 4.891 L1.727 4.891 "/>
    </g>
    <text style=" stroke : none; font-size : 7.654321;" x="0.0" y="37.5" font-size="10">v</text>
  </g>
  <g transform="matrix(1.0,0., 0.,1.0,400.0,20.0)">
    <g transform="matrix(3.8407374853594325,0., 0.,3.8407374853594325,0.0,0.0)">
      <path style=" fill : none; stroke : black; stroke-width : 0.5;" d="M0.792 5.001 L1.207 3.04 C1.381 2.195 1.623 1.611 1.93 1.286 C2.236 0.96 2.537 0.796 2.828 0.796 C2.998 0.796 3.157 0.848 3.304 0.953 L3.644 0.18 C3.401 0.059 3.196 0.0 3.031 0.0 C2.779 0.0 2.533 0.091 2.291 0.271 C2.05 0.453 1.804 0.733 1.554 1.11 L1.76 0.111 L1.023 0.111 L0.0 5.001 L0.792 5.001 "/>
    </g>
    <text style=" stroke : none; font-size : 7.654321;" x="0.0" y="37.5" font-size="10">r</text>
  </g>
  <g transform="matrix(1.0,0., 0.,1.0,440.0,20.0)">
    <g transform="matrix(3.8407374853594325,0., 0.,3.8407374853594325,0.0,0.0)">
      <path style=" fill : none; stroke : black; stroke-width : 0.5;" d="M2.043 0.945 L2.242 0.0 L1.412 0.0 L1.214 0.945 L2.043 0.945 ZM0.832 6.751 L1.855 1.861 L1.021 1.861 L0.0 6.751 L0.832 6.751 "/>
    </g>
    <text style=" stroke : none; font-size : 7.654321;" x="0.0" y="37.5" font-size="10">i</text>
  </g>
  <g transform="matrix(1.0,0., 0.,1.0,480.0,20.0)">
    <g transform="matrix(3.8407374853594325,0., 0.,3.8407374853594325,0.0,0.0)">
      <path style=" fill : none; stroke : black; stroke-width : 0.5;" d="M0.731 6.751 L0.925 5.827 C1.065 6.177 1.256 6.436 1.501 6.607 C1.747 6.777 2.031 6.861 2.352 6.861 C2.54 6.861 2.734 6.827 2.937 6.753 C3.143 6.682 3.339 6.572 3.531 6.428 C3.726 6.281 3.912 6.085 4.095 5.843 C4.276 5.598 4.428 5.296 4.55 4.936 C4.671 4.577 4.734 4.182 4.734 3.749 C4.734 3.098 4.58 2.602 4.276 2.262 C3.971 1.921 3.589 1.75 3.131 1.75 C2.898 1.75 2.674 1.8 2.459 1.901 C2.246 2.0 2.005 2.171 1.74 2.413 L2.244 0.0 L1.408 0.0 L0.0 6.751 L0.731 6.751 ZM1.424 3.841 C1.591 3.359 1.8 3.003 2.054 2.771 C2.305 2.538 2.582 2.421 2.884 2.421 C3.175 2.421 3.419 2.536 3.618 2.764 C3.815 2.99 3.915 3.309 3.915 3.721 C3.915 4.087 3.837 4.486 3.679 4.919 C3.523 5.352 3.322 5.669 3.079 5.875 C2.834 6.078 2.566 6.18 2.276 6.18 C1.977 6.18 1.727 6.072 1.529 5.854 C1.329 5.637 1.23 5.319 1.23 4.9 L1.234 4.744 C1.234 4.501 1.298 4.201 1.424 3.841 "/>
    </g>
    <text style=" stroke : none; font-size : 7.654321;" x="0.0" y="37.5" font-size="10">b</text>
  </g>
  <g transform="matrix(1.0,0., 0.,1.0,20.0,95.0)">
    <g transform="matrix(3.8407374853594325,0., 0.,3.8407374853594325,0.0,0.0)">
      <path style=" fill : none; stroke : black; stroke-width : 0.5;" d="M2.576 4.158 C2.329 4.363 2.071 4.466 1.799 4.466 C1.529 4.466 1.303 4.362 1.119 4.152 C0.933 3.944 0.842 3.632 0.842 3.213 C0.842 2.815 0.912 2.399 1.053 1.968 C1.192 1.537 1.382 1.216 1.631 1.002 C1.876 0.791 2.165 0.684 2.501 0.684 C2.789 0.684 3.022 0.772 3.199 0.947 C3.375 1.123 3.464 1.364 3.467 1.675 L4.287 1.621 C4.287 1.132 4.132 0.739 3.828 0.444 C3.519 0.147 3.104 0.0 2.579 0.0 C2.072 0.0 1.623 0.134 1.226 0.402 C0.833 0.67 0.529 1.063 0.316 1.578 C0.105 2.095 0.0 2.619 0.0 3.154 C0.0 3.772 0.165 4.251 0.496 4.595 C0.825 4.938 1.255 5.111 1.787 5.111 C2.277 5.111 2.716 4.963 3.101 4.667 C3.488 4.369 3.783 3.916 3.993 3.305 L3.16 3.218 C3.016 3.638 2.825 3.951 2.576 4.158 "/>
    </g>
    <text style=" stroke : none; font-size : 7.654321;" x="0.0" y="37.5" font-size="10">c</text>
  </g>
  <g transform="matrix(1.0,0., 0.,1.0,60.0,95.0)">
    <g transform="matrix(3.8407374853594325,0., 0.,3.8407374853594325,0.0,0.0)">
      <path style="fill : none; stroke : black; stroke-width : 0.5;" d="M4.006 5.779 C3.63 6.083 3.207 6.235 2.739 6.235 C2.194 6.235 1.75 6.052 1.41 5.686 C1.07 5.322 0.898 4.792 0.898 4.098 C0.898 3.229 1.119 2.479 1.561 1.847 C2.071 1.112 2.739 0.746 3.565 0.746 C4.003 0.746 4.363 0.865 4.64 1.106 C4.917 1.348 5.101 1.712 5.191 2.201 L6.032 2.123 C5.962 1.475 5.705 0.958 5.263 0.574 C4.819 0.192 4.239 0.0 3.524 0.0 C2.555 0.0 1.747 0.354 1.096 1.063 C0.365 1.858 0.0 2.865 0.0 4.08 C0.0 5.013 0.242 5.731 0.721 6.231 C1.203 6.731 1.851 6.981 2.67 6.981 C3.343 6.981 3.951 6.781 4.492 6.384 C5.031 5.983 5.442 5.393 5.723 4.615 L4.83 4.49 C4.661 5.046 4.384 5.475 4.006 5.779 "/>
    </g>
    <text style=" stroke : none; font-size : 7.654321;" x="0.0" y="37.5" font-size="10">C</text>
  </g>
  <g transform="matrix(1.0,0., 0.,1.0,100.0,95.0)">
    <g transform="matrix(3.8407374853594325,0., 0.,3.8407374853594325,0.0,0.0)">
      <path style="fill : none; stroke : black; stroke-width : 0.5;" d="M1.045 4.891 L2.501 3.109 C2.632 3.421 2.752 3.684 2.855 3.898 L3.345 4.891 L4.264 4.891 L3.029 2.473 L5.084 0.0 L4.066 0.0 L2.657 1.805 C2.535 1.508 2.397 1.196 2.243 0.87 L1.826 0.0 L0.907 0.0 L2.127 2.409 L0.0 4.891 L1.045 4.891 "/>
    </g>
    <text style=" stroke : none; font-size : 7.654321;" x="0.0" y="37.5" font-size="10">x</text>
  </g>
  <g transform="matrix(1.0,0., 0.,1.0,140.0,95.0)">
    <g transform="matrix(3.8407374853594325,0., 0.,3.8407374853594325,0.0,0.0)">
      <path style=" fill : none; stroke : black; stroke-width : 0.5;" d="M0.834 5.001 L1.319 2.69 C1.421 2.192 1.557 1.809 1.72 1.541 C1.882 1.273 2.093 1.063 2.352 0.912 C2.611 0.762 2.86 0.686 3.096 0.686 C3.256 0.686 3.385 0.736 3.486 0.833 C3.585 0.932 3.636 1.061 3.636 1.221 C3.636 1.316 3.611 1.475 3.563 1.699 L2.869 5.001 L3.704 5.001 L4.201 2.63 C4.309 2.124 4.434 1.748 4.576 1.503 C4.72 1.26 4.92 1.063 5.179 0.912 C5.436 0.762 5.688 0.686 5.938 0.686 C6.122 0.686 6.265 0.733 6.365 0.824 C6.468 0.917 6.516 1.042 6.516 1.202 C6.516 1.316 6.486 1.503 6.43 1.768 L5.759 5.001 L6.592 5.001 L7.25 1.85 C7.32 1.503 7.356 1.257 7.356 1.106 C7.356 0.755 7.253 0.484 7.049 0.29 C6.846 0.098 6.539 0.0 6.132 0.0 C5.826 0.0 5.537 0.077 5.263 0.229 C4.988 0.38 4.727 0.611 4.477 0.917 C4.412 0.628 4.279 0.404 4.074 0.243 C3.871 0.081 3.615 0.0 3.313 0.0 C3.027 0.0 2.761 0.066 2.519 0.199 C2.274 0.33 1.997 0.57 1.687 0.917 L1.856 0.111 L1.024 0.111 L0.0 5.001 L0.834 5.001 "/>
    </g>
    <text style=" stroke : none; font-size : 7.654321;" x="0.0" y="37.5" font-size="10">m</text>
  </g>
  <g transform="matrix(1.0,0., 0.,1.0,180.0,95.0)">
    <g transform="matrix(3.8407374853594325,0., 0.,3.8407374853594325,0.0,0.0)">
      <path style=" fill : none; stroke : black; stroke-width : 0.5;" d="M0.833 6.875 L1.387 4.218 C1.709 4.814 2.163 5.111 2.75 5.111 C3.015 5.111 3.272 5.051 3.525 4.932 C3.776 4.811 4.024 4.625 4.271 4.37 C4.515 4.115 4.723 3.777 4.891 3.359 C5.061 2.94 5.145 2.475 5.145 1.966 C5.145 1.333 4.992 0.847 4.684 0.509 C4.377 0.169 3.99 0.0 3.525 0.0 C3.272 0.0 3.034 0.057 2.808 0.171 C2.582 0.286 2.326 0.494 2.041 0.791 L2.184 0.11 L1.414 0.11 L0.0 6.875 L0.833 6.875 ZM1.802 2.16 C1.903 1.837 2.032 1.564 2.186 1.342 C2.341 1.119 2.509 0.952 2.69 0.839 C2.871 0.727 3.068 0.671 3.279 0.671 C3.575 0.671 3.821 0.783 4.019 1.011 C4.217 1.236 4.316 1.555 4.316 1.971 C4.316 2.533 4.169 3.083 3.875 3.621 C3.579 4.161 3.192 4.429 2.712 4.429 C2.483 4.429 2.281 4.368 2.106 4.245 C1.93 4.123 1.805 3.962 1.729 3.762 C1.676 3.621 1.65 3.368 1.65 3.001 C1.65 2.763 1.7 2.482 1.802 2.16 "/>
    </g>
    <text style=" stroke : none; font-size : 7.654321;" x="0.0" y="37.5" font-size="10">p</text>
  </g>
  <g transform="matrix(1.0,0., 0.,1.0,220.0,95.0)">
    <g transform="matrix(3.8407374853594325,0., 0.,3.8407374853594325,0.0,0.0)">
      <path style="fill : none; stroke : black; stroke-width : 0.5;" d="M0.343 5.515 C0.572 5.976 0.908 6.335 1.352 6.596 C1.796 6.851 2.287 6.979 2.828 6.979 C3.343 6.979 3.833 6.87 4.292 6.65 C4.64 6.484 4.964 6.25 5.269 5.942 C5.574 5.637 5.824 5.275 6.024 4.852 C6.291 4.292 6.425 3.682 6.425 3.026 C6.425 2.101 6.161 1.37 5.63 0.822 C5.102 0.273 4.415 0.0 3.574 0.0 C2.583 0.0 1.739 0.37 1.044 1.117 C0.348 1.861 0.0 2.835 0.0 4.039 C0.0 4.559 0.115 5.052 0.343 5.515 M1.699 1.653 C2.24 1.052 2.865 0.75 3.57 0.75 C4.122 0.75 4.587 0.95 4.962 1.346 C5.339 1.75 5.528 2.284 5.528 2.955 C5.528 3.37 5.455 3.792 5.313 4.221 C5.17 4.648 4.976 5.01 4.727 5.302 C4.481 5.596 4.2 5.825 3.886 5.987 C3.574 6.151 3.244 6.236 2.899 6.236 C2.537 6.236 2.196 6.14 1.869 5.953 C1.546 5.766 1.3 5.507 1.136 5.176 C0.972 4.846 0.89 4.481 0.89 4.083 C0.89 3.067 1.158 2.257 1.699 1.653 "/>
    </g>
    <text style=" stroke : none; font-size : 7.654321;" x="0.0" y="37.5" font-size="10">O</text>
  </g>
  <g transform="matrix(1.0,0., 0.,1.0,260.0,95.0)">
    <g transform="matrix(3.8407374853594325,0., 0.,3.8407374853594325,0.0,0.0)">
      <path style=" fill : none; stroke : black; stroke-width : 0.5;" d="M0.833 6.751 L2.242 0.0 L1.408 0.0 L0.0 6.751 L0.833 6.751 "/>
    </g>
    <text style=" stroke : none; font-size : 7.654321;" x="0.0" y="37.5" font-size="10">l</text>
  </g>
  <g transform="matrix(1.0,0., 0.,1.0,300.0,95.0)">
    <g transform="matrix(3.8407374853594325,0., 0.,3.8407374853594325,0.0,0.0)">
      <path style="fill : none; stroke : black; stroke-width : 0.5;" d="M0.879 6.75 L1.776 2.444 C1.851 2.097 1.927 1.627 2.002 1.035 C2.031 1.563 2.075 2.026 2.136 2.421 L2.813 6.75 L3.686 6.75 L6.198 2.333 C6.483 1.828 6.723 1.354 6.917 0.916 C6.612 1.858 6.379 2.709 6.216 3.468 L5.513 6.75 L6.401 6.75 L7.811 0.0 L6.681 0.0 L4.315 4.18 C3.876 4.957 3.561 5.573 3.375 6.026 C3.348 5.5 3.289 4.947 3.2 4.373 L2.519 0.0 L1.41 0.0 L0.0 6.75 L0.879 6.75 "/>
    </g>
    <text style=" stroke : none; font-size : 7.654321;" x="0.0" y="37.5" font-size="10">M</text>
  </g>
  <g transform="matrix(1.0,0., 0.,1.0,340.0,95.0)">
    <g transform="matrix(3.8407374853594325,0., 0.,3.8407374853594325,0.0,0.0)">
      <path style="fill : none; stroke : black; stroke-width : 0.5;" d="M1.869 6.752 L3.118 0.77 L5.313 0.77 L5.475 0.0 L0.162 0.0 L0.0 0.77 L2.214 0.77 L0.967 6.752 L1.869 6.752 "/>
    </g>
    <text style=" stroke : none; font-size : 7.654321;" x="0.0" y="37.5" font-size="10">T</text>
  </g>
  <g transform="matrix(1.0,0., 0.,1.0,380.0,95.0)">
    <g transform="matrix(3.8407374853594325,0., 0.,3.8407374853594325,0.0,0.0)">
      <path style="fill : none; stroke : black; stroke-width : 0.5;" d="M0.989 6.751 L2.07 4.807 L4.803 4.807 L5.13 6.751 L6.005 6.751 L4.891 0.0 L3.826 0.0 L0.0 6.751 L0.989 6.751 ZM3.567 2.113 C3.862 1.582 4.087 1.123 4.24 0.736 C4.265 1.184 4.328 1.744 4.429 2.417 L4.692 4.111 L2.458 4.111 L3.567 2.113 "/>
    </g>
    <text style=" stroke : none; font-size : 7.654321;" x="0.0" y="37.5" font-size="10">A</text>
  </g>
  <g transform="matrix(1.0,0., 0.,1.0,420.0,95.0)">
    <g transform="matrix(3.8407374853594325,0., 0.,3.8407374853594325,0.0,0.0)">
      <path style="fill : none; stroke : black; stroke-width : 0.5;" d="M2.772 4.149 C2.494 4.337 2.214 4.43 1.928 4.43 C1.623 4.43 1.368 4.309 1.157 4.069 C0.947 3.826 0.841 3.477 0.841 3.02 C0.841 2.943 0.847 2.858 0.86 2.762 L4.46 2.762 C4.505 2.51 4.526 2.264 4.526 2.026 C4.526 1.4 4.352 0.906 4.003 0.542 C3.656 0.18 3.19 0.0 2.605 0.0 C2.149 0.0 1.722 0.122 1.329 0.365 C0.938 0.61 0.615 0.983 0.369 1.484 C0.123 1.986 0.0 2.505 0.0 3.039 C0.0 3.447 0.076 3.811 0.236 4.13 C0.395 4.449 0.625 4.693 0.927 4.86 C1.229 5.027 1.563 5.111 1.924 5.111 C2.503 5.111 3.003 4.93 3.424 4.567 C3.843 4.206 4.11 3.822 4.227 3.421 L3.416 3.339 C3.263 3.691 3.048 3.962 2.772 4.149 M1.649 1.016 C1.942 0.772 2.266 0.649 2.625 0.649 C2.951 0.649 3.222 0.76 3.429 0.983 C3.639 1.205 3.742 1.526 3.742 1.942 C3.742 1.979 3.74 2.041 3.739 2.128 L0.993 2.128 C1.139 1.632 1.356 1.263 1.649 1.016 "/>
    </g>
    <text style=" stroke : none; font-size : 7.654321;" x="0.0" y="37.5" font-size="10">e</text>
  </g>
  <g transform="matrix(1.0,0., 0.,1.0,460.0,95.0)">
    <g transform="matrix(3.8407374853594325,0., 0.,3.8407374853594325,0.0,0.0)">
      <path style=" fill : none; stroke : black; stroke-width : 0.5;" d="M0.834 6.751 L1.27 4.652 C1.401 4.041 1.541 3.598 1.696 3.322 C1.852 3.048 2.067 2.832 2.339 2.674 C2.614 2.516 2.901 2.436 3.203 2.436 C3.411 2.436 3.569 2.488 3.679 2.589 C3.791 2.69 3.845 2.82 3.845 2.98 C3.845 3.091 3.802 3.361 3.712 3.79 L3.091 6.751 L3.923 6.751 L4.527 3.863 C4.627 3.404 4.674 3.087 4.674 2.916 C4.674 2.566 4.562 2.283 4.338 2.07 C4.115 1.857 3.8 1.75 3.394 1.75 C3.111 1.75 2.837 1.815 2.57 1.947 C2.303 2.077 2.014 2.292 1.704 2.593 L2.244 0.0 L1.41 0.0 L0.0 6.751 L0.834 6.751 "/>
    </g>
    <text style=" stroke : none; font-size : 7.654321;" x="0.0" y="37.5" font-size="10">h</text>
  </g>
  <g transform="matrix(1.0,0., 0.,1.0,500.0,95.0)">
    <g transform="matrix(3.8407374853594325,0., 0.,3.8407374853594325,0.0,0.0)">
      <path style="fill : none; stroke : black; stroke-width : 0.5;" d="M0.0 5.691 C0.0 5.944 0.07 6.167 0.209 6.361 C0.347 6.557 0.561 6.705 0.845 6.805 C1.128 6.906 1.467 6.958 1.861 6.958 C2.269 6.958 2.628 6.878 2.941 6.719 C3.252 6.559 3.496 6.333 3.671 6.044 C3.845 5.753 3.986 5.348 4.093 4.83 L5.079 0.11 L4.315 0.11 L4.149 0.911 C3.802 0.303 3.307 0.0 2.666 0.0 C2.281 0.0 1.908 0.116 1.548 0.35 C1.184 0.585 0.871 0.934 0.61 1.394 C0.346 1.856 0.216 2.361 0.216 2.91 C0.216 3.576 0.384 4.091 0.716 4.455 C1.048 4.819 1.462 5.001 1.957 5.001 C2.445 5.001 2.906 4.781 3.337 4.341 L3.256 4.738 C3.132 5.325 2.998 5.706 2.855 5.88 C2.634 6.141 2.272 6.272 1.768 6.272 C1.528 6.272 1.332 6.238 1.182 6.171 C1.069 6.118 0.988 6.044 0.934 5.949 C0.882 5.854 0.859 5.712 0.865 5.521 L0.023 5.443 C0.006 5.531 0.0 5.615 0.0 5.691 M1.191 2.132 C1.276 1.82 1.401 1.555 1.563 1.332 C1.727 1.11 1.906 0.944 2.095 0.835 C2.285 0.725 2.483 0.672 2.686 0.672 C3.014 0.672 3.289 0.791 3.511 1.029 C3.734 1.266 3.845 1.587 3.845 1.988 C3.845 2.355 3.761 2.738 3.595 3.139 C3.427 3.542 3.207 3.839 2.938 4.031 C2.669 4.223 2.395 4.319 2.121 4.319 C1.914 4.319 1.725 4.257 1.554 4.132 C1.382 4.008 1.251 3.828 1.16 3.591 C1.095 3.422 1.063 3.171 1.063 2.837 C1.063 2.676 1.106 2.441 1.191 2.132 "/>
    </g>
    <text style=" stroke : none; font-size : 7.654321;" x="0.0" y="37.5" font-size="10">g</text>
  </g>
  <g transform="matrix(1.0,0., 0.,1.0,20.0,170.0)">
    <g transform="matrix(3.8407374853594325,0., 0.,3.8407374853594325,0.0,0.0)">
      <path style="fill : none; stroke : black; stroke-width : 0.5;" d="M0.565 6.875 C0.869 6.875 1.139 6.787 1.372 6.611 C1.605 6.437 1.872 6.08 2.173 5.539 L5.291 0.0 L4.42 0.0 L2.233 3.937 C2.18 3.447 2.118 2.96 2.044 2.472 L1.675 0.0 L0.856 0.0 L1.67 4.902 L1.406 5.383 C1.244 5.662 1.097 5.852 0.962 5.953 C0.858 6.031 0.72 6.07 0.552 6.07 C0.389 6.07 0.221 6.044 0.049 5.995 L0.0 6.777 C0.184 6.843 0.372 6.875 0.565 6.875 "/>
    </g>
    <text style=" stroke : none; font-size : 7.654321;" x="0.0" y="37.5" font-size="10">y</text>
  </g>
  <g transform="matrix(1.0,0., 0.,1.0,60.0,170.0)">
    <g transform="matrix(3.8407374853594325,0., 0.,3.8407374853594325,0.0,0.0)">
      <path style="fill : none; stroke : black; stroke-width : 0.5;" d="M1.238 6.046 C1.109 6.046 1.018 6.02 0.959 5.968 C0.902 5.917 0.873 5.841 0.873 5.742 C0.873 5.675 0.911 5.47 0.981 5.126 L1.546 2.421 L2.363 2.421 L2.5 1.777 L1.68 1.777 L2.053 0.0 L1.1 0.574 L0.846 1.777 L0.188 1.777 L0.053 2.421 L0.712 2.421 L0.119 5.264 C0.04 5.651 0.0 5.899 0.0 6.005 C0.0 6.218 0.074 6.384 0.221 6.507 C0.415 6.671 0.68 6.751 1.013 6.751 C1.199 6.751 1.393 6.725 1.592 6.673 L1.73 5.99 C1.585 6.027 1.423 6.046 1.238 6.046 "/>
    </g>
    <text style=" stroke : none; font-size : 7.654321;" x="0.0" y="37.5" font-size="10">t</text>
  </g>
</svg>
