<?xml version="1.0" encoding="UTF-8"?>
<svg 
xmlns:xlink="http://www.w3.org/1999/xlink" 
style="fill-opacity:1; color-rendering:auto; color-interpolation:auto; stroke:black; text-rendering:auto; stroke-linecap:square; stroke-miterlimit:10; stroke-opacity:1; shape-rendering:auto; fill:black; stroke-dasharray:none; font-weight:normal; stroke-width:1; font-family:&apos;Dialog&apos;; font-style:normal; stroke-linejoin:miter; font-size:12; stroke-dashoffset:0; image-rendering:auto;" xmlns="http://www.w3.org/2000/svg">
<!--Generated by the Batik Graphics2D SVG Generator--><defs id="genericDefs"/>

  <g>

<!-- Ramphocinclus UPWARDS to ruficauda -->    
<g style="text-rendering:geometricPrecision; stroke-width:2; shape-rendering:crispEdges; stroke-linecap:butt;">
<path style="stroke-width:0.943; clip-path:url(#clipPath1); stroke-linejoin:round; stroke-linecap:round; stroke:none;" d="M385.978 347.043 C385.061 345.569 384.601 344.094 384.601 342.618 C384.601 342.036 384.667 341.46 384.799 340.886 C384.905 340.425 385.054 339.984 385.242 339.559 C385.361 339.286 385.607 338.829 385.978 338.191 L385.383 338.191 C384.806 338.962 384.38 339.736 384.104 340.512 C383.867 341.182 383.75 341.882 383.75 342.613 C383.75 343.442 383.906 344.243 384.224 345.017 C384.54 345.791 384.927 346.466 385.383 347.043 L385.978 347.043"/>
<path style="stroke-width:0.943; clip-path:url(#clipPath1); stroke-linejoin:round; stroke-linecap:round; stroke:none;" d="M389.657 345.058 L389.657 339.104 L391.892 339.104 L391.892 338.306 L386.539 338.306 L386.539 339.104 L388.765 339.104 L388.765 345.058 L389.657 345.058"/>
<path style="stroke-width:0.943; clip-path:url(#clipPath1); stroke-linejoin:round; stroke-linecap:round; stroke:none;" d="M393.171 345.058 L393.171 342.497 C393.171 342.148 393.218 341.825 393.31 341.53 C393.371 341.337 393.475 341.185 393.619 341.077 C393.763 340.967 393.926 340.913 394.107 340.913 C394.31 340.913 394.512 340.973 394.715 341.093 L395 340.323 C394.71 340.146 394.427 340.056 394.149 340.056 C393.954 340.056 393.778 340.112 393.616 340.222 C393.454 340.333 393.279 340.561 393.089 340.909 L393.089 340.167 L392.343 340.167 L392.343 345.058 L393.171 345.058"/>
<path style="stroke-width:0.943; clip-path:url(#clipPath1); stroke-linejoin:round; stroke-linecap:round; stroke:none;" d="M396.326 338.306 L395.497 338.306 L395.497 339.261 L396.326 339.261 L396.326 338.306 M396.326 340.168 L395.497 340.168 L395.497 345.059 L396.326 345.059 L396.326 340.168"/>
<path style="stroke-width:0.943; clip-path:url(#clipPath1); stroke-linejoin:round; stroke-linecap:round; stroke:none;" d="M398.417 345.058 L398.417 342.387 C398.417 341.761 398.546 341.335 398.802 341.111 C399.058 340.888 399.363 340.775 399.716 340.775 C399.937 340.775 400.13 340.825 400.294 340.925 C400.458 341.025 400.571 341.158 400.637 341.325 C400.701 341.493 400.734 341.745 400.734 342.083 L400.734 345.058 L401.563 345.058 L401.563 342.051 C401.563 341.667 401.547 341.398 401.517 341.245 C401.467 341.009 401.382 340.804 401.259 340.633 C401.135 340.46 400.95 340.322 400.703 340.216 C400.457 340.109 400.186 340.056 399.891 340.056 C399.212 340.056 398.693 340.325 398.334 340.863 L398.334 340.167 L397.588 340.167 L397.588 345.058 L398.417 345.058"/>
<path style="stroke-width:0.943; clip-path:url(#clipPath1); stroke-linejoin:round; stroke-linecap:round; stroke:none;" d="M403.668 338.306 L402.84 338.306 L402.84 339.261 L403.668 339.261 L403.668 338.306 M403.668 340.168 L402.84 340.168 L402.84 345.059 L403.668 345.059 L403.668 340.168"/>
<path style="stroke-width:0.943; clip-path:url(#clipPath1); stroke-linejoin:round; stroke-linecap:round; stroke:none;" d="M408.871 345.058 L408.871 338.306 L408.047 338.306 L408.047 340.729 C407.904 340.53 407.716 340.368 407.486 340.243 C407.254 340.118 406.992 340.056 406.698 340.056 C406.296 340.056 405.932 340.163 405.606 340.374 C405.28 340.587 405.036 340.891 404.875 341.288 C404.711 341.687 404.629 342.13 404.629 342.617 C404.629 343.118 404.721 343.56 404.9 343.946 C405.079 344.331 405.333 344.632 405.66 344.846 C405.986 345.061 406.345 345.169 406.736 345.169 C407.336 345.169 407.793 344.926 408.104 344.442 L408.104 345.058 L408.871 345.058 ZM405.853 341.194 C406.101 340.893 406.408 340.743 406.776 340.743 C407.154 340.743 407.472 340.9 407.73 341.213 C407.986 341.526 408.116 342.017 408.116 342.686 C408.116 343.294 407.989 343.746 407.736 344.043 C407.484 344.339 407.175 344.488 406.813 344.488 C406.454 344.488 406.143 344.332 405.878 344.022 C405.613 343.713 405.483 343.243 405.483 342.617 C405.483 341.969 405.605 341.495 405.853 341.194"/>
<path style="stroke-width:0.943; clip-path:url(#clipPath1); stroke-linejoin:round; stroke-linecap:round; stroke:none;" d="M413.531 345.058 L414.398 345.058 C414.293 344.87 414.224 344.675 414.189 344.471 C414.153 344.267 414.136 343.78 414.136 343.009 L414.136 341.903 C414.136 341.535 414.121 341.281 414.095 341.139 C414.046 340.912 413.958 340.724 413.837 340.576 C413.713 340.426 413.522 340.303 413.26 340.204 C413 340.106 412.66 340.056 412.243 340.056 C411.823 340.056 411.452 340.114 411.134 340.229 C410.814 340.344 410.57 340.509 410.402 340.722 C410.233 340.935 410.11 341.216 410.036 341.563 L410.847 341.673 C410.937 341.326 411.073 341.084 411.259 340.948 C411.445 340.811 411.732 340.743 412.122 340.743 C412.539 340.743 412.856 340.837 413.068 341.024 C413.224 341.161 413.302 341.399 413.302 341.738 C413.302 341.768 413.3 341.841 413.297 341.954 C412.982 342.064 412.487 342.16 411.82 342.24 C411.489 342.279 411.244 342.321 411.082 342.364 C410.861 342.426 410.661 342.516 410.486 342.636 C410.309 342.756 410.166 342.915 410.058 343.113 C409.948 343.311 409.894 343.529 409.894 343.768 C409.894 344.178 410.038 344.512 410.328 344.775 C410.616 345.038 411.029 345.169 411.566 345.169 C411.892 345.169 412.196 345.115 412.481 345.007 C412.765 344.9 413.06 344.716 413.366 344.455 C413.391 344.685 413.446 344.887 413.531 345.058 M413.297 342.908 C413.297 343.273 413.253 343.549 413.163 343.737 C413.047 343.979 412.864 344.17 412.616 344.31 C412.368 344.45 412.083 344.519 411.764 344.519 C411.442 344.519 411.197 344.446 411.03 344.298 C410.861 344.151 410.778 343.967 410.778 343.745 C410.778 343.6 410.818 343.47 410.893 343.352 C410.97 343.234 411.079 343.143 411.22 343.082 C411.362 343.021 411.603 342.966 411.943 342.917 C412.544 342.83 412.997 342.726 413.297 342.603 L413.297 342.908"/>
<path style="stroke-width:0.943; clip-path:url(#clipPath1); stroke-linejoin:round; stroke-linecap:round; stroke:none;" d="M419.362 345.058 L419.362 338.306 L418.538 338.306 L418.538 340.729 C418.395 340.53 418.207 340.368 417.976 340.243 C417.746 340.118 417.484 340.056 417.189 340.056 C416.786 340.056 416.423 340.163 416.097 340.374 C415.772 340.587 415.528 340.891 415.365 341.288 C415.202 341.687 415.121 342.13 415.121 342.617 C415.121 343.118 415.212 343.56 415.391 343.946 C415.57 344.331 415.824 344.632 416.15 344.846 C416.478 345.061 416.836 345.169 417.227 345.169 C417.826 345.169 418.284 344.926 418.594 344.442 L418.594 345.058 L419.362 345.058 ZM416.343 341.194 C416.591 340.893 416.9 340.743 417.268 340.743 C417.647 340.743 417.964 340.9 418.22 341.213 C418.479 341.526 418.608 342.017 418.608 342.686 C418.608 343.294 418.482 343.746 418.227 344.043 C417.974 344.339 417.666 344.488 417.305 344.488 C416.945 344.488 416.634 344.332 416.369 344.022 C416.105 343.713 415.973 343.243 415.973 342.617 C415.973 341.969 416.096 341.495 416.343 341.194"/>
<path style="stroke-width:0.943; clip-path:url(#clipPath1); stroke-linejoin:round; stroke-linecap:round; stroke:none;" d="M422.368 345.016 C422.686 344.243 422.845 343.442 422.845 342.613 C422.845 341.881 422.727 341.182 422.489 340.513 C422.213 339.736 421.787 338.963 421.209 338.192 L420.615 338.192 C420.99 338.836 421.236 339.297 421.358 339.574 C421.545 339.997 421.689 340.438 421.794 340.9 C421.927 341.467 421.992 342.04 421.992 342.618 C421.992 344.095 421.533 345.569 420.615 347.042 L421.209 347.042 C421.664 346.466 422.051 345.79 422.368 345.016"/>

<path style="stroke-width:0.943; clip-path:url(#clipPath1); stroke-linejoin:round; stroke-linecap:round; stroke:none;" d="M385.978 356.617 C385.061 355.143 384.601 353.667 384.601 352.191 C384.601 351.61 384.667 351.033 384.799 350.459 C384.905 349.998 385.054 349.556 385.242 349.132 C385.361 348.86 385.607 348.404 385.978 347.764 L385.383 347.764 C384.806 348.535 384.38 349.31 384.104 350.086 C383.867 350.756 383.75 351.455 383.75 352.186 C383.75 353.015 383.906 353.816 384.224 354.591 C384.54 355.364 384.927 356.039 385.383 356.617 L385.978 356.617"/>
<path style="stroke-width:0.943; clip-path:url(#clipPath1); stroke-linejoin:round; stroke-linecap:round; stroke:none;" d="M391.158 353.549 C390.812 353.837 390.389 353.982 389.888 353.982 C389.476 353.982 389.094 353.876 388.742 353.664 C388.388 353.452 388.127 353.133 387.96 352.704 C387.794 352.276 387.71 351.775 387.71 351.201 C387.71 350.756 387.779 350.324 387.921 349.903 C388.062 349.485 388.308 349.151 388.656 348.902 C389.005 348.654 389.438 348.53 389.958 348.53 C390.408 348.53 390.783 348.642 391.08 348.865 C391.379 349.09 391.607 349.448 391.763 349.939 L392.641 349.731 C392.46 349.108 392.14 348.625 391.681 348.281 C391.218 347.937 390.652 347.764 389.975 347.764 C389.38 347.764 388.834 347.901 388.338 348.172 C387.843 348.444 387.46 348.842 387.191 349.365 C386.923 349.889 386.788 350.502 386.788 351.205 C386.788 351.849 386.907 352.453 387.146 353.015 C387.384 353.576 387.731 354.006 388.187 354.302 C388.642 354.599 389.234 354.747 389.961 354.747 C390.665 354.747 391.261 354.554 391.746 354.169 C392.233 353.783 392.569 353.224 392.757 352.49 L391.864 352.264 C391.74 352.832 391.506 353.261 391.158 353.549"/>
<path style="stroke-width:0.943; clip-path:url(#clipPath1); stroke-linejoin:round; stroke-linecap:round; stroke:none;" d="M394.077 354.084 C394.498 354.523 395.053 354.742 395.737 354.742 C396.164 354.742 396.558 354.642 396.919 354.443 C397.278 354.243 397.554 353.963 397.743 353.603 C397.931 353.241 398.026 352.746 398.026 352.117 C398.026 351.341 397.813 350.732 397.385 350.291 C396.959 349.85 396.408 349.63 395.737 349.63 C395.132 349.63 394.619 349.811 394.198 350.173 C393.695 350.61 393.444 351.28 393.444 352.186 C393.444 353.013 393.653 353.645 394.077 354.084 M394.707 350.782 C394.979 350.471 395.322 350.317 395.737 350.317 C396.145 350.317 396.486 350.472 396.762 350.784 C397.036 351.096 397.174 351.554 397.174 352.159 C397.174 352.8 397.037 353.279 396.764 353.592 C396.489 353.904 396.148 354.061 395.737 354.061 C395.322 354.061 394.979 353.904 394.707 353.593 C394.432 353.282 394.295 352.812 394.295 352.186 C394.295 351.56 394.432 351.092 394.707 350.782"/>
<path style="stroke-width:0.943; clip-path:url(#clipPath1); stroke-linejoin:round; stroke-linecap:round; stroke:none;" d="M398.979 354.632 L399.809 354.632 L399.809 347.88 L398.979 347.88 L398.979 354.632"/>
<path style="stroke-width:0.943; clip-path:url(#clipPath1); stroke-linejoin:round; stroke-linecap:round; stroke:none;" d="M401.418 354.084 C401.84 354.523 402.393 354.742 403.078 354.742 C403.505 354.742 403.899 354.642 404.26 354.443 C404.618 354.243 404.896 353.963 405.084 353.603 C405.274 353.241 405.366 352.746 405.366 352.117 C405.366 351.341 405.153 350.732 404.726 350.291 C404.3 349.85 403.75 349.63 403.078 349.63 C402.473 349.63 401.96 349.811 401.539 350.173 C401.037 350.61 400.785 351.28 400.785 352.186 C400.785 353.013 400.995 353.645 401.418 354.084 M402.048 350.782 C402.319 350.471 402.663 350.317 403.078 350.317 C403.486 350.317 403.827 350.472 404.103 350.784 C404.377 351.096 404.515 351.554 404.515 352.159 C404.515 352.8 404.378 353.279 404.105 353.592 C403.831 353.904 403.488 354.061 403.078 354.061 C402.663 354.061 402.319 353.904 402.048 353.593 C401.774 353.282 401.637 352.812 401.637 352.186 C401.637 351.56 401.774 351.092 402.048 350.782"/>
<path style="stroke-width:0.943; clip-path:url(#clipPath1); stroke-linejoin:round; stroke-linecap:round; stroke:none;" d="M407.167 354.632 L407.167 352.095 C407.167 351.649 407.212 351.307 407.302 351.072 C407.391 350.836 407.533 350.656 407.733 350.533 C407.93 350.41 408.146 350.349 408.379 350.349 C408.686 350.349 408.907 350.441 409.042 350.625 C409.176 350.808 409.244 351.085 409.244 351.454 L409.244 354.632 L410.073 354.632 L410.073 351.79 C410.073 351.286 410.187 350.921 410.414 350.692 C410.642 350.463 410.927 350.349 411.272 350.349 C411.46 350.349 411.627 350.392 411.769 350.483 C411.909 350.571 412.007 350.689 412.062 350.835 C412.114 350.98 412.142 351.219 412.142 351.55 L412.142 354.632 L412.966 354.632 L412.966 351.274 C412.966 350.716 412.834 350.301 412.574 350.033 C412.314 349.764 411.94 349.63 411.454 349.63 C410.835 349.63 410.332 349.916 409.944 350.486 C409.849 350.217 409.685 350.007 409.453 349.856 C409.222 349.705 408.926 349.63 408.564 349.63 C408.236 349.63 407.948 349.703 407.694 349.848 C407.437 349.994 407.234 350.187 407.081 350.427 L407.081 349.741 L406.339 349.741 L406.339 354.632 L407.167 354.632"/>
<path style="stroke-width:0.943; clip-path:url(#clipPath1); stroke-linejoin:round; stroke-linecap:round; stroke:none;" d="M414.959 354.019 C415.289 354.501 415.741 354.743 416.319 354.743 C416.9 354.743 417.396 354.513 417.811 354.056 C418.225 353.598 418.433 352.951 418.433 352.113 C418.433 351.759 418.383 351.428 418.285 351.118 C418.186 350.807 418.051 350.542 417.878 350.324 C417.704 350.104 417.484 349.933 417.214 349.813 C416.945 349.691 416.661 349.631 416.36 349.631 C415.817 349.631 415.37 349.849 415.02 350.288 L415.02 347.88 L414.192 347.88 L414.192 354.631 L414.959 354.631 L414.959 354.019 ZM415.347 350.784 C415.611 350.469 415.924 350.311 416.286 350.311 C416.647 350.311 416.952 350.463 417.203 350.767 C417.459 351.072 417.584 351.543 417.584 352.181 C417.584 352.805 417.453 353.274 417.189 353.588 C416.924 353.903 416.612 354.06 416.249 354.06 C415.805 354.06 415.452 353.847 415.191 353.42 C415.03 353.16 414.95 352.735 414.95 352.15 C414.95 351.554 415.083 351.098 415.347 350.784"/>
<path style="stroke-width:0.943; clip-path:url(#clipPath1); stroke-linejoin:round; stroke-linecap:round; stroke:none;" d="M420.276 347.88 L419.445 347.88 L419.445 348.834 L420.276 348.834 L420.276 347.88 M420.276 349.742 L419.445 349.742 L419.445 354.633 L420.276 354.633 L420.276 349.742"/>
<path style="stroke-width:0.943; clip-path:url(#clipPath1); stroke-linejoin:round; stroke-linecap:round; stroke:none;" d="M424.894 354.632 L425.761 354.632 C425.655 354.444 425.586 354.248 425.551 354.044 C425.515 353.84 425.497 353.352 425.497 352.582 L425.497 351.477 C425.497 351.109 425.484 350.854 425.456 350.712 C425.407 350.485 425.319 350.298 425.198 350.149 C425.074 349.999 424.884 349.876 424.621 349.777 C424.361 349.679 424.022 349.63 423.605 349.63 C423.185 349.63 422.815 349.687 422.494 349.803 C422.175 349.918 421.932 350.082 421.763 350.296 C421.594 350.509 421.471 350.788 421.398 351.136 L422.209 351.247 C422.298 350.899 422.435 350.658 422.62 350.522 C422.807 350.385 423.094 350.317 423.484 350.317 C423.903 350.317 424.217 350.41 424.429 350.597 C424.585 350.736 424.663 350.973 424.663 351.31 C424.663 351.342 424.661 351.414 424.658 351.528 C424.343 351.638 423.851 351.733 423.182 351.813 C422.851 351.853 422.608 351.894 422.444 351.938 C422.223 351.999 422.024 352.09 421.847 352.209 C421.671 352.329 421.528 352.488 421.419 352.686 C421.311 352.884 421.257 353.103 421.257 353.342 C421.257 353.75 421.4 354.086 421.689 354.349 C421.978 354.611 422.391 354.742 422.927 354.742 C423.253 354.742 423.558 354.688 423.841 354.581 C424.126 354.473 424.421 354.289 424.727 354.028 C424.754 354.258 424.808 354.459 424.894 354.632 M424.658 352.481 C424.658 352.846 424.615 353.122 424.525 353.31 C424.409 353.553 424.226 353.743 423.978 353.884 C423.73 354.023 423.444 354.093 423.126 354.093 C422.803 354.093 422.559 354.02 422.392 353.871 C422.224 353.724 422.14 353.54 422.14 353.318 C422.14 353.175 422.179 353.043 422.255 352.925 C422.331 352.807 422.441 352.717 422.582 352.656 C422.724 352.594 422.964 352.539 423.304 352.49 C423.906 352.404 424.359 352.3 424.658 352.177 L424.658 352.481"/>
<path style="stroke-width:0.943; clip-path:url(#clipPath1); stroke-linejoin:round; stroke-linecap:round; stroke:none;" d="M428.485 354.59 C428.803 353.817 428.96 353.015 428.96 352.186 C428.96 351.455 428.843 350.755 428.607 350.086 C428.329 349.309 427.903 348.536 427.324 347.765 L426.732 347.765 C427.107 348.41 427.353 348.87 427.473 349.147 C427.661 349.571 427.806 350.012 427.91 350.473 C428.043 351.041 428.109 351.613 428.109 352.191 C428.109 353.668 427.649 355.143 426.732 356.617 L427.324 356.617 C427.78 356.039 428.166 355.363 428.485 354.59"/>

<path style="stroke-width:0.943; clip-path:url(#clipPath1); stroke-linejoin:round; stroke-linecap:round; stroke:none;" d="M385.978 392.128 C385.061 390.654 384.601 389.178 384.601 387.702 C384.601 387.121 384.667 386.543 384.799 385.971 C384.905 385.51 385.054 385.068 385.242 384.644 C385.361 384.371 385.607 383.915 385.978 383.276 L385.383 383.276 C384.806 384.047 384.38 384.821 384.104 385.597 C383.867 386.266 383.75 386.967 383.75 387.698 C383.75 388.527 383.906 389.327 384.224 390.102 C384.54 390.876 384.927 391.551 385.383 392.128 L385.978 392.128"/>
<path style="stroke-width:0.943; clip-path:url(#clipPath1); stroke-linejoin:round; stroke-linecap:round; stroke:none;" d="M387.879 390.143 L387.879 384.395 L389.833 390.143 L390.639 390.143 L392.6 384.493 L392.6 390.143 L393.461 390.143 L393.461 383.391 L392.261 383.391 L390.645 388.089 C390.48 388.565 390.361 388.926 390.284 389.172 C390.216 388.95 390.109 388.618 389.961 388.171 L388.363 383.391 L387.019 383.391 L387.019 390.143 L387.879 390.143"/>
<path style="stroke-width:0.943; clip-path:url(#clipPath1); stroke-linejoin:round; stroke-linecap:round; stroke:none;" d="M397.634 389.333 C397.419 389.492 397.16 389.572 396.856 389.572 C396.447 389.572 396.107 389.43 395.833 389.144 C395.56 388.858 395.408 388.447 395.377 387.909 L399.027 387.909 C399.028 387.811 399.029 387.737 399.029 387.689 C399.029 386.881 398.822 386.255 398.408 385.81 C397.993 385.365 397.459 385.142 396.805 385.142 C396.13 385.142 395.58 385.369 395.157 385.823 C394.734 386.278 394.522 386.916 394.522 387.739 C394.522 388.534 394.731 389.153 395.151 389.592 C395.569 390.033 396.136 390.254 396.852 390.254 C397.419 390.254 397.887 390.115 398.251 389.839 C398.617 389.562 398.867 389.174 399.002 388.674 L398.146 388.567 C398.02 388.918 397.85 389.172 397.634 389.333 M395.854 386.206 C396.114 385.95 396.434 385.823 396.815 385.823 C397.236 385.823 397.578 385.983 397.842 386.302 C398.014 386.508 398.118 386.816 398.155 387.228 L395.424 387.228 C395.451 386.801 395.595 386.46 395.854 386.206"/>
<path style="stroke-width:0.943; clip-path:url(#clipPath1); stroke-linejoin:round; stroke-linecap:round; stroke:none;" d="M400.494 390.143 L401.778 388.213 L402.048 388.624 L403.051 390.143 L404.068 390.143 L402.249 387.555 L403.939 385.252 L402.949 385.252 L402.125 386.409 C402.012 386.564 401.887 386.743 401.751 386.946 C401.666 386.799 401.551 386.617 401.412 386.398 L400.66 385.252 L399.624 385.252 L401.278 387.601 L399.49 390.143 L400.494 390.143"/>
<path style="stroke-width:0.943; clip-path:url(#clipPath1); stroke-linejoin:round; stroke-linecap:round; stroke:none;" d="M405.593 383.391 L404.764 383.391 L404.764 384.345 L405.593 384.345 L405.593 383.391 M405.593 385.253 L404.764 385.253 L404.764 390.143 L405.593 390.143 L405.593 385.253"/>
<path style="stroke-width:0.943; clip-path:url(#clipPath1); stroke-linejoin:round; stroke-linecap:round; stroke:none;" d="M409.631 389.273 C409.413 389.472 409.143 389.572 408.816 389.572 C408.41 389.572 408.083 389.423 407.83 389.126 C407.579 388.827 407.452 388.35 407.452 387.693 C407.452 387.045 407.584 386.572 407.844 386.272 C408.106 385.973 408.444 385.824 408.862 385.824 C409.14 385.824 409.374 385.907 409.57 386.072 C409.765 386.237 409.9 386.485 409.977 386.814 L410.784 386.69 C410.687 386.195 410.472 385.813 410.133 385.545 C409.795 385.276 409.361 385.142 408.83 385.142 C408.408 385.142 408.02 385.241 407.663 385.438 C407.305 385.637 407.038 385.934 406.863 386.33 C406.689 386.726 406.601 387.189 406.601 387.717 C406.601 388.533 406.804 389.16 407.212 389.597 C407.617 390.035 408.156 390.254 408.826 390.254 C409.361 390.254 409.812 390.095 410.178 389.777 C410.545 389.459 410.772 389.019 410.861 388.458 L410.046 388.351 C409.988 388.766 409.85 389.073 409.631 389.273"/>
<path style="stroke-width:0.943; clip-path:url(#clipPath1); stroke-linejoin:round; stroke-linecap:round; stroke:none;" d="M411.896 389.594 C412.318 390.035 412.87 390.253 413.555 390.253 C413.983 390.253 414.375 390.154 414.737 389.954 C415.097 389.755 415.371 389.473 415.561 389.114 C415.749 388.753 415.845 388.257 415.845 387.628 C415.845 386.852 415.632 386.243 415.204 385.802 C414.777 385.362 414.228 385.141 413.555 385.141 C412.95 385.141 412.438 385.323 412.017 385.684 C411.513 386.121 411.263 386.792 411.263 387.697 C411.263 388.523 411.473 389.156 411.896 389.594 M412.524 386.292 C412.798 385.983 413.142 385.828 413.555 385.828 C413.963 385.828 414.305 385.984 414.581 386.295 C414.855 386.607 414.993 387.065 414.993 387.67 C414.993 388.311 414.856 388.79 414.581 389.103 C414.309 389.416 413.967 389.572 413.555 389.572 C413.142 389.572 412.798 389.416 412.524 389.104 C412.25 388.793 412.113 388.324 412.113 387.697 C412.113 387.071 412.25 386.603 412.524 386.292"/>
<path style="stroke-width:0.943; clip-path:url(#clipPath1); stroke-linejoin:round; stroke-linecap:round; stroke:none;" d="M418.519 390.102 C418.835 389.328 418.994 388.526 418.994 387.697 C418.994 386.967 418.876 386.266 418.639 385.598 C418.363 384.821 417.937 384.048 417.36 383.277 L416.765 383.277 C417.14 383.921 417.387 384.382 417.507 384.659 C417.694 385.082 417.839 385.523 417.944 385.985 C418.077 386.553 418.142 387.125 418.142 387.702 C418.142 389.179 417.683 390.655 416.765 392.127 L417.36 392.127 C417.814 391.55 418.2 390.875 418.519 390.102"/>

<path style="stroke-width:0.943; clip-path:url(#clipPath1); stroke-linejoin:round; stroke-linecap:round; stroke:none;" d="M368.684 401.23 C367.767 399.756 367.308 398.281 367.308 396.805 C367.308 396.224 367.373 395.646 367.505 395.073 C367.612 394.612 367.761 394.171 367.947 393.746 C368.068 393.473 368.314 393.016 368.684 392.378 L368.089 392.378 C367.513 393.149 367.087 393.923 366.81 394.7 C366.572 395.368 366.455 396.069 366.455 396.799 C366.455 397.63 366.613 398.43 366.931 399.204 C367.246 399.977 367.632 400.652 368.089 401.23 L368.684 401.23"/>
<path style="stroke-width:0.943; clip-path:url(#clipPath1); stroke-linejoin:round; stroke-linecap:round; stroke:none;" d="M369.905 399.245 L370.798 399.245 L370.798 392.493 L369.905 392.493 L369.905 399.245"/>
<path style="stroke-width:0.943; clip-path:url(#clipPath1); stroke-linejoin:round; stroke-linecap:round; stroke:none;" d="M372.502 399.245 L373.446 399.245 L373.446 398.301 L372.502 398.301 L372.502 399.245"/>
<path style="stroke-width:0.943; clip-path:url(#clipPath1); stroke-linejoin:round; stroke-linecap:round; stroke:none;" d="M377.682 398.289 C377.916 398.647 378.239 398.915 378.653 399.093 C379.067 399.272 379.578 399.36 380.189 399.36 C380.67 399.36 381.106 399.273 381.489 399.095 C381.875 398.918 382.171 398.671 382.376 398.353 C382.581 398.035 382.684 397.699 382.684 397.338 C382.684 396.976 382.592 396.656 382.403 396.378 C382.217 396.1 381.927 395.87 381.535 395.69 C381.263 395.566 380.766 395.423 380.039 395.259 C379.314 395.095 378.864 394.934 378.693 394.777 C378.518 394.621 378.429 394.421 378.429 394.179 C378.429 393.9 378.553 393.661 378.8 393.463 C379.048 393.265 379.442 393.166 379.981 393.166 C380.5 393.166 380.893 393.274 381.158 393.493 C381.424 393.711 381.579 394.033 381.625 394.459 L382.482 394.396 C382.467 393.999 382.358 393.644 382.151 393.332 C381.945 393.019 381.651 392.782 381.269 392.619 C380.886 392.458 380.444 392.378 379.944 392.378 C379.49 392.378 379.076 392.454 378.705 392.608 C378.334 392.762 378.052 392.987 377.859 393.283 C377.665 393.58 377.568 393.898 377.568 394.24 C377.568 394.548 377.648 394.829 377.805 395.08 C377.963 395.329 378.203 395.539 378.526 395.708 C378.776 395.84 379.209 395.98 379.829 396.13 C380.449 396.278 380.85 396.387 381.031 396.458 C381.315 396.566 381.517 396.699 381.639 396.856 C381.763 397.015 381.823 397.2 381.823 397.412 C381.823 397.621 381.76 397.813 381.632 397.99 C381.505 398.167 381.311 398.306 381.05 398.408 C380.789 398.508 380.488 398.559 380.148 398.559 C379.765 398.559 379.419 398.493 379.111 398.358 C378.804 398.225 378.578 398.05 378.432 397.834 C378.285 397.617 378.194 397.339 378.153 397.002 L377.31 397.076 C377.323 397.527 377.446 397.932 377.682 398.289"/>
<path style="stroke-width:0.943; clip-path:url(#clipPath1); stroke-linejoin:round; stroke-linecap:round; stroke:none;" d="M387.156 399.245 L388.023 399.245 C387.918 399.057 387.848 398.862 387.814 398.657 C387.777 398.453 387.761 397.966 387.761 397.195 L387.761 396.09 C387.761 395.723 387.745 395.467 387.719 395.326 C387.67 395.099 387.583 394.911 387.461 394.762 C387.338 394.613 387.147 394.49 386.885 394.391 C386.625 394.292 386.283 394.243 385.866 394.243 C385.447 394.243 385.076 394.301 384.758 394.415 C384.438 394.531 384.194 394.696 384.027 394.91 C383.857 395.122 383.736 395.402 383.66 395.749 L384.472 395.86 C384.562 395.513 384.697 395.271 384.883 395.135 C385.069 394.997 385.357 394.93 385.747 394.93 C386.165 394.93 386.48 395.023 386.692 395.211 C386.848 395.348 386.926 395.586 386.926 395.924 C386.926 395.954 386.924 396.028 386.921 396.14 C386.606 396.251 386.112 396.347 385.444 396.426 C385.114 396.466 384.869 396.508 384.706 396.552 C384.485 396.613 384.286 396.703 384.11 396.824 C383.934 396.943 383.791 397.101 383.683 397.3 C383.573 397.497 383.519 397.716 383.519 397.955 C383.519 398.364 383.662 398.699 383.952 398.962 C384.24 399.224 384.653 399.355 385.191 399.355 C385.516 399.355 385.82 399.302 386.104 399.194 C386.389 399.086 386.684 398.902 386.991 398.641 C387.016 398.872 387.071 399.074 387.156 399.245 M386.921 397.094 C386.921 397.459 386.877 397.736 386.788 397.924 C386.672 398.166 386.489 398.357 386.24 398.496 C385.992 398.637 385.707 398.705 385.388 398.705 C385.066 398.705 384.822 398.634 384.653 398.485 C384.486 398.338 384.403 398.153 384.403 397.932 C384.403 397.787 384.442 397.657 384.517 397.539 C384.594 397.421 384.703 397.33 384.845 397.269 C384.986 397.207 385.227 397.153 385.569 397.103 C386.17 397.017 386.622 396.914 386.921 396.79 L386.921 397.094"/>
<path style="stroke-width:0.943; clip-path:url(#clipPath1); stroke-linejoin:round; stroke-linecap:round; stroke:none;" d="M389.874 399.245 L389.874 396.574 C389.874 395.948 390.002 395.522 390.259 395.298 C390.516 395.074 390.819 394.961 391.172 394.961 C391.394 394.961 391.587 395.012 391.751 395.112 C391.915 395.212 392.029 395.345 392.095 395.513 C392.158 395.679 392.191 395.932 392.191 396.269 L392.191 399.245 L393.019 399.245 L393.019 396.239 C393.019 395.854 393.005 395.585 392.973 395.431 C392.925 395.195 392.838 394.992 392.717 394.82 C392.592 394.647 392.407 394.509 392.16 394.403 C391.913 394.296 391.642 394.243 391.348 394.243 C390.669 394.243 390.151 394.512 389.79 395.049 L389.79 394.354 L389.045 394.354 L389.045 399.245 L389.874 399.245"/>
<path style="stroke-width:0.943; clip-path:url(#clipPath1); stroke-linejoin:round; stroke-linecap:round; stroke:none;" d="M397.225 399.245 L397.966 397.2 L400.789 397.2 L401.575 399.245 L402.594 399.245 L399.832 392.493 L398.868 392.493 L396.275 399.245 L397.225 399.245 ZM398.967 394.492 C399.122 394.065 399.243 393.635 399.328 393.202 C399.433 393.568 399.593 394.035 399.808 394.602 L400.512 396.473 L398.225 396.473 L398.967 394.492"/>
<path style="stroke-width:0.943; clip-path:url(#clipPath1); stroke-linejoin:round; stroke-linecap:round; stroke:none;" d="M404.031 399.245 L404.031 396.574 C404.031 395.948 404.159 395.522 404.415 395.298 C404.671 395.074 404.977 394.961 405.33 394.961 C405.551 394.961 405.744 395.012 405.908 395.112 C406.073 395.212 406.186 395.345 406.251 395.513 C406.316 395.679 406.348 395.932 406.348 396.269 L406.348 399.245 L407.177 399.245 L407.177 396.239 C407.177 395.854 407.162 395.585 407.131 395.431 C407.082 395.195 406.996 394.992 406.873 394.82 C406.749 394.647 406.565 394.509 406.318 394.403 C406.071 394.296 405.799 394.243 405.506 394.243 C404.826 394.243 404.307 394.512 403.948 395.049 L403.948 394.354 L403.201 394.354 L403.201 399.245 L404.031 399.245"/>
<path style="stroke-width:0.943; clip-path:url(#clipPath1); stroke-linejoin:round; stroke-linecap:round; stroke:none;" d="M412.39 399.245 L412.39 392.493 L411.566 392.493 L411.566 394.916 C411.422 394.717 411.235 394.555 411.003 394.43 C410.774 394.305 410.511 394.243 410.216 394.243 C409.815 394.243 409.449 394.35 409.125 394.561 C408.8 394.772 408.556 395.078 408.394 395.474 C408.229 395.872 408.149 396.317 408.149 396.804 C408.149 397.305 408.238 397.747 408.418 398.134 C408.598 398.518 408.851 398.818 409.178 399.033 C409.505 399.248 409.863 399.355 410.253 399.355 C410.855 399.355 411.311 399.113 411.621 398.627 L411.621 399.245 L412.39 399.245 ZM409.37 395.38 C409.618 395.08 409.927 394.93 410.294 394.93 C410.673 394.93 410.991 395.086 411.247 395.399 C411.506 395.712 411.635 396.204 411.635 396.873 C411.635 397.481 411.508 397.933 411.254 398.228 C411.002 398.526 410.693 398.675 410.332 398.675 C409.973 398.675 409.66 398.519 409.397 398.208 C409.132 397.899 409 397.431 409 396.804 C409 396.157 409.124 395.681 409.37 395.38"/>
<path style="stroke-width:0.943; clip-path:url(#clipPath1); stroke-linejoin:round; stroke-linecap:round; stroke:none;" d="M414.513 399.245 L414.513 396.684 C414.513 396.334 414.559 396.012 414.652 395.717 C414.712 395.524 414.817 395.372 414.96 395.264 C415.105 395.154 415.267 395.1 415.448 395.1 C415.651 395.1 415.853 395.16 416.057 395.279 L416.341 394.511 C416.053 394.333 415.769 394.243 415.489 394.243 C415.295 394.243 415.119 394.299 414.957 394.409 C414.796 394.519 414.621 394.749 414.43 395.097 L414.43 394.354 L413.684 394.354 L413.684 399.245 L414.513 399.245"/>
<path style="stroke-width:0.943; clip-path:url(#clipPath1); stroke-linejoin:round; stroke-linecap:round; stroke:none;" d="M419.671 398.434 C419.456 398.594 419.196 398.674 418.894 398.674 C418.485 398.674 418.143 398.532 417.87 398.245 C417.598 397.96 417.445 397.549 417.414 397.011 L421.063 397.011 C421.066 396.914 421.067 396.84 421.067 396.79 C421.067 395.983 420.86 395.357 420.444 394.912 C420.03 394.466 419.496 394.244 418.842 394.244 C418.167 394.244 417.617 394.471 417.194 394.925 C416.771 395.379 416.558 396.018 416.558 396.842 C416.558 397.637 416.767 398.254 417.187 398.695 C417.606 399.135 418.173 399.356 418.889 399.356 C419.456 399.356 419.924 399.217 420.288 398.941 C420.653 398.665 420.905 398.276 421.039 397.776 L420.183 397.67 C420.056 398.02 419.887 398.275 419.671 398.434 M417.892 395.308 C418.152 395.052 418.472 394.925 418.852 394.925 C419.273 394.925 419.614 395.085 419.88 395.404 C420.05 395.609 420.155 395.918 420.193 396.331 L417.461 396.331 C417.489 395.903 417.632 395.562 417.892 395.308"/>
<path style="stroke-width:0.943; clip-path:url(#clipPath1); stroke-linejoin:round; stroke-linecap:round; stroke:none;" d="M422.387 398.959 C422.719 399.223 423.204 399.355 423.84 399.355 C424.223 399.355 424.568 399.289 424.87 399.155 C425.176 399.022 425.408 398.833 425.569 398.589 C425.73 398.345 425.811 398.084 425.811 397.807 C425.811 397.526 425.743 397.289 425.612 397.098 C425.481 396.909 425.299 396.764 425.068 396.664 C424.834 396.563 424.426 396.435 423.84 396.279 C423.434 396.168 423.191 396.097 423.107 396.068 C422.962 396.009 422.857 395.935 422.789 395.846 C422.722 395.76 422.688 395.663 422.688 395.556 C422.688 395.388 422.77 395.24 422.933 395.114 C423.094 394.988 423.367 394.926 423.748 394.926 C424.069 394.926 424.319 394.995 424.494 395.137 C424.672 395.277 424.78 395.474 424.817 395.726 L425.626 395.616 C425.575 395.3 425.479 395.048 425.341 394.858 C425.203 394.669 424.989 394.519 424.698 394.409 C424.409 394.3 424.07 394.243 423.687 394.243 C423.432 394.243 423.194 394.277 422.972 394.343 C422.748 394.408 422.574 394.489 422.444 394.584 C422.272 394.707 422.136 394.861 422.036 395.048 C421.937 395.233 421.886 395.434 421.886 395.653 C421.886 395.892 421.947 396.111 422.069 396.309 C422.191 396.507 422.367 396.662 422.604 396.774 C422.838 396.886 423.259 397.02 423.866 397.172 C424.318 397.286 424.601 397.38 424.714 397.453 C424.877 397.561 424.959 397.708 424.959 397.895 C424.959 398.103 424.865 398.286 424.682 398.442 C424.498 398.597 424.215 398.674 423.835 398.674 C423.456 398.674 423.164 398.586 422.953 398.411 C422.743 398.237 422.614 397.985 422.569 397.656 L421.749 397.785 C421.84 398.305 422.053 398.695 422.387 398.959"/>
<path style="stroke-width:0.943; clip-path:url(#clipPath1); stroke-linejoin:round; stroke-linecap:round; stroke:none;" d="M428.498 399.203 C428.816 398.431 428.974 397.629 428.974 396.799 C428.974 396.068 428.857 395.368 428.62 394.701 C428.343 393.923 427.916 393.149 427.339 392.379 L426.744 392.379 C427.119 393.022 427.366 393.485 427.486 393.761 C427.674 394.183 427.82 394.625 427.924 395.086 C428.057 395.654 428.121 396.227 428.121 396.804 C428.121 398.282 427.664 399.756 426.744 401.23 L427.339 401.23 C427.795 400.652 428.18 399.977 428.498 399.203"/>

<path style="stroke-width:0.943; clip-path:url(#clipPath1); stroke-linejoin:round; stroke-linecap:round; stroke:none;" d="M385.978 365.239 C385.061 363.764 384.601 362.289 384.601 360.813 C384.601 360.232 384.667 359.655 384.799 359.081 C384.905 358.619 385.054 358.179 385.242 357.754 C385.361 357.481 385.607 357.025 385.978 356.386 L385.383 356.386 C384.806 357.158 384.38 357.931 384.104 358.707 C383.867 359.378 383.75 360.077 383.75 360.808 C383.75 361.638 383.906 362.438 384.224 363.213 C384.54 363.986 384.927 364.661 385.383 365.239 L385.978 365.239"/>
<path style="stroke-width:0.943; clip-path:url(#clipPath1); stroke-linejoin:round; stroke-linecap:round; stroke:none;" d="M391.158 362.171 C390.812 362.46 390.389 362.605 389.888 362.605 C389.476 362.605 389.094 362.499 388.742 362.286 C388.388 362.074 388.127 361.755 387.96 361.326 C387.794 360.898 387.71 360.397 387.71 359.823 C387.71 359.378 387.779 358.946 387.921 358.525 C388.062 358.107 388.308 357.773 388.656 357.524 C389.005 357.276 389.438 357.151 389.958 357.151 C390.408 357.151 390.783 357.264 391.08 357.487 C391.379 357.712 391.607 358.069 391.763 358.561 L392.641 358.353 C392.46 357.73 392.14 357.247 391.681 356.903 C391.218 356.559 390.652 356.386 389.975 356.386 C389.38 356.386 388.834 356.523 388.338 356.794 C387.843 357.066 387.46 357.464 387.191 357.987 C386.923 358.511 386.788 359.123 386.788 359.827 C386.788 360.472 386.907 361.075 387.146 361.638 C387.384 362.199 387.731 362.628 388.187 362.924 C388.642 363.221 389.234 363.369 389.961 363.369 C390.665 363.369 391.261 363.176 391.746 362.79 C392.233 362.406 392.569 361.846 392.757 361.112 L391.864 360.887 C391.74 361.454 391.506 361.883 391.158 362.171"/>
<path style="stroke-width:0.943; clip-path:url(#clipPath1); stroke-linejoin:round; stroke-linecap:round; stroke:none;" d="M394.077 362.706 C394.498 363.145 395.053 363.364 395.737 363.364 C396.164 363.364 396.558 363.264 396.919 363.065 C397.278 362.865 397.554 362.585 397.743 362.224 C397.931 361.863 398.026 361.368 398.026 360.739 C398.026 359.963 397.813 359.353 397.385 358.912 C396.959 358.472 396.408 358.252 395.737 358.252 C395.132 358.252 394.619 358.432 394.198 358.795 C393.695 359.231 393.444 359.902 393.444 360.807 C393.444 361.634 393.653 362.266 394.077 362.706 M394.707 359.403 C394.979 359.093 395.322 358.938 395.737 358.938 C396.145 358.938 396.486 359.094 396.762 359.405 C397.036 359.717 397.174 360.176 397.174 360.781 C397.174 361.422 397.037 361.9 396.764 362.213 C396.489 362.526 396.148 362.683 395.737 362.683 C395.322 362.683 394.979 362.526 394.707 362.215 C394.432 361.904 394.295 361.434 394.295 360.807 C394.295 360.181 394.432 359.714 394.707 359.403"/>
<path style="stroke-width:0.943; clip-path:url(#clipPath1); stroke-linejoin:round; stroke-linecap:round; stroke:none;" d="M398.979 363.253 L399.809 363.253 L399.809 356.5021 L398.979 356.5021 L398.979 363.253"/>
<path style="stroke-width:0.943; clip-path:url(#clipPath1); stroke-linejoin:round; stroke-linecap:round; stroke:none;" d="M401.418 362.706 C401.84 363.145 402.393 363.364 403.078 363.364 C403.505 363.364 403.899 363.264 404.26 363.065 C404.618 362.865 404.896 362.585 405.084 362.224 C405.274 361.863 405.366 361.368 405.366 360.739 C405.366 359.963 405.153 359.353 404.726 358.912 C404.3 358.472 403.75 358.252 403.078 358.252 C402.473 358.252 401.96 358.432 401.539 358.795 C401.037 359.231 400.785 359.902 400.785 360.807 C400.785 361.634 400.995 362.266 401.418 362.706 M402.048 359.403 C402.319 359.093 402.663 358.938 403.078 358.938 C403.486 358.938 403.827 359.094 404.103 359.405 C404.377 359.717 404.515 360.176 404.515 360.781 C404.515 361.422 404.378 361.9 404.105 362.213 C403.831 362.526 403.488 362.683 403.078 362.683 C402.663 362.683 402.319 362.526 402.048 362.215 C401.774 361.904 401.637 361.434 401.637 360.807 C401.637 360.181 401.774 359.714 402.048 359.403"/>
<path style="stroke-width:0.943; clip-path:url(#clipPath1); stroke-linejoin:round; stroke-linecap:round; stroke:none;" d="M407.167 363.254 L407.167 360.716 C407.167 360.271 407.212 359.93 407.302 359.694 C407.391 359.457 407.533 359.278 407.733 359.155 C407.93 359.032 408.146 358.971 408.379 358.971 C408.686 358.971 408.907 359.063 409.042 359.247 C409.176 359.431 409.244 359.707 409.244 360.076 L409.244 363.254 L410.073 363.254 L410.073 360.411 C410.073 359.908 410.187 359.542 410.414 359.313 C410.642 359.085 410.927 358.971 411.272 358.971 C411.46 358.971 411.627 359.014 411.769 359.105 C411.909 359.193 412.007 359.311 412.062 359.456 C412.114 359.602 412.142 359.841 412.142 360.172 L412.142 363.254 L412.966 363.254 L412.966 359.896 C412.966 359.337 412.834 358.923 412.574 358.656 C412.314 358.387 411.94 358.252 411.454 358.252 C410.835 358.252 410.332 358.538 409.944 359.108 C409.849 358.839 409.685 358.628 409.453 358.478 C409.222 358.326 408.926 358.252 408.564 358.252 C408.236 358.252 407.948 358.325 407.694 358.471 C407.437 358.617 407.234 358.809 407.081 359.049 L407.081 358.362 L406.339 358.362 L406.339 363.254 L407.167 363.254"/>
<path style="stroke-width:0.943; clip-path:url(#clipPath1); stroke-linejoin:round; stroke-linecap:round; stroke:none;" d="M414.959 362.641 C415.289 363.123 415.741 363.365 416.319 363.365 C416.9 363.365 417.396 363.135 417.811 362.678 C418.225 362.221 418.433 361.572 418.433 360.735 C418.433 360.381 418.383 360.05 418.285 359.74 C418.186 359.43 418.051 359.164 417.878 358.946 C417.704 358.725 417.484 358.555 417.214 358.434 C416.945 358.313 416.661 358.253 416.36 358.253 C415.817 358.253 415.37 358.472 415.02 358.91 L415.02 356.502 L414.192 356.502 L414.192 363.253 L414.959 363.253 L414.959 362.641 ZM415.347 359.406 C415.611 359.091 415.924 358.933 416.286 358.933 C416.647 358.933 416.952 359.085 417.203 359.39 C417.459 359.693 417.584 360.165 417.584 360.804 C417.584 361.427 417.453 361.896 417.189 362.21 C416.924 362.525 416.612 362.682 416.249 362.682 C415.805 362.682 415.452 362.469 415.191 362.042 C415.03 361.782 414.95 361.358 414.95 360.772 C414.95 360.176 415.083 359.721 415.347 359.406"/>
<path style="stroke-width:0.943; clip-path:url(#clipPath1); stroke-linejoin:round; stroke-linecap:round; stroke:none;" d="M420.276 356.502 L419.445 356.502 L419.445 357.455 L420.276 357.455 L420.276 356.502 M420.276 358.363 L419.445 358.363 L419.445 363.255 L420.276 363.255 L420.276 358.363"/>
<path style="stroke-width:0.943; clip-path:url(#clipPath1); stroke-linejoin:round; stroke-linecap:round; stroke:none;" d="M424.894 363.254 L425.761 363.254 C425.655 363.066 425.586 362.87 425.551 362.666 C425.515 362.462 425.497 361.974 425.497 361.204 L425.497 360.098 C425.497 359.731 425.484 359.476 425.456 359.334 C425.407 359.107 425.319 358.919 425.198 358.771 C425.074 358.621 424.884 358.498 424.621 358.4 C424.361 358.301 424.022 358.252 423.605 358.252 C423.185 358.252 422.815 358.309 422.494 358.424 C422.175 358.539 421.932 358.704 421.763 358.917 C421.594 359.131 421.471 359.411 421.398 359.758 L422.209 359.868 C422.298 359.521 422.435 359.28 422.62 359.143 C422.807 359.006 423.094 358.938 423.484 358.938 C423.903 358.938 424.217 359.032 424.429 359.22 C424.585 359.358 424.663 359.595 424.663 359.932 C424.663 359.964 424.661 360.036 424.658 360.149 C424.343 360.26 423.851 360.354 423.182 360.435 C422.851 360.474 422.608 360.516 422.444 360.56 C422.223 360.621 422.024 360.712 421.847 360.831 C421.671 360.951 421.528 361.11 421.419 361.307 C421.311 361.506 421.257 361.724 421.257 361.964 C421.257 362.372 421.4 362.708 421.689 362.97 C421.978 363.233 422.391 363.364 422.927 363.364 C423.253 363.364 423.558 363.31 423.841 363.202 C424.126 363.095 424.421 362.911 424.727 362.65 C424.754 362.88 424.808 363.082 424.894 363.254 M424.658 361.103 C424.658 361.468 424.615 361.744 424.525 361.932 C424.409 362.174 424.226 362.365 423.978 362.506 C423.73 362.645 423.444 362.715 423.126 362.715 C422.803 362.715 422.559 362.641 422.392 362.493 C422.224 362.346 422.14 362.162 422.14 361.941 C422.14 361.797 422.179 361.665 422.255 361.547 C422.331 361.429 422.441 361.339 422.582 361.277 C422.724 361.216 422.964 361.161 423.304 361.112 C423.906 361.026 424.359 360.922 424.658 360.799 L424.658 361.103"/>
<path style="stroke-width:0.943; clip-path:url(#clipPath1); stroke-linejoin:round; stroke-linecap:round; stroke:none;" d="M428.485 363.212 C428.803 362.438 428.96 361.637 428.96 360.807 C428.96 360.076 428.843 359.377 428.607 358.708 C428.329 357.931 427.903 357.158 427.324 356.387 L426.732 356.387 C427.107 357.031 427.353 357.492 427.473 357.769 C427.661 358.192 427.806 358.634 427.91 359.095 C428.043 359.663 428.109 360.235 428.109 360.813 C428.109 362.29 427.649 363.765 426.732 365.239 L427.324 365.239 C427.78 364.66 428.166 363.985 428.485 363.212"/>

<path style="stroke-width:0.943; clip-path:url(#clipPath1); stroke-linejoin:round; stroke-linecap:round; stroke:none;" d="M385.978 419.142 C385.061 417.667 384.601 416.191 384.601 414.716 C384.601 414.135 384.667 413.557 384.799 412.984 C384.905 412.523 385.054 412.081 385.242 411.658 C385.361 411.385 385.607 410.928 385.978 410.289 L385.383 410.289 C384.806 411.06 384.38 411.834 384.104 412.611 C383.867 413.28 383.75 413.98 383.75 414.711 C383.75 415.54 383.906 416.341 384.224 417.116 C384.54 417.888 384.927 418.564 385.383 419.142 L385.978 419.142"/>
<path style="stroke-width:0.943; clip-path:url(#clipPath1); stroke-linejoin:round; stroke-linecap:round; stroke:none;" d="M387.879 417.157 L387.879 411.408 L389.833 417.157 L390.639 417.157 L392.6 411.505 L392.6 417.157 L393.461 417.157 L393.461 410.404 L392.261 410.404 L390.645 415.102 C390.48 415.578 390.361 415.939 390.284 416.184 C390.216 415.964 390.109 415.63 389.961 415.185 L388.363 410.404 L387.019 410.404 L387.019 417.157 L387.879 417.157"/>
<path style="stroke-width:0.943; clip-path:url(#clipPath1); stroke-linejoin:round; stroke-linecap:round; stroke:none;" d="M397.634 416.346 C397.419 416.505 397.16 416.585 396.856 416.585 C396.447 416.585 396.107 416.443 395.833 416.157 C395.56 415.871 395.408 415.46 395.377 414.923 L399.027 414.923 C399.028 414.824 399.029 414.75 399.029 414.701 C399.029 413.895 398.822 413.268 398.408 412.823 C397.993 412.378 397.459 412.155 396.805 412.155 C396.13 412.155 395.58 412.382 395.157 412.836 C394.734 413.29 394.522 413.93 394.522 414.752 C394.522 415.548 394.731 416.165 395.151 416.607 C395.569 417.047 396.136 417.266 396.852 417.266 C397.419 417.266 397.887 417.129 398.251 416.852 C398.617 416.575 398.867 416.187 399.002 415.687 L398.146 415.582 C398.02 415.931 397.85 416.186 397.634 416.346 M395.854 413.219 C396.114 412.964 396.434 412.836 396.815 412.836 C397.236 412.836 397.578 412.997 397.842 413.315 C398.014 413.521 398.118 413.829 398.155 414.242 L395.424 414.242 C395.451 413.815 395.595 413.474 395.854 413.219"/>
<path style="stroke-width:0.943; clip-path:url(#clipPath1); stroke-linejoin:round; stroke-linecap:round; stroke:none;" d="M400.494 417.157 L401.778 415.226 L402.048 415.637 L403.051 417.157 L404.068 417.157 L402.249 414.568 L403.939 412.265 L402.949 412.265 L402.125 413.421 C402.012 413.578 401.887 413.758 401.751 413.96 C401.666 413.813 401.551 413.629 401.412 413.412 L400.66 412.265 L399.624 412.265 L401.278 414.614 L399.49 417.157 L400.494 417.157"/>
<path style="stroke-width:0.943; clip-path:url(#clipPath1); stroke-linejoin:round; stroke-linecap:round; stroke:none;" d="M405.593 410.404 L404.764 410.404 L404.764 411.358 L405.593 411.358 L405.593 410.404 M405.593 412.265 L404.764 412.265 L404.764 417.1579 L405.593 417.1579 L405.593 412.265"/>
<path style="stroke-width:0.943; clip-path:url(#clipPath1); stroke-linejoin:round; stroke-linecap:round; stroke:none;" d="M409.631 416.285 C409.413 416.485 409.143 416.585 408.816 416.585 C408.41 416.585 408.083 416.437 407.83 416.138 C407.579 415.841 407.452 415.364 407.452 414.706 C407.452 414.057 407.584 413.584 407.844 413.286 C408.106 412.985 408.444 412.836 408.862 412.836 C409.14 412.836 409.374 412.919 409.57 413.085 C409.765 413.251 409.9 413.498 409.977 413.826 L410.784 413.702 C410.687 413.209 410.472 412.826 410.133 412.557 C409.795 412.289 409.361 412.155 408.83 412.155 C408.408 412.155 408.02 412.254 407.663 412.451 C407.305 412.65 407.038 412.947 406.863 413.343 C406.689 413.739 406.601 414.201 406.601 414.729 C406.601 415.546 406.804 416.173 407.212 416.61 C407.617 417.048 408.156 417.266 408.826 417.266 C409.361 417.266 409.812 417.108 410.178 416.79 C410.545 416.472 410.772 416.033 410.861 415.471 L410.046 415.365 C409.988 415.779 409.85 416.086 409.631 416.285"/>
<path style="stroke-width:0.943; clip-path:url(#clipPath1); stroke-linejoin:round; stroke-linecap:round; stroke:none;" d="M411.896 416.608 C412.318 417.048 412.87 417.266 413.555 417.266 C413.983 417.266 414.375 417.166 414.737 416.968 C415.097 416.767 415.371 416.487 415.561 416.127 C415.749 415.766 415.845 415.271 415.845 414.641 C415.845 413.866 415.632 413.257 415.204 412.816 C414.777 412.375 414.228 412.155 413.555 412.155 C412.95 412.155 412.438 412.336 412.017 412.698 C411.513 413.135 411.263 413.805 411.263 414.711 C411.263 415.537 411.473 416.17 411.896 416.608 M412.524 413.306 C412.798 412.996 413.142 412.841 413.555 412.841 C413.963 412.841 414.305 412.997 414.581 413.308 C414.855 413.62 414.993 414.079 414.993 414.683 C414.993 415.325 414.856 415.803 414.581 416.117 C414.309 416.43 413.967 416.586 413.555 416.586 C413.142 416.586 412.798 416.43 412.524 416.118 C412.25 415.807 412.113 415.337 412.113 414.711 C412.113 414.084 412.25 413.617 412.524 413.306"/>
<path style="stroke-width:0.943; clip-path:url(#clipPath1); stroke-linejoin:round; stroke-linecap:round; stroke:none;" d="M418.519 417.115 C418.835 416.341 418.994 415.54 418.994 414.711 C418.994 413.979 418.876 413.28 418.639 412.611 C418.363 411.834 417.937 411.061 417.36 410.289 L416.765 410.289 C417.14 410.934 417.387 411.395 417.507 411.672 C417.694 412.095 417.839 412.535 417.944 412.998 C418.077 413.566 418.142 414.138 418.142 414.716 C418.142 416.192 417.683 417.667 416.765 419.142 L417.36 419.142 C417.814 418.564 418.2 417.888 418.519 417.115"/>

<path style="stroke-width:0.943; clip-path:url(#clipPath1); stroke-linejoin:round; stroke-linecap:round; stroke:none;" d="M368.684 410.794 C367.767 409.32 367.308 407.845 367.308 406.368 C367.308 405.787 367.373 405.21 367.505 404.637 C367.612 404.175 367.761 403.734 367.947 403.31 C368.068 403.036 368.314 402.581 368.684 401.942 L368.089 401.942 C367.513 402.713 367.087 403.487 366.81 404.263 C366.572 404.933 366.455 405.632 366.455 406.364 C366.455 407.193 366.613 407.993 366.931 408.768 C367.246 409.541 367.632 410.217 368.089 410.794 L368.684 410.794"/>
<path style="stroke-width:0.943; clip-path:url(#clipPath1); stroke-linejoin:round; stroke-linecap:round; stroke:none;" d="M369.905 408.809 L370.798 408.809 L370.798 402.057 L369.905 402.057 L369.905 408.809"/>
<path style="stroke-width:0.943; clip-path:url(#clipPath1); stroke-linejoin:round; stroke-linecap:round; stroke:none;" d="M372.502 408.809 L373.446 408.809 L373.446 407.864 L372.502 407.864 L372.502 408.809"/>
<path style="stroke-width:0.943; clip-path:url(#clipPath1); stroke-linejoin:round; stroke-linecap:round; stroke:none;" d="M377.682 407.854 C377.916 408.212 378.239 408.479 378.653 408.658 C379.067 408.836 379.578 408.925 380.189 408.925 C380.67 408.925 381.106 408.837 381.489 408.66 C381.875 408.483 382.171 408.237 382.376 407.919 C382.581 407.601 382.684 407.264 382.684 406.904 C382.684 406.541 382.592 406.221 382.403 405.944 C382.217 405.665 381.927 405.436 381.535 405.255 C381.263 405.132 380.766 404.988 380.039 404.824 C379.314 404.66 378.864 404.499 378.693 404.343 C378.518 404.186 378.429 403.987 378.429 403.744 C378.429 403.464 378.553 403.226 378.8 403.028 C379.048 402.829 379.442 402.731 379.981 402.731 C380.5 402.731 380.893 402.84 381.158 403.058 C381.424 403.276 381.579 403.598 381.625 404.026 L382.482 403.961 C382.467 403.565 382.358 403.21 382.151 402.897 C381.945 402.584 381.651 402.346 381.269 402.185 C380.886 402.024 380.444 401.944 379.944 401.944 C379.49 401.944 379.076 402.02 378.705 402.174 C378.334 402.328 378.052 402.552 377.859 402.848 C377.665 403.144 377.568 403.462 377.568 403.804 C377.568 404.113 377.648 404.393 377.805 404.644 C377.963 404.894 378.203 405.103 378.526 405.273 C378.776 405.405 379.209 405.545 379.829 405.694 C380.449 405.844 380.85 405.953 381.031 406.024 C381.315 406.131 381.517 406.264 381.639 406.422 C381.763 406.58 381.823 406.764 381.823 406.977 C381.823 407.185 381.76 407.378 381.632 407.556 C381.505 407.732 381.311 407.871 381.05 407.972 C380.789 408.073 380.488 408.124 380.148 408.124 C379.765 408.124 379.419 408.057 379.111 407.924 C378.804 407.79 378.578 407.615 378.432 407.399 C378.285 407.182 378.194 406.905 378.153 406.567 L377.31 406.64 C377.323 407.093 377.446 407.497 377.682 407.854"/>
<path style="stroke-width:0.943; clip-path:url(#clipPath1); stroke-linejoin:round; stroke-linecap:round; stroke:none;" d="M387.156 408.809 L388.023 408.809 C387.918 408.622 387.848 408.427 387.814 408.221 C387.777 408.018 387.761 407.53 387.761 406.759 L387.761 405.654 C387.761 405.286 387.745 405.032 387.719 404.89 C387.67 404.663 387.583 404.475 387.461 404.326 C387.338 404.177 387.147 404.054 386.885 403.955 C386.625 403.857 386.283 403.806 385.866 403.806 C385.447 403.806 385.076 403.865 384.758 403.98 C384.438 404.095 384.194 404.26 384.027 404.473 C383.857 404.686 383.736 404.967 383.66 405.314 L384.472 405.424 C384.562 405.077 384.697 404.836 384.883 404.699 C385.069 404.562 385.357 404.493 385.747 404.493 C386.165 404.493 386.48 404.587 386.692 404.775 C386.848 404.913 386.926 405.151 386.926 405.488 C386.926 405.519 386.924 405.592 386.921 405.705 C386.606 405.815 386.112 405.911 385.444 405.991 C385.114 406.03 384.869 406.072 384.706 406.115 C384.485 406.177 384.286 406.267 384.11 406.387 C383.934 406.507 383.791 406.665 383.683 406.864 C383.573 407.061 383.519 407.281 383.519 407.52 C383.519 407.928 383.662 408.263 383.952 408.526 C384.24 408.788 384.653 408.919 385.191 408.919 C385.516 408.919 385.82 408.865 386.104 408.758 C386.389 408.651 386.684 408.467 386.991 408.205 C387.016 408.435 387.071 408.637 387.156 408.809 M386.921 406.659 C386.921 407.023 386.877 407.3 386.788 407.488 C386.672 407.73 386.489 407.921 386.24 408.061 C385.992 408.201 385.707 408.27 385.388 408.27 C385.066 408.27 384.822 408.197 384.653 408.048 C384.486 407.902 384.403 407.718 384.403 407.496 C384.403 407.352 384.442 407.221 384.517 407.102 C384.594 406.985 384.703 406.894 384.845 406.833 C384.986 406.772 385.227 406.717 385.569 406.667 C386.17 406.581 386.622 406.477 386.921 406.354 L386.921 406.659"/>
<path style="stroke-width:0.943; clip-path:url(#clipPath1); stroke-linejoin:round; stroke-linecap:round; stroke:none;" d="M389.874 408.809 L389.874 406.138 C389.874 405.512 390.002 405.086 390.259 404.862 C390.516 404.638 390.819 404.527 391.172 404.527 C391.394 404.527 391.587 404.576 391.751 404.676 C391.915 404.776 392.029 404.908 392.095 405.077 C392.158 405.244 392.191 405.496 392.191 405.834 L392.191 408.809 L393.019 408.809 L393.019 405.802 C393.019 405.418 393.005 405.15 392.973 404.996 C392.925 404.759 392.838 404.555 392.717 404.384 C392.592 404.211 392.407 404.072 392.16 403.966 C391.913 403.86 391.642 403.806 391.348 403.806 C390.669 403.806 390.151 404.076 389.79 404.614 L389.79 403.918 L389.045 403.918 L389.045 408.809 L389.874 408.809"/>
<path style="stroke-width:0.943; clip-path:url(#clipPath1); stroke-linejoin:round; stroke-linecap:round; stroke:none;" d="M397.225 408.809 L397.966 406.764 L400.789 406.764 L401.575 408.809 L402.594 408.809 L399.832 402.057 L398.868 402.057 L396.275 408.809 L397.225 408.809 ZM398.967 404.056 C399.122 403.63 399.243 403.2 399.328 402.767 C399.433 403.132 399.593 403.598 399.808 404.167 L400.512 406.036 L398.225 406.036 L398.967 404.056"/>
<path style="stroke-width:0.943; clip-path:url(#clipPath1); stroke-linejoin:round; stroke-linecap:round; stroke:none;" d="M404.031 408.809 L404.031 406.138 C404.031 405.512 404.159 405.086 404.415 404.862 C404.671 404.638 404.977 404.527 405.33 404.527 C405.551 404.527 405.744 404.576 405.908 404.676 C406.073 404.776 406.186 404.908 406.251 405.077 C406.316 405.244 406.348 405.496 406.348 405.834 L406.348 408.809 L407.177 408.809 L407.177 405.802 C407.177 405.418 407.162 405.15 407.131 404.996 C407.082 404.759 406.996 404.555 406.873 404.384 C406.749 404.211 406.565 404.072 406.318 403.966 C406.071 403.86 405.799 403.806 405.506 403.806 C404.826 403.806 404.307 404.076 403.948 404.614 L403.948 403.918 L403.201 403.918 L403.201 408.809 L404.031 408.809"/>
<path style="stroke-width:0.943; clip-path:url(#clipPath1); stroke-linejoin:round; stroke-linecap:round; stroke:none;" d="M412.39 408.809 L412.39 402.057 L411.566 402.057 L411.566 404.48 C411.422 404.281 411.235 404.118 411.003 403.993 C410.774 403.869 410.511 403.806 410.216 403.806 C409.815 403.806 409.449 403.914 409.125 404.125 C408.8 404.337 408.556 404.642 408.394 405.039 C408.229 405.437 408.149 405.88 408.149 406.368 C408.149 406.868 408.238 407.312 408.418 407.697 C408.598 408.082 408.851 408.383 409.178 408.597 C409.505 408.812 409.863 408.919 410.253 408.919 C410.855 408.919 411.311 408.677 411.621 408.192 L411.621 408.809 L412.39 408.809 ZM409.37 404.944 C409.618 404.644 409.927 404.493 410.294 404.493 C410.673 404.493 410.991 404.651 411.247 404.964 C411.506 405.277 411.635 405.768 411.635 406.436 C411.635 407.045 411.508 407.497 411.254 407.793 C411.002 408.09 410.693 408.238 410.332 408.238 C409.973 408.238 409.66 408.083 409.397 407.772 C409.132 407.463 409 406.994 409 406.368 C409 405.72 409.124 405.246 409.37 404.944"/>
<path style="stroke-width:0.943; clip-path:url(#clipPath1); stroke-linejoin:round; stroke-linecap:round; stroke:none;" d="M414.513 408.809 L414.513 406.249 C414.513 405.898 414.559 405.575 414.652 405.282 C414.712 405.088 414.817 404.936 414.96 404.827 C415.105 404.719 415.267 404.664 415.448 404.664 C415.651 404.664 415.853 404.724 416.057 404.844 L416.341 404.074 C416.053 403.897 415.769 403.806 415.489 403.806 C415.295 403.806 415.119 403.863 414.957 403.973 C414.796 404.083 414.621 404.312 414.43 404.66 L414.43 403.918 L413.684 403.918 L413.684 408.809 L414.513 408.809"/>
<path style="stroke-width:0.943; clip-path:url(#clipPath1); stroke-linejoin:round; stroke-linecap:round; stroke:none;" d="M419.671 407.999 C419.456 408.158 419.196 408.238 418.894 408.238 C418.485 408.238 418.143 408.096 417.87 407.81 C417.598 407.525 417.445 407.113 417.414 406.575 L421.063 406.575 C421.066 406.477 421.067 406.403 421.067 406.355 C421.067 405.547 420.86 404.92 420.444 404.476 C420.03 404.031 419.496 403.807 418.842 403.807 C418.167 403.807 417.617 404.035 417.194 404.489 C416.771 404.944 416.558 405.582 416.558 406.405 C416.558 407.2 416.767 407.819 417.187 408.258 C417.606 408.699 418.173 408.92 418.889 408.92 C419.456 408.92 419.924 408.782 420.288 408.506 C420.653 408.228 420.905 407.84 421.039 407.34 L420.183 407.233 C420.056 407.584 419.887 407.839 419.671 407.999 M417.892 404.872 C418.152 404.616 418.472 404.489 418.852 404.489 C419.273 404.489 419.614 404.649 419.88 404.969 C420.05 405.174 420.155 405.482 420.193 405.894 L417.461 405.894 C417.489 405.467 417.632 405.127 417.892 404.872"/>
<path style="stroke-width:0.943; clip-path:url(#clipPath1); stroke-linejoin:round; stroke-linecap:round; stroke:none;" d="M422.387 408.525 C422.719 408.788 423.204 408.921 423.84 408.921 C424.223 408.921 424.568 408.853 424.87 408.721 C425.176 408.587 425.408 408.398 425.569 408.153 C425.73 407.91 425.811 407.648 425.811 407.372 C425.811 407.091 425.743 406.853 425.612 406.663 C425.481 406.474 425.299 406.329 425.068 406.228 C424.834 406.129 424.426 406 423.84 405.844 C423.434 405.734 423.191 405.663 423.107 405.633 C422.962 405.575 422.857 405.501 422.789 405.41 C422.722 405.325 422.688 405.229 422.688 405.121 C422.688 404.953 422.77 404.805 422.933 404.68 C423.094 404.553 423.367 404.491 423.748 404.491 C424.069 404.491 424.319 404.561 424.494 404.701 C424.672 404.843 424.78 405.039 424.817 405.29 L425.626 405.181 C425.575 404.865 425.479 404.612 425.341 404.424 C425.203 404.235 424.989 404.085 424.698 403.974 C424.409 403.864 424.07 403.808 423.687 403.808 C423.432 403.808 423.194 403.842 422.972 403.907 C422.748 403.973 422.574 404.054 422.444 404.149 C422.272 404.273 422.136 404.426 422.036 404.612 C421.937 404.798 421.886 404.999 421.886 405.218 C421.886 405.458 421.947 405.676 422.069 405.874 C422.191 406.072 422.367 406.226 422.604 406.339 C422.838 406.452 423.259 406.584 423.866 406.737 C424.318 406.851 424.601 406.944 424.714 407.018 C424.877 407.126 424.959 407.274 424.959 407.461 C424.959 407.669 424.865 407.851 424.682 408.007 C424.498 408.161 424.215 408.238 423.835 408.238 C423.456 408.238 423.164 408.151 422.953 407.977 C422.743 407.801 422.614 407.55 422.569 407.222 L421.749 407.35 C421.84 407.869 422.053 408.26 422.387 408.525"/>
<path style="stroke-width:0.943; clip-path:url(#clipPath1); stroke-linejoin:round; stroke-linecap:round; stroke:none;" d="M428.498 408.768 C428.816 407.994 428.974 407.192 428.974 406.363 C428.974 405.632 428.857 404.932 428.62 404.264 C428.343 403.486 427.916 402.714 427.339 401.943 L426.744 401.943 C427.119 402.586 427.366 403.048 427.486 403.325 C427.674 403.748 427.82 404.189 427.924 404.651 C428.057 405.218 428.121 405.791 428.121 406.368 C428.121 407.845 427.664 409.321 426.744 410.793 L427.339 410.793 C427.795 410.216 428.18 409.541 428.498 408.768"/>

<path style="stroke-width:0.943; clip-path:url(#clipPath1); stroke-linejoin:round; stroke-linecap:round; stroke:none;" d="M385.978 438.1 C385.061 436.625 384.601 435.151 384.601 433.675 C384.601 433.093 384.667 432.517 384.799 431.943 C384.905 431.482 385.054 431.04 385.242 430.616 C385.361 430.343 385.607 429.887 385.978 429.249 L385.383 429.249 C384.806 430.019 384.38 430.793 384.104 431.57 C383.867 432.24 383.75 432.939 383.75 433.669 C383.75 434.499 383.906 435.3 384.224 436.074 C384.54 436.848 384.927 437.523 385.383 438.1 L385.978 438.1"/>
<path style="stroke-width:0.943; clip-path:url(#clipPath1); stroke-linejoin:round; stroke-linecap:round; stroke:none;" d="M387.879 436.116 L387.879 430.367 L389.833 436.116 L390.639 436.116 L392.6 430.464 L392.6 436.116 L393.461 436.116 L393.461 429.364 L392.261 429.364 L390.645 434.062 C390.48 434.538 390.361 434.898 390.284 435.144 C390.216 434.922 390.109 434.589 389.961 434.144 L388.363 429.364 L387.019 429.364 L387.019 436.116 L387.879 436.116"/>
<path style="stroke-width:0.943; clip-path:url(#clipPath1); stroke-linejoin:round; stroke-linecap:round; stroke:none;" d="M397.634 435.305 C397.419 435.464 397.16 435.544 396.856 435.544 C396.447 435.544 396.107 435.402 395.833 435.117 C395.56 434.831 395.408 434.419 395.377 433.882 L399.027 433.882 C399.028 433.783 399.029 433.71 399.029 433.66 C399.029 432.853 398.822 432.228 398.408 431.783 C397.993 431.337 397.459 431.114 396.805 431.114 C396.13 431.114 395.58 431.341 395.157 431.794 C394.734 432.249 394.522 432.888 394.522 433.712 C394.522 434.507 394.731 435.124 395.151 435.565 C395.569 436.005 396.136 436.226 396.852 436.226 C397.419 436.226 397.887 436.087 398.251 435.812 C398.617 435.534 398.867 435.147 399.002 434.647 L398.146 434.54 C398.02 434.89 397.85 435.146 397.634 435.305 M395.854 432.178 C396.114 431.923 396.434 431.794 396.815 431.794 C397.236 431.794 397.578 431.956 397.842 432.275 C398.014 432.48 398.118 432.788 398.155 433.2 L395.424 433.2 C395.451 432.773 395.595 432.433 395.854 432.178"/>
<path style="stroke-width:0.943; clip-path:url(#clipPath1); stroke-linejoin:round; stroke-linecap:round; stroke:none;" d="M400.494 436.116 L401.778 434.185 L402.048 434.595 L403.051 436.116 L404.068 436.116 L402.249 433.527 L403.939 431.224 L402.949 431.224 L402.125 432.38 C402.012 432.536 401.887 432.716 401.751 432.918 C401.666 432.772 401.551 432.589 401.412 432.37 L400.66 431.224 L399.624 431.224 L401.278 433.574 L399.49 436.116 L400.494 436.116"/>
<path style="stroke-width:0.943; clip-path:url(#clipPath1); stroke-linejoin:round; stroke-linecap:round; stroke:none;" d="M405.593 429.364 L404.764 429.364 L404.764 430.317 L405.593 430.317 L405.593 429.364 M405.593 431.224 L404.764 431.224 L404.764 436.117 L405.593 436.117 L405.593 431.224"/>
<path style="stroke-width:0.943; clip-path:url(#clipPath1); stroke-linejoin:round; stroke-linecap:round; stroke:none;" d="M409.631 435.245 C409.413 435.445 409.143 435.544 408.816 435.544 C408.41 435.544 408.083 435.396 407.83 435.097 C407.579 434.799 407.452 434.322 407.452 433.665 C407.452 433.017 407.584 432.543 407.844 432.243 C408.106 431.945 408.444 431.796 408.862 431.796 C409.14 431.796 409.374 431.878 409.57 432.043 C409.765 432.21 409.9 432.456 409.977 432.786 L410.784 432.661 C410.687 432.167 410.472 431.785 410.133 431.517 C409.795 431.248 409.361 431.114 408.83 431.114 C408.408 431.114 408.02 431.212 407.663 431.41 C407.305 431.609 407.038 431.906 406.863 432.302 C406.689 432.699 406.601 433.16 406.601 433.689 C406.601 434.505 406.804 435.132 407.212 435.57 C407.617 436.007 408.156 436.226 408.826 436.226 C409.361 436.226 409.812 436.068 410.178 435.749 C410.545 435.432 410.772 434.992 410.861 434.43 L410.046 434.324 C409.988 434.739 409.85 435.045 409.631 435.245"/>
<path style="stroke-width:0.943; clip-path:url(#clipPath1); stroke-linejoin:round; stroke-linecap:round; stroke:none;" d="M411.896 435.568 C412.318 436.007 412.87 436.226 413.555 436.226 C413.983 436.226 414.375 436.126 414.737 435.927 C415.097 435.727 415.371 435.447 415.561 435.086 C415.749 434.725 415.845 434.23 415.845 433.601 C415.845 432.825 415.632 432.216 415.204 431.775 C414.777 431.333 414.228 431.113 413.555 431.113 C412.95 431.113 412.438 431.294 412.017 431.656 C411.513 432.093 411.263 432.763 411.263 433.669 C411.263 434.495 411.473 435.129 411.896 435.568 M412.524 432.265 C412.798 431.954 413.142 431.8 413.555 431.8 C413.963 431.8 414.305 431.956 414.581 432.267 C414.855 432.579 414.993 433.036 414.993 433.642 C414.993 434.284 414.856 434.761 414.581 435.075 C414.309 435.388 413.967 435.544 413.555 435.544 C413.142 435.544 412.798 435.388 412.524 435.076 C412.25 434.765 412.113 434.295 412.113 433.669 C412.113 433.043 412.25 432.575 412.524 432.265"/>
<path style="stroke-width:0.943; clip-path:url(#clipPath1); stroke-linejoin:round; stroke-linecap:round; stroke:none;" d="M418.519 436.074 C418.835 435.3 418.994 434.499 418.994 433.669 C418.994 432.939 418.876 432.239 418.639 431.57 C418.363 430.793 417.937 430.02 417.36 429.249 L416.765 429.249 C417.14 429.894 417.387 430.354 417.507 430.63 C417.694 431.054 417.839 431.495 417.944 431.956 C418.077 432.525 418.142 433.097 418.142 433.675 C418.142 435.151 417.683 436.626 416.765 438.1 L417.36 438.1 C417.814 437.523 418.2 436.848 418.519 436.074"/>

<path style="stroke-width:0.943; clip-path:url(#clipPath1); stroke-linejoin:round; stroke-linecap:round; stroke:none;" d="M385.978 428.527 C385.061 427.052 384.601 425.577 384.601 424.1 C384.601 423.519 384.667 422.943 384.799 422.368 C384.905 421.908 385.054 421.466 385.242 421.041 C385.361 420.769 385.607 420.313 385.978 419.675 L385.383 419.675 C384.806 420.445 384.38 421.219 384.104 421.995 C383.867 422.665 383.75 423.365 383.75 424.095 C383.75 424.925 383.906 425.726 384.224 426.499 C384.54 427.274 384.927 427.949 385.383 428.527 L385.978 428.527"/>
<path style="stroke-width:0.943; clip-path:url(#clipPath1); stroke-linejoin:round; stroke-linecap:round; stroke:none;" d="M387.879 426.54 L387.879 420.794 L389.833 426.54 L390.639 426.54 L392.6 420.89 L392.6 426.54 L393.461 426.54 L393.461 419.79 L392.261 419.79 L390.645 424.488 C390.48 424.963 390.361 425.324 390.284 425.57 C390.216 425.347 390.109 425.015 389.961 424.57 L388.363 419.79 L387.019 419.79 L387.019 426.54 L387.879 426.54"/>
<path style="stroke-width:0.943; clip-path:url(#clipPath1); stroke-linejoin:round; stroke-linecap:round; stroke:none;" d="M397.634 425.73 C397.419 425.89 397.16 425.97 396.856 425.97 C396.447 425.97 396.107 425.827 395.833 425.542 C395.56 425.256 395.408 424.845 395.377 424.308 L399.027 424.308 C399.028 424.208 399.029 424.136 399.029 424.086 C399.029 423.279 398.822 422.654 398.408 422.207 C397.993 421.763 397.459 421.54 396.805 421.54 C396.13 421.54 395.58 421.767 395.157 422.222 C394.734 422.675 394.522 423.314 394.522 424.138 C394.522 424.933 394.731 425.55 395.151 425.992 C395.569 426.431 396.136 426.652 396.852 426.652 C397.419 426.652 397.887 426.513 398.251 426.238 C398.617 425.961 398.867 425.572 399.002 425.072 L398.146 424.965 C398.02 425.316 397.85 425.572 397.634 425.73 M395.854 422.604 C396.114 422.349 396.434 422.222 396.815 422.222 C397.236 422.222 397.578 422.381 397.842 422.7 C398.014 422.906 398.118 423.214 398.155 423.626 L395.424 423.626 C395.451 423.199 395.595 422.859 395.854 422.604"/>
<path style="stroke-width:0.943; clip-path:url(#clipPath1); stroke-linejoin:round; stroke-linecap:round; stroke:none;" d="M400.494 426.54 L401.778 424.612 L403.051 426.54 L404.068 426.54 L402.249 423.953 L403.939 421.65 L402.949 421.65 L402.125 422.806 C402.012 422.962 401.887 423.142 401.751 423.345 C401.666 423.199 401.551 423.015 401.412 422.797 L400.66 421.65 L399.624 421.65 L401.278 423.999 L399.49 426.54 L400.494 426.54"/>
<path style="stroke-width:0.943; clip-path:url(#clipPath1); stroke-linejoin:round; stroke-linecap:round; stroke:none;" d="M405.593 419.79 L404.764 419.79 L404.764 420.743 L405.593 420.743 L405.593 419.79 M405.593 421.65 L404.764 421.65 L404.764 426.542 L405.593 426.542 L405.593 421.65"/>
<path style="stroke-width:0.943; clip-path:url(#clipPath1); stroke-linejoin:round; stroke-linecap:round; stroke:none;" d="M409.631 425.671 C409.413 425.87 409.143 425.969 408.816 425.969 C408.41 425.969 408.083 425.822 407.83 425.523 C407.579 425.225 407.452 424.748 407.452 424.091 C407.452 423.443 407.584 422.969 407.844 422.669 C408.106 422.37 408.444 422.222 408.862 422.222 C409.14 422.222 409.374 422.304 409.57 422.469 C409.765 422.636 409.9 422.882 409.977 423.212 L410.784 423.087 C410.687 422.593 410.472 422.211 410.133 421.943 C409.795 421.675 409.361 421.54 408.83 421.54 C408.408 421.54 408.02 421.638 407.663 421.836 C407.305 422.034 407.038 422.331 406.863 422.728 C406.689 423.124 406.601 423.586 406.601 424.115 C406.601 424.931 406.804 425.558 407.212 425.995 C407.617 426.433 408.156 426.652 408.826 426.652 C409.361 426.652 409.812 426.493 410.178 426.175 C410.545 425.859 410.772 425.416 410.861 424.856 L410.046 424.749 C409.988 425.164 409.85 425.471 409.631 425.671"/>
<path style="stroke-width:0.943; clip-path:url(#clipPath1); stroke-linejoin:round; stroke-linecap:round; stroke:none;" d="M411.896 425.993 C412.318 426.433 412.87 426.652 413.555 426.652 C413.983 426.652 414.375 426.552 414.737 426.353 C415.097 426.154 415.371 425.872 415.561 425.513 C415.749 425.15 415.845 424.656 415.845 424.027 C415.845 423.25 415.632 422.642 415.204 422.2 C414.777 421.759 414.228 421.54 413.555 421.54 C412.95 421.54 412.438 421.72 412.017 422.083 C411.513 422.519 411.263 423.191 411.263 424.095 C411.263 424.921 411.473 425.555 411.896 425.993 M412.524 422.691 C412.798 422.38 413.142 422.226 413.555 422.226 C413.963 422.226 414.305 422.381 414.581 422.693 C414.855 423.005 414.993 423.464 414.993 424.068 C414.993 424.709 414.856 425.187 414.581 425.5 C414.309 425.814 413.967 425.97 413.555 425.97 C413.142 425.97 412.798 425.814 412.524 425.502 C412.25 425.192 412.113 424.722 412.113 424.095 C412.113 423.47 412.25 423.001 412.524 422.691"/>
<path style="stroke-width:0.943; clip-path:url(#clipPath1); stroke-linejoin:round; stroke-linecap:round; stroke:none;" d="M418.519 426.499 C418.835 425.726 418.994 424.925 418.994 424.095 C418.994 423.365 418.876 422.664 418.639 421.995 C418.363 421.219 417.937 420.445 417.36 419.675 L416.765 419.675 C417.14 420.32 417.387 420.781 417.507 421.056 C417.694 421.48 417.839 421.921 417.944 422.382 C418.077 422.95 418.142 423.523 418.142 424.1 C418.142 425.577 417.683 427.052 416.765 428.525 L417.36 428.525 C417.814 427.949 418.2 427.274 418.519 426.499"/>
</g>
</g>
</svg>

