<?xml version="1.0" encoding="UTF-8"?>
<svg xmlns="http://www.w3.org/2000/svg">
  <g transform="matrix(1.0,0., 0.,1.0,0.0,20.0)">
    <g transform="matrix(3.3894475843303042,0., 0.,3.3894475843303042,0.0,0.0)">
      <path style="stroke:black; stroke-width:0.2; fill:none;" d="M3.636 5.002 L4.503 5.002 C4.398 4.813 4.329 4.618 4.294 4.415 C4.259 4.21 4.241 3.723 4.241 2.953 L4.241 1.847 C4.241 1.479 4.226 1.225 4.2 1.083 C4.151 0.855 4.063 0.667 3.942 0.519 C3.819 0.369 3.627 0.247 3.365 0.148 C3.105 0.049 2.765 0.0 2.348 0.0 C1.928 0.0 1.557 0.058 1.239 0.173 C0.919 0.287 0.675 0.453 0.507 0.665 C0.338 0.878 0.215 1.16 0.141 1.506 L0.952 1.617 C1.042 1.269 1.178 1.028 1.364 0.891 C1.55 0.755 1.837 0.687 2.227 0.687 C2.644 0.687 2.961 0.781 3.173 0.967 C3.329 1.105 3.407 1.342 3.407 1.682 C3.407 1.712 3.405 1.785 3.402 1.898 C3.087 2.007 2.592 2.104 1.925 2.183 C1.595 2.222 1.349 2.265 1.187 2.308 C0.966 2.369 0.766 2.459 0.591 2.579 C0.414 2.7 0.271 2.859 0.164 3.057 C0.053 3.255 0.0 3.472 0.0 3.712 C0.0 4.122 0.143 4.455 0.433 4.718 C0.721 4.981 1.134 5.113 1.671 5.113 C1.997 5.113 2.302 5.058 2.586 4.95 C2.871 4.843 3.165 4.66 3.471 4.398 C3.496 4.628 3.552 4.83 3.636 5.002 M3.402 2.851 C3.402 3.217 3.358 3.493 3.268 3.68 C3.152 3.923 2.97 4.114 2.721 4.253 C2.473 4.394 2.188 4.463 1.869 4.463 C1.547 4.463 1.302 4.39 1.135 4.242 C0.966 4.095 0.884 3.911 0.884 3.688 C0.884 3.544 0.923 3.414 0.998 3.295 C1.075 3.178 1.184 3.087 1.325 3.026 C1.467 2.964 1.708 2.91 2.048 2.86 C2.649 2.773 3.102 2.67 3.402 2.546 L3.402 2.851 "/>
    </g>
    <text style=" stroke : none; font-size : 7.654321;" x="0.0" y="37.5" font-size="10">a</text>
  </g>
  <g transform="matrix(1.0,0., 0.,1.0,40.0,20.0)">
    <g transform="matrix(3.3894475843303042,0., 0.,3.3894475843303042,0.0,0.0)">
      <path style="stroke:black; stroke-width:0.2; fill:none;" d="M1.003 4.89 L2.288 2.96 L2.558 3.371 L3.561 4.89 L4.578 4.89 L2.759 2.302 L4.449 0.0 L3.459 0.0 L2.635 1.156 C2.522 1.311 2.397 1.49 2.261 1.694 C2.175 1.546 2.061 1.364 1.921 1.145 L1.17 0.0 L0.134 0.0 L1.788 2.348 L0.0 4.89 L1.003 4.89 "/>
    </g>
    <text style=" stroke : none; font-size : 7.654321;" x="0.0" y="37.5" font-size="10">x</text>
  </g>
  <g transform="matrix(1.0,0., 0.,1.0,80.0,20.0)">
    <g transform="matrix(3.3894475843303042,0., 0.,3.3894475843303042,0.0,0.0)">
      <path style="stroke:black; stroke-width:0.2; fill:none;" d="M0.372 5.911 C0.605 6.269 0.929 6.537 1.343 6.714 C1.756 6.894 2.268 6.981 2.878 6.981 C3.36 6.981 3.795 6.895 4.179 6.717 C4.565 6.54 4.86 6.292 5.066 5.975 C5.27 5.657 5.373 5.321 5.373 4.96 C5.373 4.598 5.282 4.278 5.093 4.0 C4.907 3.722 4.617 3.492 4.225 3.312 C3.953 3.188 3.455 3.045 2.729 2.881 C2.003 2.717 1.554 2.555 1.382 2.399 C1.208 2.243 1.118 2.042 1.118 1.8 C1.118 1.522 1.243 1.283 1.489 1.085 C1.738 0.887 2.131 0.787 2.67 0.787 C3.19 0.787 3.583 0.895 3.847 1.115 C4.114 1.333 4.269 1.654 4.315 2.081 L5.171 2.018 C5.157 1.621 5.048 1.266 4.841 0.954 C4.635 0.641 4.341 0.404 3.959 0.24 C3.575 0.08 3.134 0.0 2.634 0.0 C2.179 0.0 1.765 0.076 1.394 0.23 C1.024 0.384 0.742 0.609 0.549 0.904 C0.355 1.201 0.257 1.52 0.257 1.861 C0.257 2.17 0.338 2.451 0.494 2.701 C0.653 2.951 0.893 3.161 1.216 3.33 C1.466 3.462 1.899 3.602 2.519 3.752 C3.139 3.9 3.54 4.009 3.721 4.08 C4.005 4.188 4.207 4.321 4.329 4.477 C4.453 4.637 4.513 4.822 4.513 5.033 C4.513 5.243 4.45 5.434 4.321 5.611 C4.195 5.789 4.001 5.928 3.739 6.029 C3.479 6.13 3.178 6.18 2.838 6.18 C2.455 6.18 2.109 6.115 1.8 5.98 C1.493 5.847 1.268 5.671 1.122 5.456 C0.975 5.239 0.884 4.96 0.843 4.624 L0.0 4.697 C0.013 5.149 0.136 5.554 0.372 5.911 "/>
    </g>
    <text style=" stroke : none; font-size : 7.654321;" x="0.0" y="37.5" font-size="10">S</text>
  </g>
  <g transform="matrix(1.0,0., 0.,1.0,120.0,20.0)">
    <g transform="matrix(3.3894475843303042,0., 0.,3.3894475843303042,0.0,0.0)">
      <path style="stroke:black; stroke-width:0.2; fill:none;" d="M3.111 4.191 C2.897 4.35 2.638 4.429 2.333 4.429 C1.924 4.429 1.584 4.287 1.311 4.002 C1.037 3.716 0.885 3.304 0.855 2.766 L4.505 2.766 C4.506 2.669 4.506 2.595 4.506 2.546 C4.506 1.739 4.299 1.113 3.885 0.667 C3.471 0.222 2.937 0.0 2.282 0.0 C1.608 0.0 1.057 0.226 0.635 0.68 C0.212 1.136 0.0 1.773 0.0 2.597 C0.0 3.391 0.208 4.011 0.628 4.45 C1.046 4.89 1.613 5.111 2.329 5.111 C2.897 5.111 3.364 4.972 3.729 4.696 C4.095 4.42 4.345 4.032 4.48 3.532 L3.623 3.424 C3.497 3.776 3.328 4.029 3.111 4.191 M1.332 1.063 C1.592 0.808 1.911 0.68 2.292 0.68 C2.713 0.68 3.055 0.841 3.32 1.16 C3.492 1.365 3.596 1.674 3.632 2.085 L0.902 2.085 C0.928 1.658 1.072 1.317 1.332 1.063 "/>
    </g>
    <text style=" stroke : none; font-size : 7.654321;" x="0.0" y="37.5" font-size="10">e</text>
  </g>
  <g transform="matrix(1.0,0., 0.,1.0,160.0,20.0)">
    <g transform="matrix(3.3894475843303042,0., 0.,3.3894475843303042,0.0,0.0)">
      <path style="stroke:black; stroke-width:0.2; fill:none;" d="M1.003 4.89 L2.288 2.962 L3.561 4.89 L4.578 4.89 L2.759 2.303 L4.449 0.0 L3.459 0.0 L2.635 1.156 C2.522 1.312 2.397 1.492 2.261 1.695 C2.175 1.549 2.061 1.365 1.921 1.147 L1.17 0.0 L0.134 0.0 L1.788 2.348 L0.0 4.89 L1.003 4.89 "/>
    </g>
    <text style=" stroke : none; font-size : 7.654321;" x="0.0" y="37.5" font-size="10">x</text>
  </g>
  <g transform="matrix(1.0,0., 0.,1.0,200.0,20.0)">
    <g transform="matrix(3.3894475843303042,0., 0.,3.3894475843303042,0.0,0.0)">
      <path style="stroke:black; stroke-width:0.2; fill:none;" d="M1.753 6.824 C2.071 6.051 2.23 5.25 2.23 4.421 C2.23 3.689 2.111 2.99 1.874 2.321 C1.598 1.544 1.171 0.771 0.594 0.0 L0.0 0.0 C0.375 0.644 0.621 1.105 0.743 1.382 C0.93 1.805 1.074 2.246 1.179 2.708 C1.312 3.275 1.377 3.848 1.377 4.426 C1.377 5.903 0.917 7.377 0.0 8.85 L0.594 8.85 C1.049 8.274 1.436 7.598 1.753 6.824 "/>
    </g>
    <text style=" stroke : none; font-size : 7.654321;" x="0.0" y="37.5" font-size="10">)</text>
  </g>
  <g transform="matrix(1.0,0., 0.,1.0,240.0,20.0)">
    <g transform="matrix(3.3894475843303042,0., 0.,3.3894475843303042,0.0,0.0)">
      <path style="stroke:black; stroke-width:0.2; fill:none;" d="M0.632 4.454 C1.053 4.893 1.609 5.111 2.292 5.111 C2.72 5.111 3.114 5.011 3.475 4.812 C3.834 4.613 4.109 4.333 4.299 3.972 C4.486 3.61 4.582 3.115 4.582 2.486 C4.582 1.71 4.368 1.101 3.941 0.66 C3.515 0.22 2.963 0.0 2.292 0.0 C1.687 0.0 1.174 0.18 0.753 0.542 C0.251 0.979 0.0 1.649 0.0 2.555 C0.0 3.382 0.209 4.014 0.632 4.454 M1.263 1.152 C1.535 0.841 1.877 0.686 2.292 0.686 C2.7 0.686 3.041 0.841 3.317 1.153 C3.592 1.466 3.73 1.923 3.73 2.528 C3.73 3.169 3.592 3.648 3.32 3.962 C3.045 4.273 2.704 4.43 2.292 4.43 C1.877 4.43 1.535 4.273 1.263 3.962 C0.988 3.652 0.851 3.182 0.851 2.555 C0.851 1.929 0.988 1.462 1.263 1.152 "/>
    </g>
    <text style=" stroke : none; font-size : 7.654321;" x="0.0" y="37.5" font-size="10">o</text>
  </g>
  <g transform="matrix(1.0,0., 0.,1.0,280.0,20.0)">
    <g transform="matrix(3.3894475843303042,0., 0.,3.3894475843303042,0.0,0.0)">
      <path style="stroke:black; stroke-width:0.2; fill:none;" d="M0.0 6.751 L0.829 6.751 L0.829 0.0 L0.0 0.0 L0.0 6.751 "/>
    </g>
    <text style=" stroke : none; font-size : 7.654321;" x="0.0" y="37.5" font-size="10">l</text>
  </g>
  <g transform="matrix(1.0,0., 0.,1.0,320.0,20.0)">
    <g transform="matrix(3.3894475843303042,0., 0.,3.3894475843303042,0.0,0.0)">
      <path style="stroke:black; stroke-width:0.2; fill:none;" d="M4.369 5.785 C4.024 6.072 3.601 6.217 3.1 6.217 C2.688 6.217 2.305 6.111 1.954 5.899 C1.6 5.687 1.339 5.368 1.171 4.94 C1.006 4.511 0.921 4.01 0.921 3.436 C0.921 2.992 0.99 2.559 1.132 2.139 C1.274 1.72 1.52 1.386 1.868 1.138 C2.217 0.889 2.649 0.765 3.17 0.765 C3.619 0.765 3.994 0.877 4.291 1.1 C4.591 1.325 4.819 1.683 4.975 2.174 L5.852 1.966 C5.671 1.343 5.352 0.86 4.893 0.516 C4.429 0.173 3.864 0.0 3.187 0.0 C2.592 0.0 2.046 0.136 1.55 0.407 C1.054 0.679 0.671 1.078 0.403 1.6 C0.135 2.125 0.0 2.738 0.0 3.44 C0.0 4.084 0.119 4.688 0.358 5.251 C0.596 5.811 0.942 6.242 1.399 6.537 C1.854 6.834 2.446 6.983 3.173 6.983 C3.877 6.983 4.472 6.789 4.958 6.404 C5.445 6.018 5.781 5.459 5.968 4.725 L5.076 4.5 C4.951 5.067 4.718 5.496 4.369 5.785 "/>
    </g>
    <text style=" stroke : none; font-size : 7.654321;" x="0.0" y="37.5" font-size="10">C</text>
  </g>
  <g transform="matrix(1.0,0., 0.,1.0,360.0,20.0)">
    <g transform="matrix(3.3894475843303042,0., 0.,3.3894475843303042,0.0,0.0)">
      <path style="stroke:black; stroke-width:0.2; fill:none;" d="M0.95 6.751 L1.691 4.707 L4.514 4.707 L5.3 6.751 L6.319 6.751 L3.557 0.0 L2.593 0.0 L0.0 6.751 L0.95 6.751 ZM2.692 1.998 C2.847 1.571 2.968 1.141 3.053 0.708 C3.158 1.074 3.317 1.541 3.533 2.108 L4.236 3.979 L1.95 3.979 L2.692 1.998 "/>
    </g>
    <text style=" stroke : none; font-size : 7.654321;" x="0.0" y="37.5" font-size="10">A</text>
  </g>
  <g transform="matrix(1.0,0., 0.,1.0,400.0,20.0)">
    <g transform="matrix(3.3894475843303042,0., 0.,3.3894475843303042,0.0,0.0)">
      <path style="stroke:black; stroke-width:0.2; fill:none;" d="M3.118 6.752 L3.118 0.798 L5.352 0.798 L5.352 0.0 L0.0 0.0 L0.0 0.798 L2.226 0.798 L2.226 6.752 L3.118 6.752 "/>
    </g>
    <text style=" stroke : none; font-size : 7.654321;" x="0.0" y="37.5" font-size="10">T</text>
  </g>
  <g transform="matrix(1.0,0., 0.,1.0,440.0,20.0)">
    <g transform="matrix(3.3894475843303042,0., 0.,3.3894475843303042,0.0,0.0)">
      <path style="stroke:black; stroke-width:0.2; fill:none;" d="M0.828 5.002 L0.828 2.33 C0.828 1.704 0.957 1.278 1.213 1.054 C1.47 0.832 1.774 0.718 2.127 0.718 C2.348 0.718 2.541 0.769 2.705 0.868 C2.869 0.968 2.983 1.101 3.048 1.269 C3.112 1.437 3.145 1.688 3.145 2.027 L3.145 5.002 L3.974 5.002 L3.974 1.994 C3.974 1.61 3.958 1.342 3.928 1.188 C3.878 0.953 3.793 0.747 3.67 0.576 C3.546 0.403 3.361 0.265 3.114 0.16 C2.868 0.053 2.597 0.0 2.302 0.0 C1.623 0.0 1.104 0.269 0.746 0.807 L0.746 0.11 L0.0 0.11 L0.0 5.002 L0.828 5.002 "/>
    </g>
    <text style=" stroke : none; font-size : 7.654321;" x="0.0" y="37.5" font-size="10">n</text>
  </g>
  <g transform="matrix(1.0,0., 0.,1.0,480.0,20.0)">
    <g transform="matrix(3.3894475843303042,0., 0.,3.3894475843303042,0.0,0.0)">
      <path style="stroke:black; stroke-width:0.2; fill:none;" d="M0.767 6.139 C1.097 6.621 1.549 6.863 2.127 6.863 C2.708 6.863 3.204 6.632 3.619 6.175 C4.033 5.717 4.241 5.07 4.241 4.233 C4.241 3.878 4.191 3.548 4.093 3.238 C3.994 2.927 3.859 2.661 3.686 2.444 C3.512 2.223 3.292 2.053 3.022 1.932 C2.753 1.811 2.469 1.751 2.167 1.751 C1.625 1.751 1.178 1.968 0.828 2.407 L0.828 0.0 L0.0 0.0 L0.0 6.751 L0.767 6.751 L0.767 6.139 ZM1.154 2.903 C1.419 2.588 1.732 2.43 2.094 2.43 C2.455 2.43 2.76 2.583 3.011 2.886 C3.267 3.191 3.392 3.662 3.392 4.3 C3.392 4.924 3.261 5.393 2.997 5.708 C2.732 6.023 2.42 6.179 2.057 6.179 C1.613 6.179 1.26 5.966 0.999 5.54 C0.838 5.279 0.758 4.854 0.758 4.269 C0.758 3.673 0.891 3.217 1.154 2.903 "/>
    </g>
    <text style=" stroke : none; font-size : 7.654321;" x="0.0" y="37.5" font-size="10">b</text>
  </g>
  <g transform="matrix(1.0,0., 0.,1.0,20.0,95.0)">
    <g transform="matrix(3.3894475843303042,0., 0.,3.3894475843303042,0.0,0.0)">
      <path style="stroke:black; stroke-width:0.2; fill:none;" d="M0.638 4.716 C0.97 4.979 1.455 5.111 2.091 5.111 C2.473 5.111 2.819 5.045 3.121 4.911 C3.427 4.778 3.658 4.589 3.82 4.345 C3.981 4.101 4.062 3.841 4.062 3.563 C4.062 3.282 3.994 3.045 3.863 2.854 C3.731 2.665 3.55 2.52 3.319 2.42 C3.085 2.319 2.677 2.191 2.091 2.035 C1.684 1.924 1.442 1.853 1.358 1.824 C1.213 1.765 1.108 1.691 1.04 1.602 C0.972 1.516 0.938 1.419 0.938 1.312 C0.938 1.144 1.02 0.996 1.184 0.871 C1.345 0.744 1.618 0.682 1.998 0.682 C2.32 0.682 2.57 0.751 2.744 0.893 C2.923 1.033 3.031 1.23 3.067 1.483 L3.877 1.372 C3.826 1.056 3.73 0.804 3.592 0.614 C3.454 0.425 3.24 0.276 2.949 0.165 C2.66 0.056 2.321 0.0 1.938 0.0 C1.683 0.0 1.445 0.033 1.222 0.099 C0.998 0.164 0.825 0.246 0.695 0.341 C0.523 0.463 0.386 0.617 0.287 0.804 C0.188 0.989 0.136 1.19 0.136 1.41 C0.136 1.648 0.197 1.867 0.32 2.065 C0.442 2.263 0.618 2.418 0.855 2.53 C1.089 2.642 1.51 2.776 2.117 2.928 C2.569 3.042 2.852 3.136 2.964 3.209 C3.128 3.317 3.21 3.464 3.21 3.651 C3.21 3.859 3.115 4.042 2.933 4.198 C2.748 4.353 2.466 4.43 2.085 4.43 C1.707 4.43 1.415 4.342 1.204 4.167 C0.994 3.993 0.865 3.741 0.82 3.412 L0.0 3.541 C0.091 4.061 0.304 4.451 0.638 4.716 "/>
    </g>
    <text style=" stroke : none; font-size : 7.654321;" x="0.0" y="37.5" font-size="10">s</text>
  </g>
  <g transform="matrix(1.0,0., 0.,1.0,60.0,95.0)">
    <g transform="matrix(3.3894475843303042,0., 0.,3.3894475843303042,0.0,0.0)">
      <path style="stroke:black; stroke-width:0.2; fill:none;" d="M0.828 5.002 L0.828 2.441 C0.828 2.092 0.875 1.769 0.967 1.473 C1.028 1.281 1.132 1.128 1.276 1.02 C1.42 0.911 1.583 0.856 1.764 0.856 C1.967 0.856 2.169 0.916 2.372 1.036 L2.657 0.266 C2.367 0.089 2.084 0.0 1.805 0.0 C1.611 0.0 1.435 0.055 1.273 0.165 C1.111 0.277 0.936 0.505 0.746 0.852 L0.746 0.11 L0.0 0.11 L0.0 5.002 L0.828 5.002 "/>
    </g>
    <text style=" stroke : none; font-size : 7.654321;" x="0.0" y="37.5" font-size="10">r</text>
  </g>
  <g transform="matrix(1.0,0., 0.,1.0,100.0,95.0)">
    <g transform="matrix(3.3894475843303042,0., 0.,3.3894475843303042,0.0,0.0)">
      <path style="stroke:black; stroke-width:0.2; fill:none;" d="M4.242 6.752 L4.242 0.0 L3.417 0.0 L3.417 2.423 C3.274 2.223 3.087 2.062 2.856 1.937 C2.625 1.812 2.363 1.75 2.069 1.75 C1.666 1.75 1.303 1.856 0.976 2.067 C0.651 2.281 0.407 2.584 0.246 2.981 C0.082 3.381 0.0 3.824 0.0 4.311 C0.0 4.812 0.092 5.253 0.27 5.64 C0.45 6.024 0.704 6.325 1.031 6.54 C1.356 6.755 1.716 6.863 2.106 6.863 C2.707 6.863 3.164 6.619 3.475 6.135 L3.475 6.752 L4.242 6.752 ZM1.223 2.888 C1.472 2.587 1.778 2.437 2.147 2.437 C2.524 2.437 2.842 2.593 3.101 2.907 C3.356 3.22 3.486 3.71 3.486 4.38 C3.486 4.988 3.36 5.44 3.106 5.736 C2.855 6.032 2.545 6.182 2.183 6.182 C1.825 6.182 1.514 6.026 1.248 5.716 C0.984 5.407 0.854 4.937 0.854 4.311 C0.854 3.662 0.976 3.188 1.223 2.888 "/>
    </g>
    <text style=" stroke : none; font-size : 7.654321;" x="0.0" y="37.5" font-size="10">d</text>
  </g>
  <g transform="matrix(1.0,0., 0.,1.0,140.0,95.0)">
    <g transform="matrix(3.3894475843303042,0., 0.,3.3894475843303042,0.0,0.0)">
      <path style="stroke:black; stroke-width:0.2; fill:none;" d="M0.828 0.0 L0.0 0.0 L0.0 0.954 L0.828 0.954 L0.828 0.0 M0.828 1.861 L0.0 1.861 L0.0 6.752 L0.828 6.752 L0.828 1.861 "/>
    </g>
    <text style=" stroke : none; font-size : 7.654321;" x="0.0" y="37.5" font-size="10">i</text>
  </g>
  <g transform="matrix(1.0,0., 0.,1.0,180.0,95.0)">
    <g transform="matrix(3.3894475843303042,0., 0.,3.3894475843303042,0.0,0.0)">
      <path style="stroke:black; stroke-width:0.2; fill:none;" d="M0.859 6.752 L0.859 1.003 L2.813 6.752 L3.619 6.752 L5.58 1.102 L5.58 6.752 L6.441 6.752 L6.441 0.0 L5.241 0.0 L3.625 4.697 C3.46 5.174 3.341 5.535 3.264 5.781 C3.196 5.559 3.089 5.227 2.941 4.779 L1.343 0.0 L0.0 0.0 L0.0 6.752 L0.859 6.752 "/>
    </g>
    <text style=" stroke : none; font-size : 7.654321;" x="0.0" y="37.5" font-size="10">M</text>
  </g>
  <g transform="matrix(1.0,0., 0.,1.0,220.0,95.0)">
    <g transform="matrix(3.3894475843303042,0., 0.,3.3894475843303042,0.0,0.0)">
      <path style="stroke:black; stroke-width:0.2; fill:none;" d="M0.828 5.001 L0.828 2.464 C0.828 2.018 0.873 1.677 0.963 1.441 C1.052 1.205 1.194 1.026 1.394 0.902 C1.591 0.779 1.807 0.718 2.04 0.718 C2.347 0.718 2.568 0.811 2.703 0.994 C2.837 1.178 2.904 1.454 2.904 1.824 L2.904 5.001 L3.734 5.001 L3.734 2.16 C3.734 1.656 3.848 1.29 4.075 1.061 C4.303 0.833 4.588 0.718 4.933 0.718 C5.121 0.718 5.288 0.761 5.43 0.852 C5.57 0.941 5.667 1.058 5.723 1.204 C5.775 1.35 5.803 1.588 5.803 1.919 L5.803 5.001 L6.627 5.001 L6.627 1.643 C6.627 1.085 6.495 0.67 6.235 0.402 C5.975 0.134 5.601 0.0 5.115 0.0 C4.496 0.0 3.993 0.285 3.605 0.855 C3.51 0.587 3.346 0.376 3.114 0.225 C2.882 0.074 2.587 0.0 2.225 0.0 C1.897 0.0 1.609 0.072 1.355 0.217 C1.098 0.363 0.895 0.557 0.742 0.796 L0.742 0.11 L0.0 0.11 L0.0 5.001 L0.828 5.001 "/>
    </g>
    <text style=" stroke : none; font-size : 7.654321;" x="0.0" y="37.5" font-size="10">m</text>
  </g>
  <g transform="matrix(1.0,0., 0.,1.0,260.0,95.0)">
    <g transform="matrix(3.3894475843303042,0., 0.,3.3894475843303042,0.0,0.0)">
      <path style="stroke:black; stroke-width:0.2; fill:none;" d="M2.227 8.851 C1.311 7.377 0.851 5.902 0.851 4.427 C0.851 3.845 0.916 3.268 1.049 2.694 C1.154 2.233 1.303 1.792 1.492 1.367 C1.61 1.095 1.856 0.638 2.227 0.0 L1.632 0.0 C1.055 0.77 0.63 1.544 0.354 2.32 C0.117 2.99 0.0 3.69 0.0 4.421 C0.0 5.25 0.156 6.052 0.473 6.825 C0.79 7.599 1.177 8.274 1.632 8.851 L2.227 8.851 "/>
    </g>
    <text style=" stroke : none; font-size : 7.654321;" x="0.0" y="37.5" font-size="10">(</text>
  </g>
  <g transform="matrix(1.0,0., 0.,1.0,300.0,95.0)">
    <g transform="matrix(3.3894475843303042,0., 0.,3.3894475843303042,0.0,0.0)">
      <path style="stroke:black; stroke-width:0.2; fill:none;" d="M3.029 4.131 C2.811 4.329 2.541 4.429 2.214 4.429 C1.808 4.429 1.481 4.281 1.228 3.984 C0.977 3.684 0.85 3.208 0.85 2.55 C0.85 1.903 0.983 1.429 1.242 1.13 C1.504 0.83 1.842 0.682 2.26 0.682 C2.539 0.682 2.772 0.765 2.968 0.929 C3.164 1.095 3.298 1.342 3.375 1.671 L4.182 1.548 C4.085 1.053 3.87 0.67 3.531 0.403 C3.194 0.134 2.759 0.0 2.228 0.0 C1.806 0.0 1.418 0.098 1.061 0.295 C0.703 0.494 0.436 0.791 0.261 1.187 C0.087 1.584 0.0 2.046 0.0 2.575 C0.0 3.39 0.202 4.018 0.61 4.454 C1.015 4.893 1.554 5.111 2.224 5.111 C2.759 5.111 3.21 4.953 3.576 4.635 C3.944 4.317 4.17 3.877 4.259 3.316 L3.444 3.209 C3.386 3.623 3.248 3.93 3.029 4.131 "/>
    </g>
    <text style=" stroke : none; font-size : 7.654321;" x="0.0" y="37.5" font-size="10">c</text>
  </g>
</svg>
