<?xml version="1.0" encoding="UTF-8"?>
<svg 
xmlns:xlink="http://www.w3.org/1999/xlink" 
style="fill-opacity:1; color-rendering:auto; color-interpolation:auto; stroke:black; text-rendering:auto; stroke-linecap:square; stroke-miterlimit:10; stroke-opacity:1; shape-rendering:auto; fill:black; stroke-dasharray:none; font-weight:normal; stroke-width:1; font-family:&apos;Dialog&apos;; font-style:normal; stroke-linejoin:miter; font-size:12; stroke-dashoffset:0; image-rendering:auto;" xmlns="http://www.w3.org/2000/svg">
<!--Generated by the Batik Graphics2D SVG Generator-->

<g transform="matrix(1,0,0,1,0,-100)">
<path style="fill:none; stroke-width:0.943;  stroke-linejoin:round; stroke-liecap:round;" d="M109.963 384.751 L101.209 384.751"/>
<path style="fill:none; stroke-width:0.943;  stroke-linejoin:round; stroke-linecap:round;" d="M187.356 228.906 L110.25 228.906 L110.25 543.931 L129.349 543.931"/>
<path style="fill:none; stroke-width:0.943;  stroke-linejoin:round; stroke-linecap:round;" d="M207.163 204.383 L187.356 204.383 L187.356 254.372 L284.27 254.372"/>
<path style="fill:none; stroke-width:0.943;  stroke-linejoin:round; stroke-linecap:round;" d="M226.263 178.916 L207.163 178.916 L207.163 229.849 L303.369 229.849"/>
<path style="fill:none; stroke-width:0.943;  stroke-linejoin:round; stroke-linecap:round;" d="M245.363 155.336 L226.263 155.336 L226.263 201.552 L265.17 201.552"/>
<path style="fill:none; stroke-width:0.943;  stroke-linejoin:round; stroke-linecap:round;" d="M265.17 144.961 L245.363 144.961 L245.363 166.654 L303.369 166.654"/>
<path style="fill:none; stroke-width:0.943;  stroke-linejoin:round; stroke-linecap:round;" d="M284.27 137.415 L265.17 137.415 L265.17 152.506 L322.47 152.506"/>
<path style="fill:none; stroke-width:0.943;  stroke-linejoin:round; stroke-linecap:round;" d="M303.369 130.812 L284.27 130.812 L284.27 144.017 L322.47 144.017"/>
<path style="fill:none; stroke-width:0.943;  stroke-linejoin:round; stroke-linecap:round;" d="M322.47 126.0959 L303.369 126.0959 L303.369 134.5849 L322.47 134.5849"/>
<path style="fill:none; stroke-width:0.943;  stroke-linejoin:round; stroke-linecap:round;" d="M322.47 161.9379 L303.369 161.9379 L303.369 171.3699 L322.47 171.3699"/>
<path style="fill:none; stroke-width:0.943;  stroke-linejoin:round; stroke-linecap:round;" d="M284.27 191.1769 L265.17 191.1769 L265.17 211.9269 L303.369 211.9269"/>
<path style="fill:none; stroke-width:0.943;  stroke-linejoin:round; stroke-linecap:round;" d="M303.369 184.575 L284.27 184.575 L284.27 197.7789 L322.47 197.7789"/>
<path style="fill:none; stroke-width:0.943;  stroke-linejoin:round; stroke-linecap:round;" d="M322.47 179.858 L303.369 179.858 L303.369 189.29 L322.47 189.29"/>
<path style="fill:none; stroke-width:0.943;  stroke-linejoin:round; stroke-linecap:round;" d="M322.47 207.211 L303.369 207.211 L303.369 215.7 L322.47 215.7"/>
<path style="fill:none; stroke-width:0.943;  stroke-linejoin:round; stroke-linecap:round;" d="M322.47 225.132 L303.369 225.132 L303.369 233.621 L322.47 233.621"/>
<path style="fill:none; stroke-width:0.943;  stroke-linejoin:round; stroke-linecap:round;" d="M303.369 247.768 L284.27 247.768 L284.27 260.973 L322.47 260.973"/>
<path style="fill:none; stroke-width:0.943;  stroke-linejoin:round; stroke-linecap:round;" d="M322.47 243.053 L303.369 243.053 L303.369 251.542 L322.47 251.542"/>
<path style="fill:none; stroke-width:0.943;  stroke-linejoin:round; stroke-linecap:round;" d="M149.157 459.042 L129.35 459.042 L129.35 628.819 L207.163 628.819"/>
<path style="fill:none; stroke-width:0.943;  stroke-linejoin:round; stroke-linecap:round;" d="M168.257 386.417 L149.157 386.417 L149.157 531.67 L322.47 531.67"/>
<path style="fill:none; stroke-width:0.943;  stroke-linejoin:round; stroke-linecap:round;" d="M245.363 309.075 L168.257 309.075 L168.257 464.703 L187.357 464.703"/>
<path style="fill:none; stroke-width:0.943;  stroke-linejoin:round; stroke-linecap:round;" d="M265.17 291.155 L245.363 291.155 L245.363 326.054 L284.2701 326.054"/>
<path style="fill:none; stroke-width:0.943;  stroke-linejoin:round; stroke-linecap:round;" d="M284.2701 281.723 L265.17 281.723 L265.17 301.53 L303.369 301.53"/>
<path style="fill:none; stroke-width:0.943;  stroke-linejoin:round; stroke-linecap:round;" d="M303.369 274.178 L284.2701 274.178 L284.2701 288.325 L322.4701 288.325"/>
<path style="fill:none; stroke-width:0.943;  stroke-linejoin:round; stroke-linecap:round;" d="M322.4701 270.404 L303.369 270.404 L303.369 278.893 L322.4701 278.893"/>
<path style="fill:none; stroke-width:0.943;  stroke-linejoin:round; stroke-linecap:round;" d="M322.4701 296.814 L303.369 296.814 L303.369 306.246 L322.4701 306.246"/>
<path style="fill:none; stroke-width:0.943;  stroke-linejoin:round; stroke-linecap:round;" d="M303.369 319.451 L284.2701 319.451 L284.2701 332.656 L322.4701 332.656"/>
<path style="fill:none; stroke-width:0.943;  stroke-linejoin:round; stroke-linecap:round;" d="M322.4701 314.735 L303.369 314.735 L303.369 324.167 L322.4701 324.167"/>
<path style="fill:none; stroke-width:0.943;  stroke-linejoin:round; stroke-linecap:round;" d="M207.1641 436.406 L187.3571 436.406 L187.3571 492.053 L245.3641 492.053"/>
<path style="fill:none; stroke-width:0.943;  stroke-linejoin:round; stroke-linecap:round;" d="M226.2641 409.997 L207.1641 409.997 L207.1641 463.758 L303.3701 463.758"/>
<path style="fill:none; stroke-width:0.943;  stroke-linejoin:round; stroke-linecap:round;" d="M245.3641 373.212 L226.2641 373.212 L226.2641 445.838 L303.3701 445.838"/>
<path style="fill:none; stroke-width:0.943;  stroke-linejoin:round; stroke-linecap:round;" d="M284.2711 348.689 L245.3641 348.689 L245.3641 398.678 L265.1711 398.678"/>
<path style="fill:none; stroke-width:0.943;  stroke-linejoin:round; stroke-linecap:round;" d="M322.4711 342.087 L284.2711 342.087 L284.2711 355.291 L303.3701 355.291"/>
<path style="fill:none; stroke-width:0.943;  stroke-linejoin:round; stroke-linecap:round;" d="M322.4711 351.518 L303.3701 351.518 L303.3701 360.007 L322.4711 360.007"/>
<path style="fill:none; stroke-width:0.943;  stroke-linejoin:round; stroke-linecap:round;" d="M284.2711 380.757 L265.1711 380.757 L265.1711 416.599 L284.2711 416.599"/>
<path style="fill:none; stroke-width:0.943;  stroke-linejoin:round; stroke-linecap:round;" d="M303.3701 373.212 L284.2711 373.212 L284.2711 387.36 L322.4711 387.36"/>
<path style="fill:none; stroke-width:0.943;  stroke-linejoin:round; stroke-linecap:round;" d="M322.4711 369.439 L303.3701 369.439 L303.3701 377.928 L322.4711 377.928"/>
<path style="fill:none; stroke-width:0.943;  stroke-linejoin:round; stroke-linecap:round;" d="M303.3701 400.565 L284.2711 400.565 L284.2711 431.69 L322.4711 431.69"/>
<path style="fill:none; stroke-width:0.943;  stroke-linejoin:round; stroke-linecap:round;" d="M322.4711 395.848 L303.3701 395.848 L303.3701 405.281 L322.4711 405.281"/>
<path style="fill:none; stroke-width:0.943;  stroke-linejoin:round; stroke-linecap:round;" d="M303.3701 418.486 L284.2711 418.486"/>
<path style="fill:none; stroke-width:0.943;  stroke-linejoin:round; stroke-linecap:round;" d="M322.4711 413.769 L303.3701 413.769 L303.3701 423.201 L322.4711 423.201"/>
<path style="fill:none; stroke-width:0.943;  stroke-linejoin:round; stroke-linecap:round;" d="M322.4711 441.1209 L303.3701 441.1209 L303.3701 450.5549 L322.4711 450.5549"/>
<path style="fill:none; stroke-width:0.943;  stroke-linejoin:round; stroke-linecap:round;" d="M322.4711 459.041 L303.3701 459.041 L303.3701 468.473 L322.4711 468.473"/>
<path style="fill:none; stroke-width:0.943;  stroke-linejoin:round; stroke-linecap:round;" d="M322.4711 476.963 L245.3641 476.963 L245.3641 507.1469 L265.1711 507.1469"/>
<path style="fill:none; stroke-width:0.943;  stroke-linejoin:round; stroke-linecap:round;" d="M284.2711 497.715 L265.1711 497.715 L265.1711 517.522 L303.3701 517.522"/>
<path style="fill:none; stroke-width:0.943;  stroke-linejoin:round; stroke-linecap:round;" d="M303.3701 491.112 L284.2711 491.112 L284.2711 504.317 L322.4711 504.317"/>
<path style="fill:none; stroke-width:0.943;  stroke-linejoin:round; stroke-linecap:round;" d="M322.4711 486.397 L303.3701 486.397 L303.3701 494.883 L322.4711 494.883"/>
<path style="fill:none; stroke-width:0.943;  stroke-linejoin:round; stroke-linecap:round;" d="M322.4711 512.8049 L303.3701 512.8049 L303.3701 522.2369 L322.4711 522.2369"/>
<path style="fill:none; stroke-width:0.943;  stroke-linejoin:round; stroke-linecap:round;" d="M245.3641 573.17 L207.1641 573.17 L207.1641 684.4659 L226.2641 684.4659"/>
<path style="fill:none; stroke-width:0.943;  stroke-linejoin:round; stroke-linecap:round;" d="M284.2711 546.7599 L245.3641 546.7599 L245.3641 598.637 L265.1711 598.637"/>
<path style="fill:none; stroke-width:0.943;  stroke-linejoin:round; stroke-linecap:round;" d="M322.4711 540.157 L284.2711 540.157 L284.2711 553.3619 L303.3701 553.3619"/>
<path style="fill:none; stroke-width:0.943;  stroke-linejoin:round; stroke-linecap:round;" d="M322.4711 549.59 L303.3701 549.59 L303.3701 558.0779 L322.4711 558.0779"/>
<path style="fill:none; stroke-width:0.943;  stroke-linejoin:round; stroke-linecap:round;" d="M284.2711 580.715 L265.1711 580.715 L265.1711 616.5569 L284.2711 616.5569"/>
<path style="fill:none; stroke-width:0.943;  stroke-linejoin:round; stroke-linecap:round;" d="M303.3701 571.283 L284.2711 571.283 L284.2711 590.147 L303.3701 590.147"/>
<path style="fill:none; stroke-width:0.943;  stroke-linejoin:round; stroke-linecap:round;" d="M322.4711 567.5099 L303.3701 567.5099 L303.3701 575.998 L322.4711 575.998"/>
<path style="fill:none; stroke-width:0.943;  stroke-linejoin:round; stroke-linecap:round;" d="M322.4711 585.4299 L303.3701 585.4299 L303.3701 593.92 L322.4711 593.92"/>
<path style="fill:none; stroke-width:0.943;  stroke-linejoin:round; stroke-linecap:round;" d="M303.3701 608.069 L284.2711 608.069 L284.2711 625.989 L303.3701 625.989"/>
<path style="fill:none; stroke-width:0.943;  stroke-linejoin:round; stroke-linecap:round;" d="M322.4711 603.354 L303.3701 603.354 L303.3701 611.84 L322.4711 611.84"/>
<path style="fill:none; stroke-width:0.943;  stroke-linejoin:round; stroke-linecap:round;" d="M322.4711 621.272 L303.3701 621.272 L303.3701 630.703 L322.4711 630.703"/>
<path style="fill:none; stroke-width:0.943;  stroke-linejoin:round; stroke-linecap:round;" d="M245.3641 670.319 L226.2641 670.319 L226.2641 697.672 L303.3701 697.672"/>
<path style="fill:none; stroke-width:0.943;  stroke-linejoin:round; stroke-linecap:round;" d="M265.1711 656.172 L245.3641 656.172 L245.3641 684.467 L322.4711 684.467"/>
<path style="fill:none; stroke-width:0.943;  stroke-linejoin:round; stroke-linecap:round;" d="M303.3701 643.91 L265.1711 643.91 L265.1711 668.4319 L284.2711 668.4319"/>
<path style="fill:none; stroke-width:0.943;  stroke-linejoin:round; stroke-linecap:round;" d="M322.4712 639.194 L303.3701 639.194 L303.3701 648.627 L322.4712 648.627"/>
<path style="fill:none; stroke-width:0.943;  stroke-linejoin:round; stroke-linecap:round;" d="M303.3701 661.83 L284.2711 661.83 L284.2711 675.035 L322.4712 675.035"/>
<path style="fill:none; stroke-width:0.943;  stroke-linejoin:round; stroke-linecap:round;" d="M322.4712 657.114 L303.3701 657.114 L303.3701 666.547 L322.4712 666.547"/>
<path style="fill:none; stroke-width:0.943;  stroke-linejoin:round; stroke-linecap:round;" d="M322.4712 692.955 L303.3701 692.955 L303.3701 702.387 L322.4712 702.387"/>
</g>
</svg>