<?xml version="1.0" encoding="UTF-8"?>
<!DOCTYPE svg PUBLIC '-//W3C//DTD SVG 1.0//EN'
          'http://www.w3.org/TR/2001/REC-SVG-20010904/DTD/svg10.dtd'>
<svg 
xmlns:xlink="http://www.w3.org/1999/xlink" 
style="fill-opacity:1; color-rendering:auto; color-interpolation:auto; stroke:black; text-rendering:auto; stroke-linecap:square; stroke-miterlimit:10; stroke-opacity:1; shape-rendering:auto; fill:black; stroke-dasharray:none; font-weight:normal; stroke-width:1; font-family:&apos;Dialog&apos;; font-style:normal; stroke-linejoin:miter; font-size:12; stroke-dashoffset:0; image-rendering:auto;" xmlns="http://www.w3.org/2000/svg">
<!--Generated by the Batik Graphics2D SVG Generator--><defs id="genericDefs"/>

  <g transform="matrix(1,0,0,1,0,-100)">

<!-- geography bars (4) -->
<path style="stroke-width:0.943; clip-path:url(#clipPath1); stroke-linejoin:round; stroke-linecap:round; stroke:none;" d="M449.719 117.915 L446.825 117.11 C446.703 117.075 446.556 117.038 446.38 116.998 C446.435 116.986 446.585 116.946 446.825 116.878 L449.719 116.079 L449.719 115.594 L445.922 114.552 L445.922 115.058 L448.361 115.653 C448.673 115.731 448.948 115.794 449.189 115.843 C448.769 115.903 448.321 116.001 447.843 116.138 L445.922 116.682 L445.922 117.288 L448.487 118.011 C448.549 118.028 448.783 118.084 449.189 118.182 C448.931 118.227 448.672 118.28 448.411 118.342 L445.922 118.92 L445.922 119.436 L449.719 118.428 L449.719 117.915"/>
<path style="stroke-width:0.943; clip-path:url(#clipPath1); stroke-linejoin:round; stroke-linecap:round; stroke:none;" d="M449.263 112.644 C449.354 112.765 449.399 112.911 449.399 113.081 C449.399 113.312 449.319 113.503 449.157 113.657 C448.997 113.81 448.766 113.896 448.463 113.913 L448.463 111.862 L448.338 111.859 C447.885 111.859 447.531 111.975 447.282 112.209 C447.031 112.441 446.906 112.742 446.906 113.11 C446.906 113.49 447.034 113.8 447.289 114.038 C447.545 114.275 447.905 114.395 448.367 114.395 C448.814 114.395 449.161 114.277 449.409 114.041 C449.657 113.806 449.782 113.487 449.782 113.084 C449.782 112.765 449.704 112.503 449.549 112.297 C449.394 112.091 449.175 111.95 448.892 111.874 L448.834 112.356 C449.03 112.427 449.174 112.523 449.263 112.644 M447.505 113.645 C447.361 113.499 447.289 113.319 447.289 113.105 C447.289 112.868 447.38 112.676 447.56 112.527 C447.673 112.431 447.847 112.372 448.079 112.351 L448.079 113.887 C447.839 113.871 447.647 113.79 447.505 113.645"/>
<path style="stroke-width:0.943; clip-path:url(#clipPath1); stroke-linejoin:round; stroke-linecap:round; stroke:none;" d="M449.559 111.117 C449.708 110.929 449.782 110.657 449.782 110.299 C449.782 110.084 449.744 109.889 449.669 109.719 C449.594 109.549 449.486 109.417 449.351 109.327 C449.212 109.236 449.067 109.191 448.912 109.191 C448.753 109.191 448.619 109.228 448.512 109.301 C448.405 109.377 448.324 109.479 448.267 109.609 C448.211 109.74 448.14 109.97 448.051 110.299 C447.989 110.528 447.948 110.665 447.933 110.711 L447.807 110.89 L447.644 110.946 C447.55 110.946 447.466 110.902 447.396 110.809 C447.325 110.718 447.289 110.565 447.289 110.351 C447.289 110.17 447.328 110.03 447.407 109.93 C447.488 109.831 447.599 109.771 447.74 109.75 L447.677 109.295 C447.5 109.324 447.358 109.378 447.251 109.455 C447.147 109.532 447.062 109.653 446.999 109.816 C446.937 109.979 446.906 110.169 446.906 110.385 C446.906 110.529 446.925 110.663 446.962 110.788 C446.999 110.913 447.044 111.012 447.098 111.085 C447.167 111.181 447.252 111.258 447.358 111.314 C447.462 111.37 447.576 111.398 447.699 111.398 C447.833 111.398 447.956 111.364 448.068 111.296 C448.179 111.227 448.266 111.127 448.33 110.995 C448.393 110.863 448.467 110.625 448.554 110.284 C448.617 110.03 448.67 109.871 448.712 109.807 C448.773 109.716 448.855 109.67 448.961 109.67 C449.077 109.67 449.181 109.722 449.267 109.825 C449.355 109.929 449.399 110.088 449.399 110.302 C449.399 110.514 449.35 110.68 449.25 110.798 C449.153 110.917 449.011 110.988 448.825 111.014 L448.899 111.475 C449.191 111.423 449.41 111.304 449.559 111.117"/>
<path style="stroke-width:0.943; clip-path:url(#clipPath1); stroke-linejoin:round; stroke-linecap:round; stroke:none;" d="M449.32 107.823 L449.286 107.982 L449.195 108.062 C449.158 108.078 449.072 108.086 448.941 108.086 L447.331 108.086 L447.331 107.617 L446.968 107.617 L446.968 108.086 L446.006 108.086 L446.287 108.551 L446.968 108.551 L446.968 108.892 L447.331 108.892 L447.331 108.551 L448.915 108.551 C449.194 108.551 449.377 108.532 449.464 108.493 C449.552 108.455 449.622 108.39 449.675 108.297 C449.73 108.204 449.755 108.072 449.755 107.903 C449.755 107.799 449.742 107.682 449.714 107.55 L449.302 107.617 L449.32 107.823"/>
<path style="stroke-width:0.943; clip-path:url(#clipPath1); stroke-linejoin:round; stroke-linecap:round; stroke:none;" d="M445.922 105.543 L449.72 105.543 L449.72 105.0406 L445.922 105.0406 L445.922 105.543"/>
<path style="stroke-width:0.943; clip-path:url(#clipPath1); stroke-linejoin:round; stroke-linecap:round; stroke:none;" d="M449.719 103.748 L448.217 103.748 C447.863 103.748 447.625 103.676 447.499 103.531 C447.374 103.388 447.311 103.216 447.311 103.017 C447.311 102.893 447.338 102.784 447.394 102.692 C447.45 102.6 447.527 102.536 447.619 102.499 C447.714 102.463 447.856 102.444 448.046 102.444 L449.719 102.444 L449.719 101.978 L448.027 101.978 C447.812 101.978 447.66 101.986 447.574 102.004 C447.441 102.032 447.327 102.08 447.23 102.149 C447.134 102.219 447.055 102.323 446.995 102.461 C446.937 102.6 446.906 102.753 446.906 102.919 C446.906 103.301 447.057 103.592 447.359 103.794 L446.968 103.794 L446.968 104.213 L449.719 104.213 L449.719 103.748"/>
<path style="stroke-width:0.943; clip-path:url(#clipPath1); stroke-linejoin:round; stroke-linecap:round; stroke:none;" d="M449.719 99.045 L445.922 99.045 L445.922 99.509 L447.285 99.509 C447.172 99.591 447.081 99.695 447.01 99.825 C446.941 99.955 446.906 100.103 446.906 100.268 C446.906 100.494 446.965 100.699 447.085 100.882 C447.203 101.065 447.376 101.203 447.599 101.295 C447.822 101.385 448.071 101.432 448.347 101.432 C448.628 101.432 448.877 101.38 449.094 101.28 C449.311 101.179 449.478 101.036 449.601 100.853 C449.722 100.669 449.782 100.467 449.782 100.247 C449.782 99.909 449.645 99.653 449.372 99.479 L449.719 99.479 L449.719 99.045 ZM447.546 100.743 C447.377 100.605 447.292 100.431 447.292 100.225 C447.292 100.011 447.381 99.833 447.557 99.688 C447.733 99.542 448.009 99.47 448.387 99.47 C448.728 99.47 448.983 99.541 449.149 99.684 C449.316 99.826 449.398 100 449.398 100.204 C449.398 100.406 449.312 100.581 449.137 100.729 C448.962 100.878 448.7 100.952 448.347 100.952 C447.982 100.952 447.715 100.883 447.546 100.743"/>
<path style="stroke-width:0.943; clip-path:url(#clipPath1); stroke-linejoin:round; stroke-linecap:round; stroke:none;" d="M446.458 97.844 L445.922 97.844 L445.922 98.3098 L446.458 98.3098 L446.458 97.844 M449.72 97.844 L446.969 97.844 L446.969 98.3098 L449.72 98.3098 L449.72 97.844"/>
<path style="stroke-width:0.943; clip-path:url(#clipPath1); stroke-linejoin:round; stroke-linecap:round; stroke:none;" d="M449.263 95.538 C449.354 95.659 449.399 95.805 449.399 95.975 C449.399 96.206 449.319 96.397 449.157 96.551 C448.997 96.704 448.766 96.791 448.463 96.808 L448.463 94.756 L448.338 94.753 C447.885 94.753 447.531 94.87 447.282 95.103 C447.031 95.336 446.906 95.637 446.906 96.004 C446.906 96.384 447.034 96.694 447.289 96.933 C447.545 97.17 447.905 97.289 448.367 97.289 C448.814 97.289 449.161 97.172 449.409 96.936 C449.657 96.7 449.782 96.381 449.782 95.978 C449.782 95.659 449.704 95.397 449.549 95.19 C449.394 94.985 449.175 94.846 448.892 94.768 L448.834 95.25 C449.03 95.322 449.174 95.417 449.263 95.538 M447.505 96.54 C447.361 96.393 447.289 96.213 447.289 95.999 C447.289 95.762 447.38 95.57 447.56 95.421 C447.673 95.325 447.847 95.267 448.079 95.246 L448.079 96.781 C447.839 96.766 447.647 96.685 447.505 96.54"/>
<path style="stroke-width:0.943; clip-path:url(#clipPath1); stroke-linejoin:round; stroke-linecap:round; stroke:none;" d="M449.559 94.012 C449.708 93.823 449.782 93.552 449.782 93.194 C449.782 92.979 449.744 92.785 449.669 92.614 C449.594 92.443 449.486 92.312 449.351 92.221 C449.212 92.131 449.067 92.086 448.912 92.086 C448.753 92.086 448.619 92.122 448.512 92.197 C448.405 92.271 448.324 92.373 448.267 92.503 C448.211 92.634 448.14 92.864 448.051 93.194 C447.989 93.422 447.948 93.56 447.933 93.606 L447.807 93.785 L447.644 93.841 C447.55 93.841 447.466 93.797 447.396 93.704 C447.325 93.614 447.289 93.459 447.289 93.245 C447.289 93.064 447.328 92.924 447.407 92.824 C447.488 92.726 447.599 92.665 447.74 92.645 L447.677 92.189 C447.5 92.218 447.358 92.272 447.251 92.349 C447.147 92.426 447.062 92.547 446.999 92.711 C446.937 92.873 446.906 93.063 446.906 93.28 C446.906 93.423 446.925 93.557 446.962 93.682 C446.999 93.807 447.044 93.907 447.098 93.979 C447.167 94.075 447.252 94.152 447.358 94.209 C447.462 94.264 447.576 94.292 447.699 94.292 C447.833 94.292 447.956 94.259 448.068 94.191 C448.179 94.121 448.266 94.022 448.33 93.89 C448.393 93.758 448.467 93.521 448.554 93.178 C448.617 92.925 448.67 92.766 448.712 92.702 C448.773 92.611 448.855 92.565 448.961 92.565 C449.077 92.565 449.181 92.616 449.267 92.72 C449.355 92.823 449.399 92.982 449.399 93.197 C449.399 93.408 449.35 93.574 449.25 93.693 C449.153 93.812 449.011 93.883 448.825 93.91 L448.899 94.369 C449.191 94.319 449.41 94.198 449.559 94.012"/>
<path d="M446.764 124.865 L446.764 172.969" style="fill:none; stroke-width:2.83; stroke-miterlimit:14.335; clip-path:url(#clipPath1);"/>
<path d="M446.764 205.272 L446.764 219.656" style="fill:none; stroke-width:2.83; stroke-miterlimit:14.335; clip-path:url(#clipPath1);"/>
<path d="M446.764 392.849 L446.764 407.233" style="fill:none; stroke-width:2.83; stroke-miterlimit:14.335; clip-path:url(#clipPath1);"/>
<path d="M446.764 473.963 L446.764 480.922" style="fill:none; stroke-width:2.83; stroke-miterlimit:14.335; clip-path:url(#clipPath1);"/>

<path d="M459.756 118.615 L456.772 118.615 L459.756 116.62 L459.756 116.105 L455.957 116.105 L455.957 116.586 L458.94 116.586 L455.957 118.581 L455.957 119.097 L459.756 119.097 L459.756 118.615" style="stroke-width:2.83; stroke-miterlimit:14.335; clip-path:url(#clipPath1); stroke:none;"/>
<path d="M459.447 115.138 C459.695 114.9 459.818 114.588 459.818 114.204 C459.818 113.963 459.762 113.742 459.649 113.539 C459.537 113.336 459.38 113.181 459.177 113.075 C458.974 112.969 458.695 112.916 458.342 112.916 C457.904 112.916 457.562 113.036 457.315 113.277 C457.066 113.516 456.943 113.825 456.943 114.204 C456.943 114.544 457.045 114.832 457.248 115.069 C457.493 115.353 457.871 115.494 458.38 115.494 C458.845 115.494 459.2 115.375 459.447 115.138 M457.59 114.783 C457.415 114.63 457.328 114.437 457.328 114.204 C457.328 113.974 457.415 113.782 457.591 113.628 C457.767 113.472 458.025 113.395 458.364 113.395 C458.727 113.395 458.993 113.471 459.171 113.626 C459.347 113.78 459.435 113.973 459.435 114.204 C459.435 114.437 459.347 114.63 459.172 114.783 C458.996 114.938 458.733 115.015 458.38 115.015 C458.028 115.015 457.765 114.938 457.59 114.783" style="stroke-width:2.83; stroke-miterlimit:14.335; clip-path:url(#clipPath1); stroke:none;"/>
<path d="M459.756 111.908 L458.316 111.908 C458.118 111.908 457.937 111.883 457.771 111.83 C457.662 111.795 457.578 111.738 457.517 111.657 C457.455 111.576 457.423 111.484 457.423 111.381 C457.423 111.269 457.458 111.154 457.526 111.04 L457.094 110.88 C456.992 111.042 456.943 111.201 456.943 111.359 C456.943 111.468 456.973 111.567 457.035 111.657 C457.098 111.749 457.227 111.847 457.421 111.954 L457.004 111.954 L457.004 112.374 L459.756 112.374 L459.756 111.908" style="stroke-width:2.83; stroke-miterlimit:14.335; clip-path:url(#clipPath1); stroke:none;"/>
<path d="M459.357 109.788 L459.323 109.948 L459.232 110.028 C459.194 110.044 459.109 110.053 458.976 110.053 L457.368 110.053 L457.368 109.584 L457.004 109.584 L457.004 110.053 L456.044 110.053 L456.323 110.516 L457.004 110.516 L457.004 110.858 L457.368 110.858 L457.368 110.516 L458.95 110.516 C459.229 110.516 459.413 110.498 459.5 110.459 C459.588 110.421 459.659 110.356 459.711 110.263 C459.766 110.169 459.791 110.039 459.791 109.869 C459.791 109.765 459.778 109.648 459.75 109.517 L459.339 109.584 L459.357 109.788" style="stroke-width:2.83; stroke-miterlimit:14.335; clip-path:url(#clipPath1); stroke:none;"/>
<path d="M459.756 108.662 L458.25 108.662 C458.034 108.662 457.865 108.637 457.742 108.584 C457.619 108.533 457.524 108.446 457.451 108.325 C457.379 108.203 457.343 108.072 457.343 107.934 C457.343 107.748 457.397 107.606 457.503 107.506 C457.609 107.405 457.778 107.353 458.012 107.353 L459.756 107.353 L459.756 106.888 L458.012 106.888 C457.742 106.888 457.537 106.92 457.396 106.985 C457.255 107.049 457.143 107.156 457.064 107.308 C456.983 107.458 456.943 107.635 456.943 107.839 C456.943 108.17 457.069 108.444 457.32 108.662 L455.957 108.662 L455.957 109.128 L459.756 109.128 L459.756 108.662" style="stroke-width:2.83; stroke-miterlimit:14.335; clip-path:url(#clipPath1); stroke:none;"/>
<path d="M459.82 106.151 L455.893 105.052 L455.893 105.426 L459.82 106.527 L459.82 106.151" style="stroke-width:2.83; stroke-miterlimit:14.335; clip-path:url(#clipPath1); stroke:none;"/>
<path d="M459.147 102.331 C459.31 102.526 459.39 102.765 459.39 103.045 C459.39 103.277 459.331 103.492 459.211 103.691 C459.092 103.89 458.912 104.036 458.672 104.13 C458.43 104.224 458.149 104.271 457.825 104.271 C457.576 104.271 457.332 104.231 457.097 104.152 C456.861 104.073 456.674 103.935 456.533 103.738 C456.393 103.543 456.323 103.298 456.323 103.007 C456.323 102.753 456.386 102.542 456.513 102.375 C456.639 102.207 456.841 102.079 457.116 101.991 L456.999 101.497 C456.649 101.599 456.376 101.778 456.183 102.038 C455.989 102.297 455.893 102.616 455.893 102.996 C455.893 103.331 455.969 103.639 456.123 103.917 C456.276 104.196 456.499 104.411 456.793 104.563 C457.088 104.713 457.434 104.79 457.827 104.79 C458.191 104.79 458.53 104.722 458.847 104.588 C459.162 104.455 459.403 104.26 459.569 104.003 C459.737 103.747 459.82 103.414 459.82 103.004 C459.82 102.609 459.712 102.274 459.494 102 C459.279 101.727 458.964 101.537 458.552 101.432 L458.424 101.934 C458.743 102.003 458.986 102.136 459.147 102.331" style="stroke-width:2.83; stroke-miterlimit:14.335; clip-path:url(#clipPath1); stroke:none;"/>
<path d="M459.301 99.277 C459.389 99.398 459.435 99.543 459.435 99.714 C459.435 99.944 459.355 100.135 459.194 100.289 C459.033 100.443 458.801 100.528 458.499 100.546 L458.499 98.495 L458.375 98.492 C457.921 98.492 457.568 98.608 457.318 98.842 C457.068 99.074 456.944 99.375 456.944 99.742 C456.944 100.123 457.07 100.432 457.325 100.671 C457.582 100.909 457.941 101.028 458.403 101.028 C458.852 101.028 459.197 100.91 459.445 100.674 C459.695 100.439 459.818 100.119 459.818 99.717 C459.818 99.398 459.74 99.135 459.585 98.929 C459.429 98.724 459.211 98.583 458.93 98.506 L458.87 98.989 C459.068 99.06 459.21 99.156 459.301 99.277 M457.541 100.278 C457.397 100.132 457.325 99.952 457.325 99.737 C457.325 99.501 457.415 99.309 457.595 99.159 C457.711 99.064 457.885 99.006 458.115 98.984 L458.115 100.52 C457.875 100.505 457.685 100.423 457.541 100.278" style="stroke-width:2.83; stroke-miterlimit:14.335; clip-path:url(#clipPath1); stroke:none;"/>
<path d="M459.756 97.455 L458.253 97.455 C457.901 97.455 457.661 97.384 457.535 97.239 C457.409 97.095 457.346 96.923 457.346 96.725 C457.346 96.601 457.373 96.492 457.431 96.399 C457.486 96.307 457.562 96.244 457.656 96.207 C457.751 96.17 457.893 96.152 458.083 96.152 L459.756 96.152 L459.756 95.686 L458.064 95.686 C457.849 95.686 457.696 95.694 457.611 95.712 C457.478 95.74 457.363 95.787 457.267 95.856 C457.169 95.926 457.092 96.03 457.031 96.169 C456.972 96.308 456.943 96.46 456.943 96.626 C456.943 97.008 457.094 97.299 457.396 97.501 L457.004 97.501 L457.004 97.921 L459.756 97.921 L459.756 97.455" style="stroke-width:2.83; stroke-miterlimit:14.335; clip-path:url(#clipPath1); stroke:none;"/>
<path d="M459.357 94.157 L459.323 94.317 L459.232 94.397 C459.194 94.413 459.109 94.422 458.976 94.422 L457.368 94.422 L457.368 93.953 L457.004 93.953 L457.004 94.422 L456.044 94.422 L456.323 94.886 L457.004 94.886 L457.004 95.227 L457.368 95.227 L457.368 94.886 L458.95 94.886 C459.229 94.886 459.413 94.867 459.5 94.829 C459.588 94.791 459.659 94.725 459.711 94.633 C459.766 94.539 459.791 94.408 459.791 94.238 C459.791 94.134 459.778 94.017 459.75 93.886 L459.339 93.953 L459.357 94.157" style="stroke-width:2.83; stroke-miterlimit:14.335; clip-path:url(#clipPath1); stroke:none;"/>
<path d="M459.756 93.036 L458.316 93.036 C458.118 93.036 457.937 93.011 457.771 92.958 C457.662 92.924 457.578 92.866 457.517 92.785 C457.455 92.704 457.423 92.613 457.423 92.51 C457.423 92.397 457.458 92.283 457.526 92.168 L457.094 92.008 C456.992 92.17 456.943 92.33 456.943 92.487 C456.943 92.596 456.973 92.696 457.035 92.786 C457.098 92.876 457.227 92.976 457.421 93.083 L457.004 93.083 L457.004 93.502 L459.756 93.502 L459.756 93.036" style="stroke-width:2.83; stroke-miterlimit:14.335; clip-path:url(#clipPath1); stroke:none;"/>
<path d="M459.756 89.841 L459.756 89.354 C459.65 89.413 459.541 89.453 459.425 89.472 C459.311 89.492 459.036 89.502 458.603 89.502 L457.981 89.502 C457.774 89.502 457.631 89.508 457.551 89.525 C457.423 89.552 457.318 89.601 457.235 89.67 C457.15 89.739 457.081 89.847 457.026 89.994 C456.971 90.141 456.943 90.332 456.943 90.566 C456.943 90.803 456.975 91.012 457.039 91.191 C457.105 91.37 457.196 91.507 457.318 91.603 C457.438 91.697 457.594 91.766 457.79 91.808 L457.852 91.351 C457.656 91.301 457.521 91.224 457.444 91.119 C457.367 91.015 457.328 90.854 457.328 90.633 C457.328 90.398 457.38 90.222 457.486 90.102 C457.564 90.014 457.697 89.97 457.889 89.97 L458.009 89.973 C458.072 90.151 458.125 90.428 458.17 90.804 C458.193 90.99 458.216 91.127 458.241 91.219 C458.276 91.344 458.325 91.456 458.393 91.554 C458.461 91.654 458.55 91.734 458.662 91.796 C458.774 91.857 458.897 91.888 459.03 91.888 C459.26 91.888 459.45 91.807 459.596 91.644 C459.744 91.482 459.818 91.25 459.818 90.948 C459.818 90.764 459.787 90.593 459.728 90.433 C459.667 90.273 459.564 90.107 459.416 89.934 C459.545 89.92 459.659 89.889 459.756 89.841 M458.546 89.973 C458.751 89.973 458.907 89.998 459.013 90.049 C459.148 90.114 459.256 90.216 459.335 90.357 C459.413 90.497 459.454 90.656 459.454 90.837 C459.454 91.017 459.411 91.155 459.329 91.25 C459.247 91.344 459.143 91.39 459.017 91.39 L458.795 91.326 L458.645 91.142 C458.61 91.063 458.579 90.926 458.552 90.736 C458.504 90.397 458.444 90.143 458.375 89.973 L458.546 89.973" style="stroke-width:2.83; stroke-miterlimit:14.335; clip-path:url(#clipPath1); stroke:none;"/>
<path d="M455.957 88.79 L459.756 88.79 L459.756 88.3242 L455.957 88.3242 L455.957 88.79" style="stroke-width:2.83; stroke-miterlimit:14.335; clip-path:url(#clipPath1); stroke:none;"/>
<path d="M459.756 85.951 L458.606 85.534 L458.606 83.946 L459.756 83.502 L459.756 82.93 L455.957 84.484 L455.957 85.026 L459.756 86.485 L459.756 85.951 ZM457.083 84.972 C456.842 84.883 456.601 84.815 456.357 84.767 C456.562 84.709 456.825 84.618 457.144 84.498 L458.196 84.101 L458.196 85.388 L457.083 84.972" style="stroke-width:2.83; stroke-miterlimit:14.335; clip-path:url(#clipPath1); stroke:none;"/>
<path d="M459.756 82.122 L458.328 82.122 C458.078 82.122 457.887 82.096 457.754 82.046 C457.619 81.996 457.52 81.916 457.45 81.805 C457.38 81.692 457.346 81.572 457.346 81.44 C457.346 81.268 457.399 81.143 457.502 81.067 C457.606 80.991 457.761 80.953 457.968 80.953 L459.756 80.953 L459.756 80.487 L458.157 80.487 C457.874 80.487 457.668 80.423 457.539 80.296 C457.41 80.166 457.346 80.007 457.346 79.813 C457.346 79.706 457.371 79.612 457.421 79.533 L457.618 79.369 C457.701 79.339 457.837 79.324 458.023 79.324 L459.756 79.324 L459.756 78.86 L457.868 78.86 C457.553 78.86 457.32 78.934 457.169 79.081 C457.019 79.228 456.943 79.437 456.943 79.71 C456.943 80.059 457.103 80.341 457.423 80.559 C457.272 80.614 457.154 80.705 457.069 80.835 C456.985 80.966 456.943 81.133 456.943 81.337 C456.943 81.52 456.984 81.683 457.066 81.827 C457.148 81.969 457.257 82.085 457.39 82.17 L457.004 82.17 L457.004 82.588 L459.756 82.588 L459.756 82.122" style="stroke-width:2.83; stroke-miterlimit:14.335; clip-path:url(#clipPath1); stroke:none;"/>
<path d="M459.301 76.573 C459.389 76.694 459.435 76.84 459.435 77.01 C459.435 77.24 459.355 77.432 459.194 77.586 C459.033 77.74 458.801 77.825 458.499 77.843 L458.499 75.791 L458.375 75.788 C457.921 75.788 457.568 75.904 457.318 76.138 C457.068 76.371 456.944 76.671 456.944 77.039 C456.944 77.419 457.07 77.728 457.325 77.967 C457.582 78.205 457.941 78.324 458.403 78.324 C458.852 78.324 459.197 78.206 459.445 77.97 C459.695 77.735 459.818 77.416 459.818 77.013 C459.818 76.694 459.74 76.431 459.585 76.226 C459.429 76.02 459.211 75.88 458.93 75.803 L458.87 76.285 C459.068 76.356 459.21 76.452 459.301 76.573 M457.541 77.574 C457.397 77.428 457.325 77.248 457.325 77.034 C457.325 76.797 457.415 76.605 457.595 76.456 C457.711 76.36 457.885 76.301 458.115 76.281 L458.115 77.816 C457.875 77.801 457.685 77.719 457.541 77.574" style="stroke-width:2.83; stroke-miterlimit:14.335; clip-path:url(#clipPath1); stroke:none;"/>
<path d="M459.756 74.757 L458.316 74.757 C458.118 74.757 457.937 74.732 457.771 74.679 C457.662 74.644 457.578 74.587 457.517 74.506 C457.455 74.425 457.423 74.334 457.423 74.231 C457.423 74.117 457.458 74.004 457.526 73.889 L457.094 73.729 C456.992 73.891 456.943 74.05 456.943 74.208 C456.943 74.317 456.973 74.417 457.035 74.507 C457.098 74.598 457.227 74.696 457.421 74.803 L457.004 74.803 L457.004 75.223 L459.756 75.223 L459.756 74.757" style="stroke-width:2.83; stroke-miterlimit:14.335; clip-path:url(#clipPath1); stroke:none;"/>
<path d="M456.495 72.983 L455.957 72.983 L455.957 73.4488 L456.495 73.4488 L456.495 72.983 M459.756 72.983 L457.004 72.983 L457.004 73.4488 L459.756 73.4488 L459.756 72.983" style="stroke-width:2.83; stroke-miterlimit:14.335; clip-path:url(#clipPath1); stroke:none;"/>
<path d="M459.267 70.71 C459.379 70.833 459.435 70.986 459.435 71.169 C459.435 71.397 459.352 71.582 459.183 71.723 C459.016 71.864 458.748 71.935 458.377 71.935 C458.013 71.935 457.746 71.861 457.579 71.716 C457.409 71.568 457.326 71.378 457.326 71.144 C457.326 70.987 457.372 70.855 457.466 70.745 C457.559 70.636 457.697 70.56 457.883 70.516 L457.813 70.063 C457.534 70.115 457.32 70.237 457.169 70.428 C457.019 70.617 456.943 70.862 456.943 71.161 C456.943 71.398 456.997 71.617 457.109 71.817 C457.222 72.019 457.388 72.168 457.611 72.268 C457.834 72.365 458.094 72.415 458.391 72.415 C458.851 72.415 459.202 72.3 459.45 72.072 C459.696 71.843 459.818 71.54 459.818 71.164 C459.818 70.863 459.729 70.609 459.55 70.404 C459.371 70.197 459.123 70.069 458.807 70.019 L458.748 70.477 C458.982 70.51 459.153 70.587 459.267 70.71" style="stroke-width:2.83; stroke-miterlimit:14.335; clip-path:url(#clipPath1); stroke:none;"/>
<path d="M459.756 67.731 L459.756 67.244 C459.65 67.303 459.541 67.342 459.425 67.362 C459.311 67.382 459.036 67.392 458.603 67.392 L457.981 67.392 C457.774 67.392 457.631 67.398 457.551 67.415 C457.423 67.442 457.318 67.491 457.235 67.56 C457.15 67.629 457.081 67.737 457.026 67.884 C456.971 68.031 456.943 68.222 456.943 68.456 C456.943 68.693 456.975 68.901 457.039 69.081 C457.105 69.26 457.196 69.398 457.318 69.493 C457.438 69.587 457.594 69.656 457.79 69.697 L457.852 69.241 C457.656 69.191 457.521 69.113 457.444 69.009 C457.367 68.905 457.328 68.744 457.328 68.523 C457.328 68.288 457.38 68.113 457.486 67.992 C457.564 67.904 457.697 67.86 457.889 67.86 L458.009 67.863 C458.072 68.042 458.125 68.319 458.17 68.694 C458.193 68.88 458.216 69.018 458.241 69.108 C458.276 69.234 458.325 69.346 458.393 69.445 C458.461 69.543 458.55 69.624 458.662 69.686 C458.774 69.747 458.897 69.778 459.03 69.778 C459.26 69.778 459.45 69.696 459.596 69.535 C459.744 69.372 459.818 69.14 459.818 68.837 C459.818 68.654 459.787 68.482 459.728 68.324 C459.667 68.163 459.564 67.997 459.416 67.825 C459.545 67.81 459.659 67.779 459.756 67.731 M458.546 67.863 C458.751 67.863 458.907 67.888 459.013 67.939 C459.148 68.004 459.256 68.106 459.335 68.247 C459.413 68.387 459.454 68.546 459.454 68.727 C459.454 68.907 459.411 69.045 459.329 69.14 C459.247 69.234 459.143 69.28 459.017 69.28 L458.795 69.216 L458.645 69.032 C458.61 68.953 458.579 68.816 458.552 68.626 C458.504 68.286 458.444 68.033 458.375 67.863 L458.546 67.863" style="stroke-width:2.83; stroke-miterlimit:14.335; clip-path:url(#clipPath1); stroke:none;"/>
<path d="M456.799 178.392 L456.799 200.793" style="fill:none; stroke-width:2.83; stroke-miterlimit:14.335; clip-path:url(#clipPath1);"/>
<path d="M456.799 367.148 L456.799 389.903" style="fill:none; stroke-width:2.83; stroke-miterlimit:14.335; clip-path:url(#clipPath1);"/>
<path d="M456.799 411.773 L456.799 453.568" style="fill:none; stroke-width:2.83; stroke-miterlimit:14.335; clip-path:url(#clipPath1);"/>
<path d="M456.799 528.139 L456.799 703.986" style="fill:none; stroke-width:2.83; stroke-miterlimit:14.335; clip-path:url(#clipPath1);"/>
<path d="M456.799 222.604 L456.799 263.044" style="fill:none; stroke-width:2.83; stroke-miterlimit:14.335; clip-path:url(#clipPath1);"/>

<path d="M470.876 119.054 C471.076 118.922 471.228 118.74 471.327 118.507 C471.427 118.275 471.479 117.988 471.479 117.643 C471.479 117.372 471.429 117.129 471.329 116.912 C471.23 116.695 471.091 116.529 470.912 116.413 C470.733 116.297 470.542 116.239 470.34 116.239 C470.137 116.239 469.956 116.292 469.799 116.397 C469.644 116.503 469.515 116.665 469.414 116.887 C469.344 117.039 469.265 117.32 469.17 117.727 C469.079 118.135 468.987 118.389 468.901 118.485 C468.813 118.584 468.699 118.633 468.564 118.633 C468.406 118.633 468.273 118.564 468.16 118.425 C468.05 118.285 467.993 118.064 467.993 117.76 C467.993 117.468 468.054 117.248 468.177 117.098 C468.3 116.949 468.482 116.861 468.721 116.836 L468.685 116.353 C468.463 116.362 468.262 116.425 468.086 116.54 C467.911 116.656 467.777 116.821 467.687 117.035 C467.597 117.251 467.55 117.499 467.55 117.781 C467.55 118.036 467.595 118.268 467.679 118.478 C467.767 118.686 467.893 118.845 468.059 118.954 C468.226 119.063 468.405 119.117 468.598 119.117 C468.771 119.117 468.928 119.073 469.07 118.984 C469.211 118.896 469.328 118.76 469.425 118.579 C469.498 118.438 469.576 118.195 469.661 117.846 C469.744 117.496 469.806 117.271 469.847 117.169 C469.905 117.01 469.982 116.897 470.069 116.827 C470.159 116.758 470.263 116.723 470.381 116.723 C470.499 116.723 470.608 116.759 470.708 116.831 C470.806 116.903 470.885 117.011 470.942 117.159 C470.997 117.305 471.028 117.475 471.028 117.667 C471.028 117.882 470.989 118.077 470.914 118.25 C470.84 118.422 470.74 118.55 470.618 118.631 C470.497 118.713 470.341 118.766 470.151 118.788 L470.193 119.262 C470.447 119.256 470.675 119.186 470.876 119.054" style="stroke-width:2.83; stroke-miterlimit:14.335; clip-path:url(#clipPath1); stroke:none;"/>
<path d="M471.105 115.43 C471.352 115.192 471.476 114.88 471.476 114.496 C471.476 114.255 471.418 114.034 471.307 113.831 C471.194 113.629 471.037 113.473 470.834 113.368 C470.632 113.261 470.353 113.208 469.998 113.208 C469.562 113.208 469.22 113.328 468.971 113.569 C468.723 113.808 468.601 114.118 468.601 114.496 C468.601 114.836 468.702 115.124 468.905 115.361 C469.151 115.645 469.528 115.786 470.037 115.786 C470.502 115.786 470.858 115.667 471.105 115.43 M469.247 115.076 C469.073 114.922 468.986 114.729 468.986 114.496 C468.986 114.266 469.073 114.074 469.249 113.92 C469.425 113.765 469.682 113.687 470.023 113.687 C470.382 113.687 470.651 113.764 470.828 113.918 C471.003 114.071 471.092 114.264 471.092 114.496 C471.092 114.729 471.003 114.922 470.83 115.076 C470.653 115.23 470.39 115.308 470.037 115.308 C469.686 115.308 469.423 115.23 469.247 115.076" style="stroke-width:2.83; stroke-miterlimit:14.335; clip-path:url(#clipPath1); stroke:none;"/>
<path d="M471.412 110.442 L468.661 110.442 L468.661 110.907 L470.136 110.907 C470.371 110.907 470.549 110.932 470.674 110.984 C470.797 111.034 470.894 111.121 470.965 111.244 C471.038 111.368 471.073 111.499 471.073 111.638 C471.073 111.778 471.039 111.896 470.968 111.99 C470.899 112.086 470.802 112.147 470.681 112.177 C470.595 112.196 470.432 112.205 470.188 112.205 L468.661 112.205 L468.661 112.672 L470.366 112.672 C470.565 112.672 470.711 112.663 470.802 112.644 C470.937 112.615 471.054 112.569 471.148 112.5 C471.241 112.432 471.319 112.327 471.382 112.187 C471.444 112.046 471.476 111.894 471.476 111.732 C471.476 111.364 471.319 111.073 471.009 110.859 L471.412 110.859 L471.412 110.442" style="stroke-width:2.83; stroke-miterlimit:14.335; clip-path:url(#clipPath1); stroke:none;"/>
<path d="M471.014 108.898 L470.98 109.057 L470.89 109.138 C470.853 109.154 470.766 109.162 470.634 109.162 L469.026 109.162 L469.026 108.692 L468.661 108.692 L468.661 109.162 L467.701 109.162 L467.982 109.626 L468.661 109.626 L468.661 109.967 L469.026 109.967 L469.026 109.626 L470.608 109.626 C470.887 109.626 471.07 109.607 471.157 109.568 C471.245 109.531 471.316 109.466 471.368 109.372 C471.422 109.279 471.448 109.148 471.448 108.978 C471.448 108.874 471.437 108.757 471.407 108.626 L470.996 108.692 L471.014 108.898" style="stroke-width:2.83; stroke-miterlimit:14.335; clip-path:url(#clipPath1); stroke:none;"/>
<path d="M471.412 107.771 L469.907 107.771 C469.692 107.771 469.523 107.746 469.4 107.693 C469.278 107.642 469.181 107.555 469.109 107.433 C469.037 107.312 469.001 107.182 469.001 107.043 C469.001 106.858 469.054 106.715 469.159 106.614 C469.266 106.514 469.437 106.462 469.67 106.462 L471.412 106.462 L471.412 105.997 L469.67 105.997 C469.4 105.997 469.194 106.028 469.054 106.094 C468.912 106.158 468.801 106.266 468.72 106.417 C468.64 106.566 468.601 106.744 468.601 106.947 C468.601 107.278 468.726 107.553 468.978 107.771 L467.616 107.771 L467.616 108.237 L471.412 108.237 L471.412 107.771" style="stroke-width:2.83; stroke-miterlimit:14.335; clip-path:url(#clipPath1); stroke:none;"/>
<path d="M471.412 103.636 L470.264 103.219 L470.264 101.631 L471.412 101.188 L471.412 100.616 L467.616 102.17 L467.616 102.711 L471.412 104.171 L471.412 103.636 ZM468.739 102.658 C468.499 102.569 468.259 102.501 468.015 102.452 C468.22 102.394 468.483 102.303 468.802 102.183 L469.854 101.786 L469.854 103.074 L468.739 102.658" style="stroke-width:2.83; stroke-miterlimit:14.335; clip-path:url(#clipPath1); stroke:none;"/>
<path d="M471.412 99.808 L469.986 99.808 C469.736 99.808 469.543 99.784 469.411 99.732 C469.278 99.682 469.177 99.602 469.108 99.491 C469.038 99.379 469.004 99.258 469.004 99.126 C469.004 98.954 469.056 98.83 469.159 98.753 C469.264 98.678 469.419 98.639 469.626 98.639 L471.412 98.639 L471.412 98.173 L469.816 98.173 C469.531 98.173 469.325 98.109 469.196 97.982 C469.069 97.854 469.004 97.693 469.004 97.499 C469.004 97.392 469.028 97.299 469.079 97.22 L469.277 97.055 C469.359 97.025 469.494 97.01 469.681 97.01 L471.412 97.01 L471.412 96.546 L469.525 96.546 C469.211 96.546 468.978 96.62 468.827 96.767 C468.675 96.912 468.601 97.123 468.601 97.396 C468.601 97.745 468.76 98.028 469.081 98.245 C468.929 98.3 468.813 98.391 468.727 98.521 C468.642 98.652 468.601 98.819 468.601 99.023 C468.601 99.206 468.641 99.368 468.723 99.513 C468.806 99.656 468.914 99.771 469.048 99.856 L468.661 99.856 L468.661 100.273 L471.412 100.273 L471.412 99.808" style="stroke-width:2.83; stroke-miterlimit:14.335; clip-path:url(#clipPath1); stroke:none;"/>
<path d="M470.957 94.258 C471.047 94.379 471.093 94.526 471.093 94.696 C471.093 94.926 471.012 95.118 470.852 95.271 C470.691 95.425 470.459 95.51 470.156 95.528 L470.156 93.476 L470.033 93.473 C469.577 93.473 469.226 93.589 468.975 93.823 C468.725 94.056 468.602 94.356 468.602 94.724 C468.602 95.104 468.728 95.414 468.983 95.652 C469.239 95.89 469.598 96.009 470.061 96.009 C470.509 96.009 470.856 95.891 471.103 95.656 C471.351 95.42 471.476 95.101 471.476 94.699 C471.476 94.379 471.398 94.116 471.242 93.911 C471.087 93.705 470.868 93.565 470.586 93.489 L470.528 93.971 C470.724 94.041 470.867 94.137 470.957 94.258 M469.198 95.259 C469.055 95.114 468.983 94.933 468.983 94.72 C468.983 94.483 469.073 94.291 469.253 94.141 C469.368 94.045 469.54 93.986 469.773 93.965 L469.773 95.501 C469.532 95.486 469.341 95.405 469.198 95.259" style="stroke-width:2.83; stroke-miterlimit:14.335; clip-path:url(#clipPath1); stroke:none;"/>
<path d="M471.412 92.442 L469.973 92.442 C469.776 92.442 469.594 92.417 469.429 92.365 C469.319 92.33 469.236 92.273 469.173 92.192 C469.112 92.11 469.081 92.019 469.081 91.916 C469.081 91.802 469.115 91.689 469.183 91.574 L468.75 91.414 C468.65 91.576 468.601 91.735 468.601 91.893 C468.601 92.002 468.631 92.102 468.693 92.192 C468.755 92.283 468.883 92.382 469.079 92.488 L468.661 92.488 L468.661 92.908 L471.412 92.908 L471.412 92.442" style="stroke-width:2.83; stroke-miterlimit:14.335; clip-path:url(#clipPath1); stroke:none;"/>
<path d="M468.153 90.668 L467.615 90.668 L467.615 91.1343 L468.153 91.1343 L468.153 90.668 M471.412 90.668 L468.662 90.668 L468.662 91.1343 L471.412 91.1343 L471.412 90.668" style="stroke-width:2.83; stroke-miterlimit:14.335; clip-path:url(#clipPath1); stroke:none;"/>
<path d="M470.924 88.396 C471.036 88.519 471.093 88.672 471.093 88.855 C471.093 89.083 471.008 89.268 470.841 89.409 C470.673 89.551 470.405 89.622 470.035 89.622 C469.671 89.622 469.403 89.548 469.236 89.402 C469.068 89.255 468.984 89.064 468.984 88.83 C468.984 88.674 469.029 88.54 469.123 88.432 C469.216 88.322 469.355 88.246 469.54 88.203 L469.471 87.748 C469.192 87.802 468.977 87.924 468.827 88.115 C468.675 88.304 468.601 88.548 468.601 88.848 C468.601 89.084 468.655 89.303 468.766 89.504 C468.879 89.705 469.046 89.854 469.268 89.954 C469.49 90.052 469.75 90.101 470.049 90.101 C470.508 90.101 470.86 89.986 471.107 89.758 C471.352 89.529 471.476 89.227 471.476 88.85 C471.476 88.549 471.385 88.295 471.206 88.09 C471.029 87.883 470.78 87.755 470.465 87.705 L470.405 88.163 C470.64 88.196 470.811 88.274 470.924 88.396" style="stroke-width:2.83; stroke-miterlimit:14.335; clip-path:url(#clipPath1); stroke:none;"/>
<path d="M471.412 85.417 L471.412 84.93 C471.308 84.989 471.198 85.028 471.083 85.048 C470.967 85.068 470.694 85.078 470.261 85.078 L469.639 85.078 C469.432 85.078 469.288 85.085 469.209 85.101 C469.081 85.128 468.975 85.177 468.891 85.246 C468.808 85.315 468.737 85.422 468.683 85.57 C468.629 85.717 468.601 85.907 468.601 86.142 C468.601 86.379 468.633 86.588 468.696 86.767 C468.762 86.946 468.854 87.083 468.974 87.179 C469.093 87.272 469.251 87.342 469.446 87.383 L469.508 86.927 C469.314 86.876 469.178 86.8 469.102 86.695 C469.025 86.591 468.986 86.429 468.986 86.209 C468.986 85.974 469.038 85.797 469.144 85.678 C469.222 85.59 469.355 85.546 469.545 85.546 L469.667 85.549 C469.73 85.727 469.782 86.005 469.827 86.381 C469.851 86.565 469.874 86.704 469.898 86.795 C469.932 86.919 469.983 87.031 470.051 87.131 C470.118 87.229 470.206 87.309 470.319 87.371 C470.431 87.433 470.553 87.463 470.688 87.463 C470.917 87.463 471.106 87.382 471.254 87.22 C471.402 87.058 471.476 86.825 471.476 86.523 C471.476 86.34 471.445 86.168 471.385 86.009 C471.324 85.849 471.221 85.683 471.073 85.51 C471.203 85.496 471.316 85.465 471.412 85.417 M470.202 85.549 C470.407 85.549 470.565 85.574 470.671 85.625 C470.805 85.69 470.913 85.792 470.992 85.933 C471.07 86.072 471.111 86.232 471.111 86.412 C471.111 86.593 471.069 86.731 470.986 86.825 C470.903 86.919 470.799 86.965 470.675 86.965 L470.453 86.902 L470.302 86.717 C470.268 86.638 470.236 86.502 470.208 86.311 C470.161 85.972 470.101 85.719 470.032 85.549 L470.202 85.549" style="stroke-width:2.83; stroke-miterlimit:14.335; clip-path:url(#clipPath1); stroke:none;"/>
<path d="M468.708 265.223 L468.708 364.435" style="fill:none; stroke-width:2.83; stroke-miterlimit:14.335; clip-path:url(#clipPath1);"/>
<path d="M469.651 456.399 L469.651 470.545" style="fill:none; stroke-width:2.83; stroke-miterlimit:14.335; clip-path:url(#clipPath1);"/>

<path d="M483.128 116.198 L483.836 116.198 C483.931 116.306 484.021 116.463 484.103 116.67 C484.187 116.877 484.23 117.09 484.23 117.307 C484.23 117.557 484.174 117.794 484.064 118.017 C483.952 118.24 483.784 118.409 483.555 118.526 C483.327 118.642 483.044 118.701 482.706 118.701 C482.433 118.701 482.176 118.653 481.942 118.555 C481.806 118.499 481.681 118.418 481.567 118.316 C481.453 118.213 481.36 118.078 481.291 117.91 C481.221 117.743 481.187 117.544 481.187 117.315 C481.187 117.123 481.219 116.949 481.285 116.791 C481.351 116.634 481.44 116.513 481.55 116.428 C481.661 116.345 481.814 116.274 482.008 116.216 L481.882 115.763 C481.627 115.829 481.42 115.925 481.261 116.051 C481.102 116.177 480.979 116.351 480.889 116.573 C480.8 116.795 480.755 117.043 480.755 117.318 C480.755 117.696 480.834 118.03 480.988 118.32 C481.144 118.61 481.382 118.832 481.702 118.987 C482.023 119.142 482.366 119.219 482.736 119.219 C483.111 119.219 483.448 119.141 483.75 118.986 C484.053 118.831 484.284 118.6 484.444 118.295 C484.603 117.99 484.684 117.652 484.684 117.278 C484.684 117.002 484.633 116.733 484.533 116.47 C484.436 116.208 484.287 115.953 484.09 115.706 L482.68 115.706 L482.683 117.315 L483.128 117.315 L483.128 116.198" style="stroke-width:2.83; stroke-miterlimit:14.335; clip-path:url(#clipPath1); stroke:none;"/>
<path d="M484.617 113.136 L484.617 112.65 C484.513 112.708 484.403 112.747 484.288 112.768 C484.172 112.787 483.898 112.797 483.466 112.797 L482.844 112.797 C482.637 112.797 482.492 112.804 482.413 112.82 C482.285 112.848 482.179 112.897 482.095 112.966 C482.012 113.034 481.943 113.142 481.887 113.289 C481.833 113.436 481.805 113.627 481.805 113.861 C481.805 114.098 481.838 114.307 481.902 114.486 C481.966 114.665 482.059 114.803 482.178 114.898 C482.298 114.992 482.456 115.061 482.651 115.103 L482.713 114.646 C482.518 114.597 482.382 114.519 482.306 114.414 C482.229 114.31 482.191 114.148 482.191 113.929 C482.191 113.694 482.243 113.517 482.349 113.398 C482.427 113.31 482.56 113.265 482.75 113.265 L482.872 113.268 C482.935 113.446 482.987 113.724 483.032 114.1 C483.056 114.285 483.078 114.423 483.102 114.514 C483.137 114.638 483.188 114.751 483.255 114.85 C483.323 114.95 483.411 115.03 483.524 115.09 C483.635 115.152 483.758 115.183 483.892 115.183 C484.122 115.183 484.312 115.102 484.458 114.94 C484.607 114.777 484.681 114.544 484.681 114.242 C484.681 114.059 484.651 113.888 484.589 113.729 C484.528 113.568 484.425 113.403 484.278 113.23 C484.408 113.215 484.521 113.184 484.617 113.136 M483.407 113.268 C483.612 113.268 483.769 113.294 483.875 113.344 C484.01 113.409 484.118 113.511 484.197 113.652 C484.276 113.792 484.315 113.951 484.315 114.132 C484.315 114.312 484.274 114.45 484.191 114.544 C484.108 114.638 484.003 114.685 483.88 114.685 L483.657 114.621 L483.507 114.437 C483.472 114.358 483.442 114.222 483.414 114.031 C483.365 113.692 483.306 113.438 483.236 113.268 L483.407 113.268" style="stroke-width:2.83; stroke-miterlimit:14.335; clip-path:url(#clipPath1); stroke:none;"/>
<path d="M480.82 112.083 L484.6179 112.083 L484.6179 111.6171 L480.82 111.6171 L480.82 112.083" style="stroke-width:2.83; stroke-miterlimit:14.335; clip-path:url(#clipPath1); stroke:none;"/>
<path d="M484.617 109.006 L484.617 108.519 C484.513 108.578 484.403 108.618 484.288 108.637 C484.172 108.657 483.898 108.667 483.466 108.667 L482.844 108.667 C482.637 108.667 482.492 108.675 482.413 108.69 C482.285 108.717 482.179 108.767 482.095 108.836 C482.012 108.904 481.943 109.011 481.887 109.159 C481.833 109.306 481.805 109.497 481.805 109.732 C481.805 109.968 481.838 110.177 481.902 110.356 C481.966 110.535 482.059 110.673 482.178 110.769 C482.298 110.863 482.456 110.931 482.651 110.973 L482.713 110.516 C482.518 110.466 482.382 110.389 482.306 110.284 C482.229 110.181 482.191 110.018 482.191 109.798 C482.191 109.564 482.243 109.387 482.349 109.267 C482.427 109.18 482.56 109.136 482.75 109.136 L482.872 109.139 C482.935 109.316 482.987 109.593 483.032 109.97 C483.056 110.155 483.078 110.293 483.102 110.384 C483.137 110.509 483.188 110.621 483.255 110.72 C483.323 110.819 483.411 110.899 483.524 110.961 C483.635 111.022 483.758 111.053 483.892 111.053 C484.122 111.053 484.312 110.972 484.458 110.809 C484.607 110.648 484.681 110.414 484.681 110.113 C484.681 109.929 484.651 109.758 484.589 109.598 C484.528 109.438 484.425 109.272 484.278 109.099 C484.408 109.086 484.521 109.055 484.617 109.006 M483.407 109.139 C483.612 109.139 483.769 109.164 483.875 109.213 C484.01 109.279 484.118 109.381 484.197 109.522 C484.276 109.661 484.315 109.821 484.315 110.001 C484.315 110.183 484.274 110.319 484.191 110.414 C484.108 110.509 484.003 110.555 483.88 110.555 L483.657 110.491 L483.507 110.306 C483.472 110.227 483.442 110.092 483.414 109.9 C483.365 109.562 483.306 109.308 483.236 109.139 L483.407 109.139" style="stroke-width:2.83; stroke-miterlimit:14.335; clip-path:url(#clipPath1); stroke:none;"/>
<path d="M485.672 107.477 L484.333 107.477 C484.434 107.398 484.516 107.297 484.581 107.173 C484.648 107.049 484.681 106.91 484.681 106.755 C484.681 106.542 484.619 106.34 484.5 106.147 C484.379 105.954 484.207 105.809 483.982 105.707 C483.756 105.606 483.503 105.555 483.223 105.555 C482.958 105.555 482.718 105.602 482.497 105.694 C482.278 105.785 482.108 105.919 481.985 106.1 C481.864 106.279 481.805 106.487 481.805 106.721 C481.805 106.9 481.84 107.053 481.909 107.179 C481.98 107.306 482.085 107.419 482.224 107.52 L481.866 107.52 L481.866 107.944 L485.672 107.944 L485.672 107.477 ZM482.448 107.292 C482.262 107.14 482.169 106.963 482.169 106.766 C482.169 106.564 482.257 106.393 482.433 106.249 C482.607 106.104 482.868 106.032 483.22 106.032 C483.586 106.032 483.859 106.106 484.034 106.253 C484.208 106.402 484.297 106.579 484.297 106.786 C484.297 106.991 484.211 107.164 484.043 107.307 C483.873 107.45 483.612 107.522 483.258 107.522 C482.904 107.522 482.635 107.445 482.448 107.292" style="stroke-width:2.83; stroke-miterlimit:14.335; clip-path:url(#clipPath3); stroke:none;"/>
<path d="M484.617 103.105 L484.617 102.618 C484.513 102.677 484.403 102.717 484.288 102.736 C484.172 102.756 483.898 102.766 483.466 102.766 L482.844 102.766 C482.637 102.766 482.492 102.773 482.413 102.789 C482.285 102.817 482.179 102.866 482.095 102.935 C482.012 103.004 481.943 103.111 481.887 103.258 C481.833 103.405 481.805 103.595 481.805 103.83 C481.805 104.067 481.838 104.276 481.902 104.455 C481.966 104.634 482.059 104.772 482.178 104.867 C482.298 104.962 482.456 105.03 482.651 105.072 L482.713 104.615 C482.518 104.566 482.382 104.488 482.306 104.383 C482.229 104.279 482.191 104.118 482.191 103.898 C482.191 103.663 482.243 103.486 482.349 103.366 C482.427 103.279 482.56 103.234 482.75 103.234 L482.872 103.237 C482.935 103.416 482.987 103.693 483.032 104.069 C483.056 104.254 483.078 104.392 483.102 104.483 C483.137 104.608 483.188 104.72 483.255 104.819 C483.323 104.918 483.411 104.999 483.524 105.06 C483.635 105.121 483.758 105.152 483.892 105.152 C484.122 105.152 484.312 105.071 484.458 104.909 C484.607 104.746 484.681 104.514 484.681 104.212 C484.681 104.028 484.651 103.858 484.589 103.697 C484.528 103.537 484.425 103.371 484.278 103.199 C484.408 103.184 484.521 103.153 484.617 103.105 M483.407 103.237 C483.612 103.237 483.769 103.263 483.875 103.313 C484.01 103.378 484.118 103.481 484.197 103.621 C484.276 103.761 484.315 103.921 484.315 104.1 C484.315 104.281 484.274 104.419 484.191 104.514 C484.108 104.608 484.003 104.654 483.88 104.654 L483.657 104.59 L483.507 104.406 C483.472 104.326 483.442 104.191 483.414 103.999 C483.365 103.661 483.306 103.407 483.236 103.237 L483.407 103.237" style="stroke-width:2.83; stroke-miterlimit:14.335; clip-path:url(#clipPath1); stroke:none;"/>
<path d="M485.513 101.836 C485.661 101.634 485.735 101.369 485.735 101.041 C485.735 100.765 485.684 100.531 485.579 100.343 C485.476 100.153 485.334 100.015 485.155 99.928 C484.977 99.841 484.674 99.797 484.245 99.797 L481.866 99.797 L481.866 100.227 L482.198 100.227 C481.935 100.438 481.805 100.706 481.805 101.031 C481.805 101.273 481.864 101.485 481.985 101.666 C482.108 101.847 482.278 101.985 482.501 102.08 C482.722 102.174 482.964 102.222 483.228 102.222 C483.609 102.222 483.936 102.118 484.208 101.911 C484.481 101.704 484.617 101.412 484.617 101.033 C484.617 100.729 484.498 100.475 484.258 100.271 C484.562 100.269 484.761 100.28 484.858 100.305 C485.012 100.346 485.134 100.425 485.218 100.543 C485.306 100.661 485.349 100.828 485.349 101.044 C485.349 101.244 485.306 101.401 485.218 101.518 C485.155 101.604 485.054 101.656 484.913 101.675 L484.846 102.128 C485.143 102.136 485.364 102.038 485.513 101.836 M482.443 101.524 C482.276 101.38 482.193 101.205 482.193 100.996 C482.193 100.786 482.276 100.606 482.446 100.456 C482.619 100.307 482.872 100.233 483.208 100.233 C483.561 100.233 483.82 100.305 483.985 100.45 C484.15 100.595 484.234 100.774 484.234 100.989 C484.234 101.206 484.15 101.384 483.983 101.527 C483.818 101.671 483.553 101.743 483.193 101.743 C482.861 101.743 482.611 101.67 482.443 101.524" style="stroke-width:2.83; stroke-miterlimit:14.335; clip-path:url(#clipPath3); stroke:none;"/>
<path d="M484.31 98.91 C484.556 98.673 484.681 98.361 484.681 97.976 C484.681 97.735 484.623 97.514 484.512 97.31 C484.399 97.108 484.241 96.953 484.039 96.848 C483.837 96.741 483.558 96.688 483.202 96.688 C482.767 96.688 482.425 96.808 482.176 97.049 C481.928 97.288 481.805 97.598 481.805 97.976 C481.805 98.316 481.906 98.604 482.111 98.841 C482.355 99.125 482.733 99.266 483.242 99.266 C483.706 99.266 484.064 99.147 484.31 98.91 M482.453 98.556 C482.278 98.402 482.191 98.209 482.191 97.976 C482.191 97.746 482.278 97.554 482.454 97.4 C482.629 97.245 482.886 97.167 483.228 97.167 C483.587 97.167 483.857 97.244 484.032 97.398 C484.208 97.552 484.296 97.744 484.296 97.976 C484.296 98.209 484.208 98.402 484.033 98.556 C483.859 98.71 483.595 98.787 483.242 98.787 C482.89 98.787 482.627 98.71 482.453 98.556" style="stroke-width:2.83; stroke-miterlimit:14.335; clip-path:url(#clipPath1); stroke:none;"/>
<path d="M484.457 95.97 C484.607 95.782 484.681 95.509 484.681 95.152 C484.681 94.937 484.643 94.742 484.568 94.572 C484.492 94.402 484.385 94.27 484.249 94.18 C484.111 94.089 483.965 94.044 483.81 94.044 C483.652 94.044 483.518 94.08 483.411 94.155 C483.304 94.23 483.223 94.331 483.165 94.462 C483.11 94.593 483.038 94.823 482.949 95.152 C482.887 95.38 482.848 95.518 482.831 95.564 L482.706 95.744 L482.541 95.8 C482.448 95.8 482.365 95.755 482.295 95.662 C482.224 95.571 482.188 95.418 482.188 95.204 C482.188 95.023 482.228 94.882 482.306 94.783 C482.387 94.684 482.497 94.624 482.64 94.603 L482.575 94.148 C482.4 94.177 482.257 94.231 482.15 94.308 C482.045 94.385 481.959 94.506 481.898 94.669 C481.835 94.832 481.805 95.022 481.805 95.238 C481.805 95.381 481.823 95.515 481.861 95.641 C481.898 95.766 481.943 95.866 481.997 95.938 C482.065 96.034 482.153 96.11 482.257 96.167 C482.361 96.223 482.475 96.251 482.597 96.251 C482.732 96.251 482.855 96.217 482.965 96.149 C483.077 96.08 483.164 95.98 483.23 95.848 C483.292 95.716 483.365 95.478 483.452 95.137 C483.516 94.883 483.569 94.724 483.611 94.66 C483.671 94.569 483.753 94.523 483.86 94.523 C483.976 94.523 484.079 94.574 484.166 94.678 C484.253 94.782 484.297 94.941 484.297 95.155 C484.297 95.367 484.248 95.533 484.149 95.651 C484.051 95.77 483.909 95.842 483.725 95.866 L483.796 96.328 C484.089 96.277 484.308 96.158 484.457 95.97" style="stroke-width:2.83; stroke-miterlimit:14.335; clip-path:url(#clipPath1); stroke:none;"/>
<path d="M481.662 483.514 L481.662 521.95" style="fill:none; stroke: none; stroke-width:2.83; stroke-miterlimit:14.335; clip-path:url(#clipPath1);"/>
</g>
</svg>