<?xml version="1.0" encoding="UTF-8"?>
<svg height="778.132" width="2509.887" xmlns="http://www.w3.org/2000/svg">
 <g id="page" xmlns:svgx="http://www.xml-cml.org/schema/svgx">
  <g begin="text">
   <text y="56.296" x="42.86,46.439,50.018,51.6614,53.574,57.071,60.336,63.99,67.255,70.909,72.852,74.4954,76.476,81.064,82.693,84.3364,86.284,89.78,93.748,95.691,99.427,102.692,104.948,108.213,109.8564,111.85,118.462,120.091,121.7344,123.698,130.311,132.254,135.908,137.85,139.4934,141.442,146.03,147.659,149.3024,151.249,156.929,158.871,161.591,165.327,168.047,171.932,175.04,176.6834,178.687,184.366,186.00940000000003,187.928,193.2317,195.184,200.864,204.129,207.551,210.816,213.536,217.503,219.446,221.0894,223.076,228.598,230.24140000000003,232.146,236.734,239.842,243.107,246.215,248.472,250.414,254.15,258.1838,260.207,266.274,270.01,273.895,277.004,278.8715,280.841,284.577" svgx:width="0.48,0.48,0.22,0.55,0.47,0.44,0.49,0.44,0.49,0.26,0.22,0.55,0.61,0.22,0.22,0.55,0.47,0.53,0.26,0.5,0.44,0.3,0.44,0.22,0.55,0.88,0.22,0.22,0.55,0.88,0.26,0.49,0.26,0.22,0.55,0.61,0.22,0.22,0.55,0.76,0.26,0.36,0.5,0.36,0.52,0.42,0.22,0.55,0.76,0.22,0.55,0.71,0.55,0.76,0.44,0.46,0.44,0.36,0.53,0.26,0.22,0.55,0.74,0.22,0.55,0.61,0.42,0.44,0.42,0.3,0.26,0.5,0.54,0.55,0.81,0.5,0.52,0.42,0.25,0.55,0.5,0.29" style="fill:rgb(0,0,0);font-family:AdvOT1ef757c0;font-size:7.47px;stroke:none;">33. Sakaki, T., Shibata, M., Miki, T., Hirosue, H. &amp; Hayashi, N. Reaction model of</text>
   <text y="64.743" x="53.574,56.683,59.791,61.659,63.527,67.412,69.28,73.016,75.736,78.8734,80.841,84.727,87.835,90.943,94.679,100.746,104.631,108.448,111.168,113.11,115.367,117.31,121.045,125.0788,127.042,128.985,133.01880000000003,134.979,139.021,142.129,145.395,148.114,150.759,153.868,156.587,158.53,160.787,162.729,165.837,169.103,170.97050000000002,173.016,178.075,181.34,183.596,186.705,189.3942,191.384,194.649,198.691,202.5754,204.535,206.71,209.818,212.538,218.605,221.713,225.755,228.012,231.277,233.533,235.476,239.212,243.2458,245.294,249.03,251.1963,253.117,257.002,259.722,263.458,267.343,271.314,274.422,276.679,279.398" svgx:width="0.42,0.42,0.25,0.25,0.52,0.25,0.5,0.36,0.42,0.55,0.52,0.42,0.42,0.5,0.81,0.52,0.5,0.36,0.26,0.3,0.26,0.5,0.54,0.55,0.26,0.54,0.55,0.54,0.42,0.44,0.36,0.35,0.42,0.36,0.26,0.3,0.26,0.42,0.44,0.25,0.55,0.68,0.44,0.3,0.42,0.36,0.55,0.44,0.54,0.52,0.55,0.29,0.42,0.36,0.81,0.42,0.54,0.3,0.44,0.3,0.26,0.5,0.54,0.55,0.5,0.29,0.55,0.52,0.36,0.5,0.52,0.52,0.42,0.3,0.36,0.22" style="fill:rgb(0,0,0);font-family:AdvOT1ef757c0;font-size:7.47px;stroke:none;">cellulose decomposition in near-critical water and fermentation of products.</text>
   <text y="73.247" x="53.574,57.848,59.866,63.362,66.082,69.034,71.522,75.018,79.084,81.804,84.605,87.593,89.514,93.945,96.897,99.699,103.509,107.477,110.973,112.759" svgx:width="0.57,0.27,0.47,0.36,0.4,0.33,0.47,0.53,0.36,0.38,0.4,0.55,0.59,0.4,0.38,0.51,0.53,0.47,0.24,0.23" style="fill:rgb(0,0,0);font-family:AdvOT7d6df7ab.I;font-size:7.47px;stroke:none;">Bioresource Technol.</text>
   <text y="73.247" x="116.447,120.182" svgx:width="0.5,0.5" style="fill:rgb(0,0,0);font-family:AdvOTb65e897d.B;font-size:7.47px;stroke:none;">58</text>
   <text y="73.247" x="123.93,125.5734,127.502,131.081,134.66,138.239,142.049,145.628,149.207,152.7926,154.769,157.332,160.911,164.49,168.069,171.648,174.21" svgx:width="0.22,0.55,0.48,0.48,0.48,0.51,0.48,0.48,0.48,0.55,0.34,0.48,0.48,0.48,0.48,0.34,0.22" style="fill:rgb(0,0,0);font-family:AdvOT1ef757c0;font-size:7.47px;stroke:none;">, 197–202 (1996).</text>
   <text y="81.977" x="42.86,46.439,50.018,51.6614,53.574,59.096,61.039,64.304,68.04,69.6834,71.658,77.336,78.965,80.6084,82.542,86.973,90.941,94.049,98.091,101.59,103.2334,105.161,109.593,111.222,112.8654,114.799,119.23,123.197,126.463,130.505,133.927,135.5704,137.531,141.499,143.1424,145.071,150.3747,152.328,157.148,159.09,162.356,166.091,167.73440000000002,169.732,173.699,175.34240000000003,177.272,180.768,184.811" svgx:width="0.48,0.48,0.22,0.55,0.74,0.26,0.44,0.5,0.22,0.55,0.76,0.22,0.22,0.55,0.59,0.53,0.42,0.54,0.46,0.22,0.55,0.59,0.22,0.22,0.55,0.59,0.53,0.44,0.54,0.46,0.22,0.55,0.53,0.22,0.55,0.71,0.55,0.64,0.26,0.44,0.5,0.22,0.55,0.53,0.22,0.55,0.47,0.54,0.74" style="fill:rgb(0,0,0);font-family:AdvOT1ef757c0;font-size:7.47px;stroke:none;">34. Qiao, H., Zheng, Z., Zhang, L. &amp; Xiao, L. SnO</text>
   <text y="83.225" x="190.375" svgx:width="0.48" style="fill:rgb(0,0,0);font-family:AdvOT1ef757c0;font-size:4.98px;stroke:none;">2</text>
   <text y="81.978" x="193.039,198.643,203.5732,205.511,208.62,212.355,215.075,218.183,220.828,223.548,227.516,230.624,232.492,234.3595,236.35,239.069,242.955,246.922,250.03,252.75,255.858,258.578,260.22139999999996,262.199,264.919,268.341,272.383,274.64,278.607,281.715,284.435,286.378,289.097" svgx:width="0.75,0.66,0.55,0.42,0.5,0.36,0.42,0.35,0.36,0.53,0.42,0.25,0.25,0.55,0.36,0.52,0.53,0.42,0.36,0.42,0.36,0.22,0.55,0.36,0.46,0.54,0.3,0.53,0.42,0.36,0.26,0.36,0.22" style="fill:rgb(0,0,0);font-family:AdvOT1ef757c0;font-size:7.47px;stroke:none;">@C core-shell spheres: synthesis,</text>
   <text y="90.482" x="53.575,56.683,60.651,63.916,66.636,69.901,73.009,75.266,78.462,81.181,83.124,86.232,89.497,91.754,93.696,97.432,101.475,103.1184,105.048,108.314,112.356,116.2404,118.143,122.029,125.137,127.857,130.031,133.767,136.487,142.554,145.819,149.861,152.97,156.1074,158.052,159.995,164.02880000000002,165.932,168.651,171.76,175.182,178.29,181.01,183.73,185.672,189.408,191.276,194.41340000000002,196.317,200.284,202.227,204.872,206.814,210.55,214.58380000000002,216.555,219.274,221.531,225.267,227.987,231.252,234.674,237.782" svgx:width="0.42,0.53,0.44,0.36,0.44,0.42,0.3,0.42,0.36,0.26,0.42,0.44,0.3,0.26,0.5,0.54,0.22,0.55,0.44,0.54,0.52,0.55,0.52,0.42,0.36,0.29,0.5,0.36,0.81,0.44,0.54,0.42,0.42,0.55,0.26,0.54,0.55,0.36,0.42,0.46,0.42,0.36,0.36,0.26,0.5,0.25,0.42,0.55,0.53,0.26,0.35,0.26,0.5,0.54,0.55,0.36,0.3,0.5,0.36,0.44,0.46,0.42,0.22" style="fill:rgb(0,0,0);font-family:AdvOT1ef757c0;font-size:7.47px;stroke:none;">characterization, and performance in reversible Li-ion storage.</text>
   <text y="90.482" x="241.341,243.672,245.3901,247.294,253.831,257.485,259.742,262.693,265.413,267.1311,269.062,272.484,275.286,277.0041,278.869" svgx:width="0.31,0.23,0.55,0.88,0.49,0.3,0.4,0.36,0.23,0.55,0.46,0.38,0.23,0.55,0.27" style="fill:rgb(0,0,0);font-family:AdvOT7d6df7ab.I;font-size:7.47px;stroke:none;">J. Mater. Sc. i</text>
   <text y="90.482" x="282.783,286.519" svgx:width="0.5,0.5" style="fill:rgb(0,0,0);font-family:AdvOTb65e897d.B;font-size:7.47px;stroke:none;">43</text>
   <text y="90.482" x="290.267" svgx:width="0.22" style="fill:rgb(0,0,0);font-family:AdvOT1ef757c0;font-size:7.47px;stroke:none;">,</text>
   <text y="98.929" x="53.575,57.154,60.733,64.312,67.891,71.702,75.281,78.86,82.439,86.02459999999999,88.042,90.605,94.184,97.763,101.342,104.921,107.484" svgx:width="0.48,0.48,0.48,0.48,0.51,0.48,0.48,0.48,0.48,0.55,0.34,0.48,0.48,0.48,0.48,0.34,0.22" style="fill:rgb(0,0,0);font-family:AdvOT1ef757c0;font-size:7.47px;stroke:none;">2778–2784 (2008).</text>
   <text y="107.716" x="42.861,46.44,50.019,51.6624,53.122,56.618,60.504,64.546,66.1894,67.634,72.453,74.0964,75.571,82.183,83.812,85.4554,86.908,90.876,92.819,96.704,98.3474,99.833,102.239,103.8824,105.332,109.218,110.8614,112.305,119.051,123.019,124.962,126.6054,128.065,132.734,134.37740000000002,135.831,141.278,142.9214,144.391,149.838,152.558,155.6954,157.09,160.825,162.9913,164.516,167.624,170.889,173.609,177.345,181.081,185.123,188.388,191.496,194.605,198.341,202.226,204.9152,206.465,210.35,214.086,215.954,219.376,222.096,225.361,228.469,231.577,235.545,238.81,241.53,243.473,247.358,250.49540000000002,251.985,258.052,259.995,263.103,265.823,269.559,272.279,276.248,280.215,283.323,286.043,289.151" svgx:width="0.48,0.48,0.22,0.55,0.47,0.52,0.54,0.22,0.55,0.64,0.22,0.55,0.88,0.22,0.22,0.55,0.53,0.26,0.52,0.22,0.55,0.32,0.22,0.55,0.52,0.22,0.55,0.71,0.53,0.26,0.22,0.55,0.63,0.22,0.55,0.73,0.22,0.55,0.73,0.36,0.42,0.55,0.5,0.29,0.55,0.42,0.44,0.36,0.5,0.5,0.54,0.44,0.42,0.42,0.5,0.52,0.36,0.55,0.52,0.5,0.25,0.46,0.36,0.44,0.42,0.42,0.53,0.44,0.36,0.26,0.52,0.42,0.55,0.81,0.26,0.42,0.36,0.5,0.36,0.52,0.53,0.42,0.36,0.42,0.36" style="fill:rgb(0,0,0);font-family:AdvOT1ef757c0;font-size:7.47px;stroke:none;">35. Sun, X. M., Liu, J. F. &amp;Li, Y. D. Use of carbonaceous polysaccharide microspheres</text>
   <text y="116.163" x="53.122,56.387,59.0762,61.058,63.315,66.423,72.49,76.375,78.243,81.509,83.765,86.873,89.5622,91.557,93.731,97.467,100.1562,102.158,104.332,107.597,111.333,114.053,115.995,119.104,122.369,124.625,126.568,130.61,134.04620000000003,136.057,142.125,145.233,147.49,150.755,152.6225,154.595,158.331,161.827,163.77,167.655,170.79240000000001,172.735,176.702,180.438,182.306,184.174,187.91,192.9896,194.9,197.62,201.505,205.472,208.581,211.3,214.409,217.235" svgx:width="0.44,0.36,0.55,0.3,0.42,0.81,0.52,0.25,0.44,0.3,0.42,0.36,0.55,0.29,0.5,0.36,0.55,0.29,0.44,0.5,0.36,0.26,0.42,0.44,0.3,0.26,0.54,0.46,0.55,0.81,0.42,0.3,0.44,0.25,0.55,0.5,0.47,0.26,0.52,0.42,0.55,0.53,0.5,0.25,0.25,0.5,0.68,0.55,0.36,0.52,0.53,0.42,0.36,0.42,0.36,0.22" style="fill:rgb(0,0,0);font-family:AdvOT1ef757c0;font-size:7.47px;stroke:none;">as templates for fabricating metal oxide hollow spheres.</text>
   <text y="116.163" x="220.819,225.489,229.299,232.251,238.086,240.574,244.699,248.666,251.386,253.1041,255.058,257.389" svgx:width="0.63,0.51,0.4,0.78,0.33,0.55,0.53,0.36,0.23,0.55,0.31,0.23" style="fill:rgb(0,0,0);font-family:AdvOT7d6df7ab.I;font-size:7.47px;stroke:none;">Chem-Eur. J.</text>
   <text y="116.163" x="261.07,264.806" svgx:width="0.5,0.5" style="fill:rgb(0,0,0);font-family:AdvOTb65e897d.B;font-size:7.47px;stroke:none;">12</text>
   <text y="116.163" x="268.554" svgx:width="0.22" style="fill:rgb(0,0,0);font-family:AdvOT1ef757c0;font-size:7.47px;stroke:none;">,</text>
   <text y="124.61" x="53.122,56.701,60.28,63.859,67.438,71.248,74.827,78.406,81.985,85.5706,87.532,90.094,93.673,97.252,100.831,104.41,106.973" svgx:width="0.48,0.48,0.48,0.48,0.51,0.48,0.48,0.48,0.48,0.55,0.34,0.48,0.48,0.48,0.48,0.34,0.22" style="fill:rgb(0,0,0);font-family:AdvOT1ef757c0;font-size:7.47px;stroke:none;">2039–2047 (2006).</text>
   <text y="133.398" x="42.861,46.44,50.019,51.6624,53.518,58.495,61.76,65.182,68.447,72.489,74.1324,75.967,79.934,81.563,83.2064,85.094,90.384,93.103,96.368,98.625,101.733,104.841,106.709,108.3524,110.263,116.876,118.504,120.1474,121.997,126.586,129.851,132.108,136.075,139.811,143.696,146.416,150.07,153.492,155.1354,157.031,159.437,161.08040000000003,162.927,168.23069999999998,170.07,174.502,178.387,182.041,185.306,187.174,188.81740000000002,190.706,195.839,197.4824,199.322,204.844,208.109,212.151,215.887,218.996,221.715,225.229,227.948,230.205,233.47,235.338,237.206,239.149,243.191,246.32840000000002,248.187,252.775,254.718" svgx:width="0.48,0.48,0.22,0.55,0.67,0.44,0.46,0.44,0.54,0.22,0.55,0.53,0.22,0.22,0.55,0.71,0.36,0.44,0.3,0.42,0.42,0.25,0.22,0.55,0.88,0.22,0.22,0.55,0.61,0.44,0.3,0.53,0.5,0.52,0.36,0.49,0.46,0.22,0.55,0.32,0.22,0.55,0.71,0.55,0.59,0.52,0.49,0.44,0.25,0.22,0.55,0.69,0.22,0.55,0.74,0.44,0.54,0.5,0.42,0.36,0.46,0.36,0.3,0.44,0.25,0.25,0.26,0.54,0.42,0.55,0.61,0.26,0.74" style="fill:rgb(0,0,0);font-family:AdvOT1ef757c0;font-size:7.47px;stroke:none;">36. Kavan, L., Gratzel, M., Rathousky, J. &amp; Zukal, A. Nanocrystalline TiO</text>
   <text y="134.646" x="260.277" svgx:width="0.48" style="fill:rgb(0,0,0);font-family:AdvOT1ef757c0;font-size:4.98px;stroke:none;">2</text>
   <text y="133.398" x="264.813,267.375,270.641,274.683,277.948,280.204,283.47,286.189,289.298" svgx:width="0.34,0.44,0.54,0.44,0.3,0.44,0.36,0.42,0.34" style="fill:rgb(0,0,0);font-family:AdvOT1ef757c0;font-size:7.47px;stroke:none;">(anatase)</text>
   <text y="141.845" x="53.519,56.627,58.495,61.603,64.712,66.968,69.688,73.424,77.309,80.417,83.137,84.7804,86.738,90.235,94.12,96.84,99.014,102.279,105.387,108.5244,110.49,116.557,120.354,123.074,126.959,130.927,134.663,136.531,140.267,143.689,147.111,148.7544,150.682,153.947,157.833,160.553,164.288,167.008,170.976,173.233,175.176,178.911,182.954,184.59740000000002,186.566,189.831,193.873,197.7574,199.717,202.826,204.694,207.802,210.91,213.167,215.886,219.622,222.731,226.698,229.806,235.874,237.816,240.924,244.19,246.0575,248.072,251.957,254.677,258.413,262.298,265.407,268.126,270.383,272.325,275.434,278.153" svgx:width="0.42,0.25,0.42,0.42,0.3,0.36,0.5,0.52,0.42,0.36,0.22,0.55,0.47,0.52,0.36,0.29,0.44,0.42,0.42,0.55,0.81,0.5,0.36,0.52,0.53,0.5,0.25,0.5,0.46,0.46,0.22,0.55,0.44,0.52,0.36,0.5,0.36,0.52,0.3,0.26,0.5,0.54,0.22,0.55,0.44,0.54,0.52,0.55,0.42,0.25,0.42,0.42,0.3,0.36,0.5,0.42,0.53,0.42,0.81,0.26,0.42,0.44,0.25,0.55,0.52,0.36,0.5,0.52,0.42,0.36,0.3,0.26,0.42,0.36,0.22" style="fill:rgb(0,0,0);font-family:AdvOT1ef757c0;font-size:7.47px;stroke:none;">electrodes: Surface morphology, adsorption, and electrochemical properties.</text>
   <text y="150.349" x="53.519,55.85,57.5681,59.472,63.596,65.382,68.333,71.135,73.392,76.111,79.608,82.487,86.298,89.249,95.085,96.8031,98.757,102.179,105.676,108.478" svgx:width="0.31,0.23,0.55,0.55,0.24,0.4,0.38,0.3,0.36,0.47,0.38,0.51,0.4,0.78,0.23,0.55,0.46,0.47,0.38,0.23" style="fill:rgb(0,0,0);font-family:AdvOT7d6df7ab.I;font-size:7.47px;stroke:none;">J. Electrochem. Soc.</text>
   <text y="150.349" x="112.139,115.875,119.611" svgx:width="0.5,0.5,0.5" style="fill:rgb(0,0,0);font-family:AdvOTb65e897d.B;font-size:7.47px;stroke:none;">143</text>
   <text y="150.349" x="123.364,125.0074,126.935,130.514,134.093,137.672,141.483,145.062,148.641,152.2266,154.202,156.765,160.344,163.923,167.502,171.081,173.644" svgx:width="0.22,0.55,0.48,0.48,0.48,0.51,0.48,0.48,0.48,0.55,0.34,0.48,0.48,0.48,0.48,0.34,0.22" style="fill:rgb(0,0,0);font-family:AdvOT1ef757c0;font-size:7.47px;stroke:none;">, 394–400 (1996).</text>
   <text y="159.08" x="42.86,46.439,50.018,51.6614,53.575,60.808,64.073,68.115,71.537,73.1804,75.173,77.579,79.208,80.8514,82.77,86.969,90.705,92.633,94.501,97.609,101.495,104.991,106.6344,108.562,110.968,112.597,114.2404,116.216,120.183,122.126,128.193,129.83640000000003,131.805,134.211,135.85440000000003,137.758,143.0617,145.014,150.461,154.346,158.389,162.431,164.07440000000003,166.046,170.402,172.0454,173.982,178.181,180.901,184.009,187.895,191.78,195.516,198.624,201.889,205.775,209.04,212.148,214.091,216.347,218.29,221.826,224.9634,226.872,229.98,233.716,237.759,240.015,242.735,244.678,248.413,252.299,254.555,256.498,260.318,264.36,267.04920000000004,268.991,271.248" svgx:width="0.48,0.48,0.22,0.55,0.97,0.44,0.54,0.46,0.22,0.55,0.32,0.22,0.22,0.55,0.56,0.5,0.25,0.25,0.42,0.52,0.47,0.22,0.55,0.32,0.22,0.22,0.55,0.53,0.26,0.81,0.22,0.55,0.32,0.22,0.55,0.71,0.55,0.73,0.52,0.54,0.54,0.22,0.55,0.58,0.22,0.55,0.56,0.36,0.42,0.52,0.52,0.5,0.42,0.44,0.52,0.44,0.42,0.26,0.3,0.26,0.46,0.42,0.55,0.42,0.5,0.54,0.3,0.36,0.26,0.5,0.52,0.3,0.26,0.5,0.54,0.36,0.55,0.3,0.5" style="fill:rgb(0,0,0);font-family:AdvOT1ef757c0;font-size:7.47px;stroke:none;">37. Wang, J., Polleux, J., Lim, J. &amp; Dunn, B. Pseudocapacitive contributions to</text>
   <text y="167.583" x="53.575,56.683,58.551,61.66,64.768,67.024,69.744,73.48,76.588,80.556,83.664,89.731,91.783,94.891,98.156,100.02350000000001,101.817,104.925,108.967,112.075,114.795,118.217,121.6532,123.471,126.191,128.448,132.184,134.903,138.168,141.668,144.80540000000002,146.544,148.486,152.5198,154.367,158.956,160.898" svgx:width="0.42,0.25,0.42,0.42,0.3,0.36,0.5,0.42,0.53,0.42,0.81,0.26,0.42,0.44,0.25,0.55,0.42,0.54,0.42,0.36,0.46,0.46,0.55,0.36,0.3,0.5,0.36,0.44,0.46,0.42,0.55,0.26,0.54,0.55,0.61,0.26,0.74" style="fill:rgb(0,0,0);font-family:AdvOT1ef757c0;font-size:7.47px;stroke:none;">electrochemical energy storage in TiO</text>
   <text y="168.831" x="166.45" svgx:width="0.48" style="fill:rgb(0,0,0);font-family:AdvOT1ef757c0;font-size:4.98px;stroke:none;">2</text>
   <text y="167.584" x="170.929,173.492,176.757,180.799,184.065,186.321,189.586,192.306,195.414,197.9538,199.84,203.882,207.147,211.189,214.925,218.811,222.076,224.796,227.052,228.995,232.103,233.971,237.079,239.799" svgx:width="0.34,0.44,0.54,0.44,0.3,0.44,0.36,0.42,0.34,0.55,0.54,0.44,0.54,0.5,0.52,0.44,0.36,0.3,0.26,0.42,0.25,0.42,0.36,0.22" style="fill:rgb(0,0,0);font-family:AdvOT1ef757c0;font-size:7.47px;stroke:none;">(anatase) nanoparticles.</text>
   <text y="167.584" x="243.326,245.657,247.3751,249.165,253.289,257.1,260.365,262.853,264.5711,266.398,271.068,274.878,277.83,283.65659999999997,285.502,290.172" svgx:width="0.31,0.23,0.55,0.55,0.51,0.44,0.33,0.23,0.55,0.63,0.51,0.4,0.78,0.55,0.63,0.23" style="fill:rgb(0,0,0);font-family:AdvOT7d6df7ab.I;font-size:7.47px;stroke:none;">J. Phys. Chem C.</text>
   <text y="176.031" x="53.576,57.311,61.047" svgx:width="0.5,0.5,0.5" style="fill:rgb(0,0,0);font-family:AdvOTb65e897d.B;font-size:7.47px;stroke:none;">111</text>
   <text y="176.031" x="64.8,66.4434,68.372,71.951,75.53,79.109,82.688,86.267,90.077,93.656,97.235,100.814,104.393,107.9786,109.981,112.544,116.123,119.702,123.281,126.86,129.423" svgx:width="0.22,0.55,0.48,0.48,0.48,0.48,0.48,0.51,0.48,0.48,0.48,0.48,0.48,0.55,0.34,0.48,0.48,0.48,0.48,0.34,0.22" style="fill:rgb(0,0,0);font-family:AdvOT1ef757c0;font-size:7.47px;stroke:none;">, 14925–14931 (2007).</text>
   <text y="184.819" x="42.86,46.439,50.018,51.6614,53.348,57.315,59.258,63.143,64.7864,66.443,68.849,70.4924,72.225,77.904,79.533,81.1764,82.826,87.728,91.696,94.804,98.926,100.5694,102.215,104.621,106.2644,107.94,111.437,113.066,114.7094,116.444,123.677,126.785,128.728,130.37140000000002,132.09,136.909,138.5524,140.197,144.082,145.711,147.35440000000003,149.097,153.065,156.801,160.686,162.32940000000002,164.006,168.826,170.4694,172.169,179.402,181.0454,182.714,188.0177,189.687,193.655,195.597,199.551,201.1944,202.84,207.66,209.3034,211.003,218.237,219.8804,221.548,225.045,228.31,232.352,236.238,241.296,243.239,246.435,250.402,253.047,257.015,258.957,262.611,265.719,267.3624,269.053,272.55,274.806,278.072,281.18,284.834,287.942" svgx:width="0.48,0.48,0.22,0.55,0.53,0.26,0.52,0.22,0.55,0.32,0.22,0.55,0.76,0.22,0.22,0.55,0.66,0.53,0.42,0.54,0.22,0.55,0.32,0.22,0.55,0.47,0.22,0.22,0.55,0.97,0.42,0.26,0.22,0.55,0.64,0.22,0.55,0.52,0.22,0.22,0.55,0.53,0.5,0.52,0.22,0.55,0.64,0.22,0.55,0.97,0.22,0.55,0.71,0.55,0.53,0.26,0.52,0.22,0.55,0.64,0.22,0.55,0.97,0.22,0.55,0.47,0.44,0.54,0.52,0.68,0.26,0.42,0.53,0.35,0.53,0.26,0.49,0.42,0.22,0.55,0.47,0.3,0.44,0.42,0.49,0.42,0.52" style="fill:rgb(0,0,0);font-family:AdvOT1ef757c0;font-size:7.47px;stroke:none;">38. Liu, J. H., Chen, J. S., Wei, X. F., Lou, X. W. &amp; Liu, X. W. Sandwich-Like, Stacked</text>
   <text y="193.266" x="53.348,58.795,60.663,62.92,65.639,68.905,71.161,75.129,77.071,81.1048,83.11,87.698,89.64,91.897,95.162,99.204,102.469,104.726,107.8634,109.811,115.332,118.597,122.64,126.375,129.095,133.063,136.171,139.279,141.536,144.2252,146.261,148.435,152.171,154.8602,156.862,162.309,164.177,166.433,169.153,172.418,174.593,177.858,180.577,182.81799999999998,184.81,188.777,190.72,192.976,196.944,198.886,202.772,208.8227,210.83,214.327,216.583,220.319,223.039,226.304,229.726,232.835" svgx:width="0.73,0.25,0.3,0.36,0.44,0.3,0.53,0.26,0.54,0.55,0.61,0.26,0.3,0.44,0.54,0.44,0.3,0.42,0.55,0.74,0.44,0.54,0.5,0.36,0.53,0.42,0.42,0.3,0.36,0.55,0.29,0.5,0.36,0.55,0.73,0.25,0.3,0.36,0.44,0.29,0.44,0.36,0.3,0.55,0.53,0.26,0.3,0.53,0.26,0.52,0.81,0.55,0.47,0.3,0.5,0.36,0.44,0.46,0.42,0.22" style="fill:rgb(0,0,0);font-family:AdvOT1ef757c0;font-size:7.47px;stroke:none;">Ultrathin Titanate Nanosheets for Ultrafast Lithium Storage.</text>
   <text y="193.266" x="236.466,241.367,245.103,248.368,250.0861,252.055,258.593,262.246,264.503,267.454,270.174" svgx:width="0.66,0.5,0.44,0.23,0.55,0.88,0.49,0.3,0.4,0.36,0.23" style="fill:rgb(0,0,0);font-family:AdvOT7d6df7ab.I;font-size:7.47px;stroke:none;">Adv. Mater.</text>
   <text y="193.266" x="273.826,277.562" svgx:width="0.5,0.5" style="fill:rgb(0,0,0);font-family:AdvOTb65e897d.B;font-size:7.47px;stroke:none;">23</text>
   <text y="193.266" x="281.31" svgx:width="0.22" style="fill:rgb(0,0,0);font-family:AdvOT1ef757c0;font-size:7.47px;stroke:none;">,</text>
   <text y="201.769" x="53.349,56.928,60.507,64.086,67.897,71.476,75.055,78.634,82.2196,84.187,86.75,90.329,93.908,97.487,101.066,103.629" svgx:width="0.48,0.48,0.48,0.51,0.48,0.48,0.48,0.48,0.55,0.34,0.48,0.48,0.48,0.48,0.34,0.22" style="fill:rgb(0,0,0);font-family:AdvOT1ef757c0;font-size:7.47px;stroke:none;">998–1002 (2011).</text>
   <text y="210.5" x="42.861,46.44,50.019,51.6624,53.576,58.245,61.511,65.553,68.975,70.6184,72.566,76.063,77.7064,79.652,84.008,85.637,87.2804,89.232,93.118,96.226,100.268,103.69,105.3334,107.316,112.135,113.7784,115.706,119.673,121.3164,123.302,128.6057,130.502,137.115,141.001,142.869,144.737,147.845,151.887,153.53040000000001,155.502,160.479,162.12240000000003,164.063,167.56,170.825,174.867,178.753,183.905,185.847,188.956,192.923,195.568,199.536,201.478,205.132,208.24,209.88340000000002,211.852,217.142,219.862,223.127,227.012,230.98,234.088,238.13,241.239,243.884,248.24,251.505,254.225,257.333,261.21740000000005,263.268,267.856,269.798,272.055,275.32,279.362,281.305" svgx:width="0.48,0.48,0.22,0.55,0.63,0.44,0.54,0.46,0.22,0.55,0.47,0.22,0.55,0.58,0.22,0.22,0.55,0.52,0.42,0.54,0.46,0.22,0.55,0.64,0.22,0.55,0.53,0.22,0.55,0.71,0.55,0.88,0.52,0.25,0.25,0.42,0.54,0.22,0.55,0.67,0.22,0.55,0.47,0.44,0.54,0.52,0.68,0.26,0.42,0.53,0.35,0.53,0.26,0.49,0.42,0.22,0.55,0.71,0.36,0.44,0.52,0.53,0.42,0.54,0.42,0.35,0.58,0.44,0.36,0.42,0.52,0.55,0.61,0.26,0.3,0.44,0.54,0.26,0.44" style="fill:rgb(0,0,0);font-family:AdvOT1ef757c0;font-size:7.47px;stroke:none;">39. Yang, S. B., Feng, X. L. &amp; Mullen, K. Sandwich-Like, Graphene-Based Titania</text>
   <text y="219.004" x="53.576,59.097,62.362,66.405,70.14,72.86,76.828,79.936,83.044,85.301,87.9902,90.026,95.084,97.027,99.284,103.24310000000001,105.218,110.897,112.84,116.262,120.2211,122.225,125.722,129.607,132.327,134.501,137.766,140.875,144.0124,145.977,151.11,153.83,156.938,160.2248,162.133,164.308,168.044,170.7332,172.734,176.62,179.885,182.605,184.846,186.85,190.818,192.76,195.017,198.984,200.927,204.812,210.86270000000002,212.871,216.367,218.624,222.36,225.08,228.345,231.767,234.875" svgx:width="0.74,0.44,0.54,0.5,0.36,0.53,0.42,0.42,0.3,0.36,0.55,0.68,0.26,0.3,0.53,0.55,0.76,0.26,0.46,0.53,0.55,0.47,0.52,0.36,0.29,0.44,0.42,0.42,0.55,0.69,0.36,0.42,0.44,0.55,0.29,0.5,0.36,0.55,0.52,0.44,0.36,0.3,0.55,0.53,0.26,0.3,0.53,0.26,0.52,0.81,0.55,0.47,0.3,0.5,0.36,0.44,0.46,0.42,0.22" style="fill:rgb(0,0,0);font-family:AdvOT1ef757c0;font-size:7.47px;stroke:none;">Nanosheets with High Surface Area for Fast Lithium Storage.</text>
   <text y="219.004" x="238.507,243.409,247.144,250.41,252.1281,254.096,260.634,264.288,266.544,269.496,272.215" svgx:width="0.66,0.5,0.44,0.23,0.55,0.88,0.49,0.3,0.4,0.36,0.23" style="fill:rgb(0,0,0);font-family:AdvOT7d6df7ab.I;font-size:7.47px;stroke:none;">Adv. Mater.</text>
   <text y="219.004" x="275.868,279.603" svgx:width="0.5,0.5" style="fill:rgb(0,0,0);font-family:AdvOTb65e897d.B;font-size:7.47px;stroke:none;">23</text>
   <text y="219.004" x="283.351" svgx:width="0.22" style="fill:rgb(0,0,0);font-family:AdvOT1ef757c0;font-size:7.47px;stroke:none;">,</text>
   <text y="227.451" x="53.576,57.155,60.734,64.313,67.892,71.703,75.282,78.861,82.44,86.0256,88.043,90.606,94.185,97.764,101.343,104.922,107.485" svgx:width="0.48,0.48,0.48,0.48,0.51,0.48,0.48,0.48,0.48,0.55,0.34,0.48,0.48,0.48,0.48,0.34,0.22" style="fill:rgb(0,0,0);font-family:AdvOT1ef757c0;font-size:7.47px;stroke:none;">3575–3579 (2011).</text>
   <text y="236.238" x="42.862,46.441,50.02,51.6634,53.009,57.44,61.407,65.293,66.9364,68.315,72.514,74.1574,75.515,81.037" svgx:width="0.48,0.48,0.22,0.55,0.59,0.53,0.52,0.22,0.55,0.56,0.22,0.55,0.74,0.22" style="fill:rgb(0,0,0);font-family:AdvOT1ef757c0;font-size:7.47px;stroke:none;">40. Zhu, P. N.</text>
   <text y="236.238" x="84.077,87.028,89.269,90.653,94.307" svgx:width="0.4,0.3,0.55,0.49,0.24" style="fill:rgb(0,0,0);font-family:AdvOT7d6df7ab.I;font-size:7.47px;stroke:none;">et al</text>
   <text y="236.238" x="96.096,97.7394,99.1,103.068,106.804,110.846,114.2822,115.653,117.91,121.018,123.738,131.187,134.295,137.717,140.825,142.693,144.636,148.76,152.1962,153.523,156.243,158.499,162.384,166.27,168.212,171.321,174.0102,175.462,179.197,181.3633,182.774,185.882,187.75,190.859,193.967,196.223,198.943,202.679,205.399,209.284,213.169,217.20280000000002,218.658,223.245,225.188" svgx:width="0.22,0.55,0.53,0.5,0.54,0.46,0.55,0.3,0.42,0.36,0.81,0.42,0.46,0.42,0.25,0.26,0.54,0.46,0.55,0.36,0.3,0.52,0.52,0.26,0.42,0.36,0.55,0.5,0.29,0.55,0.42,0.25,0.42,0.42,0.3,0.36,0.5,0.36,0.52,0.52,0.54,0.55,0.61,0.26,0.74" style="fill:rgb(0,0,0);font-family:AdvOT1ef757c0;font-size:7.47px;stroke:none;">. Long termcycling studies of electrospun TiO</text>
   <text y="237.43" x="230.74" svgx:width="0.48" style="fill:rgb(0,0,0);font-family:AdvOT1ef757c0;font-size:4.98px;stroke:none;">2</text>
   <text y="236.239" x="234.765,238.808,242.073,246.115,249.851,252.571,254.827,257.547,261.432,264.54,266.797,270.682,273.402,276.51,279.1992,280.683,283.948,287.99" svgx:width="0.54,0.44,0.54,0.5,0.36,0.3,0.36,0.52,0.42,0.3,0.52,0.36,0.42,0.36,0.55,0.44,0.54,0.52" style="fill:rgb(0,0,0);font-family:AdvOT1ef757c0;font-size:7.47px;stroke:none;">nanostructures and</text>
   <text y="244.687" x="53.009,55.265,59.233,62.341,64.283,66.9722,68.994,72.103,75.839,81.906,85.791,89.527,92.247,94.189,96.446,99.554,102.2432,104.255,109.313,111.256,113.512,117.4711,119.447,126.06,133.292,138.194,143.715,148.303,150.9922,153.007,155.181,158.917,161.6062,163.608,166.327,169.436,172.544,176.511,179.777,182.496,185.918,189.027,192.292,196.028,197.896,201.0334,203.006,206.973,208.916,211.561,213.504,217.24,221.27380000000002,223.301,227.037,230.302,232.558,234.815,237.923,240.643,242.585,245.694,248.413" svgx:width="0.3,0.53,0.42,0.26,0.36,0.55,0.42,0.5,0.81,0.52,0.5,0.36,0.26,0.3,0.42,0.36,0.55,0.68,0.26,0.3,0.53,0.55,0.88,0.97,0.66,0.74,0.61,0.36,0.55,0.29,0.5,0.36,0.55,0.36,0.42,0.42,0.53,0.44,0.36,0.46,0.42,0.44,0.5,0.25,0.42,0.55,0.53,0.26,0.35,0.26,0.5,0.54,0.55,0.5,0.44,0.3,0.3,0.42,0.36,0.26,0.42,0.36,0.22" style="fill:rgb(0,0,0);font-family:AdvOT1ef757c0;font-size:7.47px;stroke:none;">their composites with MWCNTs for rechargeable Li-ion batteries.</text>
   <text y="244.687" x="252.057,256.487,258.975,261.8136,263.734,268.636,272.372,275.637" svgx:width="0.59,0.33,0.38,0.55,0.66,0.5,0.44,0.23" style="fill:rgb(0,0,0);font-family:AdvOT7d6df7ab.I;font-size:7.47px;stroke:none;">Rsc Adv.</text>
   <text y="244.687" x="279.269" svgx:width="0.5" style="fill:rgb(0,0,0);font-family:AdvOTb65e897d.B;font-size:7.47px;stroke:none;">2</text>
   <text y="244.687" x="283.011" svgx:width="0.22" style="fill:rgb(0,0,0);font-family:AdvOT1ef757c0;font-size:7.47px;stroke:none;">,</text>
   <text y="253.134" x="53.009,56.588,60.167,63.746,67.556,71.135,74.714,78.2996,80.275,82.838,86.417,89.996,93.575,97.154,99.717" svgx:width="0.48,0.48,0.48,0.51,0.48,0.48,0.48,0.55,0.34,0.48,0.48,0.48,0.48,0.34,0.22" style="fill:rgb(0,0,0);font-family:AdvOT1ef757c0;font-size:7.47px;stroke:none;">531–537 (2012).</text>
   <text y="261.921" x="42.86,46.439,50.018,51.6614,53.575,58.476,62.444,65.552,69.594,71.2374,73.189,77.62" svgx:width="0.48,0.48,0.22,0.55,0.66,0.53,0.42,0.54,0.22,0.55,0.59,0.22" style="fill:rgb(0,0,0);font-family:AdvOT1ef757c0;font-size:7.47px;stroke:none;">41. Chen, Z.</text>
   <text y="261.921" x="81.241,84.193,86.434,88.385,92.038" svgx:width="0.4,0.3,0.55,0.49,0.24" style="fill:rgb(0,0,0);font-family:AdvOT7d6df7ab.I;font-size:7.47px;stroke:none;">et al</text>
   <text y="261.921" x="93.827,95.4704,97.455,103.135,105.077,108.499,112.467,115.112,119.311,122.419,125.139,127.313,131.049,133.769,139.836,143.101,147.144,150.252,153.38940000000002,155.391,159.59,163.632,166.741,169.46,172.882,176.305,178.95,182.446,184.703,188.439,191.158,194.424,197.846,200.98340000000002,203.009,208.142,210.862,213.97,217.937,219.88,222.137,225.245,228.353,230.61,234.495,237.215,240.323,243.0122,245.071,247.246,249.965,253.701,259.75169999999997,261.738,266.639,269.905,272.624,276.36,280.096" svgx:width="0.22,0.55,0.76,0.26,0.46,0.53,0.35,0.56,0.42,0.36,0.29,0.5,0.36,0.81,0.44,0.54,0.42,0.42,0.55,0.56,0.54,0.42,0.36,0.46,0.46,0.35,0.47,0.3,0.5,0.36,0.44,0.46,0.42,0.55,0.69,0.36,0.42,0.53,0.26,0.3,0.42,0.42,0.3,0.52,0.36,0.42,0.36,0.55,0.29,0.36,0.5,0.81,0.55,0.66,0.44,0.36,0.5,0.5,0.54" style="fill:rgb(0,0,0);font-family:AdvOT1ef757c0;font-size:7.47px;stroke:none;">. High-Performance Energy-Storage Architectures from Carbon</text>
   <text y="270.368" x="53.575,59.097,62.362,66.404,70.14,72.396,76.282,80.018,83.126,85.8152,87.701,90.966,95.008,98.8924,100.683,106.205,109.47,113.512,117.248,120.356,123.076,126.589,129.309,131.566,134.831,136.6985,138.494,142.85,146.736,148.678,150.546,154.432,156.374,160.416,163.8522,165.648,170.004,171.872,175.608,178.716,182.37,185.09" svgx:width="0.74,0.44,0.54,0.5,0.3,0.52,0.5,0.42,0.36,0.55,0.44,0.54,0.52,0.55,0.74,0.44,0.54,0.5,0.42,0.36,0.46,0.36,0.3,0.44,0.25,0.55,0.58,0.52,0.26,0.25,0.52,0.26,0.54,0.46,0.55,0.58,0.25,0.5,0.42,0.49,0.36,0.22" style="fill:rgb(0,0,0);font-family:AdvOT1ef757c0;font-size:7.47px;stroke:none;">Nanotubes and Nanocrystal Building Blocks.</text>
   <text y="270.368" x="188.56,193.461,197.197,200.462,202.18009999999998,203.979,210.517,214.171,216.427,219.379,222.098" svgx:width="0.66,0.5,0.44,0.23,0.55,0.88,0.49,0.3,0.4,0.36,0.23" style="fill:rgb(0,0,0);font-family:AdvOT7d6df7ab.I;font-size:7.47px;stroke:none;">Adv. Mater.</text>
   <text y="270.368" x="225.637,229.373" svgx:width="0.5,0.5" style="fill:rgb(0,0,0);font-family:AdvOTb65e897d.B;font-size:7.47px;stroke:none;">24</text>
   <text y="270.368" x="233.121,234.76440000000002,236.523,240.102,243.681,247.26,250.839,254.649,258.228,261.807,265.386,268.9716,270.762,273.325,276.904,280.483,284.062,287.712,290.275" svgx:width="0.22,0.55,0.48,0.48,0.48,0.48,0.51,0.48,0.48,0.48,0.48,0.55,0.34,0.48,0.48,0.48,0.48,0.34,0.22" style="fill:rgb(0,0,0);font-family:AdvOT1ef757c0;font-size:7.47px;stroke:none;">, 2030–2036 (2012).</text>
   <text y="279.156" x="42.86,46.439,50.018,51.6614,53.575,57.542,59.485,63.37,65.0134,66.953,69.359,70.988,72.6314,74.607,79.508,83.476,86.584,90.626,92.2694,94.221,96.627,98.2704,100.23,103.727,105.356,106.9994,108.96,116.193,119.301,121.244,122.8874,124.833,129.653,131.282,132.92540000000002,134.867,138.835,142.571,146.456,148.0994,150.06,154.879,156.5224,158.507,165.739,167.38240000000002,169.277,174.58069999999998,176.534,180.501,182.444,186.329,187.97240000000002,189.912,194.731,196.431,199.076,206.309,207.9524,209.866,213.363,216.628,220.67,224.556,229.614,231.557,234.753,238.72,241.365,245.333,247.275,250.929,254.037,255.68040000000002,257.598,261.094,263.351,266.616,269.724,273.378,276.486" svgx:width="0.48,0.48,0.22,0.55,0.53,0.26,0.52,0.22,0.55,0.32,0.22,0.22,0.55,0.66,0.53,0.42,0.54,0.22,0.55,0.32,0.22,0.55,0.47,0.22,0.22,0.55,0.97,0.42,0.26,0.22,0.55,0.64,0.22,0.22,0.55,0.53,0.5,0.52,0.22,0.55,0.64,0.22,0.55,0.97,0.22,0.55,0.71,0.55,0.53,0.26,0.52,0.22,0.55,0.64,0.22,0.35,0.97,0.22,0.55,0.47,0.44,0.54,0.52,0.68,0.26,0.42,0.53,0.35,0.53,0.26,0.49,0.42,0.22,0.55,0.47,0.3,0.44,0.42,0.49,0.42,0.52" style="fill:rgb(0,0,0);font-family:AdvOT1ef757c0;font-size:7.47px;stroke:none;">42. Liu, J., Chen, J. S., Wei, X., Lou, X. W. &amp; Liu, X.-W. Sandwich-Like, Stacked</text>
   <text y="287.603" x="53.575,59.022,60.89,63.146,65.866,69.131,71.388,75.355,77.298,81.3318,83.337,87.924,89.867,92.123,95.389,99.431,102.696,104.953,108.0904,110.037,115.559,118.824,122.866,126.602,129.322,133.289,136.398,139.506,141.762,144.4512,146.488,148.662,152.398,155.0872,157.089,162.535,164.403,166.66,169.38,172.645,174.819,178.084,180.804,183.04500000000002,185.093,189.06,191.003,193.26,197.227,199.17,203.055,209.1057,211.057,214.553,216.81,220.546,223.266,226.531,229.953,233.061" svgx:width="0.73,0.25,0.3,0.36,0.44,0.3,0.53,0.26,0.54,0.55,0.61,0.26,0.3,0.44,0.54,0.44,0.3,0.42,0.55,0.74,0.44,0.54,0.5,0.36,0.53,0.42,0.42,0.3,0.36,0.55,0.29,0.5,0.36,0.55,0.73,0.25,0.3,0.36,0.44,0.29,0.44,0.36,0.3,0.55,0.53,0.26,0.3,0.53,0.26,0.52,0.81,0.55,0.47,0.3,0.5,0.36,0.44,0.46,0.42,0.22" style="fill:rgb(0,0,0);font-family:AdvOT1ef757c0;font-size:7.47px;stroke:none;">Ultrathin Titanate Nanosheets for Ultrafast Lithium Storage.</text>
   <text y="287.603" x="236.692,241.594,245.33,248.595,250.3131,252.281,258.819,262.473,264.729,267.681,270.401" svgx:width="0.66,0.5,0.44,0.23,0.55,0.88,0.49,0.3,0.4,0.36,0.23" style="fill:rgb(0,0,0);font-family:AdvOT7d6df7ab.I;font-size:7.47px;stroke:none;">Adv. Mater.</text>
   <text y="287.603" x="274.11,277.845" svgx:width="0.5,0.5" style="fill:rgb(0,0,0);font-family:AdvOTb65e897d.B;font-size:7.47px;stroke:none;">23</text>
   <text y="287.603" x="281.593" svgx:width="0.22" style="fill:rgb(0,0,0);font-family:AdvOT1ef757c0;font-size:7.47px;stroke:none;">,</text>
   <text y="296.106" x="53.576,57.155,60.734,64.313,68.123,71.702,75.281,78.86,82.4456,84.414,86.977,90.556,94.135,97.714,101.364,103.927" svgx:width="0.48,0.48,0.48,0.51,0.48,0.48,0.48,0.48,0.55,0.34,0.48,0.48,0.48,0.48,0.34,0.22" style="fill:rgb(0,0,0);font-family:AdvOT1ef757c0;font-size:7.47px;stroke:none;">998–1002 (2011).</text>
   <text y="304.837" x="42.861,46.44,50.019,51.6624,53.576,58.246,61.354,62.9974,64.97,67.376" svgx:width="0.48,0.48,0.22,0.55,0.63,0.42,0.22,0.55,0.32,0.22" style="fill:rgb(0,0,0);font-family:AdvOT1ef757c0;font-size:7.47px;stroke:none;">43. Ye, J.</text>
   <text y="304.837" x="70.924,73.875,76.116,78.124,81.777" svgx:width="0.4,0.3,0.55,0.49,0.24" style="fill:rgb(0,0,0);font-family:AdvOT7d6df7ab.I;font-size:7.47px;stroke:none;">et al</text>
   <text y="304.837" x="83.566,85.2094,87.137,92.66,95.925,99.967,103.703,107.589,111.401,114.12,117.856,121.742,124.4312,126.423,131.557,135.599,138.864,141.121,144.386,147.105,150.2424,152.16,156.809,158.752" svgx:width="0.22,0.55,0.74,0.44,0.54,0.5,0.52,0.5,0.36,0.5,0.52,0.36,0.55,0.69,0.54,0.44,0.3,0.44,0.36,0.42,0.55,0.61,0.26,0.74" style="fill:rgb(0,0,0);font-family:AdvOT1ef757c0;font-size:7.47px;stroke:none;">. Nanoporous Anatase TiO</text>
   <text y="306.085" x="164.239" svgx:width="0.48" style="fill:rgb(0,0,0);font-family:AdvOT1ef757c0;font-size:4.98px;stroke:none;">2</text>
   <text y="304.838" x="168.888,175.501,178.609,181.329,185.065,188.173,190.893,194.315,197.034,199.291,202.556,204.424,207.144,208.78740000000002,210.78,215.913,219.799,223.684,225.627,227.883,229.826,233.248,236.356,239.001,242.979,245.699,248.807,251.9444,253.863,257.36,260.782,264.825,267.081,271.049,274.157,276.877,278.819,281.539" svgx:width="0.88,0.42,0.36,0.5,0.42,0.36,0.46,0.36,0.3,0.44,0.25,0.36,0.22,0.55,0.69,0.52,0.52,0.26,0.3,0.26,0.46,0.42,0.35,0.52,0.36,0.42,0.42,0.55,0.47,0.46,0.54,0.3,0.53,0.42,0.36,0.26,0.36,0.22" style="fill:rgb(0,0,0);font-family:AdvOT1ef757c0;font-size:7.47px;stroke:none;">Mesocrystals: Additive-Free Synthesis,</text>
   <text y="313.341" x="53.575,58.163,61.271,67.338,70.603,73.323,76.977,80.332,84.067,85.935,89.0724,90.989,95.891,98.611,102.033,104.752,107.009,110.274,112.142,114.01,115.953,119.995,123.103,125.748,129.947,133.915,137.18,139.9,143.03740000000002,145.013,148.51,150.766,154.031,157.767,159.71,161.578,163.52,165.777,169.275,170.91840000000002,172.847,176.112,180.154,184.0384,185.999,188.487,194.554,198.439,201.159,204.895,208.317,211.425,215.3094,217.29,221.258,223.201,225.457,229.425,231.367,235.253,241.3037,243.311,245.799,249.841,252.561,255.669,258.389,260.646,262.588,266.324" svgx:width="0.61,0.42,0.81,0.44,0.36,0.49,0.44,0.5,0.25,0.42,0.55,0.66,0.36,0.46,0.36,0.3,0.44,0.25,0.25,0.26,0.54,0.42,0.35,0.56,0.53,0.44,0.36,0.42,0.55,0.47,0.3,0.44,0.5,0.26,0.25,0.26,0.3,0.46,0.22,0.55,0.44,0.54,0.52,0.55,0.33,0.81,0.52,0.36,0.5,0.46,0.42,0.52,0.55,0.53,0.26,0.3,0.53,0.26,0.52,0.81,0.55,0.33,0.54,0.36,0.42,0.36,0.3,0.26,0.5,0.54" style="fill:rgb(0,0,0);font-family:AdvOT1ef757c0;font-size:7.47px;stroke:none;">Remarkable Crystalline-Phase Stability, and Improved Lithium Insertion</text>
   <text y="321.788" x="53.575,57.931,61.039,65.007,68.272,71.694,73.637,77.373,80.092" svgx:width="0.58,0.42,0.53,0.44,0.46,0.26,0.5,0.36,0.22" style="fill:rgb(0,0,0);font-family:AdvOT1ef757c0;font-size:7.47px;stroke:none;">Behavior.</text>
   <text y="321.788" x="83.736,86.067,87.7851,89.745,94.646,100.482,102.2001,104.143,108.813,112.624,115.575,121.411,123.12910000000001,125.062,128.484,131.98,134.782" svgx:width="0.31,0.23,0.55,0.66,0.78,0.23,0.55,0.63,0.51,0.4,0.78,0.23,0.55,0.46,0.47,0.38,0.23" style="fill:rgb(0,0,0);font-family:AdvOT7d6df7ab.I;font-size:7.47px;stroke:none;">J. Am. Chem. Soc.</text>
   <text y="321.788" x="138.501,142.237,145.973" svgx:width="0.5,0.5,0.5" style="fill:rgb(0,0,0);font-family:AdvOTb65e897d.B;font-size:7.47px;stroke:none;">133</text>
   <text y="321.788" x="149.726,151.3694,153.297,156.876,160.455,164.034,167.845,171.424,175.003,178.58859999999999,180.564,183.127,186.706,190.285,193.864,197.443,200.006" svgx:width="0.22,0.55,0.48,0.48,0.48,0.51,0.48,0.48,0.48,0.55,0.34,0.48,0.48,0.48,0.48,0.34,0.22" style="fill:rgb(0,0,0);font-family:AdvOT1ef757c0;font-size:7.47px;stroke:none;">, 933–940 (2011).</text>
   <text y="56.297" x="303.873,307.452,311.031,312.6744,314.587,318.555,320.498,322.1414,324.111,329.633" svgx:width="0.48,0.48,0.22,0.55,0.53,0.26,0.22,0.55,0.74,0.22" style="fill:rgb(0,0,0);font-family:AdvOT1ef757c0;font-size:7.47px;stroke:none;">44. Li, N.</text>
   <text y="56.297" x="333.239,336.191,338.43199999999996,340.382,344.036" svgx:width="0.4,0.3,0.55,0.49,0.24" style="fill:rgb(0,0,0);font-family:AdvOT7d6df7ab.I;font-size:7.47px;stroke:none;">et al</text>
   <text y="56.297" x="345.825,347.4684,349.396,353.753,357.018,359.275,361.531,364.639,367.359,370.79519999999997,372.752,376.952,380.06,382.78,384.954,388.69,391.409,397.477,400.742,404.895,408.003,411.1404,413.058,416.323,420.366,424.2504,426.21,430.409,434.377,438.113,440.369,444.105,447.213,450.479,452.735,456.0,457.868,461.29,463.624,465.566,468.7034,470.596,475.729,478.838,481.094,483.037,486.459,488.402,490.658,494.0942,496.106,499.842,502.00829999999996,503.929,510.541,513.65,516.369,520.105,523.99,527.726,530.446,534.182,538.168" svgx:width="0.22,0.55,0.58,0.44,0.3,0.3,0.42,0.36,0.46,0.55,0.56,0.42,0.36,0.29,0.5,0.36,0.81,0.44,0.54,0.42,0.42,0.55,0.44,0.54,0.52,0.55,0.56,0.53,0.5,0.3,0.5,0.42,0.44,0.3,0.44,0.25,0.46,0.3,0.26,0.42,0.55,0.69,0.42,0.3,0.26,0.46,0.26,0.3,0.46,0.55,0.5,0.29,0.55,0.88,0.42,0.36,0.5,0.52,0.5,0.36,0.5,0.52,0.36" style="fill:rgb(0,0,0);font-family:AdvOT1ef757c0;font-size:7.47px;stroke:none;">. Battery Performance and Photocatalytic Activity of Mesoporous</text>
   <text y="64.744" x="314.587,319.721,323.763,327.028,329.284,332.55,335.269,338.4064,340.381,344.969,346.911" svgx:width="0.69,0.54,0.44,0.3,0.44,0.36,0.42,0.55,0.61,0.26,0.74" style="fill:rgb(0,0,0);font-family:AdvOT1ef757c0;font-size:7.47px;stroke:none;">Anatase TiO</text>
   <text y="65.99" x="352.46" svgx:width="0.48" style="fill:rgb(0,0,0);font-family:AdvOT1ef757c0;font-size:4.98px;stroke:none;">2</text>
   <text y="64.743" x="357.109,362.63,365.895,369.938,373.674,376.393,380.279,384.246,387.354,390.074,393.182,395.902,398.308,403.598,406.318,409.583,413.468,417.436,420.544,424.586,427.7234,429.782,434.685,438.42,444.488,448.373,452.109,454.829,456.771,459.028,462.136,464.8252,466.857,470.593,474.0292,475.928,480.577,483.685,489.752,493.638,495.506,498.771,501.027,504.136,506.781,510.666,513.386,516.494,519.6314,521.619,525.116,528.224,530.092,532.266" svgx:width="0.74,0.44,0.54,0.5,0.36,0.52,0.53,0.42,0.36,0.42,0.36,0.32,0.71,0.36,0.44,0.52,0.53,0.42,0.54,0.42,0.55,0.66,0.5,0.81,0.52,0.5,0.36,0.26,0.3,0.42,0.36,0.55,0.5,0.46,0.55,0.61,0.42,0.81,0.52,0.25,0.44,0.3,0.42,0.35,0.52,0.36,0.42,0.42,0.55,0.47,0.42,0.25,0.29,0.35" style="fill:rgb(0,0,0);font-family:AdvOT1ef757c0;font-size:7.47px;stroke:none;">Nanospheres/Graphene Composites by Template-Free Self-</text>
   <text y="73.247" x="314.589,319.722,322.442,325.161,328.27,334.337,338.073,339.941,343.443" svgx:width="0.69,0.36,0.36,0.42,0.81,0.5,0.25,0.46,0.22" style="fill:rgb(0,0,0);font-family:AdvOT1ef757c0;font-size:7.47px;stroke:none;">Assembly.</text>
   <text y="73.247" x="347.017,351.919,355.655,358.92,360.6381,362.606,366.492,370.459,374.427,377.229,379.485,381.2031,383.128,389.665,393.319,395.576,398.604,401.324" svgx:width="0.66,0.5,0.44,0.23,0.55,0.52,0.53,0.53,0.38,0.3,0.23,0.55,0.88,0.49,0.3,0.4,0.36,0.23" style="fill:rgb(0,0,0);font-family:AdvOT7d6df7ab.I;font-size:7.47px;stroke:none;">Adv. Funct. Mater.</text>
   <text y="73.247" x="404.957,408.693" svgx:width="0.5,0.5" style="fill:rgb(0,0,0);font-family:AdvOTb65e897d.B;font-size:7.47px;stroke:none;">21</text>
   <text y="73.247" x="412.441,414.08439999999996,416.013,419.591,423.17,426.749,430.328,434.139,437.718,441.297,444.876,448.4616,450.479,453.042,456.621,460.2,463.779,467.358,469.921" svgx:width="0.22,0.55,0.48,0.48,0.48,0.48,0.51,0.48,0.48,0.48,0.48,0.55,0.34,0.48,0.48,0.48,0.48,0.34,0.22" style="fill:rgb(0,0,0);font-family:AdvOT1ef757c0;font-size:7.47px;stroke:none;">, 1717–1722 (2011).</text>
   <text y="108.113" x="303.874,311.162,315.695,322.197,328.406,334.615,343.975,346.73,352.446,358.854,365.157,374.423,380.14,386.348,389.699" svgx:width="0.77,0.48,0.69,0.66,0.66,0.99,0.29,0.6,0.68,0.67,0.98,0.6,0.66,0.35,0.51" style="fill:rgb(0,0,0);font-family:AdvOTf32ed098.B;font-size:9.46px;stroke:none;">Acknowledgments</text>
   <text y="116.561" x="303.874,308.156,311.859,313.672,316.18120000000005,318.046,322.768,326.255,328.793,332.2083,334.034,338.755,341.802,344.31120000000004,346.165,348.704,352.33,356.029,359.655,363.142,365.681,367.787,370.688,374.31239999999997,376.153,379.64,382.8462,384.657,386.763,390.466,393.3934,395.201,398.465,400.571,403.619,406.157,408.263,411.89,415.51439999999997,417.367,420.993,424.48,428.106,431.879,435.506,438.553,440.659,442.473,446.051,449.8148,451.663,455.151,457.1723,458.977,463.552,467.255,469.069,472.841,475.9078,477.741,482.533,485.434,488.482,492.108,495.088,500.752,503.95820000000003,505.747,509.233,511.2543,513.116,517.036,520.809,524.003,525.816,529.589,532.49,535.391,537.929,539.742,543.515" svgx:width="0.61,0.53,0.26,0.36,0.55,0.68,0.5,0.36,0.49,0.55,0.68,0.44,0.36,0.55,0.36,0.52,0.52,0.52,0.5,0.36,0.3,0.42,0.52,0.55,0.5,0.46,0.55,0.3,0.53,0.42,0.55,0.47,0.3,0.44,0.36,0.3,0.52,0.52,0.55,0.52,0.5,0.52,0.54,0.52,0.44,0.3,0.26,0.5,0.54,0.55,0.5,0.29,0.55,0.66,0.53,0.26,0.54,0.44,0.55,0.69,0.42,0.44,0.52,0.42,0.81,0.46,0.55,0.5,0.29,0.55,0.56,0.54,0.46,0.26,0.54,0.42,0.42,0.36,0.26,0.54,0.46" style="fill:rgb(0,0,0);font-family:AdvOT1ef757c0;font-size:6.97px;stroke:none;">This work was supported by the Startup Foundation of China Academy of Engineering</text>
   <text y="125.008" x="303.874,307.793,311.496,314.69,317.229,319.042,321.943,324.481,326.01439999999997,327.853,330.176,333.948,336.487,338.593,340.406,342.512,346.22,348.326,351.2534,353.023,356.51,358.5313,360.393,364.968,368.671,371.572,377.235,379.048,381.949,384.997,386.7395,388.567,394.803,397.851,399.957,402.858,405.396,407.21,410.257,412.0,414.5092,416.402,418.794,423.438,425.684,430.259,434.757,438.097,441.438,444.778,448.118,451.459,454.8046,456.65,459.698,463.471,467.0954,468.952,473.597,475.842,480.417,484.995,488.336,491.676,495.017,498.357,501.698,505.038,507.4078,509.258,512.305,516.078,519.7024,521.56,526.714,529.762,531.868,533.681,537.168,540.94,543.988" svgx:width="0.56,0.53,0.46,0.36,0.26,0.42,0.36,0.22,0.55,0.33,0.54,0.36,0.3,0.26,0.3,0.52,0.3,0.42,0.55,0.5,0.29,0.55,0.66,0.53,0.42,0.81,0.26,0.42,0.44,0.25,0.55,0.88,0.44,0.3,0.42,0.36,0.26,0.44,0.25,0.36,0.55,0.34,0.67,0.32,0.66,0.64,0.48,0.48,0.48,0.48,0.48,0.48,0.55,0.44,0.54,0.52,0.55,0.67,0.32,0.66,0.64,0.48,0.48,0.48,0.48,0.48,0.48,0.34,0.55,0.44,0.54,0.52,0.55,0.74,0.44,0.3,0.26,0.5,0.54,0.44,0.25" style="fill:rgb(0,0,0);font-family:AdvOT1ef757c0;font-size:6.97px;stroke:none;">Physics, Institute of Chemical Materials (KJCX201301 and KJCX201306) and National</text>
   <text y="133.512" x="303.874,309.174,310.987,314.181,317.884,320.353,322.459,325.36,328.261,331.9551,333.805,338.087,340.988,343.527,346.504,349.552,352.09,354.991,358.6851,360.507,363.554,367.327,370.9514,372.809,377.893,380.794,383.988,386.889,388.633,392.12,395.825,401.488,404.389,408.161,410.252,412.095,416.014,418.552,422.039,425.233,427.772,430.819,436.4647,438.342,440.734,444.074,447.415,450.7606,452.628,456.547,459.086,462.572,465.766,468.305,471.352,477.015,478.54839999999996,480.405,485.559,489.046,490.566,493.906,497.247,500.587,503.928,508.719,513.51,516.85,520.191,523.531,526.872,530.212,533.635,536.027,537.5604000000001,539.36,543.642,547.41" svgx:width="0.76,0.26,0.46,0.53,0.35,0.3,0.42,0.42,0.53,0.55,0.61,0.42,0.36,0.42,0.44,0.36,0.42,0.53,0.55,0.44,0.54,0.52,0.55,0.73,0.42,0.46,0.42,0.25,0.5,0.52,0.81,0.42,0.54,0.3,0.55,0.56,0.36,0.5,0.46,0.36,0.44,0.81,0.55,0.34,0.48,0.48,0.48,0.55,0.56,0.36,0.5,0.46,0.36,0.44,0.81,0.22,0.55,0.74,0.5,0.22,0.48,0.48,0.48,0.48,0.69,0.69,0.48,0.48,0.48,0.48,0.48,0.48,0.34,0.22,0.55,0.61,0.53,0.42" style="fill:rgb(0,0,0);font-family:AdvOT1ef757c0;font-size:6.97px;stroke:none;">High-tech Research and Development Program (863 Program: No.2013AA050905). The</text>
   <text y="141.959" x="303.874,306.921,310.548,312.654,316.357,319.844,322.382,324.8912,326.776,329.823,332.724,336.135,339.908,343.394,348.116,349.859,352.76,356.48,359.674,362.60139999999996,364.36,366.898,370.525,374.223,377.85,381.337,383.875,385.966,387.772,391.259,393.2803,395.142,397.248,400.951,403.8784,405.686,410.841,413.888,415.994,417.808,421.294,425.067,428.115,429.8575,431.707,436.282,439.183,442.956,445.062,447.963,450.47220000000004,452.398,454.428,457.915,460.42420000000004,462.263,466.182,467.925,470.827,473.728,475.834,478.372,481.934,485.69780000000003,487.49,493.662,495.475,498.377,500.915,504.402,506.94,509.939,513.426,517.052,520.246,521.7794,523.601,527.304,530.351,535.073,537.611,540.512,544.285,547.186" svgx:width="0.44,0.52,0.3,0.53,0.5,0.36,0.36,0.55,0.44,0.42,0.49,0.54,0.5,0.68,0.25,0.42,0.52,0.46,0.42,0.55,0.36,0.52,0.52,0.52,0.5,0.36,0.3,0.55,0.5,0.29,0.55,0.3,0.53,0.42,0.55,0.74,0.44,0.3,0.26,0.5,0.54,0.44,0.25,0.55,0.66,0.42,0.54,0.3,0.42,0.36,0.55,0.29,0.5,0.36,0.55,0.56,0.25,0.42,0.42,0.3,0.36,0.5,0.54,0.55,0.88,0.26,0.42,0.36,0.5,0.36,0.42,0.5,0.52,0.46,0.22,0.55,0.53,0.44,0.68,0.36,0.42,0.54,0.42,0.42" style="fill:rgb(0,0,0);font-family:AdvOT1ef757c0;font-size:6.97px;stroke:none;">authors acknowledge support of the National Center for Electron Microscopy, Lawrence</text>
   <text y="150.463" x="303.874,307.94,310.841,313.379,316.789,319.69,321.434,324.335,327.5412,329.383,333.086,336.134,339.621,341.15439999999995,342.989,347.71,351.413,353.226,356.127,359.8211,361.696,363.509,366.01820000000004,367.875,370.414,374.04,377.666,381.293,384.78,387.318,389.424,392.325,395.94939999999997,397.807,401.294,404.5002,406.311,408.417,412.12,415.0474,416.855,421.94,423.46,426.724,428.25739999999996,430.121,435.205,438.106,441.733,444.78,447.319,449.425,455.087,457.988,461.761,463.85200000000003,465.778,469.265,471.2863,473.091,477.01,480.783,483.684,486.223,489.417,492.6232,494.463,498.089,501.862,505.488,508.389,510.89820000000003,512.83,517.405,520.891,524.664,526.77,529.309,532.356,535.257,537.348,539.19" svgx:width="0.58,0.42,0.36,0.49,0.42,0.25,0.42,0.46,0.55,0.53,0.44,0.5,0.22,0.55,0.68,0.53,0.26,0.42,0.53,0.55,0.26,0.36,0.55,0.36,0.52,0.52,0.52,0.5,0.36,0.3,0.42,0.52,0.55,0.5,0.46,0.55,0.3,0.53,0.42,0.55,0.73,0.22,0.47,0.22,0.55,0.73,0.42,0.52,0.44,0.36,0.3,0.81,0.42,0.54,0.3,0.55,0.5,0.29,0.55,0.56,0.54,0.42,0.36,0.46,0.46,0.55,0.52,0.54,0.52,0.42,0.36,0.55,0.66,0.5,0.54,0.3,0.36,0.44,0.42,0.3,0.55,0.48" style="fill:rgb(0,0,0);font-family:AdvOT1ef757c0;font-size:6.97px;stroke:none;">Berkeley Lab, which is supported by the U.S. Department of Energy under Contract #</text>
   <text y="158.91" x="303.874,308.958,312.877,315.346,320.137,324.712,328.052,331.392,333.861,337.202,340.542,345.199,350.499,353.84,357.18,360.521,363.861,367.202" svgx:width="0.73,0.56,0.35,0.69,0.66,0.48,0.48,0.35,0.48,0.48,0.66,0.76,0.48,0.48,0.48,0.48,0.48,0.22" style="fill:rgb(0,0,0);font-family:AdvOT1ef757c0;font-size:6.97px;stroke:none;">DE-AC02-05CH11231.</text>
   <text y="181.814" x="303.874,311.162,317.253,320.604,326.812,332.9,337.157,339.533,344.066,350.275,356.37,359.721,363.951,366.575,372.982,379.047,382.398,385.152,391.236,397.445" svgx:width="0.77,0.66,0.35,0.66,0.66,0.45,0.55,0.48,0.66,0.66,0.35,0.45,0.29,0.68,0.66,0.35,0.29,0.66,0.66,0.51" style="fill:rgb(0,0,0);font-family:AdvOTf32ed098.B;font-size:9.46px;stroke:none;">Author contributions</text>
   <text y="190.261" x="304.668,306.913,308.433,312.137,313.657,318.232,319.7654,321.617,324.665,328.438,332.06239999999997,333.919,337.985,339.505,346.256,347.78939999999994,349.622,353.249,356.15,358.688,360.501,363.695,367.468,370.369,373.9934,375.869,378.916,382.689,386.3134,388.171,391.072,394.119,396.658,399.196,401.009,403.91,407.5344,409.429,412.916,416.542,418.633,420.483,423.021,425.922,428.461,431.362,434.41,436.948,439.849,443.552,445.0854,446.956,450.004,453.777,456.825,458.568,461.762,464.663,467.564,471.1884,473.033,476.66,479.707,481.813,484.8798,486.696,489.743,493.516,497.1404,498.997,503.719,506.258,509.745,511.851,514.7784,516.628,518.735,522.438,525.3654,527.173,530.8,533.847,537.474,540.375,542.913" svgx:width="0.32,0.22,0.53,0.22,0.66,0.22,0.55,0.44,0.54,0.52,0.55,0.58,0.22,0.97,0.22,0.55,0.52,0.42,0.36,0.26,0.46,0.54,0.42,0.52,0.55,0.44,0.54,0.52,0.55,0.42,0.44,0.36,0.36,0.26,0.42,0.52,0.55,0.5,0.52,0.3,0.55,0.36,0.42,0.36,0.42,0.44,0.36,0.42,0.53,0.22,0.55,0.44,0.54,0.44,0.25,0.46,0.42,0.42,0.52,0.55,0.52,0.44,0.3,0.44,0.55,0.44,0.54,0.52,0.55,0.68,0.36,0.5,0.3,0.42,0.55,0.3,0.53,0.42,0.55,0.52,0.44,0.52,0.42,0.36,0.22" style="fill:rgb(0,0,0);font-family:AdvOT1ef757c0;font-size:6.97px;stroke:none;">J.L.C. and B.W. designed and carried out research, analyzed data and wrote the paper.</text>
   <text y="198.765" x="303.874,309.174,310.694,314.397,315.918,320.416,321.94939999999997,323.772,326.673,330.16,333.932,337.559,341.185,344.179,346.285,349.186,352.81039999999996,354.61,356.716,360.419,363.34639999999996,365.154,369.436,373.355,379.4886,381.368,387.03,389.931,392.979,395.596,399.223,401.761,404.662,410.325,413.226,416.999,419.105,421.643,423.17639999999994,425.017,429.515,431.036,436.119,437.715,441.418,442.938,444.47139999999996,446.275,451.213,452.733,457.308,458.828,463.187,464.7204,466.57,469.617,473.39,477.01439999999997,478.872,482.499,484.019,489.103,490.623,495.777,497.31039999999996,499.167,502.214,503.958,506.496,509.981,511.808,514.709,518.196,521.969,524.075,526.614,528.427,531.914,535.54,537.646,540.547" svgx:width="0.76,0.22,0.53,0.22,0.64,0.22,0.55,0.42,0.5,0.54,0.52,0.52,0.42,0.3,0.42,0.52,0.55,0.3,0.53,0.42,0.55,0.61,0.56,0.88,0.55,0.81,0.42,0.44,0.36,0.52,0.36,0.42,0.81,0.42,0.54,0.3,0.36,0.22,0.55,0.64,0.22,0.73,0.22,0.53,0.22,0.22,0.55,0.71,0.22,0.66,0.22,0.63,0.22,0.55,0.44,0.54,0.52,0.55,0.52,0.22,0.73,0.22,0.74,0.22,0.55,0.44,0.25,0.36,0.5,0.55,0.42,0.5,0.54,0.3,0.36,0.26,0.5,0.52,0.3,0.42,0.52" style="fill:rgb(0,0,0);font-family:AdvOT1ef757c0;font-size:6.97px;stroke:none;">H.L.X. conducted the TEM measurements. X.D.L., G.C.Y. and F.D.N. also contributed</text>
   <text y="207.213" x="303.874,306.775,310.039,312.145,315.046,318.819,321.357,323.17,326.364,329.266,331.009,334.21520000000004,336.073,338.179,341.664,343.499,345.605,349.308,352.23539999999997,354.043,358.765,362.252,364.791,368.2063,370.03,373.657,376.195,379.096,381.635,384.536,388.397,390.503,393.404,397.0284,398.828,400.641,404.4048,406.254,408.36,412.063,413.877,416.38620000000003,418.272,421.898,424.946,428.572,431.473,434.012,435.5454,437.376,442.167,443.911,445.6535,447.466,450.514,454.14,456.246,459.95,463.51,466.048,468.5572,470.426,472.964,475.865,479.059,480.872,483.773,488.495,491.396,495.0204,496.899,499.005,502.708,505.6354,507.443,513.107,516.154,519.927,523.553,526.092,528.993,531.531,533.345,536.971,539.077" svgx:width="0.42,0.47,0.3,0.42,0.54,0.36,0.26,0.46,0.42,0.25,0.46,0.55,0.3,0.5,0.55,0.3,0.53,0.42,0.55,0.68,0.5,0.36,0.49,0.55,0.52,0.36,0.42,0.36,0.42,0.54,0.3,0.42,0.52,0.55,0.26,0.54,0.55,0.3,0.53,0.26,0.36,0.55,0.52,0.44,0.52,0.42,0.36,0.22,0.55,0.69,0.25,0.25,0.55,0.44,0.52,0.3,0.53,0.5,0.36,0.36,0.55,0.36,0.42,0.46,0.26,0.42,0.68,0.42,0.52,0.55,0.3,0.53,0.42,0.55,0.81,0.44,0.54,0.52,0.36,0.42,0.36,0.26,0.52,0.3,0.22" style="fill:rgb(0,0,0);font-family:AdvOT1ef757c0;font-size:6.97px;stroke:none;">extensively to the work presented in this paper. All authors reviewed the manuscript.</text>
   <text y="230.117" x="303.874,311.162,317.569,323.83,326.584,329.935,332.561,338.77,344.863,351.271,354.0144,356.372,359.126,365.335,368.845,375.053,379.284,388.55,394.81,398.16,400.914,406.998" svgx:width="0.77,0.68,0.68,0.29,0.35,0.29,0.66,0.66,0.68,0.29,0.55,0.29,0.66,0.38,0.66,0.45,0.98,0.68,0.35,0.29,0.66,0.66" style="fill:rgb(0,0,0);font-family:AdvOTf32ed098.B;font-size:9.46px;stroke:none;">Additional information</text>
   <text y="238.62" x="303.874,307.284,311.057,314.76,318.463,320.276,323.254,329.063,332.041,335.891,338.136,341.345,344.03,347.2362,349.055,351.015,354.864,357.04,360.597,363.282,369.091,372.208,374.454,376.413,379.97" svgx:width="0.49,0.54,0.53,0.53,0.26,0.43,0.83,0.43,0.55,0.32,0.45,0.38,0.46,0.55,0.28,0.55,0.31,0.51,0.38,0.83,0.45,0.32,0.28,0.51,0.55" style="fill:rgb(0,0,0);font-family:AdvOT5e4d79fc;font-size:6.97px;stroke:none;">Supplementary information</text>
   <text y="238.62" x="385.682,388.73,391.631,394.532,398.019,403.766,407.392,410.44,414.213,416.026,418.927,421.43620000000004,423.323,425.429,429.132,430.946,433.45520000000005,435.285,438.911,441.959,445.659,448.56,451.0692,452.915,455.963,458.05400000000003,459.888,463.592,465.698,467.804,471.431,472.951,475.196,477.442,482.163,486.884,491.691,493.211,496.984,500.031,502.138,505.764,508.302,511.203,512.724,515.625,519.112,524.774" svgx:width="0.44,0.42,0.42,0.5,0.81,0.52,0.44,0.54,0.26,0.42,0.36,0.55,0.3,0.53,0.26,0.36,0.55,0.52,0.44,0.52,0.42,0.36,0.55,0.44,0.3,0.55,0.53,0.3,0.3,0.52,0.22,0.32,0.32,0.68,0.68,0.68,0.22,0.54,0.44,0.3,0.52,0.36,0.42,0.22,0.42,0.5,0.81,0.32" style="fill:rgb(0,0,0);font-family:AdvOT1ef757c0;font-size:6.97px;stroke:none;">accompanies this paper at http://www.nature.com/</text>
   <text y="247.068" x="303.874,306.412,309.313,311.127,314.028,317.801,319.907,321.72,323.749,325.562,328.464,331.002,333.903,337.529,341.016,343.668,345.775" svgx:width="0.36,0.42,0.26,0.42,0.54,0.3,0.26,0.29,0.26,0.42,0.36,0.42,0.52,0.5,0.36,0.3,0.36" style="fill:rgb(0,0,0);font-family:AdvOT1ef757c0;font-size:6.97px;stroke:none;">scientificreports</text>
   <text y="258.519" x="303.874,308.518,312.075,317.884,321.587,324.565,326.811,328.77,332.62,335.9656,337.83,340.006,341.966,345.815,348.932,352.782,355.683,357.643,360.846,362.6582,364.474,366.434,370.283,372.529,375.507,378.192,381.169,383.785,386.03,388.645" svgx:width="0.67,0.51,0.83,0.53,0.43,0.32,0.28,0.55,0.48,0.55,0.31,0.28,0.55,0.45,0.55,0.42,0.28,0.45,0.26,0.55,0.28,0.55,0.32,0.43,0.38,0.43,0.38,0.32,0.38,0.24" style="fill:rgb(0,0,0);font-family:AdvOT5e4d79fc;font-size:6.97px;stroke:none;">Competing financial interests:</text>
   <text y="258.519" x="392.145,396.427,400.195,403.12239999999997,404.9,407.947,411.574,413.68,417.383,420.87,423.408,425.91720000000004,427.802,431.428,434.329,437.23,438.974,442.021,444.56,447.4874,449.343,453.116,456.601,458.414,461.315,464.802,470.465,474.091,476.992,479.098,480.911,484.774,487.9802,489.763,491.793,493.606,497.379,500.426,504.276,507.177,508.99,512.038,513.7805,515.614,517.427,521.2,523.306,526.207,528.745,531.647,534.185,536.291,538.83" svgx:width="0.61,0.53,0.42,0.55,0.44,0.52,0.3,0.53,0.5,0.36,0.36,0.55,0.52,0.42,0.42,0.25,0.44,0.36,0.42,0.55,0.54,0.5,0.55,0.42,0.5,0.81,0.52,0.42,0.3,0.26,0.54,0.46,0.55,0.29,0.26,0.54,0.44,0.54,0.42,0.26,0.44,0.25,0.55,0.26,0.54,0.3,0.42,0.36,0.42,0.36,0.3,0.36,0.22" style="fill:rgb(0,0,0);font-family:AdvOT1ef757c0;font-size:6.97px;stroke:none;">The authors declare no competing financial interests.</text>
   <text y="269.972" x="303.874,309.244,312.8,317.5396,319.35,321.596,325.15070000000003,327.003,329.904,331.864,334.109,337.10609999999997,338.908,341.154,344.927,346.886,349.5346,351.323,354.44,357.125,359.371,361.33,364.231,366.045,369.123" svgx:width="0.77,0.51,0.68,0.55,0.32,0.51,0.55,0.42,0.28,0.32,0.43,0.55,0.32,0.54,0.28,0.38,0.55,0.45,0.38,0.32,0.28,0.42,0.26,0.43,0.24" style="fill:rgb(0,0,0);font-family:AdvOT5e4d79fc;font-size:6.97px;stroke:none;">How to cite this article:</text>
   <text y="269.972" x="372.586,379.337,382.384,386.157,389.351,390.88439999999997,392.71,396.776" svgx:width="0.97,0.44,0.54,0.46,0.22,0.55,0.58,0.22" style="fill:rgb(0,0,0);font-family:AdvOT1ef757c0;font-size:6.97px;stroke:none;">Wang, B.</text>
   <text y="269.972" x="400.139,402.893,404.984,406.828,410.238" svgx:width="0.4,0.3,0.55,0.49,0.24" style="fill:rgb(0,0,0);font-family:AdvOT7d6df7ab.I;font-size:6.97px;stroke:none;">et al</text>
   <text y="269.972" x="411.931,413.46439999999996,415.275,421.448,424.35,426.889,430.377,434.004,437.491,440.109,443.597,447.224,449.7332,451.562,456.137,461.291,465.574,470.805,475.088,476.902" svgx:width="0.22,0.55,0.88,0.42,0.36,0.5,0.52,0.5,0.36,0.5,0.52,0.36,0.55,0.66,0.74,0.61,0.75,0.61,0.26,0.74" style="fill:rgb(0,0,0);font-family:AdvOT1ef757c0;font-size:6.97px;stroke:none;">. Mesoporous CNT@TiO</text>
   <text y="271.162" x="482.116" svgx:width="0.48" style="fill:rgb(0,0,0);font-family:AdvOT1ef757c0;font-size:4.65px;stroke:none;">2</text>
   <text y="269.972" x="484.611,487.08,491.68019999999996,493.512,498.665,501.713,505.486,508.972,511.874,514.921,518.408,520.151,523.0784,524.917,529.638,531.451,533.557" svgx:width="0.35,0.66,0.55,0.74,0.44,0.54,0.5,0.42,0.44,0.5,0.25,0.42,0.55,0.68,0.26,0.3,0.53" style="fill:rgb(0,0,0);font-family:AdvOT1ef757c0;font-size:6.97px;stroke:none;">-C Nanocable with</text>
   <text y="278.475" x="303.874,307.793,311.057,313.163,315.701,318.602,324.265,327.166,328.91,332.11620000000005,333.579,338.662,342.289,344.827,347.875,351.362,353.105,356.0324,357.444,362.744,364.558,367.818,371.5121,372.921,377.202,380.25,382.356,385.2834,386.696,391.271,394.318,397.945,400.992,404.553,406.366,408.11,409.923,412.029,415.2352,416.628,418.657,422.144,424.6532,426.152,429.855,431.669,433.775,437.478,439.291,442.917,448.58,451.049,453.371,456.858,460.6218,462.092,466.158,469.206,471.312,473.418,476.319,478.929,482.1352,483.521,488.312,492.085,495.572,499.198,502.099,504.637" svgx:width="0.56,0.47,0.3,0.36,0.42,0.81,0.42,0.25,0.46,0.55,0.73,0.52,0.36,0.44,0.5,0.25,0.42,0.55,0.76,0.26,0.46,0.53,0.55,0.61,0.44,0.3,0.42,0.55,0.66,0.44,0.52,0.44,0.5,0.26,0.25,0.26,0.3,0.46,0.55,0.29,0.5,0.36,0.55,0.53,0.26,0.3,0.53,0.26,0.52,0.81,0.35,0.33,0.5,0.54,0.55,0.58,0.44,0.3,0.3,0.42,0.36,0.46,0.55,0.69,0.54,0.5,0.52,0.42,0.36,0.22" style="fill:rgb(0,0,0);font-family:AdvOT1ef757c0;font-size:6.97px;stroke:none;">Extremely Durable High Rate Capability for Lithium-Ion Battery Anodes.</text>
   <text y="278.475" x="507.628,510.822,513.437,515.32,516.9231000000001,518.399,522.534,525.289,528.63" svgx:width="0.46,0.38,0.27,0.23,0.55,0.59,0.4,0.48,0.23" style="fill:rgb(0,0,0);font-family:AdvOT7d6df7ab.I;font-size:6.97px;stroke:none;">Sci. Rep.</text>
   <text y="278.475" x="531.666" svgx:width="0.49" style="fill:rgb(0,0,0);font-family:AdvOT5e4d79fc;font-size:6.97px;stroke:none;">4</text>
   <text y="278.475" x="535.068,536.6014,538.016,541.356,544.697,548.038,551.379" svgx:width="0.22,0.55,0.48,0.48,0.48,0.48,0.22" style="fill:rgb(0,0,0);font-family:AdvOT1ef757c0;font-size:6.97px;stroke:none;">, 3729;</text>
   <text y="286.923" x="303.874,308.958,314.111,316.433,317.954,321.294,324.635,326.155,329.495,332.836,336.176,339.517,341.854,344.393,346.931,349.832,353.459,356.799,360.14,363.48,366.821,370.1666,372.013,374.405,377.745,381.085,384.426,387.766,390.158" svgx:width="0.73,0.74,0.33,0.22,0.48,0.48,0.22,0.48,0.48,0.48,0.48,0.32,0.36,0.36,0.42,0.52,0.48,0.48,0.48,0.48,0.48,0.55,0.34,0.48,0.48,0.48,0.48,0.34,0.22" style="fill:rgb(0,0,0);font-family:AdvOT1ef757c0;font-size:6.97px;stroke:none;">DOI:10.1038/srep03729 (2014).</text>
  </g>
  <path style="fill:rgb(180,184,176);stroke:none;stroke-width:1.0;" d="M304.930 300.440 L340.170 300.510 C340.660 300.510 341.100 300.430 341.100 301.490 L341.060 313.090 L304.040 313.090 L304.040 301.440 C304.040 300.920 304.100 300.440 304.930 300.440 "/>
  <path style="fill:rgb(10,8,6);stroke:none;stroke-width:1.0;" d="M303.870 482.060 L341.120 482.060 L341.120 469.020 L303.870 469.020 L303.870 482.060 M304.570 300.620 L340.480 300.620 C340.690 300.620 340.860 300.790 340.860 301.000 C340.860 301.000 340.860 305.910 340.860 309.460 L315.200 309.460 C314.260 311.160 312.450 312.320 310.360 312.320 C308.280 312.320 306.470 311.160 305.530 309.460 L304.190 309.460 C304.190 305.910 304.190 301.000 304.190 301.000 C304.190 300.790 304.360 300.620 304.570 300.620 ZM340.480 300.300 L304.570 300.300 C304.190 300.300 303.870 300.620 303.870 301.000 L303.870 313.200 C303.870 313.290 303.950 313.360 304.030 313.360 L341.020 313.360 C341.100 313.360 341.170 313.290 341.170 313.200 L341.170 301.000 C341.170 300.620 340.860 300.300 340.480 300.300 "/>
  <path style="fill:rgb(255,255,255);stroke:none;stroke-width:1.0;" d="M314.600 306.380 C314.610 308.720 312.710 310.620 310.370 310.620 C308.030 310.620 306.130 308.730 306.130 306.380 C306.130 306.380 306.130 306.380 306.130 306.380 C306.130 304.040 308.020 302.140 310.360 302.140 C312.700 302.140 314.600 304.030 314.600 306.370 C314.600 306.380 314.600 306.380 314.600 306.380 "/>
  <path style="fill:rgb(10,8,6);stroke:none;stroke-width:1.0;" d="M312.460 305.910 C312.340 305.640 312.160 305.510 311.930 305.510 C311.490 305.510 311.270 305.800 311.270 306.370 C311.270 306.950 311.490 307.240 311.930 307.240 C312.210 307.240 312.410 307.100 312.520 306.820 L313.130 307.140 C312.850 307.640 312.420 307.890 311.860 307.890 C311.420 307.890 311.070 307.760 310.810 307.490 C310.550 307.220 310.420 306.850 310.420 306.380 C310.420 305.920 310.550 305.550 310.820 305.280 C311.080 305.010 311.420 304.870 311.840 304.870 C312.430 304.870 312.860 305.110 313.120 305.580 L312.460 305.910 ZM309.670 305.910 C309.550 305.640 309.370 305.510 309.120 305.510 C308.700 305.510 308.480 305.800 308.480 306.370 C308.480 306.950 308.700 307.240 309.120 307.240 C309.410 307.240 309.610 307.100 309.730 306.820 L310.320 307.140 C310.040 307.640 309.620 307.890 309.050 307.890 C308.610 307.890 308.260 307.760 308.000 307.490 C307.740 307.220 307.610 306.850 307.610 306.380 C307.610 305.920 307.740 305.550 308.010 305.280 C308.280 305.010 308.620 304.870 309.030 304.870 C309.620 304.870 310.050 305.110 310.310 305.580 L309.670 305.910 ZM307.580 303.560 C306.780 304.360 306.390 305.300 306.390 306.380 C306.390 307.460 306.780 308.390 307.570 309.180 C308.350 309.960 309.290 310.360 310.370 310.360 C311.460 310.360 312.400 309.960 313.210 309.170 C313.970 308.430 314.350 307.500 314.350 306.380 C314.350 305.270 313.960 304.330 313.190 303.550 C312.420 302.780 311.480 302.390 310.370 302.390 C309.270 302.390 308.340 302.780 307.580 303.560 ZM313.810 302.930 C314.750 303.870 315.220 305.020 315.220 306.380 C315.220 307.740 314.760 308.880 313.840 309.800 C312.860 310.760 311.700 311.240 310.360 311.240 C309.040 311.240 307.900 310.760 306.950 309.810 C305.990 308.850 305.510 307.710 305.510 306.380 C305.510 305.050 305.990 303.900 306.950 302.930 C307.880 301.990 309.020 301.520 310.360 301.520 C311.720 301.520 312.870 301.990 313.810 302.930 "/>
  <path style="fill:rgb(255,255,255);stroke:none;stroke-width:1.0;" d="M319.960 301.700 C321.810 301.700 323.300 303.190 323.300 305.040 C323.300 306.880 321.810 308.370 319.960 308.370 C318.120 308.370 316.630 306.880 316.630 305.040 C316.630 303.190 318.120 301.700 319.960 301.700 "/>
  <path style="fill:rgb(10,8,6);stroke:none;stroke-width:1.0;" d="M320.930 304.070 C320.930 303.940 320.830 303.840 320.700 303.840 L319.220 303.840 C319.090 303.840 318.990 303.940 318.990 304.070 L318.990 305.540 L319.400 305.540 L319.400 307.290 L320.520 307.290 L320.520 305.540 L320.930 305.540 L320.930 304.070 "/>
  <path style="fill:rgb(10,8,6);stroke:none;stroke-width:1.0;" d="M319.960 302.630 C320.240 302.630 320.460 302.860 320.460 303.140 C320.460 303.420 320.240 303.640 319.960 303.640 C319.680 303.640 319.460 303.420 319.460 303.140 C319.460 302.860 319.680 302.630 319.960 302.630 "/>
  <path style="fill:rgb(10,8,6);stroke:none;stroke-width:1.0;" d="M319.960 302.000 C320.780 302.000 321.480 302.290 322.050 302.870 C322.630 303.440 322.910 304.140 322.910 304.960 C322.910 305.790 322.630 306.480 322.070 307.020 C321.470 307.610 320.770 307.910 319.960 307.910 C319.160 307.910 318.460 307.610 317.880 307.030 C317.300 306.450 317.000 305.760 317.000 304.960 C317.000 304.160 317.300 303.460 317.890 302.870 C318.450 302.290 319.150 302.000 319.960 302.000 ZM319.950 301.360 C318.960 301.360 318.110 301.700 317.420 302.400 C316.710 303.120 316.350 303.980 316.350 304.960 C316.350 305.950 316.710 306.790 317.420 307.500 C318.130 308.210 318.970 308.560 319.950 308.560 C320.950 308.560 321.810 308.210 322.540 307.490 C323.220 306.810 323.560 305.970 323.560 304.960 C323.560 303.950 323.210 303.100 322.520 302.400 C321.820 301.700 320.960 301.360 319.950 301.360 "/>
  <path style="fill:rgb(255,255,255);stroke:none;stroke-width:1.0;" d="M318.890 312.190 C318.930 312.190 318.970 312.180 319.010 312.170 C319.050 312.170 319.090 312.150 319.120 312.130 C319.150 312.110 319.180 312.080 319.200 312.050 C319.210 312.010 319.220 311.970 319.220 311.920 C319.220 311.810 319.190 311.740 319.130 311.690 C319.070 311.650 318.990 311.620 318.900 311.620 L318.400 311.620 L318.400 312.190 L318.890 312.190 ZM318.860 311.310 C318.940 311.310 319.010 311.290 319.060 311.260 C319.110 311.220 319.140 311.160 319.140 311.070 C319.140 311.020 319.130 310.980 319.110 310.950 C319.090 310.920 319.070 310.900 319.040 310.880 C319.010 310.860 318.980 310.850 318.940 310.840 C318.900 310.840 318.870 310.830 318.830 310.830 L318.400 310.830 L318.400 311.310 L318.860 311.310 ZM318.920 310.480 C319.020 310.480 319.110 310.490 319.190 310.510 C319.270 310.520 319.340 310.550 319.390 310.590 C319.450 310.630 319.500 310.680 319.530 310.750 C319.560 310.810 319.580 310.900 319.580 310.990 C319.580 311.100 319.550 311.180 319.510 311.250 C319.460 311.320 319.390 311.380 319.300 311.420 C319.420 311.460 319.520 311.520 319.580 311.610 C319.640 311.700 319.680 311.810 319.680 311.940 C319.680 312.050 319.650 312.140 319.610 312.210 C319.570 312.290 319.520 312.350 319.450 312.400 C319.380 312.450 319.300 312.480 319.220 312.510 C319.130 312.530 319.040 312.540 318.950 312.540 L317.950 312.540 L317.950 310.480 L318.920 310.480 "/>
  <path style="fill:rgb(255,255,255);stroke:none;stroke-width:1.0;" d="M319.760 310.480 L320.260 310.480 L320.750 311.290 L321.230 310.480 L321.730 310.480 L320.970 311.750 L320.970 312.540 L320.510 312.540 L320.510 311.740 L319.760 310.480 "/>
  <path style="fill:rgb(255,255,255);stroke:none;stroke-width:1.0;" d="M326.420 310.480 L327.270 311.860 L327.280 311.860 L327.280 310.480 L327.710 310.480 L327.710 312.540 L327.250 312.540 L326.400 311.160 L326.390 311.160 L326.390 312.540 L325.960 312.540 L325.960 310.480 L326.420 310.480 "/>
  <path style="fill:rgb(255,255,255);stroke:none;stroke-width:1.0;" d="M329.420 311.030 C329.400 310.990 329.360 310.950 329.320 310.920 C329.280 310.880 329.240 310.860 329.180 310.840 C329.130 310.820 329.080 310.810 329.030 310.810 C328.920 310.810 328.840 310.830 328.770 310.870 C328.690 310.910 328.640 310.960 328.590 311.030 C328.550 311.100 328.520 311.170 328.500 311.260 C328.480 311.340 328.470 311.430 328.470 311.520 C328.470 311.600 328.480 311.690 328.500 311.770 C328.520 311.850 328.550 311.920 328.590 311.990 C328.640 312.060 328.690 312.110 328.770 312.150 C328.840 312.190 328.920 312.210 329.030 312.210 C329.160 312.210 329.270 312.170 329.350 312.080 C329.430 311.990 329.480 311.880 329.490 311.740 L329.930 311.740 C329.920 311.870 329.890 311.990 329.840 312.090 C329.790 312.200 329.730 312.290 329.650 312.360 C329.570 312.430 329.480 312.490 329.370 312.530 C329.270 312.570 329.150 312.580 329.030 312.580 C328.870 312.580 328.730 312.560 328.600 312.500 C328.470 312.450 328.370 312.370 328.280 312.280 C328.190 312.180 328.130 312.070 328.080 311.940 C328.040 311.810 328.010 311.670 328.010 311.520 C328.010 311.360 328.040 311.220 328.080 311.090 C328.130 310.960 328.190 310.840 328.280 310.740 C328.370 310.650 328.470 310.570 328.600 310.510 C328.730 310.460 328.870 310.430 329.030 310.430 C329.140 310.430 329.250 310.450 329.350 310.480 C329.450 310.510 329.540 310.560 329.620 310.620 C329.700 310.680 329.760 310.760 329.820 310.850 C329.870 310.950 329.900 311.050 329.910 311.170 L329.480 311.170 C329.470 311.120 329.450 311.070 329.420 311.030 "/>
  <path style="fill:rgb(255,255,255);stroke:none;stroke-width:1.0;" d="M339.490 304.960 C339.490 306.770 338.020 308.250 336.200 308.250 C334.380 308.250 332.910 306.780 332.910 304.960 C332.910 304.960 332.910 304.960 332.910 304.960 C332.910 303.140 334.380 301.670 336.200 301.670 C338.010 301.660 339.490 303.140 339.490 304.950 C339.490 304.960 339.490 304.960 339.490 304.960 "/>
  <path style="fill:rgb(10,8,6);stroke:none;stroke-width:1.0;" d="M336.180 302.000 C337.000 302.000 337.700 302.290 338.270 302.870 C338.850 303.440 339.130 304.140 339.130 304.960 C339.130 305.790 338.850 306.480 338.290 307.020 C337.690 307.610 336.990 307.900 336.180 307.900 C335.380 307.900 334.680 307.610 334.100 307.030 C333.520 306.450 333.220 305.760 333.220 304.960 C333.220 304.160 333.520 303.460 334.110 302.870 C334.670 302.290 335.370 302.000 336.180 302.000 ZM336.180 301.350 C335.180 301.350 334.330 301.700 333.640 302.400 C332.930 303.120 332.570 303.970 332.570 304.960 C332.570 305.940 332.930 306.790 333.640 307.500 C334.350 308.210 335.190 308.560 336.180 308.560 C337.170 308.560 338.030 308.200 338.760 307.490 C339.440 306.810 339.780 305.970 339.780 304.960 C339.780 303.950 339.440 303.100 338.740 302.400 C338.040 301.700 337.190 301.350 336.180 301.350 "/>
  <path style="fill:rgb(255,255,255);stroke:none;stroke-width:1.0;" d="M331.420 304.960 C331.420 306.810 329.920 308.310 328.070 308.310 C326.220 308.310 324.720 306.810 324.720 304.960 C324.720 304.960 324.720 304.960 324.720 304.960 C324.710 303.110 326.220 301.600 328.070 301.600 C329.920 301.600 331.420 303.100 331.420 304.950 C331.420 304.960 331.420 304.960 331.420 304.960 "/>
  <path style="fill:rgb(10,8,6);stroke:none;stroke-width:1.0;" d="M328.070 302.000 C327.260 302.000 326.570 302.290 326.000 302.870 C325.850 303.020 325.710 303.190 325.600 303.360 L326.980 303.970 C327.100 303.590 327.460 303.350 327.900 303.330 L327.900 302.770 L328.320 302.770 L328.320 303.330 C328.600 303.340 328.920 303.420 329.220 303.660 L328.750 304.150 C328.580 304.020 328.360 303.930 328.130 303.930 C327.960 303.930 327.700 303.990 327.700 304.210 C327.700 304.250 327.710 304.280 327.730 304.310 L328.200 304.510 L328.510 304.650 C328.710 304.740 328.900 304.820 329.090 304.910 L330.930 305.730 C330.990 305.490 331.020 305.230 331.020 304.960 C331.020 304.140 330.740 303.440 330.160 302.870 C329.590 302.290 328.890 302.000 328.070 302.000 ZM325.280 303.990 C325.170 304.290 325.110 304.620 325.110 304.960 C325.110 305.760 325.410 306.450 325.990 307.030 C326.570 307.610 327.270 307.900 328.070 307.900 C328.880 307.900 329.580 307.610 330.180 307.020 C330.380 306.830 330.540 306.620 330.670 306.390 L329.310 305.790 C329.220 306.240 328.810 306.550 328.320 306.590 L328.320 307.140 L327.900 307.140 L327.900 306.590 C327.500 306.580 327.110 306.420 326.810 306.160 L327.310 305.660 C327.550 305.880 327.790 305.980 328.110 305.980 C328.320 305.980 328.560 305.900 328.560 305.630 C328.560 305.530 328.520 305.460 328.460 305.410 L328.120 305.260 L327.690 305.060 C327.480 304.970 327.300 304.890 327.120 304.810 L325.280 303.990 ZM328.070 301.350 C329.080 301.350 329.930 301.700 330.630 302.400 C331.330 303.100 331.670 303.950 331.670 304.960 C331.670 305.970 331.330 306.810 330.650 307.490 C329.920 308.200 329.060 308.560 328.070 308.560 C327.080 308.560 326.240 308.210 325.530 307.500 C324.820 306.790 324.460 305.940 324.460 304.960 C324.460 303.970 324.820 303.120 325.530 302.400 C326.220 301.700 327.070 301.350 328.070 301.350 "/>
  <path style="fill:rgb(255,255,255);stroke:none;stroke-width:1.0;" d="M333.990 312.590 L333.990 310.390 L334.430 310.390 L335.330 311.860 L335.330 310.390 L335.740 310.390 L335.740 312.590 L335.290 312.590 L334.410 311.150 L334.410 312.590 L333.990 312.590 "/>
  <path style="fill:rgb(255,255,255);stroke:none;stroke-width:1.0;" d="M336.650 310.760 L336.650 312.220 L336.990 312.220 C337.110 312.220 337.200 312.210 337.260 312.200 C337.330 312.180 337.390 312.150 337.430 312.100 C337.480 312.060 337.520 311.990 337.550 311.890 C337.580 311.790 337.600 311.660 337.600 311.490 C337.600 311.320 337.580 311.190 337.550 311.100 C337.520 311.000 337.480 310.930 337.430 310.880 C337.370 310.830 337.300 310.800 337.220 310.780 C337.160 310.760 337.040 310.760 336.860 310.760 L336.650 310.760 ZM336.210 310.380 L337.020 310.380 C337.210 310.380 337.350 310.400 337.440 310.430 C337.570 310.460 337.680 310.530 337.770 310.630 C337.870 310.730 337.940 310.850 337.980 310.990 C338.030 311.130 338.060 311.300 338.060 311.510 C338.060 311.690 338.030 311.850 337.990 311.980 C337.930 312.140 337.860 312.270 337.750 312.360 C337.680 312.440 337.570 312.500 337.440 312.540 C337.340 312.570 337.210 312.590 337.050 312.590 L336.210 312.590 L336.210 310.380 "/>
  <path style="fill:rgb(23,22,21);stroke:none;stroke-width:1.0;" d="M335.150 477.900 L337.210 477.900 L337.210 478.530 L335.150 478.530 L335.150 477.900 "/>
  <path style="fill:rgb(23,22,21);stroke:none;stroke-width:1.0;" d="M335.150 476.400 L337.210 476.400 L337.210 477.030 L335.150 477.030 L335.150 476.400 "/>
  <g begin="text">
   <text y="304.838" x="344.466,348.534,351.893,353.616,356.1252,357.619,362.104,365.416,367.654,371.0693,372.529,374.252,376.76120000000003,378.255,379.911,381.634,384.208,386.964,390.548,392.769,395.525,399.14939999999996,400.536,403.981,407.452,410.897,413.518,416.0272,417.6,420.6668,422.135,426.481,428.768,431.524,434.419,436.251,437.974,440.844,443.77139999999997,445.266,449.612,452.806,458.185,463.408,466.72,470.304,472.8132,474.236,478.787,480.788,482.626,485.038,486.595,489.907,493.227,495.228,496.799,500.111,503.695" svgx:width="0.61,0.53,0.26,0.36,0.55,0.68,0.5,0.36,0.49,0.55,0.26,0.36,0.55,0.25,0.26,0.42,0.42,0.54,0.36,0.42,0.52,0.55,0.52,0.54,0.52,0.42,0.36,0.55,0.44,0.55,0.66,0.36,0.42,0.44,0.3,0.26,0.46,0.42,0.55,0.66,0.5,0.81,0.81,0.5,0.54,0.36,0.55,0.69,0.3,0.3,0.36,0.26,0.5,0.52,0.3,0.26,0.5,0.54,0.35" style="fill:rgb(0,0,0);font-family:AdvOT1ef757c0;font-size:6.97px;stroke:none;">This work is licensed under a Creative Commons Attribution-</text>
   <text y="313.342" x="344.693,349.588,352.901,356.314,360.66,363.798,369.177,374.556,377.121,379.532,382.166,383.889,386.645,388.302,390.647,395.376,398.689,403.37,406.126,408.415,410.138,413.007,415.5162,417.09,420.263,421.569,424.9146,426.445,431.274,434.722,438.166,441.298,443.709,445.71,448.271,451.8954,453.374,455.03,456.752,459.326,462.082,465.666,467.887,470.643,472.17639999999994,473.669,477.737,481.22200000000004,482.684,485.718,487.276,490.032,496.12,499.1868,500.656,503.412,506.609,510.054,513.2601999999999,514.659,517.971,519.9923,521.519,523.52,526.905,528.627,531.1361999999999,532.631,534.287,535.862,538.618,541.248,544.832,547.087,549.843" svgx:width="0.74,0.5,0.54,0.66,0.5,0.81,0.81,0.42,0.36,0.42,0.26,0.44,0.25,0.35,0.74,0.5,0.73,0.42,0.36,0.26,0.46,0.36,0.55,0.48,0.22,0.48,0.55,0.73,0.54,0.52,0.5,0.36,0.3,0.42,0.52,0.55,0.25,0.26,0.42,0.42,0.54,0.36,0.42,0.22,0.55,0.61,0.5,0.55,0.46,0.26,0.42,0.68,0.44,0.55,0.42,0.5,0.52,0.46,0.55,0.5,0.29,0.55,0.3,0.53,0.26,0.36,0.55,0.25,0.26,0.42,0.42,0.54,0.36,0.42,0.22" style="fill:rgb(0,0,0);font-family:AdvOT1ef757c0;font-size:6.97px;stroke:none;">NonCommercial-NoDerivs 3.0 Unported license. To viewa copy of this license,</text>
   <text y="321.789" x="303.874,306.908,308.466,310.878,312.491,314.582,316.12,319.638,321.506,323.506,326.835,328.279,330.293,332.426,335.055,337.466,340.1,342.995,344.862,346.585,349.454,352.21,354.84,358.153,363.401,368.78,371.962,375.546,377.957,379.218,382.531,384.831,387.865,389.82,391.476,393.199,395.773,398.529,402.113,404.334,407.09,409.379,411.512,414.708,417.742,419.924,423.508,426.264,428.428,432.012,435.344,437.478,440.504,441.948" svgx:width="0.46,0.26,0.36,0.26,0.3,0.55,0.53,0.3,0.3,0.52,0.22,0.32,0.32,0.42,0.36,0.42,0.44,0.3,0.26,0.46,0.42,0.42,0.5,0.81,0.81,0.5,0.54,0.36,0.22,0.5,0.36,0.46,0.32,0.25,0.26,0.42,0.42,0.54,0.36,0.42,0.36,0.32,0.5,0.46,0.35,0.54,0.42,0.35,0.54,0.52,0.32,0.48,0.22,0.48" style="fill:rgb(0,0,0);font-family:AdvOT1ef757c0;font-size:6.97px;stroke:none;">visit http://creativecommons.org/licenses/by-nc-nd/3.0</text>
  </g>
  <rect style="fill:pink;opacity:0.2;stroke:blue;stroke-width:0.3;" x="-0.113" y="17.524" height="36.964" width="595.446" title="7"/>
  <text y="17.524" class="image" id="image.7.1" width="595" height="36" x="-0.113" style="font-size:5.0px;">image.7.1.0_595.18_54</text>
  <g begin="text">
   <text y="23.924" x="382.45,390.728,398.964,407.201,410.758,416.935,423.462,426.559,432.626,436.863,442.59,446.147,451.414,457.711,466.518" svgx:width="0.71,0.71,0.71,0.28,0.52,0.55,0.24,0.51,0.34,0.48,0.28,0.44,0.53,0.76,0.54" style="fill:rgb(255,255,255);font-family:AdvOT144a03c1;font-size:10.96px;stroke:none;">www.nature.com/</text>
   <text y="23.924" x="472.932,477.864,482.905,486.127,492.089,498.39,501.831,505.053,508.845,512.067,517.108,521.579,527.541,534.182,540.593,545.064,548.505" svgx:width="0.41,0.42,0.25,0.5,0.53,0.27,0.25,0.3,0.25,0.42,0.36,0.5,0.56,0.54,0.36,0.27,0.41" style="fill:rgb(255,255,255);font-family:AdvOT1415ea69.B;font-size:10.96px;stroke:none;">scientificreports</text>
  </g>
  <g begin="text">
   <text y="768.132" x="42.86,47.092,52.32,54.146,58.29,64.515,68.078,69.903,73.529,75.354" svgx:width="0.53,0.66,0.23,0.52,0.78,0.45,0.23,0.47,0.23,0.66" style="fill:rgb(178,178,177);font-family:AdvOT144a03c1;font-size:7.97px;stroke:none;">SCIENTIFIC</text>
   <text y="768.132" x="82.658,87.058,90.875,95.02,101.245,105.644,109.207" svgx:width="0.55,0.48,0.52,0.78,0.55,0.45,0.52" style="fill:rgb(178,178,177);font-family:AdvOT1415ea69.B;font-size:7.97px;stroke:none;">REPORTS</text>
   <text y="768.132" x="117.411,121.8742,123.987,128.8487,130.96,133.351,135.382,140.276,145.169,150.063,154.9247,157.038,161.5012,163.557,168.953,175.76,177.585,179.976,182.039,186.932,191.826,194.233,199.127,204.02,208.914,213.808,218.287,221.325,223.979,228.044,232.603,237.497,242.391,247.284,252.178" svgx:width="0.56,0.55,0.61,0.55,0.3,0.55,0.61,0.61,0.61,0.61,0.55,0.56,0.55,0.68,0.85,0.23,0.3,0.55,0.61,0.61,0.3,0.61,0.61,0.61,0.61,0.56,0.4,0.33,0.51,0.57,0.61,0.61,0.61,0.61,0.61" style="fill:rgb(0,0,0);font-family:AdvOT735b620e;font-size:7.97px;stroke:none;">| 4 : 3729 | DOI: 10.1038/srep03729</text>
   <text y="768.132" x="547.542" svgx:width="0.68" style="fill:rgb(0,0,0);font-family:AdvOTf32ed098.B;font-size:7.97px;stroke:none;">7</text>
  </g>
 </g>
</svg>
