<?xml version="1.0" encoding="UTF-8"?>
<svg height="778.132" width="2598.441" xmlns="http://www.w3.org/2000/svg">
 <g id="page" xmlns:svgx="http://www.xml-cml.org/schema/svgx">
  <g begin="text">
   <text y="284.655" x="42.86,47.103,49.42,54.238,58.092,62.725,66.097,69.952,73.231,78.049,81.904,85.276,87.685,91.929,95.783,100.60340000000001,103.409,107.263,111.896,119.419,124.237,128.87,133.688,138.7,143.518,146.8552,149.614,153.663,158.295,161.668,166.3,169.673,174.306,176.715,181.727,185.9912,188.733,193.365,198.3708,201.148,203.946,206.355,209.153,213.202,218.215,220.624,224.7028,227.398,232.41,236.459,241.472,246.104,250.922,254.971,258.344,261.142,263.551,267.405,269.722,273.61539999999997,276.382,278.698,281.107,288.63" svgx:width="0.46,0.25,0.52,0.42,0.5,0.36,0.42,0.35,0.52,0.42,0.36,0.26,0.46,0.42,0.52,0.55,0.42,0.5,0.81,0.52,0.5,0.52,0.54,0.52,0.36,0.55,0.44,0.5,0.36,0.5,0.36,0.5,0.26,0.54,0.46,0.55,0.5,0.54,0.55,0.3,0.26,0.3,0.44,0.54,0.26,0.44,0.55,0.54,0.44,0.54,0.5,0.52,0.44,0.36,0.3,0.26,0.42,0.25,0.42,0.55,0.25,0.26,0.81,0.35" style="fill:rgb(0,0,0);font-family:AdvOT1ef757c0;font-size:9.27px;stroke:none;">glucose-derived compounds absorbing on titania nanoparticle lim-</text>
   <text y="295.313" x="42.86,45.269,48.067,51.921,56.7414,60.038,62.734,67.552,70.924,73.723,78.642,82.497,85.8342,89.178,92.551,95.349,98.721,103.539,107.394,110.192,115.01,118.382,122.431,124.74849999999999,128.07,132.313,135.686,140.319,146.591,149.389,154.3021,157.608,161.657,166.669,171.48940000000002,174.786,177.584,182.504,186.3974,189.639,192.335,194.744,199.757,203.805,206.1225,209.425,212.797,215.206,219.061,222.95440000000002,226.206,230.839,233.5273,236.865,242.554,244.963" svgx:width="0.26,0.3,0.42,0.52,0.55,0.29,0.52,0.36,0.3,0.53,0.42,0.36,0.55,0.36,0.3,0.36,0.52,0.42,0.3,0.52,0.36,0.44,0.25,0.55,0.46,0.36,0.5,0.68,0.3,0.53,0.55,0.44,0.54,0.52,0.55,0.3,0.53,0.42,0.55,0.29,0.26,0.54,0.44,0.25,0.55,0.36,0.26,0.42,0.42,0.55,0.5,0.29,0.55,0.61,0.26,0.74" style="fill:rgb(0,0,0);font-family:AdvOT1ef757c0;font-size:9.27px;stroke:none;">ited further structural growth and the final size of TiO</text>
   <text y="296.844" x="251.773" svgx:width="0.48" style="fill:rgb(0,0,0);font-family:AdvOT1ef757c0;font-size:6.18px;stroke:none;">2</text>
   <text y="295.313" x="255.118,257.1574,260.447,266.72,271.64,274.049,277.903,282.8161,286.13,288.539" svgx:width="0.22,0.55,0.68,0.53,0.26,0.42,0.53,0.55,0.26,0.36" style="fill:rgb(0,0,0);font-family:AdvOT1ef757c0;font-size:9.27px;stroke:none;">, which is</text>
   <text y="305.971" x="42.86,46.233,48.642,56.165,58.574,60.89,64.939,68.27619999999999,71.433,74.232,78.867,81.978,84.776,89.696,93.5894,96.662,100.034,104.852,108.225,110.921,114.97,118.825,121.623,125.672,130.684" svgx:width="0.36,0.26,0.81,0.26,0.25,0.44,0.36,0.55,0.3,0.5,0.55,0.3,0.53,0.42,0.55,0.36,0.52,0.36,0.29,0.44,0.42,0.3,0.44,0.54,0.3" style="fill:rgb(0,0,0);font-family:AdvOT1ef757c0;font-size:9.27px;stroke:none;">similar to the surfactant</text>
   <text y="302.513" x="133.512,136.274" svgx:width="0.48,0.48" style="fill:rgb(0,0,0);font-family:AdvOT1ef757c0;font-size:5.13px;stroke:none;">24</text>
   <text y="305.972" x="139.011,141.0504,144.17,149.859,154.779,158.633,162.006,165.86,168.556,173.189,176.561,180.416,182.4554,185.556,187.965,190.746,193.89,197.745,201.794,206.7998,209.934,214.567,218.4604,221.499,225.353,229.986,234.999,238.853,241.169,245.987,250.805,254.66,259.4804,262.658,265.456,270.376,274.425,277.206,280.347,283.145,288.065" svgx:width="0.22,0.55,0.61,0.53,0.42,0.36,0.42,0.29,0.5,0.36,0.42,0.22,0.55,0.26,0.3,0.55,0.42,0.44,0.54,0.55,0.5,0.42,0.55,0.42,0.5,0.54,0.42,0.25,0.52,0.52,0.42,0.52,0.55,0.3,0.53,0.44,0.3,0.55,0.3,0.53,0.42" style="fill:rgb(0,0,0);font-family:AdvOT1ef757c0;font-size:9.27px;stroke:none;">. Therefore, it can be concluded that the</text>
   <text y="316.629" x="42.86,47.104,49.42,54.238,58.093,62.725,66.098,69.9914,74.212,79.03,81.347,85.395,89.639,92.97619999999999,97.287,104.81,109.628,111.944,114.742,117.151,120.431,123.804,128.437,130.753,134.607,137.9442,142.301,144.71,149.7158,153.98,156.778,161.698,165.59140000000002,169.798,172.494,177.127,180.499,188.023,192.072,194.87,197.279,201.911,206.9168,211.241,215.873,218.5613,222.806,225.604,230.524,234.4174,238.681,244.759,251.606,257.295,264.244,269.932,272.341" svgx:width="0.46,0.25,0.52,0.42,0.5,0.36,0.42,0.55,0.52,0.25,0.44,0.46,0.36,0.55,0.81,0.52,0.25,0.3,0.26,0.35,0.36,0.5,0.25,0.42,0.36,0.55,0.26,0.54,0.55,0.3,0.53,0.42,0.55,0.29,0.5,0.36,0.81,0.44,0.3,0.26,0.5,0.54,0.55,0.5,0.29,0.55,0.3,0.53,0.42,0.55,0.66,0.74,0.61,0.75,0.61,0.26,0.74" style="fill:rgb(0,0,0);font-family:AdvOT1ef757c0;font-size:9.27px;stroke:none;">glucose plays multi-roles in the formation of the CNT@TiO</text>
   <text y="318.161" x="279.212" svgx:width="0.48" style="fill:rgb(0,0,0);font-family:AdvOT1ef757c0;font-size:6.18px;stroke:none;">2</text>
   <text y="316.63" x="282.557,285.837" svgx:width="0.35,0.66" style="fill:rgb(0,0,0);font-family:AdvOT1ef757c0;font-size:9.27px;stroke:none;">-C</text>
   <text y="327.288" x="42.86,47.873,51.922,56.934,61.567,65.421,69.47,74.103,76.419,80.274,82.3134,85.324,87.733,92.746,96.6,98.916,103.734,108.552,110.961,115.974,120.2382,123.253,126.625,129.423,132.796,137.614,141.468,144.266,149.084,152.457,156.311,159.591,164.409,166.818,170.191,174.045,177.899,180.698,183.107,188.119,192.3832,195.48,199.529,203.773,207.627,212.64,215.438,217.4774,220.482,224.336,228.385,231.758,236.39,241.023,246.0288,249.055,252.428,257.06,261.878,265.251,269.105,272.96,274.9994,278.026,282.075,287.087" svgx:width="0.54,0.44,0.54,0.5,0.42,0.44,0.5,0.25,0.42,0.22,0.55,0.26,0.54,0.42,0.25,0.52,0.52,0.26,0.54,0.46,0.55,0.36,0.3,0.36,0.52,0.42,0.3,0.52,0.36,0.42,0.35,0.52,0.26,0.36,0.42,0.42,0.3,0.26,0.54,0.46,0.55,0.44,0.46,0.42,0.54,0.3,0.22,0.55,0.42,0.44,0.36,0.5,0.5,0.54,0.55,0.36,0.5,0.52,0.36,0.42,0.42,0.22,0.55,0.44,0.54,0.52" style="fill:rgb(0,0,0);font-family:AdvOT1ef757c0;font-size:9.27px;stroke:none;">nanocable, including structure-directing agent, carbon source, and</text>
   <text y="337.946" x="42.86,46.233,51.051,54.423,57.12,61.169,65.023,67.821,71.87,76.883,79.681" svgx:width="0.36,0.52,0.36,0.29,0.44,0.42,0.3,0.44,0.54,0.3,0.22" style="fill:rgb(0,0,0);font-family:AdvOT1ef757c0;font-size:9.27px;stroke:none;">surfactant.</text>
   <text y="363.061" x="42.86,49.958,52.712,57.539,62.073,68.282,73.109,77.936,80.69,86.899" svgx:width="0.75,0.29,0.51,0.48,0.66,0.51,0.51,0.29,0.66,0.66" style="fill:rgb(0,0,0);font-family:AdvOTf32ed098.B;font-size:9.46px;stroke:none;">Discussion</text>
   <text y="373.89" x="42.86,48.549,53.184,55.389,60.207,65.22,70.038,73.892,77.265,80.637,83.435,87.484,92.497,97.3174,99.611,102.409,107.329,111.2224,113.387,117.242,119.558,123.412,127.267,130.065,133.437,138.07,141.924,146.844,150.699,158.222,160.631,164.485,168.534,170.8515,173.143,177.776,181.63,186.55,190.599,194.842,197.251,201.884,205.22119999999998,207.556,212.189,214.8773,217.081,219.879,224.799,227.208,230.5452,232.842,237.762,242.005,246.638,250.011,252.42,257.24039999999997,259.488,267.012,271.06,273.859,277.713,281.086,283.495,287.543,289.86" svgx:width="0.61,0.5,0.55,0.52,0.54,0.52,0.42,0.36,0.36,0.3,0.44,0.54,0.52,0.55,0.3,0.53,0.42,0.55,0.42,0.25,0.42,0.42,0.3,0.36,0.5,0.42,0.53,0.42,0.81,0.26,0.42,0.44,0.25,0.55,0.5,0.42,0.53,0.44,0.46,0.26,0.5,0.36,0.55,0.5,0.29,0.55,0.3,0.53,0.26,0.36,0.55,0.53,0.46,0.5,0.36,0.26,0.52,0.55,0.81,0.44,0.3,0.42,0.36,0.26,0.44,0.25,0.22" style="fill:rgb(0,0,0);font-family:AdvOT1ef757c0;font-size:9.27px;stroke:none;">To understand the electrochemical behavior of this hybrid material,</text>
   <text y="384.548" x="42.86,49.132,53.0254,55.389,57.798,62.811,67.054,70.909,74.281,77.079,79.488,83.732,87.781,90.579,94.433,99.25340000000001,101.708,104.506,109.426,113.3194,115.712,120.53,124.384,127.757,130.453,135.086,138.458,145.982,150.031,155.043,158.897,162.79039999999998,165.205,169.838,172.5263,174.956,177.754,182.674,186.56740000000002,188.96,195.038,201.885,207.574,214.523,220.212,222.62" svgx:width="0.68,0.42,0.55,0.26,0.54,0.46,0.42,0.36,0.3,0.26,0.46,0.44,0.3,0.42,0.52,0.55,0.3,0.53,0.42,0.55,0.52,0.42,0.36,0.29,0.5,0.36,0.81,0.44,0.54,0.42,0.42,0.55,0.5,0.29,0.55,0.3,0.53,0.42,0.55,0.66,0.74,0.61,0.75,0.61,0.26,0.74" style="fill:rgb(0,0,0);font-family:AdvOT1ef757c0;font-size:9.27px;stroke:none;">we investigated the performance of the CNT@TiO</text>
   <text y="386.079" x="229.493" svgx:width="0.48" style="fill:rgb(0,0,0);font-family:AdvOT1ef757c0;font-size:6.18px;stroke:none;">2</text>
   <text y="384.548" x="232.838,236.118,242.2362,244.63,249.642,253.691,258.704,263.336,267.191,271.24,275.872,278.189,282.0824,284.485,288.534" svgx:width="0.35,0.66,0.55,0.54,0.44,0.54,0.5,0.42,0.44,0.5,0.25,0.42,0.55,0.44,0.36" style="fill:rgb(0,0,0);font-family:AdvOT1ef757c0;font-size:9.27px;stroke:none;">-C nanocable as</text>
   <text y="395.206" x="42.86,46.909,51.9148,55.219,59.268,64.281,68.913,73.731,77.6244,80.958,88.482,92.53,95.329,99.183,102.556,104.965,109.013,111.3305,114.691,119.324,122.0123,125.349,130.269,133.354,138.756,142.129,144.1684,147.46,152.278,154.687,158.93,163.748,167.121,171.01440000000002,174.389,178.828,182.9068,186.181,189.554,194.474,199.106,205.379,208.7162,212.09,214.888,219.808,223.70139999999998,227.001,230.855,235.098,238.953,241.269,243.678,247.57139999999998,250.869,255.112,259.745,262.061,264.86,268.909,276.432,283.955,288.588" svgx:width="0.44,0.54,0.55,0.44,0.54,0.5,0.52,0.42,0.55,0.81,0.44,0.3,0.42,0.36,0.26,0.44,0.25,0.55,0.5,0.29,0.55,0.53,0.33,0.58,0.36,0.22,0.55,0.52,0.26,0.46,0.52,0.36,0.42,0.55,0.48,0.44,0.55,0.36,0.53,0.5,0.68,0.36,0.55,0.3,0.53,0.42,0.55,0.42,0.46,0.42,0.25,0.26,0.42,0.55,0.46,0.5,0.25,0.3,0.44,0.81,0.81,0.5,0.35" style="fill:rgb(0,0,0);font-family:AdvOT1ef757c0;font-size:9.27px;stroke:none;">an anode material of LIBs. Figure 5a shows the cyclic voltammo-</text>
   <text y="405.864" x="42.86,47.104,50.476,54.525,62.049,65.3862,68.486,71.664,77.742,84.2,87.3518,90.483,95.116,97.8043,100.858,103.656,108.576,112.4694,115.542,121.62,128.467,134.156,141.105,146.794,149.203" svgx:width="0.46,0.36,0.44,0.81,0.36,0.55,0.34,0.66,0.7,0.34,0.55,0.5,0.29,0.55,0.3,0.53,0.42,0.55,0.66,0.74,0.61,0.75,0.61,0.26,0.74" style="fill:rgb(0,0,0);font-family:AdvOT1ef757c0;font-size:9.27px;stroke:none;">grams (CV) of the CNT@TiO</text>
   <text y="407.395" x="156.076" svgx:width="0.48" style="fill:rgb(0,0,0);font-family:AdvOT1ef757c0;font-size:6.18px;stroke:none;">2</text>
   <text y="405.865" x="159.42,162.7,168.8182,171.836,176.848,180.897,185.91,190.543,194.397,198.446,203.078,205.395,209.28840000000002,212.315,216.169,218.486,222.34,226.195,228.993,232.365,236.998,241.909,245.80239999999998,248.826,251.522,256.155,259.49219999999997,262.603,265.401,270.321,274.2144,277.23,279.926,282.335,285.707,289.08" svgx:width="0.35,0.66,0.55,0.54,0.44,0.54,0.5,0.42,0.44,0.5,0.25,0.42,0.55,0.42,0.25,0.42,0.42,0.3,0.36,0.5,0.52,0.42,0.55,0.29,0.5,0.36,0.55,0.3,0.53,0.42,0.55,0.29,0.26,0.36,0.36,0.3" style="fill:rgb(0,0,0);font-family:AdvOT1ef757c0;font-size:9.27px;stroke:none;">-C nanocable electrode for the first</text>
   <text y="416.522" x="42.86,45.556,47.965,52.209,56.1024,58.507,61.88,65.734,69.783,74.796,78.1332,80.618,84.667,87.44800000000001,89.916,93.9948,96.378,99.751,103.605,107.654,112.65979999999999,115.144,118.517,122.566,125.364,129.25740000000002,131.642,136.275,138.9633,141.393,145.831,147.851,152.3006,155.396,162.92,169.409,171.838" svgx:width="0.29,0.26,0.46,0.42,0.55,0.36,0.42,0.44,0.54,0.36,0.55,0.44,0.3,0.55,0.44,0.55,0.36,0.42,0.44,0.54,0.55,0.36,0.44,0.3,0.42,0.55,0.5,0.29,0.55,0.48,0.22,0.48,0.55,0.81,0.7,0.55,0.36" style="fill:rgb(0,0,0);font-family:AdvOT1ef757c0;font-size:9.27px;stroke:none;">five scans at a scan rate of 0.1 mV s</text>
   <text y="413.121" x="175.238" svgx:width="0.83" style="fill:rgb(0,0,0);font-family:AdvP414BFB;font-size:5.13px;stroke:none;">2</text>
   <text y="413.121" x="180.0" svgx:width="0.48" style="fill:rgb(0,0,0);font-family:AdvOT1ef757c0;font-size:5.13px;stroke:none;">1</text>
   <text y="416.523" x="182.778,184.8174,187.2,192.889,199.162,203.797,206.25,211.068,214.922,218.971,223.502,226.8392,229.324,233.373,236.154,238.622,242.671,247.489,252.307,255.679,260.312,264.648,267.057,274.58,278.629,281.427,285.282,287.598" svgx:width="0.22,0.55,0.61,0.68,0.5,0.55,0.52,0.42,0.44,0.49,0.36,0.55,0.44,0.3,0.55,0.44,0.52,0.52,0.36,0.5,0.47,0.26,0.81,0.44,0.3,0.42,0.25,0.46" style="fill:rgb(0,0,0);font-family:AdvOT1ef757c0;font-size:9.27px;stroke:none;">. Two peaks at approximately</text>
   <text y="427.181" x="42.86,47.298,49.318,53.756,58.2056,61.285,67.774,69.732,72.91,76.764,80.813,83.611,88.531,93.164,97.982,100.391,104.245,107.3968,109.475,113.523,118.536,123.35640000000001,125.405,129.843,131.863,136.301,140.7506,143.83,150.31900000000002,152.277,155.455,159.504,164.517,169.15,173.968,176.377,180.231,183.3828,185.5,189.549,192.922,196.8154,198.766,202.815,206.188,209.56,214.193,218.047,220.456,224.505,227.303,231.158,235.9784,238.055,244.327,246.736,249.534,254.44709999999998,256.423,261.343" svgx:width="0.48,0.22,0.48,0.48,0.55,0.7,0.55,0.34,0.42,0.44,0.3,0.53,0.5,0.52,0.26,0.42,0.34,0.55,0.44,0.54,0.52,0.55,0.48,0.22,0.48,0.48,0.55,0.7,0.55,0.34,0.44,0.54,0.5,0.52,0.26,0.42,0.34,0.55,0.44,0.36,0.42,0.55,0.44,0.36,0.36,0.5,0.42,0.26,0.44,0.3,0.42,0.52,0.55,0.68,0.26,0.3,0.53,0.55,0.53,0.26" style="fill:rgb(0,0,0);font-family:AdvOT1ef757c0;font-size:9.27px;stroke:none;">1.73 V (cathodic) and 1.98 V (anodic) are associated with Li</text>
   <text y="423.779" x="263.792" svgx:width="0.83" style="fill:rgb(0,0,0);font-family:AdvP414BFB;font-size:5.13px;stroke:none;">1</text>
   <text y="427.181" x="270.595,273.004,278.017,281.389,285.244,288.616" svgx:width="0.26,0.54,0.36,0.42,0.36,0.35" style="fill:rgb(0,0,0);font-family:AdvOT1ef757c0;font-size:9.27px;stroke:none;">inser-</text>
   <text y="437.839" x="42.861,45.659,48.068,52.7,57.713,60.696,64.551,68.887,71.685,75.058,79.106,82.961,85.759,88.168,92.801,97.8068,99.894,102.303,107.316,110.114,114.746,117.73,120.426,123.799,128.431,138.106,140.904,145.824,149.7174,151.712,155.761,160.774,164.823,167.621,171.67,175.042,178.897,180.9364,183.008,186.093,188.874,191.002,193.411,196.7482,198.825,205.098,209.731,213.103,215.901,220.8141,222.92,227.932,232.565,235.363,237.772,242.785,247.04919999999998,249.112,251.91,256.83,260.879,263.66,265.723,268.521,273.441,277.33439999999996,279.386,285.464" svgx:width="0.3,0.26,0.5,0.54,0.32,0.42,0.47,0.3,0.36,0.44,0.42,0.3,0.26,0.5,0.54,0.55,0.26,0.54,0.3,0.5,0.32,0.29,0.36,0.5,0.81,0.3,0.53,0.42,0.55,0.44,0.54,0.44,0.3,0.44,0.36,0.42,0.22,0.55,0.33,0.3,0.55,0.26,0.36,0.55,0.68,0.5,0.36,0.3,0.53,0.55,0.54,0.5,0.3,0.26,0.54,0.46,0.55,0.3,0.53,0.44,0.3,0.55,0.3,0.53,0.42,0.55,0.66,0.7" style="fill:rgb(0,0,0);font-family:AdvOT1ef757c0;font-size:9.27px;stroke:none;">tion/extraction into/fromthe anatase. It is worth noting that the CV</text>
   <text y="448.497" x="42.861,46.715,51.533,54.906,59.149,63.0424,66.218,69.591,74.511,79.144,85.416,88.75319999999999,91.957,96.006,101.0118,104.26,106.669,111.487,115.341,119.39,121.7075,124.897,128.269,132.123,135.978,138.776,142.825,147.837,152.081,156.899,159.215,163.264,166.6012,169.911,173.284,178.204,182.252,187.07,190.96339999999998,194.119,196.528,201.53379999999999,204.721,207.519,212.439,216.3324,219.518,222.89,226.939,231.952,236.195,240.08839999999998,243.272,247.905,250.5933,253.76,258.198,260.218,264.656,269.382,273.82,275.839,280.2886,283.411,289.869" svgx:width="0.42,0.52,0.36,0.46,0.42,0.55,0.36,0.53,0.5,0.68,0.36,0.55,0.44,0.54,0.55,0.26,0.52,0.42,0.44,0.25,0.55,0.36,0.42,0.42,0.3,0.44,0.54,0.46,0.52,0.25,0.44,0.36,0.55,0.36,0.53,0.44,0.52,0.42,0.55,0.26,0.54,0.55,0.3,0.53,0.42,0.55,0.36,0.44,0.54,0.46,0.42,0.55,0.5,0.29,0.55,0.48,0.22,0.48,0.51,0.48,0.22,0.48,0.55,0.7,0.22" style="fill:rgb(0,0,0);font-family:AdvOT1ef757c0;font-size:9.27px;stroke:none;">curve shows an ideal rectangular shape in the range of 1.0–1.7 V,</text>
   <text y="459.155" x="42.861,49.133,54.053,56.462,60.316,65.2291,67.976,70.385,73.7222,76.48,80.334,85.254,89.303,92.676,96.724,100.579,103.377,107.231,110.604,113.013,116.385,119.184,121.592,125.4854,128.241,132.874,135.5623,138.276,142.13,147.05,151.099,154.471,158.715,161.124,166.136,170.38,173.363,178.181,180.59,183.963,187.817,192.737,196.786,200.159,204.402,206.811,211.824,216.0882,218.894,223.527,226.21529999999998,228.986,232.358,237.176,241.994,245.849,249.221,253.075,257.124,261.942,265.991,269.846,272.255,275.053,279.102,284.114,287.969" svgx:width="0.68,0.53,0.26,0.42,0.53,0.55,0.26,0.36,0.55,0.42,0.53,0.44,0.36,0.44,0.42,0.3,0.42,0.36,0.26,0.36,0.3,0.26,0.42,0.55,0.5,0.29,0.55,0.42,0.53,0.44,0.36,0.46,0.26,0.54,0.46,0.32,0.52,0.26,0.36,0.42,0.53,0.44,0.36,0.46,0.26,0.54,0.46,0.55,0.5,0.29,0.55,0.36,0.52,0.52,0.42,0.36,0.42,0.44,0.52,0.44,0.42,0.26,0.3,0.44,0.54,0.42,0.42" style="fill:rgb(0,0,0);font-family:AdvOT1ef757c0;font-size:9.27px;stroke:none;">which is characteristic of charging/discharging of supercapacitance</text>
   <text y="469.812" x="42.861,46.715,51.348,56.36,59.158,62.531,64.94,69.572,74.39,77.189,81.043,85.86340000000001,89.349,92.045,95.418,100.051,107.5597,111.006,113.804,118.724,122.6174,126.03,131.719,134.128" svgx:width="0.42,0.5,0.54,0.3,0.36,0.26,0.5,0.52,0.3,0.42,0.52,0.55,0.29,0.36,0.5,0.81,0.55,0.3,0.53,0.42,0.55,0.61,0.26,0.74" style="fill:rgb(0,0,0);font-family:AdvOT1ef757c0;font-size:9.27px;stroke:none;">contributed from the TiO</text>
   <text y="471.401" x="140.995" svgx:width="0.48" style="fill:rgb(0,0,0);font-family:AdvOT1ef757c0;font-size:6.18px;stroke:none;">2</text>
   <text y="469.814" x="147.742,151.791,156.803,161.6234,165.09,168.944,172.993,176.366,180.999,185.631,190.644,192.6834,196.102,200.92,205.738,209.11,211.909,216.828,220.683,224.055,231.579,236.211,239.584,243.438,245.4774,248.998,251.796,256.716,260.57,263.943,267.83639999999997,271.221,276.039,279.894,283.943,288.473" svgx:width="0.44,0.54,0.52,0.55,0.42,0.44,0.36,0.5,0.5,0.54,0.22,0.55,0.52,0.52,0.36,0.3,0.53,0.42,0.36,0.81,0.5,0.36,0.42,0.22,0.55,0.3,0.53,0.42,0.36,0.42,0.55,0.52,0.42,0.44,0.49,0.36" style="fill:rgb(0,0,0);font-family:AdvOT1ef757c0;font-size:9.27px;stroke:none;">and carbon. Furthermore, these peaks</text>
   <text y="480.472" x="42.86,46.233,51.153,55.785,62.0886,64.971,69.02,71.336,78.86,83.492,86.865,89.646,92.637,97.65,102.28500000000001,105.223,109.078,113.997,118.046,123.059,127.302,131.1954,134.08,136.489,141.4948,144.454,148.503,156.027,160.845,163.161,165.57,168.368,173.186,178.004,181.8974,184.821,188.869,193.882,198.7024,201.658,205.902,210.535,212.851,215.649,219.698,223.941,227.83440000000002,230.742,235.56,240.193,243.565,245.974,248.772,251.181,255.814,260.827,264.1642,267.196,272.014,276.832,280.205,282.614,287.626" svgx:width="0.36,0.53,0.5,0.68,0.55,0.44,0.25,0.81,0.5,0.36,0.3,0.55,0.54,0.5,0.55,0.42,0.53,0.44,0.54,0.46,0.42,0.55,0.26,0.54,0.55,0.44,0.81,0.52,0.25,0.26,0.3,0.52,0.52,0.42,0.55,0.44,0.54,0.52,0.55,0.46,0.5,0.25,0.3,0.44,0.46,0.42,0.55,0.52,0.5,0.36,0.26,0.3,0.26,0.5,0.54,0.36,0.55,0.52,0.52,0.36,0.26,0.54,0.46" style="fill:rgb(0,0,0);font-family:AdvOT1ef757c0;font-size:9.27px;stroke:none;">show almost no change in amplitude and voltage positions during</text>
   <text y="284.655" x="303.874,306.672,311.592,315.48539999999997,319.521,322.894,327.712,332.344,335.717,339.571,344.297,349.115,352.969,357.982,360.76300000000003,364.933,368.306,372.16,376.404,380.258,383.631,387.68,389.9975,394.074,397.928,402.171,406.026,408.342,412.197,415.569,417.6084,421.74,424.149,429.161,433.979,436.388,440.243,444.292,447.09,449.499,454.511,458.77520000000004,462.899,467.142,471.775,476.408,481.2284,485.293,488.666,491.464,495.513,500.146,502.555,504.871,507.28,510.078,514.3421999999999,518.459,522.508,527.521,532.3413999999999,536.431,541.351,543.76,548.004" svgx:width="0.3,0.53,0.42,0.55,0.36,0.52,0.5,0.36,0.42,0.51,0.52,0.42,0.54,0.3,0.55,0.36,0.42,0.46,0.42,0.36,0.44,0.25,0.55,0.42,0.46,0.42,0.25,0.42,0.36,0.22,0.55,0.26,0.54,0.52,0.26,0.42,0.44,0.3,0.26,0.54,0.46,0.55,0.46,0.5,0.5,0.52,0.55,0.36,0.3,0.44,0.5,0.26,0.25,0.26,0.3,0.46,0.55,0.44,0.54,0.52,0.55,0.53,0.26,0.46,0.53" style="fill:rgb(0,0,0);font-family:AdvOT1ef757c0;font-size:9.27px;stroke:none;">the subsequent several cycles, indicating good stability and high</text>
   <text y="295.257" x="303.874,307.247,311.101,315.344,319.199,322.571,325.944,328.353,332.986,335.395,337.711,340.12,342.918,347.1822,350.59,355.222,357.9103,361.305,364.103,369.023,372.9164,376.272,380.126,382.443,386.297,390.152,392.95,396.322,400.955,404.809,409.729,413.583,421.107,423.516,427.37,431.419,433.7365,437.161,440.533,444.388,448.437,452.291,455.089,457.498,462.131,467.1368,470.553,475.371,478.744,482.598,485.971,489.825,494.837,497.636,501.49,506.3104,509.785,512.194,517.1998,520.557,524.411,529.137,533.955,538.003,540.802,543.211,547.843" svgx:width="0.36,0.42,0.46,0.42,0.36,0.36,0.26,0.5,0.26,0.25,0.26,0.3,0.46,0.55,0.5,0.29,0.55,0.3,0.53,0.42,0.55,0.42,0.25,0.42,0.42,0.3,0.36,0.5,0.42,0.53,0.42,0.81,0.26,0.42,0.44,0.25,0.55,0.36,0.42,0.44,0.42,0.3,0.26,0.5,0.54,0.55,0.52,0.36,0.42,0.36,0.42,0.54,0.3,0.42,0.52,0.55,0.26,0.54,0.55,0.42,0.51,0.52,0.44,0.3,0.26,0.5,0.54" style="fill:rgb(0,0,0);font-family:AdvOT1ef757c0;font-size:9.27px;stroke:none;">reversibility of the electrochemical reaction presented in equation</text>
   <text y="305.915" x="303.874,307.052,311.49,314.668" svgx:width="0.34,0.48,0.34,0.22" style="fill:rgb(0,0,0);font-family:AdvOT1ef757c0;font-size:9.27px;stroke:none;">(1).</text>
   <text y="321.902" x="360.964,366.653,369.062" svgx:width="0.61,0.26,0.74" style="fill:rgb(0,0,0);font-family:AdvOT1ef757c0;font-size:9.27px;stroke:none;">TiO</text>
   <text y="323.32" x="375.931" svgx:width="0.48" style="fill:rgb(0,0,0);font-family:AdvOT1ef757c0;font-size:6.49px;stroke:none;">2</text>
   <text y="321.902" x="379.502" svgx:width="1.0" style="fill:rgb(0,0,0);font-family:AdvP40798;font-size:9.27px;stroke:none;">z</text>
   <text y="321.902" x="388.8,393.136,398.056" svgx:width="0.47,0.53,0.26" style="fill:rgb(0,0,0);font-family:AdvOT1ef757c0;font-size:9.27px;stroke:none;">xLi</text>
   <text y="318.104" x="400.479" svgx:width="1.0" style="fill:rgb(0,0,0);font-family:AdvP40798;font-size:6.49px;stroke:none;">z</text>
   <text y="321.902" x="407.452" svgx:width="1.0" style="fill:rgb(0,0,0);font-family:AdvP40798;font-size:9.27px;stroke:none;">z</text>
   <text y="321.902" x="416.75,421.086" svgx:width="0.47,0.42" style="fill:rgb(0,0,0);font-family:AdvOT1ef757c0;font-size:9.27px;stroke:none;">xe</text>
   <text y="318.104" x="424.913" svgx:width="1.0" style="fill:rgb(0,0,0);font-family:AdvP40798;font-size:6.49px;stroke:none;">{</text>
   <text y="321.902" x="431.943" svgx:width="1.0" style="fill:rgb(0,0,0);font-family:AdvP40798;font-size:9.27px;stroke:none;">~</text>
   <text y="321.902" x="441.184,446.104" svgx:width="0.53,0.26" style="fill:rgb(0,0,0);font-family:AdvOT1ef757c0;font-size:9.27px;stroke:none;">Li</text>
   <text y="323.32" x="448.497" svgx:width="0.47" style="fill:rgb(0,0,0);font-family:AdvOT1ef757c0;font-size:6.49px;stroke:none;">x</text>
   <text y="321.902" x="452.069,457.758,460.167" svgx:width="0.61,0.26,0.74" style="fill:rgb(0,0,0);font-family:AdvOT1ef757c0;font-size:9.27px;stroke:none;">TiO</text>
   <text y="323.32" x="467.036" svgx:width="0.48" style="fill:rgb(0,0,0);font-family:AdvOT1ef757c0;font-size:6.49px;stroke:none;">2</text>
   <text y="321.902" x="474.179" svgx:width="0.47" style="fill:rgb(0,0,0);font-family:AdvOT1ef757c0;font-size:9.27px;stroke:none;">x</text>
   <text y="321.902" x="478.544" svgx:width="1.0" style="fill:rgb(0,0,0);font-family:AdvP4980C;font-size:9.27px;stroke:none;">ƒ</text>
   <text y="321.902" x="487.785" svgx:width="0.48" style="fill:rgb(0,0,0);font-family:AdvOT1ef757c0;font-size:9.27px;stroke:none;">1</text>
   <text y="321.902" x="470.608,474.1306,492.264,495.7866,541.36" svgx:width="0.38,0.55,0.38,0.55,0.38" style="fill:rgb(0,0,0);font-family:AdvP4C4E74;font-size:9.27px;stroke:none;">ð Þ ð</text>
   <text y="321.902" x="544.932" svgx:width="0.48" style="fill:rgb(0,0,0);font-family:AdvOT1ef757c0;font-size:9.27px;stroke:none;">1</text>
   <text y="321.902" x="549.354" svgx:width="0.38" style="fill:rgb(0,0,0);font-family:AdvP4C4E74;font-size:9.27px;stroke:none;">Þ</text>
   <text y="340.781" x="303.875,312.844,317.763,321.618,324.99,328.845,330.8844,334.036,338.3929,341.576,343.985,347.3222,350.534,353.332,358.252,362.1454,365.331,369.38,376.903,381.536,386.354,391.366,394.147,397.363,401.995,404.68330000000003,407.851,410.26,415.272,418.645,422.499,425.872,428.67,432.524,437.3444,440.563,445.483" svgx:width="0.97,0.53,0.42,0.36,0.42,0.22,0.55,0.47,0.55,0.26,0.36,0.55,0.3,0.53,0.42,0.55,0.44,0.81,0.5,0.52,0.54,0.3,0.55,0.5,0.29,0.55,0.26,0.54,0.36,0.42,0.36,0.3,0.42,0.52,0.55,0.53,0.26" style="fill:rgb(0,0,0);font-family:AdvOT1ef757c0;font-size:9.27px;stroke:none;">Where, x is the amount of inserted Li</text>
   <text y="337.323" x="447.874" svgx:width="0.83" style="fill:rgb(0,0,0);font-family:AdvP414BFB;font-size:5.13px;stroke:none;">1</text>
   <text y="340.781" x="455.868,458.277,463.2828,466.469,470.518,475.53,479.579,482.378,486.426,489.799,493.69239999999996,496.856,500.905,505.918,510.7384,513.921,516.33,519.111,522.312,527.13,530.984,535.802,539.656,544.669,549.487" svgx:width="0.26,0.54,0.55,0.44,0.54,0.44,0.3,0.44,0.36,0.42,0.55,0.44,0.54,0.52,0.55,0.26,0.3,0.55,0.52,0.42,0.52,0.42,0.54,0.52,0.36" style="fill:rgb(0,0,0);font-family:AdvOT1ef757c0;font-size:9.27px;stroke:none;">in anatase and it depends</text>
   <text y="351.382" x="303.874,308.692,313.51,318.143,323.1488,325.021,327.819,332.739,336.63239999999996,338.514,342.369,345.741,349.985,353.357,356.155,360.204,362.521,364.837,367.246,370.044,373.93739999999997,375.819,379.192,381.601,385.455,389.34839999999997,391.239,395.288,400.301,405.1214,407.001,412.013,416.062,421.075,425.707,429.08,431.878,435.25,440.068,443.923,446.721,451.539,454.911,458.8044,460.746,465.378,468.0663,469.931,472.729,477.648,481.5414,483.424,489.112,491.521" svgx:width="0.52,0.52,0.5,0.54,0.55,0.3,0.53,0.42,0.55,0.42,0.36,0.46,0.36,0.3,0.44,0.25,0.25,0.26,0.3,0.42,0.55,0.36,0.26,0.42,0.42,0.55,0.44,0.54,0.52,0.55,0.54,0.44,0.54,0.5,0.36,0.3,0.36,0.52,0.42,0.3,0.52,0.36,0.42,0.55,0.5,0.29,0.55,0.3,0.53,0.42,0.55,0.61,0.26,0.74" style="fill:rgb(0,0,0);font-family:AdvOT1ef757c0;font-size:9.27px;stroke:none;">upon the crystallite size and nanostructure of the TiO</text>
   <text y="352.913" x="498.387" svgx:width="0.48" style="fill:rgb(0,0,0);font-family:AdvOT1ef757c0;font-size:6.18px;stroke:none;">2</text>
   <text y="351.383" x="503.603,511.126,515.175,517.973,521.828,525.2,527.609,531.658,533.975" svgx:width="0.81,0.44,0.3,0.42,0.36,0.26,0.44,0.25,0.36" style="fill:rgb(0,0,0);font-family:AdvOT1ef757c0;font-size:9.27px;stroke:none;">materials</text>
   <text y="347.981" x="537.392,540.155,541.412,544.174,545.432,548.194" svgx:width="0.48,0.22,0.48,0.22,0.48,0.48" style="fill:rgb(0,0,0);font-family:AdvOT1ef757c0;font-size:5.13px;stroke:none;">8,9,36</text>
   <text y="351.383" x="550.885" svgx:width="0.22" style="fill:rgb(0,0,0);font-family:AdvOT1ef757c0;font-size:9.27px;stroke:none;">.</text>
   <text y="362.267" x="313.115,318.804,323.43899999999996,326.835,331.468,335.322,338.12,340.918,344.773,348.1102,351.553,356.084,361.096,365.729,372.0326,375.364,378.162,383.082,386.9754,390.331,394.186,396.502,400.356,404.211,407.009,410.381,415.014,418.868,423.788,427.643,435.166,437.575,441.429,445.478,447.7955,451.22,456.038,459.892,463.265,465.961,470.594,473.966,481.49,485.539,490.551,494.406,498.2994,501.678,506.311,508.9993,512.393,515.191,520.111,524.0044,527.36,533.438,540.285,545.974" svgx:width="0.61,0.5,0.55,0.5,0.42,0.3,0.3,0.42,0.36,0.55,0.49,0.54,0.5,0.68,0.55,0.3,0.53,0.42,0.55,0.42,0.25,0.42,0.42,0.3,0.36,0.5,0.42,0.53,0.42,0.81,0.26,0.42,0.44,0.25,0.55,0.52,0.42,0.36,0.29,0.5,0.36,0.81,0.44,0.54,0.42,0.42,0.55,0.5,0.29,0.55,0.3,0.53,0.42,0.55,0.66,0.74,0.61,0.75" style="fill:rgb(0,0,0);font-family:AdvOT1ef757c0;font-size:9.27px;stroke:none;">To better know the electrochemical performance of the CNT@</text>
   <text y="372.869" x="303.874,309.563,311.972" svgx:width="0.61,0.26,0.74" style="fill:rgb(0,0,0);font-family:AdvOT1ef757c0;font-size:9.27px;stroke:none;">TiO</text>
   <text y="374.457" x="318.841" svgx:width="0.48" style="fill:rgb(0,0,0);font-family:AdvOT1ef757c0;font-size:6.18px;stroke:none;">2</text>
   <text y="372.869" x="322.129,325.409,331.5272,333.468,338.48,342.529,347.542,352.175,356.029,360.078,364.711,367.027,370.881,372.9204,374.968,381.046,387.893,393.582,396.566,402.254,404.663" svgx:width="0.35,0.66,0.55,0.54,0.44,0.54,0.5,0.42,0.44,0.5,0.25,0.42,0.22,0.55,0.66,0.74,0.61,0.32,0.61,0.26,0.74" style="fill:rgb(0,0,0);font-family:AdvOT1ef757c0;font-size:9.27px;stroke:none;">-C nanocable, CNT/TiO</text>
   <text y="374.457" x="411.534" svgx:width="0.48" style="fill:rgb(0,0,0);font-family:AdvOT1ef757c0;font-size:6.18px;stroke:none;">2</text>
   <text y="372.869" x="416.863,420.717,425.35,432.873,437.691,442.324,445.697,448.106,450.904,454.7974,456.775,460.148,464.391,469.404,472.202,477.122,480.976,484.349,486.758,490.612,494.466,499.2864,501.28,503.689,508.69480000000004,510.691,513.489,518.409,522.3024,524.24,528.289,532.922,536.294,540.149,545.161,549.016" svgx:width="0.42,0.5,0.81,0.52,0.5,0.36,0.26,0.3,0.42,0.55,0.36,0.46,0.54,0.3,0.53,0.42,0.36,0.26,0.42,0.42,0.52,0.55,0.26,0.54,0.55,0.3,0.53,0.42,0.55,0.44,0.5,0.36,0.42,0.54,0.42,0.42" style="fill:rgb(0,0,0);font-family:AdvOT1ef757c0;font-size:9.27px;stroke:none;">composite synthesized in the absence</text>
   <text y="383.527" x="303.874,308.507,311.19530000000003,312.889,317.132,319.448,324.266,328.121,332.753,336.126,340.01939999999996,341.689,345.738,350.75,355.5704,357.223,361.078,365.71,373.234,380.757,384.611,387.984,391.838,394.247,398.296,400.6135,402.352,408.041,410.45" svgx:width="0.5,0.29,0.55,0.46,0.25,0.52,0.42,0.5,0.36,0.42,0.55,0.44,0.54,0.52,0.55,0.42,0.5,0.81,0.81,0.42,0.36,0.42,0.26,0.44,0.25,0.55,0.61,0.26,0.74" style="fill:rgb(0,0,0);font-family:AdvOT1ef757c0;font-size:9.27px;stroke:none;">of glucose and commercial TiO</text>
   <text y="385.058" x="417.316" svgx:width="0.48" style="fill:rgb(0,0,0);font-family:AdvOT1ef757c0;font-size:6.18px;stroke:none;">2</text>
   <text y="383.527" x="422.305,425.483,430.301,434.35,437.723,440.521,442.93,446.784,449.101,452.9944,454.677,458.05,460.459,464.313" svgx:width="0.34,0.52,0.44,0.36,0.3,0.26,0.42,0.25,0.42,0.55,0.36,0.26,0.42,0.42" style="fill:rgb(0,0,0);font-family:AdvOT1ef757c0;font-size:9.27px;stroke:none;">(particle size</text>
   <text y="383.527" x="469.871" svgx:width="0.83" style="fill:rgb(0,0,0);font-family:AdvP7DA6;font-size:9.27px;stroke:none;">,</text>
   <text y="383.527" x="477.581,482.019,486.4686,489.544,494.556,502.08,505.23179999999996,506.949,513.221,517.076,520.448,524.3414,525.998,529.371,532.169,536.987,541.805,544.214,548.068" svgx:width="0.48,0.48,0.55,0.54,0.81,0.34,0.55,0.68,0.42,0.36,0.42,0.55,0.36,0.3,0.52,0.52,0.26,0.42,0.52" style="fill:rgb(0,0,0);font-family:AdvOT1ef757c0;font-size:9.27px;stroke:none;">25 nm) were studied</text>
   <text y="394.129" x="303.874,307.923,311.2602,313.172,317.027,321.659,326.477,331.49,334.288,338.142,341.515,346.333,350.382,353.754,356.552,359.925,361.9644,363.914,368.732,371.141,375.384,380.202,383.575,387.4684,389.369,393.807,398.442,400.31,403.683,408.603,413.236,419.508,422.8452,424.802,427.6,432.52,436.41339999999997,438.295,442.15,447.07,451.119,454.491,458.735,462.589,465.869,470.687,473.096,476.468,480.323,485.243,489.292,492.664,496.908,500.8014,502.699,507.517,510.89,515.523,518.219,520.628,522.944,526.799,530.1362,532.123,536.756,539.4443,541.365,544.163,549.082" svgx:width="0.44,0.36,0.55,0.42,0.5,0.52,0.54,0.3,0.42,0.36,0.52,0.44,0.36,0.3,0.36,0.22,0.55,0.52,0.26,0.46,0.52,0.36,0.42,0.55,0.48,0.5,0.55,0.36,0.53,0.5,0.68,0.36,0.55,0.3,0.53,0.42,0.55,0.42,0.53,0.44,0.36,0.46,0.42,0.35,0.52,0.26,0.36,0.42,0.53,0.44,0.36,0.46,0.42,0.55,0.52,0.36,0.5,0.29,0.26,0.25,0.42,0.36,0.55,0.5,0.29,0.55,0.3,0.53,0.42" style="fill:rgb(0,0,0);font-family:AdvOT1ef757c0;font-size:9.27px;stroke:none;">as counterparts. Figure 5b shows the charge-discharge profiles of the</text>
   <text y="404.787" x="303.874,309.952,316.8,322.488,329.437,335.126,337.535" svgx:width="0.66,0.74,0.61,0.75,0.61,0.26,0.74" style="fill:rgb(0,0,0);font-family:AdvOT1ef757c0;font-size:9.27px;stroke:none;">CNT@TiO</text>
   <text y="406.318" x="344.409" svgx:width="0.48" style="fill:rgb(0,0,0);font-family:AdvOT1ef757c0;font-size:6.18px;stroke:none;">2</text>
   <text y="404.787" x="347.754,351.034,357.1522,360.907,365.92,369.969,374.981,379.614,383.468,387.517,392.15,394.466,398.321,400.3604,404.222,410.3,417.147,422.836,425.819,431.508,433.917" svgx:width="0.35,0.66,0.55,0.54,0.44,0.54,0.5,0.42,0.44,0.5,0.25,0.42,0.22,0.55,0.66,0.74,0.61,0.32,0.61,0.26,0.74" style="fill:rgb(0,0,0);font-family:AdvOT1ef757c0;font-size:9.27px;stroke:none;">-C nanocable, CNT/TiO</text>
   <text y="406.318" x="440.787" svgx:width="0.48" style="fill:rgb(0,0,0);font-family:AdvOT1ef757c0;font-size:6.18px;stroke:none;">2</text>
   <text y="404.787" x="447.987,451.842,456.474,463.998,468.816,473.448,476.821,479.23,482.028,485.882,487.9214,491.755,495.804,500.816,505.6364,509.5,513.354,517.987,525.51,533.034,536.888,540.26,544.115,546.524,550.573" svgx:width="0.42,0.5,0.81,0.52,0.5,0.36,0.26,0.3,0.42,0.22,0.55,0.44,0.54,0.52,0.55,0.42,0.5,0.81,0.81,0.42,0.36,0.42,0.26,0.44,0.25" style="fill:rgb(0,0,0);font-family:AdvOT1ef757c0;font-size:9.27px;stroke:none;">composite, and commercial</text>
   <text y="415.389" x="303.874,309.563,311.972" svgx:width="0.61,0.26,0.74" style="fill:rgb(0,0,0);font-family:AdvOT1ef757c0;font-size:9.27px;stroke:none;">TiO</text>
   <text y="416.976" x="318.841" svgx:width="0.48" style="fill:rgb(0,0,0);font-family:AdvOT1ef757c0;font-size:6.18px;stroke:none;">2</text>
   <text y="415.389" x="323.66,327.709,330.49,332.05,336.1288,337.663,341.036,345.085,347.883,351.77639999999997,353.311,357.943,360.6313,362.154,366.592,368.612,373.0616,374.57,380.648,382.6874,384.208,389.897,394.816,398.70939999999996,400.252,404.496,409.129,411.445,414.243,418.292,422.535,426.4284,427.919,432.737,436.109,440.742,443.438,445.847,448.163,452.018,455.35519999999997,457.002,461.635,464.3233,465.846,468.644,473.564,477.4574,478.943,481.741,486.66,490.033,493.887,497.7804,499.296,504.984,507.393" svgx:width="0.44,0.3,0.55,0.44,0.55,0.36,0.44,0.3,0.42,0.55,0.5,0.29,0.55,0.48,0.22,0.48,0.55,0.66,0.22,0.55,0.61,0.53,0.42,0.55,0.46,0.5,0.25,0.3,0.44,0.46,0.42,0.55,0.52,0.36,0.5,0.29,0.26,0.25,0.42,0.36,0.55,0.5,0.29,0.55,0.3,0.53,0.42,0.55,0.3,0.53,0.36,0.42,0.42,0.55,0.61,0.26,0.74" style="fill:rgb(0,0,0);font-family:AdvOT1ef757c0;font-size:9.27px;stroke:none;">at a rate of 0.5 C. The voltage profiles of the three TiO</text>
   <text y="416.976" x="514.261" svgx:width="0.48" style="fill:rgb(0,0,0);font-family:AdvOT1ef757c0;font-size:6.18px;stroke:none;">2</text>
   <text y="415.389" x="519.137,526.66,530.709,533.507,537.362,540.734,543.143,547.192,549.509" svgx:width="0.81,0.44,0.3,0.42,0.36,0.26,0.44,0.25,0.36" style="fill:rgb(0,0,0);font-family:AdvOT1ef757c0;font-size:9.27px;stroke:none;">materials</text>
   <text y="426.047" x="303.874,306.283,311.28880000000004,313.909,316.707,321.627,325.5204,328.138,330.835,333.243,336.616,339.989,342.77,345.487,350.305,352.714,356.086,359.94,364.86,368.909,372.282,376.525,380.41839999999996,383.018,387.836,391.208,395.841,399.695,403.549,406.922,410.2592,413.008,416.381,421.301,425.933,432.2366,434.836,437.634,442.554,445.926,449.78,453.67339999999996,456.323,461.141,463.55,466.922,469.72,472.129,477.142,480.996,483.777,486.428,489.8,493.654,497.898,500.307,504.94,509.952,513.414,515.4534,518.062,523.751,527.605,531.849,534.258,538.89,543.8958,546.579" svgx:width="0.26,0.54,0.55,0.3,0.53,0.42,0.55,0.29,0.26,0.36,0.36,0.3,0.55,0.52,0.26,0.36,0.42,0.53,0.44,0.36,0.46,0.42,0.55,0.52,0.36,0.5,0.42,0.42,0.36,0.36,0.55,0.36,0.53,0.5,0.68,0.55,0.3,0.53,0.36,0.42,0.42,0.55,0.52,0.26,0.36,0.3,0.26,0.54,0.42,0.3,0.55,0.36,0.42,0.46,0.26,0.5,0.54,0.36,0.22,0.55,0.61,0.42,0.46,0.26,0.5,0.54,0.55,0.69" style="fill:rgb(0,0,0);font-family:AdvOT1ef757c0;font-size:9.27px;stroke:none;">in the first discharge process show three distinct regions. Region A</text>
   <text y="436.648" x="303.874,307.247,311.296,316.308,320.552,322.961,327.973,332.23720000000003,334.319,337.015,340.388,345.021,354.616,361.463,367.541,374.03,376.103,378.901" svgx:width="0.36,0.44,0.54,0.46,0.26,0.54,0.46,0.55,0.29,0.36,0.5,0.81,0.74,0.66,0.7,0.55,0.3,0.5" style="fill:rgb(0,0,0);font-family:AdvOT1ef757c0;font-size:9.27px;stroke:none;">ranging fromOCV to</text>
   <text y="436.648" x="385.626" svgx:width="0.83" style="fill:rgb(0,0,0);font-family:AdvP7DB7;font-size:9.27px;stroke:none;">,</text>
   <text y="436.648" x="393.336,397.774,399.794,404.232,408.6816,411.761,418.25,420.322,423.694,428.614,433.247,439.519,442.8562,444.983,449.0618,451.105,454.478,458.527,463.345,465.754,470.5744,472.649,476.893,481.525,483.842,486.64,490.689,494.932,498.8254,500.882,505.7,509.073,513.706,518.523,520.5624,522.653,528.926,533.845,536.254,540.109,545.0221,547.145,549.554" svgx:width="0.48,0.22,0.48,0.48,0.55,0.7,0.55,0.36,0.53,0.5,0.68,0.36,0.55,0.44,0.55,0.36,0.44,0.52,0.26,0.52,0.55,0.46,0.5,0.25,0.3,0.44,0.46,0.42,0.55,0.52,0.36,0.5,0.52,0.22,0.55,0.68,0.53,0.26,0.42,0.53,0.55,0.26,0.36" style="fill:rgb(0,0,0);font-family:AdvOT1ef757c0;font-size:9.27px;stroke:none;">1.75 V shows a rapid voltage drop, which is</text>
   <text y="447.306" x="303.875,308.406,313.419,318.051,324.324,329.32980000000003,332.903,336.951,340.2882,343.844,347.9228,351.441,356.36,360.993,368.517,373.149,377.393,381.247,386.26,390.114,394.747,399.565,402.9022,406.547,411.467" svgx:width="0.49,0.54,0.5,0.68,0.54,0.55,0.44,0.36,0.55,0.44,0.55,0.53,0.5,0.81,0.5,0.46,0.42,0.54,0.42,0.5,0.52,0.36,0.55,0.53,0.26" style="fill:rgb(0,0,0);font-family:AdvOT1ef757c0;font-size:9.27px;stroke:none;">known as a homogeneous Li</text>
   <text y="443.905" x="413.858" svgx:width="0.83" style="fill:rgb(0,0,0);font-family:AdvP414BFB;font-size:5.13px;stroke:none;">1</text>
   <text y="447.307" x="422.192,424.601,429.613,432.986,436.84,440.213,443.011,445.42,450.053,455.0588,458.646,461.055,466.068,468.866,473.501,477.071,479.869,484.789,488.6824,492.208,496.841,501.659,503.975,508.51730000000003,512.051,516.683,520.9472,524.466,528.5448,532.063,535.435,540.068,542.384,544.793,549.611" svgx:width="0.26,0.54,0.36,0.42,0.36,0.3,0.26,0.5,0.54,0.55,0.26,0.54,0.3,0.5,0.55,0.3,0.53,0.42,0.55,0.5,0.52,0.25,0.49,0.55,0.5,0.46,0.55,0.44,0.55,0.36,0.5,0.25,0.26,0.52,0.35" style="fill:rgb(0,0,0);font-family:AdvOT1ef757c0;font-size:9.27px;stroke:none;">insertion into the bulk by a solid-</text>
   <text y="457.908" x="303.874,307.247,311.879,314.196,319.014,321.812,324.221,328.853,333.85880000000003,337.89,340.299,345.311,348.684,352.538,355.911,358.709,361.118,365.751,370.7568,374.854,382.377,386.232,390.086,395.006,399.055,404.067,406.476,409.849" svgx:width="0.36,0.5,0.25,0.52,0.3,0.26,0.5,0.54,0.55,0.26,0.54,0.36,0.42,0.36,0.3,0.26,0.5,0.54,0.55,0.81,0.42,0.42,0.53,0.44,0.54,0.26,0.36,0.81" style="fill:rgb(0,0,0);font-family:AdvOT1ef757c0;font-size:9.27px;stroke:none;">solution insertion mechanism</text>
   <text y="454.507" x="417.373" svgx:width="0.48" style="fill:rgb(0,0,0);font-family:AdvOT1ef757c0;font-size:5.13px;stroke:none;">7</text>
   <text y="457.909" x="420.151,422.1904,426.217,432.6133,436.591,442.864,446.718,449.035,451.351,454.631,459.162,464.174,468.807,475.079,480.08480000000003,484.158,486.956,493.228,497.861,501.141,505.959,510.879,514.928,518.3,522.1934,526.167,530.985,533.302,537.351,540.149,544.003,548.052" svgx:width="0.22,0.55,0.69,0.55,0.68,0.42,0.25,0.25,0.35,0.49,0.54,0.5,0.68,0.54,0.55,0.3,0.68,0.5,0.35,0.52,0.53,0.44,0.36,0.42,0.55,0.52,0.25,0.44,0.3,0.42,0.44,0.52" style="fill:rgb(0,0,0);font-family:AdvOT1ef757c0;font-size:9.27px;stroke:none;">. A well-known two-phase plateau</text>
   <text y="468.566" x="303.874,306.283,311.28880000000004,313.002,316.374,320.229,324.472,326.881,331.514,336.51980000000003,338.23,343.6066,345.317,347.726,351.0632,352.801,357.433,362.066,365.439,369.293,372.665,376.909,380.763,385.5834,387.327,391.376" svgx:width="0.26,0.54,0.55,0.36,0.42,0.46,0.26,0.5,0.54,0.55,0.58,0.55,0.26,0.36,0.55,0.5,0.5,0.36,0.42,0.36,0.46,0.42,0.52,0.55,0.44,0.3" style="fill:rgb(0,0,0);font-family:AdvOT1ef757c0;font-size:9.27px;stroke:none;">in region B is observed at</text>
   <text y="468.566" x="395.887" svgx:width="0.83" style="fill:rgb(0,0,0);font-family:AdvP7DB7;font-size:9.27px;stroke:none;">,</text>
   <text y="468.566" x="403.598,408.036,410.056,414.494,418.9436,422.08,428.538,430.5774,432.228,438.501,443.421,447.275,450.648,454.5414,456.21,461.13,463.539,466.818,470.191,472.6,476.454,481.3671,483.139,487.957,492.877,496.926,500.299,504.153,507.4902,509.218,513.267,518.28,523.1003999999999,524.866,529.785,532.194,535.474,540.292,544.925,549.557" svgx:width="0.48,0.22,0.48,0.48,0.55,0.7,0.22,0.55,0.68,0.53,0.42,0.36,0.42,0.55,0.53,0.26,0.35,0.36,0.26,0.42,0.53,0.55,0.52,0.53,0.44,0.36,0.42,0.36,0.55,0.44,0.54,0.52,0.55,0.53,0.26,0.35,0.52,0.5,0.5,0.36" style="fill:rgb(0,0,0);font-family:AdvOT1ef757c0;font-size:9.27px;stroke:none;">1.75 V, where Li-rich phases and Li-poor</text>
   <text y="479.224" x="303.875,308.693,313.613,317.662,321.035,324.889,328.2262,331.032,334.886,339.519,343.373,347.709,350.118,353.491" svgx:width="0.52,0.53,0.44,0.36,0.42,0.36,0.55,0.42,0.5,0.42,0.47,0.26,0.36,0.3" style="fill:rgb(0,0,0);font-family:AdvOT1ef757c0;font-size:9.27px;stroke:none;">phases coexist</text>
   <text y="475.767" x="356.315" svgx:width="0.48" style="fill:rgb(0,0,0);font-family:AdvOT1ef757c0;font-size:5.13px;stroke:none;">5</text>
   <text y="479.225" x="359.036,361.0754,363.798,370.164,372.86,375.658,379.512,382.8492,385.626,388.424,393.344,397.2374,399.969,402.767,409.04,413.673,416.953,421.771,426.69,430.739,434.112,438.0054,440.732,445.55,447.866,451.915,454.713,458.568,462.617,467.435,469.4744,472.197,474.995,479.915,483.8084,486.541,489.913,493.767,498.011,500.42,505.053,510.0588,512.79,518.9082,521.634,525.683,528.4639999999999,531.215,535.848,539.702,542.018,546.651" svgx:width="0.22,0.55,0.69,0.29,0.3,0.42,0.36,0.55,0.3,0.53,0.42,0.55,0.3,0.68,0.5,0.35,0.52,0.53,0.44,0.36,0.42,0.55,0.52,0.25,0.44,0.3,0.42,0.44,0.52,0.22,0.55,0.3,0.53,0.42,0.55,0.36,0.42,0.46,0.26,0.5,0.54,0.55,0.66,0.55,0.44,0.3,0.55,0.5,0.42,0.25,0.5,0.68" style="fill:rgb(0,0,0);font-family:AdvOT1ef757c0;font-size:9.27px;stroke:none;">. After the two-phase plateau, the region C at below</text>
   <text y="489.826" x="303.874,308.312,310.332,314.77,319.21959999999996,322.299,328.78799999999995,331.03,334.884,339.22,344.14,346.549,351.182,353.591,356.389,359.7262,362.042,366.1208,368.335,371.707,374.024,378.656,383.474,387.329,392.1494,394.414,398.268,403.086,406.459,410.702,414.557,416.5964,418.849,424.538,429.458,431.867,435.2042,437.558,442.376,445.748,450.381,454.235,458.09,461.462,464.7992,467.095,470.95,474.999,480.00480000000005,482.29,486.922,490.8154,493.005,497.054,499.852,502.65,506.023,508.432,513.064,517.882,520.68,524.535,529.3553999999999,531.67,534.468,539.103,541.364,544.162,549.082" svgx:width="0.48,0.22,0.48,0.48,0.55,0.7,0.55,0.42,0.47,0.53,0.26,0.5,0.26,0.3,0.36,0.55,0.44,0.55,0.36,0.25,0.5,0.52,0.42,0.52,0.55,0.42,0.52,0.36,0.46,0.42,0.22,0.55,0.61,0.53,0.26,0.36,0.55,0.52,0.36,0.5,0.42,0.42,0.36,0.36,0.55,0.42,0.44,0.54,0.55,0.5,0.42,0.55,0.44,0.3,0.3,0.36,0.26,0.5,0.52,0.3,0.42,0.52,0.55,0.3,0.5,0.55,0.3,0.53,0.42" style="fill:rgb(0,0,0);font-family:AdvOT1ef757c0;font-size:9.27px;stroke:none;">1.75 V exhibits a sloped curve. This process can be attributed to the</text>
   <text y="500.484" x="303.874,307.247,311.101,315.345,319.199,322.572,325.944,328.353,332.986,335.302,339.1954,340.838,344.211,349.029,352.401,355.097,359.146,363.001,366.855,369.838,372.247,377.26,380.058,383.912,387.285,389.981,394.03,397.885,400.293,404.342,406.6595,408.417,410.734,413.143,415.941,420.861,423.27,428.087,437.274,440.647,443.445,448.077,451.45,455.499,459.742,463.6354,465.28,469.913,474.91880000000003,476.619,479.417,484.337,488.2304,489.829,495.518,497.927" svgx:width="0.36,0.42,0.46,0.42,0.36,0.36,0.26,0.5,0.25,0.42,0.55,0.36,0.52,0.36,0.29,0.44,0.42,0.42,0.32,0.26,0.54,0.3,0.42,0.36,0.29,0.44,0.42,0.26,0.44,0.25,0.55,0.25,0.26,0.3,0.53,0.26,0.52,0.81,0.36,0.3,0.5,0.36,0.44,0.46,0.42,0.55,0.5,0.54,0.55,0.3,0.53,0.42,0.55,0.61,0.26,0.74" style="fill:rgb(0,0,0);font-family:AdvOT1ef757c0;font-size:9.27px;stroke:none;">reversible surface/interfacial lithiumstorage on the TiO</text>
   <text y="502.016" x="504.793" svgx:width="0.48" style="fill:rgb(0,0,0);font-family:AdvOT1ef757c0;font-size:6.18px;stroke:none;">2</text>
   <text y="500.485" x="509.783,513.832,518.844,523.6644,525.317,529.171,533.22,536.593,541.225,545.858,550.87" svgx:width="0.44,0.54,0.52,0.55,0.42,0.44,0.36,0.5,0.5,0.54,0.22" style="fill:rgb(0,0,0);font-family:AdvOT1ef757c0;font-size:9.27px;stroke:none;">and carbon,</text>
   <text y="511.086" x="303.874,310.147,315.067,317.476,321.33,326.24309999999997,330.01,332.419,335.7562,339.535,343.389,348.022,353.034,356.407,358.816,362.188,364.986,368.841,373.853,376.634,380.411,386.684,389.093,391.891,396.8041,400.594,403.392,408.312,412.2054,415.901,419.95,424.583,429.215,433.459,437.3524,441.073,444.445,448.3,452.154,454.952,459.001,464.014,468.257,473.075,475.392,479.441,482.77819999999997,486.598,490.452,495.27,498.643,502.886,506.741,510.0782,513.868,516.277,521.2828000000001,525.036,527.834,532.754,536.6474000000001,540.343,546.421" svgx:width="0.68,0.53,0.26,0.42,0.53,0.55,0.26,0.36,0.55,0.42,0.5,0.54,0.36,0.26,0.36,0.3,0.42,0.54,0.3,0.55,0.68,0.26,0.3,0.53,0.55,0.3,0.53,0.42,0.55,0.44,0.5,0.5,0.46,0.42,0.55,0.36,0.42,0.42,0.3,0.44,0.54,0.46,0.52,0.25,0.44,0.36,0.55,0.42,0.52,0.36,0.46,0.42,0.36,0.55,0.26,0.54,0.55,0.3,0.53,0.42,0.55,0.66,0.7" style="fill:rgb(0,0,0);font-family:AdvOT1ef757c0;font-size:9.27px;stroke:none;">which is consistent with the above rectangular curves in the CV</text>
   <text y="521.744" x="303.874,307.247,312.167,316.799,323.072,328.0778,330.18,332.589,337.5948,339.705,344.523,346.932,351.19620000000003,353.311,357.749,361.798,363.8374,365.897,370.233,375.051,379.869,384.687,387.003,390.858,398.381,402.236,407.248,410.046,414.095,417.468,421.73220000000003,423.895,429.584,433.633,438.266,440.582,444.4754,446.573,450.909,455.35859999999997,457.401,460.774,465.592,473.115,480.639,484.688,488.06,490.469,494.323,498.178,501.5152,503.72,506.518,511.438,515.3314,517.384,521.238,525.287,530.105,534.154,538.008,540.417,543.216,545.625,549.479" svgx:width="0.36,0.53,0.5,0.68,0.54,0.55,0.26,0.54,0.55,0.52,0.26,0.46,0.55,0.48,0.44,0.22,0.55,0.47,0.52,0.52,0.52,0.25,0.42,0.81,0.42,0.54,0.3,0.44,0.36,0.46,0.55,0.61,0.44,0.5,0.25,0.42,0.55,0.47,0.48,0.55,0.36,0.52,0.81,0.81,0.44,0.36,0.26,0.42,0.42,0.36,0.55,0.3,0.53,0.42,0.55,0.42,0.44,0.52,0.44,0.42,0.26,0.3,0.26,0.42,0.36" style="fill:rgb(0,0,0);font-family:AdvOT1ef757c0;font-size:9.27px;stroke:none;">shown in Fig 5a. Supplementary Table S1 summarizes the capacities</text>
   <text y="532.345" x="303.874,307.729,312.361,315.734,319.106,322.961,326.333,331.151,335.784,340.797,345.614,348.023,353.036,357.3002,359.208,362.006,366.64099999999996,368.562,371.36,376.28,380.17339999999996,381.998,384.796,389.716,393.089,396.943,400.83639999999997,402.691,407.509,409.918,412.615,415.311,419.165,422.538,426.392,431.405,434.186,436.141,439.995,442.312,446.166,450.02,452.819,456.191,460.824,464.678,469.598,473.452,480.976,483.385,487.239,491.288,493.6055,495.613,500.431,503.804,508.436,512.291,516.145,519.518,522.89,526.745,530.0822000000001,532.011,534.42,539.4258,541.365,544.163,549.083" svgx:width="0.42,0.5,0.36,0.36,0.42,0.36,0.52,0.5,0.54,0.52,0.26,0.54,0.46,0.55,0.3,0.5,0.55,0.3,0.53,0.42,0.55,0.3,0.53,0.36,0.42,0.42,0.55,0.52,0.26,0.29,0.29,0.42,0.36,0.42,0.54,0.3,0.55,0.42,0.25,0.42,0.42,0.3,0.36,0.5,0.42,0.53,0.42,0.81,0.26,0.42,0.44,0.25,0.55,0.52,0.36,0.5,0.42,0.42,0.36,0.36,0.42,0.36,0.55,0.26,0.54,0.55,0.3,0.53,0.42" style="fill:rgb(0,0,0);font-family:AdvOT1ef757c0;font-size:9.27px;stroke:none;">corresponding to the three different electrochemical processes in the</text>
   <text y="543.003" x="303.874,306.57,308.979,312.352,315.725,318.50600000000003,320.599,324.453,328.697,332.551,334.868,338.722,340.7614,342.766,345.852,348.633,350.703,354.557,358.606,363.6118,365.727,370.359,374.25239999999997,376.215,380.848,385.48,388.853,392.707,396.08,400.323,404.178,408.9984,411.081,413.879,418.799,422.848,425.629,427.75,430.548,435.467,439.36039999999997,441.356,444.728,448.583,452.826,455.235,459.868,464.8738,466.924,473.3203,475.371,479.42,484.433,489.2534,491.302,496.6786,498.729,503.547,506.92,511.552,515.796,518.205,523.023,526.9164000000001,529.003,533.0818,535.069,537.386,541.435,544.807,549.051" svgx:width="0.29,0.26,0.36,0.36,0.3,0.55,0.42,0.46,0.42,0.25,0.42,0.22,0.55,0.33,0.3,0.55,0.42,0.44,0.54,0.55,0.5,0.42,0.55,0.5,0.5,0.36,0.42,0.36,0.46,0.42,0.52,0.55,0.3,0.53,0.44,0.3,0.55,0.3,0.53,0.42,0.55,0.36,0.42,0.46,0.26,0.5,0.54,0.55,0.69,0.55,0.44,0.54,0.52,0.55,0.58,0.55,0.52,0.36,0.5,0.46,0.26,0.52,0.42,0.55,0.44,0.55,0.25,0.44,0.36,0.46,0.42" style="fill:rgb(0,0,0);font-family:AdvOT1ef757c0;font-size:9.27px;stroke:none;">first cycle. It can be observed that the region A and B provide a large</text>
   <text y="553.605" x="303.874,308.692,312.065,316.697,321.515,326.148,329.521,332.319,334.728,339.36,344.36580000000004,346.565,351.198,353.8863,356.033,358.35,360.759,363.557,368.477,370.886,375.703,385.401,388.773,391.571,396.204,399.576,403.625,407.869,411.7624,413.917,417.772,422.404,427.417,430.215,433.588,435.997,440.629,445.447,448.245,450.654,455.287,460.2928,462.447,465.143,469.776,473.1132,475.317,478.115,483.035,486.9284,489.037,492.891,497.524,505.047,512.571,516.425,519.798,523.652,526.061,530.11,532.4275,534.618,540.307,542.716" svgx:width="0.52,0.36,0.5,0.52,0.5,0.36,0.3,0.26,0.5,0.54,0.55,0.5,0.29,0.55,0.25,0.26,0.3,0.53,0.26,0.52,0.81,0.36,0.3,0.5,0.36,0.44,0.46,0.42,0.55,0.42,0.5,0.54,0.3,0.36,0.26,0.5,0.52,0.3,0.26,0.5,0.54,0.55,0.29,0.5,0.36,0.55,0.3,0.53,0.42,0.55,0.42,0.5,0.81,0.81,0.42,0.36,0.42,0.26,0.44,0.25,0.55,0.61,0.26,0.74" style="fill:rgb(0,0,0);font-family:AdvOT1ef757c0;font-size:9.27px;stroke:none;">proportion of lithiumstorage contribution for the commercial TiO</text>
   <text y="555.137" x="549.581" svgx:width="0.48" style="fill:rgb(0,0,0);font-family:AdvOT1ef757c0;font-size:6.18px;stroke:none;">2</text>
   <text y="564.265" x="303.874,308.886,312.935,317.948,322.581,327.398,331.447,334.82,337.618,340.027,343.881,346.198,350.052,352.0914,355.181,361.454,366.374,368.783,372.637,377.5501,380.58,385.5,389.549,392.8862,395.944,398.742,403.662,407.55539999999996,410.571,412.888,416.936,420.309,424.553,428.407,431.779,434.56,437.614,440.986,444.841,449.084,451.493,456.126,461.1318,464.203,469.57959999999997,472.651,476.699,481.712,486.5324,489.545,492.917,496.772,499.088,503.137,505.935,508.344,512.588,516.442,518.758,523.0222,526.112,529.485,537.008,541.057,543.374,545.69,549.544" svgx:width="0.54,0.44,0.54,0.5,0.52,0.44,0.36,0.3,0.26,0.42,0.25,0.42,0.22,0.55,0.68,0.53,0.26,0.42,0.53,0.55,0.53,0.44,0.36,0.55,0.3,0.53,0.42,0.55,0.25,0.44,0.36,0.46,0.42,0.36,0.3,0.55,0.36,0.42,0.46,0.26,0.5,0.54,0.55,0.58,0.55,0.44,0.54,0.52,0.55,0.36,0.42,0.25,0.44,0.3,0.26,0.46,0.42,0.25,0.46,0.55,0.36,0.81,0.44,0.25,0.25,0.42,0.36" style="fill:rgb(0,0,0);font-family:AdvOT1ef757c0;font-size:9.27px;stroke:none;">nanoparticle, which has the largest region B and relatively smaller</text>
   <text y="574.866" x="303.874,307.246,311.101,315.344,317.753,322.386,327.39180000000005,329.442,335.52,337.5594,339.647,345.336,350.256,354.14939999999996,356.145,362.223,369.07,374.759,377.742,383.431,385.84" svgx:width="0.36,0.42,0.46,0.26,0.5,0.54,0.55,0.66,0.22,0.55,0.61,0.53,0.42,0.55,0.66,0.74,0.61,0.32,0.61,0.26,0.74" style="fill:rgb(0,0,0);font-family:AdvOT1ef757c0;font-size:9.27px;stroke:none;">region C. The CNT/TiO</text>
   <text y="576.397" x="392.712" svgx:width="0.48" style="fill:rgb(0,0,0);font-family:AdvOT1ef757c0;font-size:6.18px;stroke:none;">2</text>
   <text y="574.866" x="398.098,401.952,406.585,414.108,418.926,423.559,426.931,429.34,432.138,436.03139999999996,438.124,443.043,447.092,450.4292,452.524,456.6028,458.646,462.019,465.873,468.19,472.238,475.037,477.446,481.689,485.543,487.86,492.12420000000003,494.193,496.51,501.142,506.155,510.4192,512.449,515.821,519.676,523.919,526.328,530.961,535.9668,538.017,543.3936000000001,545.501,549.55" svgx:width="0.42,0.5,0.81,0.52,0.5,0.36,0.26,0.3,0.42,0.55,0.53,0.44,0.36,0.55,0.44,0.55,0.36,0.42,0.25,0.44,0.3,0.26,0.46,0.42,0.25,0.46,0.55,0.25,0.5,0.54,0.46,0.55,0.36,0.42,0.46,0.26,0.5,0.54,0.55,0.58,0.55,0.44,0.36" style="fill:rgb(0,0,0);font-family:AdvOT1ef757c0;font-size:9.27px;stroke:none;">composite has a relatively long region B as</text>
   <text y="585.524" x="303.874,310.147,314.001,316.317,318.6345,320.768,324.817,328.1542,330.35,334.4288,336.586,338.902,343.535,348.548,352.8122,354.898,358.271,362.125,366.368,368.777,373.41,378.41580000000005,380.637,386.715,388.7544,390.898,393.984,398.9898,401.16,404.532,409.452,413.501,416.874,421.69440000000003,423.837,427.692,432.324,437.337,440.135,443.508,447.557,450.929,453.727,455.7664,457.967,460.765,465.685,469.5784,471.687,477.765,484.612,490.301,497.25,502.939,505.348" svgx:width="0.68,0.42,0.25,0.25,0.55,0.44,0.36,0.55,0.44,0.55,0.25,0.5,0.54,0.46,0.55,0.36,0.42,0.46,0.26,0.5,0.54,0.55,0.66,0.22,0.55,0.33,0.54,0.55,0.36,0.53,0.44,0.36,0.52,0.55,0.42,0.5,0.54,0.3,0.36,0.44,0.36,0.3,0.22,0.55,0.3,0.53,0.42,0.55,0.66,0.74,0.61,0.75,0.61,0.26,0.74" style="fill:rgb(0,0,0);font-family:AdvOT1ef757c0;font-size:9.27px;stroke:none;">well as a long region C. In sharp contrast, the CNT@TiO</text>
   <text y="587.055" x="512.22" svgx:width="0.48" style="fill:rgb(0,0,0);font-family:AdvOT1ef757c0;font-size:6.18px;stroke:none;">2</text>
   <text y="585.524" x="515.565,518.845,524.9632,527.074,532.086,536.135,541.148,545.78,549.635" svgx:width="0.35,0.66,0.55,0.54,0.44,0.54,0.5,0.42,0.35" style="fill:rgb(0,0,0);font-family:AdvOT1ef757c0;font-size:9.27px;stroke:none;">-C nanoc-</text>
   <text y="596.126" x="303.874,307.923,312.556,314.872,318.7654,321.336,326.256,330.305,333.6422,336.246,340.3248,342.936,347.18,351.034,354.406,358.6702,361.248,364.62,372.144,376.193,378.509,380.8265,383.415,386.788,390.642,394.886,397.295,401.927,406.93280000000004,409.607,414.9836,417.601,421.65,426.663,431.4834,434.099,436.897,441.817,445.7104,448.272,450.589,454.638,458.01,462.254,466.108,469.481,472.262,474.862,478.234,482.089,486.332,488.741,493.374,498.37980000000005,501.054,507.1722,509.728,513.777,517.1142000000001,519.706,522.504,527.424,531.3174,533.935,541.459,545.508,547.917" svgx:width="0.44,0.5,0.25,0.42,0.55,0.53,0.44,0.36,0.55,0.44,0.55,0.46,0.42,0.36,0.46,0.55,0.36,0.81,0.44,0.25,0.25,0.55,0.36,0.42,0.46,0.26,0.5,0.54,0.55,0.58,0.55,0.44,0.54,0.52,0.55,0.3,0.53,0.42,0.55,0.25,0.44,0.36,0.46,0.42,0.36,0.3,0.55,0.36,0.42,0.46,0.26,0.5,0.54,0.55,0.66,0.55,0.44,0.36,0.55,0.3,0.53,0.42,0.55,0.81,0.44,0.26,0.54" style="fill:rgb(0,0,0);font-family:AdvOT1ef757c0;font-size:9.27px;stroke:none;">able has a very small region B and the largest region C as the main</text>
   <text y="606.784" x="303.874,306.191,308.6,311.398,316.318,318.727,323.545,331.0537,333.355,336.727,339.525,344.158,347.531,351.58,355.823,359.71639999999996,362.042,365.414,369.269,373.512,375.921,380.554,385.567,387.6064,389.935,393.02,395.801,398.099,400.508,403.8452,406.206,410.06,414.693,419.705,423.078,425.487,428.86,431.658,435.512,440.525,443.306,445.665,451.938,454.346,457.145,462.05809999999997,464.373,467.172,472.091,475.9844,478.263,481.636,485.49,490.308,494.941,498.313,501.111,504.966,509.7864,512.109,515.482,519.336,522.709,527.527,529.843,532.641,535.9782,538.359,541.157,546.077,550.125" svgx:width="0.25,0.26,0.3,0.53,0.26,0.52,0.81,0.55,0.36,0.3,0.5,0.36,0.44,0.46,0.42,0.55,0.36,0.42,0.46,0.26,0.5,0.54,0.22,0.55,0.33,0.3,0.55,0.26,0.36,0.55,0.42,0.5,0.54,0.36,0.26,0.36,0.3,0.42,0.54,0.3,0.55,0.68,0.26,0.3,0.53,0.55,0.3,0.53,0.42,0.55,0.36,0.42,0.52,0.5,0.36,0.3,0.42,0.52,0.55,0.36,0.42,0.36,0.52,0.25,0.3,0.36,0.55,0.3,0.53,0.44,0.3" style="fill:rgb(0,0,0);font-family:AdvOT1ef757c0;font-size:9.27px;stroke:none;">lithium storage region. It is consistent with the reported results that</text>
   <text y="617.385" x="303.874,306.673,311.592,315.48539999999997,318.502,323.319,326.692,331.325,336.143,340.775,344.148,346.946,349.355,353.988,358.9938,362.099,366.732,369.42030000000005,372.475,375.847,379.702,383.945,386.354,390.987,395.99280000000005,399.064" svgx:width="0.3,0.53,0.42,0.55,0.52,0.36,0.5,0.52,0.5,0.36,0.3,0.26,0.5,0.54,0.55,0.5,0.29,0.55,0.36,0.42,0.46,0.26,0.5,0.54,0.55,0.69" style="fill:rgb(0,0,0);font-family:AdvOT1ef757c0;font-size:9.27px;stroke:none;">the proportion of region A</text>
   <text y="617.385" x="405.411" svgx:width="0.83" style="fill:rgb(0,0,0);font-family:AdvP414BFB;font-size:9.27px;stroke:none;">1</text>
   <text y="617.385" x="413.178,418.5546,421.625,426.443,430.298,434.152,437.524,441.379,445.428,448.8,452.655,456.027,458.0664,461.141,467.413,472.333,474.742,477.059,480.9524,483.988,487.361,491.215,495.459,497.867,502.5,507.5058,510.578,516.6962,519.705,522.114,527.126,530.981,534.353,538.208,542.257,545.629,549.484" svgx:width="0.58,0.55,0.52,0.42,0.42,0.36,0.42,0.44,0.36,0.42,0.36,0.22,0.55,0.68,0.53,0.26,0.25,0.42,0.55,0.36,0.42,0.46,0.26,0.5,0.54,0.55,0.66,0.55,0.26,0.54,0.42,0.36,0.42,0.44,0.36,0.42,0.36" style="fill:rgb(0,0,0);font-family:AdvOT1ef757c0;font-size:9.27px;stroke:none;">B decreases, while region C increases</text>
   <text y="628.043" x="303.874,310.147,312.556,315.354,320.26709999999997,322.13,326.2088,328.083,332.901,336.755,340.609,343.982,347.836,351.885,355.258,357.667,362.679,366.9432,368.845,373.478,376.16630000000004,378.087,380.885,385.805,389.6984,391.523,397.212,399.621" svgx:width="0.68,0.26,0.3,0.53,0.55,0.44,0.55,0.52,0.42,0.42,0.36,0.42,0.44,0.36,0.26,0.54,0.46,0.55,0.5,0.29,0.55,0.3,0.53,0.42,0.55,0.61,0.26,0.74" style="fill:rgb(0,0,0);font-family:AdvOT1ef757c0;font-size:9.27px;stroke:none;">with a decreasing of the TiO</text>
   <text y="629.575" x="406.488" svgx:width="0.48" style="fill:rgb(0,0,0);font-family:AdvOT1ef757c0;font-size:6.18px;stroke:none;">2</text>
   <text y="628.044" x="411.704,416.522,420.571,423.943,426.741,429.15,433.005,435.321,439.2144,441.128,444.5,446.909,450.764" svgx:width="0.52,0.44,0.36,0.3,0.26,0.42,0.25,0.42,0.55,0.36,0.26,0.42,0.42" style="fill:rgb(0,0,0);font-family:AdvOT1ef757c0;font-size:9.27px;stroke:none;">particle size</text>
   <text y="624.642" x="454.62,457.383,458.64,461.403" svgx:width="0.48,0.22,0.48,0.48" style="fill:rgb(0,0,0);font-family:AdvOT1ef757c0;font-size:5.13px;stroke:none;">8,37</text>
   <text y="628.044" x="464.145,466.1844,468.057,471.142,473.923,475.824,479.196,484.116,488.749,493.567,495.883,500.7034,502.583,507.215,511.10839999999996,512.958,520.481,524.336,529.348,532.146,534.555,539.188,544.201,548.055" svgx:width="0.22,0.55,0.33,0.3,0.55,0.36,0.53,0.5,0.52,0.25,0.52,0.55,0.5,0.42,0.55,0.81,0.42,0.54,0.3,0.26,0.5,0.54,0.42,0.52" style="fill:rgb(0,0,0);font-family:AdvOT1ef757c0;font-size:9.27px;stroke:none;">. It should be mentioned</text>
   <text y="638.645" x="303.875,306.673,311.592,315.641,318.422,320.769,323.567,328.487,332.341,335.714,339.6074,341.916,345.289,347.605,352.238,357.055,360.91,365.73040000000003,368.052,371.906,376.826,380.875,384.247,388.491,392.345,395.625,400.443,402.852,406.225,410.079,414.999,419.048,422.42,426.664,430.5574,432.91,437.153,441.786,444.102,446.9,450.949,455.193,459.08639999999997,461.426,466.244,469.617,474.249,476.946,479.355,481.671,485.525,488.8622,491.248,497.52,501.375,504.747,508.6404,510.921,515.553,520.186,523.558,527.413,530.785,535.029,538.883,543.7034,546.07,550.119" svgx:width="0.3,0.53,0.44,0.3,0.55,0.3,0.53,0.42,0.36,0.42,0.55,0.36,0.25,0.5,0.52,0.42,0.52,0.55,0.42,0.53,0.44,0.36,0.46,0.42,0.35,0.52,0.26,0.36,0.42,0.53,0.44,0.36,0.46,0.42,0.55,0.46,0.5,0.25,0.3,0.44,0.46,0.42,0.55,0.52,0.36,0.5,0.29,0.26,0.25,0.42,0.36,0.55,0.68,0.42,0.36,0.42,0.55,0.5,0.5,0.36,0.42,0.36,0.46,0.42,0.52,0.55,0.44,0.3" style="fill:rgb(0,0,0);font-family:AdvOT1ef757c0;font-size:9.27px;stroke:none;">that these sloped charge-discharge voltage profiles were observed at</text>
   <text y="649.303" x="303.875,307.923,310.24,312.5575,316.007,320.824,323.233,325.93,328.626,332.48,335.853,339.707,344.72,347.50100000000003,351.043,354.416,358.465,361.263,365.117,368.4542,371.963,375.141,378.514,382.368,386.2614,389.708,393.081,397.899,402.717,407.535,409.851,413.705,421.229,425.083,430.096,432.894,436.943,440.315,444.5792,448.046,452.864,455.273,459.517,461.5564,465.055,469.391,473.8406,477.301,481.933,486.946,489.262,491.671,496.684,500.538,503.716,505.7554,509.22,514.908,519.828,522.237,525.5742,529.062,532.435,534.751,539.384,544.202,548.056" svgx:width="0.44,0.25,0.25,0.55,0.52,0.26,0.29,0.29,0.42,0.36,0.42,0.54,0.3,0.55,0.36,0.44,0.3,0.42,0.36,0.55,0.34,0.36,0.42,0.42,0.55,0.36,0.52,0.52,0.52,0.25,0.42,0.81,0.42,0.54,0.3,0.44,0.36,0.46,0.55,0.52,0.26,0.46,0.22,0.55,0.47,0.48,0.55,0.5,0.54,0.25,0.26,0.54,0.42,0.34,0.22,0.55,0.61,0.53,0.26,0.36,0.55,0.36,0.25,0.5,0.52,0.42,0.52" style="fill:rgb(0,0,0);font-family:AdvOT1ef757c0;font-size:9.27px;stroke:none;">all different rates (see supplementary Fig. S7 online). This sloped</text>
   <text y="659.904" x="303.875,308.118,312.751,315.067,317.865,321.914,326.158,330.0514,332.789,337.607,340.979,345.612,348.308,350.717,353.033,356.9264,359.718,363.573,367.622,372.62780000000004,375.422,380.055,383.9484,386.704,394.228,398.277,400.686,405.698,408.015,412.2792,415.052,419.101,421.899,424.697,428.069,430.478,435.111,439.929,442.727,446.582,451.4024,454.227,457.025,461.65999999999997,464.432,467.23,472.15,476.04339999999996,478.832,483.65,487.504,491.359,494.731,498.586,502.635,506.007,509.862,514.6824,517.497,521.352,524.724,528.968,532.34,535.138,539.187,541.504,543.82,546.229,549.027" svgx:width="0.46,0.5,0.25,0.3,0.44,0.46,0.42,0.55,0.52,0.36,0.5,0.29,0.26,0.25,0.42,0.55,0.42,0.44,0.54,0.55,0.5,0.42,0.55,0.81,0.44,0.26,0.54,0.25,0.46,0.55,0.44,0.3,0.3,0.36,0.26,0.5,0.52,0.3,0.42,0.52,0.55,0.3,0.5,0.55,0.3,0.53,0.42,0.55,0.52,0.42,0.42,0.36,0.42,0.44,0.36,0.42,0.52,0.55,0.42,0.36,0.46,0.36,0.3,0.44,0.25,0.25,0.26,0.3,0.42" style="fill:rgb(0,0,0);font-family:AdvOT1ef757c0;font-size:9.27px;stroke:none;">voltage profile can be mainly attributed to the decreased crystallite</text>
   <text y="670.562" x="303.875,307.247,309.656,313.51,317.4034,318.955,323.587,326.2753,327.912,333.601,336.01" svgx:width="0.36,0.26,0.42,0.42,0.55,0.5,0.29,0.55,0.61,0.26,0.74" style="fill:rgb(0,0,0);font-family:AdvOT1ef757c0;font-size:9.27px;stroke:none;">size of TiO</text>
   <text y="672.094" x="342.879" svgx:width="0.48" style="fill:rgb(0,0,0);font-family:AdvOT1ef757c0;font-size:6.18px;stroke:none;">2</text>
   <text y="670.564" x="347.811,351.86,356.872,361.6924,363.289,366.087,371.007,374.9004,376.442,381.26,385.892,389.265,393.897,398.715,402.05219999999997,403.711,408.724,412.773,417.785,422.418,425.79,428.589,431.961,436.779,440.634,443.432,448.25,451.622,455.5154,457.174,461.807,464.49530000000004,466.075,468.873,473.793,477.6864,479.285,484.205,488.448,493.081,496.453,498.862,503.68240000000003,505.307,512.831,516.88,519.678,523.532,526.905,529.314,533.362" svgx:width="0.44,0.54,0.52,0.55,0.3,0.53,0.42,0.55,0.52,0.5,0.36,0.5,0.52,0.36,0.55,0.54,0.44,0.54,0.5,0.36,0.3,0.36,0.52,0.42,0.3,0.52,0.36,0.42,0.55,0.5,0.29,0.55,0.3,0.53,0.42,0.55,0.53,0.46,0.5,0.36,0.26,0.52,0.55,0.81,0.44,0.3,0.42,0.36,0.26,0.44,0.25" style="fill:rgb(0,0,0);font-family:AdvOT1ef757c0;font-size:9.27px;stroke:none;">and the porous nanostructure of the hybrid material</text>
   <text y="667.162" x="535.691,538.454" svgx:width="0.48,0.48" style="fill:rgb(0,0,0);font-family:AdvOT1ef757c0;font-size:5.13px;stroke:none;">15</text>
   <text y="670.564" x="541.19,543.2294,544.819,547.904" svgx:width="0.22,0.55,0.33,0.54" style="fill:rgb(0,0,0);font-family:AdvOT1ef757c0;font-size:9.27px;stroke:none;">. In</text>
   <text y="681.165" x="303.875,306.673,311.593,315.4864,317.028,323.106,329.953,335.642,342.591,348.279,350.688" svgx:width="0.3,0.53,0.42,0.55,0.66,0.74,0.61,0.75,0.61,0.26,0.74" style="fill:rgb(0,0,0);font-family:AdvOT1ef757c0;font-size:9.27px;stroke:none;">the CNT@TiO</text>
   <text y="682.753" x="357.562" svgx:width="0.48" style="fill:rgb(0,0,0);font-family:AdvOT1ef757c0;font-size:6.18px;stroke:none;">2</text>
   <text y="681.165" x="360.85,364.13,371.792,376.804,380.853,385.866,390.498,394.353,398.402,403.034,405.351,409.205,411.2444,412.838,415.636,420.556,424.44939999999997,425.991,429.363,431.772,435.627,439.5204,441.015,445.647,448.3353,449.916,455.605,458.014" svgx:width="0.35,0.66,0.54,0.44,0.54,0.5,0.42,0.44,0.5,0.25,0.42,0.22,0.55,0.3,0.53,0.42,0.55,0.36,0.26,0.42,0.42,0.55,0.5,0.29,0.55,0.61,0.26,0.74" style="fill:rgb(0,0,0);font-family:AdvOT1ef757c0;font-size:9.27px;stroke:none;">-Cnanocable, the size of TiO</text>
   <text y="682.753" x="464.882" svgx:width="0.48" style="fill:rgb(0,0,0);font-family:AdvOT1ef757c0;font-size:6.18px;stroke:none;">2</text>
   <text y="681.165" x="469.757,474.575,478.624,481.997,484.795,487.204,491.058,493.375,497.229,500.5662,502.242,504.651,507.9882,509.556,514.188,518.043,520.359,524.992,532.857,537.3066,540.397,545.409" svgx:width="0.52,0.44,0.36,0.3,0.26,0.42,0.25,0.42,0.36,0.55,0.26,0.36,0.55,0.5,0.42,0.25,0.5,0.68,0.48,0.55,0.54,0.81" style="fill:rgb(0,0,0);font-family:AdvOT1ef757c0;font-size:9.27px;stroke:none;">particles is below8 nm</text>
   <text y="691.823" x="303.874,307.923,312.936,317.7564,319.465,322.263,327.183,331.037,334.41,338.3034,339.988,344.806,348.855,352.227,355.025,357.434,361.289,363.605,367.459,370.7962,372.587,376.636,380.008,383.90139999999997,385.626,388.035,391.407,396.04,398.356,402.405,405.203,409.058,413.8784,415.617,420.249,424.51320000000004,426.218,430.072,434.121,437.494,442.126,446.759,451.76480000000004,453.488,455.804,459.853,464.096,467.951,471.2882,473.104,475.902,480.537,482.231,486.086,490.718,495.731,499.103,501.902,505.274,509.323,511.732,516.7378,518.515,521.313,526.233,530.1264,531.781,536.599,539.008,542.381,546.235,550.089" svgx:width="0.44,0.54,0.52,0.55,0.3,0.53,0.42,0.36,0.42,0.55,0.52,0.44,0.36,0.3,0.26,0.42,0.25,0.42,0.36,0.55,0.44,0.36,0.42,0.55,0.26,0.36,0.5,0.25,0.44,0.3,0.42,0.52,0.55,0.5,0.46,0.55,0.42,0.44,0.36,0.5,0.5,0.54,0.55,0.25,0.44,0.46,0.42,0.36,0.55,0.3,0.5,0.55,0.42,0.5,0.54,0.36,0.3,0.36,0.44,0.26,0.54,0.55,0.3,0.53,0.42,0.55,0.52,0.26,0.36,0.42,0.42,0.3" style="fill:rgb(0,0,0);font-family:AdvOT1ef757c0;font-size:9.27px;stroke:none;">and these particles are isolated by carbon layer to constrain the direct</text>
   <text y="702.424" x="303.874,307.729,312.361,317.374,322.386,326.241,330.095,332.893,335.302,339.935,344.9408,348.038,352.087,357.1,361.92040000000003,365.047,369.29,372.663,377.295,383.568,386.366,391.27909999999997,394.357,398.99,401.67830000000004,404.789,409.607,412.98,415.389,422.912,426.961,430.334,434.5982,437.728,442.546,446.595,449.968,452.766,455.175,459.029,461.345,465.2,468.5372,471.687,477.96,482.88,485.289,489.143,494.05609999999996,497.143,501.961,505.333,509.966,514.21,516.619,521.436,525.291,528.6282000000001,531.783,539.306,544.124,547.979" svgx:width="0.42,0.5,0.54,0.54,0.42,0.42,0.3,0.26,0.5,0.54,0.55,0.44,0.54,0.52,0.55,0.46,0.36,0.5,0.68,0.3,0.53,0.55,0.5,0.29,0.55,0.52,0.36,0.26,0.81,0.44,0.36,0.46,0.55,0.52,0.44,0.36,0.3,0.26,0.42,0.25,0.42,0.36,0.55,0.68,0.53,0.26,0.42,0.53,0.55,0.52,0.36,0.5,0.46,0.26,0.52,0.42,0.36,0.55,0.81,0.52,0.42,0.53" style="fill:rgb(0,0,0);font-family:AdvOT1ef757c0;font-size:9.27px;stroke:none;">connection and growth of primary particles which provides much</text>
   <text y="713.082" x="303.874,311.398,316.03,319.403,323.2964,325.701,329.074,333.892,337.265,339.961,344.01,347.864,351.718,354.702,357.111,362.123,364.921,368.776,372.148,374.845,378.894,382.748,385.157,389.206,391.5235,394.017,397.39,402.208,406.257,410.111,414.0044,416.412,419.108,423.74,427.0772,429.508,431.824,434.233,437.031,441.951,444.36,449.178,456.6867,459.159,462.531,465.33,469.962,473.335,477.384,481.627,485.482" svgx:width="0.81,0.5,0.36,0.42,0.55,0.36,0.52,0.36,0.29,0.44,0.42,0.42,0.32,0.26,0.54,0.3,0.42,0.36,0.29,0.44,0.42,0.26,0.44,0.25,0.55,0.36,0.52,0.44,0.42,0.42,0.55,0.29,0.5,0.36,0.55,0.25,0.26,0.3,0.53,0.26,0.52,0.81,0.55,0.36,0.3,0.5,0.36,0.44,0.46,0.42,0.22" style="fill:rgb(0,0,0);font-family:AdvOT1ef757c0;font-size:9.27px;stroke:none;">more surface/interfacial space for lithium storage.</text>
   <text y="723.967" x="313.115,317.933,320.342,324.586,329.404,332.776,336.6694,338.798,343.236,347.1294,349.23,354.048,356.457,359.829,364.647,366.963,371.012,375.256,378.59319999999997,380.808,383.606,388.526,392.4194,394.528,397.9,401.949,404.747,408.6404,410.742,414.596,418.645,423.463,427.512,432.145,434.554,436.87,439.279,442.077,446.3412,448.5,453.133,455.8213,457.968,460.766,465.686,469.57939999999996,471.688,477.766,484.613,490.302,497.251,502.94,505.349" svgx:width="0.52,0.26,0.46,0.52,0.36,0.42,0.55,0.48,0.42,0.55,0.52,0.26,0.36,0.52,0.25,0.44,0.46,0.36,0.55,0.3,0.53,0.42,0.55,0.36,0.44,0.3,0.42,0.55,0.42,0.44,0.52,0.44,0.5,0.26,0.25,0.26,0.3,0.46,0.55,0.5,0.29,0.55,0.3,0.53,0.42,0.55,0.66,0.74,0.61,0.75,0.61,0.26,0.74" style="fill:rgb(0,0,0);font-family:AdvOT1ef757c0;font-size:9.27px;stroke:none;">Figure 5c displays the rate capability of the CNT@TiO</text>
   <text y="725.499" x="512.22" svgx:width="0.48" style="fill:rgb(0,0,0);font-family:AdvOT1ef757c0;font-size:6.18px;stroke:none;">2</text>
   <text y="723.968" x="515.565,518.845,524.9632,527.074,532.086,536.135,541.148,545.78,549.635" svgx:width="0.35,0.66,0.55,0.54,0.44,0.54,0.5,0.42,0.35" style="fill:rgb(0,0,0);font-family:AdvOT1ef757c0;font-size:9.27px;stroke:none;">-C nanoc-</text>
   <text y="734.57" x="303.874,307.923,312.556,314.872,318.7654,320.656,324.705,327.486,329.499,334.317,336.726,339.423,342.119,345.973,349.346,353.2,358.213,360.994,363.006,366.378,370.427,373.225,377.08,380.4172,382.395,385.091,388.464,393.096,402.578,407.016,409.036,413.474,419.5922,421.513,424.311,428.94599999999997,430.924,435.362,439.8,445.878,447.9174,449.859,453.908,458.921,463.7414,465.677,468.475,473.395,477.28839999999997,479.227,482.599,486.454,489.826,494.644,496.96,499.759,503.0962,505.135,507.831,512.464,515.8012000000001,517.778,520.576,525.496,529.3894,531.327,537.405,544.252,549.941" svgx:width="0.44,0.5,0.25,0.42,0.55,0.44,0.3,0.55,0.52,0.26,0.29,0.29,0.42,0.36,0.42,0.54,0.3,0.55,0.36,0.44,0.3,0.42,0.36,0.55,0.29,0.36,0.5,0.81,0.48,0.22,0.48,0.66,0.55,0.3,0.5,0.55,0.48,0.48,0.66,0.22,0.55,0.44,0.54,0.52,0.55,0.3,0.53,0.42,0.55,0.36,0.42,0.36,0.52,0.25,0.3,0.36,0.55,0.29,0.5,0.36,0.55,0.3,0.53,0.42,0.55,0.66,0.74,0.61,0.32" style="fill:rgb(0,0,0);font-family:AdvOT1ef757c0;font-size:9.27px;stroke:none;">able at different rates from0.5C to 50C, and the results for the CNT/</text>
   <text y="745.228" x="303.874,309.563,311.972" svgx:width="0.61,0.26,0.74" style="fill:rgb(0,0,0);font-family:AdvOT1ef757c0;font-size:9.27px;stroke:none;">TiO</text>
   <text y="746.759" x="318.841" svgx:width="0.48" style="fill:rgb(0,0,0);font-family:AdvOT1ef757c0;font-size:6.18px;stroke:none;">2</text>
   <text y="745.228" x="325.361,329.41,334.422,339.24240000000003,342.482,345.28,350.2,354.0934,357.279,361.133,365.766,373.289,380.813,384.667,388.039,391.894,394.303,398.352,400.66949999999997,403.938,409.627,412.036" svgx:width="0.44,0.54,0.52,0.55,0.3,0.53,0.42,0.55,0.42,0.5,0.81,0.81,0.42,0.36,0.42,0.26,0.44,0.25,0.55,0.61,0.26,0.74" style="fill:rgb(0,0,0);font-family:AdvOT1ef757c0;font-size:9.27px;stroke:none;">and the commercial TiO</text>
   <text y="746.759" x="418.904" svgx:width="0.48" style="fill:rgb(0,0,0);font-family:AdvOT1ef757c0;font-size:6.18px;stroke:none;">2</text>
   <text y="745.228" x="425.48,430.493,434.542,439.554,444.187,449.005,453.054,456.426,459.224,461.633,465.488,467.804,471.69739999999996,474.917,478.966,482.339,486.2324,489.43,493.479,495.796,499.168,503.803,507.062,509.471,514.484,518.338,520.654,525.472,530.29,534.145,538.9653999999999,542.212,544.908,549.541" svgx:width="0.54,0.44,0.54,0.5,0.52,0.44,0.36,0.3,0.26,0.42,0.25,0.42,0.55,0.44,0.36,0.42,0.55,0.44,0.25,0.36,0.5,0.55,0.26,0.54,0.42,0.25,0.52,0.52,0.42,0.52,0.55,0.29,0.5,0.36" style="fill:rgb(0,0,0);font-family:AdvOT1ef757c0;font-size:9.27px;stroke:none;">nanoparticle are also included for</text>
  </g>
  <rect style="fill:pink;opacity:0.2;stroke:blue;stroke-width:0.3;" x="-0.113" y="17.524" height="36.964" width="595.446" title="4"/>
  <text y="17.524" class="image" id="image.4.1" width="595" height="36" x="-0.113" style="font-size:5.0px;">image.4.1.0_595.18_54</text>
  <rect style="fill:pink;opacity:0.2;stroke:blue;stroke-width:0.3;" x="88.441" y="69.456" height="195.59" width="418.847" title="4"/>
  <text y="69.456" class="image" id="image.4.2" width="418" height="195" x="88.441" style="font-size:5.0px;">image.4.2.88_507.69_265</text>
  <g begin="text">
   <text y="261.865" x="42.86,47.441,49.821,53.877,58.458,61.718,65.3601,68.144" svgx:width="0.54,0.28,0.48,0.54,0.38,0.43,0.55,0.49" style="fill:rgb(0,0,0);font-family:AdvOT5e4d79fc;font-size:8.47px;stroke:none;">Figure 3</text>
   <text y="261.865" x="74.721" svgx:width="0.26" style="fill:rgb(0,0,0);font-family:AdvOT5e4d79fc;font-size:8.97px;stroke:none;">|</text>
   <text y="261.865" x="80.391,83.566,87.267,90.48559999999999,92.636,98.098,103.39,109.5731,111.741,116.237,119.938,122.58,125.222,128.745,131.827,136.4008,138.669,143.072,145.5283,147.739,153.294,159.552,164.667,170.925,176.04,178.326" svgx:width="0.38,0.44,0.38,0.55,0.64,0.63,0.73,0.55,0.53,0.44,0.31,0.31,0.42,0.36,0.54,0.55,0.52,0.29,0.55,0.66,0.74,0.6,0.74,0.6,0.27,0.75" style="fill:rgb(0,0,0);font-family:AdvP7627;font-size:8.47px;stroke:none;">(a) XRD pattern of CNT@TiO</text>
   <text y="263.282" x="184.706" svgx:width="0.48" style="fill:rgb(0,0,0);font-family:AdvP7627;font-size:5.64px;stroke:none;">2</text>
   <text y="261.865" x="187.767,190.849,196.4392,198.595,203.176,206.877,211.458,215.862,219.385,223.085,227.404,229.521,233.044,235.07680000000002,237.314,240.49,244.809,248.0276,250.183,255.476,259.177,266.138,269.912,274.4858,276.658,279.656,284.153,287.676,291.198,293.84,296.923,300.6498,302.85,307.253,309.7093,311.977,317.532,323.79,328.905,335.163,340.277,342.564" svgx:width="0.36,0.66,0.55,0.54,0.44,0.54,0.52,0.42,0.44,0.51,0.25,0.42,0.24,0.55,0.38,0.51,0.38,0.55,0.63,0.44,0.82,0.44,0.54,0.55,0.35,0.53,0.42,0.42,0.31,0.36,0.44,0.55,0.52,0.29,0.55,0.66,0.74,0.6,0.74,0.6,0.27,0.75" style="fill:rgb(0,0,0);font-family:AdvP7627;font-size:8.47px;stroke:none;">-C nanocable; (b) Raman spectra of CNT@TiO</text>
   <text y="263.282" x="348.945" svgx:width="0.48" style="fill:rgb(0,0,0);font-family:AdvP7627;font-size:5.64px;stroke:none;">2</text>
   <text y="261.865" x="351.949,355.032,360.62219999999996,362.835,367.416,371.116,375.698,380.101,383.624,387.325,391.643,393.76,397.283,399.3158,401.554,406.668,408.955" svgx:width="0.36,0.66,0.55,0.54,0.44,0.54,0.52,0.42,0.44,0.51,0.25,0.42,0.24,0.55,0.6,0.27,0.75" style="fill:rgb(0,0,0);font-family:AdvP7627;font-size:8.47px;stroke:none;">-C nanocable, TiO</text>
   <text y="263.282" x="415.332" svgx:width="0.48" style="fill:rgb(0,0,0);font-family:AdvP7627;font-size:5.64px;stroke:none;">2</text>
   <text y="261.865" x="420.548,425.129,428.83,433.411,437.815,442.311,446.012,449.094,451.736,454.023,457.545,459.663,463.185,465.2178,467.487,471.188,475.769,480.2581,482.454,486.95,490.033,492.319,495.317,497.959,500.245,504.827,508.38439999999997,510.629,516.184,522.442,527.557" svgx:width="0.54,0.44,0.54,0.52,0.53,0.44,0.36,0.31,0.27,0.42,0.25,0.42,0.24,0.55,0.44,0.54,0.53,0.55,0.53,0.36,0.27,0.35,0.31,0.27,0.54,0.42,0.55,0.66,0.74,0.6,0.24" style="fill:rgb(0,0,0);font-family:AdvP7627;font-size:8.47px;stroke:none;">nanoparticle, and pristine CNT.</text>
  </g>
  <rect style="fill:pink;opacity:0.2;stroke:blue;stroke-width:0.3;" x="42.973" y="516.309" height="200.579" width="248.934" title="4"/>
  <text y="516.309" class="image" id="image.4.3" width="248" height="200" x="42.973" style="font-size:5.0px;">image.4.3.43_292.516_717</text>
  <g begin="text">
   <text y="713.707" x="42.86,47.441,49.821,53.877,58.458,61.718,65.3601,68.144" svgx:width="0.54,0.28,0.48,0.54,0.38,0.43,0.55,0.49" style="fill:rgb(0,0,0);font-family:AdvOT5e4d79fc;font-size:8.47px;stroke:none;">Figure 4</text>
   <text y="713.707" x="74.721" svgx:width="0.26" style="fill:rgb(0,0,0);font-family:AdvOT5e4d79fc;font-size:8.97px;stroke:none;">|</text>
   <text y="713.707" x="78.179,82.32,87.164,94.6176,96.887,99.267,106.321,110.106,114.163,117.778,120.9966,123.135,127.454,130.0797,132.319,135.224,139.009,141.033,145.436,148.3158,150.573,156.213,162.471,167.764,170.49,175.783,178.163" svgx:width="0.49,0.57,0.88,0.55,0.28,0.83,0.45,0.48,0.43,0.38,0.55,0.51,0.31,0.55,0.34,0.45,0.24,0.52,0.34,0.55,0.67,0.74,0.63,0.32,0.63,0.28,0.75" style="fill:rgb(0,0,0);font-family:AdvOT5e4d79fc;font-size:8.47px;stroke:none;">SEM images of (a,b) CNT/TiO</text>
   <text y="715.124" x="184.535" svgx:width="0.49" style="fill:rgb(0,0,0);font-family:AdvOT5e4d79fc;font-size:5.64px;stroke:none;">2</text>
   <text y="713.707" x="189.865,193.387,197.706,204.76,209.257,213.575,216.751,219.131,221.857,225.4991,227.677,232.173,235.434,239.049,243.546,247.331,250.592,254.208,258.6971,260.954,265.358" svgx:width="0.42,0.51,0.83,0.53,0.51,0.38,0.28,0.32,0.43,0.55,0.53,0.38,0.43,0.53,0.45,0.38,0.43,0.53,0.55,0.52,0.46" style="fill:rgb(0,0,0);font-family:AdvOT5e4d79fc;font-size:8.47px;stroke:none;">composite prepared by</text>
   <text y="724.195" x="42.86,47.441,51.32,55.816,59.077,63.395,66.122,70.703,74.319,77.58,84.634,88.419,90.6212,92.86,96.121,99.737,103.522,107.045,109.771,112.151,116.47,121.1285,123.36,125.74,130.39849999999998,132.658,135.384,139.966,143.6081,145.754,149.539,153.942,157.118,160.734,165.408,168.931,172.5731,174.779,179.098,181.7237,183.963,188.019,190.221,194.802,198.325,202.644,205.819,209.4611,211.684,215.47,220.144,224.6331,226.821,229.726,233.249,235.273,239.769,242.6488,244.906,250.199,252.578" svgx:width="0.54,0.46,0.53,0.38,0.51,0.32,0.54,0.43,0.38,0.83,0.45,0.26,0.55,0.38,0.43,0.45,0.42,0.32,0.28,0.51,0.55,0.55,0.28,0.55,0.55,0.32,0.54,0.43,0.55,0.45,0.52,0.38,0.43,0.55,0.42,0.43,0.55,0.51,0.31,0.55,0.48,0.26,0.54,0.42,0.51,0.38,0.43,0.55,0.45,0.55,0.53,0.55,0.34,0.42,0.24,0.53,0.34,0.55,0.63,0.28,0.75" style="fill:rgb(0,0,0);font-family:AdvOT5e4d79fc;font-size:8.47px;stroke:none;">hydrothermal reaction in the absence of glucose and (c,d) TiO</text>
   <text y="725.612" x="258.973" svgx:width="0.49" style="fill:rgb(0,0,0);font-family:AdvOT5e4d79fc;font-size:5.64px;stroke:none;">2</text>
   <text y="734.627" x="42.86,47.534,51.32,55.994,60.313,64.809,68.595,71.855,74.582,76.961,80.484,82.686,86.302,89.5206,91.727,96.224,99.484,103.1,107.597,111.382,114.642,118.258,122.74709999999999,124.948,129.351,133.2472,135.436,140.017,143.896,148.392,151.652,155.971,158.698,163.279,166.895,170.155,177.209,180.995,183.1972,185.493,188.753,192.369,196.154,199.677,202.404,204.784,209.102,213.7605,215.993,218.373,223.0315,225.233,227.96,232.542,236.1841,238.385,242.171,246.574,249.75,253.366,258.04,261.563,265.2051,267.411,271.73" svgx:width="0.55,0.45,0.55,0.51,0.53,0.45,0.38,0.32,0.28,0.42,0.26,0.43,0.38,0.55,0.53,0.38,0.43,0.53,0.45,0.38,0.43,0.53,0.55,0.52,0.46,0.55,0.54,0.46,0.53,0.38,0.51,0.32,0.54,0.43,0.38,0.83,0.45,0.26,0.55,0.38,0.43,0.45,0.42,0.32,0.28,0.51,0.55,0.55,0.28,0.55,0.55,0.32,0.54,0.43,0.55,0.45,0.52,0.38,0.43,0.55,0.42,0.43,0.55,0.51,0.31" style="fill:rgb(0,0,0);font-family:AdvOT5e4d79fc;font-size:8.47px;stroke:none;">nanoparticles prepared by hydrothermal reaction in the absence of</text>
   <text y="745.114" x="42.86,46.916,49.118,53.699,57.222,61.541,64.716,68.3581,70.525,74.31,78.984,83.47309999999999,85.718,91.358,97.616,102.909" svgx:width="0.48,0.26,0.54,0.42,0.51,0.38,0.43,0.55,0.45,0.55,0.53,0.55,0.67,0.74,0.63,0.24" style="fill:rgb(0,0,0);font-family:AdvOT5e4d79fc;font-size:8.47px;stroke:none;">glucose and CNT.</text>
   <text y="23.924" x="382.45,390.728,398.964,407.201,410.758,416.935,423.462,426.559,432.626,436.863,442.59,446.147,451.414,457.711,466.518" svgx:width="0.71,0.71,0.71,0.28,0.52,0.55,0.24,0.51,0.34,0.48,0.28,0.44,0.53,0.76,0.54" style="fill:rgb(255,255,255);font-family:AdvOT144a03c1;font-size:10.96px;stroke:none;">www.nature.com/</text>
   <text y="23.924" x="472.932,477.864,482.905,486.127,492.089,498.39,501.831,505.053,508.845,512.067,517.108,521.579,527.541,534.182,540.593,545.064,548.505" svgx:width="0.41,0.42,0.25,0.5,0.53,0.27,0.25,0.3,0.25,0.42,0.36,0.5,0.56,0.54,0.36,0.27,0.41" style="fill:rgb(255,255,255);font-family:AdvOT1415ea69.B;font-size:10.96px;stroke:none;">scientificreports</text>
  </g>
  <path style="fill:rgb(23,22,21);stroke:none;stroke-width:1.0;" d="M88.440 51.820 L507.290 51.820 L507.290 247.410 L88.440 247.410 "/>
  <g begin="text">
   <text y="768.132" x="42.86,47.092,52.32,54.146,58.29,64.515,68.078,69.903,73.529,75.354" svgx:width="0.53,0.66,0.23,0.52,0.78,0.45,0.23,0.47,0.23,0.66" style="fill:rgb(178,178,177);font-family:AdvOT144a03c1;font-size:7.97px;stroke:none;">SCIENTIFIC</text>
   <text y="768.132" x="82.658,87.058,90.875,95.02,101.245,105.644,109.207" svgx:width="0.55,0.48,0.52,0.78,0.55,0.45,0.52" style="fill:rgb(178,178,177);font-family:AdvOT1415ea69.B;font-size:7.97px;stroke:none;">REPORTS</text>
   <text y="768.132" x="117.411,121.8742,123.987,128.8487,130.96,133.351,135.382,140.276,145.169,150.063,154.9247,157.038,161.5012,163.557,168.953,175.76,177.585,179.976,182.039,186.932,191.826,194.233,199.127,204.02,208.914,213.808,218.287,221.325,223.979,228.044,232.603,237.497,242.391,247.284,252.178" svgx:width="0.56,0.55,0.61,0.55,0.3,0.55,0.61,0.61,0.61,0.61,0.55,0.56,0.55,0.68,0.85,0.23,0.3,0.55,0.61,0.61,0.3,0.61,0.61,0.61,0.61,0.56,0.4,0.33,0.51,0.57,0.61,0.61,0.61,0.61,0.61" style="fill:rgb(0,0,0);font-family:AdvOT735b620e;font-size:7.97px;stroke:none;">| 4 : 3729 | DOI: 10.1038/srep03729</text>
   <text y="768.132" x="547.542" svgx:width="0.68" style="fill:rgb(0,0,0);font-family:AdvOTf32ed098.B;font-size:7.97px;stroke:none;">4</text>
  </g>
 </g>
</svg>
