<?xml version="1.0" encoding="UTF-8"?>
<svg height="778.132" width="2558.472" xmlns="http://www.w3.org/2000/svg">
 <g id="page" xmlns:svgx="http://www.xml-cml.org/schema/svgx">
  <g begin="text">
   <text y="523.729" x="42.86,46.714,51.347,58.87,63.688,67.737,71.11,73.519,76.891,81.524,86.536,88.5754,90.596,96.284,101.204,105.0974,107.037,110.409,114.458,117.256,121.1494,123.138,126.992,131.625,139.148,143.966,148.015,151.388,153.797,157.17,161.802,166.8078,168.834,173.466,177.321,180.119,186.391,190.246,194.1,199.1058,201.093,203.891,208.811,212.70440000000002,214.699,220.777,227.624,233.313,240.262,245.951,248.36" svgx:width="0.42,0.5,0.81,0.52,0.44,0.36,0.26,0.36,0.5,0.54,0.22,0.55,0.61,0.53,0.42,0.55,0.36,0.44,0.3,0.42,0.55,0.42,0.5,0.81,0.52,0.44,0.36,0.26,0.36,0.5,0.54,0.55,0.5,0.42,0.3,0.68,0.42,0.42,0.54,0.55,0.3,0.53,0.42,0.55,0.66,0.74,0.61,0.75,0.61,0.26,0.74" style="fill:rgb(0,0,0);font-family:AdvOT1ef757c0;font-size:9.27px;stroke:none;">comparison. The rate comparison between the CNT@TiO</text>
   <text y="525.26" x="255.231" svgx:width="0.48" style="fill:rgb(0,0,0);font-family:AdvOT1ef757c0;font-size:6.18px;stroke:none;">2</text>
   <text y="523.729" x="258.576,261.856,267.9742,269.915,274.928,278.977,283.989,288.622" svgx:width="0.35,0.66,0.55,0.54,0.44,0.54,0.5,0.35" style="fill:rgb(0,0,0);font-family:AdvOT1ef757c0;font-size:9.27px;stroke:none;">-C nano-</text>
   <text y="534.274" x="42.861,46.715,50.764,55.397,57.713,61.6064,63.383,67.432,72.445,77.2654,79.087,81.885,86.805,90.6984,92.524,98.212,100.621" svgx:width="0.42,0.44,0.5,0.25,0.42,0.55,0.44,0.54,0.52,0.55,0.3,0.53,0.42,0.55,0.61,0.26,0.74" style="fill:rgb(0,0,0);font-family:AdvOT1ef757c0;font-size:9.27px;stroke:none;">cable and the TiO</text>
   <text y="535.805" x="107.49" svgx:width="0.48" style="fill:rgb(0,0,0);font-family:AdvOT1ef757c0;font-size:6.18px;stroke:none;">2</text>
   <text y="534.274" x="112.649,117.661,121.71,126.723,131.355,136.173,140.222,143.595,146.393,148.802,152.656,154.973,158.8664,160.668,165.486,168.859,172.713,177.531,181.58,184.952,188.807,193.6274,195.534,200.167,204.4312,206.25,209.622,212.031,219.555,221.964,224.28,228.329,231.6662,233.519,238.337,241.71,246.343,250.197,254.051,257.424,260.796,264.651,267.9882,269.917,272.326,275.6632,277.514,281.563,283.879,287.252" svgx:width="0.54,0.44,0.54,0.5,0.52,0.44,0.36,0.3,0.26,0.42,0.25,0.42,0.55,0.52,0.36,0.42,0.52,0.44,0.36,0.42,0.52,0.55,0.5,0.46,0.55,0.36,0.26,0.81,0.26,0.25,0.44,0.36,0.55,0.52,0.36,0.5,0.42,0.42,0.36,0.36,0.42,0.36,0.55,0.26,0.36,0.55,0.44,0.25,0.36,0.5" style="fill:rgb(0,0,0);font-family:AdvOT1ef757c0;font-size:9.27px;stroke:none;">nanoparticle prepared by similar processes is also</text>
   <text y="544.819" x="42.86,47.678,51.05,55.683,59.926,62.335,67.153,71.008,75.8284,78.407,80.816,85.8218,88.441,91.814,96.632,101.45,106.268,108.584,112.438,119.962,123.816,128.829,131.627,135.676,139.048,143.3122,145.929,150.747,153.156,157.399,159.4384,161.974,166.31,170.748,172.7874,175.354,181.719,185.0562,187.656,191.51,195.847,200.665,204.519,208.373,211.171,215.026,219.844,221.8834,224.507,227.305,232.225,236.1184,238.68,244.758,251.605,257.294,264.243,269.932,272.341" svgx:width="0.52,0.36,0.5,0.46,0.26,0.52,0.42,0.52,0.55,0.26,0.54,0.55,0.36,0.52,0.52,0.52,0.25,0.42,0.81,0.42,0.54,0.3,0.44,0.36,0.46,0.55,0.52,0.26,0.46,0.22,0.55,0.47,0.48,0.22,0.55,0.69,0.36,0.55,0.42,0.47,0.52,0.42,0.42,0.3,0.42,0.52,0.22,0.55,0.3,0.53,0.42,0.55,0.66,0.74,0.61,0.75,0.61,0.26,0.74" style="fill:rgb(0,0,0);font-family:AdvOT1ef757c0;font-size:9.27px;stroke:none;">provided in supplementary Fig. S8. As expected, the CNT@TiO</text>
   <text y="546.349" x="279.212" svgx:width="0.48" style="fill:rgb(0,0,0);font-family:AdvOT1ef757c0;font-size:6.18px;stroke:none;">2</text>
   <text y="544.819" x="282.557,285.837" svgx:width="0.35,0.66" style="fill:rgb(0,0,0);font-family:AdvOT1ef757c0;font-size:9.27px;stroke:none;">-C</text>
   <text y="555.364" x="42.86,47.873,51.922,56.934,61.567,65.421,69.47,74.103,76.419,80.3124,82.149,86.003,90.339,95.259,97.668,102.301,104.71,107.508,110.84519999999999,112.763,116.136,120.954,125.772,129.626,132.999,135.408,140.04,143.3772,145.306,148.678,152.727,155.526,159.4194,161.237,165.091,169.14,173.958,178.007,182.64,185.048,187.365,189.774,192.572,196.8362,198.711,202.565,207.198,214.722,219.54,223.588,226.961,230.815,235.6354,237.547,240.345,244.98,246.844,249.642,254.562,258.4554,260.224,264.079,268.711,273.529,278.542,281.34,285.194,288.567" svgx:width="0.54,0.44,0.54,0.5,0.42,0.44,0.5,0.25,0.42,0.55,0.42,0.47,0.53,0.26,0.5,0.26,0.3,0.36,0.55,0.36,0.52,0.52,0.42,0.36,0.26,0.5,0.36,0.55,0.36,0.44,0.3,0.42,0.55,0.42,0.44,0.52,0.44,0.5,0.26,0.25,0.26,0.3,0.46,0.55,0.42,0.5,0.81,0.52,0.44,0.36,0.42,0.52,0.55,0.3,0.5,0.55,0.3,0.53,0.42,0.55,0.42,0.5,0.52,0.54,0.3,0.42,0.36,0.35" style="fill:rgb(0,0,0);font-family:AdvOT1ef757c0;font-size:9.27px;stroke:none;">nanocable exhibits superior rate capability compared to the counter-</text>
   <text y="565.908" x="42.86,47.678,51.727,55.1,57.898,61.235200000000006,65.424,69.473,72.254,76.423,79.221,84.141,88.0344,92.127,95.499,99.548,107.072,110.9654,115.088,117.886,121.741,125.113,127.911,130.32,135.333,139.5972,143.775,147.63,152.262,157.275,162.093,164.502,167.3,169.709,174.341,179.354,181.3934,185.559,191.832,194.241,197.039,201.95209999999997,206.082,208.88,213.8,217.6934,221.843,225.697,230.617,234.666,238.039,242.282,246.17540000000002,250.303,254.157,258.206,263.024,267.073,270.928,273.337,276.135,280.3992,284.546,289.178" svgx:width="0.52,0.44,0.36,0.3,0.36,0.55,0.44,0.3,0.55,0.3,0.53,0.42,0.55,0.36,0.44,0.81,0.42,0.55,0.3,0.42,0.36,0.3,0.26,0.54,0.46,0.55,0.42,0.5,0.54,0.52,0.26,0.3,0.26,0.5,0.54,0.22,0.55,0.68,0.26,0.3,0.53,0.55,0.3,0.53,0.42,0.55,0.42,0.53,0.44,0.36,0.46,0.42,0.55,0.42,0.44,0.52,0.44,0.42,0.26,0.3,0.46,0.55,0.5,0.29" style="fill:rgb(0,0,0);font-family:AdvOT1ef757c0;font-size:9.27px;stroke:none;">parts at the same testing condition, with the charge capacity of</text>
   <text y="576.453" x="42.86,47.298,51.737,56.1866,59.245,66.769,73.1653,75.97,80.8831,83.737" svgx:width="0.48,0.48,0.48,0.55,0.81,0.69,0.55,0.53,0.55,0.46" style="fill:rgb(0,0,0);font-family:AdvOT1ef757c0;font-size:9.27px;stroke:none;">210 mA h g</text>
   <text y="573.052" x="87.987" svgx:width="0.83" style="fill:rgb(0,0,0);font-family:AdvP414BFB;font-size:5.13px;stroke:none;">2</text>
   <text y="573.052" x="92.75" svgx:width="0.48" style="fill:rgb(0,0,0);font-family:AdvOT1ef757c0;font-size:5.13px;stroke:none;">1</text>
   <text y="576.453" x="98.362,102.411,105.19200000000001,108.0,112.438,116.876,122.954,124.9934,127.843,132.281,136.719,141.1686,144.227,151.751,158.1473,160.952,165.86509999999998,168.719" svgx:width="0.44,0.3,0.55,0.48,0.48,0.66,0.22,0.55,0.48,0.48,0.48,0.55,0.81,0.69,0.55,0.53,0.55,0.46" style="fill:rgb(0,0,0);font-family:AdvOT1ef757c0;font-size:9.27px;stroke:none;">at 10C, 178 mA h g</text>
   <text y="573.052" x="172.97" svgx:width="0.83" style="fill:rgb(0,0,0);font-family:AdvP414BFB;font-size:5.13px;stroke:none;">2</text>
   <text y="573.052" x="177.732" svgx:width="0.48" style="fill:rgb(0,0,0);font-family:AdvOT1ef757c0;font-size:5.13px;stroke:none;">1</text>
   <text y="576.453" x="183.345,187.394,190.175,193.039,197.477,201.915,207.993,210.0324,212.825,216.874,221.887,226.7074,229.55,233.988,238.426,242.8756,245.935,253.458,259.8543,262.716,267.6291,270.427" svgx:width="0.44,0.3,0.55,0.48,0.48,0.66,0.22,0.55,0.44,0.54,0.52,0.55,0.48,0.48,0.48,0.55,0.81,0.69,0.55,0.53,0.55,0.46" style="fill:rgb(0,0,0);font-family:AdvOT1ef757c0;font-size:9.27px;stroke:none;">at 20C, and 127 mA h g</text>
   <text y="573.052" x="274.677" svgx:width="0.83" style="fill:rgb(0,0,0);font-family:AdvP414BFB;font-size:5.13px;stroke:none;">2</text>
   <text y="573.052" x="279.496" svgx:width="0.48" style="fill:rgb(0,0,0);font-family:AdvOT1ef757c0;font-size:5.13px;stroke:none;">1</text>
   <text y="576.453" x="285.052,289.101" svgx:width="0.44,0.3" style="fill:rgb(0,0,0);font-family:AdvOT1ef757c0;font-size:9.27px;stroke:none;">at</text>
   <text y="586.998" x="42.861,47.299,51.737,57.815,59.8544,62.987,71.187,75.819,79.192,83.08539999999999,86.288,88.697,96.22,101.038,105.671,109.044,111.842,115.891,120.903,123.701,126.018,130.261,132.3004,135.498,139.5768,142.698,146.071,148.869,152.918,157.55,159.867,163.7604,166.963,170.817,174.866,179.684,183.733,187.587,189.996,192.795,197.05919999999998,200.242,204.875,207.5633,210.73,215.168,219.606,224.0556,227.172,234.695,241.0913,244.236,249.14909999999998,252.344" svgx:width="0.48,0.48,0.66,0.22,0.55,0.88,0.5,0.36,0.42,0.55,0.26,0.81,0.52,0.5,0.36,0.3,0.44,0.54,0.3,0.25,0.46,0.22,0.55,0.44,0.55,0.36,0.3,0.44,0.5,0.25,0.42,0.55,0.42,0.44,0.52,0.44,0.42,0.26,0.3,0.46,0.55,0.5,0.29,0.55,0.48,0.48,0.48,0.55,0.81,0.69,0.55,0.53,0.55,0.46" style="fill:rgb(0,0,0);font-family:AdvOT1ef757c0;font-size:9.27px;stroke:none;">50C. More importantly, a stable capacity of 285 mA h g</text>
   <text y="583.597" x="256.592" svgx:width="0.83" style="fill:rgb(0,0,0);font-family:AdvP414BFB;font-size:5.13px;stroke:none;">2</text>
   <text y="583.597" x="261.354" svgx:width="0.48" style="fill:rgb(0,0,0);font-family:AdvOT1ef757c0;font-size:5.13px;stroke:none;">1</text>
   <text y="586.998" x="267.307,271.161,275.21,280.2158,283.408,288.041" svgx:width="0.42,0.44,0.54,0.55,0.5,0.42" style="fill:rgb(0,0,0);font-family:AdvOT1ef757c0;font-size:9.27px;stroke:none;">can be</text>
   <text y="597.543" x="42.861,47.679,51.533,53.849,56.258,60.502,64.356,67.729,71.583,76.4034,79.088,85.361,90.28,94.135,99.1408,101.766,104.564,109.484,113.3774,115.995,119.368,123.417,126.215,130.10840000000002,132.72,138.993,143.042,146.3792,149.048,152.42,156.274,161.092,165.91,169.765,173.619,178.4394,181.08,185.712,189.761,193.615,198.15730000000002,200.809,203.607,208.242,210.901,215.339,217.359,221.797,227.875,229.9144,232.501,235.874,240.692,244.935,249.179,253.033,256.405,259.204,261.613,266.625,270.8892,273.547,277.791,282.423,287.056" svgx:width="0.52,0.42,0.25,0.26,0.46,0.42,0.36,0.42,0.52,0.55,0.68,0.53,0.42,0.54,0.55,0.3,0.53,0.42,0.55,0.36,0.44,0.3,0.42,0.55,0.68,0.44,0.36,0.55,0.36,0.42,0.52,0.52,0.42,0.42,0.52,0.55,0.5,0.44,0.42,0.49,0.55,0.3,0.5,0.55,0.48,0.22,0.48,0.66,0.22,0.55,0.36,0.52,0.46,0.46,0.42,0.36,0.3,0.26,0.54,0.46,0.55,0.46,0.5,0.5,0.52" style="fill:rgb(0,0,0);font-family:AdvOT1ef757c0;font-size:9.27px;stroke:none;">delivered when the rate was reduced back to 0.5C, suggesting good</text>
   <text y="608.088" x="42.861,46.233,49.031,52.404,57.222,61.076,63.874,68.692,72.065,76.114,78.4315,80.732,84.104,86.902,90.951,95.584,97.993,100.309,102.718,105.516,109.78020000000001,112.084,116.716,119.40429999999999,121.665,124.463,129.383,133.27640000000002,135.554,140.567,144.616,149.628,154.261,158.115,162.164,166.797,169.113,173.00639999999999,175.297,179.346,184.358,189.1784,191.455,196.375,198.784,203.027,207.94009999999997,210.221,213.593,217.448,221.691,225.546,228.918,232.291,234.7,239.332,241.741,244.058,246.467,249.265,253.52919999999997,255.859,259.713,263.957,267.811,272.8168,275.134,279.183,281.88,284.678,288.532" svgx:width="0.36,0.3,0.36,0.52,0.42,0.3,0.52,0.36,0.44,0.25,0.55,0.36,0.3,0.44,0.5,0.26,0.25,0.26,0.3,0.46,0.55,0.5,0.29,0.55,0.3,0.53,0.42,0.55,0.54,0.44,0.54,0.5,0.42,0.44,0.5,0.25,0.42,0.55,0.44,0.54,0.52,0.55,0.53,0.26,0.46,0.53,0.55,0.36,0.42,0.46,0.42,0.36,0.36,0.26,0.5,0.26,0.25,0.26,0.3,0.46,0.55,0.42,0.46,0.42,0.54,0.55,0.44,0.29,0.3,0.42,0.36" style="fill:rgb(0,0,0);font-family:AdvOT1ef757c0;font-size:9.27px;stroke:none;">structural stability of the nanocable and high reversibility even after</text>
   <text y="618.633" x="42.861,47.781,50.19,54.433,59.3461,63.043,66.416,70.465,73.263,77.1564,80.845,84.699,89.619,93.668,97.04,101.284,105.138,108.418,113.236,115.645,119.018,122.872,127.792,131.841,135.213,139.457,143.311,145.3504,149.161,152.246,155.02700000000002,158.742,162.114,167.034,171.667,176.485,178.801,183.6214,187.373,192.005,195.89839999999998,199.562,204.574,209.207,212.005,215.86,220.68040000000002,224.45,227.249,232.168,236.217,238.99800000000002,242.706,245.504,250.424,254.31740000000002,258.013,262.933,265.342,269.585,274.505,277.785,281.158,285.207,288.005" svgx:width="0.53,0.26,0.46,0.53,0.55,0.36,0.44,0.3,0.42,0.55,0.42,0.53,0.44,0.36,0.46,0.42,0.35,0.52,0.26,0.36,0.42,0.53,0.44,0.36,0.46,0.42,0.22,0.55,0.33,0.3,0.55,0.36,0.53,0.5,0.52,0.25,0.52,0.55,0.5,0.42,0.55,0.54,0.5,0.3,0.42,0.52,0.55,0.3,0.53,0.44,0.3,0.55,0.3,0.53,0.42,0.55,0.53,0.26,0.46,0.53,0.35,0.36,0.44,0.3,0.42" style="fill:rgb(0,0,0);font-family:AdvOT1ef757c0;font-size:9.27px;stroke:none;">high rate charge-discharge. It should be noted that the high-rate</text>
   <text y="629.178" x="42.861,46.715,50.764,55.582,59.631,64.264,66.673,68.989,71.398,74.196,78.4602,80.846,83.255,86.59219999999999,89.009,92.382,94.791,102.314,104.723,107.04,111.089,114.4262,116.902,119.701,124.336,126.711,129.509,134.429,138.32240000000002,140.714,145.347,149.201,152.574,155.35500000000002,157.779,162.792,166.841,171.853,176.486,179.858,182.656,186.029,190.847,194.701,197.5,202.317,205.69,209.544,214.36440000000002,216.854,221.486,224.82319999999999,227.229,232.149,236.392,241.025,244.398,246.807,251.6274,254.045,259.734,262.143" svgx:width="0.42,0.44,0.52,0.44,0.5,0.26,0.25,0.26,0.3,0.46,0.55,0.26,0.36,0.55,0.36,0.26,0.81,0.26,0.25,0.44,0.36,0.55,0.3,0.5,0.55,0.3,0.53,0.42,0.55,0.5,0.42,0.36,0.3,0.55,0.54,0.44,0.54,0.5,0.36,0.3,0.36,0.52,0.42,0.3,0.52,0.36,0.42,0.52,0.55,0.5,0.36,0.55,0.53,0.46,0.5,0.36,0.26,0.52,0.55,0.61,0.26,0.74" style="fill:rgb(0,0,0);font-family:AdvOT1ef757c0;font-size:9.27px;stroke:none;">capability is similar to the best nanostructured or hybrid TiO</text>
   <text y="630.765" x="269.008" svgx:width="0.48" style="fill:rgb(0,0,0);font-family:AdvOT1ef757c0;font-size:6.18px;stroke:none;">2</text>
   <text y="629.178" x="274.734,278.588,280.904,284.759,288.613" svgx:width="0.42,0.25,0.42,0.42,0.35" style="fill:rgb(0,0,0);font-family:AdvOT1ef757c0;font-size:9.27px;stroke:none;">elec-</text>
   <text y="639.723" x="42.86,45.659,49.031,53.664,58.482,62.336,65.6732,68.372,71.745,75.599,80.417,85.05,88.423,91.221,95.075,99.89540000000001,102.559,105.931,110.566,113.216,115.913,119.962,123.2992,126.029,130.847,135.86,140.678,144.532,147.8692,150.578,153.95,156.359,163.883,166.292,168.608,172.657,175.9942,178.698,181.496,185.351,188.723,191.521,193.93,198.943,203.2072,205.855,209.709,214.342,219.354,224.172,226.581,229.379,231.788,236.421,241.433,244.7702,247.524,251.573,254.9102,257.616,260.989,265.909,270.541,276.814,281.81980000000004,284.489,286.898" svgx:width="0.3,0.36,0.5,0.52,0.42,0.36,0.55,0.36,0.42,0.52,0.5,0.36,0.3,0.42,0.52,0.55,0.36,0.5,0.55,0.29,0.44,0.36,0.55,0.52,0.54,0.52,0.42,0.36,0.55,0.36,0.26,0.81,0.26,0.25,0.44,0.36,0.55,0.3,0.42,0.36,0.3,0.26,0.54,0.46,0.55,0.42,0.5,0.54,0.52,0.26,0.3,0.26,0.5,0.54,0.36,0.55,0.44,0.36,0.55,0.36,0.53,0.5,0.68,0.54,0.55,0.26,0.54" style="fill:rgb(0,0,0);font-family:AdvOT1ef757c0;font-size:9.27px;stroke:none;">trodes reported so far under similar testing conditions as shown in</text>
   <text y="650.267" x="42.86,47.678,50.087,54.331,59.149,62.521,66.4144,68.712,73.151" svgx:width="0.52,0.26,0.46,0.52,0.36,0.42,0.55,0.48,0.52" style="fill:rgb(0,0,0);font-family:AdvOT1ef757c0;font-size:9.27px;stroke:none;">Figure 5d</text>
   <text y="646.866" x="78.009,80.772,83.535,84.792,87.554,90.317,91.574,94.337,97.099,98.247,101.01,103.772,105.03,107.792,110.555,111.812,114.575,117.337,120.279,123.041" svgx:width="0.48,0.48,0.22,0.48,0.48,0.22,0.48,0.48,0.22,0.48,0.48,0.22,0.48,0.48,0.22,0.48,0.48,0.51,0.48,0.48" style="fill:rgb(0,0,0);font-family:AdvOT1ef757c0;font-size:5.13px;stroke:none;">10,11,13,16,17,38–44</text>
   <text y="650.268" x="125.745,127.7844,130.11,134.446,139.264,143.118,148.03109999999998,150.406,154.261,158.597,162.451,166.306,168.622,170.938,174.793,179.805,182.586,184.933,188.787,191.103,194.958,198.812,201.61,204.983,209.615,213.47,218.39,222.244,229.767,232.176,236.031,240.08,242.3975,244.801,249.619,253.474,256.846,259.542,264.175,267.548,275.071,279.12,284.132,287.987" svgx:width="0.22,0.55,0.47,0.52,0.42,0.53,0.55,0.42,0.47,0.42,0.42,0.25,0.25,0.42,0.54,0.3,0.55,0.42,0.25,0.42,0.42,0.3,0.36,0.5,0.42,0.53,0.42,0.81,0.26,0.42,0.44,0.25,0.55,0.52,0.42,0.36,0.29,0.5,0.36,0.81,0.44,0.54,0.42,0.42" style="fill:rgb(0,0,0);font-family:AdvOT1ef757c0;font-size:9.27px;stroke:none;">. Such excellent electrochemical performance</text>
   <text y="660.812" x="42.86,46.715,50.764,55.769800000000004,57.884,62.517,66.41040000000001,68.542,72.591,75.389,78.187,81.56,83.968,88.601,93.419,96.217,100.072,104.89240000000001,107.037,109.835,114.47,116.618,119.417,124.336,128.2294,130.339,133.035,137.667,139.984,142.3,146.933,153.205,155.614,160.627,164.8912,167.019,171.068,174.44,179.258,183.113,186.967,189.765,193.138,195.1774,197.35,203.039,207.959,211.8524,213.961,218.973,223.022,228.035,232.667,236.04,238.449,242.303,246.158,250.9784,253.136,258.825,261.234" svgx:width="0.42,0.44,0.54,0.55,0.5,0.42,0.55,0.44,0.3,0.3,0.36,0.26,0.5,0.52,0.3,0.42,0.52,0.55,0.3,0.5,0.55,0.3,0.53,0.42,0.55,0.29,0.5,0.25,0.25,0.5,0.68,0.26,0.54,0.46,0.55,0.44,0.36,0.52,0.42,0.42,0.3,0.36,0.22,0.55,0.61,0.53,0.42,0.55,0.54,0.44,0.54,0.5,0.36,0.26,0.42,0.42,0.52,0.55,0.61,0.26,0.74" style="fill:rgb(0,0,0);font-family:AdvOT1ef757c0;font-size:9.27px;stroke:none;">can be attributed to the following aspects. The nanosized TiO</text>
   <text y="662.4" x="268.101" svgx:width="0.48" style="fill:rgb(0,0,0);font-family:AdvOT1ef757c0;font-size:6.18px;stroke:none;">2</text>
   <text y="660.812" x="273.543,278.361,282.41,285.783,288.581" svgx:width="0.52,0.44,0.36,0.3,0.35" style="fill:rgb(0,0,0);font-family:AdvOT1ef757c0;font-size:9.27px;stroke:none;">part-</text>
   <text y="671.357" x="42.86,45.269,49.124,51.44,55.294,58.6312,60.209,63.581,67.436,72.254,77.072,80.926,84.8194,86.344,91.264" svgx:width="0.26,0.42,0.25,0.42,0.36,0.55,0.36,0.42,0.52,0.52,0.42,0.42,0.55,0.53,0.26" style="fill:rgb(0,0,0);font-family:AdvOT1ef757c0;font-size:9.27px;stroke:none;">icles reduce Li</text>
   <text y="667.956" x="93.657" svgx:width="0.83" style="fill:rgb(0,0,0);font-family:AdvP414BFB;font-size:5.13px;stroke:none;">1</text>
   <text y="671.357" x="99.95,104.768,107.177,109.873,112.569,117.387,120.759,123.168,127.801,132.8068,134.363,139.181,141.59,144.962,147.76,151.809,156.822,160.676,164.56939999999997,166.111,170.16,175.173,179.9934,181.532,183.941,188.953,192.807,196.18,200.034,204.083,207.456,211.3494,212.883,215.682,220.601,224.49439999999998,225.98,229.353,234.171,237.543,240.239,244.288,248.143,251.997,254.98,257.389,262.402,265.2,269.054,272.427,275.123,279.172,283.026,285.435,289.484" svgx:width="0.52,0.26,0.29,0.29,0.52,0.36,0.26,0.5,0.54,0.55,0.52,0.26,0.36,0.3,0.44,0.54,0.42,0.42,0.55,0.44,0.54,0.52,0.55,0.26,0.54,0.42,0.36,0.42,0.44,0.36,0.42,0.55,0.3,0.53,0.42,0.55,0.36,0.52,0.36,0.29,0.44,0.42,0.42,0.32,0.26,0.54,0.3,0.42,0.36,0.29,0.44,0.42,0.26,0.44,0.25" style="fill:rgb(0,0,0);font-family:AdvOT1ef757c0;font-size:9.27px;stroke:none;">diffusion distance and increase the surface/interfacial</text>
   <text y="681.902" x="42.86,46.232,51.05,55.099,58.953,62.8464,65.707,68.403,73.036,76.3732,79.313,81.629,84.038,86.836,91.756,94.165,98.983,106.49170000000001,109.36,112.733,115.531,120.164,123.536,127.585,131.829,135.683,137.7224,140.655,146.927,151.847,154.256,158.111,163.02409999999998,165.94,168.636,172.685,176.539,178.948,181.265,183.674,186.472,190.521,193.319,197.173,200.5102,203.471,206.269,211.189,215.0824,217.928,220.336,224.969,229.982,232.391,236.2844,239.131,243.18,248.193,253.01340000000002,255.912,259.767,262.083,265.938,269.792,272.59,275.963,280.595,285.608,288.017" svgx:width="0.36,0.52,0.44,0.42,0.42,0.55,0.29,0.5,0.36,0.55,0.25,0.26,0.3,0.53,0.26,0.52,0.81,0.55,0.36,0.3,0.5,0.36,0.44,0.46,0.42,0.22,0.55,0.68,0.53,0.26,0.42,0.53,0.55,0.29,0.44,0.42,0.26,0.25,0.26,0.3,0.44,0.3,0.42,0.36,0.55,0.3,0.53,0.42,0.55,0.26,0.5,0.54,0.26,0.42,0.55,0.44,0.54,0.52,0.55,0.42,0.25,0.42,0.42,0.3,0.36,0.5,0.54,0.26,0.42" style="fill:rgb(0,0,0);font-family:AdvOT1ef757c0;font-size:9.27px;stroke:none;">space for lithium storage, which facilitates the ionic and electronic</text>
   <text y="692.447" x="42.86,45.658,49.03,53.079,58.092,61.464,66.282,70.915,74.287,77.06800000000001,79.37,83.419,88.432,93.25240000000001,95.528,100.346,103.719,108.351,112.595,115.004,119.822,123.676,127.0132,129.318,133.367,138.185,143.003,145.412,148.21,150.619,155.251,160.264,164.313,166.63049999999998,168.946,172.319,177.137,181.955,185.809,189.182,193.036,197.085,201.903,205.952,209.806,212.215,215.014,219.063,224.075,227.929,231.82240000000002,234.145,237.999,242.048,246.866,250.915,254.769,257.178,259.976,264.2402,266.517,270.371,275.004,280.016,282.814,286.187,288.596" svgx:width="0.3,0.36,0.44,0.54,0.36,0.52,0.5,0.36,0.3,0.55,0.44,0.54,0.52,0.55,0.52,0.36,0.5,0.46,0.26,0.52,0.42,0.36,0.55,0.44,0.52,0.52,0.26,0.3,0.26,0.5,0.54,0.44,0.25,0.55,0.36,0.52,0.52,0.42,0.36,0.42,0.44,0.52,0.44,0.42,0.26,0.3,0.44,0.54,0.42,0.42,0.55,0.42,0.44,0.52,0.44,0.42,0.26,0.3,0.46,0.55,0.42,0.5,0.54,0.3,0.36,0.26,0.35" style="fill:rgb(0,0,0);font-family:AdvOT1ef757c0;font-size:9.27px;stroke:none;">transport and provides additional supercapacitance capacity contri-</text>
   <text y="702.992" x="42.86,47.492,52.31,55.108,57.517,62.15,67.162,69.2014,73.871,78.689,83.506,86.879,89.677,94.597,98.451,101.824,109.347,113.98,117.353,121.207,123.2464,127.899,130.697,135.617,139.5104,144.17,146.968,151.888,155.261,159.115,162.969,166.249,171.067,173.476,181.0,184.854,189.867,193.239,195.648,200.281,205.293,209.342,211.6595,216.398,220.252,224.885,229.897,234.715,239.533,243.388,246.186,248.595,252.838,256.7314,261.412,266.425,270.279,273.077,279.35,283.983,287.355" svgx:width="0.5,0.52,0.3,0.26,0.5,0.54,0.22,0.55,0.52,0.52,0.36,0.3,0.53,0.42,0.36,0.81,0.5,0.36,0.42,0.22,0.55,0.3,0.53,0.42,0.55,0.3,0.53,0.36,0.42,0.42,0.35,0.52,0.26,0.81,0.42,0.54,0.36,0.26,0.5,0.54,0.44,0.25,0.55,0.42,0.5,0.54,0.52,0.52,0.42,0.3,0.26,0.46,0.42,0.55,0.54,0.42,0.3,0.68,0.5,0.36,0.49" style="fill:rgb(0,0,0);font-family:AdvOT1ef757c0;font-size:9.27px;stroke:none;">bution. Furthermore, the three-dimensional conductive network</text>
   <text y="713.537" x="42.86,46.909,50.281,54.914,59.732,64.744,69.5644,72.17,76.025,80.074,83.928,88.8411,91.446,97.135,99.544" svgx:width="0.44,0.36,0.5,0.52,0.54,0.52,0.55,0.42,0.44,0.42,0.53,0.55,0.61,0.26,0.74" style="fill:rgb(0,0,0);font-family:AdvOT1ef757c0;font-size:9.27px;stroke:none;">around each TiO</text>
   <text y="715.124" x="106.413" svgx:width="0.48" style="fill:rgb(0,0,0);font-family:AdvOT1ef757c0;font-size:6.18px;stroke:none;">2</text>
   <text y="713.537" x="112.309,117.321,121.37,126.383,131.015,135.833,139.882,143.255,146.053,148.462,152.316,154.633,158.52640000000002,161.122,163.818,168.451,171.823,179.347,183.201,188.0214,190.602,195.235,199.4992,202.054,204.852,209.772,213.66539999999998,216.227,218.636,223.649,228.661,232.516,235.8532,238.508,244.586,251.433,257.0877,259.711,263.566,268.198,271.571,275.4644,278.023,282.072,287.085" svgx:width="0.54,0.44,0.54,0.5,0.52,0.44,0.36,0.3,0.26,0.42,0.25,0.42,0.55,0.29,0.5,0.36,0.81,0.42,0.52,0.55,0.5,0.46,0.55,0.3,0.53,0.42,0.55,0.26,0.54,0.54,0.42,0.36,0.55,0.66,0.74,0.61,0.55,0.42,0.5,0.36,0.42,0.55,0.44,0.54,0.52" style="fill:rgb(0,0,0);font-family:AdvOT1ef757c0;font-size:9.27px;stroke:none;">nanoparticle formed by the inner CNT core and</text>
   <text y="724.138" x="42.86,45.658,50.578,54.4714,57.713,62.345,67.163,69.962,73.816,77.1532,80.56,84.414,88.463,91.836,96.469,101.101,106.10679999999999,109.417,111.733,115.782,120.026,123.88,127.21719999999999,130.621,133.993,136.402,140.646,145.658,148.067,150.763,153.172,157.027,161.076,166.088,168.886,171.203,175.4672,178.81,181.219,188.743,193.561,196.933,201.566,205.809,209.664,213.00119999999998,216.341,219.139,224.059,227.9524,231.252,235.106,240.119,242.917,245.326,248.699,252.5924,255.913,259.768,262.084,265.938,269.793,272.591,275.964,280.596,285.609,288.018" svgx:width="0.3,0.53,0.42,0.55,0.5,0.52,0.3,0.42,0.36,0.55,0.42,0.44,0.36,0.5,0.5,0.54,0.55,0.25,0.44,0.46,0.42,0.36,0.55,0.36,0.26,0.46,0.54,0.26,0.29,0.26,0.42,0.44,0.54,0.3,0.25,0.46,0.55,0.26,0.81,0.52,0.36,0.5,0.46,0.42,0.36,0.55,0.3,0.53,0.42,0.55,0.42,0.54,0.3,0.26,0.36,0.42,0.55,0.42,0.25,0.42,0.42,0.3,0.36,0.5,0.54,0.26,0.42" style="fill:rgb(0,0,0);font-family:AdvOT1ef757c0;font-size:9.27px;stroke:none;">the outer carbon layer significantly improves the entire electronic</text>
   <text y="734.683" x="42.86,46.714,51.347,56.359,61.177,65.995,69.849,72.648,75.057,79.3,81.709,84.507,88.77120000000001,91.616,96.249,98.9373,101.821,104.619,109.539,113.4324,116.278,121.29,125.339,130.352,134.984,138.839,142.888,147.52,149.837,153.73039999999997,156.587,159.386,164.021,166.849,169.545,173.594,177.448,179.857,182.174,184.583,187.381,191.43,194.228,198.1214,200.978,203.777,208.696,212.5894,215.379,219.233,221.549,225.404,229.258,232.056,235.429,240.061,243.916,248.836,252.69,260.213,262.622,266.477,270.526,272.8435,275.814,280.632,284.005,288.638" svgx:width="0.42,0.5,0.54,0.52,0.52,0.42,0.3,0.26,0.46,0.26,0.3,0.46,0.55,0.5,0.29,0.55,0.3,0.53,0.42,0.55,0.54,0.44,0.54,0.5,0.42,0.44,0.5,0.25,0.42,0.55,0.3,0.5,0.55,0.29,0.44,0.42,0.26,0.25,0.26,0.3,0.44,0.3,0.42,0.55,0.3,0.53,0.42,0.55,0.42,0.25,0.42,0.42,0.3,0.36,0.5,0.42,0.53,0.42,0.81,0.26,0.42,0.44,0.25,0.55,0.52,0.36,0.5,0.35" style="fill:rgb(0,0,0);font-family:AdvOT1ef757c0;font-size:9.27px;stroke:none;">conductivity of the nanocable to facilitate the electrochemical pro-</text>
   <text y="745.228" x="42.86,46.714,50.568,53.941,57.313,61.168,64.54,66.5794,69.166,73.02,77.264,81.118,86.12379999999999,88.668,92.523,97.442,101.491,104.864,109.107,112.962,116.242,121.06,123.469,126.841,130.696,135.615,139.664,143.037,147.28,151.17340000000002,153.81,157.859,160.64000000000001,163.221,168.14,170.549,174.793,179.7061,182.27,185.643,189.691,192.49,196.344,198.3834,200.978,206.38,210.235,213.607,216.016,220.834,224.688,228.061,230.1004,232.67,235.469,240.388,244.28140000000002,246.844,254.367,258.221,261.594,266.227,271.045,275.677,279.05,283.682,288.5" svgx:width="0.42,0.42,0.36,0.36,0.42,0.36,0.22,0.55,0.42,0.46,0.42,0.54,0.55,0.42,0.53,0.44,0.36,0.46,0.42,0.35,0.52,0.26,0.36,0.42,0.53,0.44,0.36,0.46,0.42,0.55,0.44,0.3,0.55,0.53,0.26,0.46,0.53,0.55,0.36,0.44,0.3,0.42,0.22,0.55,0.58,0.42,0.36,0.26,0.52,0.42,0.36,0.22,0.55,0.3,0.53,0.42,0.55,0.81,0.42,0.36,0.5,0.52,0.5,0.36,0.5,0.52,0.36" style="fill:rgb(0,0,0);font-family:AdvOT1ef757c0;font-size:9.27px;stroke:none;">cesses, even charge-discharge at high rate. Besides, the mesoporous</text>
   <text y="523.729" x="303.873,307.246,310.044,313.417,318.235,322.089,324.887,329.705,333.078,336.97139999999996,338.854,343.486,346.1743,348.095,350.893,355.813,359.7064,361.531,366.544,370.593,375.605,380.238,384.092,388.141,392.774,395.09,398.98339999999996,400.876,404.731,409.743,413.116,417.934,421.306,425.161,428.4982,430.471,437.994,442.627,445.999,449.8924,451.787,456.605,460.654,464.027,466.825,469.234,473.088,475.405,479.259,482.5962,484.556,487.354,491.989,493.854,498.486,502.3794,504.286,510.558,514.413,517.211,520.009,523.863,528.6834,530.592,535.224,539.4882,541.363,544.161,549.081" svgx:width="0.36,0.3,0.36,0.52,0.42,0.3,0.52,0.36,0.42,0.55,0.5,0.29,0.55,0.3,0.53,0.42,0.55,0.54,0.44,0.54,0.5,0.42,0.44,0.5,0.25,0.42,0.55,0.42,0.54,0.36,0.52,0.36,0.42,0.36,0.55,0.81,0.5,0.36,0.42,0.55,0.52,0.44,0.36,0.3,0.26,0.42,0.25,0.42,0.36,0.55,0.3,0.5,0.55,0.5,0.42,0.55,0.68,0.42,0.3,0.3,0.42,0.52,0.55,0.5,0.46,0.55,0.3,0.53,0.42" style="fill:rgb(0,0,0);font-family:AdvOT1ef757c0;font-size:9.27px;stroke:none;">structure of the nanocable ensures more particles to be wetted by the</text>
   <text y="534.274" x="303.873,306.19,308.599,313.324,318.142,320.551,325.3714,327.798,331.653,333.969,337.823,341.678,344.476,347.848,352.481,354.797,359.041,361.839,365.693,367.7324,370.148,372.946,377.866,382.684,386.0212,388.516,390.925,398.449,403.267,406.639,411.272,415.516,417.924,422.937,427.20120000000003,429.619,432.417,437.337,441.2304,443.623,446.995,451.044,453.842,457.73539999999997,460.121,464.938,468.793,472.165,474.862,479.494,482.867,490.39,494.439,499.452,503.306,507.16" svgx:width="0.25,0.26,0.51,0.52,0.26,0.52,0.55,0.42,0.25,0.42,0.42,0.3,0.36,0.5,0.25,0.46,0.3,0.42,0.22,0.55,0.3,0.53,0.52,0.36,0.55,0.26,0.81,0.52,0.36,0.5,0.46,0.26,0.54,0.46,0.55,0.3,0.53,0.42,0.55,0.36,0.44,0.3,0.42,0.55,0.52,0.42,0.36,0.29,0.5,0.36,0.81,0.44,0.54,0.42,0.42,0.22" style="fill:rgb(0,0,0);font-family:AdvOT1ef757c0;font-size:9.27px;stroke:none;">liquid electrolyte, thus improving the rate performance.</text>
   <text y="545.102" x="313.115,318.803,323.438,325.417,329.271,333.515,337.564,339.88,344.698,348.747,351.545,355.4384,357.336,360.134,365.054,368.94739999999996,370.886,374.74,378.983,382.838,385.154,389.203,393.836,396.245,398.561,400.97,403.768,408.0322,409.947,413.996,416.777,418.791,423.711,426.12,430.363,435.2761,437.216,440.588,444.637,447.435,451.29,453.3294,455.244,461.517,465.4104,467.32,471.174,475.418,479.272,481.588,485.443,490.2634,492.265,495.063,499.983,503.8764,505.758,511.836,518.683,524.372,531.321,537.01,539.419" svgx:width="0.61,0.5,0.55,0.42,0.46,0.44,0.25,0.52,0.44,0.3,0.42,0.55,0.3,0.53,0.42,0.55,0.42,0.46,0.42,0.25,0.44,0.5,0.26,0.25,0.26,0.3,0.46,0.55,0.44,0.3,0.55,0.53,0.26,0.46,0.53,0.55,0.36,0.44,0.3,0.42,0.22,0.55,0.68,0.42,0.55,0.42,0.46,0.42,0.25,0.42,0.52,0.55,0.3,0.53,0.42,0.55,0.66,0.74,0.61,0.75,0.61,0.26,0.74" style="fill:rgb(0,0,0);font-family:AdvOT1ef757c0;font-size:9.27px;stroke:none;">To evaluate the cyclability at high rate, we cycled the CNT@TiO</text>
   <text y="546.633" x="546.293" svgx:width="0.48" style="fill:rgb(0,0,0);font-family:AdvOT1ef757c0;font-size:6.18px;stroke:none;">2</text>
   <text y="545.102" x="549.638" svgx:width="0.35" style="fill:rgb(0,0,0);font-family:AdvOT1ef757c0;font-size:9.27px;stroke:none;">-</text>
   <text y="555.647" x="303.875,309.9932,312.549,317.561,321.61,326.623,331.255,335.11,339.159,343.791,346.108,350.0014,352.631,356.68,359.461,362.1,367.02,369.428,373.672,378.5851,381.206,384.578,388.627,391.425,395.3184,397.93,402.563,405.2513,407.852,412.29,418.4082,421.005,425.054,430.066,434.8864,437.503,441.941,446.379,452.4972,455.078,459.711,463.954,467.808,471.1452,473.844,478.282,482.72,487.158,491.6076,494.197,498.051,502.295,506.149,508.465,512.32,515.692,517.7314,520.389,523.474,526.255,528.893,532.747,536.796,541.8018000000001,544.427,549.059" svgx:width="0.66,0.55,0.54,0.44,0.54,0.5,0.42,0.44,0.5,0.25,0.42,0.55,0.44,0.3,0.55,0.53,0.26,0.46,0.53,0.55,0.36,0.44,0.3,0.42,0.55,0.5,0.29,0.55,0.48,0.66,0.55,0.44,0.54,0.52,0.55,0.48,0.48,0.66,0.55,0.5,0.46,0.42,0.36,0.55,0.48,0.48,0.48,0.48,0.55,0.42,0.46,0.42,0.25,0.42,0.36,0.22,0.55,0.33,0.3,0.55,0.42,0.44,0.54,0.55,0.5,0.42" style="fill:rgb(0,0,0);font-family:AdvOT1ef757c0;font-size:9.27px;stroke:none;">C nanocable at high rate of 5C and 50C over 2000 cycles. It can be</text>
   <text y="566.135" x="303.875,307.247,311.102,314.956,319.96180000000004,321.903,325.757,328.074,331.928,335.977,339.35,341.666,345.9302,347.812,350.22,355.22580000000005,357.166,361.984,364.393,368.636,370.6754,372.586,377.0356,378.936,381.734,386.654,390.702,393.483,395.433,398.231,403.151,407.0444,408.926,415.004,421.851,427.54,434.489,440.178,442.587" svgx:width="0.36,0.42,0.42,0.54,0.55,0.42,0.25,0.42,0.44,0.36,0.25,0.46,0.55,0.26,0.54,0.55,0.52,0.26,0.46,0.22,0.55,0.48,0.55,0.3,0.53,0.44,0.3,0.55,0.3,0.53,0.42,0.55,0.66,0.74,0.61,0.75,0.61,0.26,0.74" style="fill:rgb(0,0,0);font-family:AdvOT1ef757c0;font-size:9.27px;stroke:none;">seen clearly in Fig. 6 that the CNT@TiO</text>
   <text y="567.666" x="449.461" svgx:width="0.48" style="fill:rgb(0,0,0);font-family:AdvOT1ef757c0;font-size:6.18px;stroke:none;">2</text>
   <text y="566.135" x="452.806,456.086,464.031,469.044,473.093,478.105,482.738,486.592,490.641,495.274,497.59,501.48339999999996,503.434,508.252,512.106,519.629,524.262,529.275,532.647,535.445,538.818,542.867,545.665,549.519" svgx:width="0.35,0.66,0.54,0.44,0.54,0.5,0.42,0.44,0.5,0.25,0.42,0.55,0.52,0.42,0.81,0.5,0.54,0.36,0.3,0.36,0.44,0.3,0.42,0.36" style="fill:rgb(0,0,0);font-family:AdvOT1ef757c0;font-size:9.27px;stroke:none;">-Cnanocable demonstrates</text>
   <text y="576.624" x="303.874,307.728,312.064,315.919,319.773,322.09,324.406,328.26,333.273,336.05400000000003,339.365,343.219,347.463,351.317,353.633,356.042,361.055,365.3192,368.561,371.934,374.732,378.781,383.414,385.823,388.139,390.548,393.346,397.6102,400.877,407.15,409.559,412.357,417.2701,420.55,424.6288,427.863,431.717,436.637,440.686,444.059,448.302,452.1954,455.416,459.271,463.319,468.137,472.186,476.041,478.45,481.248,485.5122,488.808,493.441,496.1293,499.41,503.848,508.286,512.7356,515.794,523.318,529.7143,532.972,537.8851,541.136" svgx:width="0.42,0.47,0.42,0.42,0.25,0.25,0.42,0.54,0.3,0.55,0.42,0.46,0.42,0.25,0.26,0.54,0.46,0.55,0.36,0.3,0.44,0.5,0.26,0.25,0.26,0.3,0.46,0.55,0.68,0.26,0.3,0.53,0.55,0.44,0.55,0.42,0.53,0.44,0.36,0.46,0.42,0.55,0.42,0.44,0.52,0.44,0.42,0.26,0.3,0.46,0.55,0.5,0.29,0.55,0.48,0.48,0.48,0.55,0.81,0.69,0.55,0.53,0.55,0.46" style="fill:rgb(0,0,0);font-family:AdvOT1ef757c0;font-size:9.27px;stroke:none;">excellent cycling stability with a charge capacity of 187 mA h g</text>
   <text y="573.222" x="545.386" svgx:width="0.83" style="fill:rgb(0,0,0);font-family:AdvP414BFB;font-size:5.13px;stroke:none;">2</text>
   <text y="573.222" x="550.148" svgx:width="0.48" style="fill:rgb(0,0,0);font-family:AdvOT1ef757c0;font-size:5.13px;stroke:none;">1</text>
   <text y="587.168" x="303.874,307.923,310.619,313.417,317.272,320.6092,323.66,328.098,332.536,336.974,341.42359999999996,344.466,348.32,352.564,356.418,358.735,362.589,365.9262,369.015,373.063,375.844,378.936,383.374,389.452,391.4914,394.47,399.001,402.855,406.71,411.527,413.936,418.949,423.21320000000003,426.275,430.3538,433.362,437.216,441.265,446.083,450.132,453.987,456.396,459.194,463.45820000000003,466.528,469.901,473.755,476.553,480.408,485.42,488.218,490.627,495.26,500.2658,503.323,507.955,510.6433,513.698,518.136,522.574,529.523,531.5624,534.561,539.768,544.012,547.866" svgx:width="0.44,0.29,0.3,0.42,0.36,0.55,0.48,0.48,0.48,0.48,0.55,0.42,0.46,0.42,0.25,0.42,0.36,0.55,0.44,0.3,0.55,0.48,0.66,0.22,0.55,0.49,0.42,0.42,0.52,0.26,0.54,0.46,0.55,0.44,0.55,0.42,0.44,0.52,0.44,0.42,0.26,0.3,0.46,0.55,0.36,0.42,0.3,0.42,0.54,0.3,0.26,0.5,0.54,0.55,0.5,0.29,0.55,0.48,0.48,0.75,0.22,0.55,0.56,0.46,0.42,0.54" style="fill:rgb(0,0,0);font-family:AdvOT1ef757c0;font-size:9.27px;stroke:none;">after 2000 cycles at 5C, keeping a capacity retention of 90%. Even</text>
   <text y="597.657" x="303.874,307.923,310.704,314.646,318.5,322.836,325.634,329.007,332.861,340.385,344.239,346.555,350.8192,354.841,359.761,362.17,366.414,371.3271,375.251,378.624,382.672,385.471,389.3644,393.336,397.969,400.6573,404.618,409.056,413.494,419.572,421.6114,425.538,428.337,433.256,437.14939999999996,441.073,447.151,453.998,459.687,466.636,472.324,474.733" svgx:width="0.44,0.3,0.55,0.42,0.47,0.3,0.36,0.42,0.81,0.42,0.25,0.46,0.55,0.53,0.26,0.46,0.53,0.55,0.36,0.44,0.3,0.42,0.55,0.5,0.29,0.55,0.48,0.48,0.66,0.22,0.55,0.3,0.53,0.42,0.55,0.66,0.74,0.61,0.75,0.61,0.26,0.74" style="fill:rgb(0,0,0);font-family:AdvOT1ef757c0;font-size:9.27px;stroke:none;">at extremely high rate of 50C, the CNT@TiO</text>
   <text y="599.244" x="481.606" svgx:width="0.48" style="fill:rgb(0,0,0);font-family:AdvOT1ef757c0;font-size:6.18px;stroke:none;">2</text>
   <text y="597.657" x="484.951,488.231,494.3492,498.274,503.286,507.335,512.348,516.98,520.835,524.883,529.516,531.832,535.7254,539.66,543.032,545.83,548.239,550.556" svgx:width="0.35,0.66,0.55,0.54,0.44,0.54,0.5,0.42,0.44,0.5,0.25,0.42,0.55,0.36,0.3,0.26,0.25,0.25" style="fill:rgb(0,0,0);font-family:AdvOT1ef757c0;font-size:9.27px;stroke:none;">-C nanocable still</text>
   <text y="608.201" x="303.875,308.693,312.547,314.863,317.272,321.516,325.37,328.743,332.0802,334.262,339.182,341.591,345.834,350.7471,352.857,356.712,361.632,365.681,369.053,373.297,377.1904,379.22,383.074,387.123,391.941,395.99,399.844,402.253,405.052,409.31620000000004,411.479,416.112,418.80030000000005,420.89,425.328,429.766,434.2156,437.274,444.798,451.1943,453.262,458.1751,460.291" svgx:width="0.52,0.42,0.25,0.26,0.46,0.42,0.36,0.36,0.55,0.53,0.26,0.46,0.53,0.55,0.42,0.53,0.44,0.36,0.46,0.42,0.55,0.42,0.44,0.52,0.44,0.42,0.26,0.3,0.46,0.55,0.5,0.29,0.55,0.48,0.48,0.48,0.55,0.81,0.69,0.55,0.53,0.55,0.46" style="fill:rgb(0,0,0);font-family:AdvOT1ef757c0;font-size:9.27px;stroke:none;">delivers high charge capacity of 122 mA h g</text>
   <text y="604.743" x="464.542" svgx:width="0.83" style="fill:rgb(0,0,0);font-family:AdvP414BFB;font-size:5.13px;stroke:none;">2</text>
   <text y="604.743" x="469.304" svgx:width="0.48" style="fill:rgb(0,0,0);font-family:AdvOT1ef757c0;font-size:5.13px;stroke:none;">1</text>
   <text y="608.201" x="474.179,478.228,480.925,483.723,487.577,490.9142,493.058,497.496,501.935,506.373,510.82259999999997,512.901,516.755,520.999,524.853,527.17,531.024,534.3612,536.542,542.815,545.224,548.022" svgx:width="0.44,0.29,0.3,0.42,0.36,0.55,0.48,0.48,0.48,0.48,0.55,0.42,0.46,0.42,0.25,0.42,0.36,0.55,0.68,0.26,0.3,0.53" style="fill:rgb(0,0,0);font-family:AdvOT1ef757c0;font-size:9.27px;stroke:none;">after 2000 cycles with</text>
   <text y="618.69" x="303.874,306.672,311.592,315.48539999999997,317.14,320.994,325.043,329.861,333.91,337.765,340.174,342.972,347.2362,348.945,352.318,356.172,358.97,362.824,367.837,370.635,373.044,377.677,382.68280000000004,384.378,389.011,391.69930000000005,393.393,397.831,402.269,409.218,411.2574,412.952,418.641,423.56,425.969,429.3062,431.036,433.445,436.7822,438.464,441.16,445.209,448.5462,450.313,453.685,458.503,463.321,467.176,470.548,472.957,477.59,480.92719999999997,482.685,485.483,490.118,491.812,494.61,499.53,503.42339999999996,505.022,508.876,513.509,518.521,522.765,526.619,531.632,534.43,536.839,541.471,546.484,550.533" svgx:width="0.3,0.53,0.42,0.55,0.42,0.44,0.52,0.44,0.42,0.26,0.3,0.46,0.55,0.36,0.42,0.3,0.42,0.54,0.3,0.26,0.5,0.54,0.55,0.5,0.29,0.55,0.48,0.48,0.75,0.22,0.55,0.61,0.53,0.26,0.36,0.55,0.26,0.36,0.55,0.29,0.44,0.36,0.55,0.36,0.52,0.52,0.42,0.36,0.26,0.5,0.36,0.55,0.3,0.5,0.55,0.3,0.53,0.42,0.55,0.42,0.5,0.54,0.46,0.42,0.54,0.3,0.26,0.5,0.54,0.44,0.25" style="fill:rgb(0,0,0);font-family:AdvOT1ef757c0;font-size:9.27px;stroke:none;">the capacity retention of 87%. This is far superior to the conventional</text>
   <text y="629.235" x="303.874,309.563,311.972" svgx:width="0.61,0.26,0.74" style="fill:rgb(0,0,0);font-family:AdvOT1ef757c0;font-size:9.27px;stroke:none;">TiO</text>
   <text y="630.765" x="318.841" svgx:width="0.48" style="fill:rgb(0,0,0);font-family:AdvOT1ef757c0;font-size:6.18px;stroke:none;">2</text>
   <text y="629.234" x="324.964,329.013,334.025,338.658,343.476,347.33,350.703,352.7424,355.635,358.433,362.676,367.494,369.903,373.758,377.807,380.123,382.439,386.70320000000004,389.537,395.81,398.219,401.017,405.9301,408.756,412.611,416.66,421.478,425.527,429.381,431.79,434.588,438.85220000000004,441.695,444.392,448.441,453.259,455.667,460.68,464.9442,467.774,472.407,475.0953,477.923,482.555,486.799,490.653,493.9902,496.915,501.353,505.791,512.7435,515.567,519.616,522.312,525.11,528.964,532.3012000000001,535.182,539.62,544.058,548.496" svgx:width="0.44,0.54,0.5,0.52,0.42,0.36,0.22,0.55,0.3,0.46,0.52,0.26,0.42,0.44,0.25,0.25,0.46,0.55,0.68,0.26,0.3,0.53,0.55,0.42,0.44,0.52,0.44,0.42,0.26,0.3,0.46,0.55,0.29,0.44,0.52,0.26,0.54,0.46,0.55,0.5,0.29,0.55,0.5,0.46,0.42,0.36,0.55,0.48,0.48,0.75,0.55,0.44,0.29,0.3,0.42,0.36,0.55,0.48,0.48,0.48,0.48" style="fill:rgb(0,0,0);font-family:AdvOT1ef757c0;font-size:9.27px;stroke:none;">anodes, typically with capacity fading of over 20% after 1000</text>
   <text y="639.723" x="303.874,307.728,311.972,315.826,318.143,321.997,325.37,327.4094,330.01,334.346,339.164,343.018,347.93109999999996,350.532,353.905,358.723,363.541,367.395,370.768,373.177,377.809,381.1462,383.868,387.722,390.039,393.893,397.747,400.545,403.918,408.551,412.405,417.325,421.179,428.703,431.112,434.966,439.015,441.3325,443.964,448.781,452.636,456.008,458.705,463.337,466.71,474.233,478.282,483.295,487.149,491.003,494.3402,497.085,501.134,504.507,508.4004,510.975,515.218,519.073,522.445,526.7092,529.287,534.105,537.477,542.11,549.633" svgx:width="0.42,0.46,0.42,0.25,0.42,0.36,0.22,0.55,0.47,0.52,0.42,0.53,0.55,0.36,0.52,0.52,0.42,0.36,0.26,0.5,0.36,0.55,0.42,0.25,0.42,0.42,0.3,0.36,0.5,0.42,0.53,0.42,0.81,0.26,0.42,0.44,0.25,0.55,0.52,0.42,0.36,0.29,0.5,0.36,0.81,0.44,0.54,0.42,0.42,0.36,0.55,0.44,0.36,0.42,0.55,0.46,0.42,0.36,0.46,0.55,0.52,0.36,0.5,0.81,0.35" style="fill:rgb(0,0,0);font-family:AdvOT1ef757c0;font-size:9.27px;stroke:none;">cycles. Such superior electrochemical performances are very prom-</text>
   <text y="650.268" x="303.874,306.283,309.656,312.065,317.077,321.3412,325.587,328.385,333.02,337.266,344.79,348.644,352.498,355.279,359.604,362.402,367.322,371.2154,375.422,378.794,382.648,387.374,392.192,394.601,397.973,401.828,409.351,413.205,418.218,421.016,424.3532,428.714,431.41,436.043,439.3802,443.737,451.261,455.31,460.322,464.5862,468.796,471.113,475.745,480.758,485.001,488.281,491.079,494.934,498.306,505.81469999999996,510.126,515.046,517.455,521.698,526.618,529.898,534.716,539.349,545.621,549.476" svgx:width="0.26,0.36,0.26,0.54,0.46,0.55,0.3,0.5,0.55,0.81,0.42,0.42,0.3,0.55,0.3,0.53,0.42,0.55,0.36,0.42,0.51,0.52,0.26,0.36,0.42,0.81,0.42,0.54,0.3,0.36,0.55,0.29,0.5,0.36,0.55,0.81,0.44,0.54,0.46,0.55,0.25,0.5,0.54,0.46,0.35,0.3,0.42,0.36,0.81,0.55,0.53,0.26,0.46,0.53,0.35,0.52,0.5,0.68,0.42,0.36" style="fill:rgb(0,0,0);font-family:AdvOT1ef757c0;font-size:9.27px;stroke:none;">ising to meet the requirements for many long-term high-power</text>
   <text y="660.756" x="303.874,307.923,312.741,317.559,319.875,322.284,326.139,330.188,332.986,335.395,340.027,345.04,348.412" svgx:width="0.44,0.52,0.52,0.25,0.26,0.42,0.44,0.3,0.26,0.5,0.54,0.36,0.22" style="fill:rgb(0,0,0);font-family:AdvOT1ef757c0;font-size:9.27px;stroke:none;">applications.</text>
   <text y="671.584" x="313.115,316.201,321.20680000000004,325.814,329.187,334.005,341.528,349.052,353.101,356.473,360.717,362.7564,367.371,371.4498,376.045,381.058,384.912,391.2156,395.775,400.787,404.836,409.849,414.481,417.854,420.652,424.025,428.843,432.697,435.495,440.313,443.686,447.54,449.5794,454.226,460.304,467.151,472.84,479.789,485.478,487.887" svgx:width="0.33,0.54,0.55,0.36,0.52,0.81,0.81,0.44,0.36,0.46,0.22,0.55,0.44,0.55,0.54,0.42,0.68,0.55,0.54,0.44,0.54,0.5,0.36,0.3,0.36,0.52,0.42,0.3,0.52,0.36,0.42,0.22,0.55,0.66,0.74,0.61,0.75,0.61,0.26,0.74" style="fill:rgb(0,0,0);font-family:AdvOT1ef757c0;font-size:9.27px;stroke:none;">In summary, a new nanostructure, CNT@TiO</text>
   <text y="673.172" x="494.816" svgx:width="0.48" style="fill:rgb(0,0,0);font-family:AdvOT1ef757c0;font-size:6.18px;stroke:none;">2</text>
   <text y="671.584" x="498.104,501.384,507.5022,512.107,517.12,521.169,526.181,530.814,534.668,538.717,543.35,545.666,549.521" svgx:width="0.35,0.66,0.55,0.54,0.44,0.54,0.5,0.42,0.44,0.5,0.25,0.42,0.36" style="fill:rgb(0,0,0);font-family:AdvOT1ef757c0;font-size:9.27px;stroke:none;">-C nanocables</text>
   <text y="682.129" x="303.874,310.147,314.001,317.374,321.2674,323.773,328.591,331.964,336.597,341.415,346.233,350.087,353.941,358.7614,361.418,366.051,370.3152,372.87,376.9488,379.447,382.819,385.228,392.752,397.57,399.886,403.7794,406.376,410.425,415.438,420.2584,422.818,427.061,430.434,434.288,438.143,443.1488,445.779,450.699,454.942,459.76,463.133,467.766,470.564,475.484,479.338,482.71,490.234,494.283,496.6005,499.184,504.002,507.375,512.007,515.862,519.716,523.089,526.461,528.5004,531.103,537.858,541.23,543.639,548.652" svgx:width="0.68,0.42,0.36,0.42,0.55,0.52,0.36,0.5,0.52,0.52,0.42,0.42,0.52,0.55,0.5,0.46,0.55,0.44,0.55,0.36,0.26,0.81,0.52,0.25,0.42,0.55,0.44,0.54,0.52,0.55,0.46,0.36,0.42,0.42,0.54,0.55,0.53,0.46,0.52,0.36,0.5,0.3,0.53,0.42,0.36,0.81,0.44,0.25,0.55,0.52,0.36,0.5,0.42,0.42,0.36,0.36,0.22,0.55,0.73,0.36,0.26,0.54,0.46" style="fill:rgb(0,0,0);font-family:AdvOT1ef757c0;font-size:9.27px;stroke:none;">were produced by a simple and green hydrothermal process. Using</text>
   <text y="692.617" x="303.874,308.118,310.434,315.252,319.107,323.739,327.112,331.0054,333.129,337.178,340.5152,342.71,346.7888,348.946,352.319,355.117,358.49,363.308,367.162,369.96,374.778,378.151,382.005,385.285,390.103,392.512,395.884,399.739,403.593,406.391,408.8,413.813,418.0772,420.323,424.372,428.616,432.47,437.483,440.264,442.434,446.483,451.496,456.3164,458.479,462.333,466.382,469.755,474.387,479.02,484.0258,486.259,489.632,494.264,499.082,502.455,506.309,510.164,512.2034,514.379,517.177,522.097,525.952,529.324,533.2174,535.356,537.765,541.1022,543.292,548.305" svgx:width="0.46,0.25,0.52,0.42,0.5,0.36,0.42,0.55,0.44,0.36,0.55,0.44,0.55,0.36,0.3,0.36,0.52,0.42,0.3,0.52,0.36,0.42,0.35,0.52,0.26,0.36,0.42,0.42,0.3,0.26,0.54,0.46,0.55,0.44,0.46,0.42,0.54,0.3,0.55,0.44,0.54,0.52,0.55,0.42,0.44,0.36,0.5,0.5,0.54,0.55,0.36,0.5,0.52,0.36,0.42,0.42,0.22,0.55,0.3,0.53,0.42,0.36,0.42,0.55,0.26,0.36,0.55,0.54,0.5" style="fill:rgb(0,0,0);font-family:AdvOT1ef757c0;font-size:9.27px;stroke:none;">glucose as a structure-directing agent and carbon source, there is no</text>
   <text y="703.162" x="303.874,308.887,312.741,316.596,321.4164,323.433,326.13,330.762,334.0992,336.132,340.181,345.194,349.45820000000003,351.383,354.181,357.554,361.408,365.457,368.255,375.779,379.633,384.646,387.444,390.7812,392.883,395.58,400.212,403.5492,405.582,409.437,414.069,418.313,422.362,424.678,428.533,433.545,436.343,439.327,444.339,448.972,453.984,457.264,461.119,465.751,469.995,474.044,476.36,480.214,485.227,488.008,490.113,492.809,497.627,502.639,506.494,509.292,511.701,516.333,521.346,525.395,527.711,530.12,533.974,538.023,540.822,543.231,547.863" svgx:width="0.54,0.42,0.42,0.52,0.55,0.29,0.5,0.36,0.55,0.44,0.54,0.46,0.55,0.3,0.36,0.42,0.44,0.3,0.81,0.42,0.54,0.3,0.36,0.55,0.29,0.5,0.36,0.55,0.42,0.5,0.46,0.44,0.25,0.42,0.54,0.3,0.32,0.54,0.5,0.54,0.35,0.42,0.5,0.46,0.44,0.25,0.42,0.54,0.3,0.55,0.29,0.52,0.54,0.42,0.3,0.26,0.5,0.54,0.44,0.25,0.26,0.42,0.44,0.3,0.26,0.5,0.54" style="fill:rgb(0,0,0);font-family:AdvOT1ef757c0;font-size:9.27px;stroke:none;">need for any treatments for covalent/non-covalent functionalization</text>
   <text y="713.65" x="303.874,308.507,311.19530000000003,313.456,319.534,326.381,332.07,335.442,337.4814,339.762,346.322,348.638,353.456,357.31,361.943,365.315,369.2084,371.51,377.783,381.832,385.1692,387.497,390.194,394.826,399.644,404.657,409.4774,411.762,414.56,419.195,421.457,426.275,428.591,432.64,436.9042,439.202,446.725,451.543,453.859,456.657,459.066,463.884,466.201,470.0944,472.368,475.74,480.373,482.689,486.544,489.8812,492.21,494.619,499.62480000000005,501.904,504.703,509.622,513.5154,515.738,518.434,523.066,526.439,533.962,538.011,540.809,543.218,547.851" svgx:width="0.5,0.29,0.55,0.66,0.74,0.61,0.36,0.22,0.55,0.71,0.25,0.52,0.42,0.5,0.36,0.42,0.55,0.68,0.44,0.36,0.55,0.29,0.5,0.52,0.54,0.52,0.55,0.3,0.5,0.55,0.52,0.25,0.44,0.46,0.55,0.81,0.52,0.25,0.3,0.26,0.52,0.25,0.42,0.55,0.36,0.5,0.25,0.42,0.36,0.55,0.26,0.54,0.55,0.3,0.53,0.42,0.55,0.29,0.5,0.36,0.81,0.44,0.3,0.26,0.5,0.54" style="fill:rgb(0,0,0);font-family:AdvOT1ef757c0;font-size:9.27px;stroke:none;">of CNTs. Glucose was found to play multiple roles in the formation</text>
   <text y="724.195" x="303.874,308.507,311.19530000000003,315.213,318.011,322.931,326.82439999999997,330.861,335.873,339.922,344.935,349.567,353.422,357.47,362.103,364.419,368.274,370.3134,374.401,376.81,381.822,385.677,387.993,392.811,397.629,400.038,405.051,409.3152,413.349,415.758,423.282,428.1,431.472,436.105,440.349,442.758,447.77,452.0342,456.097,458.895,463.815,467.7084,471.744,474.153,479.165,481.964,485.818,489.191,491.887,495.936,499.79,502.199,506.248,508.5655,512.677,515.086,520.099,522.897,526.751,530.124,534.173,538.027,540.825,543.234,547.867" svgx:width="0.5,0.29,0.55,0.3,0.53,0.42,0.55,0.54,0.44,0.54,0.5,0.42,0.44,0.5,0.25,0.42,0.22,0.55,0.26,0.54,0.42,0.25,0.52,0.52,0.26,0.54,0.46,0.55,0.26,0.81,0.52,0.36,0.5,0.46,0.26,0.54,0.46,0.55,0.3,0.53,0.42,0.55,0.26,0.54,0.3,0.42,0.36,0.29,0.44,0.42,0.26,0.44,0.25,0.55,0.26,0.54,0.3,0.42,0.36,0.44,0.42,0.3,0.26,0.5,0.54" style="fill:rgb(0,0,0);font-family:AdvOT1ef757c0;font-size:9.27px;stroke:none;">of the nanocable, including improving the interfacial interaction</text>
   <text y="734.684" x="303.874,308.507,312.361,315.16,321.432,325.287,329.141,334.14680000000004,338.117,343.806,346.215" svgx:width="0.5,0.42,0.3,0.68,0.42,0.42,0.54,0.55,0.61,0.26,0.74" style="fill:rgb(0,0,0);font-family:AdvOT1ef757c0;font-size:9.27px;stroke:none;">between TiO</text>
   <text y="736.214" x="353.083" svgx:width="0.48" style="fill:rgb(0,0,0);font-family:AdvOT1ef757c0;font-size:6.18px;stroke:none;">2</text>
   <text y="734.683" x="360.34,364.389,369.402,374.2224,378.142,384.22,391.067,396.7217,400.705,403.503,408.138,412.101,414.797,418.846,422.7,425.109,427.426,429.834,432.633,436.682,439.48,443.3734,447.307,450.105,455.025,458.91839999999996,462.785,468.474,470.883" svgx:width="0.44,0.54,0.52,0.55,0.66,0.74,0.61,0.55,0.3,0.5,0.55,0.29,0.44,0.42,0.26,0.25,0.26,0.3,0.44,0.3,0.42,0.55,0.3,0.53,0.42,0.55,0.61,0.26,0.74" style="fill:rgb(0,0,0);font-family:AdvOT1ef757c0;font-size:9.27px;stroke:none;">and CNT to facilitate the TiO</text>
   <text y="736.214" x="477.751" svgx:width="0.48" style="fill:rgb(0,0,0);font-family:AdvOT1ef757c0;font-size:6.18px;stroke:none;">2</text>
   <text y="734.683" x="485.008,490.02,494.838,498.693,501.009,504.863,508.912,511.71,514.119,518.752,523.7578,527.755,532.388,537.3938,541.361,544.159,549.079" svgx:width="0.54,0.52,0.42,0.25,0.42,0.44,0.3,0.26,0.5,0.54,0.55,0.5,0.54,0.55,0.3,0.53,0.42" style="fill:rgb(0,0,0);font-family:AdvOT1ef757c0;font-size:9.27px;stroke:none;">nucleation on the</text>
   <text y="745.228" x="303.874,307.247,312.064,315.437,318.133,322.182,326.037,329.93039999999996,332.391,337.023,339.71130000000005,342.142,348.22,355.067,360.755,364.128,366.1674,368.617,372.471,377.104,382.117,384.915,388.287,392.92,395.236,397.553,399.962,404.974,409.2382,411.704,414.503,419.422,423.3154,425.708,429.952,433.324,437.957,444.229,447.027,451.9401,454.452,459.084,461.77230000000003,464.203,469.892,472.301" svgx:width="0.36,0.52,0.36,0.29,0.44,0.42,0.42,0.55,0.5,0.29,0.55,0.66,0.74,0.61,0.36,0.22,0.55,0.42,0.5,0.54,0.3,0.36,0.5,0.25,0.25,0.26,0.54,0.46,0.55,0.3,0.53,0.42,0.55,0.46,0.36,0.5,0.68,0.3,0.53,0.55,0.5,0.29,0.55,0.61,0.26,0.74" style="fill:rgb(0,0,0);font-family:AdvOT1ef757c0;font-size:9.27px;stroke:none;">surface of CNTs, controlling the growth of TiO</text>
   <text y="746.759" x="479.168" svgx:width="0.48" style="fill:rgb(0,0,0);font-family:AdvOT1ef757c0;font-size:6.18px;stroke:none;">2</text>
   <text y="745.228" x="484.951,489.964,494.012,499.025,503.658,508.476,512.525,515.897,518.695,521.104,524.959,527.275,531.129,534.502,536.5414,539.037,543.086,548.099" svgx:width="0.54,0.44,0.54,0.5,0.52,0.44,0.36,0.3,0.26,0.42,0.25,0.42,0.36,0.22,0.55,0.44,0.54,0.52" style="fill:rgb(0,0,0);font-family:AdvOT1ef757c0;font-size:9.27px;stroke:none;">nanoparticles, and</text>
  </g>
  <rect style="fill:pink;opacity:0.2;stroke:blue;stroke-width:0.3;" x="-0.113" y="17.524" height="36.964" width="595.446" title="5"/>
  <text y="17.524" class="image" id="image.5.1" width="595" height="36" x="-0.113" style="font-size:5.0px;">image.5.1.0_595.18_54</text>
  <rect style="fill:pink;opacity:0.2;stroke:blue;stroke-width:0.3;" x="48.472" y="69.456" height="402.916" width="498.727" title="5"/>
  <text y="69.456" class="image" id="image.5.2" width="498" height="402" x="48.472" style="font-size:5.0px;">image.5.2.48_547.69_472</text>
  <g begin="text">
   <text y="469.19" x="42.86,47.441,49.821,53.877,58.458,61.718,65.3601,68.144" svgx:width="0.54,0.28,0.48,0.54,0.38,0.43,0.55,0.49" style="fill:rgb(0,0,0);font-family:AdvOT5e4d79fc;font-size:8.47px;stroke:none;">Figure 5</text>
   <text y="469.19" x="74.721" svgx:width="0.26" style="fill:rgb(0,0,0);font-family:AdvOT5e4d79fc;font-size:8.97px;stroke:none;">|</text>
   <text y="469.19" x="78.179,83.023,85.225,88.841,92.364,95.09,98.351,102.67,106.192,110.774,114.39,121.444,123.823,127.346,131.131,133.3332,135.607,142.661,146.277,150.062,153.237,157.819,161.079,164.695,171.749,175.365,180.039,182.766,185.942" svgx:width="0.57,0.26,0.43,0.42,0.32,0.38,0.51,0.42,0.54,0.43,0.83,0.28,0.42,0.45,0.26,0.55,0.83,0.43,0.45,0.38,0.54,0.38,0.43,0.83,0.43,0.55,0.32,0.38,0.24" style="fill:rgb(0,0,0);font-family:AdvOT5e4d79fc;font-size:8.47px;stroke:none;">Electrochemical measurements.</text>
   <text y="469.19" x="190.204,193.38,197.081,200.2996,202.449,207.742,211.265,215.761,218.844,222.367,225.364,228.887,233.468,236.111,239.811,242.453,244.74,248.618,252.1754,254.435,257.958,261.743,265.266,267.383,269.669,273.22639999999996,275.411,279.289,283.692,285.81,288.452,292.152,299.113,306.074,310.477,314.356,317.438,321.139,328.1,331.0645,333.348,337.752,340.2083,342.475,345.117,349.614,353.17139999999995,355.344,360.9,367.158,372.272,378.53,383.645,385.932" svgx:width="0.38,0.44,0.38,0.55,0.63,0.42,0.53,0.36,0.42,0.35,0.42,0.54,0.31,0.44,0.31,0.27,0.46,0.42,0.55,0.42,0.45,0.42,0.25,0.27,0.42,0.55,0.46,0.52,0.25,0.31,0.44,0.82,0.82,0.52,0.46,0.36,0.44,0.82,0.35,0.55,0.52,0.29,0.55,0.31,0.53,0.42,0.55,0.66,0.74,0.6,0.74,0.6,0.27,0.75" style="fill:rgb(0,0,0);font-family:AdvP7627;font-size:8.47px;stroke:none;">(a) Representative cyclic voltammograms of the CNT@TiO</text>
   <text y="470.608" x="392.315" svgx:width="0.48" style="fill:rgb(0,0,0);font-family:AdvP7627;font-size:5.64px;stroke:none;">2</text>
   <text y="469.19" x="395.32,398.402,403.99219999999997,406.205,410.786,414.487,419.068,423.471,426.994,430.695,435.013,437.13,440.68739999999997,442.884,446.407,448.524,452.046,455.569,458.211,461.294,465.697,470.194,473.7514,475.991,479.692,482.3177,484.495,488.22180000000003,490.447,493.445,496.968,500.668,505.2418,507.455,510.537,514.238,516.88,520.4374,522.647,527.051" svgx:width="0.36,0.66,0.55,0.54,0.44,0.54,0.52,0.42,0.44,0.51,0.25,0.42,0.55,0.42,0.25,0.42,0.42,0.31,0.36,0.52,0.53,0.42,0.55,0.44,0.31,0.55,0.44,0.55,0.35,0.42,0.44,0.54,0.55,0.36,0.44,0.31,0.42,0.55,0.52,0.29" style="fill:rgb(0,0,0);font-family:AdvP7627;font-size:8.47px;stroke:none;">-C nanocable electrode at a scan rate of</text>
   <text y="479.678" x="42.86,46.917,48.941,53.006600000000006,55.786,62.747,68.4219,70.64" svgx:width="0.48,0.24,0.48,0.55,0.82,0.67,0.55,0.35" style="fill:rgb(0,0,0);font-family:AdvP7627;font-size:8.47px;stroke:none;">0.1 mV s</text>
   <text y="476.56" x="73.644" svgx:width="0.83" style="fill:rgb(0,0,0);font-family:AdvP414BFB;font-size:4.69px;stroke:none;">2</text>
   <text y="476.56" x="78.009" svgx:width="0.48" style="fill:rgb(0,0,0);font-family:AdvP7627;font-size:4.69px;stroke:none;">1</text>
   <text y="479.679" x="80.504,82.5368,84.756,87.931,92.25,95.4686,97.625,102.74,107.236,110.7934,112.988,115.452,117.739,120.821,123.819,126.4447,128.691,132.214,136.711,140.411,143.494,147.372,150.895,153.977,158.474,160.76,163.758,167.281,171.778,175.478,178.561,182.439,185.9964,188.216,192.094,196.498,198.615,201.257,204.958,208.836,212.3934,214.577,219.074,222.157,226.56,229.024,231.311,233.428,236.95,239.91449999999998,242.186,245.886,250.467,254.95610000000002,257.209,260.385,263.907,267.12559999999996,269.284,274.399,278.895,282.45239999999995,284.647,287.729,291.43,294.072,297.6294,299.784,303.306,307.007,311.504,315.204,319.523,321.809,323.926,326.213,328.855,332.66650000000004,334.932,339.335,341.7913,344.002,346.644,351.141,354.6984,356.871,362.426,368.684,373.799,380.057,385.172,387.458" svgx:width="0.24,0.55,0.38,0.51,0.38,0.55,0.6,0.53,0.42,0.55,0.29,0.27,0.36,0.35,0.31,0.55,0.42,0.53,0.44,0.36,0.46,0.42,0.36,0.53,0.27,0.35,0.42,0.53,0.44,0.36,0.46,0.42,0.55,0.46,0.52,0.25,0.31,0.44,0.46,0.42,0.55,0.53,0.36,0.52,0.29,0.27,0.25,0.42,0.35,0.55,0.44,0.54,0.53,0.55,0.38,0.42,0.38,0.55,0.6,0.53,0.42,0.55,0.36,0.44,0.31,0.42,0.55,0.42,0.44,0.53,0.44,0.51,0.27,0.25,0.27,0.31,0.45,0.55,0.52,0.29,0.55,0.31,0.53,0.42,0.55,0.66,0.74,0.6,0.74,0.6,0.27,0.75" style="fill:rgb(0,0,0);font-family:AdvP7627;font-size:8.47px;stroke:none;">; (b) The first charge-discharge voltage profiles and (c) The rate capability of the CNT@TiO</text>
   <text y="481.096" x="393.846" svgx:width="0.48" style="fill:rgb(0,0,0);font-family:AdvP7627;font-size:5.64px;stroke:none;">2</text>
   <text y="479.679" x="396.907,399.989,405.57919999999996,407.735,412.317,416.017,420.599,425.002,428.525,432.225,436.544,438.661,442.184,444.21680000000003,446.455,452.01,458.268,463.383,466.11,471.225,473.511" svgx:width="0.36,0.66,0.55,0.54,0.44,0.54,0.52,0.42,0.44,0.51,0.25,0.42,0.24,0.55,0.66,0.74,0.6,0.32,0.6,0.27,0.75" style="fill:rgb(0,0,0);font-family:AdvP7627;font-size:8.47px;stroke:none;">-C nanocable, CNT/TiO</text>
   <text y="481.096" x="479.905" svgx:width="0.48" style="fill:rgb(0,0,0);font-family:AdvP7627;font-size:5.64px;stroke:none;">2</text>
   <text y="479.679" x="485.121,488.644,493.047,500.008,504.505,508.908,511.906,514.193,516.835,520.3924000000001,522.651,526.351,530.932" svgx:width="0.42,0.52,0.82,0.53,0.52,0.35,0.27,0.31,0.42,0.55,0.44,0.54,0.53" style="fill:rgb(0,0,0);font-family:AdvP7627;font-size:8.47px;stroke:none;">composite and</text>
   <text y="490.11" x="42.861,46.384,50.787,57.748,64.709,68.232,71.314,74.837,77.123,80.824,82.9415,85.209,90.324,92.61" svgx:width="0.42,0.52,0.82,0.82,0.42,0.36,0.42,0.27,0.44,0.25,0.55,0.6,0.27,0.75" style="fill:rgb(0,0,0);font-family:AdvP7627;font-size:8.47px;stroke:none;">commercial TiO</text>
   <text y="491.527" x="98.929" svgx:width="0.48" style="fill:rgb(0,0,0);font-family:AdvP7627;font-size:5.64px;stroke:none;">2</text>
   <text y="490.11" x="104.201,108.783,112.483,117.065,121.468,125.965,129.665,132.748,135.39,137.676,141.199,143.316,146.8734,149.1,152.623,154.74,158.262,161.785,164.427,167.51,171.913,176.41,179.933,182.93,184.96280000000002,187.196,190.371,194.868,198.0866,200.235,205.79,210.194,217.155,221.651,225.352,228.434,230.721,233.718,238.122,242.69580000000002,244.964,249.368,251.8243,254.034,257.117,260.817,263.459,266.982,270.065,273.587,277.288,281.785,285.485,289.804,292.09,294.207,296.608,299.25,303.0615,305.225,309.629,312.0853,314.296,318.0228,320.192,324.071,327.771,330.854,333.14,336.663,339.305,343.11650000000003,345.363,349.766,352.2223,354.433,359.548,361.834" svgx:width="0.54,0.44,0.54,0.52,0.53,0.44,0.36,0.31,0.27,0.42,0.25,0.42,0.55,0.42,0.25,0.42,0.42,0.31,0.36,0.52,0.53,0.42,0.35,0.24,0.55,0.38,0.53,0.38,0.55,0.66,0.52,0.82,0.53,0.44,0.36,0.27,0.35,0.52,0.54,0.55,0.52,0.29,0.55,0.36,0.44,0.31,0.42,0.36,0.42,0.44,0.53,0.44,0.51,0.27,0.25,0.27,0.31,0.45,0.55,0.52,0.29,0.55,0.44,0.55,0.46,0.44,0.36,0.27,0.42,0.31,0.45,0.55,0.52,0.29,0.55,0.6,0.27,0.75" style="fill:rgb(0,0,0);font-family:AdvP7627;font-size:8.47px;stroke:none;">nanoparticle electrodes; (d) Comparison of rate-capability of a variety of TiO</text>
   <text y="491.527" x="368.22" svgx:width="0.48" style="fill:rgb(0,0,0);font-family:AdvP7627;font-size:5.64px;stroke:none;">2</text>
   <text y="490.11" x="371.282,374.364,378.683,382.384,385.381,388.904,393.3931,395.602,400.099,402.385,406.264,410.761,413.843,416.925,420.626,423.268,426.82539999999995,429.05,432.573,434.69,438.213,441.735,444.378,447.46,451.863,456.36,459.883,462.84749999999997,465.105,468.188,471.71,476.207,480.61,483.693,486.335,489.858,494.3471,496.626,499.708,503.231,506.754,510.276,514.858,517.5,519.617,523.402,525.426,530.541,532.827" svgx:width="0.36,0.51,0.44,0.35,0.42,0.53,0.55,0.53,0.27,0.46,0.53,0.36,0.36,0.44,0.31,0.42,0.55,0.42,0.25,0.42,0.42,0.31,0.36,0.52,0.53,0.42,0.35,0.55,0.36,0.42,0.53,0.52,0.36,0.31,0.42,0.53,0.55,0.36,0.42,0.42,0.42,0.54,0.31,0.25,0.45,0.24,0.6,0.27,0.75" style="fill:rgb(0,0,0);font-family:AdvP7627;font-size:8.47px;stroke:none;">-based high-rate electrodes reported recently.TiO</text>
   <text y="491.527" x="539.206" svgx:width="0.48" style="fill:rgb(0,0,0);font-family:AdvP7627;font-size:5.64px;stroke:none;">2</text>
   <text y="490.11" x="542.268" svgx:width="0.36" style="fill:rgb(0,0,0);font-family:AdvP7627;font-size:8.47px;stroke:none;">-</text>
   <text y="500.598" x="42.861,46.739,49.821,53.522,58.019,62.515,66.038,70.619" svgx:width="0.46,0.36,0.44,0.53,0.53,0.42,0.54,0.42" style="fill:rgb(0,0,0);font-family:AdvP7627;font-size:8.47px;stroke:none;">graphene</text>
   <text y="497.48" x="74.154,76.679" svgx:width="0.48,0.48" style="fill:rgb(0,0,0);font-family:AdvP7627;font-size:4.69px;stroke:none;">16</text>
   <text y="500.598" x="79.2,81.2328,83.452,89.007,95.265,100.38,103.462,108.577,110.863" svgx:width="0.24,0.55,0.66,0.74,0.6,0.36,0.6,0.27,0.75" style="fill:rgb(0,0,0);font-family:AdvP7627;font-size:8.47px;stroke:none;">, CNT-TiO</text>
   <text y="502.016" x="117.241" svgx:width="0.48" style="fill:rgb(0,0,0);font-family:AdvP7627;font-size:5.64px;stroke:none;">2</text>
   <text y="500.598" x="122.457,127.038,130.738,135.32,139.723,143.246,146.328,150.114,153.111,155.754,159.454,161.571" svgx:width="0.54,0.44,0.54,0.52,0.42,0.36,0.45,0.35,0.31,0.44,0.25,0.35" style="fill:rgb(0,0,0);font-family:AdvP7627;font-size:8.47px;stroke:none;">nanocrystals</text>
   <text y="497.48" x="164.636,167.161" svgx:width="0.48,0.48" style="fill:rgb(0,0,0);font-family:AdvP7627;font-size:4.69px;stroke:none;">41</text>
   <text y="500.598" x="169.682,171.7148,173.877,178.992,181.278" svgx:width="0.24,0.55,0.6,0.27,0.75" style="fill:rgb(0,0,0);font-family:AdvP7627;font-size:8.47px;stroke:none;">, TiO</text>
   <text y="502.016" x="187.654" svgx:width="0.48" style="fill:rgb(0,0,0);font-family:AdvP7627;font-size:5.64px;stroke:none;">2</text>
   <text y="500.598" x="190.715,193.797,199.09,203.671" svgx:width="0.36,0.63,0.54,0.75" style="fill:rgb(0,0,0);font-family:AdvP7627;font-size:8.47px;stroke:none;">-RuO</text>
   <text y="502.016" x="210.047" svgx:width="0.48" style="fill:rgb(0,0,0);font-family:AdvP7627;font-size:5.64px;stroke:none;">2</text>
   <text y="497.48" x="213.052,215.577" svgx:width="0.48,0.48" style="fill:rgb(0,0,0);font-family:AdvP7627;font-size:4.69px;stroke:none;">13</text>
   <text y="500.598" x="218.098,220.13080000000002,222.349,227.464,229.751" svgx:width="0.24,0.55,0.6,0.27,0.75" style="fill:rgb(0,0,0);font-family:AdvP7627;font-size:8.47px;stroke:none;">, TiO</text>
   <text y="502.016" x="236.069" svgx:width="0.48" style="fill:rgb(0,0,0);font-family:AdvP7627;font-size:5.64px;stroke:none;">2</text>
   <text y="500.598" x="241.342,245.923,249.624,254.205,258.608,261.606,266.103,269.625,273.148,275.79" svgx:width="0.54,0.44,0.54,0.52,0.35,0.53,0.42,0.42,0.31,0.35" style="fill:rgb(0,0,0);font-family:AdvP7627;font-size:8.47px;stroke:none;">nanosheets</text>
   <text y="497.48" x="278.816,281.341" svgx:width="0.48,0.48" style="fill:rgb(0,0,0);font-family:AdvP7627;font-size:4.69px;stroke:none;">42</text>
   <text y="500.598" x="283.861,285.8938,288.113,293.228,295.514" svgx:width="0.24,0.55,0.6,0.27,0.75" style="fill:rgb(0,0,0);font-family:AdvP7627;font-size:8.47px;stroke:none;">, TiO</text>
   <text y="502.016" x="301.89" svgx:width="0.48" style="fill:rgb(0,0,0);font-family:AdvP7627;font-size:5.64px;stroke:none;">2</text>
   <text y="500.598" x="307.105,314.066,317.589,320.587,324.99,328.513,331.595,335.381,338.378,341.021,344.721,346.838" svgx:width="0.82,0.42,0.35,0.52,0.42,0.36,0.45,0.35,0.31,0.44,0.25,0.35" style="fill:rgb(0,0,0);font-family:AdvP7627;font-size:8.47px;stroke:none;">mesocrystals</text>
   <text y="497.48" x="349.909,352.434" svgx:width="0.48,0.48" style="fill:rgb(0,0,0);font-family:AdvP7627;font-size:4.69px;stroke:none;">43</text>
   <text y="500.598" x="354.954,356.9868,359.149,363.206,371.225,376.78,383.038,388.153,391.235,396.35,398.637" svgx:width="0.24,0.55,0.48,0.95,0.66,0.74,0.6,0.36,0.6,0.27,0.75" style="fill:rgb(0,0,0);font-family:AdvP7627;font-size:8.47px;stroke:none;">, SWCNT-TiO</text>
   <text y="502.016" x="405.014" svgx:width="0.48" style="fill:rgb(0,0,0);font-family:AdvP7627;font-size:5.64px;stroke:none;">2</text>
   <text y="497.48" x="408.076,410.6" svgx:width="0.48,0.48" style="fill:rgb(0,0,0);font-family:AdvP7627;font-size:4.69px;stroke:none;">10</text>
   <text y="500.598" x="413.121,415.1538,417.373,422.488,424.774" svgx:width="0.24,0.55,0.6,0.27,0.75" style="fill:rgb(0,0,0);font-family:AdvP7627;font-size:8.47px;stroke:none;">, TiO</text>
   <text y="502.016" x="431.093" svgx:width="0.48" style="fill:rgb(0,0,0);font-family:AdvP7627;font-size:5.64px;stroke:none;">2</text>
   <text y="500.598" x="436.365,440.947,444.647,449.228,453.632,456.63,461.126,465.623,469.146,472.228,475.751,478.478,482.356,485.438,489.139,493.636,498.132,501.655,506.236" svgx:width="0.54,0.44,0.54,0.52,0.35,0.53,0.53,0.42,0.36,0.42,0.32,0.46,0.36,0.44,0.53,0.53,0.42,0.54,0.42" style="fill:rgb(0,0,0);font-family:AdvP7627;font-size:8.47px;stroke:none;">nanosphere/graphene</text>
   <text y="497.48" x="509.839,512.364" svgx:width="0.48,0.48" style="fill:rgb(0,0,0);font-family:AdvP7627;font-size:4.69px;stroke:none;">44</text>
   <text y="500.598" x="514.885" svgx:width="0.24" style="fill:rgb(0,0,0);font-family:AdvP7627;font-size:8.47px;stroke:none;">.</text>
   <text y="23.924" x="382.45,390.728,398.964,407.201,410.758,416.935,423.462,426.559,432.626,436.863,442.59,446.147,451.414,457.711,466.518" svgx:width="0.71,0.71,0.71,0.28,0.52,0.55,0.24,0.51,0.34,0.48,0.28,0.44,0.53,0.76,0.54" style="fill:rgb(255,255,255);font-family:AdvOT144a03c1;font-size:10.96px;stroke:none;">www.nature.com/</text>
   <text y="23.924" x="472.932,477.864,482.905,486.127,492.089,498.39,501.831,505.053,508.845,512.067,517.108,521.579,527.541,534.182,540.593,545.064,548.505" svgx:width="0.41,0.42,0.25,0.5,0.53,0.27,0.25,0.3,0.25,0.42,0.36,0.5,0.56,0.54,0.36,0.27,0.41" style="fill:rgb(255,255,255);font-family:AdvOT1415ea69.B;font-size:10.96px;stroke:none;">scientificreports</text>
  </g>
  <path style="fill:rgb(23,22,21);stroke:none;stroke-width:1.0;" d="M48.470 51.820 L547.200 51.820 L547.200 454.730 L48.470 454.730 "/>
  <g begin="text">
   <text y="768.132" x="42.86,47.092,52.32,54.146,58.29,64.515,68.078,69.903,73.529,75.354" svgx:width="0.53,0.66,0.23,0.52,0.78,0.45,0.23,0.47,0.23,0.66" style="fill:rgb(178,178,177);font-family:AdvOT144a03c1;font-size:7.97px;stroke:none;">SCIENTIFIC</text>
   <text y="768.132" x="82.658,87.058,90.875,95.02,101.245,105.644,109.207" svgx:width="0.55,0.48,0.52,0.78,0.55,0.45,0.52" style="fill:rgb(178,178,177);font-family:AdvOT1415ea69.B;font-size:7.97px;stroke:none;">REPORTS</text>
   <text y="768.132" x="117.411,121.8742,123.987,128.8487,130.96,133.351,135.382,140.276,145.169,150.063,154.9247,157.038,161.5012,163.557,168.953,175.76,177.585,179.976,182.039,186.932,191.826,194.233,199.127,204.02,208.914,213.808,218.287,221.325,223.979,228.044,232.603,237.497,242.391,247.284,252.178" svgx:width="0.56,0.55,0.61,0.55,0.3,0.55,0.61,0.61,0.61,0.61,0.55,0.56,0.55,0.68,0.85,0.23,0.3,0.55,0.61,0.61,0.3,0.61,0.61,0.61,0.61,0.56,0.4,0.33,0.51,0.57,0.61,0.61,0.61,0.61,0.61" style="fill:rgb(0,0,0);font-family:AdvOT735b620e;font-size:7.97px;stroke:none;">| 4 : 3729 | DOI: 10.1038/srep03729</text>
   <text y="768.132" x="547.542" svgx:width="0.68" style="fill:rgb(0,0,0);font-family:AdvOTf32ed098.B;font-size:7.97px;stroke:none;">5</text>
  </g>
 </g>
</svg>
