<?xml version="1.0" encoding="UTF-8"?>
<svg height="778.132" width="2657.572" xmlns="http://www.w3.org/2000/svg">
 <g id="page" xmlns:svgx="http://www.xml-cml.org/schema/svgx">
  <g begin="text">
   <text y="320.485" x="42.86,47.678,52.496,55.868,60.686,65.504,68.877,71.286,76.2918,79.824,82.14,85.994,90.043,94.861,98.1982,101.764,104.562,109.197,112.649,115.447,120.367,124.2604,127.729,132.547,136.401,140.256,143.628,147.483,151.532,154.904,158.79739999999998,162.312,164.721,169.7268,173.197,175.995,180.915,184.8084,188.277,192.326,196.958,200.331,204.964,208.336,213.154,215.952,218.361,222.994,227.9998,231.534,233.943,238.9488,242.419,245.217,250.137,254.0304,257.499,260.871,264.726,268.969,271.378,276.011,281.01680000000005,284.541,289.174" svgx:width="0.52,0.52,0.36,0.52,0.52,0.36,0.26,0.54,0.55,0.25,0.42,0.44,0.52,0.36,0.55,0.3,0.5,0.55,0.3,0.53,0.42,0.55,0.52,0.42,0.42,0.36,0.42,0.44,0.36,0.42,0.55,0.26,0.54,0.55,0.3,0.53,0.42,0.55,0.44,0.5,0.36,0.5,0.36,0.52,0.3,0.26,0.5,0.54,0.55,0.26,0.54,0.55,0.3,0.53,0.42,0.55,0.36,0.42,0.46,0.26,0.5,0.54,0.55,0.5,0.29" style="fill:rgb(0,0,0);font-family:AdvOT1ef757c0;font-size:9.27px;stroke:none;">purpurin leads to the decrease in the absorption in the region of</text>
   <text y="331.143" x="42.86,47.298,51.736,56.185599999999994,59.245,64.257,71.76570000000001,74.665,80.937,83.346,86.145,91.0581,93.94,97.313,101.167,105.98740000000001,108.907,112.28,117.2,119.609,122.305,125.08600000000001,128.013,132.646,135.33429999999998,138.218,142.267,146.9,150.272,154.905,158.278,163.096,165.894,168.303,172.935,177.9408,180.852,185.484,189.533,194.546,199.3664,202.281,204.978,208.35,212.983,220.4917,223.428,227.866,232.304,236.7536,239.642,242.44,247.075,249.903,254.341,258.779,263.2286,266.344,271.357,278.88,280.9194,283.806,286.891" svgx:width="0.48,0.48,0.48,0.55,0.54,0.81,0.55,0.68,0.26,0.3,0.53,0.55,0.36,0.42,0.52,0.55,0.36,0.53,0.26,0.29,0.3,0.55,0.5,0.29,0.55,0.44,0.5,0.36,0.5,0.36,0.52,0.3,0.26,0.5,0.54,0.55,0.5,0.44,0.54,0.52,0.55,0.29,0.36,0.5,0.81,0.55,0.48,0.48,0.48,0.55,0.3,0.5,0.55,0.48,0.48,0.48,0.55,0.54,0.81,0.22,0.55,0.33,0.54" style="fill:rgb(0,0,0);font-family:AdvOT1ef757c0;font-size:9.27px;stroke:none;">481 nm with red shift of absorption band from 481 to 487 nm. In</text>
   <text y="341.801" x="42.86,46.909,51.727,56.545,58.954,61.752,64.161,68.793,73.806,75.8454,78.351,82.399,87.217,92.035,95.89,99.939,103.311,107.36,112.373,116.227,120.1204,122.685,127.318,130.0063,132.55,136.6288,139.126,144.139,147.993,154.29659999999998,156.815,161.447,165.496,170.509,175.3294,177.848,181.897,184.678,187.202,191.64,196.078,200.5276,203.643,208.656,216.1647,218.724,224.996,229.045,232.38219999999998,234.938,239.57,244.203,247.576,251.43,254.803,259.046,262.901,267.7214,270.258,274.307,279.32,284.1404,286.699,289.108" svgx:width="0.44,0.52,0.52,0.26,0.3,0.26,0.5,0.54,0.22,0.55,0.44,0.52,0.52,0.42,0.44,0.36,0.44,0.54,0.42,0.42,0.55,0.5,0.29,0.55,0.44,0.55,0.54,0.42,0.68,0.55,0.5,0.44,0.54,0.52,0.55,0.44,0.3,0.55,0.48,0.48,0.48,0.55,0.54,0.81,0.55,0.68,0.44,0.36,0.55,0.5,0.5,0.36,0.42,0.36,0.46,0.42,0.52,0.55,0.44,0.54,0.52,0.55,0.26,0.3" style="fill:rgb(0,0,0);font-family:AdvOT1ef757c0;font-size:9.27px;stroke:none;">addition, appearance of a new band at 514 nm was observed and it</text>
   <text y="352.459" x="42.86,49.132,53.181,56.5182,60.321,64.176,69.188,74.108,78.157,83.169,87.024,90.878,95.6984,99.553,105.826,108.235,111.033,115.9461,119.736,122.534,127.454,131.3474,135.1,138.472,143.29,147.923,151.295,155.15,159.875,164.693,168.547,173.56,176.341,180.228,184.277,189.095,193.913,196.322,199.12,201.529,206.162,211.1678,214.981,219.614,222.3023,226.15,231.07" svgx:width="0.68,0.44,0.36,0.55,0.42,0.54,0.53,0.44,0.54,0.42,0.42,0.52,0.55,0.68,0.26,0.3,0.53,0.55,0.3,0.53,0.42,0.55,0.36,0.52,0.5,0.36,0.42,0.51,0.52,0.42,0.54,0.3,0.55,0.44,0.52,0.52,0.26,0.3,0.26,0.5,0.54,0.55,0.5,0.29,0.55,0.53,0.26" style="fill:rgb(0,0,0);font-family:AdvOT1ef757c0;font-size:9.27px;stroke:none;">was enhanced with the subsequent addition of Li</text>
   <text y="349.058" x="233.461" svgx:width="0.83" style="fill:rgb(0,0,0);font-family:AdvP414BFB;font-size:5.13px;stroke:none;">1</text>
   <text y="352.46" x="242.022,244.431,249.064,254.076,257.449,259.4884,263.282,270.129,275.142,278.996,282.88939999999997,286.697,289.105" svgx:width="0.26,0.5,0.54,0.36,0.22,0.55,0.74,0.54,0.42,0.42,0.55,0.26,0.3" style="fill:rgb(0,0,0);font-family:AdvOT1ef757c0;font-size:9.27px;stroke:none;">ions. Once it</text>
   <text y="363.118" x="42.861,46.233,50.088,54.137,57.991,62.911,66.765,71.5854,75.46,78.258,83.178,87.0714,90.88,94.253,98.301,101.1,103.509,108.144,111.97,116.602,119.2903,123.138" svgx:width="0.36,0.42,0.44,0.42,0.53,0.42,0.52,0.55,0.3,0.53,0.42,0.55,0.36,0.44,0.3,0.26,0.5,0.55,0.5,0.29,0.55,0.48" style="fill:rgb(0,0,0);font-family:AdvOT1ef757c0;font-size:9.27px;stroke:none;">reached the ratio of 1</text>
   <text y="363.118" x="127.559" svgx:width="0.55" style="fill:rgb(0,0,0);font-family:AdvP3F0CD3;font-size:9.27px;stroke:none;">5</text>
   <text y="363.118" x="132.718,137.1676,140.996,145.814,150.632,154.004,158.822,163.64,167.013,169.422,174.4278,178.3,181.098,185.733,189.582,191.899,194.308,197.106,202.026,204.435,209.253,216.776,218.8154,222.634,227.647,232.28199999999998,236.127,240.176,247.7,251.554,256.567,261.385,268.908,272.763,277.775,280.556,284.487,286.896" svgx:width="0.48,0.55,0.52,0.52,0.36,0.52,0.52,0.36,0.26,0.54,0.55,0.3,0.5,0.55,0.25,0.26,0.3,0.53,0.26,0.52,0.81,0.22,0.55,0.54,0.5,0.55,0.44,0.81,0.42,0.54,0.52,0.81,0.42,0.54,0.3,0.55,0.26,0.54" style="fill:rgb(0,0,0);font-family:AdvOT1ef757c0;font-size:9.27px;stroke:none;">2 purpurin to lithium, no amendment in</text>
   <text y="373.776" x="42.861,46.91,51.542,54.915,59.547,62.92,67.738,70.536,72.945,77.578,82.5838,84.134,90.407,94.455,97.7922,99.328,104.146,108.0,111.373,115.227,119.082,121.491,125.734,129.589,134.4094,135.952,139.13,143.948,146.357,150.6,155.418,158.791,162.68439999999998,164.185,168.623,172.672,175.85,177.8894,179.436,184.254,189.943,193.028,200.242,204.291,209.303,213.352,215.669,219.912,223.285,225.694,229.03119999999998,230.573,235.206,237.8943,239.417,244.624,249.544,254.751,258.031,262.4806,264.022,267.394,272.314,276.947,283.219,287.074" svgx:width="0.44,0.5,0.36,0.5,0.36,0.52,0.3,0.26,0.5,0.54,0.55,0.68,0.44,0.36,0.55,0.52,0.42,0.36,0.42,0.42,0.26,0.46,0.42,0.52,0.55,0.34,0.52,0.26,0.46,0.52,0.36,0.42,0.55,0.48,0.44,0.34,0.22,0.55,0.52,0.61,0.33,0.61,0.44,0.54,0.44,0.25,0.46,0.36,0.26,0.36,0.55,0.5,0.29,0.55,0.56,0.53,0.56,0.35,0.48,0.55,0.36,0.53,0.5,0.68,0.42,0.52" style="fill:rgb(0,0,0);font-family:AdvOT1ef757c0;font-size:9.27px;stroke:none;">absorption was perceived (Figure 5a). FTIRanalysis of ELP-1 showed</text>
   <text y="384.433" x="42.861,47.873,51.728,58.031600000000005,62.76,66.614,70.663,74.036,78.668,83.301,88.313,92.557,94.8745,99.667,103.04,105.838,109.21,113.065,115.863,119.717,124.637,127.046,132.059,136.32319999999999,141.11,145.159,149.792,153.164,157.797,161.169,165.987,168.785,171.194,175.827,180.8328,185.671,190.304,194.353,199.365,204.183,207.5202,212.374,216.423,219.204,223.996,228.045,231.418,236.051,240.868,245.881,250.7014,255.461,259.899,264.337,268.776,273.2256,278.025,282.074,287.087" svgx:width="0.54,0.42,0.68,0.55,0.42,0.44,0.36,0.5,0.5,0.54,0.46,0.25,0.55,0.36,0.3,0.36,0.42,0.3,0.42,0.53,0.26,0.54,0.46,0.55,0.44,0.5,0.36,0.5,0.36,0.52,0.3,0.26,0.5,0.54,0.55,0.5,0.44,0.54,0.52,0.36,0.55,0.44,0.3,0.55,0.44,0.36,0.5,0.52,0.54,0.52,0.55,0.48,0.48,0.48,0.48,0.55,0.44,0.54,0.52" style="fill:rgb(0,0,0);font-family:AdvOT1ef757c0;font-size:9.27px;stroke:none;">new carbonyl stretching absorption bands at around 1780 and</text>
   <text y="395.091" x="42.861,47.299,51.737,56.175,60.624599999999994,63.667,67.521" svgx:width="0.48,0.48,0.48,0.48,0.55,0.42,0.81" style="fill:rgb(0,0,0);font-family:AdvOT1ef757c0;font-size:9.27px;stroke:none;">1800 cm</text>
   <text y="391.691" x="75.061" svgx:width="0.83" style="fill:rgb(0,0,0);font-family:AdvP414BFB;font-size:5.13px;stroke:none;">2</text>
   <text y="391.691" x="79.88" svgx:width="0.48" style="fill:rgb(0,0,0);font-family:AdvOT1ef757c0;font-size:5.13px;stroke:none;">1</text>
   <text y="395.093" x="82.602,84.6414,86.4,92.673,97.593,101.447,104.82,108.674,112.723,116.0602,117.865,120.663,125.583,129.438,133.70219999999998,135.441,141.713,145.568,148.94,152.83339999999998,154.603,158.652,163.285,166.657,170.512,175.524,178.305,180.059,182.468,187.47379999999998,189.243,192.041,196.961,200.8544,202.566,206.42,210.469,213.842,217.73540000000003,219.518,224.15,226.8383,228.588,233.406,236.779,239.188,242.56,245.359,247.768,252.78,256.6734,258.41,263.228,268.046,271.418,276.236,281.054,284.427,286.836" svgx:width="0.22,0.55,0.68,0.53,0.42,0.36,0.42,0.44,0.36,0.55,0.3,0.53,0.42,0.46,0.55,0.68,0.42,0.36,0.42,0.55,0.44,0.5,0.36,0.42,0.54,0.3,0.55,0.26,0.54,0.55,0.3,0.53,0.42,0.55,0.42,0.44,0.36,0.42,0.55,0.5,0.29,0.55,0.52,0.36,0.26,0.36,0.3,0.26,0.54,0.42,0.55,0.52,0.52,0.36,0.52,0.52,0.36,0.26,0.54" style="fill:rgb(0,0,0);font-family:AdvOT1ef757c0;font-size:9.27px;stroke:none;">, whereas they were absent in the case of pristine purpurin</text>
   <text y="405.751" x="42.86,46.038,50.856,53.265,57.508,62.326,65.699,69.5924,72.738,77.176,81.808,84.986,87.0254,90.143,94.96,99.778,103.151,105.949,110.869,114.723,118.096,120.1354,123.309,126.681,131.314,133.63,136.039,140.8594,144.058,148.876,152.249,156.881,161.699,166.517,170.372,173.15300000000002,176.317,180.95,185.583,188.381,192.43,194.839,199.851,203.705,208.52540000000002,211.694,215.743,218.439,221.237,225.092,228.4292,231.651,235.023,238.878,243.121,246.975,250.348,254.397,256.7145,259.884,263.738,267.982,271.836,274.152,278.007,281.3442,284.545,289.178" svgx:width="0.34,0.52,0.26,0.46,0.52,0.36,0.42,0.55,0.48,0.5,0.34,0.22,0.55,0.52,0.52,0.36,0.3,0.53,0.42,0.36,0.22,0.55,0.36,0.5,0.25,0.26,0.52,0.55,0.52,0.36,0.5,0.52,0.52,0.42,0.3,0.55,0.5,0.5,0.3,0.44,0.26,0.54,0.42,0.52,0.55,0.44,0.29,0.3,0.42,0.36,0.55,0.36,0.42,0.46,0.42,0.36,0.44,0.25,0.55,0.42,0.46,0.42,0.25,0.42,0.36,0.55,0.5,0.29" style="fill:rgb(0,0,0);font-family:AdvOT1ef757c0;font-size:9.27px;stroke:none;">(Figure 5b). Further, solid product obtained after several cycles of</text>
   <text y="416.466" x="42.86,46.714,51.634,55.683,59.056,63.299,67.153,70.137,74.955,77.364,80.736,84.591,89.511,93.56,96.932,101.176,105.0694,108.341,113.159,116.532,121.165,125.019,128.873,132.246,135.5832,138.843,145.115,149.164,152.50119999999998,155.795,159.649,164.569,168.618,171.99,176.039,179.894,182.692,186.546,189.919,192.328,196.182,200.036,204.8564,208.123,212.941,216.314,218.723,223.735,227.9992,231.254,235.3328,238.511,243.718,250.759,253.8181,257.05,263.897,268.715,272.764,277.776,280.574,284.429,287.801" svgx:width="0.42,0.53,0.44,0.36,0.46,0.42,0.32,0.52,0.26,0.36,0.42,0.53,0.44,0.36,0.46,0.42,0.55,0.52,0.36,0.5,0.42,0.42,0.36,0.36,0.55,0.68,0.44,0.36,0.55,0.42,0.53,0.44,0.36,0.44,0.42,0.3,0.42,0.36,0.26,0.42,0.42,0.52,0.55,0.52,0.36,0.26,0.54,0.46,0.55,0.44,0.55,0.56,0.76,0.33,0.55,0.74,0.52,0.44,0.54,0.3,0.42,0.36,0.44" style="fill:rgb(0,0,0);font-family:AdvOT1ef757c0;font-size:9.27px;stroke:none;">charge/discharge process was characterized using a PHI Quantera</text>
   <text y="427.124" x="42.86,47.678,52.598,57.23,60.028,64.661,68.515,70.832,74.686,78.541,81.339,84.711,89.344,94.34979999999999,96.209,99.581,104.399,108.253,112.108,114.906,118.278,122.911,130.435,134.289,137.087,140.941,144.2782,146.212,149.39,155.367,160.574,164.91,168.0618,169.967,176.239,178.648,181.447,186.3601,188.222,192.271,197.27679999999998,199.107,205.472,207.7895,209.652,213.701,218.713,223.346,228.164,232.05739999999997,233.917,237.289,241.922,246.74,250.113,253.967,257.8604,259.656,264.289,269.106,272.961,276.333,280.382,283.18,287.035" svgx:width="0.52,0.53,0.5,0.3,0.5,0.42,0.25,0.42,0.42,0.3,0.36,0.5,0.54,0.55,0.36,0.52,0.42,0.42,0.3,0.36,0.5,0.81,0.42,0.3,0.42,0.36,0.55,0.34,0.64,0.56,0.47,0.34,0.55,0.68,0.26,0.3,0.53,0.55,0.44,0.54,0.55,0.69,0.25,0.55,0.44,0.54,0.5,0.52,0.42,0.55,0.36,0.5,0.52,0.36,0.42,0.42,0.55,0.5,0.52,0.42,0.36,0.44,0.3,0.42,0.52" style="fill:rgb(0,0,0);font-family:AdvOT1ef757c0;font-size:9.27px;stroke:none;">photoelectron spectrometer (XPS) with an Al anode source operated</text>
   <text y="437.782" x="42.86,46.909,49.69,51.251,55.689,60.1386,63.213,67.744,75.799,79.848,84.86,89.6804,91.219,95.268,100.2738,101.877,105.926,110.744,115.562,117.878,120.287,124.142,128.9624,130.564,135.382,140.015,146.287,150.142,153.4792,155.056,159.689,162.3773,163.957,168.395,172.833,177.2826,180.399,189.367,191.4064,192.928,197.848,200.257,203.055,207.975,210.384,214.433,217.231,221.085,225.90540000000001,227.511,232.329,237.147,240.519,245.337,250.155,253.528,255.937,260.94280000000003,262.548,265.92,269.969,277.493,282.311,284.627,288.481" svgx:width="0.44,0.3,0.55,0.48,0.48,0.55,0.49,0.7,0.44,0.54,0.52,0.55,0.44,0.54,0.55,0.44,0.52,0.52,0.25,0.26,0.42,0.52,0.55,0.52,0.5,0.68,0.42,0.36,0.55,0.5,0.29,0.55,0.48,0.48,0.48,0.55,0.97,0.22,0.55,0.53,0.26,0.3,0.53,0.26,0.44,0.3,0.42,0.52,0.55,0.52,0.52,0.36,0.52,0.52,0.36,0.26,0.54,0.55,0.36,0.44,0.81,0.52,0.25,0.42,0.36" style="fill:rgb(0,0,0);font-family:AdvOT1ef757c0;font-size:9.27px;stroke:none;">at 15 kVand an applied power of 350 W. Lithiated purpurin samples</text>
   <text y="448.44" x="42.86,46.909,49.605,52.403,56.257,59.5942,62.533,64.849,68.898,72.271,75.052,77.953,82.771,85.18,88.553,92.407,97.327,101.376,104.748,108.992,112.8854,115.768,122.04,126.089,129.4262,132.378,134.695,139.327,143.376,148.1964,151.087,153.403,158.036,161.89,166.421,170.275,175.0954,178.016,180.425,185.438,188.236,192.87099999999998,195.761,198.56,203.479,207.37240000000003,210.275,216.251,221.458,225.8149,228.7,236.223,240.272,244.126,249.046,251.455,256.468,260.3614,263.226,269.498,271.907,274.705,279.625,284.258,289.076" svgx:width="0.44,0.29,0.3,0.42,0.36,0.55,0.25,0.44,0.36,0.3,0.55,0.52,0.26,0.36,0.42,0.53,0.44,0.36,0.46,0.42,0.55,0.68,0.44,0.36,0.55,0.25,0.5,0.44,0.52,0.55,0.25,0.5,0.42,0.49,0.42,0.52,0.55,0.26,0.54,0.3,0.5,0.55,0.3,0.53,0.42,0.55,0.64,0.56,0.47,0.55,0.81,0.44,0.42,0.53,0.26,0.54,0.42,0.55,0.68,0.26,0.3,0.53,0.5,0.52,0.3" style="fill:rgb(0,0,0);font-family:AdvOT1ef757c0;font-size:9.27px;stroke:none;">after last discharge was load locked into the XPS machine without</text>
   <text y="459.097" x="42.86,46.714,51.05,55.868,60.501,63.874,66.283,71.295,75.5592,77.33,79.739,82.52000000000001,84.246,87.044,91.679,93.431,97.48,105.003,109.636,112.045,115.899,120.912,123.69300000000001,125.519,129.568,131.977,135.35,137.3894,139.125,145.102,150.309,154.6659,156.417,161.235,164.608,169.24,171.937,174.346,176.662,180.516,183.8532,185.671,191.944,195.798,199.171,203.06439999999998,204.834,208.883,213.895,217.944,220.261,224.504,228.359,232.213,237.0334,238.793,243.426,247.69019999999998,249.451,252.147,256.78,260.634,265.452,268.825,271.234,276.246,280.5102,282.277,286.91" svgx:width="0.42,0.47,0.52,0.5,0.36,0.26,0.54,0.46,0.55,0.26,0.3,0.55,0.3,0.5,0.55,0.44,0.81,0.5,0.26,0.42,0.54,0.3,0.55,0.44,0.26,0.36,0.22,0.55,0.64,0.56,0.47,0.55,0.52,0.36,0.5,0.29,0.26,0.25,0.42,0.36,0.55,0.68,0.42,0.36,0.42,0.55,0.44,0.54,0.44,0.25,0.46,0.42,0.42,0.52,0.55,0.5,0.46,0.55,0.29,0.5,0.42,0.52,0.36,0.26,0.54,0.46,0.55,0.5,0.54" style="fill:rgb(0,0,0);font-family:AdvOT1ef757c0;font-size:9.27px;stroke:none;">exposing it to ambient air. XPS profiles were analyzed by focusing on</text>
   <text y="469.755" x="42.86,45.658,50.578,54.4714,56.693,60.066,63.92,68.163,70.572,75.205,80.218,83.5552,85.947,92.22,97.14,100.994,104.367,108.2604,110.496,113.294,118.214,122.1074,124.385,127.758,130.167,134.41,139.423,143.472,145.788,149.1252,151.484,156.117,158.8053,161.122,167.2,171.638,175.011,177.0504,179.321,186.168,190.606,193.9432,196.273,200.322,205.334,210.1544,212.487,217.407,219.816,224.254,227.5912,229.892,233.941,237.313,241.20639999999997,243.498,247.352,251.689,256.507,260.361,264.215,267.013,270.868,275.6884,278.024,282.073,287.086" svgx:width="0.3,0.53,0.42,0.55,0.36,0.42,0.46,0.26,0.5,0.54,0.36,0.55,0.68,0.53,0.42,0.36,0.42,0.55,0.3,0.53,0.42,0.55,0.36,0.26,0.46,0.54,0.44,0.25,0.36,0.55,0.5,0.29,0.55,0.66,0.48,0.36,0.22,0.55,0.74,0.48,0.36,0.55,0.44,0.54,0.52,0.55,0.53,0.26,0.48,0.36,0.55,0.44,0.36,0.42,0.55,0.42,0.47,0.52,0.42,0.42,0.3,0.42,0.52,0.55,0.44,0.54,0.52" style="fill:rgb(0,0,0);font-family:AdvOT1ef757c0;font-size:9.27px;stroke:none;">the regions where the signals of C1s, O1s and Li1s are expected and</text>
   <text y="480.413" x="42.86,46.714,51.347,58.87,63.688,67.737,71.11,74.964,79.7844,83.112,89.385,91.794,94.592,99.5051,102.842,105.64,110.56,114.608,117.38900000000001,120.7,125.333,128.0213,131.302,136.12,139.492,141.901,145.274,148.072,150.481,155.493,159.38639999999998,162.71,167.528,172.346,175.719,180.537,185.355,188.727,191.136,196.1418,199.505,202.683,207.019,211.837,216.655,221.473,226.105,229.478,232.276,234.685,239.698,243.9622,247.298,249.707,254.719,257.416,262.048,265.421,272.944,276.993,279.791,282.2,286.833" svgx:width="0.42,0.5,0.81,0.52,0.44,0.36,0.42,0.52,0.55,0.68,0.26,0.3,0.53,0.55,0.3,0.53,0.44,0.3,0.55,0.5,0.29,0.55,0.52,0.36,0.26,0.36,0.3,0.26,0.54,0.42,0.55,0.52,0.52,0.36,0.52,0.52,0.36,0.26,0.54,0.55,0.34,0.47,0.52,0.52,0.52,0.5,0.36,0.3,0.26,0.54,0.46,0.55,0.26,0.54,0.29,0.5,0.36,0.81,0.44,0.3,0.26,0.5,0.54" style="fill:rgb(0,0,0);font-family:AdvOT1ef757c0;font-size:9.27px;stroke:none;">compared with that of pristine purpurin (Supporting information</text>
   <text y="491.071" x="42.86,47.678,50.087,54.33,59.148,62.521,66.4144,68.542,72.878,77.317,80.495,82.5344,84.7,90.389,95.309,99.2024,101.368,107.344,112.552,116.9089,119.057,122.429,127.247,130.62,134.863,138.718,142.98219999999998,145.136,148.508,152.363,156.412,161.4178,163.618,166.027,169.36419999999998,171.555,174.927,179.847,184.48,190.753,195.75879999999998,197.974,202.792,205.201,209.444,214.262,217.635,221.52839999999998,223.656,227.993,232.431,234.4704,236.639,242.912,247.831,250.24,254.095,259.0081,261.187,264.56,269.378,273.232,277.087,279.496,282.192,284.601,288.455" svgx:width="0.52,0.26,0.46,0.52,0.36,0.42,0.55,0.47,0.48,0.34,0.22,0.55,0.61,0.53,0.42,0.55,0.64,0.56,0.47,0.55,0.36,0.52,0.36,0.46,0.42,0.46,0.55,0.36,0.42,0.44,0.54,0.55,0.26,0.36,0.55,0.36,0.53,0.5,0.68,0.54,0.55,0.52,0.26,0.46,0.52,0.36,0.42,0.55,0.47,0.48,0.22,0.55,0.68,0.53,0.26,0.42,0.53,0.55,0.36,0.52,0.42,0.42,0.26,0.29,0.26,0.42,0.36" style="fill:rgb(0,0,0);font-family:AdvOT1ef757c0;font-size:9.27px;stroke:none;">Figure S4). The XPS survey scan is shown Figure S4, which specifies</text>
   <text y="501.729" x="42.86,45.658,50.578,54.4714,56.863,61.681,65.054,68.908,72.281,76.135,81.148,85.002,88.8954,91.39,96.022,98.7103,101.14,105.773,110.406,113.204,118.1171,120.586,124.441,128.49,131.862,136.495,141.128,146.13379999999998,148.65,152.699,157.712,162.5324,164.977,169.61,173.946,178.19,182.433,186.288,191.2938,193.778,197.15,199.559,207.083,209.492,211.808,215.857,219.1942,221.727,224.526,229.161,231.592,234.39,239.31,243.359,246.14000000000001,248.6,253.233,255.9213,258.409,263.227,268.045,271.417,276.235,281.053,284.426,286.835" svgx:width="0.3,0.53,0.42,0.55,0.52,0.36,0.42,0.36,0.42,0.54,0.42,0.42,0.55,0.5,0.29,0.55,0.5,0.5,0.3,0.53,0.55,0.42,0.44,0.36,0.5,0.5,0.54,0.55,0.44,0.54,0.52,0.55,0.5,0.47,0.46,0.46,0.42,0.54,0.55,0.36,0.26,0.81,0.26,0.25,0.44,0.36,0.55,0.3,0.5,0.55,0.3,0.53,0.44,0.3,0.55,0.5,0.29,0.55,0.52,0.52,0.36,0.52,0.52,0.36,0.26,0.54" style="fill:rgb(0,0,0);font-family:AdvOT1ef757c0;font-size:9.27px;stroke:none;">the presence of both carbon and oxygen similar to that of purpurin</text>
   <text y="512.387" x="42.86,46.038,50.374,55.192,60.01,64.828,69.461,72.833,75.631,78.04,83.053,87.3172,91.333,93.742,98.755,101.451,106.083,109.456,116.979,121.028,123.827,126.236,130.868,135.8738,139.919,144.737,147.146,151.39,156.208,159.58,163.47340000000003,167.473,171.809,176.247,179.39880000000002,183.403,187.452,192.465,197.2854,201.319,205.368,210.3738,214.358,218.407,223.225,228.043,230.452,233.25,235.659,240.291,245.304,249.353,251.6705,255.744,260.562,264.416,268.465,273.0073,277.004,281.053,283.834,287.833" svgx:width="0.34,0.47,0.52,0.52,0.52,0.5,0.36,0.3,0.26,0.54,0.46,0.55,0.26,0.54,0.29,0.5,0.36,0.81,0.44,0.3,0.26,0.5,0.54,0.55,0.52,0.26,0.46,0.52,0.36,0.42,0.55,0.47,0.48,0.34,0.55,0.44,0.54,0.52,0.55,0.44,0.54,0.55,0.44,0.52,0.52,0.26,0.3,0.26,0.5,0.54,0.44,0.25,0.55,0.52,0.42,0.44,0.49,0.55,0.44,0.3,0.55,0.44" style="fill:rgb(0,0,0);font-family:AdvOT1ef757c0;font-size:9.27px;stroke:none;">(Supporting information Figure S4) and an additional peak at a</text>
   <text y="523.045" x="42.86,47.493,49.901,54.914,59.732,62.141,67.153,71.41720000000001,74.721,78.576,83.588,87.443,90.815,95.059,99.3232,102.671,107.304" svgx:width="0.5,0.26,0.54,0.52,0.26,0.54,0.46,0.55,0.42,0.54,0.42,0.36,0.46,0.46,0.55,0.5,0.29" style="fill:rgb(0,0,0);font-family:AdvOT1ef757c0;font-size:9.27px;stroke:none;">binding energy of</text>
   <text y="523.045" x="113.385" svgx:width="0.83" style="fill:rgb(0,0,0);font-family:AdvP7DB7;font-size:9.27px;stroke:none;">,</text>
   <text y="523.045" x="121.096,125.534,129.9836,133.058,136.913,143.40200000000002,146.721,149.519,154.439,158.3324,161.632,166.45,169.822,173.677,177.049,180.904,185.916,189.77,193.66340000000002,197.009,201.641,204.3293,207.667,209.984,212.393,215.191,220.111,222.52,227.338,234.8467,238.225,240.634,245.63979999999998,248.997,251.795,256.715,260.60839999999996,263.908,267.28,271.329,278.853,283.671,285.987,289.841" svgx:width="0.48,0.48,0.55,0.42,0.7,0.55,0.3,0.53,0.42,0.55,0.52,0.36,0.42,0.36,0.42,0.54,0.42,0.42,0.55,0.5,0.29,0.55,0.25,0.26,0.3,0.53,0.26,0.52,0.81,0.55,0.26,0.54,0.55,0.3,0.53,0.42,0.55,0.36,0.44,0.81,0.52,0.25,0.42,0.22" style="fill:rgb(0,0,0);font-family:AdvOT1ef757c0;font-size:9.27px;stroke:none;">55 eV the presence of lithium in the sample.</text>
   <text y="533.703" x="42.86,47.678,52.496,55.868,58.666,63.586,67.441,70.813,72.8524,74.721,77.519,82.439,86.33239999999999,88.214,92.069,96.701,100.074,103.9674,105.79,108.106,111.96,116.204,120.058,122.3755,124.272,127.645,132.463,136.317,140.171,142.97,146.342,150.4208,152.336,156.969,159.6573,161.521,166.44,168.849,173.287,176.6242,178.585,180.994,184.3312,186.239,190.287,192.604,195.976,200.611,202.509,207.142,211.775,214.573,218.622,221.031,226.043,229.898,234.7184,236.582,241.215,245.4792,247.354,250.051,254.683,258.538,263.355,266.728,269.137,274.15,278.4142,280.35,283.148,288.068" svgx:width="0.52,0.52,0.36,0.3,0.53,0.42,0.36,0.22,0.55,0.3,0.53,0.42,0.55,0.42,0.5,0.36,0.42,0.55,0.25,0.42,0.46,0.42,0.25,0.55,0.36,0.52,0.42,0.42,0.3,0.36,0.44,0.55,0.5,0.29,0.55,0.53,0.26,0.48,0.36,0.55,0.26,0.36,0.55,0.44,0.25,0.36,0.5,0.55,0.5,0.5,0.3,0.44,0.26,0.54,0.42,0.52,0.55,0.5,0.46,0.55,0.29,0.5,0.42,0.52,0.36,0.26,0.54,0.46,0.55,0.3,0.53,0.42" style="fill:rgb(0,0,0);font-family:AdvOT1ef757c0;font-size:9.27px;stroke:none;">Further, the core level spectra of Li1s is also obtained by focusing the</text>
   <text y="544.36" x="42.86,46.232,50.087,54.33,56.739,61.372,66.3778,68.655,72.51,77.142,80.515,83.888,87.742,91.114,95.932,100.565,105.578,110.396,112.805,117.817,122.0812,124.329,127.127,131.762,134.023,138.943,141.352,145.79,149.1272,151.428,154.8,157.209,161.453,166.465,170.514,172.8315,175.069,179.118,184.131,188.9514,191.227,196.045,199.418,203.272,206.644,210.499,215.511,218.309,222.164,226.9844,229.269,233.317,236.6542,238.963,241.372,246.384,249.757,253.611,256.392,258.692,261.101,266.1068,268.33,273.148,275.557,279.801,284.618,287.991" svgx:width="0.36,0.42,0.46,0.26,0.5,0.54,0.55,0.42,0.5,0.36,0.36,0.42,0.36,0.52,0.5,0.54,0.52,0.26,0.54,0.46,0.55,0.3,0.5,0.55,0.53,0.26,0.48,0.36,0.55,0.36,0.26,0.46,0.54,0.44,0.25,0.55,0.44,0.54,0.52,0.55,0.52,0.36,0.42,0.36,0.42,0.54,0.3,0.42,0.52,0.55,0.44,0.36,0.55,0.26,0.54,0.36,0.42,0.3,0.55,0.26,0.54,0.55,0.52,0.26,0.46,0.52,0.36,0.42" style="fill:rgb(0,0,0);font-family:AdvOT1ef757c0;font-size:9.27px;stroke:none;">region corresponding to Li1s signal and presented as inset in Figure</text>
   <text y="320.481" x="303.874,308.21,312.648,314.6874,316.743,322.432,327.352,331.24539999999996,333.297,337.152,341.784,345.157,348.53,352.384,355.756,360.574,365.207,370.22,375.038,377.447,382.459,386.7232,388.858,394.936,399.374,402.7112,404.845,408.894,413.906,418.7264,420.832,427.679,432.117,435.4542,437.557,441.411,446.044,449.417,453.31039999999996,455.358,457.675,461.529,465.773,469.627,471.943,475.2802,477.413,479.822,484.8278,486.937,489.254,491.663,494.461,499.381,501.79,505.839,508.637,512.491,517.3113999999999,519.422,524.24,529.058,532.431,537.249,542.067,545.439,547.848" svgx:width="0.47,0.48,0.22,0.55,0.61,0.53,0.42,0.55,0.42,0.5,0.36,0.36,0.42,0.36,0.52,0.5,0.54,0.52,0.26,0.54,0.46,0.55,0.66,0.48,0.36,0.55,0.44,0.54,0.52,0.55,0.74,0.48,0.36,0.55,0.42,0.5,0.36,0.42,0.55,0.25,0.42,0.46,0.42,0.25,0.36,0.55,0.26,0.54,0.55,0.25,0.26,0.3,0.53,0.26,0.44,0.3,0.42,0.52,0.55,0.52,0.52,0.36,0.52,0.52,0.36,0.26,0.54" style="fill:rgb(0,0,0);font-family:AdvOT1ef757c0;font-size:9.27px;stroke:none;">S5. The corresponding C1s and O1s core levels in lithiated purpurin</text>
   <text y="330.913" x="303.874,307.923,311.295,315.1884,317.65,321.023,325.943,330.575,336.848,341.85380000000004,344.353,346.762,351.7678,354.274,357.647,362.465,367.283,372.1,376.733,380.106,382.904,385.313,390.325,394.5892,397.078,399.487,404.499,407.196,411.828,415.201,422.724,426.773,429.571,431.98,436.613,441.6188,444.19,449.008,451.417,455.66,460.478,463.851,467.7444,470.213,474.549,478.987,481.0264,483.479,489.168,494.087,497.9804,500.487,505.407,507.816,512.254,515.5912000000001,518.119,521.973,526.606,529.978,533.8714,536.318,538.634,542.488,546.732,550.586" svgx:width="0.44,0.36,0.42,0.55,0.36,0.53,0.5,0.68,0.54,0.55,0.26,0.54,0.55,0.36,0.52,0.52,0.52,0.5,0.36,0.3,0.26,0.54,0.46,0.55,0.26,0.54,0.29,0.5,0.36,0.81,0.44,0.3,0.26,0.5,0.54,0.55,0.52,0.26,0.46,0.52,0.36,0.42,0.55,0.47,0.48,0.22,0.55,0.61,0.53,0.42,0.55,0.53,0.26,0.48,0.36,0.55,0.42,0.5,0.36,0.42,0.55,0.25,0.42,0.46,0.42,0.25" style="fill:rgb(0,0,0);font-family:AdvOT1ef757c0;font-size:9.27px;stroke:none;">are shown in supporting information Figure S6. The Li1s core level</text>
   <text y="341.401" x="303.874,307.246,312.064,315.918,319.773,322.571,325.944,330.0228,333.864,338.784,342.833,346.1702,350.022,354.655,358.509,362.364,367.3698,371.226,375.08,379.713,383.085,386.458,390.312,394.167,396.965,400.819,405.6394,409.494,412.191,416.823,420.1602,424.007,428.056,433.069,437.33320000000003,441.185,445.818,449.867,453.721,458.252,462.496,465.868,470.501,475.319,480.331,485.1514,489.035,492.408,494.817,499.06,504.073,508.122,510.438,513.7752,517.608,522.426,525.799,528.208,533.22,537.4842,541.363,544.161,549.081" svgx:width="0.36,0.52,0.42,0.42,0.3,0.36,0.44,0.55,0.53,0.44,0.36,0.55,0.5,0.42,0.42,0.54,0.55,0.42,0.5,0.36,0.36,0.42,0.42,0.3,0.42,0.52,0.55,0.29,0.5,0.36,0.55,0.44,0.54,0.46,0.55,0.5,0.44,0.42,0.49,0.46,0.36,0.5,0.52,0.54,0.52,0.55,0.36,0.26,0.46,0.54,0.44,0.25,0.36,0.55,0.52,0.36,0.26,0.54,0.46,0.55,0.3,0.53,0.42" style="fill:rgb(0,0,0);font-family:AdvOT1ef757c0;font-size:9.27px;stroke:none;">spectra has been corrected for any background signals using the</text>
   <text y="351.833" x="303.874,308.21,313.13,315.539,318.911,321.227,325.082,329.3462,332.447,336.496,338.812,343.056,347.688,351.061,353.47,356.268,361.188,368.69669999999996,371.848,376.666,380.039,382.448,387.081,390.4182,393.562,396.36,400.995,404.106,407.961,412.779,416.151,420.395,424.28839999999997,427.408,430.78,434.635,438.007,442.64,444.956,449.774,452.572,454.981,459.614,464.6198,467.774,471.823,476.835,481.6554,484.725,487.523,492.443,496.297,501.30280000000005,504.454,507.827,511.681,515.054,519.686,522.003,526.246,530.101,534.9214,538.073,540.482,545.495,548.293" svgx:width="0.47,0.53,0.26,0.36,0.25,0.42,0.46,0.55,0.44,0.25,0.46,0.5,0.36,0.26,0.3,0.53,0.81,0.55,0.52,0.36,0.26,0.5,0.36,0.55,0.3,0.5,0.55,0.42,0.52,0.36,0.46,0.42,0.55,0.36,0.42,0.36,0.5,0.25,0.52,0.3,0.26,0.5,0.54,0.55,0.44,0.54,0.52,0.55,0.3,0.53,0.42,0.54,0.55,0.36,0.42,0.36,0.5,0.25,0.46,0.42,0.52,0.55,0.26,0.54,0.3,0.5" style="fill:rgb(0,0,0);font-family:AdvOT1ef757c0;font-size:9.27px;stroke:none;">Shirley algorithm prior to curve resolution and then resolved into</text>
   <text y="362.321" x="303.874,306.672,312.944,317.579,320.144,323.999,328.631,336.155,340.973,345.605,350.618,354.472,359.485,362.283,365.6202,368.278,372.132,375.986,380.999,383.797,387.651,391.024,394.878,399.6984,402.293,406.342" svgx:width="0.3,0.68,0.5,0.55,0.42,0.5,0.81,0.52,0.5,0.54,0.42,0.54,0.3,0.36,0.55,0.42,0.42,0.54,0.3,0.42,0.36,0.42,0.52,0.55,0.44,0.3" style="fill:rgb(0,0,0);font-family:AdvOT1ef757c0;font-size:9.27px;stroke:none;">two components centered at</text>
   <text y="362.321" x="411.76" svgx:width="0.83" style="fill:rgb(0,0,0);font-family:AdvP7DB7;font-size:9.27px;stroke:none;">,</text>
   <text y="362.321" x="419.47,423.908,428.346,430.366,434.81559999999996,437.386,441.435,446.447,451.2674,453.883,458.322,462.7716,465.846,469.7,476.18899999999996,478.715,482.764,486.1012,488.75,492.122,497.042,501.675,507.947,512.9528,515.566,517.975,522.9808,525.544,527.953,532.966,536.338,540.192,542.973,545.614,550.246" svgx:width="0.48,0.48,0.22,0.48,0.55,0.44,0.54,0.52,0.55,0.48,0.48,0.55,0.42,0.7,0.55,0.44,0.36,0.55,0.36,0.53,0.5,0.68,0.54,0.55,0.26,0.54,0.55,0.26,0.54,0.36,0.42,0.3,0.55,0.5,0.29" style="fill:rgb(0,0,0);font-family:AdvOT1ef757c0;font-size:9.27px;stroke:none;">54.8 and 56 eV as shown in inset of</text>
   <text y="372.81" x="303.874,308.691,311.1,315.344,320.162,323.534,327.4274,329.329,333.665,338.103,340.1424,342.085,347.774,352.694,356.5874,358.47,360.787,365.419,371.692,375.546,378.8832,380.864,385.497,387.906,392.919,397.737,400.146,405.158,409.42220000000003,411.366,415.22,420.233,424.087,427.46,431.703,435.9672,437.899,441.753,446.386,453.909,458.727,463.36,468.372,472.227,477.239,480.02,482.006,485.861,489.715,494.728,497.526,501.38,504.753,508.607,513.4274,515.399,519.448,522.2289999999999,524.186,528.624,533.062,535.082,539.5316,542.611,546.465" svgx:width="0.52,0.26,0.46,0.52,0.36,0.42,0.55,0.47,0.48,0.22,0.55,0.61,0.53,0.42,0.55,0.25,0.5,0.68,0.42,0.36,0.55,0.5,0.26,0.54,0.52,0.26,0.54,0.46,0.55,0.42,0.54,0.42,0.36,0.46,0.46,0.55,0.42,0.5,0.81,0.52,0.5,0.54,0.42,0.54,0.3,0.55,0.42,0.42,0.54,0.3,0.42,0.36,0.42,0.52,0.55,0.44,0.3,0.55,0.48,0.48,0.22,0.48,0.55,0.42,0.7" style="fill:rgb(0,0,0);font-family:AdvOT1ef757c0;font-size:9.27px;stroke:none;">Figure S5. The lower binding energy component centered at 54.8 eV</text>
   <text y="383.241" x="303.874,307.728,312.361,317.373,320.069,322.478,325.851,333.374,336.7112,339.023,341.821,346.741,350.63439999999997,352.913,355.609,360.242,363.614,371.138,375.187,377.985,380.394,385.026,390.03180000000003,392.315,396.948,399.6363,401.897,406.622,413.469,418.389,420.7992,423.1,425.509,430.51480000000004,432.795,435.593,440.513,444.40639999999996,446.628,450.482,455.115,459.747,463.12,467.938,470.347,475.359,479.408,482.207,484.615,489.248,494.2538,496.632,500.486,505.119,512.642,517.46,522.093,526.911,531.923,536.7434,539.039,543.088,548.1" svgx:width="0.42,0.5,0.54,0.29,0.26,0.36,0.81,0.36,0.55,0.3,0.53,0.42,0.55,0.29,0.5,0.36,0.81,0.44,0.3,0.26,0.5,0.54,0.55,0.5,0.29,0.55,0.51,0.74,0.53,0.26,0.55,0.26,0.54,0.55,0.3,0.53,0.42,0.55,0.42,0.5,0.5,0.36,0.52,0.26,0.54,0.44,0.3,0.26,0.5,0.54,0.55,0.42,0.5,0.81,0.52,0.5,0.52,0.54,0.52,0.55,0.44,0.54,0.52" style="fill:rgb(0,0,0);font-family:AdvOT1ef757c0;font-size:9.27px;stroke:none;">confirms the formation of –OLi in the coordination compound and</text>
   <text y="393.73" x="303.874,306.672,311.592,315.48539999999997,317.027,321.946,324.355,328.599,333.519,337.373,340.7102,342.311,346.944,349.353,354.366,359.184,361.593,366.605,370.86920000000003,372.473,376.327,381.34,385.194,388.567,392.81,397.0742,398.665,402.519,407.152,414.675,419.493,424.126,429.138,432.993,438.005,440.786,442.432,446.287,450.141,455.154,457.952,461.806,465.179,469.033,473.8534,475.484,479.533,482.314,483.875,488.313,492.76259999999996,495.838,499.692,507.744,511.598,516.231,519.603,522.976,526.83,530.203,535.021,539.653,544.666,549.484" svgx:width="0.3,0.53,0.42,0.55,0.53,0.26,0.46,0.53,0.42,0.36,0.55,0.5,0.26,0.54,0.52,0.26,0.54,0.46,0.55,0.42,0.54,0.42,0.36,0.46,0.46,0.55,0.42,0.5,0.81,0.52,0.5,0.54,0.42,0.54,0.3,0.55,0.42,0.42,0.54,0.3,0.42,0.36,0.42,0.52,0.55,0.44,0.3,0.55,0.48,0.48,0.55,0.42,0.7,0.42,0.5,0.36,0.36,0.42,0.36,0.52,0.5,0.54,0.52,0.36" style="fill:rgb(0,0,0);font-family:AdvOT1ef757c0;font-size:9.27px;stroke:none;">the higher binding energy component centered at 56 eVcorresponds</text>
   <text y="404.162" x="303.874,306.672,311.307,314.078,316.395,318.804,321.602,326.522,328.931,333.749,341.2577,344.069,348.702,353.038,355.447,360.265,364.119,366.15840000000003,368.958,375.23,380.15,382.559,386.413,391.3261,394.13,401.653,405.702,409.9662,412.725,417.358,421.2514,424.007,428.825,433.643,437.53639999999996,440.278,443.076,447.711,450.54,454.589,459.5948,462.388,464.797,472.32,477.138,481.956,485.329,487.738,490.536,494.8002,497.594,499.911,503.765,506.461,509.242,512.051,514.46,519.4658000000001,522.256,525.054,529.974,533.8674000000001,536.599,541.417,546.235,549.608" svgx:width="0.3,0.5,0.55,0.25,0.26,0.3,0.53,0.26,0.52,0.81,0.55,0.5,0.47,0.26,0.52,0.42,0.22,0.55,0.68,0.53,0.26,0.42,0.53,0.55,0.81,0.44,0.46,0.55,0.5,0.42,0.55,0.52,0.52,0.42,0.55,0.3,0.5,0.55,0.44,0.54,0.55,0.26,0.81,0.52,0.52,0.36,0.26,0.3,0.46,0.55,0.25,0.42,0.29,0.3,0.55,0.26,0.54,0.55,0.3,0.53,0.42,0.55,0.52,0.52,0.36,0.35" style="fill:rgb(0,0,0);font-family:AdvOT1ef757c0;font-size:9.27px;stroke:none;">to lithium oxide, which may be due to an impurity left in the pur-</text>
   <text y="414.65" x="303.874,308.691,313.509,316.882,319.291,324.2968,326.721,330.093,334.142,341.666,346.484,348.8,352.654" svgx:width="0.52,0.52,0.36,0.26,0.54,0.55,0.36,0.44,0.81,0.52,0.25,0.42,0.22" style="fill:rgb(0,0,0);font-family:AdvOT1ef757c0;font-size:9.27px;stroke:none;">purin sample.</text>
   <text y="439.483" x="303.874,310.972,313.727,318.553,323.087,329.296,334.123,338.95,341.704,347.913" svgx:width="0.75,0.29,0.51,0.48,0.66,0.51,0.51,0.29,0.66,0.66" style="fill:rgb(0,0,0);font-family:AdvOTf32ed098.B;font-size:9.46px;stroke:none;">Discussion</text>
   <text y="450.312" x="303.874,312.843,316.7364,319.578,324.498,328.546,332.79,336.6834,339.591,343.445,347.781,352.599,354.915,359.548,362.921,366.775,371.5954,374.514,378.369,383.289,387.143,394.666,397.075,400.93,404.979,407.2965,410.231,414.28,419.293,424.1134,427.069,430.923,433.24,437.094,440.949,443.747,447.119,451.752,455.606,460.526,464.38,471.904,474.313,478.167,482.216,484.5335,487.505,490.877,494.732,498.975,502.83,506.202,509.575,511.984,516.616,518.933,522.8264,525.717,528.033,530.442,533.24,538.16,540.569,545.387" svgx:width="0.97,0.42,0.55,0.53,0.44,0.46,0.42,0.55,0.42,0.47,0.52,0.25,0.5,0.36,0.42,0.52,0.55,0.42,0.53,0.42,0.81,0.26,0.42,0.44,0.25,0.55,0.44,0.54,0.52,0.55,0.42,0.25,0.42,0.42,0.3,0.36,0.5,0.42,0.53,0.42,0.81,0.26,0.42,0.44,0.25,0.55,0.36,0.42,0.46,0.42,0.36,0.36,0.26,0.5,0.25,0.42,0.55,0.25,0.26,0.3,0.53,0.26,0.52,0.81" style="fill:rgb(0,0,0);font-family:AdvOT1ef757c0;font-size:9.27px;stroke:none;">We have explored chemical and electrochemical reversible lithium</text>
   <text y="460.8" x="303.874,306.283,310.916,315.9218,318.217,323.035,326.408,331.041,335.859,339.713,343.086,345.884,348.293,352.147,355.4842,357.904,361.953,366.965,371.7854,374.118,378.936,383.948,388.766,392.621,395.993,399.366,402.164,406.797,411.429,416.2494,418.623,421.421,426.341,430.2344,432.512,435.885,439.739,443.788,447.643,450.441,452.85,457.482,462.48780000000005,464.828,472.351,476.206,480.06,484.98,489.029,494.042,496.45,499.823,507.33169999999996,509.673,512.082,517.0878,519.424,524.242,529.06,532.432,537.25,542.068,545.441,547.85" svgx:width="0.26,0.5,0.54,0.55,0.52,0.36,0.5,0.52,0.42,0.36,0.3,0.26,0.42,0.36,0.55,0.44,0.54,0.52,0.55,0.52,0.54,0.52,0.42,0.36,0.36,0.3,0.5,0.5,0.52,0.55,0.3,0.53,0.42,0.55,0.36,0.42,0.44,0.42,0.3,0.26,0.5,0.54,0.55,0.81,0.42,0.42,0.53,0.44,0.54,0.26,0.36,0.81,0.55,0.26,0.54,0.55,0.52,0.52,0.36,0.52,0.52,0.36,0.26,0.54" style="fill:rgb(0,0,0);font-family:AdvOT1ef757c0;font-size:9.27px;stroke:none;">ion properties and understood the reaction mechanism in purpurin</text>
   <text y="471.232" x="303.874,311.397,316.03,318.346,322.201,326.055,330.873,333.189,337.044,339.0834,344.184,349.872,353.727,357.97,361.825,365.197,368.57,370.979,375.611,377.928,381.8214,386.873,389.19,391.599,394.397,399.317,401.726,405.775,408.573,410.982,415.614,420.627,423.61,428.428,432.283,435.563,437.879,440.288,443.086,448.006,450.541,454.59,457.388,459.797,464.429,469.4348,474.522,479.34,482.713,487.345,491.2,495.054,498.427,501.7642,506.894,509.303,514.3088,519.424,524.242,529.06,532.432,537.25,542.068,545.44,547.849" svgx:width="0.81,0.5,0.25,0.42,0.42,0.52,0.25,0.42,0.22,0.55,0.61,0.42,0.46,0.42,0.36,0.36,0.26,0.5,0.25,0.42,0.55,0.25,0.26,0.3,0.53,0.26,0.44,0.3,0.26,0.5,0.54,0.32,0.52,0.42,0.35,0.25,0.26,0.3,0.53,0.26,0.44,0.3,0.26,0.5,0.54,0.55,0.52,0.36,0.5,0.42,0.42,0.36,0.36,0.55,0.26,0.54,0.55,0.52,0.52,0.36,0.52,0.52,0.36,0.26,0.54" style="fill:rgb(0,0,0);font-family:AdvOT1ef757c0;font-size:9.27px;stroke:none;">molecule. Reversible lithiation/de-lithiation process in purpurin</text>
   <text y="481.72" x="303.874,307.728,310.045,313.899,317.753,320.551,323.924,328.557,333.375,337.2684,342.879,345.288,348.6252,354.331,358.964,363.596,366.969,370.823,374.196,378.439,382.294,387.1144,392.769,395.465,398.838,403.47,410.9787,416.637,420.492,422.808,426.662,430.517,433.315,436.687,441.32,445.174,450.094,453.949,461.472,463.881,467.735,471.784,474.1015,479.794,483.167,485.965,490.783,495.601,498.01,501.864,505.2012,510.919,514.097,518.915,521.324,525.568,530.385,533.758,537.6514000000001,543.291,547.729,550.907" svgx:width="0.42,0.25,0.42,0.42,0.3,0.36,0.5,0.52,0.42,0.55,0.26,0.36,0.55,0.5,0.5,0.36,0.42,0.36,0.46,0.42,0.52,0.55,0.29,0.36,0.5,0.81,0.55,0.42,0.25,0.42,0.42,0.3,0.36,0.5,0.42,0.53,0.42,0.81,0.26,0.42,0.44,0.25,0.55,0.36,0.3,0.52,0.52,0.26,0.42,0.36,0.55,0.34,0.52,0.26,0.46,0.52,0.36,0.42,0.55,0.48,0.34,0.22" style="fill:rgb(0,0,0);font-family:AdvOT1ef757c0;font-size:9.27px;stroke:none;">electrode is observed from electrochemical studies (Figure 1).</text>
   <text y="492.152" x="303.874,310.721,315.354,318.726,322.581,325.953,330.197,334.051,338.8714,342.142,346.191,351.204,355.837,360.654,363.063,366.9564,370.149,374.967,378.821,382.87,387.4123,390.615,394.664,397.445,400.707,405.15659999999997,408.247,414.736,417.941,421.99,427.002,431.8224,435.062,438.917,442.966,445.764,450.684,455.316,460.134,462.543,466.4364,469.645,474.463,478.317,482.366,486.897" svgx:width="0.74,0.5,0.36,0.42,0.36,0.46,0.42,0.52,0.55,0.44,0.54,0.5,0.52,0.26,0.42,0.55,0.52,0.42,0.44,0.49,0.55,0.44,0.3,0.55,0.48,0.55,0.7,0.55,0.44,0.54,0.52,0.55,0.42,0.44,0.3,0.53,0.5,0.52,0.26,0.42,0.55,0.52,0.42,0.44,0.49,0.36" style="fill:rgb(0,0,0);font-family:AdvOT1ef757c0;font-size:9.27px;stroke:none;">Observed anodic peak at 2 V and cathodic peaks</text>
   <text y="492.152" x="493.511" svgx:width="0.83" style="fill:rgb(0,0,0);font-family:AdvP7DB7;font-size:9.27px;stroke:none;">,</text>
   <text y="492.152" x="501.222,505.66,507.68,512.1296,515.339,519.388,524.4,529.2203999999999,532.46,536.898,538.918,543.3676,546.464" svgx:width="0.48,0.22,0.48,0.55,0.44,0.54,0.52,0.55,0.48,0.22,0.48,0.55,0.7" style="fill:rgb(0,0,0);font-family:AdvOT1ef757c0;font-size:9.27px;stroke:none;">2.6 and 3.2 V</text>
   <text y="502.64" x="303.875,306.571,309.944,314.576,322.0847,326.382,330.236,334.48,338.334,340.651,343.06,346.9534,351.157,355.401,360.034,362.35,365.148,369.197,376.72,384.244,388.098,390.896,394.269,398.5332,402.805,406.178,408.976,413.794,418.612,421.021,424.875,428.2122,432.569,436.618,439.99,443.8834,448.103,451.957,454.274,458.128,462.177,465.5142,469.816,473.671,477.914,480.323,485.141,488.996,494.008,497.862,501.7554,505.987,510.62,513.3083,517.61,520.982,524.836,529.08,532.934,536.307,539.68,542.089,546.721,549.037" svgx:width="0.29,0.36,0.5,0.81,0.55,0.42,0.46,0.42,0.25,0.26,0.42,0.55,0.46,0.5,0.25,0.3,0.44,0.81,0.81,0.42,0.3,0.36,0.46,0.55,0.36,0.3,0.52,0.52,0.26,0.42,0.36,0.55,0.44,0.36,0.42,0.55,0.42,0.25,0.42,0.44,0.36,0.55,0.42,0.46,0.26,0.52,0.42,0.54,0.42,0.42,0.55,0.5,0.29,0.55,0.36,0.42,0.46,0.42,0.36,0.36,0.26,0.5,0.25,0.42" style="fill:rgb(0,0,0);font-family:AdvOT1ef757c0;font-size:9.27px;stroke:none;">from cyclic voltammetry studies are clear evidence of reversible</text>
   <text y="513.072" x="303.875,306.191,308.6,311.398,316.318,318.727,322.776,325.574,327.983,332.616,337.628,340.612,345.43,349.284,352.564,354.88,357.289,360.087,365.007,367.416,371.465,374.263,376.672,381.305,386.31080000000003,388.405,393.223,396.595,401.228,405.082,408.937,412.309,415.6462,417.716,420.125,425.1308,427.184,432.002,436.82,440.192,445.01,449.828,453.201,455.61,460.61580000000004,462.674,470.197,474.83,477.146,481.0,484.855,489.673,491.989,495.843,497.8824,499.921,504.257,506.666,514.19,516.599,518.915,522.964,526.3012000000001,528.438,534.998,539.047,541.363,545.607,549.655" svgx:width="0.25,0.26,0.3,0.53,0.26,0.44,0.3,0.26,0.5,0.54,0.32,0.52,0.42,0.35,0.25,0.26,0.3,0.53,0.26,0.44,0.3,0.26,0.5,0.54,0.55,0.52,0.36,0.5,0.42,0.42,0.36,0.36,0.55,0.26,0.54,0.55,0.52,0.52,0.36,0.52,0.52,0.36,0.26,0.54,0.55,0.81,0.5,0.25,0.42,0.42,0.52,0.25,0.42,0.22,0.55,0.47,0.26,0.81,0.26,0.25,0.44,0.36,0.55,0.71,0.44,0.25,0.46,0.44,0.35" style="fill:rgb(0,0,0);font-family:AdvOT1ef757c0;font-size:9.27px;stroke:none;">lithiation/de-lithiation process in purpurin molecule. Similar Galva-</text>
   <text y="523.56" x="303.875,308.887,313.52,316.893,319.691,323.74,326.538,328.947,332.8404,334.829,338.684,343.603,347.652,351.025,355.268,359.123,362.106,366.924,369.333,372.706,376.56,381.48,385.529,388.902,393.145,397.03839999999997,399.12,403.753,407.607,412.527,416.576,420.82,423.229,427.861,431.1982,433.25,437.883,442.515,445.888,449.742,453.115,457.358,461.213,466.03340000000003,468.06,470.469,475.4748,477.527,482.345,487.163,490.535,495.353,500.171,503.544,505.953,510.9588,513.017,517.066,522.078,526.8983999999999,528.891,534.969,539.889,545.0802,547.146,549.555" svgx:width="0.54,0.5,0.36,0.3,0.44,0.3,0.26,0.42,0.55,0.42,0.53,0.44,0.36,0.46,0.42,0.32,0.52,0.26,0.36,0.42,0.53,0.44,0.36,0.46,0.42,0.55,0.5,0.42,0.53,0.44,0.46,0.26,0.5,0.36,0.55,0.5,0.5,0.36,0.42,0.36,0.46,0.42,0.52,0.55,0.26,0.54,0.55,0.52,0.52,0.36,0.52,0.52,0.36,0.26,0.54,0.55,0.44,0.54,0.52,0.55,0.66,0.53,0.56,0.55,0.26,0.36" style="fill:rgb(0,0,0);font-family:AdvOT1ef757c0;font-size:9.27px;stroke:none;">nostatic charge/discharge behavior observed in purpurin and CLP is</text>
   <text y="533.992" x="303.875,307.9538,309.997,313.852,316.168,320.022,324.071,327.4082,329.613,332.022,337.034,341.852,344.261,348.116,352.165,354.963,357.372,362.004,367.00980000000004,369.129,371.927,376.847,380.895,383.676,385.797,391.875,396.795,401.9862,404.109,407.963,412.012,417.0178,419.189,423.238,425.554,430.187,435.199,439.0924,441.129,444.502,447.3,451.349,456.361,461.1814,463.353,467.402,470.7392,472.878,476.732,480.781,483.579,488.499,493.132,497.95,501.8434,503.889,511.412,515.461,518.259,522.114,525.486,527.895,531.944,534.26,536.2994,538.472,544.161,549.081" svgx:width="0.44,0.55,0.42,0.25,0.42,0.44,0.36,0.55,0.26,0.54,0.52,0.26,0.42,0.44,0.3,0.26,0.5,0.54,0.55,0.3,0.53,0.44,0.3,0.55,0.66,0.53,0.56,0.55,0.42,0.44,0.54,0.55,0.44,0.25,0.5,0.54,0.42,0.55,0.36,0.3,0.44,0.54,0.52,0.55,0.44,0.36,0.55,0.42,0.44,0.3,0.53,0.5,0.52,0.42,0.55,0.81,0.44,0.3,0.42,0.36,0.26,0.44,0.25,0.22,0.55,0.61,0.53,0.42" style="fill:rgb(0,0,0);font-family:AdvOT1ef757c0;font-size:9.27px;stroke:none;">a clear indication that CLP can alone stand as cathode material. The</text>
   <text y="544.48" x="303.875,307.247,311.102,315.345,319.2,322.572,325.945,328.354,332.986,335.303,339.1964,341.746,345.6,349.649,354.467,358.516,362.37,364.779,367.577,371.8412,374.458,379.091,381.77930000000003,384.379,388.817,393.2666,396.342,403.865,410.23,415.15,418.134,422.39820000000003,425.029,429.661,434.294,437.092,441.141,443.55,448.563,452.417,457.2374,459.839,463.888,466.584,469.382,473.236,476.5732,479.228,483.666,488.1156,490.68,494.534,499.454,503.503,506.876,511.119,514.974,517.957,522.775,525.184,528.556,532.411,537.331,541.38,544.752,548.996" svgx:width="0.36,0.42,0.46,0.42,0.36,0.36,0.26,0.5,0.25,0.42,0.55,0.42,0.44,0.52,0.44,0.42,0.26,0.3,0.46,0.55,0.5,0.29,0.55,0.48,0.48,0.55,0.81,0.69,0.53,0.32,0.46,0.55,0.5,0.5,0.3,0.44,0.26,0.54,0.42,0.52,0.55,0.44,0.29,0.3,0.42,0.36,0.55,0.48,0.48,0.55,0.42,0.53,0.44,0.36,0.46,0.42,0.32,0.52,0.26,0.36,0.42,0.53,0.44,0.36,0.46,0.42" style="fill:rgb(0,0,0);font-family:AdvOT1ef757c0;font-size:9.27px;stroke:none;">reversible capacity of 90 mAh/g obtained after 50 charge/discharge</text>
  </g>
  <rect style="fill:pink;opacity:0.2;stroke:blue;stroke-width:0.3;" x="-0.113" y="17.524" height="36.964" width="595.446" title="4"/>
  <text y="17.524" class="image" id="image.4.1" width="595" height="36" x="-0.113" style="font-size:5.0px;">image.4.1.0_595.18_54</text>
  <rect style="fill:pink;opacity:0.2;stroke:blue;stroke-width:0.3;" x="147.572" y="69.455" height="199.276" width="300.586" title="4"/>
  <text y="69.455" class="image" id="image.4.2" width="300" height="199" x="147.572" style="font-size:5.0px;">image.4.2.148_448.69_269</text>
  <g begin="text">
   <text y="265.55" x="42.86,47.441,49.821,53.877,58.458,61.718,65.3601,68.144" svgx:width="0.54,0.28,0.48,0.54,0.38,0.43,0.55,0.49" style="fill:rgb(0,0,0);font-family:AdvOT5e4d79fc;font-size:8.47px;stroke:none;">Figure 4</text>
   <text y="265.55" x="74.721" svgx:width="0.26" style="fill:rgb(0,0,0);font-family:AdvOT5e4d79fc;font-size:8.97px;stroke:none;">|</text>
   <text y="265.55" x="78.179,83.472,88.053,91.6951,93.146,96.762,100.725,105.222,109.007,113.682,118.178,121.794" svgx:width="0.63,0.54,0.43,0.55,0.43,0.47,0.53,0.45,0.55,0.53,0.43,0.53" style="fill:rgb(0,0,0);font-family:AdvOT5e4d79fc;font-size:8.47px;stroke:none;">The expanded</text>
   <text y="262.432" x="127.786,130.363" svgx:width="0.49,0.49" style="fill:rgb(0,0,0);font-family:AdvOT5e4d79fc;font-size:4.69px;stroke:none;">13</text>
   <text y="265.55" x="132.888,140.031,146.382,151.226,156.163,161.456,164.36,168.501,172.642,176.79229999999998,178.297,184.555,192.05,198.989,202.165,206.661,210.277,213.8,216.527,219.787,224.368,232.89,236.15,239.766,243.289,247.608,250.868,255.365,258.981,263.4701,264.977,267.356,272.0145,273.481,279.832,287.326,291.467,297.818,300.756" svgx:width="0.67,0.75,0.57,0.58,0.63,0.34,0.49,0.49,0.49,0.55,0.74,0.88,0.64,0.38,0.53,0.43,0.42,0.32,0.38,0.54,0.83,0.38,0.43,0.42,0.51,0.38,0.53,0.43,0.53,0.55,0.28,0.55,0.55,0.75,0.88,0.49,0.75,0.34,0.53" style="fill:rgb(0,0,0);font-family:AdvOT5e4d79fc;font-size:8.47px;stroke:none;">CDEPT-135 NMRspectrumrecorded in DMSO-d</text>
   <text y="266.967" x="305.291" svgx:width="0.49" style="fill:rgb(0,0,0);font-family:AdvOT5e4d79fc;font-size:5.64px;stroke:none;">6</text>
   <text y="265.55" x="309.827,313.612,316.3224,317.82,321.961,326.102,330.2523,333.126,340.62,347.141,350.78310000000005,352.231,356.016,358.7264,360.224,364.365" svgx:width="0.45,0.32,0.55,0.49,0.49,0.49,0.55,0.88,0.77,0.43,0.55,0.45,0.32,0.55,0.49,0.49" style="fill:rgb(0,0,0);font-family:AdvOT5e4d79fc;font-size:8.47px;stroke:none;">at 125 MHz at 25</text>
   <text y="265.55" x="368.504" svgx:width="0.45" style="fill:rgb(0,0,0);font-family:AdvP4072C;font-size:9.31px;stroke:none;">6</text>
   <text y="265.55" x="372.699,378.339" svgx:width="0.67,0.24" style="fill:rgb(0,0,0);font-family:AdvOT5e4d79fc;font-size:8.47px;stroke:none;">C.</text>
   <text y="265.55" x="383.3,386.476,390.177,393.3956,394.809,399.568,402.65,404.937,407.934,410.577,412.863,417.444,421.0014,422.473,426.97,431.551,434.634,439.13,443.712,446.794,449.081,453.662,455.6948,457.168,460.343,464.662,467.88059999999996,469.356,474.03,478.527,483.286,486.369,490.425,492.4578,493.903,497.078,500.601,503.8196,505.241,509.915,514.412,519.171,522.253,526.3186000000001,527.803,531.504,536.085,540.5741,542.089,545.265,549.762" svgx:width="0.38,0.44,0.38,0.55,0.56,0.36,0.27,0.35,0.31,0.27,0.54,0.42,0.55,0.53,0.54,0.36,0.53,0.54,0.36,0.27,0.54,0.24,0.55,0.38,0.51,0.38,0.55,0.55,0.53,0.56,0.36,0.48,0.24,0.55,0.38,0.42,0.38,0.55,0.55,0.53,0.56,0.36,0.48,0.55,0.44,0.54,0.53,0.55,0.38,0.53,0.38" style="fill:rgb(0,0,0);font-family:AdvP7627;font-size:8.47px;stroke:none;">(a) Pristine purpurin; (b) ELP-1; (c) ELP-2 and (d)</text>
   <text y="275.981" x="42.86,48.415,52.912,57.6552,59.868,63.043" svgx:width="0.66,0.53,0.56,0.55,0.38,0.48" style="fill:rgb(0,0,0);font-family:AdvP7627;font-size:8.47px;stroke:none;">CLP (1</text>
   <text y="275.981" x="67.125" svgx:width="0.55" style="fill:rgb(0,0,0);font-family:AdvP3F0CD3;font-size:8.47px;stroke:none;">5</text>
   <text y="275.981" x="71.774,75.8396,78.01,81.092,84.793,87.435,89.721,94.125,97.301,99.3338,101.593,104.413,108.9868,111.174,117.347,122.022,126.781,131.863,134.134,138.19,142.246,146.303" svgx:width="0.48,0.55,0.36,0.44,0.31,0.27,0.52,0.38,0.24,0.55,0.33,0.54,0.55,0.73,0.55,0.56,0.6,0.55,0.48,0.48,0.48,0.24" style="fill:rgb(0,0,0);font-family:AdvP7627;font-size:8.47px;stroke:none;">2 ratio). In DEPT 135,</text>
   <text y="272.863" x="150.52,153.045" svgx:width="0.48,0.48" style="fill:rgb(0,0,0);font-family:AdvP7627;font-size:4.69px;stroke:none;">13</text>
   <text y="275.981" x="155.565,161.1552,163.332,166.33,168.617,172.495,177.076,180.777,182.894,185.8585,188.106,191.807,194.889,197.176,200.173,202.46,207.041,210.9372,213.163,217.66,222.241,225.79840000000002,227.96,230.602,235.0064,237.257,244.218,247.741,250.383,254.879,258.665,260.7825,262.995,266.17,270.404,275.959" svgx:width="0.66,0.55,0.35,0.27,0.46,0.54,0.44,0.25,0.35,0.55,0.44,0.36,0.27,0.35,0.27,0.54,0.46,0.55,0.53,0.54,0.42,0.55,0.31,0.52,0.55,0.82,0.42,0.31,0.53,0.45,0.25,0.55,0.38,0.5,0.66,0.77" style="fill:rgb(0,0,0);font-family:AdvP7627;font-size:8.47px;stroke:none;">C signals arising due to methyl (–CH</text>
   <text y="277.398" x="282.501" svgx:width="0.48" style="fill:rgb(0,0,0);font-family:AdvP7627;font-size:5.64px;stroke:none;">3</text>
   <text y="275.981" x="285.505,288.7236,290.891,296.82,298.999,305.959,309.482,312.124,316.621,318.907,323.489,327.04639999999995,329.272,332.447,336.681,342.236,348.757,351.9756,354.159,357.859,362.356,366.853,370.375,374.076,377.1252,379.386,383.883,388.286,391.284,393.571,396.213,398.499,402.378,405.9,407.9328,410.169,417.13,420.653,423.295,427.791,431.577,433.694,437.217,441.798,445.3554,447.585,451.286,454.2505,456.486,461.067,464.59,468.468,472.169,474.811,477.098,480.976,484.5334,486.702,489.878,494.112,499.667" svgx:width="0.38,0.55,0.7,0.55,0.82,0.42,0.31,0.53,0.27,0.54,0.42,0.55,0.38,0.5,0.66,0.77,0.38,0.55,0.44,0.53,0.53,0.42,0.44,0.36,0.55,0.53,0.52,0.35,0.27,0.31,0.27,0.46,0.42,0.24,0.55,0.82,0.42,0.31,0.53,0.45,0.25,0.42,0.54,0.42,0.55,0.44,0.35,0.55,0.54,0.42,0.46,0.44,0.31,0.27,0.46,0.42,0.55,0.38,0.5,0.66,0.77" style="fill:rgb(0,0,0);font-family:AdvP7627;font-size:8.47px;stroke:none;">) &amp; methine (–CH) appear positive, methylene as negative (–CH</text>
   <text y="277.398" x="506.211" svgx:width="0.48" style="fill:rgb(0,0,0);font-family:AdvP7627;font-size:5.64px;stroke:none;">2</text>
   <text y="275.981" x="509.272,512.4906,514.658,520.391,524.888,528.41,531.493,535.016,538.716,541.6805,543.911,548.492" svgx:width="0.38,0.55,0.68,0.53,0.42,0.36,0.42,0.44,0.35,0.55,0.54,0.52" style="fill:rgb(0,0,0);font-family:AdvP7627;font-size:8.47px;stroke:none;">) whereas no</text>
   <text y="286.469" x="42.861,47.18,51.761,55.461,58.104,61.626,64.709,69.29,72.991,76.073,79.88449999999999,82.091,85.613,89.314,92.396,96.715,101.119,105.7,108.6645,110.946,113.944,118.44,122.844,128.6036,130.788,135.369,139.866,141.89880000000002,144.11,149.225,153.721,157.2784,159.473,163.97,167.052,171.456,175.334,178.416,181.939,184.937,187.9015,190.142,194.546,197.0023,199.213,201.33,203.616,206.258,210.755,213.041,216.742,219.384,221.67,226.074,230.64780000000002,232.943,236.644,241.225,245.7141,247.91,250.196,252.838,255.80249999999998,258.057,261.58,265.983,269.066,272.148,275.671,278.669,283.165,287.569,292.15,296.647,298.933,303.514,307.41020000000003,309.645,313.168,316.869,319.951,324.27,328.674,333.2478,335.496,339.019,343.516,347.039,353.999,356.286,359.809,363.509,365.6265,367.867,370.865,375.361,377.648,380.112,382.754,385.7185,387.992,393.725,397.248,400.331,403.8884,406.077,409.6,413.563,417.264,424.224,426.511,431.092,434.615,439.111,441.1438,443.379,448.494,452.991,456.54839999999996,458.742,461.029,465.61,468.608,472.131,474.75669999999997,476.996,479.994,484.491,488.894,494.627,497.5915,499.843,502.485,506.982,510.5394,512.712,519.673,524.076,526.193,529.716,533.239,537.82,539.937,543.638" svgx:width="0.51,0.54,0.44,0.31,0.42,0.36,0.54,0.44,0.36,0.45,0.55,0.42,0.44,0.36,0.51,0.52,0.54,0.35,0.55,0.35,0.53,0.52,0.68,0.55,0.54,0.53,0.24,0.55,0.6,0.53,0.42,0.55,0.53,0.36,0.52,0.46,0.36,0.42,0.35,0.35,0.55,0.52,0.29,0.55,0.25,0.27,0.31,0.53,0.27,0.44,0.31,0.27,0.52,0.54,0.55,0.44,0.54,0.53,0.55,0.27,0.31,0.35,0.55,0.42,0.52,0.36,0.36,0.42,0.35,0.53,0.52,0.54,0.53,0.27,0.54,0.46,0.55,0.42,0.44,0.36,0.51,0.52,0.54,0.55,0.42,0.53,0.42,0.82,0.27,0.42,0.44,0.25,0.55,0.35,0.53,0.27,0.29,0.31,0.35,0.55,0.68,0.42,0.36,0.42,0.55,0.42,0.47,0.44,0.82,0.27,0.54,0.42,0.53,0.24,0.55,0.6,0.53,0.42,0.55,0.27,0.54,0.35,0.42,0.31,0.55,0.35,0.53,0.52,0.68,0.35,0.55,0.31,0.53,0.42,0.55,0.82,0.52,0.25,0.42,0.42,0.54,0.25,0.44,0.36" style="fill:rgb(0,0,0);font-family:AdvP7627;font-size:8.47px;stroke:none;">quaternary carbons show up. The progress of lithiation and its corresponding carbon chemical shifts were examined. The inset shows the molecular</text>
   <text y="296.9" x="42.861,45.859,48.501,51.583,56.164,59.687,62.329,66.91,69.993,73.5504,75.741,80.145,82.6013,84.811,89.308,93.889,96.972,101.468,106.05,109.132,111.419,115.9928,118.259,123.992,126.279,128.921,133.4101,135.606,139.129,142.83,145.912,150.231,154.634,159.2078,161.457,163.574,167.275,171.594,175.116,177.233,179.52,184.101,187.9972,190.256,193.956,196.92049999999998,199.157" svgx:width="0.35,0.31,0.36,0.54,0.42,0.31,0.54,0.36,0.42,0.55,0.52,0.29,0.55,0.53,0.54,0.36,0.53,0.54,0.36,0.27,0.54,0.55,0.68,0.27,0.31,0.53,0.55,0.42,0.44,0.36,0.51,0.52,0.54,0.55,0.25,0.44,0.51,0.42,0.25,0.27,0.54,0.46,0.55,0.44,0.35,0.55,0.66" style="fill:rgb(0,0,0);font-family:AdvP7627;font-size:8.47px;stroke:none;">structure of purpurin with carbon labeling as C</text>
   <text y="298.318" x="204.718" svgx:width="0.44" style="fill:rgb(0,0,0);font-family:AdvP7627;font-size:5.64px;stroke:none;">a</text>
   <text y="296.901" x="207.496,211.73" svgx:width="0.5,0.66" style="fill:rgb(0,0,0);font-family:AdvP7627;font-size:8.47px;stroke:none;">–C</text>
   <text y="298.318" x="217.304" svgx:width="0.53" style="fill:rgb(0,0,0);font-family:AdvP7627;font-size:5.64px;stroke:none;">d</text>
   <text y="296.901" x="222.86,225.942,229.465,232.463,236.959,240.482,244.005,246.647,248.933,252.812,256.335,258.452,262.237" svgx:width="0.36,0.42,0.35,0.53,0.42,0.42,0.31,0.27,0.46,0.42,0.25,0.45,0.24" style="fill:rgb(0,0,0);font-family:AdvP7627;font-size:8.47px;stroke:none;">respectively.</text>
  </g>
  <rect style="fill:pink;opacity:0.2;stroke:blue;stroke-width:0.3;" x="132.945" y="576.517" height="137.537" width="329.839" title="4"/>
  <text y="576.517" class="image" id="image.4.3" width="329" height="137" x="132.945" style="font-size:5.0px;">image.4.3.133_463.577_714</text>
  <g begin="text">
   <text y="710.929" x="42.86,47.441,49.821,53.877,58.458,61.718,65.3601,68.144" svgx:width="0.54,0.28,0.48,0.54,0.38,0.43,0.55,0.49" style="fill:rgb(0,0,0);font-family:AdvOT5e4d79fc;font-size:8.47px;stroke:none;">Figure 5</text>
   <text y="710.929" x="74.721" svgx:width="0.26" style="fill:rgb(0,0,0);font-family:AdvOT5e4d79fc;font-size:8.97px;stroke:none;">|</text>
   <text y="710.929" x="78.576,81.752,85.453,88.6716,90.821,96.995,102.635,105.361,109.24,111.526,114.4905,116.786,120.486,124.805,127.803,132.206,135.289,139.785,142.427,144.714,149.117,153.6908,155.959,158.601,160.887,163.529,166.612,170.312,172.954,175.241,179.644,184.2178,186.459,189.981,194.563,197.645,201.524,205.046,208.01049999999998,210.269,214.672,217.1283,219.339,223.836,228.417,231.499,235.996,240.577,243.66,245.946,250.5198,252.787,255.962" svgx:width="0.38,0.44,0.38,0.55,0.73,0.67,0.32,0.46,0.27,0.35,0.55,0.44,0.51,0.35,0.52,0.36,0.53,0.31,0.27,0.52,0.54,0.55,0.31,0.27,0.31,0.36,0.44,0.31,0.27,0.52,0.54,0.55,0.42,0.54,0.36,0.46,0.42,0.35,0.55,0.52,0.29,0.55,0.53,0.54,0.36,0.53,0.54,0.36,0.27,0.54,0.55,0.38,0.48" style="fill:rgb(0,0,0);font-family:AdvP7627;font-size:8.47px;stroke:none;">(a) UV/vis absorption titration curves of purpurin (1</text>
   <text y="710.929" x="260.05" svgx:width="0.83" style="fill:rgb(0,0,0);font-family:AdvP414BFB;font-size:8.47px;stroke:none;">3</text>
   <text y="710.929" x="267.136,271.192" svgx:width="0.48,0.48" style="fill:rgb(0,0,0);font-family:AdvP7627;font-size:8.47px;stroke:none;">10</text>
   <text y="707.811" x="275.244" svgx:width="0.83" style="fill:rgb(0,0,0);font-family:AdvP414BFB;font-size:4.69px;stroke:none;">2</text>
   <text y="707.811" x="279.609" svgx:width="0.48" style="fill:rgb(0,0,0);font-family:AdvP7627;font-size:4.69px;stroke:none;">4</text>
   <text y="710.929" x="284.939,292.518,295.73659999999995,297.921,303.654,305.94,308.583,313.07210000000003,315.268,318.969,323.465,327.962,330.248,332.891,335.177,339.58,344.1538,346.448,350.852,353.3083,355.518,360.015,362.301,368.653,374.115,377.6724,379.839,383.015" svgx:width="0.89,0.38,0.55,0.68,0.27,0.31,0.53,0.55,0.44,0.53,0.53,0.27,0.31,0.27,0.52,0.54,0.55,0.52,0.29,0.55,0.53,0.27,0.75,0.64,0.42,0.55,0.38,0.48" style="fill:rgb(0,0,0);font-family:AdvP7627;font-size:8.47px;stroke:none;">M) with addition of LiOAc (1</text>
   <text y="710.929" x="387.099" svgx:width="0.83" style="fill:rgb(0,0,0);font-family:AdvP414BFB;font-size:8.47px;stroke:none;">3</text>
   <text y="710.929" x="394.185,398.241" svgx:width="0.48,0.48" style="fill:rgb(0,0,0);font-family:AdvP7627;font-size:8.47px;stroke:none;">10</text>
   <text y="707.811" x="402.293" svgx:width="0.83" style="fill:rgb(0,0,0);font-family:AdvP414BFB;font-size:4.69px;stroke:none;">2</text>
   <text y="707.811" x="406.658" svgx:width="0.48" style="fill:rgb(0,0,0);font-family:AdvP7627;font-size:4.69px;stroke:none;">4</text>
   <text y="710.929" x="411.987,419.566,422.78459999999995,424.97,427.256,431.8298,434.041,441.002,444.525,447.167,451.663,455.364,459.945,464.349,466.4665,468.735,472.436,475.0617,477.296,481.352,485.408,489.47360000000003,492.262,497.818,499.8508,502.07,507.185,511.682,515.2394,517.433,520.516,524.216,526.858,529.145,533.5494,535.744,540.148" svgx:width="0.89,0.38,0.55,0.27,0.54,0.55,0.82,0.42,0.31,0.53,0.44,0.54,0.52,0.25,0.55,0.44,0.31,0.55,0.48,0.48,0.48,0.55,0.66,0.24,0.55,0.6,0.53,0.42,0.55,0.36,0.44,0.31,0.27,0.52,0.55,0.52,0.29" style="fill:rgb(0,0,0);font-family:AdvP7627;font-size:8.47px;stroke:none;">M) in methanol at 298 K. The ratio of</text>
   <text y="721.36" x="42.861,47.358,51.939,55.021,59.518,64.099,67.182,69.468,74.04180000000001,76.252,81.985,84.271,86.913,91.40209999999999,93.656,98.152,100.439,106.79,112.252,115.8094,117.977,123.709,127.41,130.37449999999998,132.66,136.182,140.679,144.38,148.961,152.839,156.362,160.8511,163.046,165.688,170.185,173.267,177.671,182.252,186.13,190.627,195.03,199.612,202.2377,204.543,207.186,211.682,215.2394,217.413,220.055,222.341,224.983,228.066,231.766,234.408,236.695,241.098,245.67180000000002,247.912,250.199,254.77280000000002,256.984,261.48,263.767,266.231,268.695,272.218,275.3,278.823,283.404,286.0297,288.334,291.416,295.117,297.759,300.045,304.449,307.446,309.47880000000004,311.69,314.688,317.33,321.03,324.113,326.755,329.041,333.622,337.51820000000004,339.752,342.216,345.298,349.702,356.6474,358.914,362.97" svgx:width="0.53,0.54,0.36,0.53,0.54,0.36,0.27,0.54,0.55,0.68,0.27,0.31,0.53,0.55,0.53,0.27,0.75,0.64,0.42,0.55,0.68,0.44,0.35,0.55,0.42,0.53,0.44,0.54,0.46,0.42,0.53,0.55,0.31,0.53,0.36,0.52,0.54,0.46,0.53,0.52,0.54,0.31,0.55,0.31,0.53,0.42,0.55,0.31,0.27,0.31,0.36,0.44,0.31,0.27,0.52,0.54,0.55,0.27,0.54,0.55,0.53,0.27,0.29,0.29,0.42,0.36,0.42,0.54,0.31,0.55,0.36,0.44,0.31,0.27,0.52,0.35,0.24,0.55,0.35,0.31,0.44,0.36,0.31,0.27,0.54,0.46,0.55,0.29,0.36,0.52,0.82,0.55,0.48,0.48" style="fill:rgb(0,0,0);font-family:AdvP7627;font-size:8.47px;stroke:none;">purpurin with LiOAc was changed throughout the titration in different ratios, starting from 20</text>
   <text y="721.36" x="367.03" svgx:width="0.55" style="fill:rgb(0,0,0);font-family:AdvP3F0CD3;font-size:8.47px;stroke:none;">5</text>
   <text y="721.36" x="371.68,375.7456,377.952,380.594,384.9984,387.214" svgx:width="0.48,0.55,0.31,0.52,0.55,0.48" style="fill:rgb(0,0,0);font-family:AdvP7627;font-size:8.47px;stroke:none;">0 to 4</text>
   <text y="721.36" x="391.295" svgx:width="0.55" style="fill:rgb(0,0,0);font-family:AdvP3F0CD3;font-size:8.47px;stroke:none;">5</text>
   <text y="721.36" x="395.944,400.001,404.0666,406.262,409.438,412.08,416.483,420.9721,423.213,425.855,430.2594,432.453,436.772,441.176,443.818,446.46,450.863,457.824,461.0,463.0328,465.277,468.978,473.559,478.04810000000003,480.244,483.766,488.263,491.964,496.545,500.423,503.9804,506.208,508.494,513.0678,515.279,518.98,523.298,526.296,530.7,533.782,538.279,540.921,543.207,547.611" svgx:width="0.48,0.48,0.55,0.38,0.31,0.52,0.53,0.55,0.31,0.52,0.55,0.51,0.52,0.31,0.31,0.52,0.82,0.38,0.24,0.55,0.44,0.54,0.53,0.55,0.42,0.53,0.44,0.54,0.46,0.42,0.55,0.27,0.54,0.55,0.44,0.51,0.35,0.52,0.36,0.53,0.31,0.27,0.52,0.54" style="fill:rgb(0,0,0);font-family:AdvP7627;font-size:8.47px;stroke:none;">16 (top to bottom), and change in absorption</text>
   <text y="731.848" x="42.862,46.385,50.966,54.048,57.927,61.45,64.4145,66.558,72.291,75.814,78.897,82.4544,84.53,89.026,93.43,95.716,100.297,102.94,106.462,110.9511,113.046,117.449,122.03,124.6557,126.765,131.084,134.8955,136.969,140.67,143.752,146.834,151.238,156.971,159.9355,162.083,165.784,170.365,174.85410000000002,176.936,180.112,184.431,187.64960000000002,189.749,194.068,199.182,202.265,205.085,210.4211,212.425,215.6,221.062,226.177,231.47,234.6886,236.746,239.743,244.24,247.763,251.285,253.928,257.01,261.591,268.5364,270.703,275.106,277.5623,279.66,284.156,288.738,291.82,296.317,300.898,303.98,306.267,310.8408,312.994,316.17,320.488,322.605,326.306,329.829,333.97,337.1886,339.242,342.943,347.524,352.0131,354.095,358.77,363.266,368.025,371.108,375.1736,377.282,380.458,383.54,387.063,391.559,394.735,396.7678,398.881,403.996,408.492,412.0494,414.074,416.36,420.941,423.939,427.462,430.0877,432.215,435.213,439.71,444.113,449.846,452.8105,454.948,458.649,463.2228,465.322,468.845,472.808,477.305,481.006,485.587,490.083,493.606,498.0951,500.244,504.122,506.408,509.931,515.664,517.6967999999999,519.802,525.535,530.031,533.554,536.637,540.1944,542.251,544.893,549.39" svgx:width="0.42,0.54,0.36,0.46,0.42,0.35,0.55,0.68,0.42,0.36,0.42,0.55,0.53,0.52,0.27,0.54,0.31,0.42,0.53,0.55,0.52,0.54,0.31,0.55,0.51,0.45,0.55,0.44,0.36,0.36,0.52,0.68,0.35,0.55,0.44,0.54,0.53,0.55,0.38,0.51,0.38,0.55,0.51,0.6,0.36,0.33,0.63,0.55,0.38,0.64,0.6,0.63,0.38,0.55,0.35,0.53,0.42,0.42,0.31,0.36,0.54,0.82,0.55,0.52,0.29,0.55,0.53,0.54,0.36,0.53,0.54,0.36,0.27,0.54,0.55,0.38,0.51,0.25,0.44,0.42,0.49,0.38,0.55,0.44,0.54,0.53,0.55,0.55,0.53,0.56,0.36,0.48,0.55,0.38,0.36,0.42,0.53,0.38,0.24,0.55,0.6,0.53,0.42,0.55,0.27,0.54,0.35,0.42,0.31,0.55,0.35,0.53,0.52,0.68,0.35,0.55,0.44,0.54,0.55,0.42,0.47,0.53,0.44,0.54,0.53,0.42,0.53,0.55,0.46,0.27,0.42,0.68,0.24,0.55,0.68,0.53,0.42,0.36,0.42,0.55,0.31,0.53,0.42" style="fill:rgb(0,0,0);font-family:AdvP7627;font-size:8.47px;stroke:none;">curves were pointed out by arrows and (b) FT-IR (ATR) spectrum of purpurin (black) and ELP-1 (red). The inset shows an expanded view, where the</text>
   <text y="742.279" x="42.862,46.385,50.348,52.634,55.632,58.274,61.797,66.378,69.901,73.4584,75.629,80.032,82.4883,84.756,89.337,92.86,98.6196,100.8,104.5,108.819,111.817,116.22,119.303,123.799,126.441,128.728,133.131,137.7048,139.973,144.291,147.992,152.573,157.07,160.03449999999998,162.253,164.717,169.12,172.16920000000002,174.441,177.964,181.664,184.747,189.065,193.469,198.05,201.835,203.95250000000001,206.187,210.066,213.148,217.552,222.133,226.629,229.59349999999998,231.868,234.154,237.11849999999998,239.351,242.874,244.991,248.514,252.214,255.297,257.414,261.2255,263.445,267.323,269.61,272.608,274.894,279.213,281.33,284.88739999999996,287.085,290.785,295.367,299.8561,302.051,306.548,310.951,313.238,317.819,320.4447,322.743,327.147,331.728,334.3537,336.576,340.895,344.7065,346.894,350.595,353.677,356.759,361.163,366.896" svgx:width="0.42,0.47,0.27,0.35,0.31,0.42,0.54,0.42,0.42,0.55,0.52,0.29,0.55,0.54,0.42,0.68,0.55,0.44,0.51,0.35,0.52,0.36,0.53,0.31,0.27,0.52,0.54,0.55,0.51,0.44,0.54,0.53,0.35,0.55,0.29,0.52,0.36,0.55,0.42,0.44,0.36,0.51,0.52,0.54,0.45,0.25,0.55,0.46,0.36,0.52,0.54,0.53,0.35,0.55,0.27,0.35,0.55,0.42,0.25,0.42,0.44,0.36,0.25,0.45,0.55,0.46,0.27,0.35,0.27,0.51,0.25,0.42,0.55,0.44,0.54,0.53,0.55,0.53,0.52,0.27,0.54,0.31,0.55,0.52,0.54,0.31,0.55,0.51,0.45,0.55,0.44,0.36,0.36,0.52,0.68,0.24" style="fill:rgb(0,0,0);font-family:AdvP7627;font-size:8.47px;stroke:none;">existence of new absorption bands for carbonyl groups is clearly visible and point out by arrow.</text>
   <text y="23.924" x="382.45,390.728,398.964,407.201,410.758,416.935,423.462,426.559,432.626,436.863,442.59,446.147,451.414,457.711,466.518" svgx:width="0.71,0.71,0.71,0.28,0.52,0.55,0.24,0.51,0.34,0.48,0.28,0.44,0.53,0.76,0.54" style="fill:rgb(255,255,255);font-family:AdvOT144a03c1;font-size:10.96px;stroke:none;">www.nature.com/</text>
   <text y="23.924" x="472.932,477.864,482.905,486.127,492.089,498.39,501.831,505.053,508.845,512.067,517.108,521.579,527.541,534.182,540.593,545.064,548.505" svgx:width="0.41,0.42,0.25,0.5,0.53,0.27,0.25,0.3,0.25,0.42,0.36,0.5,0.56,0.54,0.36,0.27,0.41" style="fill:rgb(255,255,255);font-family:AdvOT1415ea69.B;font-size:10.96px;stroke:none;">scientificreports</text>
  </g>
  <path style="fill:rgb(23,22,21);stroke:none;stroke-width:1.0;" d="M147.570 51.820 L448.160 51.820 L448.160 251.090 L147.570 251.090 "/>
  <g begin="text">
   <text y="768.132" x="42.86,47.092,52.32,54.146,58.29,64.515,68.078,69.903,73.529,75.354" svgx:width="0.53,0.66,0.23,0.52,0.78,0.45,0.23,0.47,0.23,0.66" style="fill:rgb(178,178,177);font-family:AdvOT144a03c1;font-size:7.97px;stroke:none;">SCIENTIFIC</text>
   <text y="768.132" x="82.658,87.058,90.875,95.02,101.245,105.644,109.207" svgx:width="0.55,0.48,0.52,0.78,0.55,0.45,0.52" style="fill:rgb(178,178,177);font-family:AdvOT1415ea69.B;font-size:7.97px;stroke:none;">REPORTS</text>
   <text y="768.132" x="117.411,121.8742,123.987,128.8487,130.96,133.351,135.382,140.276,145.169,150.03070000000002,152.106,156.5692,158.682,164.078,170.884,172.71,175.101,177.107,182.0,186.894,189.301,194.195,199.088,203.982,208.876,213.355,216.503,219.157,223.139,227.698,232.592,237.486,242.379,247.273" svgx:width="0.56,0.55,0.61,0.55,0.3,0.55,0.61,0.61,0.61,0.55,0.56,0.55,0.68,0.85,0.23,0.3,0.55,0.61,0.61,0.3,0.61,0.61,0.61,0.61,0.56,0.4,0.33,0.51,0.57,0.61,0.61,0.61,0.61,0.61" style="fill:rgb(0,0,0);font-family:AdvOT735b620e;font-size:7.97px;stroke:none;">| 2 : 960 | DOI: 10.1038/srep00960</text>
   <text y="768.132" x="547.542" svgx:width="0.68" style="fill:rgb(0,0,0);font-family:AdvOTf32ed098.B;font-size:7.97px;stroke:none;">4</text>
  </g>
 </g>
</svg>
