<?xml version="1.0" encoding="UTF-8"?>
<svg height="778.132" width="2639.43" xmlns="http://www.w3.org/2000/svg">
 <g id="page" xmlns:svgx="http://www.xml-cml.org/schema/svgx">
  <g begin="text">
   <text y="425.083" x="42.86,47.103,51.736,54.052,56.85,60.899,68.423,75.946,80.579,84.822,88.195,92.244,99.7527,102.388,107.021,109.7093,112.31,115.108,120.028,123.9214,126.426,131.244,136.062,139.435,144.253,149.071,152.443,154.852,159.8578,162.541,166.395,168.711,172.566,176.42,179.218,182.591,187.223,192.041,195.93439999999998,198.484,202.339,206.971,211.984,216.802,221.62,225.474,228.272,232.127,236.94740000000002,239.587,243.636,246.417,248.998,252.371,256.225,260.274,265.2798,267.877,271.25,275.299,278.097,281.99039999999997,284.545,289.178" svgx:width="0.46,0.5,0.25,0.3,0.44,0.81,0.81,0.5,0.46,0.36,0.44,0.81,0.55,0.5,0.29,0.55,0.3,0.53,0.42,0.55,0.52,0.52,0.36,0.52,0.52,0.36,0.26,0.54,0.55,0.42,0.25,0.42,0.42,0.3,0.36,0.5,0.52,0.42,0.55,0.42,0.5,0.54,0.52,0.52,0.42,0.3,0.42,0.52,0.55,0.44,0.3,0.55,0.36,0.42,0.44,0.54,0.55,0.36,0.44,0.3,0.42,0.55,0.5,0.29" style="fill:rgb(0,0,0);font-family:AdvOT1ef757c0;font-size:9.27px;stroke:none;">voltammogram of the purpurin electrode conducted at scan rate of</text>
   <text y="435.741" x="42.86,47.298,49.318,53.767599999999995,56.863,64.387,70.845" svgx:width="0.48,0.22,0.48,0.55,0.81,0.7,0.36" style="fill:rgb(0,0,0);font-family:AdvOT1ef757c0;font-size:9.27px;stroke:none;">0.1 mVs</text>
   <text y="432.34" x="74.211" svgx:width="0.83" style="fill:rgb(0,0,0);font-family:AdvP414BFB;font-size:5.13px;stroke:none;">2</text>
   <text y="432.34" x="78.973" svgx:width="0.48" style="fill:rgb(0,0,0);font-family:AdvOT1ef757c0;font-size:5.13px;stroke:none;">1</text>
   <text y="435.742" x="83.792,86.201,91.20679999999999,93.259,97.7086,100.743,111.004,114.377,119.01,121.326,126.144,128.942,131.351,135.984,140.9898,143.036,147.669,150.3573,152.391,157.31,159.719,164.926" svgx:width="0.26,0.54,0.55,0.48,0.55,0.88,0.36,0.5,0.25,0.52,0.3,0.26,0.5,0.54,0.55,0.5,0.29,0.55,0.53,0.26,0.56,0.52" style="fill:rgb(0,0,0);font-family:AdvOT1ef757c0;font-size:9.27px;stroke:none;">in 1 Msolution of LiPF</text>
   <text y="437.329" x="169.795" svgx:width="0.48" style="fill:rgb(0,0,0);font-family:AdvOT1ef757c0;font-size:6.18px;stroke:none;">6</text>
   <text y="435.742" x="175.124,177.533,182.53879999999998,184.592" svgx:width="0.26,0.54,0.55,0.48" style="fill:rgb(0,0,0);font-family:AdvOT1ef757c0;font-size:9.27px;stroke:none;">in 1</text>
   <text y="435.742" x="189.014" svgx:width="0.55" style="fill:rgb(0,0,0);font-family:AdvP3F0CD3;font-size:9.27px;stroke:none;">5</text>
   <text y="435.742" x="194.116,198.56560000000002,200.579,203.757,208.0,210.984,215.227,218.3788,220.478,228.001,230.41,234.747,237.545,242.363,245.735,249.6284,251.66,256.292,258.9803,261.014,264.868,267.666,272.586,276.83,279.146,283.0,288.013" svgx:width="0.48,0.55,0.34,0.46,0.32,0.46,0.34,0.55,0.81,0.26,0.47,0.3,0.52,0.36,0.42,0.55,0.5,0.29,0.55,0.42,0.3,0.53,0.46,0.25,0.42,0.54,0.42" style="fill:rgb(0,0,0);font-family:AdvOT1ef757c0;font-size:9.27px;stroke:none;">1 (v/v) mixture of ethylene</text>
   <text y="446.399" x="42.86,46.715,50.764,54.136,58.769,63.402,68.414,72.463,75.261,79.1544,82.886,86.064,91.272,97.35,100.50179999999999,104.316,108.365,113.378,118.1984,122.005,126.823,129.232,136.755,140.609,143.407,148.327,152.571,154.8885,158.685,162.539,166.588,169.961,174.594,179.226,184.239,188.288,191.086,194.9794,198.768,201.946,208.7,216.9,222.978,226.12980000000002,229.949,233.998,237.3352,241.117,245.166,250.1718,253.93,257.785,260.101,263.955,267.81,270.608,273.981,278.613,280.93,285.173,288.06" svgx:width="0.42,0.44,0.36,0.5,0.5,0.54,0.44,0.3,0.42,0.55,0.34,0.56,0.66,0.34,0.55,0.44,0.54,0.52,0.55,0.52,0.26,0.81,0.42,0.3,0.53,0.46,0.25,0.55,0.42,0.44,0.36,0.5,0.5,0.54,0.44,0.3,0.42,0.55,0.34,0.73,0.88,0.66,0.34,0.55,0.44,0.36,0.55,0.44,0.54,0.55,0.42,0.25,0.42,0.42,0.3,0.36,0.5,0.25,0.46,0.3,0.42" style="fill:rgb(0,0,0);font-family:AdvOT1ef757c0;font-size:9.27px;stroke:none;">carbonate (EC) and dimethyl carbonate (DMC) as an electrolyte</text>
   <text y="457.057" x="42.86,46.909,51.153,55.202,57.611,62.623,65.996,68.777,71.491,76.411,78.8212,81.469,88.992,92.847,95.645,99.694,102.0115,104.714,108.763,112.1002,114.862,118.716,123.349,128.167,133.179,135.978,139.832,143.1692,145.874,149.923,154.935,159.7554,162.485,165.857,169.712,172.408,176.262,179.635,183.489,188.502,192.356,196.24939999999998,198.939,202.793,205.11,208.964,212.818,215.617,218.989,223.622,228.44,232.294,234.3334,237.037,242.726,247.646,251.5394,254.215,258.069,262.313,266.167,268.483,270.892,274.7854,277.402,281.646,286.278,288.595" svgx:width="0.44,0.46,0.44,0.26,0.54,0.36,0.3,0.55,0.53,0.26,0.55,0.81,0.42,0.3,0.44,0.25,0.55,0.44,0.36,0.55,0.42,0.5,0.52,0.54,0.3,0.42,0.36,0.55,0.44,0.54,0.52,0.55,0.36,0.42,0.29,0.42,0.36,0.42,0.54,0.42,0.42,0.55,0.42,0.25,0.42,0.42,0.3,0.36,0.5,0.52,0.42,0.22,0.55,0.61,0.53,0.42,0.55,0.42,0.46,0.42,0.25,0.26,0.42,0.55,0.46,0.5,0.25,0.35" style="fill:rgb(0,0,0);font-family:AdvOT1ef757c0;font-size:9.27px;stroke:none;">against Li metal as counter and reference electrode. The cyclic vol-</text>
   <text y="467.773" x="42.86,45.659,49.707,57.231,64.754,69.387,73.63,77.003,81.052,90.143,97.666,101.521,105.57,108.942,113.76,117.133,120.987,128.511,132.365,137.378,140.159,141.792,146.424,149.1123,150.635,153.433,158.353,162.2464,163.732,168.55,173.368,176.74,181.558,186.376,189.749,192.158,197.16379999999998,198.769,202.623,204.939,208.794,212.648,215.446,218.819,223.451,228.269,232.124,235.4612,237.094,240.466,245.386,250.019,256.291,260.146,264.9664,266.517,269.89,273.744,277.988,281.842,285.215,288.587" svgx:width="0.3,0.44,0.81,0.81,0.5,0.46,0.36,0.44,0.81,0.81,0.42,0.44,0.36,0.52,0.36,0.42,0.81,0.42,0.54,0.3,0.55,0.5,0.29,0.55,0.3,0.53,0.42,0.55,0.52,0.52,0.36,0.52,0.52,0.36,0.26,0.54,0.55,0.42,0.25,0.42,0.42,0.3,0.36,0.5,0.52,0.42,0.36,0.55,0.36,0.53,0.5,0.68,0.42,0.52,0.55,0.36,0.42,0.46,0.42,0.36,0.36,0.35" style="fill:rgb(0,0,0);font-family:AdvOT1ef757c0;font-size:9.27px;stroke:none;">tammogrammeasurement of the purpurin electrodes showed revers-</text>
   <text y="478.431" x="42.86,45.269,49.902,52.218,56.1114,59.018,61.334,63.743,66.542,71.461,73.87,77.919,80.717,83.126,87.759,92.772,95.755,100.573,104.427,107.707,110.024,112.433,115.231,120.151,122.56,126.609,129.407,131.816,136.448,141.4538,144.513,149.331,152.703,157.336,161.19,165.045,168.417,171.7542,174.787,177.196,182.2018,185.162,189.98,194.798,198.171,202.989,207.807,211.179,213.588,218.5938,221.617,229.14,233.773,236.089,239.944,243.798,248.616,250.932,254.787,256.8264,259.829,265.518,270.438,274.3314,277.234,279.93,282.339,285.711,289.084" svgx:width="0.26,0.5,0.25,0.42,0.55,0.25,0.26,0.3,0.53,0.26,0.44,0.3,0.26,0.5,0.54,0.32,0.52,0.42,0.35,0.25,0.26,0.3,0.53,0.26,0.44,0.3,0.26,0.5,0.54,0.55,0.52,0.36,0.5,0.42,0.42,0.36,0.36,0.55,0.26,0.54,0.55,0.52,0.52,0.36,0.52,0.52,0.36,0.26,0.54,0.55,0.81,0.5,0.25,0.42,0.42,0.52,0.25,0.42,0.22,0.55,0.61,0.53,0.42,0.55,0.29,0.26,0.36,0.36,0.3" style="fill:rgb(0,0,0);font-family:AdvOT1ef757c0;font-size:9.27px;stroke:none;">ible lithiation/de-lithiation process in purpurin molecule. The first</text>
   <text y="489.088" x="42.86,46.715,50.764,53.562,58.482,63.114,67.932,70.341,74.2344,77.16,80.532,84.387,88.435,93.4408,96.435,99.808,104.728,109.36,115.633,119.487,124.3074,127.277,131.3558,134.306,139.124,142.978,147.027,151.5693,154.489,158.538,161.91,166.543,171.361,176.373" svgx:width="0.42,0.44,0.3,0.53,0.5,0.52,0.26,0.42,0.55,0.36,0.42,0.44,0.54,0.55,0.36,0.53,0.5,0.68,0.42,0.52,0.55,0.44,0.55,0.52,0.42,0.44,0.49,0.55,0.44,0.36,0.5,0.52,0.54,0.52" style="fill:rgb(0,0,0);font-family:AdvOT1ef757c0;font-size:9.27px;stroke:none;">cathodic scan showed a peak around</text>
   <text y="489.088" x="184.195" svgx:width="0.83" style="fill:rgb(0,0,0);font-family:AdvP7DB7;font-size:9.27px;stroke:none;">,</text>
   <text y="489.088" x="191.906,196.3556,199.446,205.904,207.9434,210.898,217.263,220.6002,223.597,226.006,228.787,231.76,235.615,239.664,244.66979999999998,247.635,252.267,256.1604,259.087,263.719,268.352,271.724,275.579,278.951,283.195,287.049" svgx:width="0.48,0.55,0.7,0.22,0.55,0.69,0.36,0.55,0.26,0.3,0.55,0.42,0.44,0.54,0.55,0.5,0.42,0.55,0.5,0.5,0.36,0.42,0.36,0.46,0.42,0.52" style="fill:rgb(0,0,0);font-family:AdvOT1ef757c0;font-size:9.27px;stroke:none;">2 V. As it can be observed</text>
   <text y="499.746" x="42.86,45.557,48.929,53.562,61.070699999999995,64.404,67.202,72.122,76.0154,79.257,83.112,87.161,89.959,94.879,99.511,104.329,106.738,110.6314,113.954,117.327,121.181,125.23,130.2358,133.57,138.202,140.8903,144.227,147.026,151.945,155.83839999999998,159.081,162.935,167.178,171.033,173.349,175.758,179.65140000000002,182.949,187.192,191.825,194.141,196.94,200.989,208.512,216.035,220.668,224.911,228.284,232.333,239.8417,243.214,246.012,250.932,254.8254,258.125,260.441,262.85,265.648,270.568,272.977,277.026,279.824,282.233,286.866" svgx:width="0.29,0.36,0.5,0.81,0.55,0.3,0.53,0.42,0.55,0.42,0.44,0.3,0.53,0.5,0.52,0.26,0.42,0.55,0.36,0.42,0.44,0.54,0.55,0.5,0.29,0.55,0.3,0.53,0.42,0.55,0.42,0.46,0.42,0.25,0.26,0.42,0.55,0.46,0.5,0.25,0.3,0.44,0.81,0.81,0.5,0.46,0.36,0.44,0.81,0.55,0.3,0.53,0.42,0.55,0.25,0.26,0.3,0.53,0.26,0.44,0.3,0.26,0.5,0.54" style="fill:rgb(0,0,0);font-family:AdvOT1ef757c0;font-size:9.27px;stroke:none;">from the cathodic scan of the cyclic voltammogram the lithiation</text>
   <text y="510.404" x="42.86,47.678,51.051,55.684,59.538,63.392,66.765,70.1022,72.228,76.86,80.715,84.958,87.367,92.38,95.71719999999999,97.796,101.845,104.626,106.697,111.135,113.155,117.6046,120.701,127.19,129.205,133.254,138.266,143.0864,145.135,149.768,153.622,157.477,162.109,169.633,173.487,176.8242,178.982,183.707,188.525,190.934,193.732,197.6254,199.618,201.934,205.983,209.356,213.6,217.4934,219.575,223.624" svgx:width="0.52,0.36,0.5,0.42,0.42,0.36,0.36,0.55,0.5,0.42,0.46,0.26,0.54,0.36,0.55,0.44,0.3,0.55,0.48,0.22,0.48,0.55,0.7,0.55,0.44,0.54,0.52,0.55,0.5,0.42,0.42,0.5,0.81,0.42,0.36,0.55,0.51,0.52,0.26,0.3,0.42,0.55,0.25,0.44,0.36,0.46,0.42,0.55,0.44,0.3" style="fill:rgb(0,0,0);font-family:AdvOT1ef757c0;font-size:9.27px;stroke:none;">process begins at 2.4 V and becomes quite large at</text>
   <text y="510.404" x="228.472" svgx:width="0.83" style="fill:rgb(0,0,0);font-family:AdvP7DB7;font-size:9.27px;stroke:none;">,</text>
   <text y="510.404" x="236.183,240.621,242.641,247.0906,250.186,256.644,258.6834,260.731,266.42,271.34,275.23339999999996,277.229,279.925,282.334,285.707,289.079" svgx:width="0.48,0.22,0.48,0.55,0.7,0.22,0.55,0.61,0.53,0.42,0.55,0.29,0.26,0.36,0.36,0.3" style="fill:rgb(0,0,0);font-family:AdvOT1ef757c0;font-size:9.27px;stroke:none;">2.0 V. The first</text>
   <text y="521.062" x="42.86,46.909,51.922,56.555,61.372,63.781,67.67439999999999,69.903,73.276,77.13,81.179,86.1848,88.442,91.815,96.734,101.367,107.64,110.9772,113.274,116.072,122.345,126.98,129.205,132.577,140.101,144.15,146.466,148.7835,151.088,155.906,159.761,163.81,168.34,171.6772,173.936,177.985,181.357,185.99,190.808,195.82" svgx:width="0.44,0.54,0.5,0.52,0.26,0.42,0.55,0.36,0.42,0.44,0.54,0.55,0.36,0.53,0.5,0.68,0.36,0.55,0.3,0.68,0.5,0.55,0.36,0.81,0.44,0.25,0.25,0.55,0.52,0.42,0.44,0.49,0.36,0.55,0.44,0.36,0.5,0.52,0.54,0.52" style="fill:rgb(0,0,0);font-family:AdvOT1ef757c0;font-size:9.27px;stroke:none;">anodic scan shows two small peaks around</text>
   <text y="521.062" x="202.961" svgx:width="0.83" style="fill:rgb(0,0,0);font-family:AdvP7DB7;font-size:9.27px;stroke:none;">,</text>
   <text y="521.062" x="210.672,215.11,217.13,221.5796,223.825,227.874,232.886,237.7064,239.926,244.364,246.384,250.8336,253.93,260.419,262.66,266.033,269.887,273.26,278.078,281.932,285.786,288.585" svgx:width="0.48,0.22,0.48,0.55,0.44,0.54,0.52,0.55,0.48,0.22,0.48,0.55,0.7,0.55,0.36,0.42,0.36,0.52,0.42,0.42,0.3,0.35" style="fill:rgb(0,0,0);font-family:AdvOT1ef757c0;font-size:9.27px;stroke:none;">2.6 and 3.2 V respect-</text>
   <text y="531.72" x="42.861,45.27,49.514,53.368,55.685,59.928,61.9674,65.199,69.248,72.621,75.993,80.626,84.48,86.889,90.938,93.736,97.591,102.4114,105.678,111.951,114.36,117.158,122.0711,125.294,128.092,133.012,136.9054,140.147,144.965,148.819,152.099,154.416,156.825,159.623,164.543,166.952,171.0,173.799,176.208,180.84,185.8458,189.131,193.949,197.321,201.954,205.808,209.663,213.035,216.3722,219.689,224.321,227.0093,230.234,235.052,239.869,243.242,248.06,252.878,256.251,258.66,263.672,265.7114,269.013,272.098,277.10380000000004,280.351,283.15,288.069" svgx:width="0.26,0.46,0.42,0.25,0.46,0.22,0.55,0.44,0.36,0.36,0.5,0.42,0.26,0.44,0.3,0.42,0.52,0.55,0.68,0.26,0.3,0.53,0.55,0.3,0.53,0.42,0.55,0.52,0.42,0.35,0.25,0.26,0.3,0.53,0.26,0.44,0.3,0.26,0.5,0.54,0.55,0.52,0.36,0.5,0.42,0.42,0.36,0.36,0.55,0.5,0.29,0.55,0.52,0.52,0.36,0.52,0.52,0.36,0.26,0.54,0.22,0.55,0.33,0.54,0.55,0.3,0.53,0.42" style="fill:rgb(0,0,0);font-family:AdvOT1ef757c0;font-size:9.27px;stroke:none;">ively, associated with the de-lithiation process of purpurin. In the</text>
   <text y="542.378" x="42.861,45.558,50.19,52.507,54.823,59.455,65.728,68.137,73.15,77.41420000000001,80.052,83.425,87.279,91.328,96.341,99.67819999999999,102.333,106.965,109.6533,112.31,115.108,120.028,123.9214,126.54,130.394,134.638,138.492,140.809,143.218,147.1114,149.727,153.971,158.604,160.92,163.718,167.767,175.29,182.814,187.446,191.69,195.062,199.111,206.635,208.6744,211.297,214.095,219.015,222.90839999999997,225.527,230.345,234.199,238.248,242.779,246.1162,248.828,253.461,256.14930000000004,258.749,261.547,266.467,270.36039999999997,272.979,276.833,280.882,283.68,288.6" svgx:width="0.29,0.5,0.25,0.25,0.5,0.68,0.26,0.54,0.46,0.55,0.36,0.42,0.44,0.54,0.36,0.55,0.5,0.29,0.55,0.3,0.53,0.42,0.55,0.42,0.46,0.42,0.25,0.26,0.42,0.55,0.46,0.5,0.25,0.3,0.44,0.81,0.81,0.5,0.46,0.36,0.44,0.81,0.22,0.55,0.3,0.53,0.42,0.55,0.52,0.42,0.44,0.49,0.36,0.55,0.5,0.29,0.55,0.3,0.53,0.42,0.55,0.42,0.44,0.3,0.53,0.35" style="fill:rgb(0,0,0);font-family:AdvOT1ef757c0;font-size:9.27px;stroke:none;">following scans of the cyclic voltammogram, the peaks of the cath-</text>
   <text y="553.036" x="42.861,47.494,52.312,54.721,58.614399999999996,60.437,63.809,67.664,71.713,76.71879999999999,78.579,81.952,86.872,89.28,91.977,94.775,98.1122,100.066,102.864,107.49900000000001,109.307,112.106,117.025,120.9184,122.744,126.117,128.526,132.769,137.689,140.47,142.36,146.992" svgx:width="0.5,0.52,0.26,0.42,0.55,0.36,0.42,0.44,0.54,0.55,0.36,0.53,0.26,0.29,0.3,0.36,0.55,0.3,0.5,0.55,0.3,0.53,0.42,0.55,0.36,0.26,0.46,0.53,0.3,0.55,0.5,0.46" style="fill:rgb(0,0,0);font-family:AdvOT1ef757c0;font-size:9.27px;stroke:none;">odic scan shifts to the right by</text>
   <text y="553.036" x="153.129" svgx:width="0.83" style="fill:rgb(0,0,0);font-family:AdvP7DB7;font-size:9.27px;stroke:none;">,</text>
   <text y="553.036" x="160.839,165.277,167.297,171.7466,174.843,181.301,183.3404,185.161,190.08,193.935,198.947,202.802,206.6954,208.575,211.948,215.802,220.62,225.438,229.292,231.701,236.714,240.9782,242.874,245.672,250.592,254.48540000000003,256.311,261.231,265.474,268.847,271.645,275.499,278.872,282.726,286.099,288.508" svgx:width="0.48,0.22,0.48,0.55,0.7,0.22,0.55,0.53,0.42,0.54,0.42,0.42,0.55,0.36,0.42,0.52,0.52,0.42,0.26,0.54,0.46,0.55,0.3,0.53,0.42,0.55,0.53,0.46,0.36,0.3,0.42,0.36,0.42,0.36,0.26,0.36" style="fill:rgb(0,0,0);font-family:AdvOT1ef757c0;font-size:9.27px;stroke:none;">0.2 V, hence reducing the hysteresis</text>
   <text y="563.693" x="42.861,47.494,51.348,54.146,60.419,64.273,68.128,73.1338,75.687,78.485,83.405,87.2984,89.804,93.853,98.865,103.498,108.316,110.725,114.6184,117.187,121.236,126.248,131.0684,133.628,137.482,141.531,144.329,149.249,153.882,158.7,161.109,165.00240000000002,167.531,172.349,176.203,180.252,184.783,188.155,190.1944,192.759,198.448,203.368,205.777,209.11419999999998,211.695,214.011,217.865,221.914,226.732,230.0692,232.671,235.469,240.10399999999998,242.649,247.282,251.136,253.934,256.732,260.587,263.9242,266.517,269.89,273.744,277.988,281.842,285.215,288.587" svgx:width="0.5,0.42,0.3,0.68,0.42,0.42,0.54,0.55,0.3,0.53,0.42,0.55,0.44,0.54,0.5,0.52,0.26,0.42,0.55,0.44,0.54,0.52,0.55,0.42,0.44,0.3,0.53,0.5,0.52,0.26,0.42,0.55,0.52,0.42,0.44,0.49,0.36,0.22,0.55,0.61,0.53,0.26,0.36,0.55,0.25,0.42,0.44,0.52,0.36,0.55,0.3,0.5,0.55,0.5,0.42,0.3,0.3,0.42,0.36,0.55,0.36,0.42,0.46,0.42,0.36,0.36,0.35" style="fill:rgb(0,0,0);font-family:AdvOT1ef757c0;font-size:9.27px;stroke:none;">between the anodic and cathodic peaks. This leads to better revers-</text>
   <text y="574.351" x="42.861,45.27,49.903,52.312,54.628,57.037,59.835,64.0992,66.503,71.135,73.8233,76.253,79.052,83.971,87.8644,90.2,94.054,96.37,100.225,104.079,106.877,110.25,114.882,119.7,123.5934,126.03,130.079,133.452,138.085,142.902,147.915" svgx:width="0.26,0.5,0.26,0.25,0.26,0.3,0.46,0.55,0.5,0.29,0.55,0.3,0.53,0.42,0.55,0.42,0.25,0.42,0.42,0.3,0.36,0.5,0.52,0.42,0.55,0.44,0.36,0.5,0.52,0.54,0.52" style="fill:rgb(0,0,0);font-family:AdvOT1ef757c0;font-size:9.27px;stroke:none;">ibility of the electrode around</text>
   <text y="574.351" x="155.17" svgx:width="0.83" style="fill:rgb(0,0,0);font-family:AdvP7DB7;font-size:9.27px;stroke:none;">,</text>
   <text y="574.351" x="162.88,167.318,169.338,173.7876,176.884,183.342" svgx:width="0.48,0.22,0.48,0.55,0.7,0.22" style="fill:rgb(0,0,0);font-family:AdvOT1ef757c0;font-size:9.27px;stroke:none;">2.0 V.</text>
   <text y="585.18" x="52.103,58.468,61.164,63.962,67.816,71.1532,73.476,78.294,83.306,88.124,91.979,95.351,98.724,101.522,105.571,110.583,115.401,117.81,122.823,127.0872,129.376,132.174,137.094,140.98739999999998,143.209,147.258,151.112,153.911,158.729,162.777,165.09449999999998,167.418,169.734,172.143,174.941,179.861,182.27,186.319,189.117,191.526,196.159,201.16479999999999,203.418,207.467,212.479,217.29940000000002,219.576,224.394,228.248,231.528,233.844,236.253,239.051,243.971,246.38,250.429,253.227,255.636,260.269,265.2748,267.538,272.356,276.989,279.787,283.642,288.654" svgx:width="0.69,0.29,0.3,0.42,0.36,0.55,0.52,0.54,0.52,0.42,0.36,0.36,0.3,0.44,0.54,0.52,0.26,0.54,0.46,0.55,0.3,0.53,0.42,0.55,0.44,0.42,0.3,0.52,0.44,0.25,0.55,0.25,0.26,0.3,0.53,0.26,0.44,0.3,0.26,0.5,0.54,0.55,0.44,0.54,0.52,0.55,0.52,0.42,0.35,0.25,0.26,0.3,0.53,0.26,0.44,0.3,0.26,0.5,0.54,0.55,0.52,0.5,0.3,0.42,0.54,0.35" style="fill:rgb(0,0,0);font-family:AdvOT1ef757c0;font-size:9.27px;stroke:none;">After understanding the actual lithiation and de-lithiation poten-</text>
   <text y="595.838" x="42.861,45.659,48.068,52.117,54.434,57.7712,59.699,64.332,67.02029999999999,68.997,71.795,76.715,80.6084,82.49,87.308,92.126,95.498,100.316,105.134,108.507,110.916,115.92179999999999,117.923,125.447,130.079,132.396,136.25,140.104,144.922,147.239,151.093,154.43019999999999,156.361,159.057,162.43,167.063,176.544,180.398,184.642,188.496,190.812,193.221,197.1144,198.995,203.238,207.871,210.187,212.985,217.034,224.558,232.081,236.714,240.957,244.33,248.379,257.786,265.309,269.164,273.213,276.585,281.403,284.776,288.63" svgx:width="0.3,0.26,0.44,0.25,0.36,0.55,0.5,0.29,0.55,0.3,0.53,0.42,0.55,0.52,0.52,0.36,0.52,0.52,0.36,0.26,0.54,0.55,0.81,0.5,0.25,0.42,0.42,0.52,0.25,0.42,0.36,0.55,0.29,0.36,0.5,0.81,0.42,0.46,0.42,0.25,0.26,0.42,0.55,0.46,0.5,0.25,0.3,0.44,0.81,0.81,0.5,0.46,0.36,0.44,0.81,0.81,0.42,0.44,0.36,0.52,0.36,0.42,0.35" style="fill:rgb(0,0,0);font-family:AdvOT1ef757c0;font-size:9.27px;stroke:none;">tials of the purpurin molecules fromcyclic voltammogrammeasure-</text>
   <text y="606.495" x="42.861,50.385,54.239,59.252,62.05,65.422,67.4614,73.023,77.072,82.084,86.717,89.515,94.435,98.289,101.6262,107.265,110.063,113.918,117.29,120.07100000000001,125.69,129.545,133.399,135.715,138.0325,143.606,149.878,153.927,157.2642,162.881,166.736,171.368,176.381,179.753,182.552,185.924,190.742,194.596,197.395,201.249,206.0694,211.695,215.744,220.756,225.5764,231.141,233.939,237.793,241.166,243.964,247.818,252.63840000000002,258.24,260.936,265.569,268.9062,274.567,277.365,282.285,286.139,288.548" svgx:width="0.81,0.42,0.54,0.3,0.36,0.22,0.55,0.44,0.54,0.5,0.3,0.53,0.42,0.36,0.55,0.3,0.42,0.36,0.3,0.55,0.42,0.42,0.25,0.25,0.55,0.68,0.44,0.36,0.55,0.42,0.5,0.54,0.36,0.3,0.36,0.52,0.42,0.3,0.42,0.52,0.55,0.44,0.54,0.52,0.55,0.3,0.42,0.36,0.3,0.42,0.52,0.55,0.29,0.5,0.36,0.55,0.3,0.53,0.42,0.26,0.36" style="fill:rgb(0,0,0);font-family:AdvOT1ef757c0;font-size:9.27px;stroke:none;">ments, another test cell was constructed and tested for their</text>
   <text y="617.153" x="42.861,46.716,49.032,52.886,56.741,59.539,62.911,67.544,71.398,76.318,80.173,87.696,90.031,93.885,97.934,100.2515,103.184,108.002,111.856,115.229,117.925,122.558,125.93,133.454,137.503,142.515,146.37,150.2634,153.131,155.54,160.54579999999999,163.507,168.427,170.8372,173.768,178.688,182.737,185.053,187.749,191.029,194.884,198.738,201.054,203.371,206.651,208.6904,211.64,218.2,222.249,224.565,228.809,232.857,237.87,242.503,245.875,248.673,252.722,255.52,257.845,261.7384,264.649,268.503,273.423,277.472,280.844,285.088,288.942" svgx:width="0.42,0.25,0.42,0.42,0.3,0.36,0.5,0.42,0.53,0.42,0.81,0.26,0.42,0.44,0.25,0.55,0.52,0.42,0.36,0.29,0.5,0.36,0.81,0.44,0.54,0.42,0.42,0.55,0.26,0.54,0.55,0.53,0.26,0.55,0.53,0.44,0.25,0.29,0.35,0.42,0.42,0.25,0.25,0.36,0.22,0.55,0.71,0.44,0.25,0.46,0.44,0.54,0.5,0.36,0.3,0.44,0.3,0.26,0.42,0.55,0.42,0.53,0.44,0.36,0.46,0.42,0.32" style="fill:rgb(0,0,0);font-family:AdvOT1ef757c0;font-size:9.27px;stroke:none;">electrochemical performance in Li half-cells. Galvanostatic charge/</text>
   <text y="627.811" x="42.861,47.679,50.088,53.461,57.315,62.235,66.284,69.657,73.9,77.7934,80.563,88.086,91.941,95.989,99.362,104.18,107.553,111.407,118.93,122.785,127.797,130.595,133.9322,136.803,143.076,146.93,150.303,154.19639999999998,157.042,160.897,165.529,170.542,175.36,180.178,184.032,186.83,190.685,195.5054,198.315,202.948,206.803,209.601,215.873,219.728,223.582,228.5878,231.425,235.863,237.883,242.3326,245.429,251.918,254.726,258.775,263.788,268.6084,271.451,275.889,277.909,282.35859999999997,285.455" svgx:width="0.52,0.26,0.36,0.42,0.53,0.44,0.36,0.46,0.42,0.55,0.81,0.42,0.44,0.36,0.52,0.36,0.42,0.81,0.42,0.54,0.3,0.36,0.55,0.68,0.42,0.36,0.42,0.55,0.42,0.5,0.54,0.52,0.52,0.42,0.3,0.42,0.52,0.55,0.5,0.42,0.3,0.68,0.42,0.42,0.54,0.55,0.48,0.22,0.48,0.55,0.7,0.55,0.44,0.54,0.52,0.55,0.48,0.22,0.48,0.55,0.7" style="fill:rgb(0,0,0);font-family:AdvOT1ef757c0;font-size:9.27px;stroke:none;">discharge measurements were conducted between 3.7 V and 1.5 V</text>
   <text y="638.526" x="42.861,46.91" svgx:width="0.44,0.33" style="fill:rgb(0,0,0);font-family:AdvOT7d6df7ab.I;font-size:9.27px;stroke:none;">vs</text>
   <text y="638.526" x="52.896,57.816,60.225,63.208,68.128" svgx:width="0.53,0.26,0.32,0.53,0.26" style="fill:rgb(0,0,0);font-family:AdvOT1ef757c0;font-size:9.27px;stroke:none;">Li/Li</text>
   <text y="635.074" x="70.469" svgx:width="0.83" style="fill:rgb(0,0,0);font-family:AdvP414BFB;font-size:5.13px;stroke:none;">1</text>
   <text y="638.532" x="75.288,77.3274,80.164,86.436,88.845,91.643,96.5561,99.439,104.257,109.075,112.448,117.266,122.084,125.456,127.865,132.8708,135.779,138.957,143.396,147.834,154.783,157.961,160.944,167.022,171.071,174.444,179.076,183.709,188.7148,191.566,194.744,199.182,203.62,210.569,213.7208,216.625,220.674,224.0112,226.943,229.741,234.661,238.5544,241.399,247.672,252.305,255.677,260.208,262.617,267.629,271.89320000000004,274.735,278.589,280.906,284.76,288.614" svgx:width="0.22,0.55,0.68,0.26,0.3,0.53,0.55,0.52,0.52,0.36,0.52,0.52,0.36,0.26,0.54,0.55,0.34,0.48,0.48,0.75,0.34,0.32,0.66,0.44,0.36,0.5,0.5,0.54,0.55,0.34,0.48,0.48,0.75,0.34,0.55,0.44,0.36,0.55,0.3,0.53,0.42,0.55,0.68,0.5,0.36,0.49,0.26,0.54,0.46,0.55,0.42,0.25,0.42,0.42,0.35" style="fill:rgb(0,0,0);font-family:AdvOT1ef757c0;font-size:9.27px;stroke:none;">, with purpurin (80%)/Carbon (20%) as the working elec-</text>
   <text y="649.19" x="42.86,45.658,49.03,53.663,58.481,62.335,64.3744,66.444,71.262,73.671,77.915,82.733,86.105,89.9984,92.07,96.509,99.687,104.319,107.497,109.5364,111.686,114.484,119.404,123.2974,125.35,129.593,134.226,136.542,139.34,143.389,147.633" svgx:width="0.3,0.36,0.5,0.52,0.42,0.22,0.55,0.52,0.26,0.46,0.52,0.36,0.42,0.55,0.48,0.34,0.5,0.34,0.22,0.55,0.3,0.53,0.42,0.55,0.46,0.5,0.25,0.3,0.44,0.46,0.42" style="fill:rgb(0,0,0);font-family:AdvOT1ef757c0;font-size:9.27px;stroke:none;">trode. Figure 1(b), the voltage</text>
   <text y="649.19" x="153.581,157.63" svgx:width="0.44,0.33" style="fill:rgb(0,0,0);font-family:AdvOT7d6df7ab.I;font-size:9.27px;stroke:none;">vs</text>
   <text y="649.19" x="162.879,166.251,171.069,174.924,178.778,181.187,183.883,186.292,190.18540000000002,192.246,196.1,200.149,204.967,209.016,212.871,215.28,218.078,222.3422,224.448,229.265,231.582,236.214,239.013,242.3502,244.461,248.315,252.948,257.96,262.778,267.596,271.45,274.249,278.103,282.9234,285.053,289.102" svgx:width="0.36,0.52,0.42,0.42,0.26,0.29,0.26,0.42,0.55,0.42,0.44,0.52,0.44,0.42,0.26,0.3,0.46,0.55,0.52,0.25,0.5,0.3,0.36,0.55,0.42,0.5,0.54,0.52,0.52,0.42,0.3,0.42,0.52,0.55,0.44,0.3" style="fill:rgb(0,0,0);font-family:AdvOT1ef757c0;font-size:9.27px;stroke:none;">specific capacity plots conducted at</text>
   <text y="659.848" x="42.86,48.938,51.921,56.359,60.8086,65.083,68.456,72.505,75.303,79.1964,83.508,88.141,91.995,94.793,101.066,104.92,108.775,113.7808,118.091,122.529,124.549,128.9986,132.037,138.526,142.809,146.858,151.871,156.69140000000002,161.064,165.503,167.522,171.9716,175.011" svgx:width="0.66,0.32,0.48,0.48,0.55,0.36,0.44,0.3,0.42,0.55,0.5,0.42,0.3,0.68,0.42,0.42,0.54,0.55,0.48,0.22,0.48,0.55,0.7,0.55,0.44,0.54,0.52,0.55,0.48,0.22,0.48,0.55,0.7" style="fill:rgb(0,0,0);font-family:AdvOT1ef757c0;font-size:9.27px;stroke:none;">C/20 rate between 3.7 V and 1.5 V</text>
   <text y="659.848" x="185.782,189.831" svgx:width="0.44,0.33" style="fill:rgb(0,0,0);font-family:AdvOT7d6df7ab.I;font-size:9.27px;stroke:none;">vs</text>
   <text y="659.848" x="197.291,202.211,204.62,207.603,212.523" svgx:width="0.53,0.26,0.32,0.53,0.26" style="fill:rgb(0,0,0);font-family:AdvOT1ef757c0;font-size:9.27px;stroke:none;">Li/Li</text>
   <text y="656.39" x="214.866" svgx:width="0.83" style="fill:rgb(0,0,0);font-family:AdvP414BFB;font-size:5.13px;stroke:none;">1</text>
   <text y="659.849" x="219.685,221.7244,226.035,229.889,232.205,236.06,240.109,243.481,245.797,250.06119999999999,254.324,256.733,261.746,266.564,268.973,272.827,276.876,279.674,283.56739999999996,287.83" svgx:width="0.22,0.55,0.42,0.25,0.42,0.44,0.36,0.25,0.46,0.55,0.26,0.54,0.52,0.26,0.42,0.44,0.3,0.42,0.55,0.44" style="fill:rgb(0,0,0);font-family:AdvOT1ef757c0;font-size:9.27px;stroke:none;">, clearly indicate a</text>
   <text y="670.507" x="42.86,45.659,49.902,54.72,57.129,60.983,65.032,67.34949999999999,72.171,77.091,79.5012,84.417,86.733,89.142,91.941,96.86,99.269,103.318,106.117,108.525,113.158,118.171,121.154,125.972,129.826,133.003,135.32,137.729,140.527,145.447,147.856,151.905,154.703,157.112,161.744,166.7498,171.612,176.245,180.099,185.019,189.068,193.311,195.72,200.353,203.726,205.7654,210.561,217.315,222.133,225.505,227.914,232.927,237.19119999999998,242.082,244.88,249.8,253.6934,258.523,261.22,263.628,267.001,270.374,273.15500000000003,278.026,282.844,285.253,288.625" svgx:width="0.3,0.46,0.52,0.26,0.42,0.44,0.25,0.55,0.53,0.26,0.55,0.25,0.26,0.3,0.53,0.26,0.44,0.3,0.26,0.5,0.54,0.32,0.52,0.42,0.35,0.25,0.26,0.3,0.53,0.26,0.44,0.3,0.26,0.5,0.54,0.55,0.5,0.42,0.53,0.44,0.46,0.26,0.5,0.36,0.22,0.55,0.73,0.52,0.36,0.26,0.54,0.46,0.55,0.3,0.53,0.42,0.55,0.29,0.26,0.36,0.36,0.3,0.55,0.52,0.26,0.36,0.35" style="fill:rgb(0,0,0);font-family:AdvOT1ef757c0;font-size:9.27px;stroke:none;">typical Li lithiation/de-lithiation behavior. During the first dis-</text>
   <text y="681.164" x="42.86,46.715,51.635,55.684,59.056,63.3,67.154,69.1934,71.321,75.37,80.3758,82.546,84.955,89.967,92.376,95.174,97.583,101.632,103.9495,106.13,110.948,114.321,118.954,123.7744,125.973,128.382,133.3878,135.554,138.352,143.272,147.16539999999998,149.331,154.149,158.781,161.58,165.434,170.446,173.245,175.654,179.702,182.0195,184.141,186.939,191.57399999999998,193.722,198.16,200.18,204.6296,207.725,214.214,216.343,218.752,222.0892,224.337,228.97,233.602,236.975,240.829,244.202,248.445,252.3,257.1204,259.261,263.31,268.322,273.1424,275.362,278.16,283.08,286.934" svgx:width="0.42,0.53,0.44,0.36,0.46,0.42,0.22,0.55,0.44,0.54,0.55,0.26,0.54,0.26,0.3,0.26,0.44,0.25,0.55,0.52,0.36,0.5,0.52,0.55,0.26,0.54,0.55,0.3,0.53,0.42,0.55,0.52,0.5,0.3,0.42,0.54,0.3,0.26,0.44,0.25,0.55,0.3,0.5,0.55,0.48,0.22,0.48,0.55,0.7,0.55,0.26,0.36,0.55,0.5,0.5,0.36,0.42,0.36,0.46,0.42,0.52,0.55,0.44,0.54,0.52,0.55,0.3,0.53,0.42,0.54" style="fill:rgb(0,0,0);font-family:AdvOT1ef757c0;font-size:9.27px;stroke:none;">charge, an initial drop in the potential to 2.5 V is observed and then</text>
   <text y="691.822" x="42.86,46.9388,49.266,52.639,55.437,59.486,64.119,66.435,70.3284,72.681,77.499,79.815,83.864,86.662,90.517,94.565,99.3854,101.765,106.397,110.252,114.106,118.924,122.296,125.6332,128.014,132.647,136.501,139.299,145.572,149.426,153.281,158.2868,160.67,165.108,167.128,171.5776,174.616,181.10500000000002,183.46,187.508,192.521,197.3414,199.73,204.168,206.188,210.6376,213.734,220.223,222.578,227.21,231.065,233.761,238.394,241.766,245.6594,247.977,252.795,256.167,260.8,265.618,270.436,272.845,277.857,282.12120000000004,284.487,287.286" svgx:width="0.44,0.55,0.36,0.3,0.44,0.5,0.25,0.42,0.55,0.52,0.25,0.44,0.3,0.42,0.44,0.52,0.55,0.5,0.42,0.42,0.52,0.36,0.36,0.55,0.5,0.42,0.3,0.68,0.42,0.42,0.54,0.55,0.48,0.22,0.48,0.55,0.7,0.55,0.44,0.54,0.52,0.55,0.48,0.22,0.48,0.55,0.7,0.55,0.5,0.42,0.29,0.5,0.36,0.42,0.55,0.52,0.36,0.5,0.52,0.52,0.26,0.54,0.46,0.55,0.3,0.5" style="fill:rgb(0,0,0);font-family:AdvOT1ef757c0;font-size:9.27px;stroke:none;">a stable plateau occurs between 2.5 V and 2.3 V before dropping to</text>
   <text y="702.48" x="42.86,47.299,49.318,53.767599999999995,56.807,63.265,65.3044,67.691,74.0873,76.422,79.118,81.527,84.9,88.272,91.05300000000001,93.43,98.248,100.657,104.03,107.884,112.804,116.853,120.226,124.469,128.36239999999998,130.735,134.59,138.639,143.457,147.506,151.36,153.769,156.567,160.8312,163.164,167.797" svgx:width="0.48,0.22,0.48,0.55,0.7,0.22,0.55,0.69,0.55,0.29,0.26,0.36,0.36,0.3,0.55,0.52,0.26,0.36,0.42,0.53,0.44,0.36,0.46,0.42,0.55,0.42,0.44,0.52,0.44,0.42,0.26,0.3,0.46,0.55,0.5,0.29" style="fill:rgb(0,0,0);font-family:AdvOT1ef757c0;font-size:9.27px;stroke:none;">1.5 V. A first discharge capacity of</text>
   <text y="702.48" x="172.857" svgx:width="0.83" style="fill:rgb(0,0,0);font-family:AdvP7DB7;font-size:9.27px;stroke:none;">,</text>
   <text y="702.48" x="180.568,185.006,189.444,193.8936,196.953,204.476,210.841,215.761,218.745,223.0092,225.356,227.765,231.10219999999998,233.52,238.153,242.785,246.158,250.012,253.385,257.628,261.483,266.301,268.3404,270.711,277.465,282.283,286.916" svgx:width="0.48,0.48,0.48,0.55,0.81,0.69,0.53,0.32,0.46,0.55,0.26,0.36,0.55,0.5,0.5,0.36,0.42,0.36,0.46,0.42,0.52,0.22,0.55,0.73,0.52,0.5,0.54" style="fill:rgb(0,0,0);font-family:AdvOT1ef757c0;font-size:9.27px;stroke:none;">196 mAh/g is observed. Upon</text>
   <text y="713.138" x="42.861,46.234,50.088,53.943,58.863,62.911,66.284,70.528,74.382,76.4214,78.522,83.34,87.194,90.474,92.79,95.199,97.997,102.917,105.326,109.375,112.173,114.582,119.215,124.2208,126.371,131.004,133.6923,135.84,140.658,145.476,148.848,153.666,158.484,161.857,164.266,169.27179999999998,171.5,174.298,178.347,182.878,186.732,190.0692,192.25,197.068,199.384,203.433,207.287,211.18040000000002,213.283,215.692,220.6978,222.921,225.719,231.991,236.626,238.795,242.167,244.965,248.82,253.638,256.97520000000003,259.148,263.781,268.413,271.786,275.64,279.013,283.256,287.111" svgx:width="0.36,0.42,0.42,0.53,0.44,0.36,0.46,0.42,0.22,0.55,0.52,0.42,0.35,0.25,0.26,0.3,0.53,0.26,0.44,0.3,0.26,0.5,0.54,0.55,0.5,0.29,0.55,0.52,0.52,0.36,0.52,0.52,0.36,0.26,0.54,0.55,0.3,0.44,0.49,0.42,0.36,0.55,0.52,0.25,0.44,0.42,0.42,0.55,0.26,0.54,0.55,0.3,0.68,0.5,0.55,0.36,0.3,0.42,0.52,0.36,0.55,0.5,0.5,0.36,0.42,0.36,0.46,0.42,0.52" style="fill:rgb(0,0,0);font-family:AdvOT1ef757c0;font-size:9.27px;stroke:none;">recharge, de-lithiation of purpurin takes place in two steps observed</text>
   <text y="723.796" x="42.861,45.27,50.275800000000004,52.499,55.297,60.217,64.1104,66.276,68.972,73.605,76.977,84.48570000000001,86.742,91.375,94.0633,96.323,99.121,105.394,110.02900000000001,112.254,117.072,119.388,123.437,126.235,130.09,134.138,138.9584,141.167,144.54,148.394,152.638,155.047,159.679,164.692,168.0292,170.251,172.947,176.32,180.952,188.4607,190.717,195.155,197.175,201.62460000000002,204.663,211.15200000000002,213.394,216.192,220.827,223.032,227.47,229.49,233.9396,236.978,243.467,245.708,249.757,254.77,259.5904,261.81,266.248,268.268,272.71759999999995,275.813,282.30199999999996,284.487,287.286" svgx:width="0.26,0.54,0.55,0.3,0.53,0.42,0.55,0.29,0.5,0.36,0.81,0.55,0.5,0.29,0.55,0.3,0.68,0.5,0.55,0.52,0.25,0.44,0.3,0.42,0.44,0.52,0.55,0.36,0.42,0.46,0.26,0.5,0.54,0.36,0.55,0.29,0.36,0.5,0.81,0.55,0.48,0.22,0.48,0.55,0.7,0.55,0.3,0.5,0.55,0.48,0.22,0.48,0.55,0.7,0.55,0.44,0.54,0.52,0.55,0.48,0.22,0.48,0.55,0.7,0.55,0.3,0.5" style="fill:rgb(0,0,0);font-family:AdvOT1ef757c0;font-size:9.27px;stroke:none;">in the form of two plateau regions from 2.2 V to 2.7 V and 2.7 V to</text>
   <text y="734.454" x="42.861,47.299,49.317,53.7666,56.806,63.263,65.30239999999999,68.03,73.718,78.637,83.454,86.79119999999999,89.571,92.368,97.287,101.1804,103.912,108.544,113.176,116.547,120.401,123.772,128.015,131.868,136.6884,139.396,143.249,148.168,152.216,155.588,159.83,163.684,166.666,171.483,173.891,177.263,181.116,186.035,190.083,193.455,197.698,201.59140000000002,204.339,208.971,212.824,217.743,221.791,226.034,228.442,233.073,236.4102,239.142,241.837,245.209,249.841,257.3497,260.116,264.359,268.407,270.722,274.965,279.013,284.024,288.656" svgx:width="0.48,0.22,0.48,0.55,0.7,0.22,0.55,0.61,0.53,0.52,0.36,0.55,0.3,0.53,0.42,0.55,0.5,0.5,0.36,0.42,0.36,0.46,0.42,0.52,0.55,0.42,0.53,0.44,0.36,0.46,0.42,0.32,0.52,0.26,0.36,0.42,0.53,0.44,0.36,0.46,0.42,0.55,0.5,0.42,0.53,0.44,0.46,0.26,0.5,0.36,0.55,0.29,0.36,0.5,0.81,0.55,0.46,0.44,0.25,0.46,0.44,0.54,0.5,0.35" style="fill:rgb(0,0,0);font-family:AdvOT1ef757c0;font-size:9.27px;stroke:none;">3.3 V. Thus the observed charge/discharge behavior from galvano-</text>
   <text y="745.112" x="42.861,46.234,49.032,53.081,55.879,58.288,62.1814,64.122,71.645,75.499,79.548,82.921,87.739,91.111,94.966,102.489,106.343,111.291,114.072,116.11,118.519,121.8562,123.877,126.286,131.2918,133.288,137.531,142.164,146.797,151.6174,153.641,157.69,161.933,165.306,169.16,173.015,180.538,184.393,189.405,192.186,194.177,200.449,202.858,205.656,210.5691,212.545,216.4,220.643,224.497,226.814,229.223,233.1164,235.052,239.296,243.929,246.245,249.043,253.092,260.615,268.139,272.772,277.015,280.388,284.437" svgx:width="0.36,0.3,0.44,0.3,0.26,0.42,0.55,0.81,0.42,0.44,0.36,0.52,0.36,0.42,0.81,0.42,0.54,0.3,0.55,0.26,0.36,0.55,0.26,0.54,0.55,0.46,0.5,0.5,0.52,0.55,0.44,0.46,0.36,0.42,0.42,0.81,0.42,0.54,0.3,0.55,0.68,0.26,0.3,0.53,0.55,0.42,0.46,0.42,0.25,0.26,0.42,0.55,0.46,0.5,0.25,0.3,0.44,0.81,0.81,0.5,0.46,0.36,0.44,0.81" style="fill:rgb(0,0,0);font-family:AdvOT1ef757c0;font-size:9.27px;stroke:none;">static measurement is in good agreement with cyclic voltammogram</text>
   <text y="425.081" x="303.875,311.399,315.253,319.302,322.674,327.492,330.865,334.719,342.243,346.097,351.045,353.843,357.215,359.2544,361.986,367.675,372.595,376.4884,379.221,383.075,387.124,391.942,395.991,399.845,402.254,405.052,409.31620000000004,411.989,414.305,418.938,422.311,425.6482,428.43,430.839,435.8448,438.579,441.377,446.297,450.1904,452.922,456.295,461.113,465.745,469.118,472.972,477.698,482.516,486.37,491.383,494.164,496.86,500.715,504.958,508.812,511.129,514.983,518.3202,521.125,523.534,526.8712,529.629,533.678,536.476,539.274,542.646,545.055,549.688" svgx:width="0.81,0.42,0.44,0.36,0.52,0.36,0.42,0.81,0.42,0.54,0.3,0.36,0.22,0.55,0.61,0.53,0.42,0.55,0.42,0.44,0.52,0.44,0.42,0.26,0.3,0.46,0.55,0.25,0.5,0.36,0.36,0.55,0.26,0.54,0.55,0.3,0.53,0.42,0.55,0.36,0.52,0.5,0.36,0.42,0.51,0.52,0.42,0.54,0.3,0.55,0.42,0.46,0.42,0.25,0.42,0.36,0.55,0.26,0.36,0.55,0.44,0.3,0.3,0.36,0.26,0.5,0.35" style="fill:rgb(0,0,0);font-family:AdvOT1ef757c0;font-size:9.27px;stroke:none;">measurements. The capacity loss in the subsequent cycles is attrib-</text>
   <text y="435.739" x="303.875,308.693,311.491,315.346,320.1664,322.244,325.042,329.67699999999996,331.711,334.12,337.492,340.865,344.719,348.963,352.817,356.19,359.562,361.971,366.604,368.92,372.8134,374.798,379.616,382.989,387.621,391.476,395.33,398.703" svgx:width="0.52,0.3,0.42,0.52,0.55,0.3,0.5,0.55,0.26,0.36,0.36,0.42,0.46,0.42,0.36,0.36,0.26,0.5,0.25,0.42,0.55,0.52,0.36,0.5,0.42,0.42,0.36,0.36" style="fill:rgb(0,0,0);font-family:AdvOT1ef757c0;font-size:9.27px;stroke:none;">uted to irreversible process</text>
   <text y="432.34" x="402.066" svgx:width="0.48" style="fill:rgb(0,0,0);font-family:AdvOT1ef757c0;font-size:5.13px;stroke:none;">6</text>
   <text y="435.742" x="404.844,406.8834,408.926,413.743,418.56,421.932,424.729,429.648,433.502,436.873,438.9124,440.952,445.194,449.242,451.558,455.8,459.848,464.86,469.492,472.863,475.66,479.708,482.506,484.823,488.71639999999996,490.776,494.629,499.548,503.596,506.968,511.21,515.064,518.046,522.863,525.271,528.643,532.497,537.416,541.464,544.835,549.078" svgx:width="0.22,0.55,0.52,0.52,0.36,0.3,0.53,0.42,0.36,0.22,0.55,0.46,0.44,0.25,0.46,0.44,0.54,0.5,0.36,0.3,0.44,0.3,0.26,0.42,0.55,0.42,0.53,0.44,0.36,0.46,0.42,0.32,0.52,0.26,0.36,0.42,0.53,0.44,0.36,0.46,0.42" style="fill:rgb(0,0,0);font-family:AdvOT1ef757c0;font-size:9.27px;stroke:none;">. Further, galvanostatic charge/discharge</text>
   <text y="446.399" x="303.874,307.729,312.065,316.883,320.737,324.11,326.519,334.042,337.897,342.909,345.707,349.0442,351.781,358.053,361.908,365.28,369.17339999999996,371.907,375.761,380.394,385.406,390.224,395.042,398.897,401.695,405.549,410.3694,413.124,417.173,419.954,422.705,426.948,430.997,434.37,436.779,441.411,446.229,449.5662,452.356,456.21,461.028,464.401,467.773,471.627,476.64,479.438,482.7752,485.578,488.756,494.834,497.818,502.26759999999996,505.024,509.073,514.086,518.9064,521.635,527.713,530.697,535.135,539.573,542.7248,545.503,548.301" svgx:width="0.42,0.47,0.52,0.42,0.36,0.26,0.81,0.42,0.54,0.3,0.36,0.55,0.68,0.42,0.36,0.42,0.55,0.42,0.5,0.54,0.52,0.52,0.42,0.3,0.42,0.52,0.55,0.44,0.3,0.55,0.46,0.44,0.36,0.26,0.5,0.52,0.36,0.55,0.42,0.52,0.36,0.36,0.42,0.54,0.3,0.36,0.55,0.34,0.66,0.32,0.48,0.55,0.44,0.54,0.52,0.55,0.66,0.32,0.48,0.48,0.34,0.55,0.3,0.5" style="fill:rgb(0,0,0);font-family:AdvOT1ef757c0;font-size:9.27px;stroke:none;">experiments were conducted at various currents (C/2 and C/10) to</text>
   <text y="457.057" x="303.874,306.283,311.296,315.539,319.394,322.766,325.565,327.973,332.217,336.19,338.988,342.8814,346.282,349.08,354.0,357.8934,361.249,364.621,368.67,371.469,375.3624,378.71,382.565,386.614,391.432,395.48,400.113,402.522,404.838,407.247,410.046,414.3102,417.602,422.235,424.92330000000004,428.374,431.172,436.092,439.98539999999997,443.285,447.139,449.455,453.31,457.164,459.962,463.335,467.968,472.786,476.6794,480.023,487.546,491.595,494.393,498.248,501.62,504.029,508.078,510.394,512.4334,515.796,521.485,526.405,530.2984,533.655,537.509,542.142,549.665" svgx:width="0.26,0.54,0.46,0.42,0.36,0.3,0.26,0.46,0.44,0.3,0.42,0.55,0.3,0.53,0.42,0.55,0.36,0.44,0.3,0.42,0.55,0.42,0.44,0.52,0.44,0.5,0.26,0.25,0.26,0.3,0.46,0.55,0.5,0.29,0.55,0.3,0.53,0.42,0.55,0.42,0.25,0.42,0.42,0.3,0.36,0.5,0.52,0.42,0.55,0.81,0.44,0.3,0.42,0.36,0.26,0.44,0.25,0.22,0.55,0.61,0.53,0.42,0.55,0.42,0.5,0.81,0.35" style="fill:rgb(0,0,0);font-family:AdvOT1ef757c0;font-size:9.27px;stroke:none;">investigate the rate capability of the electrode material. The com-</text>
   <text y="467.773" x="303.874,308.692,312.741,316.114,320.163,322.961,325.37,329.613,333.5064,335.963,339.336,344.154,348.008,351.862,354.271,356.967,359.376,363.26939999999996,365.783,369.638,373.687,378.505,382.554,386.408,388.817,391.615" svgx:width="0.52,0.44,0.36,0.44,0.3,0.26,0.46,0.42,0.55,0.36,0.52,0.42,0.42,0.26,0.29,0.26,0.42,0.55,0.42,0.44,0.52,0.44,0.42,0.26,0.3,0.46" style="fill:rgb(0,0,0);font-family:AdvOT1ef757c0;font-size:9.27px;stroke:none;">parative specific capacity</text>
   <text y="467.773" x="398.381,402.43" svgx:width="0.44,0.33" style="fill:rgb(0,0,0);font-family:AdvOT7d6df7ab.I;font-size:9.27px;stroke:none;">vs</text>
   <text y="467.773" x="408.076,412.318,416.95,419.265,422.063,426.111,430.353,434.2464,436.701,439.878,442.573,444.981,448.353,451.725,454.50600000000003,457.049,460.903,465.145,468.999,471.314,475.2074,477.739,482.37,485.05830000000003,487.602,492.419,494.828,498.199,502.053,506.972,511.02,514.391,518.634,522.487,525.47,529.323,534.242,538.29,541.662,545.904,549.758" svgx:width="0.46,0.5,0.25,0.3,0.44,0.46,0.42,0.55,0.34,0.29,0.26,0.36,0.36,0.3,0.55,0.42,0.46,0.42,0.25,0.42,0.55,0.5,0.29,0.55,0.52,0.26,0.36,0.42,0.53,0.44,0.36,0.46,0.42,0.32,0.42,0.53,0.44,0.36,0.46,0.42,0.34" style="fill:rgb(0,0,0);font-family:AdvOT1ef757c0;font-size:9.27px;stroke:none;">voltage (first cycle of discharge/charge)</text>
   <text y="478.431" x="303.874,308.692,312.065,316.698,319.394,321.803,324.119,327.973,331.3102,335.452,340.085,342.7733,346.961,351.779,356.597,359.969,364.787,369.605,372.978,375.387,380.3928,384.492,388.541,391.322,395.491,399.345,404.163,407.536,410.908,414.762,419.775,422.556,426.729,430.101,434.15,436.948,440.803,444.1402,448.329,452.961,455.64930000000004,459.781,465.859,468.842,473.28,475.3194,479.454,485.532,488.515,492.953,497.40259999999995,501.508,505.557,510.569,515.3894,519.536,525.614,528.598,533.036,537.4856,541.647,545.696,549.068" svgx:width="0.52,0.36,0.5,0.29,0.26,0.25,0.42,0.36,0.55,0.5,0.29,0.55,0.52,0.52,0.36,0.52,0.52,0.36,0.26,0.54,0.55,0.44,0.3,0.55,0.42,0.52,0.36,0.36,0.42,0.54,0.3,0.55,0.36,0.44,0.3,0.42,0.36,0.55,0.5,0.29,0.55,0.66,0.32,0.48,0.22,0.55,0.66,0.32,0.48,0.48,0.55,0.44,0.54,0.52,0.55,0.66,0.32,0.48,0.48,0.55,0.44,0.36,0.42" style="fill:rgb(0,0,0);font-family:AdvOT1ef757c0;font-size:9.27px;stroke:none;">profiles of purpurin at current rates of C/2, C/10 and C/20 are</text>
   <text y="489.088" x="303.874,307.247,312.167,316.8,323.072,328.0778,330.237,332.646,337.65180000000004,339.875,344.693,347.102,351.345,356.163,359.536,363.4294,365.614,370.052,373.23,377.084,380.262,382.3014,384.493,390.182,395.102,398.99539999999996,401.161,405.015,409.648,414.661,417.459,422.091,426.909,430.2462,432.456,437.088,439.77630000000005,441.98,444.778,449.698,453.59139999999996,455.757,460.0,464.633,466.949,469.747,473.796,478.04" svgx:width="0.36,0.53,0.5,0.68,0.54,0.55,0.26,0.54,0.55,0.52,0.26,0.46,0.52,0.36,0.42,0.55,0.48,0.34,0.42,0.34,0.22,0.55,0.61,0.53,0.42,0.55,0.42,0.5,0.54,0.3,0.5,0.52,0.36,0.55,0.5,0.29,0.55,0.3,0.53,0.42,0.55,0.46,0.5,0.25,0.3,0.44,0.46,0.42" style="fill:rgb(0,0,0);font-family:AdvOT1ef757c0;font-size:9.27px;stroke:none;">shown in Figure 1(c). The contour of the voltage</text>
   <text y="489.088" x="484.044,488.093" svgx:width="0.44,0.33" style="fill:rgb(0,0,0);font-family:AdvOT7d6df7ab.I;font-size:9.27px;stroke:none;">vs</text>
   <text y="489.088" x="493.398,496.771,501.589,505.443,509.297,511.706,514.402,516.811,520.7044000000001,522.878,526.733,530.782,535.6,539.649,543.503,545.912,548.71" svgx:width="0.36,0.52,0.42,0.42,0.26,0.29,0.26,0.42,0.55,0.42,0.44,0.52,0.44,0.42,0.26,0.3,0.46" style="fill:rgb(0,0,0);font-family:AdvOT1ef757c0;font-size:9.27px;stroke:none;">specific capacity</text>
   <text y="499.746" x="303.874,307.729,312.547,315.919,320.163,324.0564,328.479,332.528,335.309,339.762,344.682,347.091,351.334,356.254,360.108,363.4452,367.938,371.793,376.611,379.983,383.356,387.21,392.223,395.004,399.516,402.889,406.938,409.736,413.59,416.92719999999997,421.4,426.033,428.72130000000004,433.192,439.27,442.254,446.7036,451.164,453.573,456.9102,461.425,465.669,469.523,472.896,477.16020000000003,481.608,484.98,487.389,494.913,497.322,499.638,503.687,507.0242,511.486,514.284,518.919,523.392,526.19,531.109,535.0024000000001,539.435,544.068,549.08" svgx:width="0.42,0.52,0.36,0.46,0.42,0.55,0.44,0.3,0.55,0.53,0.26,0.46,0.53,0.42,0.36,0.55,0.42,0.52,0.36,0.36,0.42,0.54,0.3,0.55,0.36,0.44,0.3,0.42,0.36,0.55,0.5,0.29,0.55,0.66,0.32,0.48,0.55,0.26,0.36,0.55,0.46,0.42,0.36,0.46,0.55,0.36,0.26,0.81,0.26,0.25,0.44,0.36,0.55,0.3,0.5,0.55,0.3,0.53,0.42,0.55,0.5,0.54,0.42" style="fill:rgb(0,0,0);font-family:AdvOT1ef757c0;font-size:9.27px;stroke:none;">curve at higher current rates of C/2 is very similar to the one</text>
   <text y="510.404" x="303.874,308.507,313.14,315.938,319.987,322.396,327.408,331.263,336.0834,339.082,343.131,345.912,348.946,351.263,355.895,362.168,366.022,369.3592,372.361,376.215,381.033,384.406,387.778,391.633,396.645,399.426,402.466,405.838,409.887,412.685,416.54,419.912,421.9514,424.916,430.605,435.525,439.41839999999996,442.378,447.196,449.605,452.977,456.832,461.751,465.8,469.173,473.416,477.3094,480.306,484.161,488.209,493.027,497.076,500.931,503.34,506.138,510.4022,513.358,517.991,520.6793,523.734,526.532,531.452,535.3454,538.304,541.0,543.409,546.782,550.154" svgx:width="0.5,0.5,0.3,0.44,0.26,0.54,0.42,0.52,0.55,0.44,0.3,0.55,0.25,0.5,0.68,0.42,0.36,0.55,0.42,0.52,0.36,0.36,0.42,0.54,0.3,0.55,0.36,0.44,0.3,0.42,0.36,0.22,0.55,0.61,0.53,0.42,0.55,0.52,0.26,0.36,0.42,0.53,0.44,0.36,0.46,0.42,0.55,0.42,0.44,0.52,0.44,0.42,0.26,0.3,0.46,0.55,0.5,0.29,0.55,0.3,0.53,0.42,0.55,0.29,0.26,0.36,0.36,0.3" style="fill:rgb(0,0,0);font-family:AdvOT1ef757c0;font-size:9.27px;stroke:none;">obtained at lower current rates. The discharge capacity of the first</text>
   <text y="521.062" x="303.874,308.692,311.101,314.474,318.328,323.248,327.297,330.67,334.913,338.8064,341.009,344.863,349.107,352.961,355.277,359.1704,361.418,365.467,368.248,370.489,374.5678,376.839,380.693,385.511,388.884,392.256,396.111,401.123,403.904,406.206,409.579,413.628,416.426,420.3194,422.533,427.166,429.8543,432.115,438.193,441.176,445.614,450.06359999999995,452.297,454.706,458.0432,460.404,467.928,472.746,476.6,481.5131,483.762,488.682,491.091,495.334,500.254,504.109,507.4462,509.728,512.526,517.446,521.495,526.5008,528.778,531.576,536.495,540.544,543.3249999999999,545.615,550.248" svgx:width="0.52,0.26,0.36,0.42,0.53,0.44,0.36,0.46,0.42,0.55,0.42,0.46,0.42,0.25,0.42,0.55,0.44,0.3,0.55,0.44,0.55,0.42,0.52,0.36,0.36,0.42,0.54,0.3,0.55,0.36,0.44,0.3,0.42,0.55,0.5,0.29,0.55,0.66,0.32,0.48,0.48,0.55,0.26,0.36,0.55,0.81,0.52,0.42,0.53,0.55,0.53,0.26,0.46,0.53,0.42,0.36,0.55,0.3,0.53,0.44,0.54,0.55,0.3,0.53,0.44,0.3,0.55,0.5,0.29" style="fill:rgb(0,0,0);font-family:AdvOT1ef757c0;font-size:9.27px;stroke:none;">discharge cycle at a current rate of C/20 is much higher than that of</text>
   <text y="531.72" x="303.874,309.952,312.936,317.374,321.8236,325.191,329.24,334.253,339.0734,342.426,348.504,351.487,355.925,357.9644,361.361,367.05,371.97,375.8634,379.22,384.038,387.892,391.747,395.119,398.974,403.022,406.395,410.28839999999997,413.633,416.042,421.0478,424.461,427.834,432.652,436.506,440.361,442.77,445.466,447.875,451.7684,455.076,458.93,462.979,467.797,471.846,475.7,478.109,480.908,485.17220000000003,488.525,492.574,495.355,498.787,503.707,506.116,510.359,515.279,519.133,522.4702000000001,525.829,529.684,534.502,537.874,541.247,545.101,550.114" svgx:width="0.66,0.32,0.48,0.48,0.55,0.44,0.54,0.52,0.55,0.66,0.32,0.48,0.22,0.55,0.61,0.53,0.42,0.55,0.52,0.42,0.42,0.36,0.42,0.44,0.36,0.42,0.55,0.26,0.54,0.55,0.36,0.52,0.42,0.42,0.26,0.29,0.26,0.42,0.55,0.42,0.44,0.52,0.44,0.42,0.26,0.3,0.46,0.55,0.44,0.3,0.55,0.53,0.26,0.46,0.53,0.42,0.36,0.55,0.42,0.52,0.36,0.36,0.42,0.54,0.3" style="fill:rgb(0,0,0);font-family:AdvOT1ef757c0;font-size:9.27px;stroke:none;">C/10 and C/2. The decrease in specific capacity at higher current</text>
   <text y="542.378" x="303.874,307.247,311.296,314.094,317.948,321.2852,323.604,326.013,329.3502,331.711,336.529,341.347,345.24039999999997,347.529,350.327,354.962,357.28,362.098,366.73,371.363,374.7002,377.066,380.92,383.236,387.091,390.945,393.743,397.116,401.749,406.75480000000005,409.041,412.896,417.528,422.541,427.359,432.177,436.031,438.829,441.238,445.482,447.891,450.689,454.95320000000004,457.231,461.864,464.5523,466.869,471.687,476.505,479.877,484.695,489.513,492.886,495.295,500.30080000000004,502.642,510.165,514.798,517.115,520.969,524.823,529.641,531.958,535.812,537.8514,540.117,549.085" svgx:width="0.36,0.44,0.3,0.42,0.36,0.55,0.26,0.36,0.55,0.52,0.52,0.42,0.55,0.3,0.5,0.55,0.52,0.5,0.5,0.36,0.55,0.42,0.25,0.42,0.42,0.3,0.36,0.5,0.54,0.55,0.42,0.5,0.54,0.52,0.52,0.42,0.3,0.26,0.46,0.26,0.3,0.46,0.55,0.5,0.29,0.55,0.52,0.52,0.36,0.52,0.52,0.36,0.26,0.54,0.55,0.81,0.5,0.25,0.42,0.42,0.52,0.25,0.42,0.22,0.55,0.97,0.42" style="fill:rgb(0,0,0);font-family:AdvOT1ef757c0;font-size:9.27px;stroke:none;">rates is due to poor electron conductivity of purpurin molecule. We</text>
   <text y="553.036" x="303.874,308.794,312.843,317.087,320.9804,324.397,328.446,330.762,334.135,338.77,342.199,346.053,350.686,358.209,363.027,367.076,370.448,374.303,379.1234,382.565,385.363,390.283,394.1764,397.588,402.221,406.27,409.068,411.866,415.721,419.093,423.35720000000003,426.729,431.547,435.401,438.774,441.47,446.102,449.475,456.998,461.047,466.06,469.914,473.8074,477.243,481.876,484.5643,488.015,492.833,496.206,498.615,501.987,504.785,507.194,512.207,516.1004,519.48,524.298,529.116,532.488,537.306,542.124,545.497,547.906" svgx:width="0.53,0.44,0.46,0.42,0.55,0.44,0.25,0.36,0.5,0.55,0.42,0.5,0.81,0.52,0.44,0.36,0.42,0.52,0.55,0.3,0.53,0.42,0.55,0.5,0.44,0.3,0.3,0.42,0.36,0.46,0.55,0.52,0.42,0.36,0.29,0.5,0.36,0.81,0.44,0.54,0.42,0.42,0.55,0.5,0.29,0.55,0.52,0.36,0.26,0.36,0.3,0.26,0.54,0.42,0.55,0.52,0.52,0.36,0.52,0.52,0.36,0.26,0.54" style="fill:rgb(0,0,0);font-family:AdvOT1ef757c0;font-size:9.27px;stroke:none;">have also compared the battery performance of pristine purpurin</text>
   <text y="563.693" x="303.874,311.398,316.031,318.347,322.201,326.056,330.874,333.19,337.044,340.3812,343.334,349.606,352.015,354.813,359.7261,362.666,365.464,370.384,374.432,377.213,380.183,384.816,387.5043,390.445,396.523,401.443,406.63419999999996,409.607,414.24,418.5042,421.456,425.31,429.943,434.955,438.328,441.126,444.499,449.317,453.171,455.969,458.307,463.319,467.58320000000003,470.553,474.602,479.614,484.247,487.045,491.965,495.819,499.1562,502.131,505.985,509.839,512.156,514.4735,517.381,523.654,526.063,528.861,533.7741,536.713,542.791,547.711" svgx:width="0.81,0.5,0.25,0.42,0.42,0.52,0.25,0.42,0.36,0.55,0.68,0.26,0.3,0.53,0.55,0.3,0.53,0.44,0.3,0.55,0.5,0.29,0.55,0.66,0.53,0.56,0.55,0.5,0.46,0.55,0.42,0.5,0.54,0.36,0.3,0.36,0.52,0.42,0.3,0.26,0.54,0.46,0.55,0.44,0.54,0.5,0.3,0.53,0.42,0.36,0.55,0.42,0.42,0.25,0.25,0.55,0.68,0.26,0.3,0.53,0.55,0.66,0.53,0.56" style="fill:rgb(0,0,0);font-family:AdvOT1ef757c0;font-size:9.27px;stroke:none;">molecules with that of CLP by constructing another cell with CLP</text>
   <text y="574.351" x="303.874,307.052,311.491,315.929,322.878,326.056,329.039,332.893,336.942,340.315,344.948,349.58,354.5858,358.017,361.195,365.633,370.071,377.02,380.17179999999996,383.7,387.749,391.0862,394.641,400.914,405.546,408.919,413.45,415.859,420.871,425.1352,428.6,432.455,434.771,438.625,442.48,445.278,448.65,453.283,458.101,461.955,463.9944,467.436,473.125,478.045,481.9384,485.408,489.651,494.284,496.6,499.398,503.447,507.691" svgx:width="0.34,0.48,0.48,0.75,0.34,0.32,0.42,0.44,0.36,0.5,0.5,0.54,0.55,0.34,0.48,0.48,0.75,0.34,0.55,0.44,0.36,0.55,0.68,0.5,0.36,0.49,0.26,0.54,0.46,0.55,0.42,0.25,0.42,0.42,0.3,0.36,0.5,0.52,0.42,0.22,0.55,0.61,0.53,0.42,0.55,0.46,0.5,0.25,0.3,0.44,0.46,0.42" style="fill:rgb(0,0,0);font-family:AdvOT1ef757c0;font-size:9.27px;stroke:none;">(80%)/carbon (20%) as working electrode. The voltage</text>
   <text y="574.351" x="515.055,519.104" svgx:width="0.44,0.33" style="fill:rgb(0,0,0);font-family:AdvOT7d6df7ab.I;font-size:9.27px;stroke:none;">vs</text>
   <text y="574.351" x="525.656,529.029,533.847,537.701,541.555,543.964,546.661,549.07" svgx:width="0.36,0.52,0.42,0.42,0.26,0.29,0.26,0.42" style="fill:rgb(0,0,0);font-family:AdvOT1ef757c0;font-size:9.27px;stroke:none;">specific</text>
   <text y="585.009" x="303.874,307.728,311.777,316.595,320.644,324.498,326.907,329.705,333.9692,335.849,340.667,342.983,347.616,350.414,353.7512,355.692,359.546,364.179,369.191,374.009,378.827,382.682,385.48,389.334,394.1544,396.114,400.163,402.944,404.902,410.98,413.963,418.401,422.8506,424.744,428.117,432.166,434.964,438.8574,440.789,445.422,449.276,452.074,458.347,462.201,466.055,471.06080000000003,472.991,477.429,479.449,483.8986,486.938,495.328,499.377,504.39,509.2104,511.146,515.584,517.604,522.0536000000001,525.149" svgx:width="0.42,0.44,0.52,0.44,0.42,0.26,0.3,0.46,0.55,0.52,0.25,0.5,0.3,0.36,0.55,0.42,0.5,0.54,0.52,0.52,0.42,0.3,0.42,0.52,0.55,0.44,0.3,0.55,0.66,0.32,0.48,0.48,0.55,0.36,0.44,0.3,0.42,0.55,0.5,0.42,0.3,0.68,0.42,0.42,0.54,0.55,0.48,0.22,0.48,0.55,0.7,0.44,0.54,0.52,0.55,0.48,0.22,0.48,0.55,0.7" style="fill:rgb(0,0,0);font-family:AdvOT1ef757c0;font-size:9.27px;stroke:none;">capacity plots conducted at C/20 rate between 3.7 Vand 1.5 V</text>
   <text y="585.009" x="533.536,537.585" svgx:width="0.44,0.33" style="fill:rgb(0,0,0);font-family:AdvOT7d6df7ab.I;font-size:9.27px;stroke:none;">vs</text>
   <text y="585.009" x="542.607,547.527,549.936" svgx:width="0.53,0.26,0.32" style="fill:rgb(0,0,0);font-family:AdvOT1ef757c0;font-size:9.27px;stroke:none;">Li/</text>
   <text y="595.667" x="303.874,308.793" svgx:width="0.53,0.26" style="fill:rgb(0,0,0);font-family:AdvOT1ef757c0;font-size:9.27px;stroke:none;">Li</text>
   <text y="592.271" x="311.187" svgx:width="0.83" style="fill:rgb(0,0,0);font-family:AdvP414BFB;font-size:5.13px;stroke:none;">1</text>
   <text y="595.672" x="319.351,322.724,327.644,332.276,338.549,343.5548,346.961,349.37,354.3758,357.733,362.551,364.96,369.203,374.021,377.394,381.2874,384.662,389.1,392.278,397.096,400.274,402.3134,405.695,409.55,411.866,415.72,419.769,423.142,425.458,429.72220000000004,433.022,435.431,440.443,445.261,447.67,451.524,455.573,458.371,462.226,465.5632,469.022,473.1008,476.449,479.247,483.491,488.309,490.718,494.572,498.621,500.9385,504.286,506.602,509.011,511.809,516.729,519.138,523.187,525.985,528.394,533.027,538.039,541.023,545.84,549.695" svgx:width="0.36,0.53,0.5,0.68,0.54,0.55,0.26,0.54,0.55,0.52,0.26,0.46,0.52,0.36,0.42,0.55,0.48,0.34,0.52,0.34,0.22,0.55,0.42,0.25,0.42,0.44,0.36,0.25,0.46,0.55,0.26,0.54,0.52,0.26,0.42,0.44,0.3,0.42,0.36,0.55,0.44,0.55,0.3,0.46,0.52,0.26,0.42,0.44,0.25,0.55,0.25,0.26,0.3,0.53,0.26,0.44,0.3,0.26,0.5,0.54,0.32,0.52,0.42,0.35" style="fill:rgb(0,0,0);font-family:AdvOT1ef757c0;font-size:9.27px;stroke:none;">shown in Figure 1(d), clearly indicates a typical lithiation/de-</text>
   <text y="606.33" x="303.874,306.191,308.6,311.398,316.318,318.727,322.776,325.574,327.983,332.615,337.62080000000003,340.952,345.585,349.439,354.359,358.408,362.652,365.061,369.693,373.0302,376.443,378.852,383.8578,387.271,393.349,398.269,403.4602,406.83,414.354,418.986,421.303,425.157,429.011,433.829,436.146,440.0,443.373,445.4124,448.784,454.473,459.392,463.2854,466.642,472.721,477.64,482.83119999999997,486.202,490.056,492.372,496.227,500.081,502.879,506.252,510.884,515.702,519.5954,522.939,526.312,531.232,535.864,542.137,545.4742,548.849" svgx:width="0.25,0.26,0.3,0.53,0.26,0.44,0.3,0.26,0.5,0.54,0.55,0.5,0.42,0.53,0.44,0.46,0.26,0.5,0.36,0.55,0.26,0.54,0.55,0.66,0.53,0.56,0.55,0.81,0.5,0.25,0.42,0.42,0.52,0.25,0.42,0.36,0.22,0.55,0.61,0.53,0.42,0.55,0.66,0.53,0.56,0.55,0.42,0.25,0.42,0.42,0.3,0.36,0.5,0.52,0.42,0.55,0.36,0.53,0.5,0.68,0.36,0.55,0.44" style="fill:rgb(0,0,0);font-family:AdvOT1ef757c0;font-size:9.27px;stroke:none;">lithiation behavior in CLP molecules. The CLP electrode shows a</text>
   <text y="616.988" x="303.874,307.246,311.099,315.342,319.195,322.567,325.939,328.347,332.978,335.294,339.18739999999997,341.794,345.648,349.696,354.513,358.561,362.414,364.822,367.62,371.8842,374.5,379.132,381.82030000000003,384.533,388.97,393.4196,396.495,404.017,410.382,415.301,418.283,422.54720000000003,425.178,429.226,431.922,434.719,438.572,441.9092,444.621,449.058,453.50759999999997,456.582,460.436,464.678,468.532,470.847,474.7,478.0372,480.786,485.418,488.10630000000003,490.763,494.616,499.535,503.583,506.955,511.197,515.051,518.033,522.85,525.258,528.63,532.483,537.402,541.45,544.822,549.065" svgx:width="0.36,0.42,0.46,0.42,0.36,0.36,0.26,0.5,0.25,0.42,0.55,0.42,0.44,0.52,0.44,0.42,0.26,0.3,0.46,0.55,0.5,0.29,0.55,0.48,0.48,0.55,0.81,0.69,0.53,0.32,0.46,0.55,0.44,0.29,0.3,0.42,0.36,0.55,0.48,0.48,0.55,0.42,0.46,0.42,0.25,0.42,0.36,0.55,0.5,0.29,0.55,0.42,0.53,0.44,0.36,0.46,0.42,0.32,0.52,0.26,0.36,0.42,0.53,0.44,0.36,0.46,0.42" style="fill:rgb(0,0,0);font-family:AdvOT1ef757c0;font-size:9.27px;stroke:none;">reversible capacity of 90 mAh/g after 50 cycles of charge/discharge</text>
   <text y="627.646" x="303.874,307.923,311.2602,316.687,321.32,325.953,329.325,333.18,336.552,340.796,344.65,349.4704,354.785,357.194,362.19980000000004,367.598,370.396,375.316,379.20939999999996,384.549,388.404,392.453,397.27,401.319,405.174,407.583,410.381" svgx:width="0.44,0.36,0.55,0.5,0.5,0.36,0.42,0.36,0.46,0.42,0.52,0.55,0.26,0.54,0.55,0.3,0.53,0.42,0.55,0.42,0.44,0.52,0.44,0.42,0.26,0.3,0.46" style="fill:rgb(0,0,0);font-family:AdvOT1ef757c0;font-size:9.27px;stroke:none;">as observed in the capacity</text>
   <text y="627.646" x="419.982,424.03" svgx:width="0.44,0.33" style="fill:rgb(0,0,0);font-family:AdvOT7d6df7ab.I;font-size:9.27px;stroke:none;">vs</text>
   <text y="627.646" x="432.454,436.308,440.551,444.406,446.722,450.61539999999997,455.981,460.993,465.811,473.335,477.968,481.822,485.1592,490.564,495.382,497.698,502.331,505.112,510.463,512.872" svgx:width="0.42,0.46,0.42,0.25,0.42,0.55,0.54,0.52,0.81,0.5,0.42,0.36,0.55,0.52,0.25,0.5,0.3,0.55,0.26,0.54" style="fill:rgb(0,0,0);font-family:AdvOT1ef757c0;font-size:9.27px;stroke:none;">cycle number plot in</text>
   <text y="627.646" x="523.276,525.777,530.697,533.783,537.442" svgx:width="0.27,0.53,0.33,0.4,0.3" style="fill:rgb(0,0,0);font-family:AdvOT7d6df7ab.I;font-size:9.27px;stroke:none;">inset</text>
   <text y="627.646" x="545.613,550.245" svgx:width="0.5,0.29" style="fill:rgb(0,0,0);font-family:AdvOT1ef757c0;font-size:9.27px;stroke:none;">of</text>
   <text y="638.304" x="303.874,308.692,311.101,315.345,320.163,323.535,327.4284,330.691,335.129,338.307,343.125,346.303,348.3424,351.668,357.746,362.666,366.714,371.727,375.97,379.825,383.1622,386.534,388.943,393.9488,397.306,400.678,405.496,408.869,411.565,415.614,419.468,423.3614,426.616,434.14,438.773,442.145,446.963,451.883,456.516,458.832,463.465,467.708,471.97220000000004,475.259,479.892,482.5803,485.918,489.772,492.089,495.943,499.798,502.596,505.968,510.601,515.419,519.3124,522.599,530.122,534.171,536.969,540.823,544.196,546.605,550.654" svgx:width="0.52,0.26,0.46,0.52,0.36,0.42,0.55,0.48,0.34,0.52,0.34,0.22,0.55,0.66,0.53,0.44,0.54,0.46,0.42,0.36,0.55,0.26,0.54,0.55,0.36,0.52,0.36,0.29,0.44,0.42,0.42,0.55,0.81,0.5,0.36,0.52,0.53,0.5,0.25,0.5,0.46,0.46,0.55,0.5,0.29,0.55,0.42,0.25,0.42,0.42,0.3,0.36,0.5,0.52,0.42,0.55,0.81,0.44,0.3,0.42,0.36,0.26,0.44,0.25" style="fill:rgb(0,0,0);font-family:AdvOT1ef757c0;font-size:9.27px;stroke:none;">Figure 1(d). Changes in surface morphology of electrode material</text>
   <text y="648.962" x="303.874,307.922,310.618,313.415,317.268,320.60519999999997,323.033,326.405,330.258,334.501,338.354,341.726,345.774,348.0915,350.524,354.378,358.62,362.474,364.789,368.642,371.9792,374.444,379.076,381.76430000000005,384.194,388.048,392.967,397.015,400.386,404.629,408.482,411.465,416.282,418.69,422.061,425.915,430.834,434.882,438.254,442.496,446.38939999999997,448.797,452.845,456.217,460.11039999999997,462.516,467.147,471.779,475.151,479.004,482.376,486.618,490.472,495.2924,497.716,502.533,505.905,508.313,513.325,517.5892,519.993,523.364,527.218,531.266,536.278,541.289,543.697,548.709" svgx:width="0.44,0.29,0.3,0.42,0.36,0.55,0.36,0.42,0.46,0.42,0.36,0.44,0.25,0.55,0.42,0.46,0.42,0.25,0.42,0.36,0.55,0.5,0.29,0.55,0.42,0.53,0.44,0.36,0.46,0.42,0.32,0.52,0.26,0.36,0.42,0.53,0.44,0.36,0.46,0.42,0.55,0.44,0.36,0.42,0.55,0.5,0.5,0.36,0.42,0.36,0.46,0.42,0.52,0.55,0.52,0.36,0.26,0.54,0.46,0.55,0.36,0.42,0.44,0.54,0.54,0.26,0.54,0.46" style="fill:rgb(0,0,0);font-family:AdvOT1ef757c0;font-size:9.27px;stroke:none;">after several cycles of charge/discharge are observed using scanning</text>
   <text y="659.62" x="303.874,307.729,310.045,313.899,317.754,320.552,323.924,328.557,333.56280000000004,336.303,343.826,346.235,350.09,353.462,358.095,361.468,365.322,369.955,374.773,379.03720000000004,381.772,384.95,389.286,393.14,397.0334,399.743,404.08,408.898,413.716,418.533,423.166,426.539,429.337,431.746,436.758,441.0222,443.738,446.147,451.159,453.856,458.488,461.861,469.384,473.433,476.231,478.64,483.273,488.27880000000005,491.021,495.839,498.247,502.491,507.309,510.682,514.5754000000001,517.327,521.663,526.101,529.279" svgx:width="0.42,0.25,0.42,0.42,0.3,0.36,0.5,0.54,0.55,0.81,0.26,0.42,0.36,0.5,0.36,0.42,0.5,0.52,0.46,0.55,0.34,0.47,0.42,0.42,0.55,0.47,0.52,0.52,0.52,0.5,0.36,0.3,0.26,0.54,0.46,0.55,0.26,0.54,0.29,0.5,0.36,0.81,0.44,0.3,0.26,0.5,0.54,0.55,0.52,0.26,0.46,0.52,0.36,0.42,0.55,0.47,0.48,0.34,0.22" style="fill:rgb(0,0,0);font-family:AdvOT1ef757c0;font-size:9.27px;stroke:none;">electron microscopy (See Supporting information Figure S1).</text>
   <text y="670.504" x="313.116,318.805,323.724,327.6174,329.16,333.978,338.611,341.983,345.356,347.765,352.398,354.714,358.6074,360.172,363.545,367.399,372.124,376.942,380.797,385.809,389.766,393.6594,395.152,399.785,402.47330000000005,404.11,406.426,408.835,411.634,416.553,418.962,423.011,425.809,428.218,432.851,437.864,440.847,445.665,449.519,452.799,455.116,457.525,460.323,465.243,467.651,471.7,474.499,476.908,481.54,486.54580000000004,488.187,495.711,499.565,503.419,508.339,512.388,517.401,519.81,523.182,532.351,534.76,539.7658,541.365,544.163,549.083" svgx:width="0.61,0.53,0.42,0.55,0.52,0.5,0.36,0.36,0.26,0.5,0.25,0.42,0.55,0.36,0.42,0.51,0.52,0.42,0.54,0.42,0.42,0.55,0.5,0.29,0.55,0.25,0.26,0.3,0.53,0.26,0.44,0.3,0.26,0.5,0.54,0.32,0.52,0.42,0.35,0.25,0.26,0.3,0.53,0.26,0.44,0.3,0.26,0.5,0.54,0.55,0.81,0.42,0.42,0.53,0.44,0.54,0.26,0.36,0.81,0.26,0.54,0.55,0.3,0.53,0.42" style="fill:rgb(0,0,0);font-family:AdvOT1ef757c0;font-size:9.27px;stroke:none;">The possible sequence of lithiation/de-lithiation mechanismin the</text>
   <text y="681.162" x="303.874,308.692,313.51,316.883,321.701,326.519,329.891,332.3,337.30580000000003,339.308,346.831,351.464,353.78,357.634,361.489,366.307,368.623,372.5164,374.515,376.924,380.2612,382.282,385.655,389.509,394.429,398.283,405.807,409.856,412.654,415.063,418.917,422.966,425.282,427.599,431.8632,433.873,437.246,441.1,445.918,449.29,453.145,456.517,460.372,465.384,468.182,472.037,476.8574,478.888,481.297,486.30280000000005,488.298,490.995,493.404,497.647,502.465,505.838,509.7314,511.713,516.1626,518.119,521.297,525.346,528.524,530.5634,532.575,537.393,540.766,545.398" svgx:width="0.52,0.52,0.36,0.52,0.52,0.36,0.26,0.54,0.55,0.81,0.5,0.25,0.42,0.42,0.52,0.25,0.42,0.55,0.26,0.36,0.55,0.36,0.42,0.53,0.42,0.81,0.44,0.3,0.26,0.42,0.44,0.25,0.25,0.46,0.55,0.36,0.42,0.52,0.36,0.42,0.36,0.42,0.54,0.3,0.42,0.52,0.55,0.26,0.54,0.55,0.29,0.26,0.46,0.52,0.36,0.42,0.55,0.48,0.55,0.34,0.44,0.34,0.22,0.55,0.52,0.36,0.5,0.81" style="fill:rgb(0,0,0);font-family:AdvOT1ef757c0;font-size:9.27px;stroke:none;">purpurin molecule is schematically represented in figure 2 (a). From</text>
   <text y="691.82" x="303.874,306.571,308.98,313.223,318.041,321.414,325.3074,328.763,333.201,335.2404,338.684,341.862,346.3,349.4518,352.971,361.171,365.804,368.12,371.974,375.829,380.647,382.963,387.012,390.3492,393.904,397.277,400.075,403.448,408.266,412.12,414.918,419.736,423.109,427.00239999999997,430.472,435.104,437.7923,441.244,446.062,449.434,451.843,455.216,458.014,460.423,465.435,469.3284,472.822,477.64,482.458,485.83,490.648,495.466,498.839,501.248,506.2538,509.786,513.834,518.847,523.6673999999999,527.134,530.988,535.621,538.993,542.366,546.22,549.593" svgx:width="0.29,0.26,0.46,0.52,0.36,0.42,0.55,0.48,0.22,0.55,0.34,0.48,0.34,0.55,0.88,0.5,0.25,0.42,0.42,0.52,0.25,0.44,0.36,0.55,0.36,0.3,0.36,0.52,0.42,0.3,0.52,0.36,0.42,0.55,0.5,0.29,0.55,0.52,0.36,0.26,0.36,0.3,0.26,0.54,0.42,0.55,0.52,0.52,0.36,0.52,0.52,0.36,0.26,0.54,0.55,0.44,0.54,0.52,0.55,0.42,0.5,0.36,0.36,0.42,0.36,0.35" style="fill:rgb(0,0,0);font-family:AdvOT1ef757c0;font-size:9.27px;stroke:none;">figure 2, (1) Molecular structure of pristine purpurin and corres-</text>
   <text y="702.478" x="303.874,308.692,313.325,318.338,323.155,325.564,330.577,334.8412,339.364,344.284,348.528,353.345,356.718,361.351,365.594,369.449,374.45480000000003,379.049,385.322,389.176,392.549,396.44239999999996,400.99,403.306,407.355,411.987,415.842,418.158,422.013,426.8334,431.377,435.426,438.7632,443.339" svgx:width="0.52,0.5,0.54,0.52,0.26,0.54,0.46,0.55,0.53,0.46,0.52,0.36,0.5,0.46,0.42,0.54,0.55,0.68,0.42,0.36,0.42,0.55,0.25,0.44,0.5,0.42,0.25,0.42,0.52,0.55,0.44,0.36,0.55,0.76" style="fill:rgb(0,0,0);font-family:AdvOT1ef757c0;font-size:9.27px;stroke:none;">ponding hydrogen were labeled as H</text>
   <text y="704.012" x="450.425" svgx:width="0.44" style="fill:rgb(0,0,0);font-family:AdvOT1ef757c0;font-size:6.18px;stroke:none;">a</text>
   <text y="702.482" x="453.43,458.155" svgx:width="0.51,0.76" style="fill:rgb(0,0,0);font-family:AdvOT1ef757c0;font-size:9.27px;stroke:none;">H</text>
   <text y="704.012" x="465.222" svgx:width="0.53" style="fill:rgb(0,0,0);font-family:AdvOT1ef757c0;font-size:6.18px;stroke:none;">h</text>
   <text y="702.482" x="473.442,476.815,480.669,484.042,488.86,492.714,496.569,499.465,501.874,506.117,509.972,512.288,516.532,518.5714,523.106,528.313,532.946,536.319,539.691,542.1,546.733,549.049" svgx:width="0.36,0.42,0.36,0.52,0.42,0.42,0.3,0.26,0.46,0.42,0.25,0.46,0.22,0.55,0.56,0.5,0.36,0.36,0.26,0.5,0.25,0.42" style="fill:rgb(0,0,0);font-family:AdvOT1ef757c0;font-size:9.27px;stroke:none;">respectively. Possible</text>
   <text y="713.14" x="303.874,306.191,308.6,311.398,316.318,318.727,323.545,331.0537,333.922,338.554,340.963,345.976,350.794,353.203,358.215,362.4792,365.387,369.241,373.874,377.246,381.13939999999997,383.982,386.391,391.39680000000004,394.243,399.061,403.879,407.252,412.07,416.888,420.26,422.669,427.6748,430.64,433.049,436.3862,439.258,442.631,447.55,452.183,458.456,463.46180000000004,466.357,470.99,475.2542,478.093,482.725,486.098,490.147,495.159,499.403,503.2964,506.156,510.011,514.643,516.96,521.592,524.9292,527.813,531.667,534.076,537.449,541.303,543.62,547.474,550.846" svgx:width="0.25,0.26,0.3,0.53,0.26,0.52,0.81,0.55,0.5,0.26,0.54,0.52,0.26,0.54,0.46,0.55,0.42,0.5,0.36,0.42,0.55,0.26,0.54,0.55,0.52,0.52,0.36,0.52,0.52,0.36,0.26,0.54,0.55,0.26,0.36,0.55,0.36,0.53,0.5,0.68,0.54,0.55,0.5,0.46,0.55,0.5,0.36,0.44,0.54,0.46,0.42,0.55,0.42,0.5,0.25,0.5,0.36,0.55,0.42,0.26,0.36,0.42,0.25,0.42,0.36,0.22" style="fill:rgb(0,0,0);font-family:AdvOT1ef757c0;font-size:9.27px;stroke:none;">lithium binding core in purpurin is shown by orange color circles;</text>
   <text y="723.797" x="303.874,307.052,311.491,314.64279999999997,318.445,323.652,328.285,331.657,335.03,337.439,342.072,344.388,348.28139999999996,352.064,355.437,359.291,363.535,367.389,370.762,374.134,376.543,381.176,383.492,387.3854,391.183,393.592,398.605,401.403,405.257,408.63,416.153,420.008,424.826,427.234,431.283,434.082,437.9754,441.811,446.443,449.1313,452.923,455.239,457.648,460.446,465.366,467.775,471.824,474.622,478.476,483.2964,487.109,491.927,496.745,500.117,504.935,509.753,513.126,515.535,520.5408,524.413,528.462,533.474,538.2944,542.101,545.279,549.717" svgx:width="0.34,0.48,0.34,0.55,0.56,0.5,0.36,0.36,0.26,0.5,0.25,0.42,0.55,0.36,0.42,0.46,0.42,0.36,0.36,0.26,0.5,0.25,0.42,0.55,0.26,0.54,0.3,0.42,0.36,0.81,0.42,0.52,0.26,0.44,0.3,0.42,0.55,0.5,0.29,0.55,0.25,0.26,0.3,0.53,0.26,0.44,0.3,0.42,0.52,0.55,0.52,0.52,0.36,0.52,0.52,0.36,0.26,0.54,0.55,0.44,0.54,0.52,0.55,0.34,0.48,0.34" style="fill:rgb(0,0,0);font-family:AdvOT1ef757c0;font-size:9.27px;stroke:none;">(2) Possible reversible intermediate of lithiated purpurin and (3)</text>
   <text y="734.455" x="303.874,309.276,311.685,316.698,321.516,323.925,328.937,333.20120000000003,338.174,342.806,345.4943,350.42,352.736,355.145,357.943,362.863,365.272,370.09,377.59869999999995,382.621,385.03,389.663,394.66880000000003,399.629,405.902,408.311,411.109,416.02209999999997,420.946,424.8,428.849,432.222,436.855,441.487,446.5,450.743,453.0605,458.081,462.324,465.697,470.329,475.147,479.965,483.30219999999997,488.298,492.931,495.6193,500.601,505.419,510.237,513.609,518.427,523.245,526.618,529.027,534.0328000000001,539.039,543.088,548.1" svgx:width="0.58,0.26,0.54,0.52,0.26,0.54,0.46,0.55,0.5,0.29,0.55,0.25,0.26,0.3,0.53,0.26,0.52,0.81,0.55,0.26,0.5,0.54,0.55,0.68,0.26,0.3,0.53,0.55,0.42,0.44,0.36,0.5,0.5,0.54,0.46,0.25,0.55,0.46,0.36,0.5,0.52,0.52,0.36,0.55,0.5,0.29,0.55,0.52,0.52,0.36,0.52,0.52,0.36,0.26,0.54,0.55,0.44,0.54,0.52" style="fill:rgb(0,0,0);font-family:AdvOT1ef757c0;font-size:9.27px;stroke:none;">Binding of lithium ion with carbonyl groups of purpurin and</text>
   <text y="745.113" x="303.874,308.794,313.038,317.856,321.228,325.861,330.197,334.441,336.75849999999997,341.972,346.216,349.588,354.221,359.039,363.857,367.1942,372.417,376.466,379.247,384.493,390.571,393.851,398.3006,403.485,406.663,411.388,418.235" svgx:width="0.53,0.46,0.52,0.36,0.5,0.47,0.46,0.25,0.55,0.46,0.36,0.5,0.52,0.52,0.36,0.55,0.44,0.3,0.55,0.66,0.35,0.48,0.55,0.34,0.51,0.74,0.76" style="fill:rgb(0,0,0);font-family:AdvOT1ef757c0;font-size:9.27px;stroke:none;">hydroxyl groups at C-1 (OH</text>
   <text y="746.646" x="425.253" svgx:width="0.44" style="fill:rgb(0,0,0);font-family:AdvOT1ef757c0;font-size:6.18px;stroke:none;">a</text>
   <text y="745.115" x="428.315,431.4668,436.705,440.754,445.767,450.5874,455.754,461.832,465.112,469.5616,474.746,477.924,482.649,489.496" svgx:width="0.34,0.55,0.44,0.54,0.52,0.55,0.66,0.35,0.48,0.55,0.34,0.51,0.74,0.76" style="fill:rgb(0,0,0);font-family:AdvOT1ef757c0;font-size:9.27px;stroke:none;">) and C-4 (OH</text>
   <text y="746.646" x="496.573" svgx:width="0.42" style="fill:rgb(0,0,0);font-family:AdvOT1ef757c0;font-size:6.18px;stroke:none;">c</text>
   <text y="745.115" x="499.464,502.6158,507.855,511.228,515.082,518.455,523.272,527.127,530.981,533.779,536.188,540.432,544.286,546.603,550.846" svgx:width="0.34,0.55,0.36,0.42,0.36,0.52,0.42,0.42,0.3,0.26,0.46,0.42,0.25,0.46,0.22" style="fill:rgb(0,0,0);font-family:AdvOT1ef757c0;font-size:9.27px;stroke:none;">) respectively.</text>
  </g>
  <rect style="fill:pink;opacity:0.2;stroke:blue;stroke-width:0.3;" x="-0.113" y="17.524" height="36.964" width="595.446" title="2"/>
  <text y="17.524" class="image" id="image.2.1" width="595" height="36" x="-0.113" style="font-size:5.0px;">image.2.1.0_595.18_54</text>
  <rect style="fill:pink;opacity:0.2;stroke:blue;stroke-width:0.3;" x="129.43" y="69.456" height="268.157" width="336.813" title="2"/>
  <text y="69.456" class="image" id="image.2.2" width="336" height="268" x="129.43" style="font-size:5.0px;">image.2.2.129_466.69_338</text>
  <g begin="text">
   <text y="334.431" x="42.86,47.441,49.821,53.877,58.458,61.718,65.3601,68.144" svgx:width="0.54,0.28,0.48,0.54,0.38,0.43,0.55,0.49" style="fill:rgb(0,0,0);font-family:AdvOT5e4d79fc;font-size:8.47px;stroke:none;">Figure 1</text>
   <text y="334.431" x="74.721" svgx:width="0.26" style="fill:rgb(0,0,0);font-family:AdvOT5e4d79fc;font-size:8.97px;stroke:none;">|</text>
   <text y="334.431" x="78.576,81.752,85.453,88.6716,90.821,96.377,100.162,103.685,105.802,108.088,111.6454,113.838,117.716,122.12,124.237,126.879,130.58,137.54,144.501,148.905,152.783,155.866,159.566,166.527,169.49149999999997,171.832,176.236,178.6923,180.903,185.399,189.981,193.063,197.56,202.141,205.223,207.51,212.0838,214.35,217.873,219.99,223.513,227.036,229.678,232.76,237.164,241.66,245.2174,247.401,249.687,254.26080000000002,256.472,260.5376,263.389,273.14,276.138,280.541,282.658,287.24,289.882,292.168,296.572,301.1458,303.413,307.816,310.2723,312.483,316.98,319.266,324.025" svgx:width="0.38,0.44,0.38,0.55,0.66,0.45,0.42,0.25,0.27,0.42,0.55,0.46,0.52,0.25,0.31,0.44,0.82,0.82,0.52,0.46,0.36,0.44,0.82,0.35,0.55,0.52,0.29,0.55,0.53,0.54,0.36,0.53,0.54,0.36,0.27,0.54,0.55,0.42,0.25,0.42,0.42,0.31,0.36,0.52,0.53,0.42,0.55,0.27,0.54,0.55,0.48,0.55,0.89,0.35,0.52,0.25,0.54,0.31,0.27,0.52,0.54,0.55,0.52,0.29,0.55,0.53,0.27,0.56,0.51" style="fill:rgb(0,0,0);font-family:AdvP7627;font-size:8.47px;stroke:none;">(a) Cyclic voltammograms of purpurin electrode in 1 Msolution of LiPF</text>
   <text y="335.849" x="328.422" svgx:width="0.48" style="fill:rgb(0,0,0);font-family:AdvP7627;font-size:5.64px;stroke:none;">6</text>
   <text y="334.431" x="333.638,335.924,340.4978,342.709" svgx:width="0.27,0.54,0.55,0.48" style="fill:rgb(0,0,0);font-family:AdvP7627;font-size:8.47px;stroke:none;">in 1</text>
   <text y="334.431" x="346.79" svgx:width="0.55" style="fill:rgb(0,0,0);font-family:AdvP3F0CD3;font-size:8.47px;stroke:none;">5</text>
   <text y="334.431" x="351.44,355.5056,357.732,360.908,364.786,367.513,371.391,374.6096,376.781,383.741,386.028,389.991,392.633,397.214,400.297,403.8544,406.033,410.437,412.8933,415.16,418.683,421.325,425.822,429.607,431.724,435.247,439.828,443.38539999999995,445.547,449.069,452.77,455.852,460.171,464.575,469.156,472.857,475.499,479.0564,481.318,484.494,489.168,494.723,497.9416,500.083,503.783,508.365,512.8541,515.106,519.603,521.889,528.85,532.373,535.015,539.512,543.297" svgx:width="0.48,0.55,0.38,0.46,0.32,0.46,0.38,0.55,0.82,0.27,0.47,0.31,0.54,0.36,0.42,0.55,0.52,0.29,0.55,0.42,0.31,0.53,0.45,0.25,0.42,0.54,0.42,0.55,0.42,0.44,0.36,0.51,0.52,0.54,0.44,0.31,0.42,0.55,0.38,0.55,0.66,0.38,0.55,0.44,0.54,0.53,0.55,0.53,0.27,0.82,0.42,0.31,0.53,0.45,0.25" style="fill:rgb(0,0,0);font-family:AdvP7627;font-size:8.47px;stroke:none;">1 (v/v) mixture of ethylene carbonate (EC) and dimethyl</text>
   <text y="344.919" x="42.861,46.384,50.084,53.167,57.485,61.889,66.47,70.171,72.813,76.3704,78.066,81.241,87.415,94.994,100.549,103.7676,105.391,109.092,112.0565,113.781,116.423,120.92,124.4774,126.14,129.662,131.78,135.302,138.825,141.467,144.55,148.953,151.07,154.855,157.497,161.05440000000002,162.705,168.438,170.725,173.367,177.8561,179.599,184.096,186.3829,188.046,191.747,194.7115,196.437,199.959,204.363,208.944,213.526,216.168,219.69,222.7392,224.499,228.199,232.781,237.2701,238.955,242.037,245.56,248.024,251.547,254.629,258.152,262.733,266.256,269.81339999999994,271.495,275.017,277.134,280.657,284.18,286.822,289.904,294.308,298.805,302.3624,304.035,307.211,310.209,313.731,317.432,322.0058,323.707,326.789,330.49,333.132,336.655,338.6878,340.374,344.43,346.454,350.5196,353.357,360.317,365.957" svgx:width="0.42,0.44,0.36,0.51,0.52,0.54,0.44,0.31,0.42,0.55,0.38,0.73,0.89,0.66,0.38,0.55,0.44,0.35,0.55,0.31,0.53,0.42,0.55,0.42,0.25,0.42,0.42,0.31,0.36,0.52,0.25,0.45,0.31,0.42,0.55,0.68,0.27,0.31,0.53,0.55,0.53,0.27,0.55,0.44,0.35,0.55,0.42,0.52,0.54,0.54,0.31,0.42,0.36,0.55,0.44,0.54,0.53,0.55,0.36,0.42,0.29,0.42,0.36,0.42,0.54,0.42,0.42,0.55,0.42,0.25,0.42,0.42,0.31,0.36,0.52,0.53,0.42,0.55,0.38,0.35,0.42,0.44,0.54,0.55,0.36,0.44,0.31,0.42,0.24,0.55,0.48,0.24,0.48,0.55,0.82,0.67,0.35" style="fill:rgb(0,0,0);font-family:AdvP7627;font-size:8.47px;stroke:none;">carbonate (DMC) as the electrolyte with Li as counter and reference electrode (scan rate: 0.1 mVs</text>
   <text y="341.802" x="368.957" svgx:width="0.83" style="fill:rgb(0,0,0);font-family:AdvP414BFB;font-size:4.69px;stroke:none;">2</text>
   <text y="341.802" x="373.379" svgx:width="0.48" style="fill:rgb(0,0,0);font-family:AdvP7627;font-size:4.69px;stroke:none;">1</text>
   <text y="344.92" x="375.874,379.049,381.0818,382.734,385.91,390.228,393.4466,395.092,400.732,405.136,407.253,409.895,413.595,417.474" svgx:width="0.38,0.24,0.55,0.38,0.51,0.38,0.55,0.67,0.52,0.25,0.31,0.44,0.46,0.42" style="fill:rgb(0,0,0);font-family:AdvP7627;font-size:8.47px;stroke:none;">). (b) Voltage</text>
   <text y="344.92" x="422.702,426.403" svgx:width="0.44,0.32" style="fill:rgb(0,0,0);font-family:AdvP705F;font-size:8.47px;stroke:none;">vs</text>
   <text y="344.92" x="430.81,433.807,438.304,441.827,445.35,447.636,450.1,452.387,455.9444,457.624,461.147,465.644,469.344,472.427,476.305,479.828,482.91,487.407,489.693,492.691,496.214,500.71,504.411,507.493,511.372,514.9294,516.639,520.162,523.862,528.359,532.06,535.582,537.954,540.596,544.4075,546.061,550.464" svgx:width="0.35,0.53,0.42,0.42,0.27,0.29,0.27,0.42,0.55,0.42,0.53,0.44,0.36,0.46,0.42,0.36,0.53,0.27,0.35,0.42,0.53,0.44,0.36,0.46,0.42,0.55,0.42,0.44,0.53,0.44,0.42,0.27,0.31,0.45,0.55,0.52,0.29" style="fill:rgb(0,0,0);font-family:AdvP7627;font-size:8.47px;stroke:none;">specific charge-discharge capacity of</text>
   <text y="355.351" x="42.861,47.358,51.939,55.021,59.518,64.099,67.182,69.468,74.04180000000001,75.855,79.378,81.495,85.018,88.54,91.182,94.265,98.668,103.165,106.72240000000001,108.452,111.974,115.76,119.282,121.399,124.922,129.4111,131.241,134.942,137.5677,139.348,143.0748,144.79,150.345,153.072,157.129,161.19459999999998,162.932,166.014,169.715,172.357,175.9144,177.672,181.99,185.513,188.155,193.888,197.411,200.934,205.5078,207.32,211.377,213.401,217.4666,220.303,227.673,231.373,235.955,240.44410000000002,242.242,246.299,248.323,252.3886,255.225" svgx:width="0.53,0.54,0.36,0.53,0.54,0.36,0.27,0.54,0.55,0.42,0.25,0.42,0.42,0.31,0.36,0.52,0.53,0.42,0.55,0.42,0.45,0.42,0.25,0.42,0.53,0.55,0.44,0.31,0.55,0.44,0.55,0.66,0.32,0.48,0.48,0.55,0.36,0.44,0.31,0.42,0.55,0.51,0.42,0.31,0.68,0.42,0.42,0.54,0.55,0.48,0.24,0.48,0.55,0.67,0.44,0.54,0.53,0.55,0.48,0.24,0.48,0.55,0.67" style="fill:rgb(0,0,0);font-family:AdvP7627;font-size:8.47px;stroke:none;">purpurin electrode cycled at a C/20 rate between 3.7 Vand 1.5 V</text>
   <text y="355.351" x="262.602,266.303" svgx:width="0.44,0.32" style="fill:rgb(0,0,0);font-family:AdvP705F;font-size:8.47px;stroke:none;">vs</text>
   <text y="355.351" x="270.823,275.319,277.606,280.332,284.829" svgx:width="0.53,0.27,0.32,0.53,0.27" style="fill:rgb(0,0,0);font-family:AdvP7627;font-size:8.47px;stroke:none;">Li/Li</text>
   <text y="352.233" x="287.15" svgx:width="0.83" style="fill:rgb(0,0,0);font-family:AdvP414BFB;font-size:4.69px;stroke:none;">1</text>
   <text y="355.351" x="293.272,295.559,300.13280000000003,301.89,305.9556,308.806,318.104,321.101,325.505,327.622,332.203,334.845,337.132,341.535,346.10880000000003,347.923,352.326,354.7823,356.597,361.093,363.38,368.139" svgx:width="0.27,0.54,0.55,0.48,0.55,0.89,0.35,0.52,0.25,0.54,0.31,0.27,0.52,0.54,0.55,0.52,0.29,0.55,0.53,0.27,0.56,0.51" style="fill:rgb(0,0,0);font-family:AdvP7627;font-size:8.47px;stroke:none;">in 1 Msolution of LiPF</text>
   <text y="356.768" x="372.472" svgx:width="0.48" style="fill:rgb(0,0,0);font-family:AdvP7627;font-size:5.64px;stroke:none;">6</text>
   <text y="355.351" x="377.234,379.521,384.0948,385.908" svgx:width="0.27,0.54,0.55,0.48" style="fill:rgb(0,0,0);font-family:AdvP7627;font-size:8.47px;stroke:none;">in 1</text>
   <text y="355.351" x="389.933" svgx:width="0.55" style="fill:rgb(0,0,0);font-family:AdvP3F0CD3;font-size:8.47px;stroke:none;">5</text>
   <text y="355.351" x="394.639,398.7046,400.422,403.598,407.476,410.203,414.081,417.2996,419.073,426.034,428.321,432.284,434.926,439.507,442.59,446.14739999999995,447.872,452.275,454.7313,456.546,460.069,462.711,467.207,470.993,473.11,476.633,481.214,484.77139999999997,486.535,490.058,493.759,496.841,501.16,505.563,510.145,513.845,516.487,520.0444,521.797,524.972,529.647,535.202,538.4206,540.108,543.808,548.39" svgx:width="0.48,0.55,0.38,0.46,0.32,0.46,0.38,0.55,0.82,0.27,0.47,0.31,0.54,0.36,0.42,0.55,0.52,0.29,0.55,0.42,0.31,0.53,0.45,0.25,0.42,0.54,0.42,0.55,0.42,0.44,0.36,0.51,0.52,0.54,0.44,0.31,0.42,0.55,0.38,0.55,0.66,0.38,0.55,0.44,0.54,0.53" style="fill:rgb(0,0,0);font-family:AdvP7627;font-size:8.47px;stroke:none;">1 (v/v) mixture of ethylene carbonate (EC) and</text>
   <text y="365.839" x="42.861,47.357,49.644,56.605,60.128,62.77,67.266,71.052,73.16950000000001,75.401,78.924,82.624,85.707,90.025,94.429,99.01,102.711,105.353,108.9104,111.115,114.291,120.464,128.043,133.598,136.81660000000002,139.007,142.708,145.67249999999999,147.908,150.55,155.047,158.6044,160.777,164.3,166.417,169.94,173.462,176.105,179.187,183.59,185.708,189.493,192.135,195.658,197.6908,199.95,203.126,206.648,209.8666,212.025,217.14,221.636,225.1934,227.388,231.266,235.67,237.787,240.429,244.13,248.008,251.5654,253.749,258.246,261.328,265.732,268.196,270.483,272.6,276.122,279.0865,281.357,285.761,288.2173,290.428,294.924,299.506,302.588,307.085,311.666,314.748,317.035,321.60880000000003,323.875,327.576,330.2017,332.436,336.933,339.219,341.683,344.147,347.67,350.753,354.275,358.857,361.4827,363.729,367.252,371.833,374.916,377.998,381.521,386.102,388.72769999999997,390.998,394.08,397.781,400.423,403.946,406.9105,409.139,412.315,417.87,420.597,424.653,426.68580000000003,428.924,434.479,437.206,441.262,445.3276,447.519,451.219,455.801,460.2901,462.542,468.097,470.824,474.88,478.937,482.112,484.14480000000003,486.352,491.467,495.964,499.52139999999997,501.715,504.179,506.466,509.548,512.546,515.1717000000001,517.362,520.885,525.381,529.082,532.164,536.043,539.566" svgx:width="0.53,0.27,0.82,0.42,0.31,0.53,0.45,0.25,0.55,0.42,0.44,0.36,0.51,0.52,0.54,0.44,0.31,0.42,0.55,0.38,0.73,0.89,0.66,0.38,0.55,0.44,0.35,0.55,0.31,0.53,0.42,0.55,0.42,0.25,0.42,0.42,0.31,0.36,0.52,0.25,0.45,0.31,0.42,0.24,0.55,0.38,0.42,0.38,0.55,0.6,0.53,0.42,0.55,0.46,0.52,0.25,0.31,0.44,0.46,0.42,0.55,0.53,0.36,0.52,0.29,0.27,0.25,0.42,0.35,0.55,0.52,0.29,0.55,0.53,0.54,0.36,0.53,0.54,0.36,0.27,0.54,0.55,0.44,0.31,0.55,0.53,0.27,0.29,0.29,0.42,0.36,0.42,0.54,0.31,0.55,0.42,0.54,0.36,0.36,0.42,0.54,0.31,0.55,0.36,0.44,0.31,0.42,0.35,0.55,0.38,0.66,0.32,0.48,0.24,0.55,0.66,0.32,0.48,0.48,0.55,0.44,0.54,0.53,0.55,0.66,0.32,0.48,0.48,0.38,0.24,0.55,0.6,0.53,0.42,0.55,0.29,0.27,0.36,0.35,0.31,0.55,0.42,0.53,0.44,0.36,0.46,0.42,0.32" style="fill:rgb(0,0,0);font-family:AdvP7627;font-size:8.47px;stroke:none;">dimethyl carbonate (DMC) as the electrolyte. (c) The voltage profiles of purpurin at different current rates (C/2, C/10 and C/20). The first charge/</text>
   <text y="376.27" x="42.861,47.357,49.644,52.642,56.164,60.661,64.362,67.444,71.322,74.8794,76.648,80.171,84.752,87.835,91.713,95.236,98.2005,100.118,103.818,106.901,110.4584,112.249,116.746,119.828,123.351,126.349,129.872,134.453,137.095,140.618,145.1071,146.944,149.23,153.8038,155.618,158.26,162.756,166.3134,168.146,172.643,174.76,179.163,181.7887,183.623,187.323,191.905,196.3941,198.192,201.368,205.864,209.0826,210.891,216.531,220.934,223.051,225.694,229.394,233.273" svgx:width="0.53,0.27,0.35,0.42,0.53,0.44,0.36,0.46,0.42,0.55,0.42,0.54,0.36,0.46,0.42,0.35,0.55,0.44,0.36,0.42,0.55,0.53,0.36,0.42,0.35,0.42,0.54,0.31,0.42,0.53,0.55,0.27,0.54,0.55,0.31,0.53,0.42,0.55,0.53,0.25,0.52,0.31,0.55,0.44,0.54,0.53,0.55,0.38,0.53,0.38,0.55,0.67,0.52,0.25,0.31,0.44,0.46,0.42" style="fill:rgb(0,0,0);font-family:AdvP7627;font-size:8.47px;stroke:none;">discharge curves are presented in the plot and (d) Voltage</text>
   <text y="376.27" x="238.621,242.322" svgx:width="0.44,0.32" style="fill:rgb(0,0,0);font-family:AdvP705F;font-size:8.47px;stroke:none;">vs</text>
   <text y="376.27" x="246.898,249.896,254.392,257.915,261.438,263.724,266.188,268.475,272.0324,273.826,277.349,281.845,285.546,288.628,292.507,296.03,299.112,303.609,305.895,308.893,312.415,316.912,320.613,323.695,327.574,331.1314,333.01,336.533,340.233,344.73,348.431,351.953,354.24,356.882,360.69350000000003,362.49,366.893,369.34929999999997,371.22,376.775,381.272,386.0152,387.831,391.353,393.47,396.993,400.516,403.158,406.241,410.644,415.141,418.6984,420.541,424.064,427.849,431.372,433.489,437.011,441.50010000000003,443.33,447.031,449.6567,451.494,455.22080000000005,456.993,462.548,465.275,469.331,473.39660000000003,475.247,478.329,482.03,484.672,488.2294,489.987,494.306,497.828,500.47,506.203,509.726,513.249,517.8228,519.692,523.749,525.773,529.8386,532.675,538.3498999999999,540.102,543.802,548.384" svgx:width="0.35,0.53,0.42,0.42,0.27,0.29,0.27,0.42,0.55,0.42,0.53,0.44,0.36,0.46,0.42,0.36,0.53,0.27,0.35,0.42,0.53,0.44,0.36,0.46,0.42,0.55,0.42,0.44,0.53,0.44,0.42,0.27,0.31,0.45,0.55,0.52,0.29,0.55,0.66,0.53,0.56,0.55,0.42,0.25,0.42,0.42,0.31,0.36,0.52,0.53,0.42,0.55,0.42,0.45,0.42,0.25,0.42,0.53,0.55,0.44,0.31,0.55,0.44,0.55,0.66,0.32,0.48,0.48,0.55,0.36,0.44,0.31,0.42,0.55,0.51,0.42,0.31,0.68,0.42,0.42,0.54,0.55,0.48,0.24,0.48,0.55,0.67,0.55,0.44,0.54,0.53" style="fill:rgb(0,0,0);font-family:AdvP7627;font-size:8.47px;stroke:none;">specific charge-discharge capacity of CLP electrode cycled at a C/20 rate between 3.7 V and</text>
   <text y="386.758" x="42.861,46.917,48.941,53.006600000000006,55.787" svgx:width="0.48,0.24,0.48,0.55,0.67" style="fill:rgb(0,0,0);font-family:AdvP7627;font-size:8.47px;stroke:none;">1.5 V</text>
   <text y="386.758" x="62.874,66.574" svgx:width="0.44,0.32" style="fill:rgb(0,0,0);font-family:AdvP705F;font-size:8.47px;stroke:none;">vs</text>
   <text y="386.758" x="70.698,75.194,77.481,80.207,84.704" svgx:width="0.53,0.27,0.32,0.53,0.27" style="fill:rgb(0,0,0);font-family:AdvP7627;font-size:8.47px;stroke:none;">Li/Li</text>
   <text y="383.641" x="87.024" svgx:width="0.83" style="fill:rgb(0,0,0);font-family:AdvP414BFB;font-size:4.69px;stroke:none;">1</text>
   <text y="386.759" x="92.75,95.036,99.6098,101.026,105.0916,107.943,116.901,119.899,124.302,126.419,131.0,133.643,135.929,140.332,144.9058,146.324,150.727,153.1833,154.6,159.097,161.383,166.143" svgx:width="0.27,0.54,0.55,0.48,0.55,0.89,0.35,0.52,0.25,0.54,0.31,0.27,0.52,0.54,0.55,0.52,0.29,0.55,0.53,0.27,0.56,0.51" style="fill:rgb(0,0,0);font-family:AdvP7627;font-size:8.47px;stroke:none;">in 1 Msolution of LiPF</text>
   <text y="388.176" x="170.475" svgx:width="0.48" style="fill:rgb(0,0,0);font-family:AdvP7627;font-size:5.64px;stroke:none;">6</text>
   <text y="386.759" x="174.954,177.241,181.81480000000002,183.231" svgx:width="0.27,0.54,0.55,0.48" style="fill:rgb(0,0,0);font-family:AdvP7627;font-size:8.47px;stroke:none;">in 1</text>
   <text y="386.759" x="187.257" svgx:width="0.55" style="fill:rgb(0,0,0);font-family:AdvP3F0CD3;font-size:8.47px;stroke:none;">5</text>
   <text y="386.759" x="191.963,196.02859999999998,197.405,200.581,204.459,207.186,211.064,214.2826,215.659,222.62,224.906,228.87,231.512,236.093,239.175,242.7324,244.117,248.521,250.97729999999999,252.394,255.917,258.559,263.056,266.841,268.958,272.481,277.062,280.6194,281.986,285.509,289.21,292.292,296.611,301.014,305.596,309.296,311.938,315.49539999999996,316.908,320.083,324.758,330.313,333.53159999999997,334.879,338.579,343.161,347.6501,349.108,353.604,355.891,362.852,366.374,369.017,373.513,377.298,379.4155,380.797,384.32,388.021,391.103,395.422,399.826,404.494,408.195,410.837,414.39439999999996,415.719,418.894,425.068,432.647,438.202,441.4206,442.817,446.517,449.4815,450.923,453.566,458.062,461.6194,462.942,466.465,468.582,472.105,475.628,478.27,481.352,485.756,487.873,491.658,494.3,497.823" svgx:width="0.48,0.55,0.38,0.46,0.32,0.46,0.38,0.55,0.82,0.27,0.47,0.31,0.54,0.36,0.42,0.55,0.52,0.29,0.55,0.42,0.31,0.53,0.45,0.25,0.42,0.54,0.42,0.55,0.42,0.44,0.36,0.51,0.52,0.54,0.44,0.31,0.42,0.55,0.38,0.55,0.66,0.38,0.55,0.44,0.54,0.53,0.55,0.53,0.27,0.82,0.42,0.31,0.53,0.45,0.25,0.55,0.42,0.44,0.36,0.51,0.52,0.54,0.44,0.31,0.42,0.55,0.38,0.73,0.89,0.66,0.38,0.55,0.44,0.35,0.55,0.31,0.53,0.42,0.55,0.42,0.25,0.42,0.42,0.31,0.36,0.52,0.25,0.45,0.31,0.42,0.24" style="fill:rgb(0,0,0);font-family:AdvP7627;font-size:8.47px;stroke:none;">1 (v/v) mixture of ethylene carbonate (EC) and dimethyl carbonate (DMC) as the electrolyte.</text>
   <text y="386.759" x="501.335,504.155,508.558,511.285,514.545,517.103" svgx:width="0.33,0.52,0.32,0.38,0.3,0.24" style="fill:rgb(0,0,0);font-family:AdvP705F;font-size:8.47px;stroke:none;">Inset:</text>
   <text y="386.759" x="520.553,526.193,529.894,532.976,535.263,538.963,541.605,543.892,548.295" svgx:width="0.67,0.44,0.36,0.27,0.44,0.31,0.27,0.52,0.54" style="fill:rgb(0,0,0);font-family:AdvP7627;font-size:8.47px;stroke:none;">Variation</text>
   <text y="397.19" x="42.86,45.146,49.7198,51.931,56.427,58.714,61.712,65.234,69.731,73.432,76.514,80.392,83.9494,86.172,89.695,93.395,97.892,101.593,105.115,107.402,110.044" svgx:width="0.27,0.54,0.55,0.53,0.27,0.35,0.42,0.53,0.44,0.36,0.46,0.42,0.55,0.42,0.44,0.53,0.44,0.42,0.27,0.31,0.45" style="fill:rgb(0,0,0);font-family:AdvP7627;font-size:8.47px;stroke:none;">in discharge capacity</text>
   <text y="397.19" x="116.05,119.751" svgx:width="0.44,0.32" style="fill:rgb(0,0,0);font-family:AdvP705F;font-size:8.47px;stroke:none;">vs</text>
   <text y="397.19" x="124.724,128.247,132.032,135.555,137.672,141.2294,143.376,147.957,152.538,159.499,163.818,167.341,170.39020000000002,172.685,175.149,179.553,182.6022,184.873,187.515,192.012,195.5694,197.742,203.297,207.794,212.5372,214.75,218.273,220.39,223.912,227.435,230.077,233.16,237.563,242.06,245.582" svgx:width="0.42,0.45,0.42,0.25,0.42,0.55,0.54,0.54,0.82,0.51,0.42,0.36,0.55,0.29,0.52,0.36,0.55,0.31,0.53,0.42,0.55,0.66,0.53,0.56,0.55,0.42,0.25,0.42,0.42,0.31,0.36,0.52,0.53,0.42,0.24" style="fill:rgb(0,0,0);font-family:AdvP7627;font-size:8.47px;stroke:none;">cycle number for the CLP electrode.</text>
   <text y="23.924" x="382.45,390.728,398.964,407.201,410.758,416.935,423.462,426.559,432.626,436.863,442.59,446.147,451.414,457.711,466.518" svgx:width="0.71,0.71,0.71,0.28,0.52,0.55,0.24,0.51,0.34,0.48,0.28,0.44,0.53,0.76,0.54" style="fill:rgb(255,255,255);font-family:AdvOT144a03c1;font-size:10.96px;stroke:none;">www.nature.com/</text>
   <text y="23.924" x="472.932,477.864,482.905,486.127,492.089,498.39,501.831,505.053,508.845,512.067,517.108,521.579,527.541,534.182,540.593,545.064,548.505" svgx:width="0.41,0.42,0.25,0.5,0.53,0.27,0.25,0.3,0.25,0.42,0.36,0.5,0.56,0.54,0.36,0.27,0.41" style="fill:rgb(255,255,255);font-family:AdvOT1415ea69.B;font-size:10.96px;stroke:none;">scientificreports</text>
  </g>
  <path style="fill:rgb(23,22,21);stroke:none;stroke-width:1.0;" d="M129.430 51.820 L466.240 51.820 L466.240 319.980 L129.430 319.980 "/>
  <g begin="text">
   <text y="768.132" x="42.86,47.092,52.32,54.146,58.29,64.515,68.078,69.903,73.529,75.354" svgx:width="0.53,0.66,0.23,0.52,0.78,0.45,0.23,0.47,0.23,0.66" style="fill:rgb(178,178,177);font-family:AdvOT144a03c1;font-size:7.97px;stroke:none;">SCIENTIFIC</text>
   <text y="768.132" x="82.658,87.058,90.875,95.02,101.245,105.644,109.207" svgx:width="0.55,0.48,0.52,0.78,0.55,0.45,0.52" style="fill:rgb(178,178,177);font-family:AdvOT1415ea69.B;font-size:7.97px;stroke:none;">REPORTS</text>
   <text y="768.132" x="117.411,121.8742,123.987,128.8487,130.96,133.351,135.382,140.276,145.169,150.03070000000002,152.106,156.5692,158.682,164.078,170.884,172.71,175.101,177.107,182.0,186.894,189.301,194.195,199.088,203.982,208.876,213.355,216.503,219.157,223.139,227.698,232.592,237.486,242.379,247.273" svgx:width="0.56,0.55,0.61,0.55,0.3,0.55,0.61,0.61,0.61,0.55,0.56,0.55,0.68,0.85,0.23,0.3,0.55,0.61,0.61,0.3,0.61,0.61,0.61,0.61,0.56,0.4,0.33,0.51,0.57,0.61,0.61,0.61,0.61,0.61" style="fill:rgb(0,0,0);font-family:AdvOT735b620e;font-size:7.97px;stroke:none;">| 2 : 960 | DOI: 10.1038/srep00960</text>
   <text y="768.132" x="547.542" svgx:width="0.68" style="fill:rgb(0,0,0);font-family:AdvOTf32ed098.B;font-size:7.97px;stroke:none;">2</text>
  </g>
 </g>
</svg>
