<?xml version="1.0" encoding="UTF-8"?>
<svg height="778.132" width="2648.217" xmlns="http://www.w3.org/2000/svg">
 <g id="page" xmlns:svgx="http://www.xml-cml.org/schema/svgx">
  <g begin="text">
   <text y="280.63" x="42.86,47.678,51.532,54.905,57.601,62.234,65.606,73.13,76.984,81.8044,84.019,86.715,91.348,93.664,95.981,100.613,106.886,109.295,114.307" svgx:width="0.52,0.42,0.36,0.29,0.5,0.36,0.81,0.42,0.52,0.55,0.29,0.5,0.25,0.25,0.5,0.68,0.26,0.54,0.46" style="fill:rgb(0,0,0);font-family:AdvOT1ef757c0;font-size:9.27px;stroke:none;">performed following</text>
   <text y="280.63" x="120.812,124.472,128.808,131.894,134.979,137.481,140.279" svgx:width="0.4,0.47,0.33,0.33,0.27,0.3,0.53" style="fill:rgb(0,0,0);font-family:AdvOT7d6df7ab.I;font-size:9.27px;stroke:none;">ex-situ</text>
   <text y="280.63" x="147.459,153.147,158.355,168.775,173.593,176.966,181.598,185.453,189.307,194.125,198.943,202.316,206.17,209.543,211.5824,213.847,217.896,222.909,227.7294,229.948,232.747,237.666,241.55939999999998,243.725,247.579,249.896,253.75,257.604,260.403,263.775,268.408,272.262,277.182,281.036,288.56" svgx:width="0.61,0.56,0.88,0.52,0.36,0.5,0.42,0.42,0.52,0.52,0.36,0.42,0.36,0.22,0.55,0.44,0.54,0.52,0.55,0.3,0.53,0.42,0.55,0.42,0.25,0.42,0.42,0.3,0.36,0.5,0.42,0.53,0.42,0.81,0.35" style="fill:rgb(0,0,0);font-family:AdvOT1ef757c0;font-size:9.27px;stroke:none;">TEMprocedures, and the electrochem-</text>
   <text y="291.288" x="42.861,45.27,49.124,53.173,55.490500000000004,60.209,65.027,68.881,72.254,74.95,79.583,82.955,90.479,94.528,99.54,103.395,107.2884,111.971,118.243,122.292,125.6292,130.396,133.768,138.586,142.44,146.295,150.149,153.522,156.894,159.591,164.409,166.725,169.041,173.30519999999999,178.075,181.929,186.562,189.934,193.307,197.161,199.478,203.527,206.325,210.179,214.9994,219.745,222.543,227.178,231.877,234.675,239.595,243.4884,248.147,252.965,257.885,261.74,266.752,271.385,278.908,282.763,287.775" svgx:width="0.26,0.42,0.44,0.25,0.55,0.52,0.42,0.36,0.29,0.5,0.36,0.81,0.44,0.54,0.42,0.42,0.55,0.68,0.44,0.36,0.55,0.36,0.52,0.42,0.42,0.42,0.36,0.36,0.29,0.52,0.25,0.25,0.46,0.55,0.42,0.5,0.36,0.36,0.42,0.25,0.44,0.3,0.42,0.52,0.55,0.3,0.5,0.55,0.3,0.53,0.42,0.55,0.52,0.53,0.42,0.54,0.5,0.81,0.42,0.54,0.44" style="fill:rgb(0,0,0);font-family:AdvOT1ef757c0;font-size:9.27px;stroke:none;">ical performance was successfully correlated to the phenomena</text>
   <text y="301.946" x="42.861,47.493,52.126,55.499,59.353,62.726,66.969,70.823,75.6434,79.768,84.586,87.959,90.368,95.38,99.6442,103.749,109.438,114.645,122.845,124.8844,128.978,133.898,136.307,139.105,144.025,146.434,151.252,158.775,162.055,165.909,170.542,175.555,178.353,182.402,184.811,189.823,192.232,197.245,201.5092,205.628,209.482,214.115,221.638,226.456,231.089,235.907,240.92,245.737,249.0742,253.251,256.429,260.283,262.303,266.546,268.566,270.6054,274.738,278.592,280.909,284.763,288.617" svgx:width="0.5,0.5,0.36,0.42,0.36,0.46,0.42,0.52,0.55,0.52,0.36,0.26,0.54,0.46,0.55,0.61,0.56,0.88,0.22,0.55,0.53,0.26,0.3,0.53,0.26,0.52,0.81,0.35,0.42,0.5,0.54,0.3,0.44,0.26,0.54,0.26,0.54,0.46,0.55,0.42,0.5,0.81,0.52,0.5,0.52,0.54,0.52,0.36,0.55,0.34,0.42,0.22,0.46,0.22,0.22,0.55,0.42,0.25,0.42,0.42,0.35" style="fill:rgb(0,0,0);font-family:AdvOT1ef757c0;font-size:9.27px;stroke:none;">observed using TEM. Lithium-containing compounds (e.g., elec-</text>
   <text y="312.604" x="42.861,45.659,49.031,53.664,58.482,62.3754,66.275,73.798,77.847,80.646,84.5,87.872,90.281,94.33,96.647,100.019,102.0584,106.074,110.41,116.099,121.019,124.392,127.54379999999999,131.53,135.579,138.951,142.8444,146.837,150.691,154.74,158.113,160.522,162.838,167.10219999999998,171.045,175.863,179.718,183.961,187.334,191.383,196.201,200.055,204.8754,208.86,213.678,218.69,223.508,227.363,230.7002,234.768,238.623,240.939,244.793,248.648,251.446,254.818,259.451,264.45680000000004,268.444,273.077,276.931,280.98,288.503" svgx:width="0.3,0.36,0.5,0.52,0.42,0.55,0.81,0.44,0.3,0.42,0.36,0.26,0.44,0.25,0.36,0.22,0.55,0.47,0.61,0.53,0.36,0.34,0.55,0.44,0.36,0.42,0.55,0.42,0.44,0.36,0.26,0.25,0.46,0.55,0.52,0.42,0.46,0.36,0.44,0.52,0.42,0.52,0.55,0.52,0.54,0.52,0.42,0.36,0.55,0.42,0.25,0.42,0.42,0.3,0.36,0.5,0.54,0.55,0.5,0.42,0.44,0.81,0.36" style="fill:rgb(0,0,0);font-family:AdvOT1ef757c0;font-size:9.27px;stroke:none;">trode materials, SRLs) are easily degraded under electron beams</text>
   <text y="323.261" x="42.861,47.679,52.497,56.3904,59.302,62.1,66.735,69.62,72.418,77.338,81.2314,84.133,88.664,93.676,98.309,102.163,106.694,109.974,114.691,119.6968,122.628,126.482,129.178,131.874,135.729,139.583,142.364,145.305,148.483,150.892,152.912,156.766,158.786,160.8254,163.788,167.837,170.635,175.267,182.791,185.2,189.09339999999997,192.021,196.839,199.248,202.62,207.438,209.755,213.804,217.658,221.512,229.036,232.89,237.903,240.701,244.0382,247.071,251.703,255.9672,258.919,262.774,265.09,268.944,272.799,275.597,278.969,283.602,288.615" svgx:width="0.52,0.52,0.42,0.55,0.3,0.5,0.55,0.3,0.53,0.42,0.55,0.49,0.54,0.5,0.42,0.49,0.35,0.5,0.54,0.55,0.42,0.29,0.29,0.42,0.42,0.3,0.55,0.34,0.26,0.22,0.42,0.22,0.22,0.55,0.44,0.3,0.5,0.81,0.26,0.42,0.55,0.52,0.26,0.36,0.52,0.25,0.44,0.42,0.42,0.81,0.42,0.54,0.3,0.36,0.55,0.5,0.46,0.55,0.42,0.25,0.42,0.42,0.3,0.36,0.5,0.54,0.35" style="fill:rgb(0,0,0);font-family:AdvOT1ef757c0;font-size:9.27px;stroke:none;">due to the knock-on effect (i.e., atomic displacements by electron-</text>
   <text y="333.919" x="42.861,47.873,52.691,56.546,58.862,62.716,66.765,70.1022,73.589,77.443,82.076,84.392,86.709,89.118,92.49,94.899,99.532,104.544,107.917" svgx:width="0.54,0.52,0.42,0.25,0.42,0.44,0.36,0.55,0.42,0.5,0.25,0.25,0.26,0.36,0.26,0.5,0.54,0.36,0.34" style="fill:rgb(0,0,0);font-family:AdvOT1ef757c0;font-size:9.27px;stroke:none;">nuclear collisions)</text>
   <text y="330.52" x="111.175,113.937" svgx:width="0.48,0.48" style="fill:rgb(0,0,0);font-family:AdvOT1ef757c0;font-size:5.13px;stroke:none;">22</text>
   <text y="333.921" x="120.132,124.181,129.194,134.0144,137.481,140.279,145.199,149.053,152.426,159.949,163.998,166.3155,169.796,173.65,176.347,179.043,182.897,186.752,189.55,192.922,194.9614,198.427,201.512,204.293,207.781,210.19,213.5272,217.022,219.82,224.74,228.595,231.967,235.822,238.518,243.15,246.523,250.377,252.4164,255.914,259.769,263.141,265.55,268.348,270.757,274.612,278.661,280.9785,284.488,287.286" svgx:width="0.44,0.54,0.52,0.55,0.3,0.53,0.42,0.36,0.81,0.44,0.25,0.55,0.42,0.29,0.29,0.42,0.42,0.3,0.36,0.22,0.55,0.33,0.3,0.55,0.26,0.36,0.55,0.3,0.53,0.42,0.36,0.42,0.29,0.5,0.36,0.42,0.22,0.55,0.42,0.36,0.26,0.3,0.26,0.42,0.44,0.25,0.55,0.3,0.5" style="fill:rgb(0,0,0);font-family:AdvOT1ef757c0;font-size:9.27px;stroke:none;">and thermal effects. It is therefore, critical to</text>
   <text y="344.579" x="42.86,47.678,50.087,53.459,56.257,58.666,63.679,67.922,72.74,75.149,78.522,83.4351,87.761,90.559,95.479,99.333,102.706,106.5994,110.948,115.766,119.139,123.772,127.626,131.48,134.853,138.225,142.08,145.4172,149.784,152.48,155.853,160.485,167.99370000000002,172.348,175.146,180.066,184.698,188.071,191.9644,196.273,200.322,203.694,206.103,209.476,211.885,216.897,221.16119999999998,225.469,228.166,231.538,236.171,243.6797,248.033,250.831,255.751,259.6444,263.907,267.762,270.078,273.933,277.787,280.585,283.958,288.59" svgx:width="0.52,0.26,0.36,0.3,0.26,0.54,0.46,0.52,0.26,0.36,0.53,0.55,0.3,0.53,0.42,0.36,0.42,0.55,0.52,0.36,0.5,0.42,0.42,0.36,0.36,0.42,0.36,0.55,0.29,0.36,0.5,0.81,0.55,0.3,0.53,0.5,0.36,0.42,0.55,0.44,0.36,0.26,0.36,0.26,0.54,0.46,0.55,0.29,0.36,0.5,0.81,0.55,0.3,0.53,0.42,0.55,0.42,0.25,0.42,0.42,0.3,0.36,0.5,0.35" style="fill:rgb(0,0,0);font-family:AdvOT1ef757c0;font-size:9.27px;stroke:none;">distinguish these processes from those arising from the electro-</text>
   <text y="355.294" x="42.86,46.714,51.634,55.488,63.012,65.421,68.793,71.591,74.964,79.2282,82.375,85.173,89.808,92.92,96.774,101.787,105.159,109.977,113.35,117.2434,120.417,123.215,128.135,132.02839999999998,135.157,139.011,143.644,147.016,150.389,154.243,158.098,160.87900000000002,164.071,166.48,171.493,174.291,178.145,181.518,186.336,189.708,193.563,196.361,200.41,203.208,205.617,210.249,215.2548,218.441,223.073,225.7613,228.929,231.727,236.647,240.54039999999998,243.613,247.467,251.803,256.621,260.476,263.848,266.257,273.781,277.742,282.755,285.553,289.602" svgx:width="0.42,0.53,0.42,0.81,0.26,0.36,0.3,0.36,0.46,0.55,0.3,0.5,0.55,0.42,0.54,0.36,0.52,0.36,0.42,0.55,0.3,0.53,0.42,0.55,0.42,0.5,0.36,0.36,0.42,0.42,0.3,0.55,0.26,0.54,0.3,0.42,0.36,0.52,0.36,0.42,0.3,0.44,0.3,0.26,0.5,0.54,0.55,0.5,0.29,0.55,0.3,0.53,0.42,0.55,0.42,0.47,0.52,0.42,0.36,0.26,0.81,0.42,0.54,0.3,0.44,0.25" style="fill:rgb(0,0,0);font-family:AdvOT1ef757c0;font-size:9.27px;stroke:none;">chemistry to ensure the correct interpretation of the experimental</text>
   <text y="365.952" x="42.86,46.232,50.087,53.459,58.277,60.593,63.392,66.764" svgx:width="0.36,0.42,0.36,0.52,0.25,0.3,0.36,0.22" style="fill:rgb(0,0,0);font-family:AdvOT1ef757c0;font-size:9.27px;stroke:none;">results.</text>
   <text y="280.63" x="313.115,318.803,323.723,327.6164,329.159,333.977,337.35,341.204,344.577,348.431,353.444,356.225,357.79,364.063,368.695,372.068,376.6103,378.143,384.416,388.465,391.80219999999997,393.394,398.212,402.066,405.439,407.848,412.091,417.104,420.958,425.77840000000003,427.41,430.208,434.843,436.368,441.186,446.198,451.016,454.871,458.243,461.616,464.414,468.463,473.476,478.2964,479.908,482.707,487.626,491.51939999999996,493.005,496.859,499.555,502.252,506.106,509.96,512.741,514.322,518.954,521.6423,523.223,527.077,529.393,533.248,537.102,539.9,543.273,547.906" svgx:width="0.61,0.53,0.42,0.55,0.52,0.36,0.42,0.36,0.42,0.54,0.3,0.55,0.68,0.5,0.36,0.49,0.55,0.68,0.44,0.36,0.55,0.52,0.42,0.36,0.26,0.46,0.54,0.42,0.52,0.55,0.3,0.5,0.55,0.52,0.54,0.52,0.42,0.36,0.36,0.3,0.44,0.54,0.52,0.55,0.3,0.53,0.42,0.55,0.42,0.29,0.29,0.42,0.42,0.3,0.55,0.5,0.29,0.55,0.42,0.25,0.42,0.42,0.3,0.36,0.5,0.54" style="fill:rgb(0,0,0);font-family:AdvOT1ef757c0;font-size:9.27px;stroke:none;">The present work was designed to understand the effect of electron</text>
   <text y="291.288" x="303.873,308.506,312.36,316.409,326.154,330.972,335.021,342.544,346.593,350.836,354.7294,356.939,361.571,366.57680000000005,368.787,372.16,376.978,380.35,383.046,387.095,390.95,394.8434,397.077,400.449,404.304,408.353,412.207,415.005,417.414,422.047,427.05280000000005,429.278,431.595,435.644,439.887,443.741,447.114,450.4512,452.749,456.798,461.811,466.6314,468.85,475.697,483.897,490.0152,492.208,499.732,503.781,506.579,510.433,513.806,516.215,520.264,522.58,525.9172000000001,528.209,533.027,537.844,541.217,543.626,548.639" svgx:width="0.5,0.42,0.44,0.81,0.52,0.44,0.81,0.44,0.46,0.42,0.55,0.5,0.54,0.55,0.36,0.52,0.36,0.29,0.44,0.42,0.42,0.55,0.36,0.42,0.44,0.42,0.3,0.26,0.5,0.54,0.55,0.25,0.44,0.46,0.42,0.36,0.36,0.55,0.44,0.54,0.52,0.55,0.74,0.88,0.66,0.55,0.81,0.44,0.3,0.42,0.36,0.26,0.44,0.25,0.36,0.55,0.52,0.52,0.36,0.26,0.54,0.46" style="fill:rgb(0,0,0);font-family:AdvOT1ef757c0;font-size:9.27px;stroke:none;">beamdamage on surface reaction layers and NMC materials during</text>
   <text y="301.946" x="303.873,308.691,312.74,315.538,319.6168,323.546,327.595,331.45,336.175,340.993,343.402,346.774,349.183,351.982,354.391,359.023,364.02880000000005,367.994,372.812,376.184,378.593,383.606,387.8702,391.862,397.551,402.758,410.958,412.9974,416.921,420.006,422.787,426.729,429.138,432.4752,436.48,439.853,444.773,449.405,455.678,460.6838,464.657,467.455,472.375,476.424,479.205,483.139,485.937,490.857,494.7504,498.673,502.528,507.448,511.302,518.825,521.234,524.607,527.405,530.778,535.0422,539.04,543.089,548.101" svgx:width="0.52,0.44,0.3,0.44,0.55,0.44,0.42,0.51,0.52,0.26,0.36,0.26,0.3,0.26,0.5,0.54,0.55,0.52,0.36,0.26,0.54,0.46,0.55,0.61,0.56,0.88,0.22,0.55,0.33,0.3,0.55,0.26,0.36,0.55,0.36,0.53,0.5,0.68,0.54,0.55,0.3,0.53,0.44,0.3,0.55,0.3,0.53,0.42,0.55,0.42,0.53,0.42,0.81,0.26,0.36,0.3,0.36,0.46,0.55,0.44,0.54,0.52" style="fill:rgb(0,0,0);font-family:AdvOT1ef757c0;font-size:9.27px;stroke:none;">data acquisition using TEM. It is shown that the chemistry and</text>
   <text y="312.604" x="303.873,307.246,310.044,313.417,318.234,322.089,324.887,329.705,333.078,336.97139999999996,339.704,343.558,347.607,352.61280000000005,355.351,359.984,363.87739999999997,366.576,369.949,373.803,378.047,381.901,385.274,389.128,391.444,395.70820000000003,398.438,402.487,404.803,407.601,411.456,414.828,418.682,423.5024,426.218,431.036,436.048,440.866,444.721,448.0582,450.879,454.734,458.588,461.961,464.759,468.808,471.217,476.2228,478.943,482.797,485.206,488.579,492.433,497.251,504.775,508.147,510.945,514.994,520.007,523.861,527.716,531.215,533.2544,535.921,539.294,544.111,547.966" svgx:width="0.36,0.3,0.36,0.52,0.42,0.3,0.52,0.36,0.42,0.55,0.42,0.44,0.54,0.55,0.5,0.42,0.55,0.36,0.42,0.46,0.42,0.36,0.42,0.25,0.46,0.55,0.44,0.25,0.3,0.42,0.36,0.42,0.52,0.55,0.52,0.54,0.52,0.42,0.36,0.55,0.42,0.42,0.36,0.3,0.44,0.26,0.54,0.55,0.42,0.26,0.36,0.42,0.52,0.81,0.36,0.3,0.44,0.54,0.42,0.42,0.36,0.22,0.55,0.36,0.52,0.42,0.53" style="fill:rgb(0,0,0);font-family:AdvOT1ef757c0;font-size:9.27px;stroke:none;">structure can be severely altered under certain circumstances, such</text>
   <text y="323.261" x="303.873,307.922,311.2592,314.929,317.245,321.878,328.1816,331.823,335.196,339.05,343.099,348.1048,351.779,355.151,359.2,361.998,365.853,369.225,371.2644,374.966,380.655,385.575,389.4684,393.107,397.925,401.78,406.023,409.396,413.445,418.263,422.312,425.11,427.519,432.151,437.15680000000003,440.843,445.661,449.034,453.666,457.521,461.375,464.748,468.12,471.975,475.3122,479.112,482.484,486.339,489.711,493.566,501.089,505.722,508.038,511.9314,515.566,518.364,523.284,527.1774,530.817,533.133,537.182,539.98,542.778,545.187,549.042" svgx:width="0.44,0.36,0.55,0.25,0.5,0.68,0.55,0.36,0.42,0.44,0.54,0.55,0.36,0.44,0.3,0.42,0.36,0.22,0.55,0.61,0.53,0.42,0.55,0.52,0.42,0.46,0.36,0.44,0.52,0.44,0.3,0.26,0.5,0.54,0.55,0.52,0.36,0.5,0.42,0.42,0.36,0.36,0.42,0.36,0.55,0.36,0.42,0.36,0.42,0.81,0.5,0.25,0.42,0.55,0.3,0.53,0.42,0.55,0.25,0.44,0.3,0.3,0.26,0.42,0.42" style="fill:rgb(0,0,0);font-family:AdvOT1ef757c0;font-size:9.27px;stroke:none;">as low scan rates. The degradation processes resemble the lattice</text>
   <text y="333.919" x="303.873,307.246,311.1,314.955,319.587,324.6,327.972,330.77,334.143,338.961,342.815,345.613,348.022,352.655,357.6608,361.021,365.07,370.082,374.9024,378.255,382.11,387.029,390.884,398.407,400.816,404.671,408.72,411.0375,414.426,418.28,422.524,427.157,429.473,434.291,437.089,439.498,444.131,449.1368,452.467,455.266,460.185,464.234,467.015,470.383,474.432,477.804,481.69739999999996,485.01,488.864,492.913,497.731,501.104,504.958,509.77840000000003,513.13,517.763,522.0272,525.32,529.174,534.094,538.143,541.515,545.759,549.613" svgx:width="0.36,0.42,0.42,0.5,0.54,0.36,0.3,0.36,0.52,0.42,0.3,0.26,0.5,0.54,0.55,0.44,0.54,0.52,0.55,0.42,0.53,0.42,0.81,0.26,0.42,0.44,0.25,0.55,0.42,0.46,0.5,0.25,0.52,0.3,0.26,0.5,0.54,0.55,0.3,0.53,0.44,0.3,0.55,0.44,0.36,0.42,0.55,0.42,0.44,0.52,0.36,0.42,0.52,0.55,0.5,0.46,0.55,0.42,0.53,0.44,0.36,0.46,0.42,0.35" style="fill:rgb(0,0,0);font-family:AdvOT1ef757c0;font-size:9.27px;stroke:none;">reconstruction and chemical evolution that are caused by charge-</text>
   <text y="344.577" x="303.873,308.691,311.1,314.473,318.327,323.247,327.296,330.669,334.912,338.80539999999996,340.668,344.522,348.766,352.62,354.936,357.345,362.358" svgx:width="0.52,0.26,0.36,0.42,0.53,0.44,0.36,0.46,0.42,0.55,0.42,0.46,0.42,0.25,0.26,0.54,0.46" style="fill:rgb(0,0,0);font-family:AdvOT1ef757c0;font-size:9.27px;stroke:none;">discharge cycling</text>
   <text y="341.178" x="366.633" svgx:width="0.48" style="fill:rgb(0,0,0);font-family:AdvOT1ef757c0;font-size:5.13px;stroke:none;">5</text>
   <text y="344.579" x="369.354,371.3934,373.266,376.351,379.132,380.977,383.386,386.7232,388.63,392.002,396.82,401.064,405.307,409.162,412.534,415.332,419.187,424.0074,425.935,428.733,433.653,437.702,440.483,442.319,445.692,449.546,454.364,459.182,463.037,465.446,470.458,474.72220000000004,476.619,479.418,484.337,488.2304,490.056,494.105,497.959,501.814,505.668,507.984,511.839,515.211,519.26,522.058,524.467,529.48,533.7442,535.638,539.881,544.514,546.83,549.628" svgx:width="0.22,0.55,0.33,0.3,0.55,0.26,0.36,0.55,0.36,0.52,0.46,0.46,0.42,0.36,0.3,0.42,0.52,0.55,0.3,0.53,0.44,0.3,0.55,0.36,0.42,0.52,0.52,0.42,0.26,0.54,0.46,0.55,0.3,0.53,0.42,0.55,0.44,0.42,0.42,0.42,0.25,0.42,0.36,0.44,0.3,0.26,0.54,0.46,0.55,0.46,0.5,0.25,0.3,0.35" style="fill:rgb(0,0,0);font-family:AdvOT1ef757c0;font-size:9.27px;stroke:none;">. It is suggested that reducing the accelerating volt-</text>
   <text y="355.295" x="303.874,307.923,312.167,316.06039999999996,317.991,322.04,327.053,331.8734,333.809,336.218,341.23,345.085,348.457,352.312,356.361,359.733,362.142,367.155,371.4192,373.437,377.486,381.341,386.066,390.884,393.293,396.666,399.074,401.873,404.282,408.914,413.9198,415.958,419.33,424.148,428.003,431.857,436.67740000000003,438.635,441.813,445.668,447.688,451.931,453.951,455.9904,457.968,462.786,466.641,470.013,472.71,477.342,480.715,488.238,490.647,495.66,499.92420000000004,501.906,504.603,508.651,512.024,514.805,516.817,522.024,527.231,532.151,536.487,539.6388,541.649,545.698,549.07" svgx:width="0.44,0.46,0.42,0.55,0.44,0.54,0.52,0.55,0.26,0.54,0.42,0.36,0.42,0.44,0.36,0.26,0.54,0.46,0.55,0.44,0.42,0.51,0.52,0.26,0.36,0.26,0.3,0.26,0.5,0.54,0.55,0.36,0.52,0.42,0.42,0.52,0.55,0.34,0.42,0.22,0.46,0.22,0.22,0.55,0.52,0.42,0.36,0.29,0.5,0.36,0.81,0.26,0.54,0.46,0.55,0.29,0.44,0.36,0.3,0.55,0.56,0.56,0.53,0.47,0.34,0.55,0.44,0.36,0.42" style="fill:rgb(0,0,0);font-family:AdvOT1ef757c0;font-size:9.27px;stroke:none;">age and increasing acquisition speed (e.g., performing fast EELS) are</text>
   <text y="365.953" x="303.874,308.887,312.741,316.596,320.45,323.823,327.195,331.244,334.617,338.88120000000004,341.292,344.09,348.72499999999997,351.157,355.206,359.45,364.082,366.491,371.3114,373.721,376.519,381.439,385.3324,387.724,392.357,396.211,400.26,407.76869999999997,410.232,415.05,419.099,426.622,430.671,434.915,438.769" svgx:width="0.54,0.42,0.42,0.42,0.36,0.36,0.44,0.36,0.46,0.55,0.3,0.5,0.55,0.44,0.46,0.5,0.26,0.52,0.55,0.3,0.53,0.42,0.55,0.5,0.42,0.44,0.81,0.55,0.52,0.44,0.81,0.44,0.46,0.42,0.22" style="fill:rgb(0,0,0);font-family:AdvOT1ef757c0;font-size:9.27px;stroke:none;">necessary to avoid the beam damage.</text>
  </g>
  <rect style="fill:pink;opacity:0.2;stroke:blue;stroke-width:0.3;" x="-0.113" y="17.524" height="36.964" width="595.446" title="2"/>
  <text y="17.524" class="image" id="image.2.1" width="595" height="36" x="-0.113" style="font-size:5.0px;">image.2.1.0_595.18_54</text>
  <rect style="fill:pink;opacity:0.2;stroke:blue;stroke-width:0.3;" x="138.217" y="69.455" height="135.326" width="319.362" title="2"/>
  <text y="69.455" class="image" id="image.2.2" width="319" height="135" x="138.217" style="font-size:5.0px;">image.2.2.138_458.69_205</text>
  <g begin="text">
   <text y="201.6" x="42.86,47.441,49.821,53.877,58.458,61.718,65.3601,68.144" svgx:width="0.54,0.28,0.48,0.54,0.38,0.43,0.55,0.49" style="fill:rgb(0,0,0);font-family:AdvOT5e4d79fc;font-size:8.47px;stroke:none;">Figure 1</text>
   <text y="201.6" x="74.721" svgx:width="0.26" style="fill:rgb(0,0,0);font-family:AdvOT5e4d79fc;font-size:8.97px;stroke:none;">|</text>
   <text y="201.6" x="78.179,82.32,85.047,88.832,93.236,95.616,97.817,100.197,102.924,106.8202,109.019,112.195,114.921,119.503,123.999,127.89519999999999,130.108,134.427,137.0527,139.292,143.873" svgx:width="0.49,0.32,0.45,0.52,0.28,0.26,0.28,0.32,0.46,0.55,0.38,0.32,0.54,0.53,0.46,0.55,0.51,0.31,0.55,0.54,0.28" style="fill:rgb(0,0,0);font-family:AdvOT5e4d79fc;font-size:8.47px;stroke:none;">Stability study of Li</text>
   <text y="203.017" x="146.268" svgx:width="0.49" style="fill:rgb(0,0,0);font-family:AdvOT5e4d79fc;font-size:5.64px;stroke:none;">2</text>
   <text y="201.6" x="149.386,155.026" svgx:width="0.67,0.75" style="fill:rgb(0,0,0);font-family:AdvOT5e4d79fc;font-size:8.47px;stroke:none;">CO</text>
   <text y="203.017" x="161.348" svgx:width="0.49" style="fill:rgb(0,0,0);font-family:AdvOT5e4d79fc;font-size:5.64px;stroke:none;">3</text>
   <text y="201.6" x="166.677,171.174,175.755,179.54,182.716,186.3581,188.56,192.879,197.5375,199.728,203.5395,205.737,207.938,210.318,213.045,217.626,220.006,223.791,226.518,230.134,234.6231,236.86,243.118,245.497,251.8495,254.094,258.769,262.554,267.228,271.547,274.723,279.304,282.92,286.536,289.263" svgx:width="0.53,0.54,0.45,0.38,0.43,0.55,0.51,0.55,0.55,0.45,0.55,0.26,0.28,0.32,0.54,0.28,0.45,0.32,0.43,0.53,0.55,0.74,0.28,0.75,0.55,0.55,0.45,0.55,0.51,0.38,0.54,0.43,0.43,0.32,0.24" style="fill:rgb(0,0,0);font-family:AdvOT5e4d79fc;font-size:8.47px;stroke:none;">phase on a lithiated NiO nanosheet.</text>
   <text y="201.6" x="293.499,296.674,300.375,303.5936,305.8,311.262,315.844,320.425,325.006,327.123,330.824,333.8732,336.13,340.627,344.327,347.41,351.551,354.633,357.097,359.384,362.906,365.023,369.51210000000003,371.789,374.786,378.309,382.01,386.591,391.172,393.459,398.04,401.93620000000004,404.159,406.801,409.884,413.584,418.166,421.163,428.124,430.411,433.408,436.406,438.692,443.096,447.6698,449.909,453.431,455.548,459.071,462.594,465.236,468.318,472.722,477.2958,479.557,486.518,488.805,492.328,495.41,499.813,502.811,506.334,510.737,515.234,519.0455000000001,521.282,524.458,529.92,536.093,540.412" svgx:width="0.38,0.44,0.38,0.55,0.64,0.54,0.54,0.54,0.25,0.44,0.36,0.55,0.53,0.44,0.36,0.49,0.36,0.29,0.27,0.42,0.25,0.53,0.55,0.35,0.42,0.44,0.54,0.54,0.27,0.54,0.46,0.55,0.31,0.36,0.44,0.54,0.35,0.82,0.27,0.35,0.35,0.27,0.52,0.54,0.55,0.42,0.25,0.42,0.42,0.31,0.36,0.52,0.54,0.55,0.82,0.27,0.42,0.36,0.52,0.35,0.42,0.52,0.53,0.45,0.55,0.38,0.64,0.73,0.51,0.36" style="fill:rgb(0,0,0);font-family:AdvP7627;font-size:8.47px;stroke:none;">(a) Annular dark-field scanning transmission electron microscopy (ADF-</text>
   <text y="212.031" x="42.86,46.916,52.031,56.706,64.285,67.50359999999999,69.448,71.734,78.695,82.396,86.274,89.8314,91.783,97.516,99.803,102.445,106.9341,108.961,112.662,117.23580000000001,119.222,122.923,126.005,129.528,133.2548,135.209,137.496,141.992,145.515,150.096,152.738,155.025,157.489,159.775,163.298,167.7871,169.848,172.312,176.715,179.76420000000002,181.81,186.484,191.159,195.655,199.7206,201.708,205.409,208.932,213.25,217.832,220.118,223.116,225.402,228.044,230.331,234.734,239.316,241.3488,243.375,246.551,251.9718,253.977,258.033,262.089,266.1546,269.0,273.141,276.664,282.33889999999997,284.306,287.829,289.946,293.469,296.992,299.634,302.716,307.12,311.6938,313.729,318.048,321.571,325.271,334.195" svgx:width="0.48,0.6,0.55,0.89,0.38,0.55,0.27,0.82,0.44,0.46,0.42,0.55,0.68,0.27,0.31,0.53,0.55,0.44,0.54,0.55,0.44,0.36,0.42,0.44,0.55,0.27,0.53,0.42,0.54,0.31,0.27,0.29,0.27,0.42,0.53,0.55,0.29,0.52,0.36,0.55,0.55,0.55,0.53,0.48,0.55,0.44,0.42,0.51,0.54,0.27,0.35,0.27,0.31,0.27,0.52,0.54,0.24,0.55,0.38,0.64,0.55,0.48,0.48,0.48,0.55,0.49,0.42,0.67,0.55,0.42,0.25,0.42,0.42,0.31,0.36,0.52,0.54,0.55,0.51,0.42,0.44,0.82,0.38" style="fill:rgb(0,0,0);font-family:AdvP7627;font-size:8.47px;stroke:none;">STEM) image with an area identified for EELS acquisition. (A 200 keV electron beam(</text>
   <text y="212.031" x="337.379" svgx:width="0.83" style="fill:rgb(0,0,0);font-family:AdvP7DB7;font-size:8.47px;stroke:none;">,</text>
   <text y="212.031" x="344.465,348.521,352.58660000000003,355.407,359.904,365.366,368.58459999999997,370.543,373.625,377.326,381.823,384.109,388.606,390.723,394.53450000000004,396.507,399.505,403.028,406.728,411.31,415.891,419.414,423.9031,425.93,428.572,433.069,436.6264,438.572,442.273,445.355,448.878,452.6048,454.559,457.642,461.165,465.661,469.184,472.884,475.527,479.049,483.546,485.663,489.47450000000003,491.465,494.107,498.51140000000004,500.535,503.533,508.029,511.112,514.634,518.335,522.8241,524.856,527.498,531.994,535.5514000000001,537.498,541.994,546.398,549.396" svgx:width="0.48,0.48,0.55,0.53,0.64,0.38,0.55,0.36,0.44,0.53,0.27,0.53,0.25,0.45,0.55,0.35,0.42,0.44,0.54,0.54,0.42,0.53,0.55,0.31,0.53,0.42,0.55,0.44,0.36,0.42,0.44,0.55,0.36,0.42,0.53,0.42,0.44,0.31,0.42,0.53,0.25,0.45,0.55,0.31,0.52,0.55,0.35,0.53,0.36,0.42,0.44,0.53,0.55,0.31,0.53,0.42,0.55,0.53,0.52,0.35,0.42" style="fill:rgb(0,0,0);font-family:AdvP7627;font-size:8.47px;stroke:none;">12 pA) rapidly scanned the area repeatedly to spread the dose</text>
   <text y="222.519" x="42.859,47.356,51.937,55.02,57.306,61.887,65.7832,67.18,71.854,76.529,81.025,85.09060000000001,86.454,90.155,93.678,97.997,102.578,104.864,107.862,110.148,112.791,115.077,119.48,124.062,126.086,129.3046,130.73,133.905,138.224,141.4426,142.804,149.778,155.333,158.416,161.938,166.435,170.313,173.8704,175.232,179.906,184.581,189.077,193.1426,194.563,197.561,202.057,205.58,209.103,211.745,214.827,218.528,220.5608,222.001,225.176,228.699,231.91760000000002,233.282,240.992,246.547,249.63,253.153,257.649,261.528,265.0854,266.503,271.177,275.852,280.348,284.41360000000003,285.777,288.775,293.272,296.794,300.317,302.959,306.042,309.742,311.7748,313.215,317.889,321.59,325.113,329.6021,331.016,334.014,338.51,342.033,345.556,348.198,351.28,355.862,364.237,369.97,373.67,376.6345,378.069,380.356,384.937,387.579,391.102,394.98,398.063,401.764,404.406,407.928,412.4171,413.898,416.362,420.765,423.81419999999997,425.236,429.3016,432.153,435.15,438.673,442.2304,443.604,449.337,451.623,454.266,458.7551,460.158,463.88480000000004,465.26,469.756,474.16,477.158,480.7154,482.097,485.18,488.88,491.522,495.07939999999996,496.44,500.843,503.2993,504.717,508.773,512.829,516.8946,519.74,523.263,525.38,528.903,532.425,535.067,538.15,542.553,547.135,550.132" svgx:width="0.53,0.54,0.36,0.27,0.54,0.46,0.55,0.55,0.55,0.53,0.48,0.55,0.44,0.42,0.51,0.54,0.27,0.35,0.27,0.31,0.27,0.52,0.54,0.24,0.38,0.55,0.38,0.51,0.38,0.55,0.66,0.66,0.36,0.42,0.53,0.46,0.42,0.55,0.55,0.55,0.53,0.48,0.55,0.35,0.53,0.42,0.42,0.31,0.36,0.44,0.24,0.55,0.38,0.42,0.38,0.55,0.75,0.66,0.36,0.42,0.53,0.46,0.42,0.55,0.55,0.55,0.53,0.48,0.55,0.35,0.53,0.42,0.42,0.31,0.36,0.44,0.24,0.55,0.55,0.44,0.42,0.53,0.55,0.35,0.53,0.42,0.42,0.31,0.36,0.54,0.82,0.68,0.44,0.35,0.55,0.27,0.54,0.31,0.42,0.46,0.36,0.44,0.31,0.42,0.53,0.55,0.29,0.52,0.36,0.55,0.48,0.55,0.35,0.42,0.42,0.55,0.68,0.27,0.31,0.53,0.55,0.44,0.55,0.53,0.52,0.35,0.42,0.55,0.36,0.44,0.31,0.42,0.55,0.52,0.29,0.55,0.48,0.48,0.48,0.55,0.42,0.25,0.42,0.42,0.31,0.36,0.52,0.54,0.35,0.32" style="fill:rgb(0,0,0);font-family:AdvP7627;font-size:8.47px;stroke:none;">during EELS acquisition.) (b) CK-edge EELS spectra. (c) OK-edge EELS spectra. Each spectrumwas integrated for 5 sec with a dose rate of 100 electrons/</text>
   <text y="232.95" x="42.859" svgx:width="0.64" style="fill:rgb(0,0,0);font-family:AdvP7627;font-size:8.47px;stroke:none;">A</text>
   <text y="230.739" x="44.334" svgx:width="0.3" style="fill:rgb(0,0,0);font-family:AdvP7627;font-size:8.47px;stroke:none;">˚</text>
   <text y="229.833" x="48.302" svgx:width="0.48" style="fill:rgb(0,0,0);font-family:AdvP7627;font-size:4.69px;stroke:none;">2</text>
   <text y="232.951" x="50.854,53.58,56.578,60.101,63.6584,65.82,69.521,74.102,78.59110000000001,80.787,84.487,89.0608,91.331,95.032,98.555,102.078,106.659,113.62,118.201,120.318,124.019,126.661,130.184,134.6731,136.911,141.407,145.811,148.809,152.3664,154.542,158.945,161.4013,163.612,167.668,171.724,175.78959999999998,178.635,182.158,184.275,187.798,191.321,193.963,197.045,201.449,206.03,209.028,211.754" svgx:width="0.32,0.35,0.42,0.42,0.55,0.44,0.54,0.53,0.55,0.44,0.54,0.55,0.44,0.42,0.42,0.54,0.82,0.54,0.25,0.44,0.31,0.42,0.53,0.55,0.53,0.52,0.35,0.42,0.55,0.52,0.29,0.55,0.48,0.48,0.48,0.55,0.42,0.25,0.42,0.42,0.31,0.36,0.52,0.54,0.35,0.32,0.64" style="fill:rgb(0,0,0);font-family:AdvP7627;font-size:8.47px;stroke:none;">/sec and an accumulated dose of 500 electrons/A</text>
   <text y="230.74" x="213.335" svgx:width="0.3" style="fill:rgb(0,0,0);font-family:AdvP7627;font-size:8.47px;stroke:none;">˚</text>
   <text y="229.833" x="217.304" svgx:width="0.48" style="fill:rgb(0,0,0);font-family:AdvP7627;font-size:4.69px;stroke:none;">2</text>
   <text y="232.951" x="219.798,221.8308,224.05,229.165,233.662,237.2194,239.357,242.879,245.962,248.248,250.89,253.177,256.699,260.4,262.5175,264.753,269.25,273.654,276.651,280.2084,282.441,284.558,286.844,293.805,296.092,298.7177,300.922,303.386,307.79,310.8392,313.11,315.227,317.514,320.156,324.652,326.939,331.52,338.4654,340.719,344.242,347.942,351.025,355.344,359.747,364.328,368.029,370.671,374.22839999999997,376.434,378.72,381.6845,383.917,387.44,390.438,393.08,395.366,402.327,406.028,408.67,412.192,416.6811,418.952,421.594,425.9984,428.249,432.568,436.12539999999996,438.284,441.984,446.481,450.978,454.06,458.464,462.427,464.713,471.674,475.374,478.017,481.539,483.656,487.46750000000003,489.702,493.758,497.814,501.87960000000004,504.725,508.248,510.365,513.888,517.411,520.053,523.135,527.539,532.12,535.118,537.844" svgx:width="0.24,0.55,0.6,0.53,0.42,0.55,0.42,0.36,0.27,0.31,0.27,0.42,0.44,0.25,0.55,0.53,0.52,0.35,0.42,0.55,0.25,0.27,0.82,0.27,0.31,0.55,0.29,0.52,0.36,0.55,0.25,0.27,0.31,0.53,0.27,0.54,0.82,0.55,0.42,0.44,0.36,0.51,0.52,0.54,0.44,0.31,0.42,0.55,0.27,0.35,0.55,0.42,0.35,0.31,0.27,0.82,0.44,0.31,0.42,0.53,0.55,0.31,0.52,0.55,0.51,0.42,0.55,0.44,0.53,0.53,0.36,0.52,0.47,0.27,0.82,0.44,0.31,0.42,0.25,0.45,0.55,0.48,0.48,0.48,0.55,0.42,0.25,0.42,0.42,0.31,0.36,0.52,0.54,0.35,0.32,0.64" style="fill:rgb(0,0,0);font-family:AdvP7627;font-size:8.47px;stroke:none;">. The critical dose limit for lithium carbonate is estimated to be approximately 750 electrons/A</text>
   <text y="230.74" x="539.376" svgx:width="0.3" style="fill:rgb(0,0,0);font-family:AdvP7627;font-size:8.47px;stroke:none;">˚</text>
   <text y="229.833" x="543.345" svgx:width="0.48" style="fill:rgb(0,0,0);font-family:AdvP7627;font-size:4.69px;stroke:none;">2</text>
   <text y="243.439" x="42.86,47.356,49.473,53.174,56.697,58.983,63.565,67.46119999999999,69.051,71.338,73.96369999999999,75.571,77.857,82.4308,84.018,87.016,90.538,95.12,98.117,100.404,103.046,105.332,109.211,111.497,114.139,117.95049999999999,119.563,124.144,127.667,131.63,134.2557,135.833,138.475,142.8794,144.507,148.826,151.112,155.516,162.476,166.88,168.997,172.52,176.043,180.624,182.741,186.264,189.2285,190.88" svgx:width="0.53,0.25,0.44,0.42,0.27,0.54,0.46,0.55,0.27,0.31,0.55,0.27,0.54,0.55,0.35,0.42,0.54,0.35,0.27,0.31,0.27,0.46,0.27,0.31,0.45,0.55,0.54,0.42,0.47,0.31,0.55,0.31,0.52,0.55,0.51,0.27,0.52,0.82,0.52,0.25,0.42,0.42,0.54,0.25,0.42,0.35,0.55,0.38" style="fill:rgb(0,0,0);font-family:AdvP7627;font-size:8.47px;stroke:none;">placing it in sensitivity next to biomolecules (</text>
   <text y="243.439" x="194.06" svgx:width="0.83" style="fill:rgb(0,0,0);font-family:AdvP7DA6;font-size:8.47px;stroke:none;">,</text>
   <text y="243.439" x="201.146,205.202,209.258,213.3236,216.112,219.635,221.752,225.275,228.798,231.44,234.522,238.926,243.507,246.505,249.232" svgx:width="0.48,0.48,0.48,0.55,0.42,0.25,0.42,0.42,0.31,0.36,0.52,0.54,0.35,0.32,0.64" style="fill:rgb(0,0,0);font-family:AdvP7627;font-size:8.47px;stroke:none;">200 electrons/A</text>
   <text y="241.228" x="250.808" svgx:width="0.3" style="fill:rgb(0,0,0);font-family:AdvP7627;font-size:8.47px;stroke:none;">˚</text>
   <text y="240.321" x="254.778" svgx:width="0.48" style="fill:rgb(0,0,0);font-family:AdvP7627;font-size:4.69px;stroke:none;">2</text>
   <text y="243.439" x="258.86,262.56,265.1857,266.796,270.852,274.9176,277.738,283.293" svgx:width="0.44,0.31,0.55,0.48,0.48,0.55,0.66,0.38" style="fill:rgb(0,0,0);font-family:AdvP7627;font-size:8.47px;stroke:none;">at 77 K)</text>
   <text y="240.321" x="286.469,288.994" svgx:width="0.48,0.48" style="fill:rgb(0,0,0);font-family:AdvP7627;font-size:4.69px;stroke:none;">32</text>
   <text y="243.439" x="291.515,293.5478,295.087,300.202,304.698,308.25539999999995,309.827,313.527,316.61,319.692,324.095,331.426,334.068,338.4724,340.043,342.685,347.181,350.73839999999996,352.288,355.37,357.657,361.535,366.032,368.6577,370.316,374.719,377.1753,378.763,381.938,385.461,388.6796,390.214,392.501,397.082,401.579,403.865,407.388,411.088,413.73,417.253,420.2175,421.904,424.546,429.043,432.6004,434.149,436.435,441.017,444.539,447.622,451.145,454.845,457.843,461.366,465.8551,467.483,471.184,474.707,479.025,483.607,485.893,488.891,491.177,493.819,496.106,500.509,505.0828,506.713,509.355,511.641,518.602,522.1594,523.721,526.185,529.267,533.671,542.258,544.9,549.397" svgx:width="0.24,0.55,0.6,0.53,0.42,0.55,0.44,0.36,0.36,0.52,0.68,0.31,0.52,0.55,0.31,0.53,0.42,0.55,0.36,0.27,0.46,0.53,0.31,0.55,0.52,0.29,0.55,0.38,0.42,0.38,0.55,0.27,0.54,0.53,0.27,0.42,0.44,0.31,0.42,0.35,0.55,0.31,0.53,0.42,0.55,0.27,0.54,0.42,0.36,0.42,0.44,0.35,0.42,0.53,0.55,0.44,0.42,0.51,0.54,0.27,0.35,0.27,0.31,0.27,0.52,0.54,0.55,0.31,0.27,0.82,0.42,0.55,0.29,0.36,0.52,0.82,0.31,0.53,0.42" style="fill:rgb(0,0,0);font-family:AdvP7627;font-size:8.47px;stroke:none;">. The arrowto the right of (c) indicates the increased acquisition time fromthe</text>
   <text y="253.87" x="42.861,47.179,51.583,54.225,56.867,61.27,68.2154,70.469,73.112,77.51639999999999,79.71,82.352,86.849,90.4064,92.579,95.221,99.625,104.11410000000001,106.355,108.642,113.2158,115.425,118.601,122.92,126.1386,128.295,131.995,136.576,141.0651,143.318,146.494,150.016,153.192,155.22480000000002,157.434,163.167,165.453,168.095,172.5841,174.781,178.481,183.0548,185.269,187.555,192.136,194.778,198.301,201.384,205.262,208.963,211.0805,213.33,217.734,220.1903,222.401,226.4666,229.318,232.315,235.838,239.361" svgx:width="0.51,0.52,0.31,0.31,0.52,0.82,0.55,0.31,0.52,0.55,0.31,0.53,0.42,0.55,0.31,0.52,0.53,0.55,0.27,0.54,0.55,0.38,0.51,0.38,0.55,0.44,0.54,0.53,0.55,0.38,0.42,0.38,0.24,0.55,0.68,0.27,0.31,0.53,0.55,0.44,0.54,0.55,0.27,0.54,0.31,0.42,0.36,0.46,0.44,0.25,0.55,0.52,0.29,0.55,0.48,0.55,0.35,0.42,0.42,0.24" style="fill:rgb(0,0,0);font-family:AdvP7627;font-size:8.47px;stroke:none;">bottom to the top in (b) and (c), with an interval of 5 sec.</text>
  </g>
  <rect style="fill:pink;opacity:0.2;stroke:blue;stroke-width:0.3;" x="58.394" y="403.207" height="261.127" width="478.983" title="2"/>
  <text y="403.207" class="image" id="image.2.3" width="478" height="261" x="58.394" style="font-size:5.0px;">image.2.3.58_537.403_664</text>
  <g begin="text">
   <text y="661.153" x="42.86,47.441,49.821,53.877,58.458,61.718,65.3601,68.144" svgx:width="0.54,0.28,0.48,0.54,0.38,0.43,0.55,0.49" style="fill:rgb(0,0,0);font-family:AdvOT5e4d79fc;font-size:8.47px;stroke:none;">Figure 2</text>
   <text y="661.153" x="74.721" svgx:width="0.26" style="fill:rgb(0,0,0);font-family:AdvOT5e4d79fc;font-size:8.97px;stroke:none;">|</text>
   <text y="661.153" x="78.179,83.379,86.639,89.019,93.075,97.656,100.383,103.288,105.93,108.309,111.925,114.127,118.61609999999999,120.414,124.555,129.847,134.691,143.997,146.901,152.101,156.682,159.587,163.728,169.02,173.864,181.359,184.2388,186.061,190.38,194.783,197.959,201.575,204.835,208.713,212.499,215.225,217.605,221.924,226.5825,228.409,232.727,235.3527,237.139,240.925,245.58350000000002,247.4,253.658,261.153,266.793,269.697,274.101,277.886,281.061,284.677,289.16610000000003,290.939,294.462,298.78,305.834,310.331,314.65,317.825,320.205,322.932,326.57410000000004,328.355,332.851,336.637,339.897,342.624,345.003,348.526,350.728,354.37010000000004,356.19,360.771,365.445,369.942,373.558,376.7766,378.582,382.198,384.4,388.016,391.538,394.265,397.525,401.844,406.5025,408.288,412.691,416.307,420.092,428.98,431.359,434.62,437.88,441.665,446.162,448.541,452.327,455.053,457.433,461.752,466.4105,468.21,471.114,475.255,479.396,483.54630000000003,486.408,490.642,494.258,500.16" svgx:width="0.61,0.38,0.28,0.48,0.54,0.32,0.34,0.31,0.28,0.43,0.26,0.53,0.55,0.49,0.63,0.57,0.88,0.34,0.61,0.54,0.34,0.49,0.63,0.57,0.88,0.34,0.55,0.51,0.52,0.38,0.43,0.38,0.46,0.45,0.32,0.28,0.51,0.55,0.55,0.51,0.31,0.55,0.45,0.55,0.55,0.74,0.88,0.67,0.34,0.52,0.45,0.38,0.43,0.53,0.55,0.42,0.51,0.83,0.53,0.51,0.38,0.28,0.32,0.43,0.55,0.53,0.45,0.38,0.32,0.28,0.42,0.26,0.43,0.55,0.54,0.55,0.53,0.43,0.38,0.55,0.43,0.26,0.43,0.42,0.32,0.38,0.51,0.55,0.55,0.52,0.43,0.45,0.83,0.28,0.38,0.38,0.45,0.53,0.28,0.45,0.32,0.28,0.51,0.55,0.55,0.34,0.49,0.49,0.49,0.55,0.5,0.43,0.7,0.24" style="fill:rgb(0,0,0);font-family:AdvOT5e4d79fc;font-size:8.47px;stroke:none;">Bright-field STEM(BF-STEM) observation of an NMC-based composite particle under electron beamirradiation (300 keV,</text>
   <text y="661.153" x="503.942" svgx:width="0.83" style="fill:rgb(0,0,0);font-family:AdvP7DB7;font-size:8.47px;stroke:none;">,</text>
   <text y="661.153" x="511.028,515.169,519.3193,522.14,526.637,532.539,534.5717999999999,536.369,540.51,544.651,548.792" svgx:width="0.49,0.49,0.55,0.53,0.7,0.24,0.55,0.49,0.49,0.49,0.49" style="fill:rgb(0,0,0);font-family:AdvOT5e4d79fc;font-size:8.47px;stroke:none;">36 pA, 1024</text>
   <text y="671.641" x="42.859" svgx:width="0.83" style="fill:rgb(0,0,0);font-family:AdvP7DED;font-size:8.47px;stroke:none;">3</text>
   <text y="671.641" x="51.307,55.447,59.588,63.729,67.8793,69.278,73.774,76.154,80.117,83.733,85.935,89.11,91.1428,92.52,97.017,99.397,103.36,106.976,109.1782,110.605,113.781,116.16,119.776,123.4181,124.777,128.918,130.942,135.083,139.224,143.37429999999998,144.79,148.575,153.249,157.306,160.481,163.208,166.468,170.787,177.841,179.87380000000002,181.298,185.795,188.175,192.138,195.754,197.9562,199.383,203.88,209.613,213.229,215.43,217.6322,218.998,221.725,224.104,231.158,234.8001,236.175,240.3253,241.731,246.312,249.488,251.5208,252.899,255.541,258.801,262.586,269.64,273.2821,274.725,277.451,279.831,286.885,290.5271,291.902,296.043,298.067,302.208,306.35830000000004,309.193,312.368,315.984,319.507,322.234,324.876,328.136,331.922,338.976,342.591,345.496" svgx:width="0.49,0.49,0.49,0.49,0.55,0.53,0.28,0.47,0.43,0.26,0.38,0.24,0.55,0.53,0.28,0.47,0.43,0.26,0.55,0.38,0.28,0.43,0.43,0.55,0.49,0.24,0.49,0.49,0.49,0.55,0.45,0.55,0.48,0.38,0.32,0.38,0.51,0.83,0.24,0.55,0.53,0.28,0.47,0.43,0.26,0.55,0.53,0.68,0.43,0.26,0.26,0.55,0.32,0.28,0.83,0.43,0.55,0.49,0.55,0.54,0.38,0.24,0.55,0.31,0.38,0.45,0.83,0.43,0.55,0.32,0.28,0.83,0.43,0.55,0.49,0.24,0.49,0.49,0.55,0.38,0.43,0.42,0.32,0.31,0.38,0.45,0.83,0.43,0.34,0.24" style="fill:rgb(0,0,0);font-family:AdvOT5e4d79fc;font-size:8.47px;stroke:none;">1024 pixels, pixel size 0.153 angstrom, pixel dwell time 6 us, frame time 7.55 sec/frame).</text>
   <text y="671.641" x="348.943,352.119,355.82,359.0386,360.395,365.332,369.651,372.733,376.789,381.904,386.579,395.6,397.886,404.847,408.548,412.426,415.98339999999996,417.369,421.772,424.2283,425.646,429.346,433.9198,435.34,441.598,449.177,456.089,460.586,464.286,467.369,470.011,472.297,475.82,477.937,481.4944,482.903,486.426,490.83,494.53,497.172,500.695,505.1841,506.6,512.333,514.619,517.262,521.7511,523.21,526.293,530.696,534.219,538.36,541.442,544.44,548.141,550.258" svgx:width="0.38,0.44,0.38,0.55,0.58,0.51,0.36,0.48,0.6,0.55,0.89,0.27,0.82,0.44,0.46,0.42,0.55,0.52,0.29,0.55,0.44,0.54,0.55,0.74,0.89,0.66,0.53,0.44,0.36,0.31,0.27,0.42,0.25,0.42,0.55,0.42,0.52,0.44,0.31,0.42,0.53,0.55,0.68,0.27,0.31,0.53,0.55,0.36,0.52,0.42,0.49,0.36,0.35,0.44,0.25,0.31" style="fill:rgb(0,0,0);font-family:AdvP7627;font-size:8.47px;stroke:none;">(a) BF-STEMimage of an NMCparticle coated with rock-salt</text>
   <text y="682.072" x="42.859,46.035,50.354" svgx:width="0.38,0.51,0.82" style="fill:rgb(0,0,0);font-family:AdvP7627;font-size:8.47px;stroke:none;">(Fm</text>
   <text y="680.427" code="2" x="57.203" svgx:width="0.5" style="fill:rgb(0,0,0);font-family:AdvP4C4E59;font-size:8.47px;stroke:none;">?</text>
   <text y="682.072" x="57.316" svgx:width="0.48" style="fill:rgb(0,0,0);font-family:AdvOT1ef757c0;font-size:8.47px;stroke:none;">3</text>
   <text y="682.072" x="61.341,68.302,71.5206,72.963,75.961,78.603,81.685,86.267,89.789,92.431,97.013,100.095,103.6524,105.05,108.751,111.3767,112.817,115.459,119.956,123.5134,124.949,127.946,132.528,135.61,138.074,141.775,145.298,148.82,150.8528,152.273,155.448,159.767,162.9856,164.404,169.519,174.016,177.5734,178.974,182.497,186.9,189.983,193.065,196.588,199.586,204.082,208.486,213.067,217.563,219.85,224.431,228.3272,229.825,232.29,235.99,238.988,241.6137,243.034,247.353,251.756,256.338,259.42,261.707,265.229,268.27819999999997,269.792,272.434,275.516,279.217,283.798,286.796,289.26,293.664,296.746,305.167,308.343,312.661,316.98,322.095,325.3136,326.709,331.113,333.5693,335.043,337.685,342.182,345.7394,347.118,352.055,356.373,359.456,363.512,368.627,373.301,382.323,384.609,391.57,395.27,399.149,402.7064,404.148,406.435,411.0088,412.425,415.601,419.301,422.477,424.5098,425.974,431.707,436.204,439.727,442.809,446.3664,447.744,450.386,454.882,458.4394,459.875,463.313,467.717,472.298,475.8554,477.279,480.98,484.943,488.465,491.42949999999996,492.869,495.333,499.737,502.7862,504.264,506.906,511.402,514.9594,516.395,520.714" svgx:width="0.82,0.38,0.55,0.35,0.31,0.36,0.54,0.42,0.31,0.54,0.36,0.42,0.55,0.44,0.31,0.55,0.31,0.53,0.42,0.55,0.35,0.54,0.36,0.29,0.44,0.42,0.42,0.24,0.55,0.38,0.51,0.38,0.55,0.6,0.53,0.42,0.55,0.42,0.52,0.36,0.36,0.42,0.35,0.53,0.52,0.54,0.53,0.27,0.54,0.46,0.55,0.29,0.44,0.35,0.31,0.55,0.51,0.52,0.54,0.36,0.27,0.42,0.36,0.55,0.31,0.36,0.44,0.54,0.35,0.29,0.52,0.36,0.82,0.38,0.51,0.51,0.6,0.38,0.55,0.52,0.29,0.55,0.31,0.53,0.42,0.55,0.58,0.51,0.36,0.48,0.6,0.55,0.89,0.27,0.82,0.44,0.46,0.42,0.55,0.27,0.54,0.55,0.38,0.44,0.38,0.24,0.55,0.68,0.53,0.42,0.36,0.42,0.55,0.31,0.53,0.42,0.55,0.41,0.52,0.54,0.42,0.55,0.44,0.47,0.42,0.35,0.55,0.29,0.52,0.36,0.55,0.31,0.53,0.42,0.55,0.51,0.82" style="fill:rgb(0,0,0);font-family:AdvP7627;font-size:8.47px;stroke:none;">m) structure at the surface. (b) The corresponding fast Fourier transform(FFT) of the BF-STEMimage in (a), where the zone axes for the Fm</text>
   <text y="680.427" code="2" x="527.583" svgx:width="0.5" style="fill:rgb(0,0,0);font-family:AdvP4C4E59;font-size:8.47px;stroke:none;">?</text>
   <text y="682.072" x="527.696" svgx:width="0.48" style="fill:rgb(0,0,0);font-family:AdvOT1ef757c0;font-size:8.47px;stroke:none;">3</text>
   <text y="682.072" x="531.721,540.111,543.812,548.393" svgx:width="0.82,0.44,0.54,0.53" style="fill:rgb(0,0,0);font-family:AdvP7627;font-size:8.47px;stroke:none;">mand</text>
   <text y="692.559" x="42.86" svgx:width="0.63" style="fill:rgb(0,0,0);font-family:AdvP7627;font-size:8.47px;stroke:none;">R</text>
   <text y="690.916" code="2" x="48.018" svgx:width="0.5" style="fill:rgb(0,0,0);font-family:AdvP4C4E59;font-size:8.47px;stroke:none;">?</text>
   <text y="692.559" x="48.132" svgx:width="0.48" style="fill:rgb(0,0,0);font-family:AdvOT1ef757c0;font-size:8.47px;stroke:none;">3</text>
   <text y="692.559" x="52.214,59.1594,61.341,65.838,70.335,74.035,77.033,80.556,83.5205,85.775,89.475,92.558,96.11540000000001,98.303" svgx:width="0.82,0.55,0.53,0.53,0.44,0.35,0.42,0.35,0.55,0.44,0.36,0.42,0.55,0.38" style="fill:rgb(0,0,0);font-family:AdvP7627;font-size:8.47px;stroke:none;">m phases are [</text>
   <text y="692.559" x="101.48" svgx:width="0.48" style="fill:rgb(0,0,0);font-family:AdvOT1ef757c0;font-size:8.47px;stroke:none;">1</text>
   <text y="690.916" code="2" x="105.448" svgx:width="0.5" style="fill:rgb(0,0,0);font-family:AdvP4C4E59;font-size:8.47px;stroke:none;">?</text>
   <text y="692.559" x="105.561,109.618" svgx:width="0.48,0.48" style="fill:rgb(0,0,0);font-family:AdvOT1ef757c0;font-size:8.47px;stroke:none;">10</text>
   <text y="692.559" x="113.669,116.88759999999999,119.055,122.755,127.337,131.8261,134.021,137.197,141.253,145.31,149.366,152.541,154.5738,156.811,159.893,163.416,166.414,170.911,174.433,177.956,180.598,182.885,186.763,190.286,192.403,196.188,198.2208,200.463,203.638,207.161,210.3796,212.538,216.856,221.175,226.257,228.525,231.607,235.13,238.128,242.709,244.826,247.468,250.43249999999998,252.675,255.139,259.543,262.5922,264.864,268.5908,270.76,273.758,277.28,280.363,282.649,286.172,289.1365,291.395,295.799,298.2553,300.465,305.402,309.721,312.804,316.86,321.975,326.649,334.1873,336.464,338.75,345.711,349.412,353.29,356.813,359.7775,362.031,366.612,371.194,375.69,379.213,382.2622,384.537,388.06,390.177,393.699,397.222,399.864,402.947,407.35,411.9238,414.186,418.505,422.027,425.728,432.6734,434.935,437.221,440.303,443.386,447.086,451.583,453.869,457.57,460.212,462.499,466.902,471.483,473.5158,475.751,481.484,485.981,489.504,492.586,496.1434,498.314,500.956,505.453,509.01039999999995,511.24,515.559,519.877,524.959,527.17,530.253,533.775,536.773,541.354,543.471,546.114" svgx:width="0.38,0.55,0.44,0.54,0.53,0.55,0.38,0.48,0.48,0.48,0.38,0.24,0.55,0.36,0.42,0.35,0.53,0.42,0.42,0.31,0.27,0.46,0.42,0.25,0.45,0.24,0.55,0.38,0.42,0.38,0.55,0.51,0.51,0.6,0.55,0.36,0.42,0.35,0.54,0.25,0.31,0.35,0.55,0.29,0.52,0.36,0.55,0.44,0.55,0.35,0.42,0.36,0.27,0.42,0.35,0.55,0.52,0.29,0.55,0.58,0.51,0.36,0.48,0.6,0.55,0.89,0.55,0.27,0.82,0.44,0.46,0.42,0.35,0.55,0.54,0.54,0.53,0.42,0.36,0.55,0.42,0.25,0.42,0.42,0.31,0.36,0.52,0.54,0.55,0.51,0.42,0.44,0.82,0.55,0.27,0.36,0.36,0.44,0.53,0.27,0.44,0.31,0.27,0.52,0.54,0.24,0.55,0.68,0.53,0.42,0.36,0.42,0.55,0.31,0.53,0.42,0.55,0.51,0.51,0.6,0.55,0.36,0.42,0.35,0.54,0.25,0.31,0.35" style="fill:rgb(0,0,0);font-family:AdvP7627;font-size:8.47px;stroke:none;">] and [100], respectively. (c) FFT results for a series of BF-STEM images under electron beam irradiation, where the FFT results</text>
   <text y="702.991" x="42.86,46.382,50.786,53.868,56.951,60.473,63.471,67.968,72.371,76.952,81.4411,82.883,85.525,89.9294,91.33,95.826,98.909,101.195,104.193,106.835,109.121,113.703,117.2604,118.655,121.831,125.8966,128.747,131.744,134.92,136.9528,138.327" svgx:width="0.42,0.52,0.36,0.36,0.42,0.35,0.53,0.52,0.54,0.53,0.55,0.31,0.52,0.55,0.53,0.36,0.27,0.35,0.31,0.27,0.54,0.42,0.55,0.38,0.48,0.55,0.35,0.38,0.24,0.55,0.48" style="fill:rgb(0,0,0);font-family:AdvP7627;font-size:8.47px;stroke:none;">correspond to pristine (0 s), 1</text>
   <text y="699.874" x="142.413,144.279" svgx:width="0.35,0.31" style="fill:rgb(0,0,0);font-family:AdvP7627;font-size:4.69px;stroke:none;">st</text>
   <text y="702.992" x="147.288,149.752,152.835,156.535,163.496,167.0534,168.434,171.61,175.666,177.69,181.746,185.8116,188.673,191.671,194.846,196.8788,198.254,202.31" svgx:width="0.29,0.36,0.44,0.82,0.42,0.55,0.38,0.48,0.24,0.48,0.48,0.55,0.35,0.38,0.24,0.55,0.48,0.48" style="fill:rgb(0,0,0);font-family:AdvP7627;font-size:8.47px;stroke:none;">frame (7.55 s), 10</text>
   <text y="699.874" x="206.362,208.007" svgx:width="0.31,0.53" style="fill:rgb(0,0,0);font-family:AdvP7627;font-size:4.69px;stroke:none;">th</text>
   <text y="702.992" x="212.202,214.666,217.748,221.449,228.41,231.9674,233.404,236.58,240.6456,243.439,250.4,252.686,257.2598,258.689,262.745,266.801,268.825,272.8906,275.696,278.694,281.869,283.90180000000004,285.334,289.39" svgx:width="0.29,0.36,0.44,0.82,0.42,0.55,0.38,0.48,0.55,0.82,0.27,0.54,0.55,0.48,0.48,0.24,0.48,0.55,0.35,0.38,0.24,0.55,0.48,0.48" style="fill:rgb(0,0,0);font-family:AdvP7627;font-size:8.47px;stroke:none;">frame (1 min 15.5 s), 20</text>
   <text y="699.874" x="293.442,295.087" svgx:width="0.31,0.53" style="fill:rgb(0,0,0);font-family:AdvP7627;font-size:4.69px;stroke:none;">th</text>
   <text y="702.992" x="299.282,301.746,304.828,308.529,315.49,319.0474,320.428,323.603,327.6686,330.463,337.423,339.71,344.2838,345.712,349.768,353.8336,356.654,359.652,362.827,364.8598,366.291,370.348" svgx:width="0.29,0.36,0.44,0.82,0.42,0.55,0.38,0.48,0.55,0.82,0.27,0.54,0.55,0.48,0.48,0.55,0.35,0.38,0.24,0.55,0.48,0.48" style="fill:rgb(0,0,0);font-family:AdvP7627;font-size:8.47px;stroke:none;">frame (2 min 31 s), 30</text>
   <text y="699.874" x="374.4,376.045" svgx:width="0.31,0.53" style="fill:rgb(0,0,0);font-family:AdvP7627;font-size:4.69px;stroke:none;">th</text>
   <text y="702.992" x="380.239,382.704,385.786,389.487,396.447,400.0044,401.385,404.561,408.6266,411.477,418.438,420.724,425.2978,426.726,430.783,434.839,436.863,440.9286,443.734,446.732,449.907,451.9398,453.315,457.371" svgx:width="0.29,0.36,0.44,0.82,0.42,0.55,0.38,0.48,0.55,0.82,0.27,0.54,0.55,0.48,0.48,0.24,0.48,0.55,0.35,0.38,0.24,0.55,0.48,0.48" style="fill:rgb(0,0,0);font-family:AdvP7627;font-size:8.47px;stroke:none;">frame (3 min 46.6 s), 50</text>
   <text y="699.874" x="461.423,463.068" svgx:width="0.31,0.53" style="fill:rgb(0,0,0);font-family:AdvP7627;font-size:4.69px;stroke:none;">th</text>
   <text y="702.992" x="467.263,469.727,472.81,476.51,483.471,487.0284,488.466,491.641,495.70660000000004,498.5,505.461,507.748,512.3217999999999,513.751,517.807,521.863,523.887,527.9526,530.758,533.756,536.932,538.9648,540.396,544.452" svgx:width="0.29,0.36,0.44,0.82,0.42,0.55,0.38,0.48,0.55,0.82,0.27,0.54,0.55,0.48,0.48,0.24,0.48,0.55,0.35,0.38,0.24,0.55,0.48,0.48" style="fill:rgb(0,0,0);font-family:AdvP7627;font-size:8.47px;stroke:none;">frame (6 min 17.5 s), 60</text>
   <text y="699.874" x="548.504,550.148" svgx:width="0.31,0.53" style="fill:rgb(0,0,0);font-family:AdvP7627;font-size:4.69px;stroke:none;">th</text>
   <text y="713.48" x="42.86,45.324,48.406,52.107,59.068,62.6254,64.686,67.861,71.92660000000001,74.777,81.738,84.025,88.59880000000001,90.708,94.764,98.8296,101.649,104.647,107.823,109.85579999999999,111.967,116.023" svgx:width="0.29,0.36,0.44,0.82,0.42,0.55,0.38,0.48,0.55,0.82,0.27,0.54,0.55,0.48,0.48,0.55,0.35,0.38,0.24,0.55,0.48,0.48" style="fill:rgb(0,0,0);font-family:AdvP7627;font-size:8.47px;stroke:none;">frame (7 min 33 s), 70</text>
   <text y="710.362" x="120.076,121.72" svgx:width="0.31,0.53" style="fill:rgb(0,0,0);font-family:AdvP7627;font-size:4.69px;stroke:none;">th</text>
   <text y="713.48" x="126.652,129.116,132.199,135.899,142.86,146.41740000000001,148.478,151.653,155.71859999999998,158.569,165.53,167.817,172.3908,174.5,178.556,182.612,184.636,188.70159999999998,191.564,194.562,197.737,199.7698,201.882,205.938" svgx:width="0.29,0.36,0.44,0.82,0.42,0.55,0.38,0.48,0.55,0.82,0.27,0.54,0.55,0.48,0.48,0.24,0.48,0.55,0.35,0.38,0.24,0.55,0.48,0.48" style="fill:rgb(0,0,0);font-family:AdvP7627;font-size:8.47px;stroke:none;">frame (8 min 48.5 s), 80</text>
   <text y="710.362" x="209.99,211.635" svgx:width="0.31,0.53" style="fill:rgb(0,0,0);font-family:AdvP7627;font-size:4.69px;stroke:none;">th</text>
   <text y="713.48" x="216.51,218.974,222.057,225.757,232.718,236.2754,238.393,241.568,245.625,249.6906,252.509,259.47,261.757,266.3308,268.44,272.5056,275.357,278.354,281.53,283.5628,285.674,289.73" svgx:width="0.29,0.36,0.44,0.82,0.42,0.55,0.38,0.48,0.48,0.55,0.82,0.27,0.54,0.55,0.48,0.55,0.35,0.38,0.24,0.55,0.48,0.48" style="fill:rgb(0,0,0);font-family:AdvP7627;font-size:8.47px;stroke:none;">frame (10 min 4 s), 90</text>
   <text y="710.362" x="293.783,295.427" svgx:width="0.31,0.53" style="fill:rgb(0,0,0);font-family:AdvP7627;font-size:4.69px;stroke:none;">th</text>
   <text y="713.48" x="300.302,302.767,305.849,309.55,316.51,320.06739999999996,322.185,325.361,329.417,333.4826,336.301,343.262,345.549,350.1228,352.232,356.288,360.344,362.368,366.4336,369.296,372.294,375.469,377.5018,379.614,383.67,387.726" svgx:width="0.29,0.36,0.44,0.82,0.42,0.55,0.38,0.48,0.48,0.55,0.82,0.27,0.54,0.55,0.48,0.48,0.24,0.48,0.55,0.35,0.38,0.24,0.55,0.48,0.48,0.48" style="fill:rgb(0,0,0);font-family:AdvP7627;font-size:8.47px;stroke:none;">frame (11 min 19.5 s), 100</text>
   <text y="710.362" x="391.748,393.393" svgx:width="0.31,0.53" style="fill:rgb(0,0,0);font-family:AdvP7627;font-size:4.69px;stroke:none;">th</text>
   <text y="713.48" x="398.324,400.789,403.871,407.572,414.532,418.08939999999996,420.15,423.326,427.382,431.4476,434.267,441.228,443.514,448.0878,450.254,454.31,458.3756,461.196,464.193,467.41159999999996,469.472,473.173,477.754,482.2431,484.382,488.439,492.495" svgx:width="0.29,0.36,0.44,0.82,0.42,0.55,0.38,0.48,0.48,0.55,0.82,0.27,0.54,0.55,0.48,0.48,0.55,0.35,0.38,0.55,0.44,0.54,0.53,0.55,0.48,0.48,0.48" style="fill:rgb(0,0,0);font-family:AdvP7627;font-size:8.47px;stroke:none;">frame (12 min 35 s) and 110</text>
   <text y="710.362" x="496.573,498.218" svgx:width="0.31,0.53" style="fill:rgb(0,0,0);font-family:AdvP7627;font-size:4.69px;stroke:none;">th</text>
   <text y="713.48" x="503.093,505.557,508.639,512.34,519.301,522.8584000000001,524.976,528.151,532.207,536.2726,539.092,546.053,548.339" svgx:width="0.29,0.36,0.44,0.82,0.42,0.55,0.38,0.48,0.48,0.55,0.82,0.27,0.54" style="fill:rgb(0,0,0);font-family:AdvP7627;font-size:8.47px;stroke:none;">frame (13 min</text>
   <text y="723.911" x="42.861,46.917,50.973,52.997,57.0626,59.868,62.866,66.0846,67.578,69.865,74.4388,75.969,78.611,83.107,86.6644,88.214,91.211,94.734,97.817,100.103,103.626,106.624,108.65679999999999,110.21,115.325,119.821,123.3784,124.893,127.179,131.761,134.403,137.925,142.507,145.504,147.791,150.433,154.2445,155.789,160.193,162.6493,164.236,166.878,171.375,174.9324,176.424,180.921,183.207,185.672,188.136,191.218,194.919,198.442,201.084,203.37,207.774,212.3478,213.954,216.951,221.448,225.852,228.494,231.4585,233.059,235.523,239.926,242.9752,244.567,247.209,251.706,255.2634,256.755" svgx:width="0.48,0.48,0.24,0.48,0.55,0.35,0.38,0.55,0.27,0.54,0.55,0.31,0.53,0.42,0.55,0.35,0.42,0.36,0.27,0.42,0.35,0.24,0.55,0.6,0.53,0.42,0.55,0.27,0.54,0.31,0.42,0.54,0.35,0.27,0.31,0.45,0.55,0.52,0.29,0.55,0.31,0.53,0.42,0.55,0.53,0.27,0.29,0.29,0.36,0.44,0.42,0.31,0.27,0.52,0.54,0.55,0.35,0.53,0.52,0.31,0.35,0.55,0.29,0.52,0.36,0.55,0.31,0.53,0.42,0.55,0.63" style="fill:rgb(0,0,0);font-family:AdvP7627;font-size:8.47px;stroke:none;">50.5 s) in the series. The intensity of the diffraction spots for the R</text>
   <text y="722.268" code="2" x="261.978" svgx:width="0.5" style="fill:rgb(0,0,0);font-family:AdvP4C4E59;font-size:8.47px;stroke:none;">?</text>
   <text y="723.911" x="262.091" svgx:width="0.48" style="fill:rgb(0,0,0);font-family:AdvOT1ef757c0;font-size:8.47px;stroke:none;">3</text>
   <text y="723.911" x="266.116,274.62,279.116,283.613,287.314,290.311,293.86839999999995,295.425,299.922,303.445,306.968,310.05,313.573,317.273,320.271,323.794,328.2831,329.837,334.333,338.915,341.997,344.283,348.865,352.76120000000003,354.327,357.85,361.813,366.309,370.713,373.71,378.292,381.374,384.9314,386.47,389.112,393.51640000000003,395.088,397.73,402.226,405.7834,407.276,410.799,412.916,416.438,419.961,422.603,425.686,430.089,434.6628,436.245,440.564,444.086,447.787,454.748,456.7808,458.354,462.6737,464.194,467.895,472.476,476.9651,478.537,485.34,488.422,491.945,496.442,499.524,503.047,506.045,509.567,514.149,516.7747,518.391,521.033,525.529,529.0864,530.579,534.898" svgx:width="0.82,0.53,0.53,0.44,0.35,0.42,0.55,0.53,0.42,0.42,0.36,0.42,0.44,0.35,0.42,0.53,0.55,0.53,0.54,0.36,0.27,0.54,0.46,0.55,0.42,0.47,0.53,0.52,0.35,0.54,0.36,0.42,0.55,0.31,0.52,0.55,0.31,0.53,0.42,0.55,0.42,0.25,0.42,0.42,0.31,0.36,0.52,0.54,0.55,0.51,0.42,0.44,0.82,0.24,0.55,0.51,0.55,0.44,0.54,0.53,0.55,0.63,0.36,0.42,0.53,0.36,0.42,0.35,0.42,0.54,0.31,0.55,0.31,0.53,0.42,0.55,0.51,0.82" style="fill:rgb(0,0,0);font-family:AdvP7627;font-size:8.47px;stroke:none;">mphase decreased during exposure to the electron beam. F and Rrepresent the Fm</text>
   <text y="722.268" code="2" x="541.813" svgx:width="0.5" style="fill:rgb(0,0,0);font-family:AdvP4C4E59;font-size:8.47px;stroke:none;">?</text>
   <text y="723.911" x="541.926" svgx:width="0.48" style="fill:rgb(0,0,0);font-family:AdvOT1ef757c0;font-size:8.47px;stroke:none;">3</text>
   <text y="723.911" x="545.951" svgx:width="0.82" style="fill:rgb(0,0,0);font-family:AdvP7627;font-size:8.47px;stroke:none;">m</text>
   <text y="734.399" x="42.86,46.56,51.142,55.6311,57.826" svgx:width="0.44,0.54,0.53,0.55,0.63" style="fill:rgb(0,0,0);font-family:AdvP7627;font-size:8.47px;stroke:none;">and R</text>
   <text y="732.755" code="2" x="63.042" svgx:width="0.5" style="fill:rgb(0,0,0);font-family:AdvP4C4E59;font-size:8.47px;stroke:none;">?</text>
   <text y="734.399" x="63.099" svgx:width="0.48" style="fill:rgb(0,0,0);font-family:AdvOT1ef757c0;font-size:8.47px;stroke:none;">3</text>
   <text y="734.399" x="67.18,74.12540000000001,76.365,80.862,85.358,89.059,92.056,95.579,98.5435,100.798,103.085,107.6588,109.869,112.511,117.008,120.5654,122.738,127.057,131.376,136.458,138.726,141.012,145.593,150.09,152.376,155.899,159.422,162.42,164.4528,166.674,169.756,173.279,176.277,180.774,184.296,187.819,190.461,192.748,196.626,200.149,202.266,206.051,208.0838,210.326,215.441,219.937,223.4944,225.689,229.212,233.615,236.698,239.78,243.303,246.3,250.797,255.201,259.782,264.278,266.565,271.146,275.04220000000004,277.277,282.214,286.533,289.615,293.672,298.786,303.461,310.9993,313.275,316.976,321.557,326.0461,328.299,332.618,336.936,342.018,344.229,351.19,355.594,359.472,361.758,365.281,368.2455,370.534,374.235,377.317,380.8744,383.063,387.559,390.642,395.045,398.924,401.21,405.707,409.229,413.7181,415.943,418.229,422.8028,425.014,432.593,436.997,440.875,443.162,446.71939999999995,448.938,452.994,457.05960000000005,459.255,462.956,467.537,472.0261,474.279,481.858,486.261,490.14,492.426,495.98339999999996,498.146,502.202,506.2676,508.463,510.75,515.3238,517.534,520.176,524.673" svgx:width="0.82,0.55,0.53,0.53,0.44,0.35,0.42,0.35,0.55,0.27,0.54,0.55,0.31,0.53,0.42,0.55,0.51,0.51,0.6,0.55,0.27,0.54,0.53,0.27,0.42,0.42,0.35,0.24,0.55,0.36,0.42,0.35,0.53,0.42,0.42,0.31,0.27,0.46,0.42,0.25,0.45,0.24,0.55,0.6,0.53,0.42,0.55,0.42,0.52,0.36,0.36,0.42,0.35,0.53,0.52,0.54,0.53,0.27,0.54,0.46,0.55,0.58,0.51,0.36,0.48,0.6,0.55,0.89,0.55,0.44,0.54,0.53,0.55,0.51,0.51,0.6,0.55,0.82,0.52,0.46,0.27,0.42,0.35,0.55,0.44,0.36,0.42,0.55,0.53,0.36,0.52,0.46,0.27,0.53,0.42,0.53,0.55,0.27,0.54,0.55,0.89,0.52,0.46,0.27,0.42,0.55,0.48,0.48,0.55,0.44,0.54,0.53,0.55,0.89,0.52,0.46,0.27,0.42,0.55,0.48,0.48,0.55,0.27,0.54,0.55,0.31,0.53,0.42" style="fill:rgb(0,0,0);font-family:AdvP7627;font-size:8.47px;stroke:none;">m phases in the FFT indices, respectively. The corresponding BF-STEM and FFT movies are provided in Movie S1 and Movie S2 in the</text>
   <text y="744.83" x="42.859,45.857,50.438,54.934,59.431,61.548,65.071,72.032,75.555,80.136,82.778,86.478,88.5955,90.818,93.105,97.686,100.15,104.554,107.636,114.597,118.298,120.94,123.226,127.63,132.211,134.24380000000002,136.511,139.594,143.116,146.114,150.611,154.133,157.656,160.298,162.585,166.463,169.986,172.103,175.888" svgx:width="0.35,0.54,0.53,0.53,0.25,0.42,0.82,0.42,0.54,0.31,0.44,0.25,0.55,0.27,0.54,0.29,0.52,0.36,0.82,0.44,0.31,0.27,0.52,0.54,0.24,0.55,0.36,0.42,0.35,0.53,0.42,0.42,0.31,0.27,0.46,0.42,0.25,0.45,0.24" style="fill:rgb(0,0,0);font-family:AdvP7627;font-size:8.47px;stroke:none;">supplemental information, respectively.</text>
   <text y="23.924" x="382.45,390.728,398.964,407.201,410.758,416.935,423.462,426.559,432.626,436.863,442.59,446.147,451.414,457.711,466.518" svgx:width="0.71,0.71,0.71,0.28,0.52,0.55,0.24,0.51,0.34,0.48,0.28,0.44,0.53,0.76,0.54" style="fill:rgb(255,255,255);font-family:AdvOT144a03c1;font-size:10.96px;stroke:none;">www.nature.com/</text>
   <text y="23.924" x="472.932,477.864,482.905,486.127,492.089,498.39,501.831,505.053,508.845,512.067,517.108,521.579,527.541,534.182,540.593,545.064,548.505" svgx:width="0.41,0.42,0.25,0.5,0.53,0.27,0.25,0.3,0.25,0.42,0.36,0.5,0.56,0.54,0.36,0.27,0.41" style="fill:rgb(255,255,255);font-family:AdvOT1415ea69.B;font-size:10.96px;stroke:none;">scientificreports</text>
  </g>
  <path style="fill:rgb(23,22,21);stroke:none;stroke-width:1.0;" d="M138.220 51.820 L457.510 51.820 L457.510 187.140 L138.220 187.140 "/>
  <g begin="text">
   <text y="768.132" x="42.86,47.092,52.32,54.146,58.29,64.515,68.078,69.903,73.529,75.354" svgx:width="0.53,0.66,0.23,0.52,0.78,0.45,0.23,0.47,0.23,0.66" style="fill:rgb(178,178,177);font-family:AdvOT144a03c1;font-size:7.97px;stroke:none;">SCIENTIFIC</text>
   <text y="768.132" x="82.658,87.058,90.875,95.02,101.245,105.644,109.207" svgx:width="0.55,0.48,0.52,0.78,0.55,0.45,0.52" style="fill:rgb(178,178,177);font-family:AdvOT1415ea69.B;font-size:7.97px;stroke:none;">REPORTS</text>
   <text y="768.132" x="117.411,121.8742,123.987,128.8487,130.96,133.351,135.382,140.276,145.169,150.063,154.9247,157.038,161.5012,163.557,168.953,175.76,177.585,179.976,182.039,186.932,191.826,194.233,199.127,204.02,208.914,213.808,218.287,221.325,223.979,228.044,232.603,237.497,242.391,247.284,252.178" svgx:width="0.56,0.55,0.61,0.55,0.3,0.55,0.61,0.61,0.61,0.61,0.55,0.56,0.55,0.68,0.85,0.23,0.3,0.55,0.61,0.61,0.3,0.61,0.61,0.61,0.61,0.56,0.4,0.33,0.51,0.57,0.61,0.61,0.61,0.61,0.61" style="fill:rgb(0,0,0);font-family:AdvOT735b620e;font-size:7.97px;stroke:none;">| 4 : 5694 | DOI: 10.1038/srep05694</text>
   <text y="768.132" x="547.542" svgx:width="0.68" style="fill:rgb(0,0,0);font-family:AdvOTf32ed098.B;font-size:7.97px;stroke:none;">2</text>
  </g>
 </g>
</svg>
