<?xml version="1.0" encoding="UTF-8"?>
<svg height="778.132" width="2501.042" xmlns="http://www.w3.org/2000/svg">
 <g id="page" xmlns:svgx="http://www.xml-cml.org/schema/svgx">
  <rect style="fill:pink;opacity:0.2;stroke:blue;stroke-width:0.3;" x="-8.958" y="8.68" height="122.854" width="612.625" title="1"/>
  <text y="8.68" class="image" id="image.1.1" width="612" height="122" x="-8.958" style="font-size:5.0px;">image.1.1.-9_604.9_132</text>
  <g begin="text">
   <text y="164.239" x="143.943,163.358,175.553,187.986,200.18,208.142,221.819,227.0792,233.293,246.97,259.403,273.0317,279.385,296.313,309.512,321.945,327.66,335.622,348.82,354.033,359.245,372.922,386.598,391.811,404.00509999999997,410.291,423.489,435.181,447.615,453.329,465.763,477.957,487.401,493.618" svgx:width="0.81,0.51,0.52,0.51,0.33,0.57,0.22,0.55,0.57,0.52,0.57,0.55,0.71,0.55,0.52,0.24,0.33,0.55,0.22,0.22,0.57,0.57,0.22,0.51,0.55,0.55,0.49,0.52,0.24,0.52,0.51,0.4,0.26,0.4" style="fill:rgb(0,0,0);font-family:AdvOT735b620e;font-size:23.91px;stroke:none;">General and Controllable Synthesis</text>
   <text y="194.117" x="143.943,157.142,162.856,170.818,184.495,190.21,202.404,216.08,227.79590000000002,234.085,247.283,253.7387,259.936,281.336,293.53,299.245,312.921,318.1812,324.396,344.815,356.507,362.724,376.401,388.595,402.032,413.222,419.439" svgx:width="0.55,0.24,0.33,0.57,0.24,0.51,0.57,0.49,0.55,0.55,0.27,0.55,0.89,0.51,0.24,0.57,0.22,0.55,0.85,0.49,0.26,0.57,0.51,0.56,0.47,0.26,0.85" style="fill:rgb(0,0,0);font-family:AdvOT735b620e;font-size:23.91px;stroke:none;">Strategy of Metal Oxide/TiO</text>
   <text y="198.085" x="439.937" svgx:width="0.61" style="fill:rgb(0,0,0);font-family:AdvOT735b620e;font-size:15.94px;stroke:none;">2</text>
   <text y="223.994" x="143.943,160.872,167.088,179.283,187.245,200.921,208.883,220.073,232.507,238.723,249.913,263.59,268.8502,275.131,292.06,304.254,309.969,322.163,330.125,343.323,352.768,358.482,366.444,378.639,389.829,395.543,407.737,415.699,427.894,437.458,443.682,461.614,467.831,473.545" svgx:width="0.71,0.26,0.51,0.33,0.57,0.33,0.47,0.52,0.26,0.47,0.57,0.22,0.55,0.71,0.51,0.24,0.51,0.33,0.55,0.4,0.24,0.33,0.51,0.47,0.24,0.51,0.33,0.51,0.4,0.55,0.75,0.26,0.24,0.52" style="fill:rgb(0,0,0);font-family:AdvOT735b620e;font-size:23.91px;stroke:none;">Hierarchical Heterostructures with</text>
   <text y="253.872" x="143.943,149.419,167.59,181.267,189.229,202.428,213.379,225.573,239.20170000000002,245.538,254.504,260.721,266.435,278.869,285.085,297.279,315.451,320.161,325.637,338.835,351.2682,357.507,370.944,384.621,390.335,396.05,408.244,416.206" svgx:width="0.23,0.76,0.57,0.33,0.55,0.46,0.51,0.57,0.55,0.38,0.26,0.24,0.52,0.26,0.51,0.76,0.2,0.23,0.55,0.52,0.55,0.56,0.57,0.24,0.24,0.51,0.33,0.49" style="fill:rgb(0,0,0);font-family:AdvOT735b620e;font-size:23.91px;stroke:none;">Improved Lithium-Ion Battery</text>
   <text y="283.805" x="143.943,155.898,168.093,176.055,182.51,195.709,203.671,221.843,235.519,247.953,259.143" svgx:width="0.5,0.51,0.33,0.27,0.55,0.33,0.76,0.57,0.52,0.47,0.51" style="fill:rgb(0,0,0);font-family:AdvOT735b620e;font-size:23.91px;stroke:none;">Performance</text>
   <text y="307.672" x="143.943,150.247,154.78,159.702,164.926,170.151,174.978,179.9918,182.494,192.148,197.373,202.294" svgx:width="0.67,0.48,0.52,0.55,0.55,0.51,0.53,0.55,1.02,0.55,0.52,0.55" style="fill:rgb(0,0,0);font-family:AdvOT144a03c1;font-size:9.46px;stroke:none;">Hengguo Wang</text>
   <text y="304.214" x="207.496" svgx:width="0.57" style="fill:rgb(0,0,0);font-family:AdvOT144a03c1;font-size:5.24px;stroke:none;">1</text>
   <text y="307.672" x="210.898,213.5468,216.0,222.209,226.742,228.806,233.831,238.753,243.956,246.444,254.422" svgx:width="0.28,0.55,0.66,0.48,0.22,0.53,0.52,0.55,0.55,0.84,0.55" style="fill:rgb(0,0,0);font-family:AdvOT144a03c1;font-size:9.46px;stroke:none;">, Delong Ma</text>
   <text y="304.214" x="259.653,263.024,264.68" svgx:width="0.57,0.28,0.57" style="fill:rgb(0,0,0);font-family:AdvOT144a03c1;font-size:5.24px;stroke:none;">1,2</text>
   <text y="307.672" x="268.044,270.6928,273.203,278.617,280.983,286.208,291.233,293.297,297.83,300.195,302.627,308.93,313.757,318.982,323.903" svgx:width="0.28,0.55,0.57,0.25,0.55,0.53,0.22,0.48,0.25,0.55,0.67,0.51,0.55,0.52,0.55" style="fill:rgb(0,0,0);font-family:AdvOT144a03c1;font-size:9.46px;stroke:none;">, Xiaolei Huang</text>
   <text y="304.214" x="329.159,332.53,334.186" svgx:width="0.57,0.28,0.57" style="fill:rgb(0,0,0);font-family:AdvOT144a03c1;font-size:5.24px;stroke:none;">1,3</text>
   <text y="307.672" x="337.549,340.1978,342.652,348.066,352.893,357.81219999999996,360.283,366.587,371.414,376.638,381.56" svgx:width="0.28,0.55,0.57,0.51,0.52,0.55,0.67,0.51,0.55,0.52,0.55" style="fill:rgb(0,0,0);font-family:AdvOT144a03c1;font-size:9.46px;stroke:none;">, Yun Huang</text>
   <text y="304.214" x="386.816,390.186,391.842" svgx:width="0.57,0.28,0.57" style="fill:rgb(0,0,0);font-family:AdvOT144a03c1;font-size:5.24px;stroke:none;">1,2</text>
   <text y="307.672" x="397.644,404.1714,406.601,412.015,414.381,419.303,424.527,429.5408,432.056,437.177,442.098,447.323,452.244" svgx:width="0.69,0.55,0.57,0.25,0.52,0.55,0.53,0.55,0.54,0.52,0.55,0.52,0.55" style="fill:rgb(0,0,0);font-family:AdvOT144a03c1;font-size:9.46px;stroke:none;">&amp; Xinbo Zhang</text>
   <text y="304.214" x="457.455" svgx:width="0.57" style="fill:rgb(0,0,0);font-family:AdvOT144a03c1;font-size:5.24px;stroke:none;">1</text>
   <text y="334.261" x="143.943" svgx:width="0.61" style="fill:rgb(0,0,0);font-family:AdvOT735b620e;font-size:4.98px;stroke:none;">1</text>
   <text y="337.549" x="147.402,151.526,153.312,157.586,159.371,163.1807,164.805,169.319,173.129,176.7893,178.354,181.156,185.43,189.704,193.828,196.316,200.59,202.376,206.5,208.989,212.6493,214.294,218.419,220.4359,222.004,226.047,230.321,232.809,236.6187,238.218,242.185,246.459,248.947,250.733,254.6174,256.245,260.287,264.098,267.049,271.173,274.984,277.472,280.969,284.7787,286.403,291.462,293.247,295.19,296.819,298.761,302.572,306.846,308.632,310.574,314.699,318.584,320.825,322.514,327.804,331.689,335.963,339.848,344.122,347.619,351.504,355.315,359.1994,360.835,362.546,366.431,369.383,371.168,373.111,374.897,378.707,380.493,384.3027,385.948,390.072,392.0889,393.658,398.866,403.139,407.413,409.042,410.985,414.795,419.0529,420.698,425.988,429.874,433.684,439.363,441.305,444.337,446.123,448.611,452.265,454.506,456.072,461.362,465.312,467.255,471.14,474.951,477.902,481.7117,483.283,488.49,491.987,496.261,500.535,504.346,510.024,513.6843,515.311,519.436,521.4529,523.077,527.202,530.699,532.641,536.452,540.337,543.834,547.645,550.596" svgx:width="0.55,0.24,0.57,0.24,0.51,0.55,0.6,0.51,0.49,0.55,0.38,0.57,0.57,0.55,0.33,0.57,0.24,0.55,0.33,0.49,0.55,0.55,0.27,0.55,0.54,0.57,0.33,0.51,0.55,0.53,0.57,0.33,0.24,0.52,0.55,0.54,0.51,0.4,0.55,0.51,0.33,0.47,0.51,0.55,0.68,0.24,0.26,0.22,0.26,0.51,0.57,0.24,0.26,0.55,0.52,0.3,0.55,0.71,0.52,0.57,0.52,0.57,0.47,0.52,0.51,0.52,0.55,0.23,0.52,0.4,0.24,0.26,0.24,0.51,0.24,0.51,0.55,0.55,0.27,0.55,0.7,0.57,0.57,0.22,0.26,0.51,0.57,0.55,0.71,0.52,0.51,0.76,0.26,0.4,0.24,0.33,0.49,0.3,0.55,0.71,0.52,0.26,0.52,0.51,0.4,0.51,0.55,0.7,0.47,0.57,0.57,0.51,0.76,0.49,0.55,0.55,0.27,0.55,0.55,0.47,0.26,0.51,0.52,0.47,0.51,0.4,0.3" style="fill:rgb(0,0,0);font-family:AdvOT735b620e;font-size:7.47px;stroke:none;">State Key Laboratory of Rare Earth Resource Utilization, Changchun Institute of Applied Chemistry, Chinese Academy of Sciences,</text>
   <text y="347.527" x="143.944,148.532,153.12,157.777,162.365,166.954,171.5107,173.028,178.318,182.204,186.479,190.365,194.64,198.137,202.023,205.835,209.824,212.065,213.566,218.857,222.743,224.686,228.572,232.847" svgx:width="0.61,0.61,0.61,0.61,0.61,0.61,0.55,0.71,0.52,0.57,0.52,0.57,0.47,0.52,0.51,0.52,0.3,0.55,0.71,0.52,0.26,0.52,0.57,0.3" style="fill:rgb(0,0,0);font-family:AdvOT735b620e;font-size:7.47px;stroke:none;">130022 Changchun, China,</text>
   <text y="344.239" x="236.579" svgx:width="0.61" style="fill:rgb(0,0,0);font-family:AdvOT735b620e;font-size:4.98px;stroke:none;">2</text>
   <text y="347.527" x="240.038,244.551,248.361,252.0213,253.53,256.331,260.605,264.879,269.004,271.492,275.766,277.551,281.676,284.164,287.8243,289.356,293.48,295.49690000000004,296.953,302.225,306.035,307.821,311.946,317.624,321.749,326.022,327.965,329.594,333.4037,334.934,341.621,345.895,347.681,351.491,353.98,355.922,360.196,361.825,364.776,367.017,368.55,375.237,377.179,381.065,383.007,385.959,387.745,390.233,393.8933,395.476,399.601,401.6179,403.073,407.04,411.314,415.125,418.622,422.896,424.681,426.711,430.836,434.721,436.962,438.446,442.721,446.606,450.8639,452.392,456.516,460.013,463.899,468.023,472.147,473.7904,475.294,479.418,481.4349,482.947,489.634,493.908,495.694,499.505,501.993,503.935,508.209,509.838,512.826,514.353,518.477,521.974,523.917,527.727,531.612,535.109,538.9187000000001,540.429,544.703,548.588" svgx:width="0.6,0.51,0.49,0.55,0.38,0.57,0.57,0.55,0.33,0.57,0.24,0.55,0.33,0.49,0.55,0.55,0.27,0.55,0.7,0.51,0.24,0.55,0.76,0.55,0.57,0.26,0.22,0.51,0.55,0.89,0.57,0.24,0.51,0.33,0.26,0.57,0.22,0.4,0.3,0.55,0.89,0.26,0.52,0.26,0.4,0.24,0.33,0.49,0.55,0.55,0.27,0.55,0.53,0.57,0.51,0.47,0.57,0.24,0.26,0.55,0.52,0.3,0.55,0.57,0.52,0.57,0.55,0.55,0.47,0.52,0.55,0.55,0.22,0.55,0.55,0.27,0.55,0.89,0.57,0.24,0.51,0.33,0.26,0.57,0.22,0.4,0.55,0.55,0.47,0.26,0.51,0.52,0.47,0.51,0.55,0.57,0.52,0.57" style="fill:rgb(0,0,0);font-family:AdvOT735b620e;font-size:7.47px;stroke:none;">Key Laboratory of Automobile Materials, Ministry of Education, and School of Materials Science and</text>
   <text y="357.505" x="143.944,147.911,151.796,156.07,158.013,161.898,165.709,169.52,172.008,174.045,177.93,182.204,184.445,185.893,188.224,190.166,191.795,193.738,197.6224,199.044,204.103,207.988,209.931,213.353,217.241,219.729,222.681,224.623,226.409,230.063,232.30399999999997,233.738,239.028,242.913,247.187,251.072,255.346,258.843,262.728,266.539,270.4234,271.945,276.533,281.121,285.708,290.296,294.884,299.471,301.712,303.18,308.47,312.356,314.298,318.184,322.458" svgx:width="0.53,0.52,0.57,0.26,0.52,0.51,0.51,0.33,0.26,0.52,0.57,0.3,0.55,0.31,0.26,0.22,0.26,0.52,0.55,0.68,0.52,0.26,0.46,0.51,0.33,0.4,0.26,0.24,0.49,0.3,0.55,0.71,0.52,0.57,0.52,0.57,0.47,0.52,0.51,0.52,0.55,0.61,0.61,0.61,0.61,0.61,0.61,0.3,0.55,0.71,0.52,0.26,0.52,0.57,0.3" style="fill:rgb(0,0,0);font-family:AdvOT735b620e;font-size:7.47px;stroke:none;">Engineering, Jilin University, Changchun 130012, China,</text>
   <text y="354.16" x="326.211" svgx:width="0.61" style="fill:rgb(0,0,0);font-family:AdvOT735b620e;font-size:4.98px;stroke:none;">3</text>
   <text y="357.505" x="329.612,335.68,338.168,342.442,346.715,350.526,354.8,356.586,360.39570000000003,361.868,366.927,370.812,372.755,376.177,379.987,382.475,385.507,387.449,389.235,392.8953,394.294,398.418,400.4349,401.89,407.18,411.066,413.008,416.894,420.704,423.656,427.4657,428.931,434.138,437.635,441.909,446.183,449.994,455.672,459.33230000000003,460.79,464.914,466.9309,468.386,472.511,476.008,477.951,481.761,485.647,489.144,492.954,495.905,498.14599999999996,499.622,503.821,507.632,509.574,511.517,513.46,517.345,521.6029,523.091,527.679,532.266,536.854,541.442,546.029,550.617" svgx:width="0.81,0.33,0.57,0.57,0.51,0.57,0.24,0.51,0.55,0.68,0.52,0.26,0.46,0.51,0.33,0.4,0.26,0.24,0.49,0.55,0.55,0.27,0.55,0.71,0.52,0.26,0.52,0.51,0.4,0.51,0.55,0.7,0.47,0.57,0.57,0.51,0.76,0.49,0.55,0.55,0.27,0.55,0.55,0.47,0.26,0.51,0.52,0.47,0.51,0.4,0.3,0.55,0.56,0.51,0.26,0.26,0.26,0.52,0.57,0.55,0.61,0.61,0.61,0.61,0.61,0.61,0.3" style="fill:rgb(0,0,0);font-family:AdvOT735b620e;font-size:7.47px;stroke:none;">Graduate University of Chinese Academy of Sciences, Beijing 100049,</text>
   <text y="367.483" x="143.944,147.68,149.921,151.881,155.923,158.164,160.157,165.447,169.333,171.275,175.161,179.435" svgx:width="0.5,0.3,0.55,0.54,0.3,0.55,0.71,0.52,0.26,0.52,0.57,0.3" style="fill:rgb(0,0,0);font-family:AdvOT735b620e;font-size:7.47px;stroke:none;">P. R. China.</text>
   <text y="397.531" x="143.943,153.105,157.1728,159.647,164.673,168.714,176.598,181.425,186.649,190.199,193.246,196.89,201.121,204.168,208.2358,210.67,214.927,217.359,220.909,223.568,231.452,236.478,238.939,242.98,245.25039999999998,247.69,251.731,254.684,257.637,260.296,264.234,266.893,270.935,276.159,279.207,281.4774,283.973,288.308,292.349,295.3762,297.862,302.197,306.238,309.882,313.432,317.662,320.71,323.369,325.83,329.89779999999996,332.331,335.881,338.928,342.572,346.803,349.85,353.892,358.425,362.77660000000003,365.269,368.222,373.049,376.6438,379.158,382.206,387.326,391.3938,393.842,397.391,401.726,406.95,409.998,415.118,419.16,422.709,425.368,428.9628,431.372,436.199,439.1316,441.576,446.801,451.628,455.963,460.004,462.46360000000004,464.934,470.054,472.714,476.755,480.399,484.63,488.274,492.211,497.331,499.991,503.928,508.159" svgx:width="0.97,0.43,0.55,0.53,0.43,0.83,0.51,0.55,0.38,0.32,0.38,0.45,0.32,0.43,0.55,0.45,0.55,0.38,0.28,0.83,0.53,0.26,0.43,0.24,0.55,0.43,0.31,0.31,0.28,0.42,0.28,0.43,0.55,0.32,0.24,0.55,0.46,0.43,0.32,0.55,0.46,0.43,0.38,0.38,0.45,0.32,0.28,0.26,0.43,0.55,0.38,0.32,0.38,0.45,0.32,0.43,0.48,0.46,0.55,0.31,0.51,0.38,0.55,0.32,0.54,0.43,0.55,0.38,0.46,0.55,0.32,0.54,0.43,0.38,0.28,0.38,0.55,0.51,0.31,0.55,0.55,0.51,0.46,0.43,0.26,0.55,0.54,0.28,0.43,0.38,0.45,0.38,0.42,0.54,0.28,0.42,0.45,0.26" style="fill:rgb(0,0,0);font-family:AdvOT5e4d79fc;font-size:9.46px;stroke:none;">We demonstrate a simple, efficient, yet versatile strategy for the synthesis of novel hierarchical</text>
   <text y="407.679" x="143.943,149.064,153.105,156.153,160.194,163.838,168.665,172.214,175.262,178.906,184.026,187.963,191.011,196.131,199.775,203.816,207.4108,209.877,213.814,218.641,226.525,231.55,236.377,239.927,243.968,248.9818,251.432,256.259,259.1916,261.693,267.609,270.268" svgx:width="0.54,0.43,0.32,0.43,0.38,0.51,0.38,0.32,0.38,0.54,0.42,0.32,0.54,0.38,0.43,0.38,0.55,0.42,0.51,0.83,0.53,0.51,0.38,0.43,0.53,0.55,0.51,0.31,0.55,0.63,0.28,0.75" style="fill:rgb(0,0,0);font-family:AdvOT5e4d79fc;font-size:9.46px;stroke:none;">heterostructures composed of TiO</text>
   <text y="409.266" x="277.398" svgx:width="0.49" style="fill:rgb(0,0,0);font-family:AdvOT5e4d79fc;font-size:6.31px;stroke:none;">2</text>
   <text y="407.679" x="283.294,288.519,292.75,297.974,302.801,305.754,308.413,313.335,317.376,320.9708,323.49,327.039,330.086,334.128,341.9798,344.466,348.697,353.921,358.9348,361.417,365.752,369.983,373.626,376.286,381.113,386.233,389.8278,392.257,400.141,404.183,407.23,411.461,413.92060000000004,416.408,421.235,425.665,428.324,433.35,437.391,440.98580000000004,443.394,446.64,455.016,462.115,465.664,468.8804,471.399,474.949,478.99,482.927,487.754,492.979,498.004,502.235,505.879" svgx:width="0.55,0.45,0.55,0.51,0.31,0.28,0.52,0.43,0.38,0.55,0.38,0.32,0.43,0.83,0.55,0.45,0.55,0.53,0.55,0.46,0.45,0.38,0.28,0.51,0.54,0.38,0.55,0.83,0.43,0.32,0.45,0.26,0.55,0.51,0.47,0.28,0.53,0.43,0.38,0.55,0.34,0.88,0.75,0.38,0.34,0.55,0.38,0.43,0.42,0.51,0.55,0.53,0.45,0.38,0.46" style="fill:rgb(0,0,0);font-family:AdvOT5e4d79fc;font-size:9.46px;stroke:none;">nanofiber stem and various metal oxides (MOs) secondary</text>
   <text y="417.827" x="143.943,149.168,153.398,158.623,163.45,166.999,170.047,173.691,178.811,182.748,185.796,190.916,194.56,198.601,202.151,204.4214,206.928,209.588,214.812,218.75,221.21,226.331,231.356,234.016,239.24,243.7808,246.216,252.519" svgx:width="0.55,0.45,0.55,0.51,0.38,0.32,0.38,0.54,0.42,0.32,0.54,0.38,0.43,0.38,0.24,0.55,0.28,0.55,0.42,0.26,0.54,0.53,0.28,0.55,0.48,0.55,0.67,0.51" style="fill:rgb(0,0,0);font-family:AdvOT5e4d79fc;font-size:9.46px;stroke:none;">nanostructures, including Co</text>
   <text y="419.414" x="257.386" svgx:width="0.49" style="fill:rgb(0,0,0);font-family:AdvOT5e4d79fc;font-size:6.31px;stroke:none;">3</text>
   <text y="417.827" x="260.844" svgx:width="0.75" style="fill:rgb(0,0,0);font-family:AdvOT5e4d79fc;font-size:9.46px;stroke:none;">O</text>
   <text y="419.414" x="267.931" svgx:width="0.49" style="fill:rgb(0,0,0);font-family:AdvOT5e4d79fc;font-size:6.31px;stroke:none;">4</text>
   <text y="417.827" x="271.389,273.6594,276.151,281.272" svgx:width="0.24,0.55,0.54,0.43" style="fill:rgb(0,0,0);font-family:AdvOT5e4d79fc;font-size:9.46px;stroke:none;">, Fe</text>
   <text y="419.414" x="285.279" svgx:width="0.49" style="fill:rgb(0,0,0);font-family:AdvOT5e4d79fc;font-size:6.31px;stroke:none;">2</text>
   <text y="417.827" x="288.794" svgx:width="0.75" style="fill:rgb(0,0,0);font-family:AdvOT5e4d79fc;font-size:9.46px;stroke:none;">O</text>
   <text y="419.414" x="295.88" svgx:width="0.49" style="fill:rgb(0,0,0);font-family:AdvOT5e4d79fc;font-size:6.31px;stroke:none;">3</text>
   <text y="417.827" x="299.339,301.6094,304.044,309.165" svgx:width="0.24,0.55,0.54,0.43" style="fill:rgb(0,0,0);font-family:AdvOT5e4d79fc;font-size:9.46px;stroke:none;">, Fe</text>
   <text y="419.414" x="313.228" svgx:width="0.49" style="fill:rgb(0,0,0);font-family:AdvOT5e4d79fc;font-size:6.31px;stroke:none;">3</text>
   <text y="417.827" x="316.686" svgx:width="0.75" style="fill:rgb(0,0,0);font-family:AdvOT5e4d79fc;font-size:9.46px;stroke:none;">O</text>
   <text y="419.414" x="323.83" svgx:width="0.49" style="fill:rgb(0,0,0);font-family:AdvOT5e4d79fc;font-size:6.31px;stroke:none;">4</text>
   <text y="417.827" x="327.288,329.5584,331.994,336.225,341.449,346.4628,348.945,355.248,360.369,367.467,369.7374,372.189,377.111,381.4626,383.924,388.155,393.181,397.515,401.746,406.971,410.018,414.249,418.782,422.824,427.651,432.771,436.32,438.781,443.1326,445.605,449.542,454.369,462.253,467.175,469.834,475.059,477.718,482.943,487.4838,489.938,492.986,498.106,502.17379999999997,504.622,508.956,512.998,516.642,520.191,524.421,527.469,530.129,532.589,535.249,538.297,542.6486,545.1,549.927" svgx:width="0.24,0.55,0.45,0.55,0.53,0.55,0.67,0.54,0.75,0.24,0.55,0.52,0.46,0.55,0.45,0.53,0.46,0.45,0.55,0.32,0.45,0.48,0.43,0.51,0.54,0.38,0.26,0.46,0.55,0.42,0.51,0.83,0.52,0.28,0.55,0.28,0.55,0.48,0.55,0.32,0.54,0.43,0.55,0.46,0.43,0.38,0.38,0.45,0.32,0.28,0.26,0.28,0.32,0.46,0.55,0.51,0.31" style="fill:rgb(0,0,0);font-family:AdvOT5e4d79fc;font-size:9.46px;stroke:none;">, and CuO, by advantageously combining the versatility of</text>
   <text y="427.975" x="143.943,146.99,152.111,156.1788,158.626,162.667,165.128,169.17,173.107,176.155,179.798,184.625,188.175,193.2,195.86,201.084,206.309,208.968,214.193,218.7338,221.215,224.262,228.303,232.241,237.361,242.586,245.245,250.167,255.287,259.3548,261.806,266.037,271.261,276.2748,278.757,283.878,288.213,293.238,296.882,301.709,304.757,309.877,313.918,317.562,325.446,329.677,332.13660000000004,334.599,339.133,342.777,347.604,354.011,357.059,362.16740000000004,364.647,372.531,376.572,379.62,384.74,389.567,394.593,396.8634,399.342,402.295,407.122,410.71680000000003,413.231,419.639,424.759,427.419,431.356,436.4644,438.969,442.017,447.137,451.2048,453.653,457.59,462.417,467.641,470.689,474.333,479.16,481.621,484.081,488.312,493.234,495.694,499.7618,502.181,505.134,509.961,513.605,521.489,525.72,528.768,531.427,536.254" svgx:width="0.32,0.54,0.43,0.55,0.43,0.26,0.43,0.42,0.32,0.38,0.51,0.38,0.53,0.28,0.55,0.55,0.28,0.55,0.48,0.55,0.32,0.43,0.42,0.54,0.55,0.28,0.52,0.54,0.43,0.55,0.45,0.55,0.53,0.55,0.54,0.46,0.53,0.38,0.51,0.32,0.54,0.43,0.38,0.83,0.45,0.26,0.55,0.48,0.38,0.51,0.68,0.32,0.54,0.55,0.83,0.43,0.32,0.54,0.51,0.53,0.24,0.55,0.31,0.51,0.38,0.55,0.68,0.54,0.28,0.42,0.54,0.55,0.32,0.54,0.43,0.55,0.42,0.51,0.55,0.32,0.38,0.51,0.26,0.26,0.45,0.52,0.26,0.43,0.55,0.31,0.51,0.38,0.83,0.45,0.32,0.28,0.51,0.55" style="fill:rgb(0,0,0);font-family:AdvOT5e4d79fc;font-size:9.46px;stroke:none;">the electrospinning technique and hydrothermal growth method, for which the controllable formation</text>
   <text y="438.123" x="143.943,148.968,152.612,157.439,161.376,165.418,168.967,172.5618,175.01,179.241,184.465,189.4788,191.961,196.987,201.814,205.363,208.912,211.572,216.494,218.954,223.0218,225.466,228.419,233.246,236.89,244.774,249.005,252.052,254.712,259.539,264.74199999999996,267.192,275.076,279.117,283.054,288.175,292.405,297.63,300.289,303.839,311.6908,314.19,318.421,322.065,326.1328,328.59,332.821,335.282,338.831,343.6556,346.108,348.768,353.992,358.327,362.369,365.918,368.965,371.625,376.159,380.389,383.437,387.478,392.504,394.7744,397.245,405.621,410.448,414.092,418.133,422.96,427.295,431.336,434.98,437.2504,439.763,443.994,447.58880000000005,449.968,454.225,456.658,461.683,465.327,470.154,474.981,477.934,481.18,486.007,488.96,492.207,496.144,500.971,506.195,510.133,514.174,519.2" svgx:width="0.53,0.38,0.51,0.42,0.43,0.38,0.38,0.55,0.45,0.55,0.53,0.55,0.53,0.51,0.38,0.38,0.28,0.52,0.26,0.43,0.55,0.31,0.51,0.38,0.83,0.45,0.32,0.28,0.51,0.55,0.55,0.83,0.43,0.42,0.54,0.45,0.55,0.28,0.38,0.83,0.55,0.45,0.38,0.43,0.55,0.45,0.26,0.38,0.51,0.55,0.28,0.55,0.46,0.43,0.38,0.32,0.28,0.48,0.45,0.32,0.43,0.53,0.24,0.55,0.88,0.51,0.38,0.43,0.51,0.46,0.43,0.38,0.24,0.55,0.45,0.38,0.55,0.45,0.55,0.53,0.38,0.51,0.51,0.31,0.34,0.51,0.31,0.34,0.42,0.51,0.55,0.42,0.43,0.53,0.32" style="fill:rgb(0,0,0);font-family:AdvOT5e4d79fc;font-size:9.46px;stroke:none;">process and possible formation mechanism are also investigated. Moreover, as a proof-of-concept</text>
   <text y="448.271" x="143.943,148.968,153.01,160.894,165.721,170.945,174.494,177.542,181.186,185.417,188.464,191.124,195.951,201.154,203.697,208.523,211.4556,213.901,216.949,222.069,226.1368,228.585,231.538,236.658,241.882,245.82,248.867,251.527,256.354,261.578,265.809,268.26860000000005,270.764,275.789,279.433,284.26,289.286,293.327,296.971,300.019,302.678,306.72,310.31480000000005,312.715,317.542,320.47459999999995,322.977,326.025,331.145,335.186,338.735,342.8028,345.258,350.378,353.037,357.079,360.723,364.953,368.597,372.535,377.655,380.314,384.252,388.482,390.94160000000005,393.446,398.566,402.607,405.655,409.696,413.34,418.167,421.716,424.764,428.408,433.528,437.465,440.513,445.633,449.277,453.319,456.868,459.1384,461.59,464.637,469.758,473.82579999999996,476.273,482.577" svgx:width="0.53,0.43,0.83,0.51,0.55,0.38,0.32,0.38,0.45,0.32,0.28,0.51,0.55,0.55,0.51,0.31,0.55,0.32,0.54,0.43,0.55,0.31,0.54,0.55,0.42,0.32,0.28,0.51,0.55,0.45,0.26,0.55,0.53,0.38,0.51,0.53,0.43,0.38,0.32,0.28,0.43,0.38,0.55,0.51,0.31,0.55,0.32,0.54,0.43,0.38,0.43,0.55,0.54,0.28,0.43,0.38,0.45,0.38,0.42,0.54,0.28,0.42,0.45,0.26,0.55,0.54,0.43,0.32,0.43,0.38,0.51,0.38,0.32,0.38,0.54,0.42,0.32,0.54,0.38,0.43,0.38,0.24,0.55,0.32,0.54,0.43,0.55,0.67,0.51" style="fill:rgb(0,0,0);font-family:AdvOT5e4d79fc;font-size:9.46px;stroke:none;">demonstration of the functional properties of these hierarchical heterostructures, the Co</text>
   <text y="449.858" x="487.446" svgx:width="0.49" style="fill:rgb(0,0,0);font-family:AdvOT5e4d79fc;font-size:6.31px;stroke:none;">3</text>
   <text y="448.271" x="490.904" svgx:width="0.75" style="fill:rgb(0,0,0);font-family:AdvOT5e4d79fc;font-size:9.46px;stroke:none;">O</text>
   <text y="449.858" x="497.99" svgx:width="0.49" style="fill:rgb(0,0,0);font-family:AdvOT5e4d79fc;font-size:6.31px;stroke:none;">4</text>
   <text y="448.271" x="501.449,504.496,510.412,513.071" svgx:width="0.32,0.63,0.28,0.75" style="fill:rgb(0,0,0);font-family:AdvOT5e4d79fc;font-size:9.46px;stroke:none;">/TiO</text>
   <text y="449.858" x="520.214" svgx:width="0.49" style="fill:rgb(0,0,0);font-family:AdvOT5e4d79fc;font-size:6.31px;stroke:none;">2</text>
   <text y="458.419" x="143.943,149.064,151.723,155.765,159.408,163.639,167.283,171.22,176.341,179.0,182.937,187.168,189.6276,191.225,196.345,200.386,203.434,207.475,211.119,215.946,219.495,222.543,226.187,231.307,235.245,238.292,243.412,247.056,251.098,254.6928,256.25,260.481,264.125,268.1928,269.743,272.403,277.627,281.962,286.003,289.552,292.6,295.26,299.793,304.024,307.071,311.113,316.1268,317.705,321.936,325.5308,327.059,330.106,335.227,339.29479999999995,340.835,343.296,345.956,349.003,354.124,356.783,361.904,369.788,373.034,375.694,380.521,385.724,387.379,392.301,396.532,399.579,402.627,406.668,410.312,412.972,417.013,420.6078,422.132,425.378,430.498,433.849,439.66,443.209,446.4254,448.04,452.271,457.495,462.322,467.348,471.4158,472.928,480.812,485.043,488.09,492.132,495.776,498.435,502.666,505.127,508.72180000000003,510.289,513.242,518.069,521.6637999999999,523.271,526.319,531.439,535.5068,537.048,540.001,542.66,546.304,549.854" svgx:width="0.54,0.28,0.43,0.38,0.45,0.38,0.42,0.54,0.28,0.42,0.45,0.26,0.55,0.54,0.43,0.32,0.43,0.38,0.51,0.38,0.32,0.38,0.54,0.42,0.32,0.54,0.38,0.43,0.38,0.55,0.45,0.38,0.43,0.55,0.28,0.55,0.46,0.43,0.38,0.32,0.28,0.48,0.45,0.32,0.43,0.53,0.55,0.45,0.38,0.55,0.32,0.54,0.43,0.55,0.26,0.28,0.32,0.54,0.28,0.54,0.83,0.34,0.28,0.51,0.55,0.55,0.52,0.45,0.32,0.32,0.43,0.38,0.28,0.43,0.38,0.55,0.34,0.54,0.35,0.61,0.38,0.34,0.55,0.45,0.55,0.51,0.53,0.43,0.55,0.83,0.45,0.32,0.43,0.38,0.28,0.45,0.26,0.38,0.55,0.31,0.51,0.38,0.55,0.32,0.54,0.43,0.55,0.31,0.28,0.38,0.38,0.32" style="fill:rgb(0,0,0);font-family:AdvOT5e4d79fc;font-size:9.46px;stroke:none;">hierarchical heterostructures are investigated as the lithium-ion batteries (LIBs) anode materials for the first</text>
   <text y="468.567" x="143.943,146.991,149.65,157.534,161.576,163.8464,165.94,172.348,177.468,180.127,184.065,189.1734,191.225,196.449,201.276,204.3032,206.418,211.245,216.47,218.93,223.2816,225.297,230.323,234.364,236.825,239.485,243.819,247.861,251.505,255.0998,257.158,261.415,263.451,268.571,271.231,275.764,280.8724,282.953,286.597,290.638,294.973,299.014,302.658,306.207,308.867,313.788,316.249,320.3168,322.354,326.291,330.522,335.548,339.778,343.715,346.375,349.423,353.7746,355.859,360.686,363.61859999999996,365.668,370.296,374.924,379.552,381.814,386.4494,389.648,397.532,404.129,409.23740000000004,411.305" svgx:width="0.32,0.28,0.83,0.43,0.24,0.55,0.68,0.54,0.28,0.42,0.54,0.55,0.55,0.51,0.32,0.55,0.51,0.55,0.26,0.46,0.55,0.53,0.43,0.26,0.28,0.46,0.43,0.38,0.38,0.55,0.45,0.55,0.54,0.28,0.48,0.54,0.55,0.38,0.43,0.46,0.43,0.38,0.38,0.28,0.52,0.26,0.43,0.55,0.42,0.45,0.53,0.45,0.42,0.28,0.32,0.46,0.55,0.51,0.31,0.55,0.49,0.49,0.49,0.24,0.49,0.55,0.83,0.7,0.54,0.55,0.48" style="fill:rgb(0,0,0);font-family:AdvOT5e4d79fc;font-size:9.46px;stroke:none;">time, which not only delivers a high reversible capacity of 632.5 mAh g</text>
   <text y="465.052" x="415.842,417.863" svgx:width="0.34,0.49" style="fill:rgb(0,0,0);font-family:AdvOT5e4d79fc;font-size:5.24px;stroke:none;">-1</text>
   <text y="468.567" x="422.816,427.046,432.271,437.2848,439.313,443.942,448.57,450.832,455.46,464.768,468.706,472.936,477.962,482.193,486.13,488.789,491.837,496.1886,498.273,501.917,505.958,509.006,513.047,518.272,521.319,523.979,528.806,534.009,536.087,540.914,545.249,549.29" svgx:width="0.45,0.55,0.53,0.55,0.49,0.49,0.24,0.49,0.76,0.42,0.45,0.53,0.45,0.42,0.28,0.32,0.46,0.55,0.38,0.43,0.32,0.43,0.55,0.32,0.28,0.51,0.55,0.55,0.51,0.46,0.43,0.38" style="fill:rgb(0,0,0);font-family:AdvOT5e4d79fc;font-size:9.46px;stroke:none;">and 95.3%capacity retention over</text>
   <text y="478.715" x="143.943,148.571,153.199,157.83440000000002,160.327,164.265,168.599,172.537,174.997,179.039,182.588,184.8584,187.313,192.234,197.355,200.38219999999998,202.903,207.133,209.594,213.144,217.9686,220.421,223.97,229.09,233.917,240.325,243.91979999999998,246.329,250.371,254.8,258.737,262.779,265.24,267.7,271.742,276.966,279.9932,282.499,286.143,290.374,293.421,297.48879999999997,299.904,303.841,308.072,313.097,317.328,322.25,324.909,327.37,330.029,333.077,337.4286,339.928,346.336,348.996,352.043,357.1514,359.657,363.301,367.343,370.892,375.918,379.959,383.896,386.9232,389.364,392.412,397.23659999999995,399.739,402.787,407.907,411.97479999999996,414.422,419.448,423.092,425.752,429.301,432.348,435.008,440.232,444.2998,446.737,452.653,455.312" svgx:width="0.49,0.49,0.49,0.55,0.42,0.46,0.42,0.26,0.43,0.38,0.24,0.55,0.52,0.54,0.32,0.55,0.45,0.26,0.38,0.51,0.55,0.38,0.54,0.51,0.68,0.38,0.55,0.43,0.47,0.42,0.43,0.26,0.26,0.43,0.55,0.32,0.55,0.38,0.45,0.32,0.43,0.55,0.42,0.45,0.53,0.45,0.52,0.28,0.26,0.28,0.32,0.46,0.55,0.68,0.28,0.32,0.54,0.55,0.38,0.43,0.38,0.53,0.43,0.42,0.32,0.55,0.32,0.51,0.55,0.32,0.54,0.43,0.55,0.53,0.38,0.28,0.38,0.32,0.28,0.55,0.43,0.55,0.63,0.28,0.75" style="fill:rgb(0,0,0);font-family:AdvOT5e4d79fc;font-size:9.46px;stroke:none;">480 cycles, but also shows excellent rate capability with respect to the pristine TiO</text>
   <text y="480.246" x="462.387" svgx:width="0.49" style="fill:rgb(0,0,0);font-family:AdvOT5e4d79fc;font-size:6.31px;stroke:none;">2</text>
   <text y="478.715" x="468.34,473.564,477.795,483.02,487.847,490.799,493.459,498.381,502.422,506.066,509.615,511.8854,514.317,520.233,525.353" svgx:width="0.55,0.45,0.55,0.51,0.31,0.28,0.52,0.43,0.38,0.38,0.24,0.55,0.63,0.54,0.43" style="fill:rgb(0,0,0);font-family:AdvOT5e4d79fc;font-size:9.46px;stroke:none;">nanofibers. The</text>
   <text y="488.863" x="143.943,147.492,151.827,157.051,161.093,164.736,169.27,173.311,176.359,179.019,182.9922,185.101,189.143,192.096,195.049,199.09,203.027,206.05419999999998,208.232,213.154,217.195,220.243,226.65,230.691,234.733,239.936,242.134,248.438" svgx:width="0.38,0.46,0.55,0.43,0.38,0.48,0.43,0.32,0.28,0.42,0.55,0.43,0.31,0.31,0.43,0.42,0.32,0.55,0.52,0.43,0.32,0.68,0.43,0.43,0.55,0.55,0.67,0.51" style="fill:rgb(0,0,0);font-family:AdvOT5e4d79fc;font-size:9.46px;stroke:none;">synergetic effect between Co</text>
   <text y="490.394" x="253.247" svgx:width="0.49" style="fill:rgb(0,0,0);font-family:AdvOT5e4d79fc;font-size:6.31px;stroke:none;">3</text>
   <text y="488.863" x="256.762" svgx:width="0.75" style="fill:rgb(0,0,0);font-family:AdvOT5e4d79fc;font-size:9.46px;stroke:none;">O</text>
   <text y="490.394" x="263.849" svgx:width="0.49" style="fill:rgb(0,0,0);font-family:AdvOT5e4d79fc;font-size:6.31px;stroke:none;">4</text>
   <text y="488.863" x="269.461,273.692,278.917,283.9308,286.073,291.988,294.648" svgx:width="0.45,0.55,0.53,0.55,0.63,0.28,0.75" style="fill:rgb(0,0,0);font-family:AdvOT5e4d79fc;font-size:9.46px;stroke:none;">and TiO</text>
   <text y="490.394" x="301.776" svgx:width="0.49" style="fill:rgb(0,0,0);font-family:AdvOT5e4d79fc;font-size:6.31px;stroke:none;">2</text>
   <text y="488.863" x="307.389,311.62,315.2148,317.31,323.717,327.759,330.219,332.6786,334.828,339.058,342.6528,344.749,347.796,352.916,356.9838,359.092,364.212,369.437,372.096,377.018,382.138,386.20579999999995,388.345,391.298,395.34,399.57,402.618,407.738,411.382,415.4498,417.599,422.425,425.3576,427.519,432.64,435.299,439.341,442.984,447.215,450.859,454.796,459.917,462.576,466.513,470.744,473.20360000000005,475.424,480.545,484.586,487.634,491.675,495.319,500.146,503.695,506.743,510.387,515.507,519.444,522.492,527.612,531.256,535.297,538.8918,541.017,545.248,548.891" svgx:width="0.45,0.38,0.55,0.68,0.43,0.26,0.26,0.55,0.45,0.38,0.55,0.32,0.54,0.43,0.55,0.54,0.55,0.28,0.52,0.54,0.43,0.55,0.31,0.43,0.45,0.32,0.54,0.38,0.43,0.55,0.51,0.31,0.55,0.54,0.28,0.43,0.38,0.45,0.38,0.42,0.54,0.28,0.42,0.45,0.26,0.55,0.54,0.43,0.32,0.43,0.38,0.51,0.38,0.32,0.38,0.54,0.42,0.32,0.54,0.38,0.43,0.38,0.55,0.45,0.38,0.43" style="fill:rgb(0,0,0);font-family:AdvOT5e4d79fc;font-size:9.46px;stroke:none;">as well as the unique feature of hierarchical heterostructures are</text>
   <text y="499.011" x="143.943,148.969,152.612,157.439,162.361,166.592,171.513,173.974,178.32559999999998,180.793,184.437,188.479,192.028,197.053,201.88,207.105,210.654,213.314,218.235,220.696,224.7638,227.224,230.177,235.004,238.59879999999998,241.113,244.161,249.281,253.3488,255.796,259.838,265.062,270.183,274.413,279.638,283.575,287.616,292.6298,295.084,299.125,301.586,305.628,309.565,312.612,316.256,321.083,325.021,330.141,334.182,342.066,344.726,348.663,352.894,355.35360000000003,357.842,362.868,366.909,370.553,373.506,378.333,381.977,389.861,394.091,399.316,403.253,407.294" svgx:width="0.53,0.38,0.51,0.52,0.45,0.52,0.26,0.46,0.55,0.38,0.43,0.38,0.53,0.51,0.55,0.38,0.28,0.52,0.26,0.43,0.55,0.31,0.51,0.38,0.55,0.32,0.54,0.43,0.55,0.43,0.55,0.54,0.45,0.55,0.42,0.43,0.53,0.55,0.43,0.26,0.43,0.42,0.32,0.38,0.51,0.42,0.54,0.43,0.83,0.28,0.42,0.45,0.26,0.55,0.53,0.43,0.38,0.31,0.51,0.38,0.83,0.45,0.55,0.42,0.43,0.24" style="fill:rgb(0,0,0);font-family:AdvOT5e4d79fc;font-size:9.46px;stroke:none;">probably responsible for the enhanced electrochemical performance.</text>
   <text y="549.071" x="143.943" svgx:width="0.77" style="fill:rgb(156,156,155);font-family:AdvOT144a03c1;font-size:36.36px;stroke:none;">G</text>
   <text y="528.151" x="174.501,177.873,182.506,188.779,191.577,196.49009999999998,198.993,203.625,206.3133,208.743,211.44,216.258,221.27,225.124,227.923,230.332,234.964,239.977,244.026,246.3435,248.883,252.255,256.109,263.633,266.042,269.896,274.529,279.541,284.359,289.177,293.032,295.83,300.463,303.8002,306.314,310.946,315.282,317.691,322.509,326.364,329.7012,332.222,338.495,340.904,343.702,348.6151,351.101,354.955,359.588,364.601,367.399,370.771,375.404,377.72,380.037,384.086,388.718,391.034,394.9274,397.363,402.283,404.692,408.546,411.918,415.967,419.34,423.194,428.114,430.523,434.378,438.426,440.7435,443.284,448.204,452.059,454.857,458.711,462.084,466.716,470.089,472.887,476.259,481.077,484.932,487.73,492.548,495.92,499.775,503.1122,505.705,510.624,514.673,518.0102,520.501,524.55,527.348,530.146,533.519,537.568,541.422,544.22,548.075" svgx:width="0.36,0.5,0.68,0.3,0.53,0.55,0.5,0.29,0.55,0.29,0.52,0.54,0.42,0.3,0.26,0.5,0.54,0.44,0.25,0.55,0.36,0.42,0.81,0.26,0.42,0.5,0.54,0.52,0.52,0.42,0.3,0.5,0.36,0.55,0.5,0.47,0.26,0.52,0.42,0.36,0.55,0.68,0.26,0.3,0.53,0.55,0.42,0.5,0.54,0.3,0.36,0.5,0.25,0.25,0.44,0.5,0.25,0.42,0.55,0.53,0.26,0.42,0.36,0.44,0.36,0.42,0.53,0.26,0.42,0.44,0.25,0.55,0.53,0.42,0.3,0.42,0.36,0.5,0.36,0.3,0.36,0.52,0.42,0.3,0.52,0.36,0.42,0.36,0.55,0.53,0.44,0.36,0.55,0.44,0.3,0.3,0.36,0.44,0.42,0.3,0.42,0.52" style="fill:rgb(23,22,21);font-family:AdvOT1ef757c0;font-size:9.27px;stroke:none;">rowth of functional semiconductor oxides with controllable hierarchical heterostructures has attracted</text>
   <text y="538.809" x="174.501,177.299,180.671,184.526,192.049,195.904,200.916,205.734,210.367,215.185,218.5222,221.273,225.322,228.12,230.918,234.772,239.785,242.583,244.992,249.625,254.6308,257.33,261.962,265.817,269.671,273.72,278.538,281.911,285.8044,288.511,293.329,295.738,299.982,303.836,307.209,310.581,314.4744,317.142,321.96,325.332,329.965,334.783,338.637,342.01,344.808,347.217,351.071,354.4082,357.168,361.022,365.071,370.07680000000005,372.759,377.391,381.2844,383.927,386.336,391.349,394.147,398.001,402.245,405.617,409.666,412.464,416.319,421.1394,423.839,428.472,432.7362,435.348,438.146,442.195,444.604,446.92,451.553,454.925,457.334,462.347,466.6112,469.307,472.105,477.025,480.91839999999996,483.537,491.06,495.693,499.065,503.883,508.803,513.436,515.752,520.385,524.628,528.872,530.9114,533.597,537.451,542.084,549.607" svgx:width="0.3,0.36,0.42,0.81,0.42,0.54,0.52,0.5,0.52,0.36,0.55,0.44,0.3,0.3,0.42,0.54,0.3,0.26,0.5,0.54,0.55,0.5,0.42,0.42,0.44,0.52,0.36,0.42,0.55,0.52,0.26,0.46,0.42,0.36,0.36,0.42,0.55,0.52,0.36,0.5,0.52,0.42,0.36,0.3,0.26,0.42,0.36,0.55,0.42,0.44,0.54,0.55,0.5,0.42,0.55,0.26,0.54,0.3,0.42,0.46,0.36,0.44,0.3,0.42,0.52,0.55,0.5,0.46,0.55,0.3,0.44,0.26,0.25,0.5,0.36,0.26,0.54,0.46,0.55,0.3,0.53,0.42,0.55,0.81,0.5,0.36,0.52,0.53,0.5,0.25,0.5,0.46,0.46,0.22,0.55,0.42,0.5,0.81,0.35" style="fill:rgb(23,22,21);font-family:AdvOT1ef757c0;font-size:9.27px;stroke:none;">tremendous attention because diverse properties can be integrated by tailoring the morphology, com-</text>
   <text y="549.467" x="174.501,179.319,183.951,187.324,189.733,192.531,194.94,199.573,204.585,206.6244,208.857,212.906,217.919,222.73940000000002,224.901,228.95,232.323,235.695,239.55,247.073,251.706,254.022,256.431,261.444,265.70820000000003,267.932,272.565,275.937,280.181,284.23,289.242,291.651,295.506,299.555,302.353,304.762,309.394,314.3998,316.689,321.322,324.01030000000003,326.214,329.012,333.932,337.8254,339.934,344.752,348.124,350.533,358.057,362.105,365.478,369.7422,371.966,376.978,381.027,386.04,390.672,395.305,400.123,402.532,404.848,409.666,412.075,417.088,421.35220000000004,423.557,428.189,430.506,435.138,438.993,443.523,446.971,449.0104,451.166,455.503,460.32,464.175,468.029,470.438,473.134,475.543,479.398,483.447,485.763,488.079,492.323,494.3624,496.578,501.591,506.224,510.467,514.321,516.6385,518.859,523.779,526.188,530.042,533.414,537.463,540.836,544.69,549.61" svgx:width="0.52,0.5,0.36,0.26,0.3,0.26,0.5,0.54,0.22,0.55,0.44,0.54,0.52,0.55,0.44,0.36,0.36,0.42,0.81,0.5,0.25,0.26,0.54,0.46,0.55,0.5,0.36,0.46,0.44,0.54,0.26,0.42,0.44,0.3,0.26,0.5,0.54,0.55,0.5,0.29,0.55,0.3,0.53,0.42,0.55,0.52,0.36,0.26,0.81,0.44,0.36,0.46,0.55,0.54,0.44,0.54,0.5,0.5,0.52,0.26,0.25,0.52,0.26,0.54,0.46,0.55,0.5,0.25,0.5,0.42,0.49,0.36,0.22,0.55,0.47,0.52,0.42,0.42,0.26,0.29,0.26,0.42,0.44,0.25,0.25,0.46,0.22,0.55,0.54,0.5,0.46,0.42,0.25,0.55,0.53,0.26,0.42,0.36,0.44,0.36,0.42,0.53,0.35" style="fill:rgb(23,22,21);font-family:AdvOT1ef757c0;font-size:9.27px;stroke:none;">position, and assembling organization of the primary nanobuilding blocks. Specifically, novel hierarch-</text>
   <text y="560.125" x="143.944,146.353,150.207,154.256,156.5735,158.627,163.547,167.402,170.2,174.054,177.427,182.059,185.432,188.23,191.603,196.421,200.275,203.073,207.891,211.264,215.118,218.491,220.53040000000001,222.578,224.987,229.9928,231.989,238.262,243.182,245.591,249.445,254.35809999999998,256.367,259.165,264.085,267.97839999999997,269.973,277.497,281.546,283.862,288.495,291.8322,293.898,298.336,307.051,310.905,315.538,318.911,322.765,326.1022,328.198,332.247,337.26,342.0804,344.072,348.705,352.078,356.127,361.139,364.994,369.913,373.768,377.10519999999997,379.166,383.02,387.653,392.665,396.038,398.447,401.819,404.6,406.662,411.295,413.98330000000004,415.96,420.778,423.187,425.883,428.579,432.434,435.806,439.661,444.673,447.454,449.523,457.046,461.095,463.893,467.748,471.12,473.529,477.578,479.894,483.267,485.3064,487.337,491.386,494.759,498.6524,500.66,508.183,512.816,516.188,520.0814,522.033,526.082,528.88,531.678,535.727,539.581,542.379,544.788,549.032" svgx:width="0.26,0.42,0.44,0.25,0.55,0.53,0.42,0.3,0.42,0.36,0.5,0.36,0.3,0.36,0.52,0.42,0.3,0.52,0.36,0.42,0.36,0.22,0.55,0.26,0.54,0.55,0.68,0.53,0.26,0.42,0.53,0.55,0.3,0.53,0.42,0.55,0.81,0.44,0.25,0.5,0.36,0.55,0.48,0.73,0.42,0.5,0.36,0.42,0.36,0.55,0.44,0.54,0.52,0.55,0.5,0.36,0.44,0.54,0.42,0.53,0.42,0.36,0.55,0.42,0.5,0.54,0.36,0.26,0.36,0.3,0.55,0.5,0.29,0.55,0.52,0.26,0.29,0.29,0.42,0.36,0.42,0.54,0.3,0.55,0.81,0.44,0.3,0.42,0.36,0.26,0.44,0.25,0.36,0.22,0.55,0.44,0.36,0.42,0.55,0.81,0.5,0.36,0.42,0.55,0.44,0.3,0.3,0.44,0.42,0.3,0.26,0.46,0.42" style="fill:rgb(23,22,21);font-family:AdvOT1ef757c0;font-size:9.27px;stroke:none;">ical heterostructures, in which the major 1Dcores and branches consist of different materials, are more attactive</text>
   <text y="570.726" x="143.944,146.353,151.3588,153.014,160.538,164.587,169.599,173.86319999999998,175.522,180.534,184.583,189.596,194.228,197.601,201.455,205.504,207.821,211.7144,213.336,218.154,223.074,227.707,230.505,235.137,240.15,242.559,246.4524,248.033,252.082,257.094,261.9144,263.567,267.422,269.738,273.592,277.447,280.245,283.617,288.25,293.262,296.542,301.175,305.993,308.791,311.2,315.054,319.103,321.4205,323.152,327.97,331.825,336.068,338.477,342.331,346.2244,347.814,351.863,356.681,361.499,363.815,366.224,370.078,374.127,376.925,379.334,383.967,388.979,392.352,394.3914,396.06,401.267,404.64,409.458,413.312,417.166,419.575,423.624,425.941,428.257,432.5,434.5394,436.199,438.997,443.632,445.27,448.642,452.497,455.869,460.113,464.0064,465.623,469.672,473.0092,474.694,482.217,486.266,489.064,492.919,496.291,498.7,502.749,505.065,508.4022,510.07,512.767,517.399,520.7362,522.429,524.746,527.155,529.953,534.873,537.282,542.1,549.623" svgx:width="0.26,0.54,0.55,0.81,0.44,0.54,0.46,0.55,0.54,0.44,0.54,0.5,0.36,0.42,0.44,0.25,0.42,0.55,0.52,0.53,0.5,0.3,0.5,0.54,0.26,0.42,0.55,0.44,0.54,0.52,0.55,0.42,0.25,0.42,0.42,0.3,0.36,0.5,0.54,0.35,0.5,0.52,0.3,0.26,0.42,0.44,0.25,0.55,0.52,0.42,0.46,0.26,0.42,0.42,0.55,0.44,0.52,0.52,0.25,0.26,0.42,0.44,0.3,0.26,0.5,0.54,0.36,0.22,0.55,0.56,0.36,0.52,0.42,0.42,0.26,0.44,0.25,0.25,0.46,0.22,0.55,0.3,0.5,0.55,0.36,0.42,0.36,0.46,0.42,0.55,0.44,0.36,0.55,0.81,0.44,0.3,0.42,0.36,0.26,0.44,0.25,0.36,0.55,0.29,0.5,0.36,0.55,0.25,0.26,0.3,0.53,0.26,0.52,0.81,0.35" style="fill:rgb(23,22,21);font-family:AdvOT1ef757c0;font-size:9.27px;stroke:none;">in many nanoscale photonic and electron-optical device applications. Especially, to serve as materials for lithium-</text>
   <text y="581.384" x="143.944,146.353,150.985,155.9908,158.06,162.693,166.742,169.54,172.338,176.193,179.565,181.974,185.828,189.1652,191.226,194.404,199.324,202.41,207.811,211.184,214.362,216.4014,218.44,221.238,226.158,230.0514,232.046,236.966,239.375,243.229,246.601,250.65,254.023,257.877,262.797,265.206,269.061,273.109,275.4265,277.458,282.378,286.232,289.03,292.884,296.257,300.89,304.262,307.06,310.433,315.251,319.105,321.903,326.838,330.211,334.065,337.4022,339.424,344.437,349.069,351.85,353.881,358.513,363.526,365.842,370.1062,372.136,374.545,379.558,382.356,386.21,390.454,393.826,397.875,400.673,404.5664,406.606,409.404,414.324,418.2174,420.155,424.973,427.382,431.626,435.48,438.853,442.225,446.1184,448.162,452.979,456.352,460.985,465.803,469.657,473.03,475.828,478.237,482.091,485.4282,487.507,490.203,493.575,498.208,507.746,510.544,515.464,519.3574000000001,521.352,526.17,528.579,531.275,533.971,537.826,541.198,545.053,550.065" svgx:width="0.26,0.5,0.54,0.55,0.5,0.44,0.3,0.3,0.42,0.36,0.26,0.42,0.36,0.55,0.34,0.53,0.33,0.58,0.36,0.34,0.22,0.55,0.3,0.53,0.42,0.55,0.53,0.26,0.42,0.36,0.44,0.36,0.42,0.53,0.26,0.42,0.44,0.25,0.55,0.53,0.42,0.3,0.42,0.36,0.5,0.36,0.3,0.36,0.52,0.42,0.3,0.52,0.36,0.42,0.36,0.55,0.54,0.5,0.3,0.55,0.5,0.54,0.25,0.46,0.55,0.26,0.54,0.3,0.42,0.46,0.36,0.44,0.3,0.42,0.55,0.3,0.53,0.42,0.55,0.52,0.26,0.46,0.42,0.36,0.36,0.42,0.55,0.52,0.36,0.5,0.52,0.42,0.36,0.3,0.26,0.42,0.36,0.55,0.29,0.36,0.5,0.81,0.3,0.53,0.42,0.55,0.52,0.26,0.29,0.29,0.42,0.36,0.42,0.54,0.3" style="fill:rgb(23,22,21);font-family:AdvOT1ef757c0;font-size:9.27px;stroke:none;">ion batteries (LIBs), the hierarchical heterostructures not only integrate the diverse properties fromthe different</text>
   <text y="592.042" x="143.944,148.576,153.394,155.803,158.12,162.938,165.347,170.359,174.6232,176.486,181.119,183.435,188.068,191.922,196.453,199.826,201.8654,203.756,208.389,213.207,215.988,217.816,221.865,224.181,227.554,232.189,234.087,237.941,242.277,247.197,249.606,254.239,256.648,259.42900000000003,261.3,263.709,268.721,271.52,274.892,277.301,281.545,286.363,288.772,293.784,298.0482,299.908,304.726,308.099,312.732,317.55,321.404,324.776,327.575,329.984,333.838,337.1752,339.14,343.773,348.03720000000004,349.856,352.654,356.703,361.234,363.643,368.655,372.9192,374.744,378.793,383.611,387.855,391.904,396.916,399.714,403.763,408.007,411.9004,413.806,418.439,421.12730000000005,422.933,427.566,432.198,434.997,439.9101,441.812,444.61,449.53,453.42339999999996,455.249,460.261,464.31,469.323,473.955,481.479,485.333,488.131,491.986,495.358,498.638,502.011,504.42,508.274,512.1674,514.04,517.894,520.59,523.287,527.141,530.995,533.793,537.1302000000001,539.041,543.09,548.103" svgx:width="0.5,0.52,0.26,0.25,0.52,0.26,0.54,0.46,0.55,0.5,0.25,0.5,0.42,0.49,0.36,0.22,0.55,0.5,0.52,0.3,0.55,0.44,0.25,0.36,0.5,0.55,0.42,0.47,0.53,0.26,0.5,0.26,0.3,0.55,0.26,0.54,0.3,0.36,0.26,0.46,0.52,0.26,0.54,0.46,0.55,0.52,0.36,0.5,0.52,0.42,0.36,0.3,0.26,0.42,0.36,0.55,0.5,0.46,0.55,0.3,0.44,0.49,0.26,0.54,0.46,0.55,0.44,0.52,0.46,0.44,0.54,0.3,0.44,0.46,0.42,0.55,0.5,0.29,0.55,0.5,0.5,0.3,0.53,0.55,0.3,0.53,0.42,0.55,0.54,0.44,0.54,0.5,0.81,0.42,0.3,0.42,0.36,0.35,0.36,0.26,0.42,0.42,0.55,0.42,0.29,0.29,0.42,0.42,0.3,0.36,0.55,0.44,0.54,0.52" style="fill:rgb(23,22,21);font-family:AdvOT1ef757c0;font-size:9.27px;stroke:none;">building blocks, but also exhibit intriguing properties by taking advantage of both the nanometer-size effects and</text>
   <text y="602.643" x="143.944,146.742,151.662,155.55540000000002,158.004,162.924,165.333,169.576,174.4891,176.939,180.312,183.11,187.159,191.792,194.201,196.517,198.926,201.724,205.98819999999998,208.461,213.093,215.7813,218.269,221.067,225.987,229.8804,232.273,235.645,239.5,243.354,247.987,252.999,257.817,261.866,265.239,269.482,272.762,276.135,278.933,282.305,287.123,290.978,293.776,298.594,301.966,305.8594,308.412,312.461,315.834,319.206,323.061,330.584,335.217,337.533,339.942,343.796" svgx:width="0.3,0.53,0.42,0.55,0.53,0.26,0.46,0.53,0.55,0.36,0.3,0.44,0.5,0.26,0.25,0.26,0.3,0.46,0.55,0.5,0.29,0.55,0.3,0.53,0.42,0.55,0.36,0.42,0.42,0.5,0.54,0.52,0.44,0.36,0.46,0.35,0.36,0.3,0.36,0.52,0.42,0.3,0.52,0.36,0.42,0.55,0.44,0.36,0.36,0.42,0.81,0.5,0.25,0.26,0.42,0.36" style="fill:rgb(23,22,21);font-family:AdvOT1ef757c0;font-size:9.27px;stroke:none;">the high stability of the secondary-structure assemblies</text>
   <text y="599.244" x="347.187,349.95,352.891" svgx:width="0.48,0.51,0.48" style="fill:rgb(23,22,21);font-family:AdvOT1ef757c0;font-size:5.13px;stroke:none;">1–6</text>
   <text y="602.646" x="355.634,357.6734,360.113,364.931,369.564,372.9012,375.421,377.83,382.842,386.215,389.013,393.062,398.074,401.929,405.783,407.8224,410.287,414.141,418.959,421.368,424.166,428.215,432.551,434.96,439.009,441.3265,443.849,448.093,451.466,456.098,462.371,465.169,470.08209999999997,472.537,477.169,479.8573,482.345,486.978,490.35,494.399,499.412,503.266,508.186,512.04" svgx:width="0.22,0.55,0.52,0.5,0.36,0.55,0.26,0.54,0.36,0.3,0.44,0.54,0.42,0.42,0.22,0.55,0.42,0.52,0.26,0.3,0.44,0.47,0.26,0.44,0.25,0.55,0.46,0.36,0.5,0.68,0.3,0.53,0.55,0.5,0.29,0.55,0.5,0.36,0.44,0.54,0.42,0.53,0.42,0.52" style="fill:rgb(23,22,21);font-family:AdvOT1ef757c0;font-size:9.27px;stroke:none;">. For instance, epitaxial growth of branched</text>
   <text y="602.646" x="519.307" svgx:width="0.55" style="fill:rgb(23,22,21);font-family:AdvP3EAA99;font-size:9.27px;stroke:none;">a</text>
   <text y="602.646" x="524.466,527.746,532.564" svgx:width="0.35,0.52,0.42" style="fill:rgb(23,22,21);font-family:AdvOT1ef757c0;font-size:9.27px;stroke:none;">-Fe</text>
   <text y="604.233" x="536.428" svgx:width="0.48" style="fill:rgb(23,22,21);font-family:AdvOT1ef757c0;font-size:6.18px;stroke:none;">2</text>
   <text y="602.646" x="539.773" svgx:width="0.74" style="fill:rgb(23,22,21);font-family:AdvOT1ef757c0;font-size:9.27px;stroke:none;">O</text>
   <text y="604.233" x="546.576" svgx:width="0.48" style="fill:rgb(23,22,21);font-family:AdvOT1ef757c0;font-size:6.18px;stroke:none;">3</text>
   <text y="602.646" x="549.921" svgx:width="0.32" style="fill:rgb(23,22,21);font-family:AdvOT1ef757c0;font-size:9.27px;stroke:none;">/</text>
   <text y="613.303" x="143.944,148.281,153.293" svgx:width="0.47,0.54,0.74" style="fill:rgb(23,22,21);font-family:AdvOT1ef757c0;font-size:9.27px;stroke:none;">SnO</text>
   <text y="614.834" x="160.157" svgx:width="0.48" style="fill:rgb(23,22,21);font-family:AdvOT1ef757c0;font-size:6.18px;stroke:none;">2</text>
   <text y="613.304" x="165.487,170.499,174.548,179.561,184.196,186.236,191.156,195.01,197.809,201.663,205.036,209.668,213.041,215.839,219.211,224.029,227.884,230.682,235.5,238.872,242.727,246.0642,248.146,252.0,256.633,261.451,263.767,268.5874,270.597,273.006,280.529,285.347,288.72,293.352,297.596,301.4894,303.479,308.399,311.485,316.8616,318.9,323.718,327.572,330.945,333.641,338.273,341.646,349.169,353.218,358.231,362.085,365.97839999999997,367.997,372.814,377.632,381.5254,383.474,386.272,390.907,392.885,395.683,400.603,404.4964,406.491,409.864,414.107,419.12,422.974,426.347,430.59,434.444,437.243,439.652,443.5454,445.553,449.407,452.103,454.799,458.654,462.508,465.289,467.323,471.178,475.514,479.368,482.741,485.539,489.393,494.2134,496.237,500.87,505.1342,507.122,511.459,516.471" svgx:width="0.54,0.44,0.54,0.5,0.55,0.53,0.42,0.3,0.42,0.36,0.5,0.36,0.3,0.36,0.52,0.42,0.3,0.52,0.36,0.42,0.36,0.55,0.42,0.5,0.52,0.25,0.52,0.55,0.26,0.81,0.52,0.36,0.5,0.46,0.42,0.55,0.53,0.33,0.58,0.55,0.52,0.42,0.36,0.29,0.5,0.36,0.81,0.44,0.54,0.42,0.42,0.55,0.52,0.52,0.42,0.55,0.3,0.5,0.55,0.3,0.53,0.42,0.55,0.36,0.46,0.54,0.42,0.36,0.46,0.42,0.3,0.26,0.42,0.55,0.42,0.29,0.29,0.42,0.42,0.3,0.55,0.42,0.47,0.42,0.36,0.3,0.42,0.52,0.55,0.5,0.46,0.55,0.47,0.54,0.74" style="fill:rgb(23,22,21);font-family:AdvOT1ef757c0;font-size:9.27px;stroke:none;">nano heterostructures could improve LIB performance due to the synergetic effect exerted by SnO</text>
   <text y="614.834" x="523.332" svgx:width="0.48" style="fill:rgb(23,22,21);font-family:AdvOT1ef757c0;font-size:6.18px;stroke:none;">2</text>
   <text y="613.304" x="528.661,532.71,537.723" svgx:width="0.44,0.54,0.52" style="fill:rgb(23,22,21);font-family:AdvOT1ef757c0;font-size:9.27px;stroke:none;">and</text>
   <text y="613.304" x="544.536" svgx:width="0.55" style="fill:rgb(23,22,21);font-family:AdvP3EAA99;font-size:9.27px;stroke:none;">a</text>
   <text y="613.304" x="549.638" svgx:width="0.35" style="fill:rgb(23,22,21);font-family:AdvOT1ef757c0;font-size:9.27px;stroke:none;">-</text>
   <text y="623.962" x="143.945,148.763" svgx:width="0.52,0.42" style="fill:rgb(23,22,21);font-family:AdvOT1ef757c0;font-size:9.27px;stroke:none;">Fe</text>
   <text y="625.493" x="152.674" svgx:width="0.48" style="fill:rgb(23,22,21);font-family:AdvOT1ef757c0;font-size:6.18px;stroke:none;">2</text>
   <text y="623.962" x="155.962" svgx:width="0.74" style="fill:rgb(23,22,21);font-family:AdvOT1ef757c0;font-size:9.27px;stroke:none;">O</text>
   <text y="625.493" x="162.822" svgx:width="0.48" style="fill:rgb(23,22,21);font-family:AdvOT1ef757c0;font-size:6.18px;stroke:none;">3</text>
   <text y="623.962" x="168.831,172.88,176.2172,178.98,185.252,189.107,191.423,193.7405,196.385,200.434,203.7712,206.533,209.331,214.251,218.14440000000002,220.763,225.581,230.593,233.002,237.727,242.545,246.4384,249.11,253.742,257.115,261.164,266.177,270.031,274.951,278.805,283.6254,286.357,289.73,292.528,295.901,300.718,304.573,307.371,312.189,315.561" svgx:width="0.44,0.36,0.55,0.68,0.42,0.25,0.25,0.55,0.44,0.36,0.55,0.3,0.53,0.42,0.55,0.52,0.54,0.26,0.51,0.52,0.42,0.55,0.5,0.36,0.44,0.54,0.42,0.53,0.42,0.52,0.55,0.36,0.3,0.36,0.52,0.42,0.3,0.52,0.36,0.42" style="fill:rgb(23,22,21);font-family:AdvOT1ef757c0;font-size:9.27px;stroke:none;">as well as the unique branched structure</text>
   <text y="620.504" x="319.465" svgx:width="0.48" style="fill:rgb(23,22,21);font-family:AdvOT1ef757c0;font-size:5.13px;stroke:none;">5</text>
   <text y="623.962" x="322.242,324.2814,326.948,331.766,336.584,339.957,342.755,347.675,351.529,354.902,362.425,367.058,370.43,374.285,376.3244,379.05,383.1288,385.739,390.752,395.385,399.628,403.482,405.7995,408.53,413.45,415.859,420.102,425.01509999999996,427.693,432.511,436.365,439.737,442.434,447.066,450.439,457.962,462.011,467.024,470.878,474.77139999999997,477.47,481.324,485.373,488.171,493.091,497.723,502.541,506.4344,509.105,516.628,520.677,523.475,527.33,530.702,533.111,537.16,539.4775,542.214,544.91,549.543" svgx:width="0.22,0.55,0.52,0.52,0.36,0.3,0.53,0.42,0.36,0.81,0.5,0.36,0.42,0.22,0.55,0.44,0.55,0.54,0.5,0.46,0.42,0.25,0.55,0.53,0.26,0.46,0.53,0.55,0.52,0.42,0.36,0.29,0.5,0.36,0.81,0.44,0.54,0.42,0.42,0.55,0.42,0.44,0.3,0.53,0.5,0.52,0.42,0.55,0.81,0.44,0.3,0.42,0.36,0.26,0.44,0.25,0.55,0.29,0.5,0.36" style="fill:rgb(23,22,21);font-family:AdvOT1ef757c0;font-size:9.27px;stroke:none;">. Furthermore, a novel high performance cathode material for</text>
   <text y="634.563" x="143.944,148.864,151.949,157.351,160.6882,162.369,167.289,171.338,174.6752,176.372,181.005,184.859,188.714,193.7198,195.364,200.182,204.037,208.28,212.135,214.451,219.084,223.901,227.756,232.5764,234.256,238.889,243.1532,244.745,248.599,253.232,257.281,260.079,262.488,267.5,271.7642,273.375" svgx:width="0.53,0.33,0.58,0.36,0.55,0.53,0.44,0.36,0.55,0.5,0.42,0.42,0.54,0.55,0.52,0.42,0.46,0.42,0.25,0.5,0.52,0.42,0.52,0.55,0.5,0.46,0.55,0.42,0.5,0.44,0.3,0.26,0.54,0.46,0.55,0.7" style="fill:rgb(23,22,21);font-family:AdvOT1ef757c0;font-size:9.27px;stroke:none;">LIBs has been developed by coating V</text>
   <text y="636.151" x="279.836" svgx:width="0.48" style="fill:rgb(23,22,21);font-family:AdvOT1ef757c0;font-size:6.18px;stroke:none;">2</text>
   <text y="634.564" x="283.181" svgx:width="0.74" style="fill:rgb(23,22,21);font-family:AdvOT1ef757c0;font-size:9.27px;stroke:none;">O</text>
   <text y="636.151" x="290.041" svgx:width="0.48" style="fill:rgb(23,22,21);font-family:AdvOT1ef757c0;font-size:6.18px;stroke:none;">5</text>
   <text y="634.564" x="294.973,299.606,304.6118,306.255,310.592,315.604" svgx:width="0.5,0.54,0.55,0.47,0.54,0.74" style="fill:rgb(23,22,21);font-family:AdvOT1ef757c0;font-size:9.27px;stroke:none;">on SnO</text>
   <text y="636.151" x="322.469" svgx:width="0.48" style="fill:rgb(23,22,21);font-family:AdvOT1ef757c0;font-size:6.18px;stroke:none;">2</text>
   <text y="634.564" x="327.401,332.414,336.463,341.475,346.108,352.381,354.79,358.162,362.017,365.389,367.4284,369.128,373.946,376.744,379.153,381.469,383.878,387.732,390.141,395.154,399.4182,401.047,403.845,408.765,412.6584,414.256,418.889,422.743,425.541,428.339,432.194,435.5312,437.217,441.072,445.704,450.717,455.535,460.353,464.207,467.005,469.414,473.658,476.067,478.865,483.1292,484.784,489.416,492.1043,493.741,498.078,503.09" svgx:width="0.54,0.44,0.54,0.5,0.68,0.26,0.36,0.42,0.36,0.22,0.55,0.52,0.3,0.26,0.25,0.26,0.42,0.26,0.54,0.46,0.55,0.3,0.53,0.42,0.55,0.5,0.42,0.3,0.3,0.42,0.36,0.55,0.42,0.5,0.54,0.52,0.52,0.42,0.3,0.26,0.46,0.26,0.3,0.46,0.55,0.5,0.29,0.55,0.47,0.54,0.74" style="fill:rgb(23,22,21);font-family:AdvOT1ef757c0;font-size:9.27px;stroke:none;">nanowires, utilizing the better conductivity of SnO</text>
   <text y="636.151" x="509.953" svgx:width="0.48" style="fill:rgb(23,22,21);font-family:AdvOT1ef757c0;font-size:6.18px;stroke:none;">2</text>
   <text y="634.564" x="514.885,519.897,523.946,528.959,533.591,539.864,542.273,545.646,549.5" svgx:width="0.54,0.44,0.54,0.5,0.68,0.26,0.36,0.42,0.36" style="fill:rgb(23,22,21);font-family:AdvOT1ef757c0;font-size:9.27px;stroke:none;">nanowires</text>
   <text y="645.221" x="143.944,147.993,153.005,157.8254,161.292,164.09,169.01,172.90339999999998,176.26,179.632,184.552,189.185,192.557,195.338,198.767,203.585,205.994,208.69,211.386,216.204,219.577,221.986,226.716,231.7218,235.107,239.925,242.334,245.707,248.505,252.554,257.566,261.421,265.3144,268.726,273.359,276.0473,279.498,282.296,287.216,291.1094,294.522,297.32,302.24,304.649,309.6548,313.061" svgx:width="0.44,0.54,0.52,0.55,0.3,0.53,0.42,0.55,0.36,0.53,0.5,0.36,0.3,0.55,0.52,0.26,0.29,0.29,0.52,0.36,0.26,0.5,0.54,0.55,0.52,0.26,0.36,0.3,0.44,0.54,0.42,0.42,0.55,0.5,0.29,0.55,0.3,0.53,0.42,0.55,0.3,0.53,0.26,0.54,0.55,0.7" style="fill:rgb(23,22,21);font-family:AdvOT1ef757c0;font-size:9.27px;stroke:none;">and the short diffusion distance of the thin V</text>
   <text y="646.753" x="319.521" svgx:width="0.48" style="fill:rgb(23,22,21);font-family:AdvOT1ef757c0;font-size:6.18px;stroke:none;">2</text>
   <text y="645.222" x="322.866" svgx:width="0.74" style="fill:rgb(23,22,21);font-family:AdvOT1ef757c0;font-size:9.27px;stroke:none;">O</text>
   <text y="646.753" x="329.726" svgx:width="0.48" style="fill:rgb(23,22,21);font-family:AdvOT1ef757c0;font-size:6.18px;stroke:none;">5</text>
   <text y="645.222" x="336.472,338.789,342.838,347.081,350.936" svgx:width="0.25,0.44,0.46,0.42,0.36" style="fill:rgb(23,22,21);font-family:AdvOT1ef757c0;font-size:9.27px;stroke:none;">layer</text>
   <text y="641.82" x="354.331" svgx:width="0.48" style="fill:rgb(23,22,21);font-family:AdvOT1ef757c0;font-size:5.13px;stroke:none;">6</text>
   <text y="645.222" x="357.052,359.0914,362.494,369.341,373.974,376.772,383.045,385.454,388.252,393.172,396.544,399.342,403.391,408.404,413.222,415.631,420.643,424.9072,428.372,431.17,436.09,439.945,443.317,447.2104,450.596,454.645,459.463,463.707,467.755,472.768,476.622,480.477,483.849,485.8884,489.375,491.784,494.565,497.993,500.402,503.7392,507.177,510.55,513.348,515.757,518.073,520.3905,523.846,528.478,531.1663,534.561,538.805,542.177,546.031,550.08" svgx:width="0.22,0.55,0.74,0.5,0.3,0.68,0.26,0.3,0.53,0.36,0.3,0.44,0.54,0.52,0.26,0.54,0.46,0.55,0.3,0.53,0.42,0.36,0.42,0.55,0.44,0.52,0.46,0.44,0.54,0.42,0.42,0.36,0.22,0.55,0.26,0.3,0.55,0.26,0.36,0.55,0.36,0.3,0.26,0.25,0.25,0.55,0.5,0.29,0.55,0.46,0.36,0.42,0.44,0.3" style="fill:rgb(23,22,21);font-family:AdvOT1ef757c0;font-size:9.27px;stroke:none;">. Notwithstanding these advances, it is still of great</text>
   <text y="655.88" x="143.943,147.798,152.718,156.767,159.083,161.399,165.254,170.266,174.51,178.40339999999998,181.531,184.329,188.964,192.076,196.894,200.748,204.992,208.846,211.162,215.795,220.6154,223.768,227.8468,230.911,235.155,239.009,244.022,247.876,251.249,255.298,257.6155,260.733,264.782,269.599,274.417,277.79,282.423,286.472,290.326,295.2391,298.434,304.707,307.116,309.914,314.8271,317.937,320.735,325.655,329.54839999999996,332.62,336.475,341.394,345.443,348.816,352.865,356.719,359.517,363.372,366.744,369.153,372.526,375.324,377.733,381.587,384.9242,388.123,392.756,395.4443,398.611,400.928,405.56,411.8636,414.939,418.793,423.426,426.798,429.596,431.6354,434.725,437.041,441.674,447.9776,451.052,455.296,458.668,463.301,469.573,472.372,477.2851,480.419,483.217,487.072,494.595,499.413,503.268,506.64,510.689,513.487,518.305,521.678,525.532,527.5714,530.707,534.561,539.574,543.817,546.226,549.599" svgx:width="0.42,0.53,0.44,0.25,0.25,0.42,0.54,0.46,0.42,0.55,0.3,0.5,0.55,0.52,0.42,0.46,0.42,0.25,0.5,0.52,0.55,0.44,0.55,0.46,0.42,0.54,0.42,0.36,0.44,0.25,0.55,0.44,0.52,0.52,0.36,0.5,0.44,0.42,0.53,0.55,0.68,0.26,0.3,0.53,0.55,0.3,0.53,0.42,0.55,0.42,0.53,0.44,0.36,0.44,0.42,0.3,0.42,0.36,0.26,0.36,0.3,0.26,0.42,0.36,0.55,0.5,0.29,0.55,0.25,0.5,0.68,0.55,0.42,0.5,0.36,0.3,0.22,0.55,0.25,0.5,0.68,0.55,0.46,0.36,0.5,0.68,0.3,0.53,0.55,0.3,0.42,0.81,0.52,0.42,0.36,0.44,0.3,0.52,0.36,0.42,0.22,0.55,0.42,0.54,0.46,0.26,0.36,0.35" style="fill:rgb(23,22,21);font-family:AdvOT1ef757c0;font-size:9.27px;stroke:none;">challenge to develop a general approach with the characteristics of low cost, low growth temperature, envir-</text>
   <text y="666.538" x="143.943,148.576,153.589,161.112,164.966,169.979,172.777,176.826,179.1435,182.041,184.738,188.11,190.519,194.374,199.386,204.204,206.52,208.929,213.942,217.796,221.169,224.541,226.5804,229.437,234.255,237.628,242.26,246.115,249.969,253.342,256.67920000000004,259.598,262.971,265.38,272.903,277.721,280.038,282.447,286.301,288.71,291.508,295.752,297.7914,300.645,304.694,309.706,314.5264,317.369,322.289,324.698,328.942,333.8551,336.701,340.945,343.354,347.208,349.525,354.3454,357.224,360.022,364.657,367.485,370.858,375.101,380.114,382.912,387.832,391.686,395.059,397.468,401.322,405.2154,408.021,412.0998,414.938,418.792,423.425,428.437,431.235,434.608,439.24,441.5575,444.418,449.051,451.7393,454.566,457.939,460.348,464.202,468.056,470.0954,472.935,477.753,480.162,487.685,491.539,496.552,499.924,502.333,506.966,511.979,514.0183999999999,516.872,520.921,525.934,530.7543999999999,533.597,537.452,542.084,549.608" svgx:width="0.5,0.54,0.81,0.42,0.54,0.3,0.44,0.25,0.55,0.29,0.36,0.26,0.42,0.54,0.52,0.25,0.26,0.54,0.42,0.36,0.36,0.22,0.55,0.52,0.36,0.5,0.42,0.42,0.36,0.36,0.55,0.36,0.26,0.81,0.52,0.25,0.26,0.42,0.26,0.3,0.46,0.22,0.55,0.44,0.54,0.52,0.55,0.53,0.26,0.46,0.53,0.55,0.46,0.26,0.42,0.25,0.52,0.55,0.3,0.5,0.55,0.36,0.46,0.54,0.3,0.53,0.42,0.36,0.26,0.42,0.42,0.55,0.44,0.55,0.42,0.5,0.54,0.3,0.36,0.5,0.25,0.55,0.5,0.29,0.55,0.36,0.26,0.42,0.42,0.22,0.55,0.52,0.26,0.81,0.42,0.54,0.36,0.26,0.5,0.54,0.22,0.55,0.44,0.54,0.52,0.55,0.42,0.5,0.81,0.35" style="fill:rgb(23,22,21);font-family:AdvOT1ef757c0;font-size:9.27px;stroke:none;">onmental friendliness, process simplicity, and high yield to synthesize a control of size, dimension, and com-</text>
   <text y="677.139" x="143.943,148.761,153.394,156.767,159.176,161.974,164.383,169.015,174.02079999999998,176.486,181.119,183.8073,186.237,189.035,193.955,197.84840000000003,200.24,204.873,209.691,212.1,214.416,219.234,221.643,226.656,230.9202,233.35,237.983,240.299,244.931,248.786,253.317,256.6542,259.089,263.722,266.4103,268.84,273.76,276.168,280.023,283.395,287.444,290.817,294.671,299.591,302.0,305.854,309.903,312.2205,314.705,319.625,323.479,326.277,330.131,333.504,338.137,341.509,344.307,347.68,352.498,356.352,359.15,363.968,367.341,371.195,374.5322,377.068,379.477,384.4828,386.876,390.925,395.93080000000003,398.384,402.239,406.575,411.393,415.247,419.102,421.9,425.754,430.5744,433.024,440.548,444.597,449.609,454.622,458.476,461.849" svgx:width="0.52,0.5,0.36,0.26,0.3,0.26,0.5,0.54,0.55,0.5,0.29,0.55,0.3,0.53,0.42,0.55,0.5,0.52,0.26,0.25,0.52,0.26,0.54,0.46,0.55,0.5,0.25,0.5,0.42,0.49,0.36,0.55,0.5,0.29,0.55,0.53,0.26,0.42,0.36,0.44,0.36,0.42,0.53,0.26,0.42,0.44,0.25,0.55,0.53,0.42,0.3,0.42,0.36,0.5,0.36,0.3,0.36,0.52,0.42,0.3,0.52,0.36,0.42,0.36,0.55,0.26,0.54,0.55,0.44,0.54,0.55,0.42,0.47,0.52,0.42,0.42,0.3,0.42,0.52,0.55,0.81,0.44,0.54,0.54,0.42,0.36,0.22" style="fill:rgb(23,22,21);font-family:AdvOT1ef757c0;font-size:9.27px;stroke:none;">position of the building blocks of hierarchical heterostructures in an expected manner.</text>
   <text y="688.024" x="153.241,158.93,161.339" svgx:width="0.61,0.26,0.74" style="fill:rgb(0,0,0);font-family:AdvOT1ef757c0;font-size:9.27px;stroke:none;">TiO</text>
   <text y="689.556" x="168.208" svgx:width="0.48" style="fill:rgb(0,0,0);font-family:AdvOT1ef757c0;font-size:6.18px;stroke:none;">2</text>
   <text y="688.025" x="171.496,173.5354,176.428,180.477,183.8142,186.746,190.795,195.80079999999998,198.708,201.117,208.641,213.459,218.091,221.464,224.262,228.311,233.323,236.104,239.074,241.771,246.589,251.601,255.455,258.254,260.662,265.295,270.308,274.357,276.6745,279.61,287.133,291.182,293.981,297.835,301.207,303.616,307.665,309.982,312.0214,314.93,319.85,323.899,327.2362,330.181,335.194,340.012,347.535,351.389,354.762,359.395,364.212,367.5492,370.491,374.54,379.358,384.176,386.492,388.901,392.755,396.804,399.602,402.011,406.644,411.656,414.9932,418.0,422.049,425.3862,428.318,433.136,438.056,442.689,445.487,450.119,453.974,458.023,460.821,464.87,467.186,471.43,474.802,477.211,480.584,482.6234,485.579,489.433,491.749,495.604,499.458,502.256,505.629,510.261,515.274,517.683,521.5764,524.471,529.289,533.143,537.387,539.796,543.65,547.504,550.877" svgx:width="0.22,0.55,0.44,0.36,0.55,0.44,0.54,0.55,0.26,0.81,0.52,0.5,0.36,0.3,0.44,0.54,0.3,0.55,0.29,0.52,0.54,0.42,0.3,0.26,0.5,0.54,0.44,0.25,0.55,0.81,0.44,0.3,0.42,0.36,0.26,0.44,0.25,0.22,0.55,0.53,0.44,0.36,0.55,0.54,0.52,0.81,0.42,0.36,0.5,0.52,0.36,0.55,0.44,0.52,0.52,0.25,0.26,0.42,0.44,0.3,0.26,0.5,0.54,0.36,0.55,0.44,0.36,0.55,0.52,0.53,0.5,0.3,0.5,0.42,0.44,0.3,0.44,0.25,0.46,0.36,0.26,0.36,0.22,0.55,0.42,0.25,0.42,0.42,0.3,0.36,0.5,0.54,0.26,0.42,0.55,0.52,0.42,0.46,0.26,0.42,0.42,0.36,0.22" style="fill:rgb(0,0,0);font-family:AdvOT1ef757c0;font-size:9.27px;stroke:none;">, as an important functional material, has numerous applications as photocatalysis, electronic devices,</text>
   <text y="698.626" x="143.944,147.798,152.431,157.443,161.687,165.541,168.914,172.286,174.695,179.328,184.3338,186.124,190.942,194.796,199.04,201.449,205.303,209.158,212.49519999999998,214.244,218.293,221.6302,223.372,229.644,233.499,235.815,238.1325,239.869,243.918,247.2552,248.997,253.815,257.187,261.82,269.343,271.752,275.125,277.534,282.546,286.8102,288.512,292.367,294.683,298.537,302.392,305.19,308.562,313.195,318.013,321.90639999999996,323.605,331.129,335.178,337.976,341.83,345.203,347.612,351.661,353.9785,355.75,360.568,365.386,369.2794,370.945,373.743,378.378,380.072,382.481,385.279,388.6162,390.39,394.439,397.237,400.035,403.408,407.456,411.311,414.109,416.518,420.761,424.6544,426.334,430.383,435.2,439.444,443.493,448.505,451.304,455.353,459.596,463.45,466.7872,468.57,473.203,475.8913,477.641,482.561,484.97,489.213,494.1261,495.84,499.889,504.522,509.34,514.352,519.17,523.219,528.231,532.086,535.94,537.9794,539.721,542.038,546.67" svgx:width="0.42,0.5,0.54,0.46,0.42,0.36,0.36,0.26,0.5,0.54,0.55,0.52,0.42,0.46,0.26,0.42,0.42,0.36,0.55,0.44,0.36,0.55,0.68,0.42,0.25,0.25,0.55,0.44,0.36,0.55,0.52,0.36,0.5,0.81,0.26,0.36,0.26,0.54,0.46,0.55,0.42,0.25,0.42,0.42,0.3,0.36,0.5,0.52,0.42,0.55,0.81,0.44,0.3,0.42,0.36,0.26,0.44,0.25,0.55,0.52,0.52,0.42,0.55,0.3,0.5,0.55,0.26,0.3,0.36,0.55,0.44,0.3,0.3,0.36,0.44,0.42,0.3,0.26,0.46,0.42,0.55,0.44,0.52,0.46,0.44,0.54,0.3,0.44,0.46,0.42,0.36,0.55,0.5,0.29,0.55,0.53,0.26,0.46,0.53,0.55,0.44,0.5,0.52,0.54,0.52,0.44,0.54,0.42,0.42,0.22,0.55,0.25,0.5,0.68" style="fill:rgb(0,0,0);font-family:AdvOT1ef757c0;font-size:9.27px;stroke:none;">conversion devices as well as promising electrode material due to its attractive advantages of high abundance, low</text>
   <text y="709.284" x="143.944,147.798,152.431,155.803,158.602,160.6414,163.957,168.589,172.444,175.242,178.04,181.894,185.2312,188.618,191.991,196.04,198.736,202.59,205.389,209.632,211.6714,214.981,219.03,224.042,228.8624,232.159,236.013,241.026,245.269,247.678,251.051,255.683,260.696,268.219,272.074,277.086,279.884,283.933,286.2505,289.646,292.342,295.715,298.124,301.978,306.991,311.809,314.125,316.534,321.547,325.401,328.774" svgx:width="0.42,0.5,0.36,0.3,0.22,0.55,0.5,0.42,0.3,0.3,0.42,0.36,0.55,0.36,0.44,0.29,0.42,0.3,0.46,0.22,0.55,0.44,0.54,0.52,0.55,0.42,0.54,0.46,0.26,0.36,0.5,0.54,0.81,0.42,0.54,0.3,0.44,0.25,0.55,0.29,0.36,0.26,0.42,0.54,0.52,0.25,0.26,0.54,0.42,0.36,0.36" style="fill:rgb(0,0,0);font-family:AdvOT1ef757c0;font-size:9.27px;stroke:none;">cost, better safety, and environmental friendliness</text>
   <text y="705.883" x="332.22,334.983,337.924,340.687" svgx:width="0.48,0.51,0.48,0.48" style="fill:rgb(0,0,0);font-family:AdvOT1ef757c0;font-size:5.13px;stroke:none;">7–13</text>
   <text y="709.285" x="343.389,345.4284,348.718,353.536,358.354,361.727,364.525,369.445,373.299,376.672,384.195,388.828,392.2,396.055,398.0944,401.443,404.242,409.161,413.0544,416.354,419.727,424.545,428.399,432.253,434.662,438.711,441.0285,444.361,447.734,450.532,453.904,458.722,462.577,465.375,470.193,473.565,477.614,479.93149999999997,483.31,487.164,492.084,496.133,499.505,503.554,507.409,510.207,514.061,517.434,519.843,523.215,526.013,528.422,532.277,535.6142000000001,539.04,543.089,548.101" svgx:width="0.22,0.55,0.52,0.52,0.36,0.3,0.53,0.42,0.36,0.81,0.5,0.36,0.42,0.22,0.55,0.3,0.53,0.42,0.55,0.36,0.52,0.42,0.42,0.26,0.44,0.25,0.55,0.36,0.3,0.36,0.52,0.42,0.3,0.52,0.36,0.44,0.25,0.55,0.42,0.53,0.44,0.36,0.44,0.42,0.3,0.42,0.36,0.26,0.36,0.3,0.26,0.42,0.36,0.55,0.44,0.54,0.52" style="fill:rgb(0,0,0);font-family:AdvOT1ef757c0;font-size:9.27px;stroke:none;">. Furthermore, the special structural characteristics and</text>
   <text y="719.943" x="143.944,147.317,152.135,155.507,158.203,162.252,166.107,170.0004,172.631,176.68,180.535,183.333,185.742,189.985,192.394,195.192,199.436,201.4754,204.096,206.894,211.527,215.771,219.625,222.423,227.343,231.197,234.5342,237.148,243.421,245.83,248.628,253.54109999999997,256.14,258.939,263.858,267.7514,270.37,274.614,278.468,281.84,286.1042,288.682,290.998,295.631,301.9346,304.5,308.743,313.376,315.692,320.51,328.034,331.9274,334.491,338.345,343.265,347.314,352.326,356.57,360.4634,363.064,367.882,372.7,376.072,378.481,383.494,387.75820000000004,390.333,395.253" svgx:width="0.36,0.52,0.36,0.29,0.44,0.42,0.42,0.55,0.44,0.42,0.3,0.26,0.46,0.26,0.3,0.46,0.22,0.55,0.3,0.5,0.46,0.42,0.3,0.53,0.42,0.36,0.55,0.68,0.26,0.3,0.53,0.55,0.3,0.53,0.42,0.55,0.46,0.42,0.36,0.46,0.55,0.25,0.5,0.68,0.55,0.46,0.5,0.25,0.52,0.81,0.42,0.55,0.42,0.53,0.44,0.54,0.46,0.42,0.55,0.52,0.52,0.36,0.26,0.54,0.46,0.55,0.53,0.26" style="fill:rgb(0,0,0);font-family:AdvOT1ef757c0;font-size:9.27px;stroke:none;">surface activity, together with the very low volume change during Li</text>
   <text y="716.542" x="397.701" svgx:width="0.83" style="fill:rgb(0,0,0);font-family:AdvP414BFB;font-size:5.13px;stroke:none;">1</text>
   <text y="719.943" x="405.071,407.48,412.492,415.865,419.719,423.092,425.89,428.299,432.932,437.944,440.928,445.745,449.6,452.972,456.827,460.199,462.997,465.406,470.039,475.0448,477.752,480.93,485.369,490.094,494.532,501.481,504.659,506.6984,509.274,511.683,516.695,519.494,522.866,525.275,530.288,533.66,536.069,539.924,543.973,546.289,548.605" svgx:width="0.26,0.54,0.36,0.42,0.36,0.3,0.26,0.5,0.54,0.32,0.52,0.42,0.36,0.42,0.36,0.3,0.26,0.5,0.54,0.55,0.34,0.48,0.51,0.48,0.75,0.34,0.22,0.55,0.26,0.54,0.3,0.36,0.26,0.54,0.36,0.26,0.42,0.44,0.25,0.25,0.46" style="fill:rgb(0,0,0);font-family:AdvOT1ef757c0;font-size:9.27px;stroke:none;">insertion/desertion (3–4%), intrinsically</text>
   <text y="730.601" x="143.944,147.798,152.811,157.629,162.262,168.534,171.8712,173.708,179.397,181.806" svgx:width="0.42,0.54,0.52,0.5,0.68,0.36,0.55,0.61,0.26,0.74" style="fill:rgb(0,0,0);font-family:AdvOT1ef757c0;font-size:9.27px;stroke:none;">endows TiO</text>
   <text y="732.132" x="188.674" svgx:width="0.48" style="fill:rgb(0,0,0);font-family:AdvOT1ef757c0;font-size:6.18px;stroke:none;">2</text>
   <text y="730.601" x="193.72,197.963,202.596,207.228,212.04840000000002,213.789,217.162,219.96,223.332,228.15,232.005,234.803,239.621,242.993,247.042,249.3595,251.151,254.523,257.321,261.37,266.003,268.412,270.728,273.137,275.935,280.1992,281.935,285.984,290.997,295.8174,297.583,299.899,304.532,309.544,313.8082,315.498,319.353,323.596,327.45,329.767,333.6604,335.397,337.714,340.122,342.819" svgx:width="0.46,0.5,0.5,0.52,0.55,0.36,0.3,0.36,0.52,0.42,0.3,0.52,0.36,0.44,0.25,0.55,0.36,0.3,0.44,0.5,0.26,0.25,0.26,0.3,0.46,0.55,0.44,0.54,0.52,0.55,0.25,0.5,0.54,0.46,0.55,0.42,0.46,0.42,0.25,0.42,0.55,0.25,0.26,0.29,0.42" style="fill:rgb(0,0,0);font-family:AdvOT1ef757c0;font-size:9.27px;stroke:none;">good structural stability and long cycle life</text>
   <text y="727.143" x="346.677,349.44,352.202,355.144,357.906" svgx:width="0.48,0.48,0.51,0.48,0.48" style="fill:rgb(0,0,0);font-family:AdvOT1ef757c0;font-size:5.13px;stroke:none;">14–17</text>
   <text y="730.601" x="360.624,362.6634,364.365,371.212,375.066,379.31,383.164,386.537,389.335,394.255,398.109,400.425,404.28,407.652,411.137,413.1764,414.878,417.676,422.596,426.4894,428.201,435.724,439.773,442.182,447.18780000000004,448.951,455.223,459.078,463.126,467.657,472.67,476.524,479.897,483.269,487.124,490.4612,492.265,496.898,499.58630000000005,501.336,507.025,509.434" svgx:width="0.22,0.55,0.74,0.42,0.46,0.42,0.36,0.3,0.53,0.42,0.25,0.42,0.36,0.36,0.22,0.55,0.3,0.53,0.42,0.55,0.81,0.44,0.26,0.54,0.55,0.68,0.42,0.44,0.49,0.54,0.42,0.36,0.36,0.42,0.36,0.55,0.5,0.29,0.55,0.61,0.26,0.74" style="fill:rgb(0,0,0);font-family:AdvOT1ef757c0;font-size:9.27px;stroke:none;">. Nevertheless, the main weaknesses of TiO</text>
   <text y="732.132" x="516.302" svgx:width="0.48" style="fill:rgb(0,0,0);font-family:AdvOT1ef757c0;font-size:6.18px;stroke:none;">2</text>
   <text y="730.601" x="521.348,525.397,528.7342000000001,530.533,534.582,539.594,544.227,549.045" svgx:width="0.44,0.36,0.55,0.44,0.54,0.5,0.52,0.42" style="fill:rgb(0,0,0);font-family:AdvOT1ef757c0;font-size:9.27px;stroke:none;">as anode</text>
   <text y="741.203" x="143.944,151.468,155.517,158.315,162.169,165.542,167.951,172.0,174.316,177.6532,179.832,182.528,187.161,190.4982,192.645,197.565,200.65,206.052,209.3892,211.524,213.84,216.249,220.1424,222.182,224.591,229.5968,231.706,234.504,239.424,243.31740000000002,245.37,247.686,252.319,258.6226,260.677,263.475,268.395,272.249,276.882,280.255,284.109,286.907,289.316,293.17,297.219,299.5365,301.667,305.521,309.57,314.388,318.437,322.291,324.7,327.498,331.7622,333.868,337.046,341.484,345.922,350.3716,353.484,361.007,367.373,372.2861,374.404" svgx:width="0.81,0.44,0.3,0.42,0.36,0.26,0.44,0.25,0.36,0.55,0.29,0.5,0.36,0.55,0.53,0.33,0.58,0.36,0.55,0.25,0.26,0.42,0.55,0.26,0.54,0.55,0.3,0.53,0.42,0.55,0.25,0.5,0.68,0.55,0.3,0.53,0.42,0.5,0.36,0.42,0.3,0.26,0.42,0.44,0.25,0.55,0.42,0.44,0.52,0.44,0.42,0.26,0.3,0.46,0.55,0.34,0.48,0.48,0.48,0.55,0.81,0.69,0.53,0.55,0.46" style="fill:rgb(0,0,0);font-family:AdvOT1ef757c0;font-size:9.27px;stroke:none;">materials for LIBs lie in the low theoretical capacity (168 mAh g</text>
   <text y="737.801" x="378.652" svgx:width="0.83" style="fill:rgb(0,0,0);font-family:AdvP414BFB;font-size:5.13px;stroke:none;">2</text>
   <text y="737.801" x="383.414" svgx:width="0.48" style="fill:rgb(0,0,0);font-family:AdvOT1ef757c0;font-size:5.13px;stroke:none;">1</text>
   <text y="741.203" x="386.192,388.2314,390.331,394.185,398.429,402.283,407.28880000000004,409.38,411.697,416.329,422.602,426.456,429.7932,431.944,434.742,439.662,443.711,448.71680000000003,450.823,453.621,458.541,462.59,465.371,467.491,472.124,474.81230000000005,476.902,480.756,485.389,492.913,500.436,504.29,507.663,511.517,513.926,517.975,520.2925,522.427,526.671,530.043,534.092,538.91,543.83,546.239,549.037" svgx:width="0.22,0.55,0.42,0.46,0.42,0.54,0.55,0.25,0.5,0.68,0.42,0.36,0.55,0.3,0.53,0.44,0.54,0.55,0.3,0.53,0.44,0.3,0.55,0.5,0.29,0.55,0.42,0.5,0.81,0.81,0.42,0.36,0.42,0.26,0.44,0.25,0.55,0.46,0.36,0.44,0.52,0.53,0.26,0.3,0.42" style="fill:rgb(0,0,0);font-family:AdvOT1ef757c0;font-size:9.27px;stroke:none;">, even lower than that of commercial graphite</text>
  </g>
  <path style="fill:rgb(255,255,255);stroke:none;stroke-width:1.0;" d="M86.900 618.070 L119.370 618.070 L119.370 627.460 L86.900 627.460 L86.900 618.070 "/>
  <path style="fill:rgb(227,0,18);stroke:none;stroke-width:1.0;" d="M85.890 639.890 L120.020 639.890 L120.020 605.760 L85.890 605.760 L85.890 639.890 M115.940 163.330 L113.500 158.990 L113.480 158.990 L113.480 163.330 L111.160 163.330 L111.160 155.380 L113.670 155.380 L115.980 159.630 L116.010 159.630 L116.010 155.380 L118.320 155.380 L118.320 163.330 L115.940 163.330 ZM110.290 163.330 L103.580 163.330 L103.580 155.380 L110.170 155.380 L110.170 157.420 L106.030 157.420 L106.030 158.410 L109.790 158.410 L109.790 160.300 L106.030 160.300 L106.030 161.290 L110.290 161.290 L110.290 163.330 ZM99.920 160.930 L98.470 160.930 L98.470 163.330 L96.020 163.330 L96.020 155.380 L100.120 155.380 C102.280 155.380 103.040 156.960 103.040 158.100 C103.040 160.020 101.740 160.930 99.920 160.930 ZM91.220 163.520 C88.810 163.520 87.190 161.780 87.190 159.350 C87.190 156.930 88.810 155.190 91.220 155.190 C93.640 155.190 95.260 156.930 95.260 159.350 C95.260 161.780 93.640 163.520 91.220 163.520 ZM102.980 142.470 C93.540 142.470 85.890 150.120 85.890 159.560 C85.890 169.000 93.540 176.650 102.980 176.650 C112.430 176.650 120.070 169.000 120.070 159.560 C120.070 150.120 112.430 142.470 102.980 142.470 ZM91.220 157.170 C90.600 157.170 89.640 157.580 89.640 159.350 C89.640 161.130 90.600 161.540 91.220 161.540 C91.850 161.540 92.810 161.130 92.810 159.350 C92.810 157.580 91.850 157.170 91.220 157.170 ZM99.560 157.420 L98.470 157.420 L98.470 159.030 L99.410 159.030 C100.050 159.030 100.720 158.990 100.720 158.180 C100.720 157.460 100.160 157.420 99.560 157.420 "/>
  <g begin="text">
   <text y="210.274" x="53.745,58.694,64.764,69.804,72.601,77.362,83.71,87.9259,90.254,96.503,101.354,106.115,112.365,117.314" svgx:width="0.55,0.68,0.56,0.31,0.53,0.71,0.47,0.55,0.7,0.54,0.53,0.7,0.55,0.3" style="fill:rgb(0,0,0);font-family:AdvOT735b620e;font-size:8.97px;stroke:none;">SUBJECT AREAS:</text>
   <text y="224.504" x="81.014,86.305,91.596,95.564,102.252,103.964,108.089,111.586,115.712" svgx:width="0.71,0.71,0.53,0.89,0.23,0.55,0.47,0.54,0.58" style="fill:rgb(0,0,0);font-family:AdvOT735b620e;font-size:7.47px;stroke:none;">CHEMISTRY</text>
   <text y="238.96" x="41.783,48.471,53.679,57.177,61.145,65.188,66.9,72.108,74.911,79.01950000000001,81.017,86.308,91.599,95.567,102.255,103.967,108.092,111.589,115.715" svgx:width="0.89,0.7,0.47,0.53,0.54,0.23,0.7,0.38,0.55,0.55,0.71,0.71,0.53,0.89,0.23,0.55,0.47,0.54,0.58" style="fill:rgb(0,0,0);font-family:AdvOT735b620e;font-size:7.47px;stroke:none;">MATERIALS CHEMISTRY</text>
   <text y="253.36" x="46.885,53.11,58.319,64.543,70.925,75.119,80.41,82.121,86.09,92.314,97.605,101.56410000000001,103.524,108.732,114.957" svgx:width="0.83,0.7,0.83,0.85,0.55,0.71,0.23,0.53,0.83,0.71,0.53,0.55,0.7,0.83,0.68" style="fill:rgb(0,0,0);font-family:AdvOT735b620e;font-size:7.47px;stroke:none;">NANOSCIENCE AND</text>
   <text y="262.317" x="69.732,73.23,77.198,82.489,87.78,94.005,100.386,103.189,109.571,115.712" svgx:width="0.47,0.53,0.71,0.71,0.83,0.85,0.38,0.85,0.81,0.58" style="fill:rgb(0,0,0);font-family:AdvOT735b620e;font-size:7.47px;stroke:none;">TECHNOLOGY</text>
   <text y="276.774" x="46.092,50.059,52.861,56.829,62.191,65.688,69.73,76.111,82.335,84.046,89.34970000000001,91.272,96.331,100.299,104.887,106.598,111.965,115.932" svgx:width="0.53,0.38,0.53,0.71,0.47,0.54,0.85,0.83,0.23,0.71,0.55,0.68,0.53,0.61,0.23,0.71,0.53,0.55" style="fill:rgb(0,0,0);font-family:AdvOT735b620e;font-size:7.47px;stroke:none;">ELECTRONIC DEVICES</text>
   <text y="308.183" x="87.25,92.101,96.396,100.314,104.609,106.851,110.769,115.064" svgx:width="0.54,0.48,0.44,0.48,0.25,0.44,0.48,0.55" style="fill:rgb(0,0,0);font-family:AdvOT144a03c1;font-size:8.97px;stroke:none;">Received</text>
   <text y="319.124" x="75.685,80.7979,83.168,86.342,90.915,92.87,97.1756,99.495,104.624,109.752,114.881" svgx:width="0.57,0.55,0.35,0.51,0.22,0.48,0.55,0.57,0.57,0.57,0.57" style="fill:rgb(0,0,0);font-family:AdvOT144a03c1;font-size:8.97px;stroke:none;">2 July 2012</text>
   <text y="336.075" x="85.323,91.572,95.49,99.409,103.704,108.653,110.796,115.091" svgx:width="0.7,0.44,0.44,0.48,0.55,0.24,0.48,0.55" style="fill:rgb(0,0,0);font-family:AdvOT144a03c1;font-size:8.97px;stroke:none;">Accepted</text>
   <text y="347.017" x="44.957,50.086,55.198899999999995,57.6,62.361,66.656,71.605,73.748,78.043,84.857,89.807,94.102,97.15180000000001,99.494,104.623,109.751,114.88" svgx:width="0.57,0.57,0.55,0.53,0.48,0.55,0.24,0.48,0.76,0.55,0.48,0.34,0.55,0.57,0.57,0.57,0.57" style="fill:rgb(0,0,0);font-family:AdvOT144a03c1;font-size:8.97px;stroke:none;">12 September 2012</text>
   <text y="363.968" x="84.642,89.027,93.599,98.549,100.503,102.745,106.107,110.77,115.065" svgx:width="0.49,0.51,0.55,0.22,0.25,0.38,0.52,0.48,0.55" style="fill:rgb(0,0,0);font-family:AdvOT144a03c1;font-size:8.97px;stroke:none;">Published</text>
   <text y="374.91" x="59.187,64.2999,66.614,73.984,77.902,80.045,84.806,89.756,94.05,97.0998,99.494,104.623,109.751,114.88" svgx:width="0.57,0.55,0.82,0.44,0.24,0.53,0.55,0.48,0.34,0.55,0.57,0.57,0.57,0.57" style="fill:rgb(0,0,0);font-family:AdvOT144a03c1;font-size:8.97px;stroke:none;">3 October 2012</text>
   <text y="411.534" x="48.586,54.229,58.628,61.282,63.936,68.001,71.149,75.708,80.108,84.252,88.811,92.804,96.949,100.679,104.7437,106.807,111.366,115.511" svgx:width="0.71,0.55,0.33,0.33,0.51,0.4,0.57,0.55,0.52,0.57,0.51,0.52,0.47,0.51,0.55,0.57,0.52,0.57" style="fill:rgb(0,0,0);font-family:AdvOT735b620e;font-size:7.97px;stroke:none;">Correspondence and</text>
   <text y="423.496" x="48.416,51.07,55.135,59.694,63.759,67.823,70.972,72.877,76.065,78.065,80.217,84.617,87.2471,89.347,95.404,99.963,101.868,105.933,108.587,110.659,115.218,116.956" svgx:width="0.33,0.51,0.57,0.51,0.51,0.4,0.24,0.4,0.55,0.27,0.55,0.33,0.55,0.76,0.57,0.24,0.51,0.33,0.26,0.57,0.22,0.4" style="fill:rgb(0,0,0);font-family:AdvOT735b620e;font-size:7.97px;stroke:none;">requests for materials</text>
   <text y="435.459" x="42.86,46.008,50.153,54.552,58.617,60.355,64.89789999999999,66.557,71.116,75.1807,76.818,81.377,85.936,90.495,93.149,97.214,100.362,103.51,107.575,112.1179,113.78,115.685" svgx:width="0.4,0.52,0.55,0.51,0.22,0.57,0.55,0.57,0.51,0.55,0.57,0.57,0.57,0.33,0.51,0.4,0.4,0.51,0.57,0.55,0.24,0.55" style="fill:rgb(0,0,0);font-family:AdvOT735b620e;font-size:7.97px;stroke:none;">should be addressed to</text>
   <text y="447.421" x="42.973,47.452,49.859,54.506,56.897,58.96,61.199,65.097,69.656,73.721,77.865,82.424,86.569,91.047,97.351,101.082,103.154,107.713,111.443,113.85,115.922,117.66" svgx:width="0.56,0.3,0.58,0.3,0.55,0.28,0.49,0.57,0.51,0.52,0.57,0.52,0.57,0.79,0.47,0.26,0.57,0.47,0.3,0.26,0.22,0.3" style="fill:rgb(0,0,0);font-family:AdvOT735b620e;font-size:7.97px;stroke:none;">X.Z. (xbzhang@ciac.jl.</text>
   <text y="459.384" x="109.928,113.658,117.802" svgx:width="0.47,0.52,0.28" style="fill:rgb(0,0,0);font-family:AdvOT735b620e;font-size:7.97px;stroke:none;">cn)</text>
  </g>
  <g begin="text">
   <text y="768.132" x="42.86,47.092,52.32,54.146,58.29,64.515,68.078,69.903,73.529,75.354" svgx:width="0.53,0.66,0.23,0.52,0.78,0.45,0.23,0.47,0.23,0.66" style="fill:rgb(178,178,177);font-family:AdvOT144a03c1;font-size:7.97px;stroke:none;">SCIENTIFIC</text>
   <text y="768.132" x="82.658,87.058,90.875,95.02,101.245,105.644,109.207" svgx:width="0.55,0.48,0.52,0.78,0.55,0.45,0.52" style="fill:rgb(178,178,177);font-family:AdvOT1415ea69.B;font-size:7.97px;stroke:none;">REPORTS</text>
   <text y="768.132" x="117.411,121.8742,123.987,128.8487,130.96,133.351,135.382,140.276,145.169,150.03070000000002,152.106,156.5692,158.682,164.078,170.884,172.71,175.101,177.107,182.0,186.894,189.301,194.195,199.088,203.982,208.876,213.355,216.503,219.157,223.139,227.698,232.592,237.486,242.379,247.273" svgx:width="0.56,0.55,0.61,0.55,0.3,0.55,0.61,0.61,0.61,0.55,0.56,0.55,0.68,0.85,0.23,0.3,0.55,0.61,0.61,0.3,0.61,0.61,0.61,0.61,0.56,0.4,0.33,0.51,0.57,0.61,0.61,0.61,0.61,0.61" style="fill:rgb(0,0,0);font-family:AdvOT735b620e;font-size:7.97px;stroke:none;">| 2 : 701 | DOI: 10.1038/srep00701</text>
   <text y="768.132" x="547.542" svgx:width="0.68" style="fill:rgb(0,0,0);font-family:AdvOTf32ed098.B;font-size:7.97px;stroke:none;">1</text>
  </g>
 </g>
</svg>
