<?xml version="1.0" encoding="UTF-8"?>
<svg xmlns="http://www.w3.org/2000/svg">
  <g transform="matrix(1.0,0., 0.,1.0,0.0,20.0)">
    <g transform="matrix(30.48780403592488,0., 0.,30.48780403592488,0.0,0.0)">
      <path style=" stroke-width:0.02;stroke:black;fill:none;" d="M0.437 0.546 C0.437 0.625 0.406 0.671 0.359 0.703 C0.312 0.75 0.25 0.765 0.171 0.765 C0.109 0.765 0.031 0.75 0.0 0.734 L0.0 0.609 L0.025 0.609 L0.062 0.656 C0.062 0.656 0.078 0.671 0.093 0.671 C0.109 0.687 0.14 0.703 0.187 0.703 C0.281 0.703 0.328 0.656 0.328 0.562 C0.328 0.562 0.328 0.546 0.328 0.531 C0.312 0.484 0.296 0.468 0.234 0.437 L0.14 0.375 C0.109 0.359 0.093 0.343 0.062 0.328 C0.031 0.296 0.025 0.25 0.025 0.203 C0.025 0.078 0.093 0.0 0.25 0.0 C0.296 0.0 0.359 0.025 0.406 0.031 L0.406 0.031 L0.406 0.156 L0.39 0.156 L0.359 0.109 C0.312 0.078 0.281 0.062 0.234 0.062 C0.156 0.062 0.109 0.109 0.109 0.171 C0.109 0.187 0.109 0.203 0.109 0.218 C0.125 0.25 0.156 0.265 0.218 0.312 L0.296 0.359 C0.328 0.375 0.359 0.39 0.375 0.421 C0.421 0.453 0.437 0.5 0.437 0.546 Z"/>
    </g>
    <text style=" stroke : none; font-size : 7.654321;" x="0.0" y="37.5" font-size="10">8</text>
  </g>
  <g transform="matrix(1.0,0., 0.,1.0,40.0,20.0)">
    <g transform="matrix(30.48780403592488,0., 0.,30.48780403592488,0.0,0.0)">
      <path style=" stroke-width:0.02;stroke:black;fill:none;" d="M0.828 0.031 L0.812 0.046 C0.796 0.046 0.781 0.078 0.781 0.109 L0.64 0.546 L0.546 0.546 L0.437 0.156 C0.421 0.125 0.421 0.125 0.421 0.093 C0.421 0.125 0.406 0.14 0.406 0.156 L0.281 0.546 L0.187 0.546 L0.062 0.109 C0.046 0.093 0.046 0.078 0.031 0.062 C0.031 0.062 0.031 0.046 0.025 0.046 L0.0 0.031 L0.0 0.0 L0.171 0.0 L0.171 0.031 L0.156 0.046 C0.156 0.046 0.14 0.062 0.14 0.062 C0.14 0.078 0.156 0.093 0.156 0.109 L0.234 0.39 C0.25 0.421 0.25 0.437 0.25 0.453 C0.25 0.421 0.25 0.421 0.265 0.39 L0.375 0.0 L0.468 0.0 L0.593 0.39 C0.593 0.421 0.609 0.437 0.609 0.453 C0.609 0.437 0.609 0.421 0.625 0.39 L0.703 0.109 C0.703 0.093 0.703 0.078 0.703 0.062 C0.703 0.062 0.703 0.046 0.687 0.046 L0.671 0.031 L0.671 0.0 L0.828 0.0 Z"/>
    </g>
    <text style=" stroke : none; font-size : 7.654321;" x="0.0" y="37.5" font-size="10">w</text>
  </g>
  <g transform="matrix(1.0,0., 0.,1.0,80.0,20.0)">
    <g transform="matrix(30.48780403592488,0., 0.,30.48780403592488,0.0,0.0)">
      <path style=" stroke-width:0.02;stroke:black;fill:none;" d="M0.0 0.734 L0.0 0.718 L0.031 0.703 C0.046 0.687 0.046 0.671 0.062 0.609 L0.14 0.125 C0.14 0.093 0.14 0.078 0.14 0.078 C0.14 0.062 0.14 0.046 0.125 0.031 L0.093 0.025 L0.109 0.0 L0.312 0.0 C0.468 0.0 0.531 0.046 0.531 0.14 C0.531 0.25 0.468 0.328 0.359 0.343 C0.453 0.359 0.515 0.406 0.515 0.5 C0.515 0.578 0.484 0.625 0.453 0.656 C0.39 0.718 0.328 0.734 0.203 0.734 ZM0.203 0.328 L0.265 0.328 C0.375 0.328 0.437 0.265 0.437 0.156 C0.437 0.078 0.39 0.046 0.296 0.046 C0.281 0.046 0.265 0.046 0.25 0.046 ZM0.156 0.687 C0.171 0.687 0.187 0.687 0.218 0.687 C0.328 0.687 0.406 0.625 0.406 0.5 C0.406 0.406 0.359 0.375 0.265 0.375 L0.203 0.375 Z"/>
    </g>
    <text style=" stroke : none; font-size : 7.654321;" x="0.0" y="37.5" font-size="10">B</text>
  </g>
  <g transform="matrix(1.0,0., 0.,1.0,120.0,20.0)">
    <g transform="matrix(30.48780403592488,0., 0.,30.48780403592488,0.0,0.0)">
      <path style=" stroke-width:0.02;stroke:black;fill:none;" d="M0.515 0.484 C0.515 0.671 0.421 0.796 0.265 0.796 C0.218 0.796 0.187 0.781 0.156 0.765 L0.062 0.796 L0.062 0.14 C0.062 0.078 0.046 0.062 0.031 0.062 L0.0 0.046 L0.0 0.031 L0.156 0.0 L0.156 0.296 C0.203 0.25 0.25 0.234 0.312 0.234 C0.437 0.234 0.515 0.328 0.515 0.484 ZM0.406 0.5 C0.406 0.359 0.359 0.296 0.25 0.296 C0.218 0.296 0.187 0.312 0.156 0.312 L0.156 0.718 C0.171 0.734 0.203 0.734 0.234 0.734 C0.343 0.734 0.406 0.656 0.406 0.5 Z"/>
    </g>
    <text style=" stroke : none; font-size : 7.654321;" x="0.0" y="37.5" font-size="10">b</text>
  </g>
  <g transform="matrix(1.0,0., 0.,1.0,160.0,20.0)">
    <g transform="matrix(30.48780403592488,0., 0.,30.48780403592488,0.0,0.0)">
      <path style=" stroke-width:0.02;stroke:black;fill:none;" d="M0.203 0.375 L0.156 0.609 C0.156 0.64 0.156 0.656 0.156 0.656 C0.156 0.671 0.171 0.687 0.171 0.703 L0.203 0.718 L0.203 0.734 L0.0 0.734 L0.0 0.718 L0.025 0.703 C0.046 0.687 0.046 0.671 0.062 0.609 L0.14 0.125 C0.14 0.093 0.14 0.078 0.14 0.078 C0.14 0.062 0.14 0.046 0.125 0.031 L0.093 0.025 L0.109 0.0 L0.531 0.0 L0.515 0.14 L0.484 0.14 L0.453 0.078 C0.437 0.062 0.421 0.046 0.375 0.046 L0.25 0.046 L0.203 0.328 L0.296 0.328 C0.343 0.328 0.359 0.312 0.375 0.296 L0.406 0.265 L0.437 0.265 L0.406 0.437 L0.39 0.437 L0.359 0.406 C0.359 0.375 0.343 0.375 0.296 0.375 Z"/>
    </g>
    <text style=" stroke : none; font-size : 7.654321;" x="0.0" y="37.5" font-size="10">F</text>
  </g>
  <g transform="matrix(1.0,0., 0.,1.0,200.0,20.0)">
    <g transform="matrix(30.48780403592488,0., 0.,30.48780403592488,0.0,0.0)">
      <path style=" stroke-width:0.02;stroke:black;fill:none;" d="M0.125 0.093 L0.125 0.609 C0.125 0.671 0.14 0.687 0.156 0.703 L0.187 0.718 L0.187 0.734 L0.0 0.734 L0.0 0.718 L0.031 0.703 C0.046 0.687 0.062 0.671 0.062 0.609 L0.062 0.125 C0.062 0.062 0.046 0.046 0.031 0.031 L0.0 0.025 L0.0 0.0 L0.171 0.0 L0.484 0.5 C0.5 0.515 0.515 0.531 0.515 0.562 L0.515 0.125 C0.515 0.062 0.515 0.046 0.484 0.031 L0.468 0.025 L0.468 0.0 L0.656 0.0 L0.656 0.025 L0.625 0.031 C0.593 0.046 0.593 0.062 0.593 0.125 L0.593 0.734 L0.531 0.734 L0.156 0.156 C0.14 0.14 0.14 0.125 0.125 0.093 Z"/>
    </g>
    <text style=" stroke : none; font-size : 7.654321;" x="0.0" y="37.5" font-size="10">N</text>
  </g>
  <g transform="matrix(1.0,0., 0.,1.0,240.0,20.0)">
    <g transform="matrix(30.48780403592488,0., 0.,30.48780403592488,0.0,0.0)">
      <path style=" stroke-width:0.02;stroke:black;fill:none;" d="M0.218 0.218 L0.218 0.656 C0.218 0.718 0.218 0.718 0.25 0.75 L0.265 0.75 L0.265 0.781 L0.0 0.781 L0.0 0.75 L0.031 0.75 C0.046 0.734 0.046 0.718 0.046 0.656 L0.046 0.39 C0.046 0.328 0.046 0.312 0.025 0.312 L0.0 0.296 L0.0 0.265 ZM0.046 0.078 C0.046 0.031 0.078 0.0 0.14 0.0 C0.187 0.0 0.234 0.031 0.234 0.078 C0.234 0.125 0.187 0.156 0.14 0.156 C0.078 0.156 0.046 0.125 0.046 0.078 Z"/>
    </g>
    <text style=" stroke : none; font-size : 7.654321;" x="0.0" y="37.5" font-size="10">i</text>
  </g>
  <g transform="matrix(1.0,0., 0.,1.0,280.0,20.0)">
    <g transform="matrix(30.48780403592488,0., 0.,30.48780403592488,0.0,0.0)">
      <path style=" stroke-width:0.02;stroke:black;fill:none;" d="M0.468 0.281 L0.265 0.281 L0.265 0.484 L0.187 0.484 L0.187 0.281 L0.0 0.281 L0.0 0.203 L0.187 0.203 L0.187 0.0 L0.265 0.0 L0.265 0.203 L0.468 0.203 Z"/>
    </g>
    <text style=" stroke : none; font-size : 7.654321;" x="0.0" y="37.5" font-size="10">+</text>
  </g>
  <g transform="matrix(1.0,0., 0.,1.0,320.0,20.0)">
    <g transform="matrix(30.48780403592488,0., 0.,30.48780403592488,0.0,0.0)">
      <path style=" stroke-width:0.02;stroke:black;fill:none;" d="M0.14 0.078 C0.14 0.156 0.093 0.218 0.031 0.25 L0.031 0.234 C0.031 0.203 0.046 0.171 0.046 0.14 C0.046 0.109 0.046 0.109 0.031 0.093 L0.025 0.093 C0.025 0.078 0.0 0.078 0.0 0.046 C0.0 0.025 0.031 0.0 0.062 0.0 C0.109 0.0 0.14 0.031 0.14 0.078 Z"/>
    </g>
    <text style=" stroke : none; font-size : 7.654321;" x="0.0" y="37.5" font-size="10">,</text>
  </g>
  <g transform="matrix(1.0,0., 0.,1.0,360.0,20.0)">
    <g transform="matrix(30.48780403592488,0., 0.,30.48780403592488,0.0,0.0)">
      <path style=" stroke-width:0.02;stroke:black;fill:none;" d="M0.125 0.062 C0.125 0.109 0.109 0.14 0.062 0.14 C0.025 0.14 0.0 0.109 0.0 0.062 C0.0 0.025 0.025 0.0 0.062 0.0 C0.109 0.0 0.125 0.025 0.125 0.062 ZM0.14 0.515 C0.14 0.593 0.093 0.656 0.031 0.687 L0.025 0.671 C0.031 0.64 0.046 0.609 0.046 0.578 C0.046 0.546 0.046 0.546 0.031 0.531 L0.025 0.531 C0.0 0.515 0.0 0.515 0.0 0.484 C0.0 0.453 0.031 0.437 0.062 0.437 C0.109 0.437 0.14 0.468 0.14 0.515 Z"/>
    </g>
    <text style=" stroke : none; font-size : 7.654321;" x="0.0" y="37.5" font-size="10">;</text>
  </g>
  <g transform="matrix(1.0,0., 0.,1.0,400.0,20.0)">
    <g transform="matrix(30.48780403592488,0., 0.,30.48780403592488,0.0,0.0)">
      <path style=" stroke-width:0.02;stroke:black;fill:none;" d="M0.531 0.781 L0.328 0.781 L0.328 0.765 L0.343 0.75 C0.375 0.734 0.375 0.718 0.375 0.656 L0.375 0.484 C0.375 0.39 0.375 0.375 0.375 0.359 C0.359 0.328 0.312 0.296 0.265 0.296 C0.218 0.296 0.187 0.312 0.156 0.328 L0.156 0.656 C0.156 0.718 0.156 0.734 0.187 0.75 L0.203 0.765 L0.203 0.781 L0.0 0.781 L0.0 0.765 L0.031 0.75 C0.046 0.734 0.062 0.718 0.062 0.656 L0.062 0.14 C0.062 0.093 0.046 0.078 0.031 0.062 L0.0 0.062 L0.0 0.031 L0.156 0.0 L0.156 0.296 C0.203 0.25 0.25 0.234 0.312 0.234 C0.359 0.234 0.406 0.25 0.437 0.281 C0.468 0.296 0.468 0.328 0.468 0.453 L0.468 0.656 C0.468 0.718 0.484 0.734 0.5 0.75 L0.531 0.765 Z"/>
    </g>
    <text style=" stroke : none; font-size : 7.654321;" x="0.0" y="37.5" font-size="10">h</text>
  </g>
  <g transform="matrix(1.0,0., 0.,1.0,440.0,20.0)">
    <g transform="matrix(30.48780403592488,0., 0.,30.48780403592488,0.0,0.0)">
      <path style=" stroke-width:0.02;stroke:black;fill:none;" d="M0.234 0.5 C0.234 0.671 0.203 0.812 0.125 0.906 C0.093 0.937 0.062 0.968 0.031 0.984 L0.0 0.953 C0.031 0.921 0.062 0.89 0.078 0.859 C0.109 0.828 0.125 0.781 0.14 0.734 C0.156 0.656 0.171 0.593 0.171 0.5 C0.171 0.39 0.156 0.312 0.14 0.25 C0.109 0.156 0.062 0.078 0.0 0.031 L0.031 0.0 C0.062 0.025 0.093 0.046 0.125 0.078 C0.203 0.171 0.234 0.312 0.234 0.5 Z"/>
    </g>
    <text style=" stroke : none; font-size : 7.654321;" x="0.0" y="37.5" font-size="10">)</text>
  </g>
  <g transform="matrix(1.0,0., 0.,1.0,480.0,20.0)">
    <g transform="matrix(30.48780403592488,0., 0.,30.48780403592488,0.0,0.0)">
      <path style=" stroke-width:0.02;stroke:black;fill:none;" d="M0.484 0.375 C0.484 0.64 0.406 0.765 0.234 0.765 C0.062 0.765 0.0 0.64 0.0 0.39 C0.0 0.296 0.0 0.218 0.031 0.156 C0.062 0.062 0.14 0.0 0.25 0.0 C0.312 0.0 0.359 0.025 0.39 0.046 C0.453 0.109 0.484 0.203 0.484 0.375 ZM0.39 0.375 C0.39 0.281 0.375 0.218 0.359 0.156 C0.343 0.093 0.312 0.062 0.25 0.062 C0.14 0.062 0.109 0.156 0.109 0.39 C0.109 0.484 0.109 0.546 0.125 0.609 C0.14 0.671 0.171 0.703 0.234 0.703 C0.343 0.703 0.39 0.609 0.39 0.375 Z"/>
    </g>
    <text style=" stroke : none; font-size : 7.654321;" x="0.0" y="37.5" font-size="10">0</text>
  </g>
  <g transform="matrix(1.0,0., 0.,1.0,20.0,95.0)">
    <g transform="matrix(30.48780403592488,0., 0.,30.48780403592488,0.0,0.0)">
      <path style=" stroke-width:0.02;stroke:black;fill:none;" d="M0.562 0.14 L0.531 0.14 L0.484 0.078 C0.468 0.062 0.468 0.046 0.39 0.046 L0.328 0.046 L0.328 0.609 C0.328 0.671 0.328 0.687 0.359 0.703 L0.39 0.718 L0.39 0.734 L0.156 0.734 L0.156 0.718 L0.187 0.703 C0.218 0.687 0.234 0.671 0.234 0.609 L0.234 0.046 L0.171 0.046 C0.109 0.046 0.093 0.062 0.062 0.078 L0.031 0.14 L0.0 0.14 L0.0 0.0 L0.562 0.0 Z"/>
    </g>
    <text style=" stroke : none; font-size : 7.654321;" x="0.0" y="37.5" font-size="10">T</text>
  </g>
  <g transform="matrix(1.0,0., 0.,1.0,60.0,95.0)">
    <g transform="matrix(30.48780403592488,0., 0.,30.48780403592488,0.0,0.0)">
      <path style=" stroke-width:0.02;stroke:black;fill:none;" d="M0.531 0.546 L0.328 0.546 L0.328 0.531 L0.343 0.515 C0.375 0.5 0.375 0.484 0.375 0.421 L0.375 0.25 C0.375 0.156 0.375 0.14 0.375 0.125 C0.359 0.093 0.312 0.062 0.265 0.062 C0.218 0.062 0.187 0.078 0.156 0.093 L0.156 0.421 C0.156 0.484 0.156 0.5 0.187 0.515 L0.203 0.531 L0.203 0.546 L0.0 0.546 L0.0 0.531 L0.031 0.515 C0.046 0.5 0.062 0.484 0.062 0.421 L0.062 0.156 C0.062 0.093 0.046 0.078 0.031 0.062 L0.0 0.062 L0.0 0.031 L0.156 0.0 L0.156 0.062 C0.203 0.025 0.25 0.0 0.312 0.0 C0.359 0.0 0.406 0.025 0.437 0.031 C0.453 0.062 0.468 0.078 0.468 0.125 C0.468 0.14 0.468 0.171 0.468 0.218 L0.468 0.421 C0.468 0.484 0.484 0.5 0.5 0.515 L0.531 0.531 Z"/>
    </g>
    <text style=" stroke : none; font-size : 7.654321;" x="0.0" y="37.5" font-size="10">n</text>
  </g>
  <g transform="matrix(1.0,0., 0.,1.0,100.0,95.0)">
    <g transform="matrix(30.48780403592488,0., 0.,30.48780403592488,0.0,0.0)">
      <path style=" stroke-width:0.02;stroke:black;fill:none;" d="M0.171 0.062 C0.171 0.093 0.14 0.125 0.109 0.125 C0.062 0.125 0.046 0.093 0.046 0.062 C0.046 0.031 0.062 0.0 0.109 0.0 C0.14 0.0 0.171 0.031 0.171 0.062 ZM0.203 0.781 L0.0 0.781 L0.0 0.765 L0.031 0.75 C0.046 0.734 0.062 0.718 0.062 0.656 L0.062 0.39 C0.062 0.328 0.046 0.312 0.031 0.296 L0.0 0.296 L0.0 0.265 L0.156 0.234 L0.156 0.656 C0.156 0.718 0.156 0.734 0.187 0.75 L0.203 0.765 Z"/>
    </g>
    <text style=" stroke : none; font-size : 7.654321;" x="0.0" y="37.5" font-size="10">i</text>
  </g>
  <g transform="matrix(1.0,0., 0.,1.0,140.0,95.0)">
    <g transform="matrix(30.48780403592488,0., 0.,30.48780403592488,0.0,0.0)">
      <path style=" stroke-width:0.02;stroke:black;fill:none;" d="M0.203 0.375 L0.156 0.609 C0.156 0.64 0.156 0.656 0.156 0.656 C0.156 0.671 0.156 0.687 0.171 0.703 L0.203 0.718 L0.187 0.734 L0.0 0.734 L0.0 0.718 L0.025 0.703 C0.046 0.687 0.046 0.671 0.062 0.609 L0.14 0.125 C0.14 0.093 0.14 0.078 0.14 0.078 C0.14 0.062 0.14 0.046 0.125 0.031 L0.093 0.025 L0.109 0.0 L0.312 0.0 C0.437 0.0 0.468 0.0 0.515 0.046 C0.531 0.078 0.546 0.109 0.546 0.156 C0.546 0.265 0.468 0.343 0.359 0.359 L0.359 0.359 C0.39 0.453 0.421 0.531 0.468 0.625 C0.484 0.671 0.5 0.671 0.515 0.703 L0.546 0.718 L0.546 0.734 L0.406 0.734 C0.375 0.671 0.312 0.531 0.265 0.39 L0.265 0.375 ZM0.203 0.328 L0.265 0.328 C0.312 0.328 0.343 0.328 0.375 0.296 C0.421 0.281 0.437 0.218 0.437 0.156 C0.437 0.125 0.437 0.109 0.421 0.078 C0.406 0.062 0.359 0.046 0.296 0.046 C0.281 0.046 0.265 0.046 0.25 0.046 L0.25 0.046 Z"/>
    </g>
    <text style=" stroke : none; font-size : 7.654321;" x="0.0" y="37.5" font-size="10">R</text>
  </g>
  <g transform="matrix(1.0,0., 0.,1.0,180.0,95.0)">
    <g transform="matrix(30.48780403592488,0., 0.,30.48780403592488,0.0,0.0)">
      <path style=" stroke-width:0.02;stroke:black;fill:none;" d="M0.562 0.156 L0.546 0.125 C0.531 0.109 0.531 0.109 0.515 0.093 C0.5 0.078 0.468 0.062 0.421 0.062 C0.218 0.062 0.109 0.203 0.109 0.453 C0.109 0.625 0.171 0.703 0.343 0.703 C0.359 0.703 0.39 0.703 0.421 0.703 L0.437 0.578 C0.437 0.562 0.437 0.546 0.437 0.531 C0.437 0.515 0.437 0.5 0.421 0.5 L0.39 0.484 L0.39 0.468 L0.593 0.468 L0.593 0.484 L0.562 0.5 C0.531 0.515 0.531 0.515 0.531 0.578 L0.5 0.718 C0.437 0.75 0.359 0.765 0.296 0.765 C0.109 0.765 0.0 0.656 0.0 0.453 C0.0 0.343 0.031 0.234 0.093 0.156 C0.171 0.062 0.281 0.0 0.437 0.0 C0.484 0.0 0.562 0.025 0.593 0.031 L0.578 0.156 Z"/>
    </g>
    <text style=" stroke : none; font-size : 7.654321;" x="0.0" y="37.5" font-size="10">G</text>
  </g>
  <g transform="matrix(1.0,0., 0.,1.0,220.0,95.0)">
    <g transform="matrix(30.48780403592488,0., 0.,30.48780403592488,0.0,0.0)">
      <path style=" stroke-width:0.02;stroke:black;fill:none;" d="M0.515 0.531 C0.515 0.593 0.484 0.64 0.453 0.671 C0.437 0.687 0.406 0.703 0.375 0.718 C0.343 0.734 0.296 0.734 0.218 0.734 L0.0 0.734 L0.0 0.718 L0.031 0.703 C0.046 0.687 0.062 0.671 0.062 0.609 L0.062 0.125 C0.062 0.062 0.046 0.046 0.031 0.031 L0.0 0.025 L0.0 0.0 L0.234 0.0 C0.296 0.0 0.328 0.0 0.359 0.025 C0.437 0.031 0.484 0.078 0.484 0.171 C0.484 0.25 0.421 0.312 0.328 0.343 C0.39 0.343 0.437 0.375 0.468 0.406 C0.5 0.437 0.515 0.468 0.515 0.531 ZM0.375 0.171 C0.375 0.14 0.359 0.093 0.328 0.078 C0.312 0.062 0.265 0.046 0.218 0.046 C0.203 0.046 0.156 0.062 0.156 0.062 L0.156 0.328 L0.218 0.328 C0.328 0.328 0.375 0.281 0.375 0.171 ZM0.406 0.531 C0.406 0.468 0.375 0.421 0.343 0.39 C0.312 0.39 0.281 0.375 0.234 0.375 L0.156 0.375 L0.156 0.671 C0.187 0.687 0.203 0.687 0.234 0.687 C0.296 0.687 0.312 0.671 0.343 0.656 C0.39 0.625 0.406 0.578 0.406 0.531 Z"/>
    </g>
    <text style=" stroke : none; font-size : 7.654321;" x="0.0" y="37.5" font-size="10">B</text>
  </g>
  <g transform="matrix(1.0,0., 0.,1.0,260.0,95.0)">
    <g transform="matrix(30.48780403592488,0., 0.,30.48780403592488,0.0,0.0)">
      <path style=" stroke-width:0.02;stroke:black;fill:none;" d="M0.515 0.031 L0.5 0.046 C0.5 0.046 0.484 0.078 0.468 0.109 L0.328 0.515 C0.312 0.562 0.296 0.625 0.281 0.64 C0.25 0.718 0.187 0.75 0.093 0.75 C0.031 0.75 0.0 0.734 0.0 0.703 C0.0 0.671 0.025 0.656 0.062 0.656 C0.078 0.656 0.078 0.656 0.093 0.656 L0.109 0.687 C0.125 0.687 0.125 0.703 0.14 0.703 C0.171 0.703 0.187 0.671 0.218 0.625 L0.218 0.593 L0.046 0.109 C0.031 0.078 0.031 0.046 0.025 0.046 L0.0 0.031 L0.0 0.0 L0.171 0.0 L0.171 0.031 L0.156 0.046 C0.156 0.046 0.14 0.062 0.14 0.062 C0.14 0.078 0.156 0.093 0.156 0.109 L0.265 0.421 C0.265 0.437 0.265 0.453 0.281 0.484 C0.281 0.468 0.281 0.453 0.296 0.421 L0.39 0.109 C0.39 0.093 0.39 0.078 0.39 0.062 C0.39 0.062 0.39 0.046 0.375 0.046 L0.359 0.031 L0.359 0.0 L0.515 0.0 Z"/>
    </g>
    <text style=" stroke : none; font-size : 7.654321;" x="0.0" y="37.5" font-size="10">y</text>
  </g>
  <g transform="matrix(1.0,0., 0.,1.0,300.0,95.0)">
    <g transform="matrix(30.48780403592488,0., 0.,30.48780403592488,0.0,0.0)">
      <path style=" stroke-width:0.02;stroke:black;fill:none;" d="M0.5 0.75 L0.296 0.75 L0.296 0.734 L0.328 0.718 C0.343 0.703 0.359 0.687 0.359 0.64 L0.359 0.484 C0.296 0.531 0.25 0.562 0.187 0.562 C0.062 0.562 0.0 0.453 0.0 0.296 C0.0 0.109 0.093 0.0 0.25 0.0 C0.281 0.0 0.312 0.0 0.359 0.025 L0.453 0.0 L0.453 0.64 C0.453 0.687 0.453 0.703 0.484 0.718 L0.5 0.734 ZM0.359 0.468 L0.359 0.062 C0.328 0.062 0.296 0.046 0.281 0.046 C0.156 0.046 0.093 0.125 0.093 0.281 C0.093 0.421 0.156 0.484 0.25 0.484 C0.296 0.484 0.328 0.484 0.359 0.468 Z"/>
    </g>
    <text style=" stroke : none; font-size : 7.654321;" x="0.0" y="37.5" font-size="10">q</text>
  </g>
  <g transform="matrix(1.0,0., 0.,1.0,340.0,95.0)">
    <g transform="matrix(30.48780403592488,0., 0.,30.48780403592488,0.0,0.0)">
      <path style=" stroke-width:0.02;stroke:black;fill:none;" d="M0.453 0.046 L0.187 0.734 L0.093 0.734 L0.375 0.078 L0.14 0.078 C0.078 0.078 0.062 0.078 0.046 0.109 L0.025 0.14 L0.0 0.14 L0.0 0.0 L0.453 0.0 Z"/>
    </g>
    <text style=" stroke : none; font-size : 7.654321;" x="0.0" y="37.5" font-size="10">7</text>
  </g>
  <g transform="matrix(1.0,0., 0.,1.0,380.0,95.0)">
    <g transform="matrix(30.48780403592488,0., 0.,30.48780403592488,0.0,0.0)">
      <path style=" stroke-width:0.02;stroke:black;fill:none;" d="M0.406 0.484 C0.359 0.531 0.296 0.562 0.218 0.562 C0.078 0.562 0.0 0.453 0.0 0.296 C0.0 0.109 0.093 0.0 0.265 0.0 C0.359 0.0 0.406 0.025 0.406 0.062 C0.406 0.093 0.39 0.109 0.343 0.109 C0.328 0.109 0.328 0.109 0.328 0.109 L0.296 0.078 C0.281 0.062 0.265 0.046 0.234 0.046 C0.14 0.046 0.093 0.125 0.093 0.265 C0.093 0.421 0.156 0.484 0.281 0.484 C0.328 0.484 0.359 0.484 0.406 0.468 Z"/>
    </g>
    <text style=" stroke : none; font-size : 7.654321;" x="0.0" y="37.5" font-size="10">c</text>
  </g>
  <g transform="matrix(1.0,0., 0.,1.0,420.0,95.0)">
    <g transform="matrix(30.48780403592488,0., 0.,30.48780403592488,0.0,0.0)">
      <path style=" stroke-width:0.02;stroke:black;fill:none;" d="M0.515 0.25 C0.515 0.437 0.421 0.562 0.265 0.562 C0.218 0.562 0.187 0.546 0.156 0.531 L0.156 0.625 C0.156 0.687 0.156 0.703 0.187 0.718 L0.218 0.734 L0.218 0.75 L0.0 0.75 L0.0 0.734 L0.031 0.718 C0.046 0.703 0.046 0.687 0.046 0.64 L0.046 0.156 C0.046 0.093 0.046 0.078 0.031 0.062 L0.0 0.062 L0.0 0.031 L0.14 0.0 L0.14 0.062 C0.203 0.025 0.25 0.0 0.312 0.0 C0.437 0.0 0.515 0.093 0.515 0.25 ZM0.406 0.265 C0.406 0.125 0.359 0.062 0.25 0.062 C0.218 0.062 0.171 0.078 0.156 0.078 L0.156 0.484 C0.171 0.5 0.203 0.5 0.234 0.5 C0.343 0.5 0.406 0.421 0.406 0.265 Z"/>
    </g>
    <text style=" stroke : none; font-size : 7.654321;" x="0.0" y="37.5" font-size="10">p</text>
  </g>
  <g transform="matrix(1.0,0., 0.,1.0,460.0,95.0)">
    <g transform="matrix(30.48780403592488,0., 0.,30.48780403592488,0.0,0.0)">
      <path style=" stroke-width:0.02;stroke:black;fill:none;" d="M0.281 0.718 L0.281 0.734 L0.062 0.734 L0.062 0.718 L0.093 0.703 C0.125 0.687 0.125 0.671 0.14 0.609 L0.218 0.046 L0.171 0.046 C0.156 0.046 0.14 0.046 0.125 0.046 C0.109 0.046 0.093 0.062 0.078 0.078 L0.031 0.14 L0.0 0.14 L0.025 0.0 L0.546 0.0 L0.515 0.14 L0.5 0.14 L0.468 0.078 C0.453 0.078 0.453 0.062 0.453 0.062 C0.437 0.046 0.421 0.046 0.375 0.046 L0.328 0.046 L0.234 0.609 C0.234 0.625 0.234 0.64 0.234 0.656 C0.234 0.671 0.234 0.687 0.25 0.703 Z"/>
    </g>
    <text style=" stroke : none; font-size : 7.654321;" x="0.0" y="37.5" font-size="10">T</text>
  </g>
  <g transform="matrix(1.0,0., 0.,1.0,500.0,95.0)">
    <g transform="matrix(30.48780403592488,0., 0.,30.48780403592488,0.0,0.0)">
      <path style=" stroke-width:0.02;stroke:black;fill:none;" d="M0.265 0.765 C0.093 0.765 0.0 0.656 0.0 0.468 C0.0 0.187 0.14 0.0 0.343 0.0 C0.515 0.0 0.609 0.109 0.609 0.296 C0.609 0.578 0.468 0.765 0.265 0.765 ZM0.281 0.703 C0.328 0.703 0.375 0.671 0.406 0.64 C0.468 0.562 0.5 0.437 0.5 0.296 C0.5 0.14 0.453 0.062 0.343 0.062 C0.281 0.062 0.234 0.093 0.203 0.125 C0.14 0.203 0.109 0.328 0.109 0.468 C0.109 0.625 0.171 0.703 0.281 0.703 Z"/>
    </g>
    <text style=" stroke : none; font-size : 7.654321;" x="0.0" y="37.5" font-size="10">O</text>
  </g>
  <g transform="matrix(1.0,0., 0.,1.0,20.0,170.0)">
    <g transform="matrix(30.48780403592488,0., 0.,30.48780403592488,0.0,0.0)">
      <path style=" stroke-width:0.02;stroke:black;fill:none;" d="M0.031 0.125 L0.0 0.125 L0.025 0.0 L0.484 0.0 L0.468 0.046 L0.453 0.078 C0.234 0.406 0.171 0.5 0.14 0.562 C0.14 0.593 0.125 0.609 0.125 0.625 C0.125 0.64 0.14 0.656 0.14 0.656 L0.14 0.671 C0.156 0.671 0.156 0.687 0.156 0.687 C0.156 0.718 0.125 0.75 0.093 0.75 C0.046 0.75 0.031 0.718 0.031 0.671 C0.031 0.625 0.046 0.578 0.093 0.515 C0.125 0.453 0.171 0.39 0.25 0.265 L0.39 0.078 L0.14 0.078 C0.093 0.078 0.078 0.078 0.046 0.109 Z"/>
    </g>
    <text style=" stroke : none; font-size : 7.654321;" x="0.0" y="37.5" font-size="10">7</text>
  </g>
  <g transform="matrix(1.0,0., 0.,1.0,60.0,170.0)">
    <g transform="matrix(30.48780403592488,0., 0.,30.48780403592488,0.0,0.0)">
      <path style=" stroke-width:0.02;stroke:black;fill:none;" d="M0.484 0.265 C0.484 0.453 0.39 0.562 0.234 0.562 C0.078 0.562 0.0 0.453 0.0 0.281 C0.0 0.093 0.093 0.0 0.234 0.0 C0.39 0.0 0.484 0.093 0.484 0.265 ZM0.375 0.281 C0.375 0.125 0.328 0.046 0.234 0.046 C0.14 0.046 0.093 0.125 0.093 0.281 C0.093 0.437 0.14 0.5 0.234 0.5 C0.328 0.5 0.375 0.437 0.375 0.281 Z"/>
    </g>
    <text style=" stroke : none; font-size : 7.654321;" x="0.0" y="37.5" font-size="10">o</text>
  </g>
  <g transform="matrix(1.0,0., 0.,1.0,100.0,170.0)">
    <g transform="matrix(30.48780403592488,0., 0.,30.48780403592488,0.0,0.0)">
      <path style=" stroke-width:0.02;stroke:black;fill:none;" d="M0.515 0.031 L0.5 0.046 C0.484 0.046 0.484 0.062 0.468 0.109 L0.296 0.546 L0.203 0.546 L0.046 0.109 C0.046 0.078 0.031 0.046 0.025 0.046 L0.0 0.031 L0.0 0.0 L0.171 0.0 L0.171 0.031 L0.156 0.046 C0.156 0.046 0.14 0.062 0.14 0.062 C0.14 0.078 0.14 0.093 0.156 0.109 L0.25 0.39 C0.265 0.421 0.265 0.437 0.265 0.468 C0.265 0.437 0.281 0.421 0.281 0.39 L0.39 0.109 C0.39 0.093 0.39 0.078 0.39 0.062 C0.39 0.062 0.39 0.046 0.375 0.046 L0.359 0.031 L0.359 0.0 L0.515 0.0 Z"/>
    </g>
    <text style=" stroke : none; font-size : 7.654321;" x="0.0" y="37.5" font-size="10">v</text>
  </g>
  <g transform="matrix(1.0,0., 0.,1.0,140.0,170.0)">
    <g transform="matrix(30.48780403592488,0., 0.,30.48780403592488,0.0,0.0)">
      <path style=" stroke-width:0.02;stroke:black;fill:none;" d="M0.421 0.484 C0.375 0.531 0.312 0.562 0.234 0.562 C0.078 0.562 0.0 0.468 0.0 0.296 C0.0 0.109 0.093 0.0 0.234 0.0 C0.375 0.0 0.437 0.078 0.437 0.25 L0.437 0.25 L0.093 0.25 L0.093 0.265 C0.093 0.421 0.156 0.484 0.296 0.484 C0.328 0.484 0.375 0.484 0.421 0.468 ZM0.093 0.218 L0.328 0.187 C0.328 0.093 0.296 0.046 0.218 0.046 C0.14 0.046 0.093 0.109 0.093 0.218 Z"/>
    </g>
    <text style=" stroke : none; font-size : 7.654321;" x="0.0" y="37.5" font-size="10">e</text>
  </g>
  <g transform="matrix(1.0,0., 0.,1.0,180.0,170.0)">
    <g transform="matrix(30.48780403592488,0., 0.,30.48780403592488,0.0,0.0)">
      <path style=" stroke-width:0.02;stroke:black;fill:none;" d="M0.531 0.546 L0.328 0.546 L0.328 0.531 L0.343 0.515 C0.359 0.5 0.359 0.5 0.359 0.484 C0.359 0.484 0.359 0.468 0.343 0.453 L0.25 0.312 L0.14 0.453 C0.14 0.468 0.14 0.484 0.14 0.484 C0.14 0.5 0.14 0.5 0.14 0.515 L0.171 0.531 L0.171 0.546 L0.0 0.546 L0.0 0.531 L0.025 0.5 C0.046 0.484 0.062 0.468 0.078 0.437 L0.203 0.265 L0.093 0.109 C0.078 0.078 0.062 0.062 0.031 0.046 L0.025 0.031 L0.025 0.0 L0.203 0.0 L0.203 0.031 L0.187 0.046 C0.187 0.046 0.187 0.062 0.187 0.062 C0.187 0.078 0.187 0.078 0.187 0.093 L0.265 0.203 L0.343 0.093 C0.359 0.078 0.359 0.078 0.359 0.062 C0.359 0.062 0.359 0.046 0.343 0.046 L0.328 0.031 L0.328 0.0 L0.5 0.0 L0.5 0.031 L0.468 0.046 C0.453 0.062 0.437 0.078 0.406 0.125 L0.312 0.25 L0.437 0.437 C0.468 0.484 0.484 0.484 0.5 0.515 L0.531 0.531 Z"/>
    </g>
    <text style=" stroke : none; font-size : 7.654321;" x="0.0" y="37.5" font-size="10">x</text>
  </g>
  <g transform="matrix(1.0,0., 0.,1.0,220.0,170.0)">
    <g transform="matrix(30.48780403592488,0., 0.,30.48780403592488,0.0,0.0)">
      <path style=" stroke-width:0.02;stroke:black;fill:none;" d="M0.843 0.546 L0.64 0.546 L0.64 0.531 L0.671 0.515 C0.687 0.5 0.703 0.484 0.703 0.421 L0.703 0.25 C0.703 0.156 0.703 0.14 0.687 0.125 C0.671 0.078 0.64 0.062 0.578 0.062 C0.531 0.062 0.499 0.078 0.468 0.078 C0.468 0.109 0.468 0.14 0.468 0.218 L0.468 0.421 C0.468 0.484 0.484 0.5 0.499 0.515 L0.531 0.531 L0.531 0.546 L0.328 0.546 L0.328 0.531 L0.343 0.515 C0.375 0.5 0.375 0.484 0.375 0.421 L0.375 0.25 C0.375 0.156 0.375 0.14 0.375 0.125 C0.359 0.093 0.312 0.062 0.265 0.062 C0.218 0.062 0.187 0.078 0.156 0.078 L0.156 0.421 C0.156 0.484 0.156 0.5 0.187 0.515 L0.203 0.531 L0.203 0.546 L0.0 0.546 L0.0 0.531 L0.031 0.515 C0.046 0.5 0.062 0.484 0.062 0.421 L0.062 0.156 C0.062 0.093 0.046 0.078 0.031 0.062 L0.0 0.062 L0.0 0.031 L0.156 0.0 L0.156 0.062 C0.203 0.025 0.25 0.0 0.312 0.0 C0.375 0.0 0.421 0.025 0.453 0.062 C0.499 0.025 0.562 0.0 0.624 0.0 C0.671 0.0 0.718 0.025 0.749 0.031 C0.765 0.046 0.781 0.062 0.781 0.093 C0.796 0.125 0.796 0.14 0.796 0.218 L0.796 0.421 C0.796 0.484 0.796 0.5 0.828 0.515 L0.843 0.531 Z"/>
    </g>
    <text style=" stroke : none; font-size : 7.654321;" x="0.0" y="37.5" font-size="10">m</text>
  </g>
  <g transform="matrix(1.0,0., 0.,1.0,260.0,170.0)">
    <g transform="matrix(30.48780403592488,0., 0.,30.48780403592488,0.0,0.0)">
      <path style=" stroke-width:0.02;stroke:black;fill:none;" d="M0.078 0.359 L0.156 0.0 L0.515 0.0 L0.5 0.078 L0.203 0.078 L0.156 0.281 C0.187 0.281 0.218 0.265 0.265 0.265 C0.39 0.265 0.468 0.343 0.468 0.468 C0.468 0.64 0.359 0.75 0.156 0.75 C0.062 0.75 0.0 0.718 0.0 0.671 C0.0 0.64 0.031 0.625 0.062 0.625 C0.078 0.625 0.093 0.625 0.093 0.64 L0.109 0.656 C0.125 0.687 0.125 0.687 0.171 0.687 C0.296 0.687 0.375 0.609 0.375 0.484 C0.375 0.375 0.312 0.328 0.218 0.328 C0.171 0.328 0.125 0.343 0.078 0.359 Z"/>
    </g>
    <text style=" stroke : none; font-size : 7.654321;" x="0.0" y="37.5" font-size="10">5</text>
  </g>
  <g transform="matrix(1.0,0., 0.,1.0,300.0,170.0)">
    <g transform="matrix(30.48780403592488,0., 0.,30.48780403592488,0.0,0.0)">
      <path style=" stroke-width:0.02;stroke:black;fill:none;" d="M0.0 0.078 L0.025 0.0 L0.312 0.0 L0.296 0.078 Z"/>
    </g>
    <text style=" stroke : none; font-size : 7.654321;" x="0.0" y="37.5" font-size="10">-</text>
  </g>
  <g transform="matrix(1.0,0., 0.,1.0,340.0,170.0)">
    <g transform="matrix(30.48780403592488,0., 0.,30.48780403592488,0.0,0.0)">
      <path style=" stroke-width:0.02;stroke:black;fill:none;" d="M0.0 0.687 L0.031 0.671 C0.125 0.578 0.25 0.468 0.312 0.406 C0.39 0.328 0.421 0.265 0.421 0.171 C0.421 0.093 0.39 0.062 0.312 0.062 C0.265 0.062 0.234 0.062 0.234 0.078 L0.203 0.125 C0.187 0.14 0.187 0.14 0.156 0.14 C0.125 0.14 0.109 0.125 0.109 0.093 C0.109 0.046 0.187 0.0 0.312 0.0 C0.453 0.0 0.531 0.062 0.531 0.171 C0.531 0.312 0.468 0.406 0.109 0.671 L0.093 0.671 L0.312 0.671 C0.328 0.671 0.343 0.671 0.359 0.671 C0.375 0.671 0.39 0.656 0.406 0.64 L0.453 0.609 L0.484 0.609 L0.421 0.75 L0.0 0.75 Z"/>
    </g>
    <text style=" stroke : none; font-size : 7.654321;" x="0.0" y="37.5" font-size="10">2</text>
  </g>
  <g transform="matrix(1.0,0., 0.,1.0,380.0,170.0)">
    <g transform="matrix(30.48780403592488,0., 0.,30.48780403592488,0.0,0.0)">
      <path style=" stroke-width:0.02;stroke:black;fill:none;" d="M0.578 0.093 L0.437 0.078 C0.468 0.109 0.484 0.14 0.484 0.187 C0.484 0.296 0.39 0.359 0.25 0.359 C0.234 0.359 0.234 0.359 0.218 0.359 C0.203 0.375 0.187 0.39 0.187 0.406 C0.187 0.437 0.203 0.437 0.25 0.437 L0.359 0.437 C0.421 0.437 0.437 0.453 0.468 0.453 C0.515 0.468 0.546 0.5 0.546 0.562 C0.546 0.687 0.421 0.765 0.234 0.765 C0.093 0.765 0.0 0.734 0.0 0.656 C0.0 0.593 0.046 0.562 0.125 0.546 C0.093 0.531 0.093 0.5 0.093 0.468 C0.093 0.421 0.109 0.39 0.171 0.359 C0.078 0.328 0.031 0.265 0.031 0.187 C0.031 0.078 0.125 0.0 0.265 0.0 C0.312 0.0 0.343 0.025 0.39 0.031 L0.578 0.0 ZM0.328 0.187 C0.328 0.093 0.312 0.062 0.265 0.062 C0.203 0.062 0.187 0.093 0.187 0.187 C0.187 0.281 0.203 0.312 0.265 0.312 C0.312 0.312 0.328 0.281 0.328 0.187 ZM0.421 0.609 C0.421 0.578 0.406 0.562 0.359 0.562 L0.171 0.562 C0.14 0.578 0.14 0.609 0.14 0.625 C0.14 0.671 0.171 0.703 0.25 0.703 C0.359 0.703 0.421 0.671 0.421 0.609 Z"/>
    </g>
    <text style=" stroke : none; font-size : 7.654321;" x="0.0" y="37.5" font-size="10">g</text>
  </g>
  <g transform="matrix(1.0,0., 0.,1.0,420.0,170.0)">
    <g transform="matrix(30.48780403592488,0., 0.,30.48780403592488,0.0,0.0)">
      <path style=" stroke-width:0.02;stroke:black;fill:none;" d="M0.625 0.484 L0.593 0.5 C0.578 0.515 0.562 0.531 0.562 0.578 L0.562 0.718 C0.5 0.75 0.421 0.765 0.343 0.765 C0.109 0.765 0.0 0.64 0.0 0.39 C0.0 0.14 0.14 0.0 0.375 0.0 C0.437 0.0 0.5 0.025 0.546 0.031 L0.562 0.031 L0.562 0.156 L0.546 0.156 L0.5 0.109 C0.468 0.093 0.453 0.078 0.437 0.078 C0.421 0.062 0.406 0.062 0.375 0.062 C0.203 0.062 0.109 0.171 0.109 0.39 C0.109 0.609 0.187 0.703 0.39 0.703 C0.421 0.703 0.437 0.703 0.468 0.703 L0.468 0.578 C0.468 0.531 0.468 0.515 0.437 0.5 L0.406 0.484 L0.406 0.468 L0.625 0.468 Z"/>
    </g>
    <text style=" stroke : none; font-size : 7.654321;" x="0.0" y="37.5" font-size="10">G</text>
  </g>
  <g transform="matrix(1.0,0., 0.,1.0,460.0,170.0)">
    <g transform="matrix(30.48780403592488,0., 0.,30.48780403592488,0.0,0.0)">
      <path style=" stroke-width:0.02;stroke:black;fill:none;" d="M0.203 0.781 L0.0 0.781 L0.0 0.765 L0.031 0.75 C0.046 0.734 0.062 0.718 0.062 0.656 L0.062 0.14 C0.062 0.093 0.046 0.078 0.031 0.062 L0.0 0.062 L0.0 0.031 L0.156 0.0 L0.156 0.656 C0.156 0.718 0.156 0.734 0.187 0.75 L0.203 0.765 Z"/>
    </g>
    <text style=" stroke : none; font-size : 7.654321;" x="0.0" y="37.5" font-size="10">l</text>
  </g>
  <g transform="matrix(1.0,0., 0.,1.0,500.0,170.0)">
    <g transform="matrix(30.48780403592488,0., 0.,30.48780403592488,0.0,0.0)">
      <path style=" stroke-width:0.02;stroke:black;fill:none;" d="M0.328 0.39 C0.328 0.5 0.265 0.562 0.125 0.562 C0.078 0.562 0.046 0.546 0.0 0.546 L0.0 0.546 L0.0 0.421 L0.025 0.421 L0.031 0.453 C0.062 0.484 0.093 0.5 0.14 0.5 C0.203 0.5 0.25 0.468 0.25 0.421 C0.25 0.375 0.234 0.359 0.187 0.328 L0.109 0.281 C0.031 0.25 0.0 0.203 0.0 0.14 C0.0 0.046 0.078 0.0 0.187 0.0 C0.218 0.0 0.296 0.0 0.312 0.025 L0.312 0.125 L0.296 0.125 L0.265 0.093 C0.265 0.078 0.218 0.046 0.171 0.046 C0.125 0.046 0.093 0.078 0.093 0.125 C0.093 0.156 0.109 0.187 0.14 0.203 L0.234 0.25 C0.296 0.281 0.328 0.328 0.328 0.39 Z"/>
    </g>
    <text style=" stroke : none; font-size : 7.654321;" x="0.0" y="37.5" font-size="10">s</text>
  </g>
  <g transform="matrix(1.0,0., 0.,1.0,20.0,245.0)">
    <g transform="matrix(30.48780403592488,0., 0.,30.48780403592488,0.0,0.0)">
      <path style=" stroke-width:0.02;stroke:black;fill:none;" d="M0.453 0.515 L0.421 0.531 C0.39 0.546 0.375 0.562 0.359 0.562 C0.328 0.562 0.296 0.531 0.296 0.5 L0.296 0.484 L0.296 0.484 C0.265 0.531 0.218 0.562 0.156 0.562 C0.062 0.562 0.0 0.5 0.0 0.406 C0.0 0.343 0.031 0.296 0.093 0.281 C0.125 0.265 0.171 0.265 0.265 0.265 L0.296 0.25 L0.296 0.187 C0.296 0.156 0.296 0.14 0.296 0.125 C0.281 0.078 0.25 0.062 0.187 0.062 C0.14 0.062 0.093 0.078 0.062 0.093 L0.062 0.078 C0.093 0.025 0.156 0.0 0.234 0.0 C0.281 0.0 0.328 0.025 0.359 0.031 C0.39 0.062 0.39 0.078 0.39 0.187 L0.39 0.406 C0.39 0.468 0.406 0.484 0.421 0.5 L0.453 0.5 ZM0.296 0.296 L0.281 0.296 C0.156 0.312 0.109 0.328 0.109 0.406 C0.109 0.453 0.14 0.484 0.203 0.484 C0.234 0.484 0.265 0.484 0.296 0.468 Z"/>
    </g>
    <text style=" stroke : none; font-size : 7.654321;" x="0.0" y="37.5" font-size="10">a</text>
  </g>
  <g transform="matrix(1.0,0., 0.,1.0,60.0,245.0)">
    <g transform="matrix(30.48780403592488,0., 0.,30.48780403592488,0.0,0.0)">
      <path style=" stroke-width:0.02;stroke:black;fill:none;" d="M0.203 0.984 C0.171 0.968 0.125 0.937 0.093 0.906 C0.031 0.812 0.0 0.671 0.0 0.5 C0.0 0.312 0.031 0.171 0.093 0.078 C0.125 0.046 0.171 0.025 0.203 0.0 L0.234 0.031 C0.203 0.062 0.171 0.093 0.156 0.125 C0.125 0.156 0.109 0.203 0.093 0.25 C0.062 0.328 0.062 0.39 0.062 0.5 C0.062 0.593 0.062 0.671 0.093 0.734 C0.109 0.828 0.171 0.906 0.234 0.953 Z"/>
    </g>
    <text style=" stroke : none; font-size : 7.654321;" x="0.0" y="37.5" font-size="10">(</text>
  </g>
  <g transform="matrix(1.0,0., 0.,1.0,100.0,245.0)">
    <g transform="matrix(30.48780403592488,0., 0.,30.48780403592488,0.0,0.0)">
      <path style=" stroke-width:0.02;stroke:black;fill:none;" d="M0.359 0.046 C0.359 0.078 0.343 0.109 0.296 0.109 C0.296 0.109 0.296 0.109 0.281 0.093 L0.265 0.078 C0.25 0.078 0.234 0.062 0.218 0.062 C0.203 0.062 0.171 0.078 0.156 0.093 L0.156 0.421 C0.156 0.484 0.156 0.5 0.187 0.515 L0.218 0.531 L0.218 0.546 L0.0 0.546 L0.0 0.531 L0.031 0.515 C0.046 0.5 0.062 0.484 0.062 0.421 L0.062 0.156 C0.062 0.093 0.046 0.078 0.031 0.062 L0.0 0.062 L0.0 0.031 L0.156 0.0 L0.156 0.078 L0.156 0.062 C0.203 0.031 0.25 0.0 0.296 0.0 C0.328 0.0 0.359 0.025 0.359 0.046 Z"/>
    </g>
    <text style=" stroke : none; font-size : 7.654321;" x="0.0" y="37.5" font-size="10">r</text>
  </g>
  <g transform="matrix(1.0,0., 0.,1.0,140.0,245.0)">
    <g transform="matrix(30.48780403592488,0., 0.,30.48780403592488,0.0,0.0)">
      <path style=" stroke-width:0.02;stroke:black;fill:none;" d="M0.5 0.75 L0.359 0.796 L0.359 0.718 C0.312 0.765 0.25 0.796 0.187 0.796 C0.062 0.796 0.0 0.687 0.0 0.531 C0.0 0.343 0.093 0.234 0.234 0.234 C0.281 0.234 0.312 0.234 0.359 0.25 L0.359 0.14 C0.359 0.078 0.343 0.062 0.328 0.062 L0.296 0.046 L0.296 0.031 L0.453 0.0 L0.453 0.64 C0.453 0.703 0.453 0.718 0.484 0.718 L0.5 0.734 ZM0.359 0.703 L0.359 0.296 C0.328 0.296 0.296 0.281 0.281 0.281 C0.156 0.281 0.093 0.359 0.093 0.515 C0.093 0.656 0.156 0.718 0.25 0.718 C0.296 0.718 0.328 0.718 0.359 0.703 Z"/>
    </g>
    <text style=" stroke : none; font-size : 7.654321;" x="0.0" y="37.5" font-size="10">d</text>
  </g>
  <g transform="matrix(1.0,0., 0.,1.0,180.0,245.0)">
    <g transform="matrix(30.48780403592488,0., 0.,30.48780403592488,0.0,0.0)">
      <path style=" stroke-width:0.02;stroke:black;fill:none;" d="M0.625 0.718 L0.656 0.703 C0.687 0.687 0.687 0.671 0.687 0.609 L0.687 0.031 C0.687 0.078 0.671 0.093 0.671 0.125 L0.437 0.734 L0.375 0.734 L0.156 0.125 C0.14 0.093 0.14 0.078 0.125 0.031 L0.125 0.609 C0.125 0.671 0.14 0.687 0.156 0.703 L0.187 0.718 L0.187 0.734 L0.0 0.734 L0.0 0.718 L0.031 0.703 C0.046 0.687 0.062 0.671 0.062 0.609 L0.062 0.125 C0.062 0.062 0.046 0.046 0.031 0.031 L0.0 0.025 L0.0 0.0 L0.203 0.0 L0.406 0.546 C0.421 0.578 0.421 0.593 0.421 0.625 C0.421 0.593 0.437 0.578 0.437 0.546 L0.64 0.0 L0.843 0.0 L0.843 0.025 L0.812 0.031 C0.781 0.046 0.781 0.062 0.781 0.125 L0.781 0.609 C0.781 0.671 0.781 0.687 0.812 0.703 L0.843 0.718 L0.843 0.734 L0.625 0.734 Z"/>
    </g>
    <text style=" stroke : none; font-size : 7.654321;" x="0.0" y="37.5" font-size="10">M</text>
  </g>
  <g transform="matrix(1.0,0., 0.,1.0,220.0,245.0)">
    <g transform="matrix(30.48780403592488,0., 0.,30.48780403592488,0.0,0.0)">
      <path style=" stroke-width:0.02;stroke:black;fill:none;" d="M0.156 0.187 L0.156 0.515 C0.156 0.593 0.187 0.609 0.25 0.609 C0.281 0.609 0.296 0.609 0.328 0.609 L0.328 0.625 C0.296 0.656 0.25 0.687 0.187 0.687 C0.14 0.687 0.109 0.671 0.093 0.64 C0.062 0.625 0.062 0.593 0.062 0.531 L0.062 0.187 L0.0 0.187 L0.0 0.156 C0.031 0.14 0.062 0.125 0.078 0.093 C0.093 0.078 0.093 0.046 0.109 0.0 L0.156 0.0 L0.156 0.125 L0.328 0.125 L0.328 0.187 Z"/>
    </g>
    <text style=" stroke : none; font-size : 7.654321;" x="0.0" y="37.5" font-size="10">t</text>
  </g>
  <g transform="matrix(1.0,0., 0.,1.0,260.0,245.0)">
    <g transform="matrix(30.48780403592488,0., 0.,30.48780403592488,0.0,0.0)">
      <path style=" stroke-width:0.02;stroke:black;fill:none;" d="M0.218 0.718 L0.218 0.734 L0.0 0.734 L0.0 0.718 L0.031 0.703 C0.062 0.687 0.062 0.671 0.078 0.609 L0.156 0.14 C0.156 0.125 0.156 0.125 0.156 0.125 C0.156 0.125 0.156 0.109 0.14 0.109 C0.125 0.109 0.125 0.109 0.125 0.109 L0.0 0.14 L0.0 0.109 L0.025 0.109 C0.125 0.062 0.187 0.031 0.25 0.0 L0.281 0.0 L0.171 0.609 C0.171 0.625 0.171 0.64 0.171 0.656 C0.171 0.671 0.171 0.687 0.187 0.703 Z"/>
    </g>
    <text style=" stroke : none; font-size : 7.654321;" x="0.0" y="37.5" font-size="10">1</text>
  </g>
  <g transform="matrix(1.0,0., 0.,1.0,300.0,245.0)">
    <g transform="matrix(30.48780403592488,0., 0.,30.48780403592488,0.0,0.0)">
      <path style=" stroke-width:0.02;stroke:black;fill:none;" d="M0.453 0.265 L0.0 0.515 L0.0 0.421 L0.312 0.25 L0.0 0.093 L0.0 0.0 Z"/>
    </g>
    <text style=" stroke : none; font-size : 7.654321;" x="0.0" y="37.5" font-size="10">&gt;</text>
  </g>
  <g transform="matrix(1.0,0., 0.,1.0,340.0,245.0)">
    <g transform="matrix(30.48780403592488,0., 0.,30.48780403592488,0.0,0.0)">
      <path style=" stroke-width:0.02;stroke:black;fill:none;" d="M0.171 0.359 C0.156 0.375 0.156 0.39 0.156 0.406 C0.156 0.421 0.156 0.437 0.156 0.437 C0.171 0.453 0.187 0.453 0.234 0.453 L0.328 0.453 C0.375 0.453 0.39 0.453 0.406 0.468 C0.453 0.468 0.484 0.515 0.484 0.562 C0.484 0.671 0.359 0.75 0.203 0.75 C0.062 0.75 0.0 0.718 0.0 0.64 C0.0 0.578 0.031 0.546 0.109 0.515 C0.093 0.5 0.078 0.484 0.078 0.453 C0.078 0.421 0.109 0.375 0.156 0.343 C0.062 0.328 0.031 0.265 0.031 0.187 C0.031 0.062 0.109 0.0 0.218 0.0 C0.265 0.0 0.296 0.0 0.328 0.025 L0.5 0.0 L0.5 0.078 L0.359 0.062 C0.39 0.093 0.406 0.125 0.406 0.187 C0.406 0.281 0.328 0.359 0.218 0.359 C0.203 0.359 0.187 0.359 0.171 0.359 ZM0.125 0.171 C0.125 0.265 0.156 0.312 0.218 0.312 C0.281 0.312 0.312 0.265 0.312 0.187 C0.312 0.093 0.281 0.046 0.218 0.046 C0.156 0.046 0.125 0.093 0.125 0.171 ZM0.125 0.531 C0.093 0.562 0.078 0.578 0.078 0.609 C0.078 0.671 0.125 0.703 0.218 0.703 C0.328 0.703 0.39 0.656 0.39 0.593 C0.39 0.546 0.375 0.531 0.328 0.531 Z"/>
    </g>
    <text style=" stroke : none; font-size : 7.654321;" x="0.0" y="37.5" font-size="10">g</text>
  </g>
  <g transform="matrix(1.0,0., 0.,1.0,380.0,245.0)">
    <g transform="matrix(30.48780403592488,0., 0.,30.48780403592488,0.0,0.0)">
      <path style=" stroke-width:0.02;stroke:black;fill:none;" d="M0.296 0.062 C0.296 0.093 0.265 0.125 0.234 0.125 C0.203 0.125 0.171 0.093 0.171 0.062 C0.171 0.031 0.203 0.0 0.234 0.0 C0.265 0.0 0.296 0.031 0.296 0.062 ZM0.281 0.734 C0.281 0.843 0.281 0.875 0.25 0.921 C0.218 0.968 0.156 0.984 0.078 0.984 C0.025 0.984 0.0 0.968 0.0 0.937 C0.0 0.906 0.025 0.89 0.046 0.89 C0.062 0.89 0.078 0.89 0.078 0.906 L0.093 0.921 C0.109 0.937 0.125 0.937 0.125 0.937 C0.156 0.937 0.171 0.921 0.171 0.89 C0.187 0.875 0.187 0.859 0.187 0.812 L0.187 0.39 C0.187 0.328 0.171 0.312 0.156 0.296 L0.125 0.296 L0.125 0.265 L0.281 0.234 Z"/>
    </g>
    <text style=" stroke : none; font-size : 7.654321;" x="0.0" y="37.5" font-size="10">j</text>
  </g>
  <g transform="matrix(1.0,0., 0.,1.0,420.0,245.0)">
    <g transform="matrix(30.48780403592488,0., 0.,30.48780403592488,0.0,0.0)">
      <path style=" stroke-width:0.02;stroke:black;fill:none;" d="M0.578 0.734 L0.421 0.734 C0.39 0.671 0.312 0.562 0.234 0.39 L0.234 0.375 L0.156 0.375 L0.156 0.609 C0.156 0.671 0.171 0.687 0.187 0.703 L0.218 0.718 L0.218 0.734 L0.0 0.734 L0.0 0.718 L0.031 0.703 C0.046 0.687 0.062 0.671 0.062 0.609 L0.062 0.125 C0.062 0.062 0.046 0.046 0.031 0.031 L0.0 0.025 L0.0 0.0 L0.25 0.0 C0.328 0.0 0.343 0.0 0.375 0.0 C0.453 0.031 0.5 0.078 0.5 0.171 C0.5 0.265 0.437 0.343 0.328 0.359 L0.328 0.359 C0.375 0.453 0.437 0.562 0.468 0.609 C0.5 0.656 0.515 0.671 0.546 0.687 L0.578 0.718 ZM0.39 0.171 C0.39 0.125 0.375 0.093 0.343 0.078 C0.312 0.062 0.281 0.046 0.234 0.046 C0.203 0.046 0.171 0.046 0.156 0.062 L0.156 0.328 L0.234 0.328 C0.343 0.328 0.39 0.281 0.39 0.171 Z"/>
    </g>
    <text style=" stroke : none; font-size : 7.654321;" x="0.0" y="37.5" font-size="10">R</text>
  </g>
  <g transform="matrix(1.0,0., 0.,1.0,460.0,245.0)">
    <g transform="matrix(30.48780403592488,0., 0.,30.48780403592488,0.0,0.0)">
      <path style=" stroke-width:0.02;stroke:black;fill:none;" d="M0.468 0.484 C0.468 0.656 0.359 0.75 0.187 0.75 C0.062 0.75 0.0 0.718 0.0 0.671 C0.0 0.64 0.031 0.625 0.062 0.625 C0.078 0.625 0.093 0.625 0.093 0.625 L0.109 0.656 C0.14 0.687 0.156 0.687 0.187 0.687 C0.296 0.687 0.359 0.625 0.359 0.5 C0.359 0.375 0.296 0.328 0.187 0.328 C0.14 0.328 0.093 0.328 0.031 0.343 L0.078 0.0 L0.421 0.0 L0.421 0.093 L0.14 0.093 L0.109 0.281 L0.109 0.281 C0.156 0.265 0.187 0.265 0.234 0.265 C0.375 0.265 0.468 0.343 0.468 0.484 Z"/>
    </g>
    <text style=" stroke : none; font-size : 7.654321;" x="0.0" y="37.5" font-size="10">5</text>
  </g>
  <g transform="matrix(1.0,0., 0.,1.0,500.0,245.0)">
    <g transform="matrix(30.48780403592488,0., 0.,30.48780403592488,0.0,0.0)">
      <path style=" stroke-width:0.02;stroke:black;fill:none;" d="M0.312 0.156 C0.312 0.25 0.25 0.312 0.156 0.312 C0.062 0.312 0.0 0.25 0.0 0.156 C0.0 0.062 0.062 0.0 0.156 0.0 C0.25 0.0 0.312 0.062 0.312 0.156 ZM0.562 0.609 C0.562 0.687 0.5 0.765 0.406 0.765 C0.312 0.765 0.25 0.703 0.25 0.609 C0.25 0.515 0.312 0.453 0.406 0.453 C0.5 0.453 0.562 0.515 0.562 0.609 ZM0.25 0.156 C0.25 0.093 0.218 0.046 0.156 0.046 C0.093 0.046 0.062 0.093 0.062 0.156 C0.062 0.218 0.093 0.265 0.156 0.265 C0.203 0.265 0.25 0.218 0.25 0.156 ZM0.5 0.609 C0.5 0.546 0.453 0.5 0.406 0.5 C0.343 0.5 0.312 0.546 0.312 0.609 C0.312 0.671 0.343 0.703 0.406 0.703 C0.453 0.703 0.5 0.671 0.5 0.609 ZM0.562 0.025 L0.062 0.75 L0.0 0.75 L0.5 0.025 Z"/>
    </g>
    <text style=" stroke : none; font-size : 7.654321;" x="0.0" y="37.5" font-size="10">%</text>
  </g>
  <g transform="matrix(1.0,0., 0.,1.0,20.0,320.0)">
    <g transform="matrix(30.48780403592488,0., 0.,30.48780403592488,0.0,0.0)">
      <path style=" stroke-width:0.02;stroke:black;fill:none;" d="M0.0 0.734 L0.0 0.703 L0.031 0.703 C0.046 0.687 0.046 0.671 0.046 0.609 L0.046 0.125 C0.046 0.062 0.046 0.046 0.031 0.031 L0.0 0.025 L0.0 0.0 L0.515 0.0 L0.515 0.171 L0.468 0.171 L0.421 0.109 C0.421 0.093 0.406 0.093 0.406 0.078 C0.375 0.078 0.375 0.078 0.328 0.078 L0.234 0.078 L0.234 0.328 L0.296 0.328 C0.343 0.328 0.359 0.312 0.375 0.296 L0.421 0.265 L0.453 0.265 L0.453 0.453 L0.421 0.453 L0.375 0.421 C0.359 0.406 0.343 0.39 0.296 0.39 L0.234 0.39 L0.234 0.593 C0.234 0.656 0.234 0.671 0.25 0.687 L0.296 0.703 L0.296 0.734 Z"/>
    </g>
    <text style=" stroke : none; font-size : 7.654321;" x="0.0" y="37.5" font-size="10">F</text>
  </g>
  <g transform="matrix(1.0,0., 0.,1.0,60.0,320.0)">
    <g transform="matrix(30.48780403592488,0., 0.,30.48780403592488,0.0,0.0)">
      <path style=" stroke-width:0.02;stroke:black;fill:none;" d="M0.093 0.0 C0.156 0.0 0.187 0.025 0.187 0.078 C0.187 0.125 0.156 0.156 0.093 0.156 C0.031 0.156 0.0 0.125 0.0 0.078 C0.0 0.025 0.031 0.0 0.093 0.0 Z"/>
    </g>
    <text style=" stroke : none; font-size : 7.654321;" x="0.0" y="37.5" font-size="10">.</text>
  </g>
  <g transform="matrix(1.0,0., 0.,1.0,100.0,320.0)">
    <g transform="matrix(30.48780403592488,0., 0.,30.48780403592488,0.0,0.0)">
      <path style=" stroke-width:0.02;stroke:black;fill:none;" d="M0.359 0.046 C0.359 0.078 0.343 0.093 0.296 0.093 C0.296 0.093 0.281 0.093 0.281 0.093 L0.25 0.062 C0.25 0.046 0.234 0.046 0.218 0.046 C0.203 0.046 0.187 0.046 0.187 0.062 C0.156 0.078 0.156 0.093 0.156 0.187 L0.156 0.234 L0.265 0.234 L0.265 0.296 L0.156 0.296 L0.156 0.656 C0.156 0.718 0.156 0.734 0.187 0.75 L0.218 0.765 L0.218 0.781 L0.0 0.781 L0.0 0.765 L0.031 0.75 C0.046 0.734 0.062 0.718 0.062 0.656 L0.062 0.296 L0.0 0.296 L0.0 0.234 L0.062 0.234 L0.062 0.218 C0.062 0.14 0.062 0.109 0.078 0.078 C0.109 0.025 0.171 0.0 0.265 0.0 C0.328 0.0 0.359 0.025 0.359 0.046 Z"/>
    </g>
    <text style=" stroke : none; font-size : 7.654321;" x="0.0" y="37.5" font-size="10">f</text>
  </g>
  <g transform="matrix(1.0,0., 0.,1.0,140.0,320.0)">
    <g transform="matrix(30.48780403592488,0., 0.,30.48780403592488,0.0,0.0)">
      <path style=" stroke-width:0.02;stroke:black;fill:none;" d="M0.515 0.515 L0.375 0.562 L0.375 0.484 C0.328 0.531 0.265 0.562 0.203 0.562 C0.156 0.562 0.125 0.546 0.093 0.515 C0.078 0.5 0.062 0.484 0.062 0.453 C0.046 0.421 0.046 0.421 0.046 0.328 L0.046 0.156 C0.046 0.093 0.046 0.078 0.025 0.062 L0.0 0.062 L0.0 0.031 L0.14 0.0 L0.14 0.312 C0.14 0.39 0.14 0.406 0.156 0.421 C0.171 0.468 0.203 0.484 0.265 0.484 C0.296 0.484 0.343 0.484 0.359 0.468 L0.375 0.468 L0.375 0.156 C0.375 0.093 0.359 0.078 0.343 0.062 L0.312 0.062 L0.312 0.031 L0.468 0.0 L0.468 0.406 C0.468 0.468 0.468 0.484 0.5 0.484 L0.515 0.5 Z"/>
    </g>
    <text style=" stroke : none; font-size : 7.654321;" x="0.0" y="37.5" font-size="10">u</text>
  </g>
  <g transform="matrix(1.0,0., 0.,1.0,180.0,320.0)">
    <g transform="matrix(30.48780403592488,0., 0.,30.48780403592488,0.0,0.0)">
      <path style=" stroke-width:0.02;stroke:black;fill:none;" d="M0.718 0.025 L0.687 0.031 C0.656 0.046 0.656 0.062 0.64 0.125 L0.578 0.609 C0.578 0.64 0.578 0.656 0.578 0.656 C0.578 0.671 0.578 0.687 0.593 0.703 L0.609 0.718 L0.609 0.734 L0.406 0.734 L0.406 0.718 L0.437 0.703 C0.468 0.671 0.468 0.671 0.484 0.609 L0.515 0.375 L0.187 0.375 L0.156 0.609 C0.156 0.64 0.156 0.656 0.156 0.656 C0.156 0.671 0.156 0.687 0.171 0.703 L0.203 0.718 L0.187 0.734 L0.0 0.734 L0.0 0.718 L0.031 0.703 C0.046 0.687 0.046 0.671 0.062 0.609 L0.14 0.125 C0.14 0.093 0.14 0.078 0.14 0.078 C0.14 0.062 0.14 0.046 0.125 0.031 L0.093 0.025 L0.109 0.0 L0.296 0.0 L0.296 0.025 L0.265 0.031 C0.25 0.046 0.25 0.062 0.234 0.125 L0.203 0.328 L0.515 0.328 L0.546 0.125 C0.546 0.093 0.562 0.078 0.562 0.078 C0.562 0.062 0.546 0.046 0.546 0.031 L0.515 0.025 L0.515 0.0 L0.718 0.0 Z"/>
    </g>
    <text style=" stroke : none; font-size : 7.654321;" x="0.0" y="37.5" font-size="10">H</text>
  </g>
  <g transform="matrix(1.0,0., 0.,1.0,220.0,320.0)">
    <g transform="matrix(30.48780403592488,0., 0.,30.48780403592488,0.0,0.0)">
      <path style=" stroke-width:0.02;stroke:black;fill:none;" d="M0.5 0.156 L0.468 0.109 C0.453 0.109 0.453 0.093 0.437 0.093 C0.421 0.078 0.39 0.062 0.343 0.062 C0.187 0.062 0.109 0.171 0.109 0.375 C0.109 0.593 0.187 0.687 0.375 0.687 C0.437 0.687 0.484 0.671 0.531 0.656 L0.531 0.656 L0.531 0.687 C0.484 0.734 0.406 0.765 0.312 0.765 C0.109 0.765 0.0 0.625 0.0 0.39 C0.0 0.14 0.125 0.0 0.359 0.0 C0.421 0.0 0.468 0.025 0.531 0.031 L0.531 0.156 Z"/>
    </g>
    <text style=" stroke : none; font-size : 7.654321;" x="0.0" y="37.5" font-size="10">C</text>
  </g>
  <g transform="matrix(1.0,0., 0.,1.0,260.0,320.0)">
    <g transform="matrix(30.48780403592488,0., 0.,30.48780403592488,0.0,0.0)">
      <path style=" stroke-width:0.02;stroke:black;fill:none;" d="M0.093 0.703 L0.125 0.703 C0.156 0.687 0.156 0.671 0.156 0.609 L0.156 0.156 C0.156 0.14 0.156 0.14 0.14 0.14 C0.14 0.14 0.125 0.14 0.125 0.14 L0.0 0.171 L0.0 0.109 L0.0 0.109 C0.109 0.062 0.171 0.031 0.234 0.0 L0.343 0.0 L0.343 0.609 C0.343 0.671 0.343 0.687 0.375 0.703 L0.406 0.703 L0.406 0.734 L0.093 0.734 Z"/>
    </g>
    <text style=" stroke : none; font-size : 7.654321;" x="0.0" y="37.5" font-size="10">1</text>
  </g>
</svg>
