<?xml version="1.0" encoding="UTF-8"?>
<svg height="778.132" width="2646.516" xmlns="http://www.w3.org/2000/svg">
 <g id="page" xmlns:svgx="http://www.xml-cml.org/schema/svgx">
  <g begin="text">
   <text y="342.425" x="42.86,46.714,49.03,52.885,56.739,59.537,62.91,67.543,69.859,74.102,76.901,80.7944,83.055,87.873,92.691,95.489,99.538,104.069,107.924,109.96340000000001,112.31,116.359,121.371,126.1914,128.524,132.378,137.011,142.024,145.396,149.25,153.976,158.794,162.648,167.661,170.459,172.775,177.0392,179.378,181.695,185.549,189.598,194.41840000000002,196.783,199.581,204.21599999999998,206.478,211.398,213.806,218.05,222.9631,225.3,227.709,232.342,237.354,239.763,243.65640000000002,245.937,249.791,254.424,259.436,264.254,269.072,272.927,275.725,278.134,282.377,284.786,287.584" svgx:width="0.42,0.25,0.42,0.42,0.3,0.36,0.5,0.25,0.46,0.3,0.42,0.55,0.52,0.52,0.3,0.44,0.49,0.42,0.22,0.55,0.44,0.54,0.52,0.55,0.42,0.5,0.54,0.36,0.42,0.51,0.52,0.42,0.54,0.3,0.25,0.46,0.55,0.25,0.42,0.44,0.52,0.55,0.3,0.5,0.55,0.53,0.26,0.46,0.53,0.55,0.26,0.5,0.54,0.26,0.42,0.55,0.42,0.5,0.54,0.52,0.52,0.42,0.3,0.26,0.46,0.26,0.3,0.46" style="fill:rgb(0,0,0);font-family:AdvOT1ef757c0;font-size:9.27px;stroke:none;">electrolyte uptake, and consequently lead to high ionic conductivity</text>
   <text y="352.913" x="42.86,47.492,50.180299999999995,51.931,55.785,58.101,61.956,65.81,68.608,71.981,76.613,78.93,83.173,85.971,89.826,93.106,96.478,101.111,105.16,109.69,113.545,118.36540000000001,120.19,125.008,131.086,137.164,145.815,149.187,153.042,157.86,161.909,165.281,169.33,172.128,176.761,180.134,182.1734,183.969,190.242,195.162,197.571,201.425,206.3381,208.121,214.394,218.443,221.7802,223.599,226.295,230.344,234.588,239.22,244.038,247.411,251.46,256.092,258.409,262.3024,264.078,266.876,271.51099999999997,273.263,275.959,280.008,283.862,286.271,288.588" svgx:width="0.5,0.29,0.55,0.42,0.25,0.42,0.42,0.3,0.36,0.5,0.25,0.46,0.3,0.42,0.35,0.36,0.5,0.44,0.49,0.42,0.52,0.55,0.52,0.66,0.66,0.74,0.36,0.42,0.52,0.44,0.36,0.44,0.3,0.5,0.36,0.22,0.55,0.68,0.53,0.26,0.42,0.53,0.55,0.68,0.44,0.36,0.55,0.29,0.44,0.46,0.5,0.52,0.36,0.44,0.5,0.25,0.42,0.55,0.3,0.5,0.55,0.29,0.44,0.42,0.26,0.25,0.35" style="fill:rgb(0,0,0);font-family:AdvOT1ef757c0;font-size:9.27px;stroke:none;">of electrolyte-soaked FCCNseparator, which was favourable to facil-</text>
   <text y="363.402" x="42.86,45.269,48.067,52.116,54.914,58.8074,61.172,64.544,68.593,73.411,75.82,80.6404,83.112,85.521,90.154,95.166,97.575,101.4684,103.862,106.66,110.032,114.081,119.094,122.466,127.284,131.917,135.29,138.088,142.137,144.935,147.344,151.976" svgx:width="0.26,0.3,0.44,0.3,0.42,0.55,0.36,0.44,0.52,0.26,0.52,0.55,0.26,0.5,0.54,0.26,0.42,0.55,0.3,0.36,0.44,0.54,0.36,0.52,0.5,0.36,0.3,0.44,0.3,0.26,0.5,0.54" style="fill:rgb(0,0,0);font-family:AdvOT1ef757c0;font-size:9.27px;stroke:none;">itate rapid ionic transportation</text>
   <text y="360.0" x="157.039,159.802,162.564,163.822,166.584" svgx:width="0.48,0.48,0.22,0.48,0.48" style="fill:rgb(0,0,0);font-family:AdvOT1ef757c0;font-size:5.13px;stroke:none;">36,37</text>
   <text y="363.401" x="169.285" svgx:width="0.22" style="fill:rgb(0,0,0);font-family:AdvOT1ef757c0;font-size:9.27px;stroke:none;">.</text>
   <text y="374.286" x="52.101,58.497299999999996,61.399,64.771,68.626,73.444,77.493,80.865,84.914,87.712,92.345,95.6822,98.704,102.076,106.996,111.629,116.447,118.763,123.58340000000001,126.54,131.358,135.991,139.364,142.736,146.591,149.963,153.3002,156.304,160.548,165.18,169.813,174.6334,177.621,181.475,183.792,187.646,191.5,194.299,197.671,202.304,204.62,208.864,211.662,215.55540000000002,218.44,224.713,228.567,231.365,234.163,238.283,242.915,245.324,247.641,250.05,252.848,257.11220000000003,259.996,262.794,267.429,270.371,273.744,277.598,280.396,284.445,286.854" svgx:width="0.69,0.55,0.36,0.42,0.52,0.44,0.36,0.44,0.3,0.5,0.36,0.55,0.36,0.53,0.5,0.52,0.25,0.52,0.55,0.52,0.5,0.36,0.36,0.42,0.36,0.36,0.55,0.46,0.5,0.5,0.52,0.55,0.42,0.25,0.42,0.42,0.3,0.36,0.5,0.25,0.46,0.3,0.42,0.55,0.68,0.42,0.3,0.3,0.44,0.5,0.26,0.25,0.26,0.3,0.46,0.55,0.3,0.5,0.55,0.36,0.42,0.3,0.44,0.26,0.54" style="fill:rgb(0,0,0);font-family:AdvOT1ef757c0;font-size:9.27px;stroke:none;">A separator should possess good electrolyte wettability to retain</text>
   <text y="384.775" x="42.86,45.658,50.578,54.4714,59.414,63.269,65.585,69.439,73.294,76.092,79.464,84.097,86.413,90.657,93.455,97.3484,102.331,106.186,108.882,111.578,113.987,117.841,120.25,124.105,129.117,131.915,134.232,138.4962,143.548,148.366,153.184,156.556,158.965,163.978,168.2422,173.199,175.997,180.917,184.81040000000002,189.81,193.664,198.584,202.633,206.005,210.249,214.103,217.087,221.905,224.314,227.686,231.54,236.46,240.509,243.882,248.125,252.01839999999999,257.049,261.867,265.239,269.872,273.726,277.581,280.953" svgx:width="0.3,0.53,0.42,0.55,0.42,0.25,0.42,0.42,0.3,0.36,0.5,0.25,0.46,0.3,0.42,0.55,0.42,0.29,0.29,0.26,0.42,0.26,0.42,0.54,0.3,0.25,0.46,0.55,0.52,0.52,0.36,0.26,0.54,0.46,0.55,0.3,0.53,0.42,0.55,0.42,0.53,0.44,0.36,0.46,0.42,0.32,0.52,0.26,0.36,0.42,0.53,0.44,0.36,0.46,0.42,0.55,0.52,0.36,0.5,0.42,0.42,0.36,0.36" style="fill:rgb(0,0,0);font-family:AdvOT1ef757c0;font-size:9.27px;stroke:none;">the electrolyte efficiently during the charge/discharge process</text>
   <text y="381.316" x="284.372,287.134" svgx:width="0.48,0.48" style="fill:rgb(0,0,0);font-family:AdvOT1ef757c0;font-size:5.13px;stroke:none;">38</text>
   <text y="384.775" x="289.871" svgx:width="0.22" style="fill:rgb(0,0,0);font-family:AdvOT1ef757c0;font-size:9.27px;stroke:none;">.</text>
   <text y="395.263" x="42.861,48.939,53.571,58.584,61.382,65.431,69.285,72.066,75.629,79.678,84.691,88.934,91.251,95.1444,98.704,103.336,107.191,109.989,116.261,120.116,123.97,128.9758,132.55,135.348,140.268,144.16140000000001,147.686,151.059,154.913,159.731,163.78,167.153,171.202,174.0,178.633,182.005,185.3422,188.96,193.009,198.021,202.8414,206.421,208.737,211.146,215.872,220.69,223.099,227.9194,231.48,235.334,237.651,241.505,245.359,248.158,251.53,256.163,258.479,262.723,265.521,269.4144,272.98,276.158,280.6076,283.696" svgx:width="0.66,0.5,0.54,0.3,0.44,0.42,0.3,0.55,0.44,0.54,0.46,0.25,0.42,0.55,0.5,0.42,0.3,0.68,0.42,0.42,0.54,0.55,0.3,0.53,0.42,0.55,0.36,0.42,0.52,0.44,0.36,0.44,0.3,0.5,0.36,0.36,0.55,0.44,0.54,0.52,0.55,0.25,0.26,0.51,0.52,0.26,0.52,0.55,0.42,0.25,0.42,0.42,0.3,0.36,0.5,0.25,0.46,0.3,0.42,0.55,0.34,0.48,0.55,0.88" style="fill:rgb(0,0,0);font-family:AdvOT1ef757c0;font-size:9.27px;stroke:none;">Contact angle between the separators and liquid electrolyte (1 M</text>
   <text y="405.751" x="42.861,47.781,50.19,55.397" svgx:width="0.53,0.26,0.56,0.52" style="fill:rgb(0,0,0);font-family:AdvOT1ef757c0;font-size:9.27px;stroke:none;">LiPF</text>
   <text y="407.282" x="60.208" svgx:width="0.48" style="fill:rgb(0,0,0);font-family:AdvOT1ef757c0;font-size:6.18px;stroke:none;">6</text>
   <text y="405.751" x="66.728,69.136,74.14179999999999,77.272,82.479,88.557,91.541,98.295,106.495,112.573,115.72479999999999,118.942,125.215,129.069,132.442,136.3354,139.522,143.377,148.009,153.022,157.84,162.658,166.512,169.31,173.165,177.9854,181.192,183.99,188.625,191.737,195.591,200.511,204.56,207.933,211.982,215.836,218.723,222.577,225.95,228.359,232.213,236.1064,239.246,242.044,246.964,250.85739999999998,253.986,257.84,260.156,264.011,267.865,270.663,274.036,278.669,280.985,285.228,288.027" svgx:width="0.26,0.54,0.55,0.56,0.66,0.32,0.73,0.88,0.66,0.34,0.55,0.68,0.42,0.36,0.42,0.55,0.42,0.5,0.54,0.52,0.52,0.42,0.3,0.42,0.52,0.55,0.3,0.5,0.55,0.42,0.53,0.44,0.36,0.44,0.42,0.3,0.42,0.36,0.26,0.42,0.42,0.55,0.3,0.53,0.42,0.55,0.42,0.25,0.42,0.42,0.3,0.36,0.5,0.25,0.46,0.3,0.42" style="fill:rgb(0,0,0);font-family:AdvOT1ef757c0;font-size:9.27px;stroke:none;">in EC/DMC) were conducted to characterize the electrolyte</text>
   <text y="416.239" x="42.86,49.133,52.987,55.785,58.583,62.632,67.265,69.674,71.99,74.399,77.197,81.4612,84.133,88.766,91.4543,94.111,99.318,104.50919999999999,107.208,110.58,114.435,119.252,123.301,126.674,130.723,133.521,138.154,141.4912,144.229,148.278,153.29,158.1104,160.783,165.601,171.679,177.757,184.6168,187.315,190.688,194.542,199.36,203.409,206.782,210.831,213.629,218.262,221.634,223.6734,226.377,229.462,232.243,234.937,241.21,245.259,248.59619999999998,251.322,255.176,257.493,261.347,265.396,268.769,271.085,275.3492,278.025,282.843,285.251,288.624" svgx:width="0.68,0.42,0.3,0.3,0.44,0.5,0.26,0.25,0.26,0.3,0.46,0.55,0.5,0.29,0.55,0.56,0.56,0.55,0.36,0.42,0.52,0.44,0.36,0.44,0.3,0.5,0.36,0.55,0.44,0.54,0.52,0.55,0.52,0.66,0.66,0.74,0.55,0.36,0.42,0.52,0.44,0.36,0.44,0.3,0.5,0.36,0.22,0.55,0.33,0.3,0.55,0.68,0.44,0.36,0.55,0.42,0.25,0.42,0.44,0.36,0.25,0.46,0.55,0.52,0.26,0.36,0.35" style="fill:rgb(0,0,0);font-family:AdvOT1ef757c0;font-size:9.27px;stroke:none;">wettability of PP separator and FCCN separator. It was clearly dis-</text>
   <text y="426.728" x="42.86,47.678,49.994,54.043,58.287,62.141,66.9614,70.186,72.882,76.255,80.888,88.39670000000001,91.616,96.434,98.843,103.086,107.904,111.277,115.1704,118.319,122.7686,125.972,128.77,133.69,137.739,140.52,143.717,146.515,151.435,155.3284,158.513,162.368,167.0,172.013,174.811,178.86,182.714,185.495,188.731,192.78,197.793,202.036,204.352,208.24540000000002,211.409,216.042,218.7303,221.897,227.104,232.29520000000002,235.503,238.876,242.73,247.548,251.597,254.97,259.019,261.817,266.449,269.7862,273.091,276.269,280.707" svgx:width="0.52,0.25,0.44,0.46,0.42,0.52,0.55,0.29,0.36,0.5,0.81,0.55,0.52,0.26,0.46,0.52,0.36,0.42,0.55,0.48,0.55,0.3,0.53,0.44,0.3,0.55,0.3,0.53,0.42,0.55,0.42,0.5,0.54,0.3,0.44,0.42,0.3,0.55,0.44,0.54,0.46,0.25,0.42,0.55,0.5,0.29,0.55,0.56,0.56,0.55,0.36,0.42,0.52,0.44,0.36,0.44,0.3,0.5,0.36,0.55,0.34,0.48,0.48" style="fill:rgb(0,0,0);font-family:AdvOT1ef757c0;font-size:9.27px;stroke:none;">played from Figure 3 that the contact angle of PP separator (84</text>
   <text y="426.728" x="285.165" svgx:width="0.38" style="fill:rgb(0,0,0);font-family:AdvP44E6F4;font-size:9.27px;stroke:none;">u</text>
   <text y="426.728" x="288.737" svgx:width="0.34" style="fill:rgb(0,0,0);font-family:AdvOT1ef757c0;font-size:9.27px;stroke:none;">)</text>
   <text y="437.216" x="42.86,49.133,53.182,56.519200000000005,59.925,67.448,72.266,76.121,81.0341,84.417,89.337,91.746,95.989,100.909,104.763,108.1002,111.516,114.314,119.234,123.283,128.2888,131.642,134.44,139.36,143.409,146.19,149.557,154.19,156.8783,160.273,165.091,171.169,177.247,184.10680000000002,187.429,190.802,194.656,199.474,203.523,206.896,210.945,213.743,218.375,221.7122,225.187,228.365,232.803" svgx:width="0.68,0.44,0.36,0.55,0.81,0.52,0.42,0.53,0.55,0.53,0.26,0.46,0.53,0.42,0.36,0.55,0.3,0.53,0.44,0.54,0.55,0.3,0.53,0.44,0.3,0.55,0.5,0.29,0.55,0.52,0.66,0.66,0.74,0.55,0.36,0.42,0.52,0.44,0.36,0.44,0.3,0.5,0.36,0.55,0.34,0.48,0.48" style="fill:rgb(0,0,0);font-family:AdvOT1ef757c0;font-size:9.27px;stroke:none;">was much higher than that of FCCN separator (15</text>
   <text y="437.216" x="237.203" svgx:width="0.38" style="fill:rgb(0,0,0);font-family:AdvP44E6F4;font-size:9.27px;stroke:none;">u</text>
   <text y="437.216" x="240.774,243.952,245.9914,249.335,255.607,260.527,262.936,266.79,271.7031,275.13,278.984,283.617,288.63" svgx:width="0.34,0.22,0.55,0.68,0.53,0.26,0.42,0.53,0.55,0.42,0.5,0.54,0.35" style="fill:rgb(0,0,0);font-family:AdvOT1ef757c0;font-size:9.27px;stroke:none;">), which con-</text>
   <text y="447.704" x="42.86,45.556,47.965,51.338,58.861,62.716,67.5364,70.357,73.155,78.075,82.124,84.905,87.705,92.523,98.601,104.679,111.53880000000001,114.351,117.724,121.578,126.396,130.445,133.818,137.866,140.665,145.297,148.6342,151.542,155.396,159.733,164.652,167.061,171.694,174.103,176.901,180.756,185.5764,188.393,193.026,196.88,199.678,202.476,206.331,209.66819999999998,212.545,216.399,218.716,222.57,226.424,229.222,232.595,237.228,239.544,243.787,246.586,250.4794,253.308,259.58,263.435,266.233,269.031,273.08,277.712,280.121,282.438,284.847,287.645" svgx:width="0.29,0.26,0.36,0.81,0.42,0.52,0.55,0.3,0.53,0.44,0.3,0.55,0.52,0.66,0.66,0.74,0.55,0.36,0.42,0.52,0.44,0.36,0.44,0.3,0.5,0.36,0.55,0.42,0.47,0.53,0.26,0.5,0.26,0.3,0.42,0.52,0.55,0.5,0.42,0.3,0.3,0.42,0.36,0.55,0.42,0.25,0.42,0.42,0.3,0.36,0.5,0.25,0.46,0.3,0.42,0.55,0.68,0.42,0.3,0.3,0.44,0.5,0.26,0.25,0.26,0.3,0.46" style="fill:rgb(0,0,0);font-family:AdvOT1ef757c0;font-size:9.27px;stroke:none;">firmed that FCCN separator exhibited better electrolyte wettability</text>
   <text y="458.249" x="42.86,45.658,50.578,54.627,59.6328,62.136,67.343,72.5342,75.118,78.491,82.345,87.163,91.212,94.585,98.633,101.432,106.064" svgx:width="0.3,0.53,0.44,0.54,0.55,0.56,0.56,0.55,0.36,0.42,0.52,0.44,0.36,0.44,0.3,0.5,0.36" style="fill:rgb(0,0,0);font-family:AdvOT1ef757c0;font-size:9.27px;stroke:none;">than PP separator</text>
   <text y="454.79" x="109.474,112.237" svgx:width="0.48,0.48" style="fill:rgb(0,0,0);font-family:AdvOT1ef757c0;font-size:5.13px;stroke:none;">39</text>
   <text y="458.249" x="114.973,117.0124,119.509,125.197,130.117,134.0104,136.517,140.371,142.688,146.542,150.396,153.194,156.567,161.2,163.516,167.759,170.558,174.45139999999998,176.996,183.269,187.123,189.921,192.719,196.768,201.401,203.81,206.126,208.535,211.333,215.5972,218.099,221.471,225.52,228.318,232.21140000000003,234.71,239.342,242.0303,244.574,249.782,254.97320000000002,257.557,260.93,264.784,269.602,273.651,277.023,281.072,283.87,288.503" svgx:width="0.22,0.55,0.61,0.53,0.42,0.55,0.42,0.25,0.42,0.42,0.3,0.36,0.5,0.25,0.46,0.3,0.42,0.55,0.68,0.42,0.3,0.3,0.44,0.5,0.26,0.25,0.26,0.3,0.46,0.55,0.36,0.44,0.3,0.42,0.55,0.5,0.29,0.55,0.56,0.56,0.55,0.36,0.42,0.52,0.44,0.36,0.44,0.3,0.5,0.36" style="fill:rgb(0,0,0);font-family:AdvOT1ef757c0;font-size:9.27px;stroke:none;">. The electrolyte wettability rate of PP separator</text>
   <text y="468.737" x="42.86,46.909,51.922,56.742399999999996,59.188,64.006,70.084,76.162,83.02180000000001,85.437,88.81,92.664,97.482,101.531,104.904,108.953,111.751,116.383,119.72019999999999,122.232,128.504,132.359,135.731,139.62439999999998,142.074,146.123,148.439,151.812,156.447,158.912,162.766,167.01,171.059,173.375,178.193,182.242,185.04,188.895,193.71540000000002,196.159,200.792,205.0562,207.498,211.353,215.985,223.509,228.327,232.376,235.748,238.157,243.17,247.43419999999998,249.906,252.704,257.624,261.5174,263.909,267.764,270.08,273.934,277.789,280.587,283.959,288.592" svgx:width="0.44,0.54,0.52,0.55,0.52,0.66,0.66,0.74,0.55,0.36,0.42,0.52,0.44,0.36,0.44,0.3,0.5,0.36,0.55,0.68,0.42,0.36,0.42,0.55,0.44,0.25,0.36,0.5,0.55,0.42,0.46,0.44,0.25,0.52,0.44,0.3,0.42,0.52,0.55,0.5,0.46,0.55,0.42,0.5,0.81,0.52,0.44,0.36,0.26,0.54,0.46,0.55,0.3,0.53,0.42,0.55,0.42,0.25,0.42,0.42,0.3,0.36,0.5,0.35" style="fill:rgb(0,0,0);font-family:AdvOT1ef757c0;font-size:9.27px;stroke:none;">and FCCN separator were also evaluated by comparing the electro-</text>
   <text y="479.225" x="42.86,45.177,49.42,52.218,56.1114,58.622,61.031,68.554,76.077,79.932,83.304,86.677,89.18,93.812,98.825,102.105,107.025,110.879,113.288,117.531,122.451,125.232,127.845,132.477,135.1653,137.766,140.564,145.484,149.37740000000002,151.939,155.312,159.166,163.984,168.033,171.405,175.454,178.252,182.885,186.258,189.5952,192.249,195.427,200.245,202.654,206.897,211.715,215.088,218.9814,221.559,225.896,230.334,233.512,235.5514,238.17,245.017,249.65,253.893,256.302,260.935,265.753,269.126,271.442,275.685,277.7244,280.35,283.149,288.068" svgx:width="0.25,0.46,0.3,0.42,0.55,0.26,0.81,0.81,0.42,0.36,0.36,0.26,0.5,0.54,0.35,0.53,0.42,0.26,0.46,0.53,0.3,0.55,0.5,0.29,0.55,0.3,0.53,0.42,0.55,0.36,0.42,0.52,0.44,0.36,0.44,0.3,0.5,0.36,0.36,0.55,0.34,0.52,0.26,0.46,0.52,0.36,0.42,0.55,0.47,0.48,0.34,0.22,0.55,0.74,0.5,0.46,0.26,0.5,0.52,0.36,0.25,0.46,0.22,0.55,0.3,0.53,0.42" style="fill:rgb(0,0,0);font-family:AdvOT1ef757c0;font-size:9.27px;stroke:none;">lyte immersion-height of the separators (Figure S1). Obviously, the</text>
   <text y="489.714" x="42.86,45.269,52.793,60.316,64.171,67.543,70.916,73.325,77.957,82.97,86.25,91.17,95.024,97.433,101.677,106.596,109.37700000000001,113.614,118.247,120.9353,125.066,129.884,135.962,142.04,148.8998,153.072,156.445,160.299,165.117,169.166,172.539,176.587,179.386,184.018,187.3552,191.624,194.802,199.24,201.26,205.7096,208.802,212.656,220.18,223.33180000000002,227.511,233.783,237.832,241.1692,245.369,249.613,252.985,256.84,260.889,263.687,267.541,270.8782,275.133,277.931,282.851,286.9" svgx:width="0.26,0.81,0.81,0.42,0.36,0.36,0.26,0.5,0.54,0.35,0.53,0.42,0.26,0.46,0.53,0.3,0.55,0.5,0.29,0.55,0.52,0.66,0.66,0.74,0.55,0.36,0.42,0.52,0.44,0.36,0.44,0.3,0.5,0.36,0.55,0.34,0.48,0.22,0.48,0.55,0.42,0.81,0.34,0.55,0.68,0.44,0.36,0.55,0.46,0.36,0.42,0.44,0.3,0.42,0.36,0.55,0.3,0.53,0.44,0.54" style="fill:rgb(0,0,0);font-family:AdvOT1ef757c0;font-size:9.27px;stroke:none;">immersion-height of FCCN separator (2.9 cm) was greater than</text>
   <text y="500.202" x="42.86,45.659,50.578,54.627,57.408,59.415,64.047,66.7353,68.769,73.976,79.1672,81.185,84.557,88.411,93.229,97.278,100.651,104.7,107.498,112.131,115.4682,117.582,120.76,125.198,127.218,131.6676,134.76,138.615,146.138,149.316,151.3554,153.356,159.045,163.964,167.85739999999998,169.853,174.773,177.182,181.426,186.346,190.2,193.53719999999998,195.592,198.001,205.525,213.048,216.903,220.275,223.648,226.057,230.689,235.702,238.982,243.902,247.756,250.165,254.409,259.328,262.109,264.192,268.435,272.29,275.662,278.071,280.767,283.176,287.031" svgx:width="0.3,0.53,0.44,0.3,0.55,0.5,0.29,0.55,0.56,0.56,0.55,0.36,0.42,0.52,0.44,0.36,0.44,0.3,0.5,0.36,0.55,0.34,0.48,0.22,0.48,0.55,0.42,0.81,0.34,0.22,0.55,0.61,0.53,0.42,0.55,0.53,0.26,0.46,0.53,0.42,0.36,0.55,0.26,0.81,0.81,0.42,0.36,0.36,0.26,0.5,0.54,0.35,0.53,0.42,0.26,0.46,0.53,0.3,0.55,0.46,0.42,0.36,0.26,0.29,0.26,0.42,0.52" style="fill:rgb(0,0,0);font-family:AdvOT1ef757c0;font-size:9.27px;stroke:none;">that of PP separator (0.2 cm). The higher immersion-height verified</text>
   <text y="510.69" x="42.86,45.659,50.578,54.627,57.408,60.265,65.083,71.161,77.239,84.09880000000001,86.968,90.34,94.195,99.013,103.062,106.434,110.483,113.281,117.914,121.2512,124.159,130.431,134.48,137.81719999999999,140.713,148.237,152.869,156.242,160.1354,162.993,165.31,169.553,174.186,179.004,183.924,186.333,188.649,191.058,194.95139999999998,197.803,200.601,205.236,208.064,210.381,212.79,217.515,222.333,224.742,229.5624,232.442,236.297,238.613,242.467,246.322,249.12,252.493,257.125,259.442,263.685,266.483,270.338,272.3774,275.246,281.612,284.9492,287.832" svgx:width="0.3,0.53,0.44,0.3,0.55,0.52,0.66,0.66,0.74,0.55,0.36,0.42,0.52,0.44,0.36,0.44,0.3,0.5,0.36,0.55,0.68,0.44,0.36,0.55,0.81,0.5,0.36,0.42,0.55,0.25,0.46,0.5,0.52,0.53,0.26,0.25,0.26,0.42,0.55,0.3,0.5,0.55,0.25,0.26,0.51,0.52,0.26,0.52,0.55,0.42,0.25,0.42,0.42,0.3,0.36,0.5,0.25,0.46,0.3,0.42,0.22,0.55,0.69,0.36,0.55,0.44" style="fill:rgb(0,0,0);font-family:AdvOT1ef757c0;font-size:9.27px;stroke:none;">that FCCN separator was more lyophilic to liquid electrolyte. As a</text>
   <text y="521.179" x="42.86,50.384,54.238,57.036,61.956,66.589,71.4094,74.098,76.795,81.427,84.7642,87.478,92.204,97.022,101.071,106.083,108.881,111.29,114.088,118.137,120.935,123.344,127.588,131.4814,134.194,136.992,140.847,144.219,147.017,149.426,154.439,158.682,160.7214,163.391,166.189,171.109,175.00240000000002,177.621,181.475,183.791,187.646,191.5,194.298,197.671,202.303,204.62,208.863,211.661,215.5544,218.27,223.088,227.906,230.704,234.753,239.284,243.17739999999998,245.823,252.096,256.145,259.4822,262.208,264.525,266.933,270.306,273.104,276.959,281.7794,284.488,286.897" svgx:width="0.81,0.42,0.3,0.53,0.5,0.52,0.55,0.29,0.5,0.36,0.55,0.51,0.52,0.44,0.54,0.3,0.26,0.3,0.44,0.3,0.26,0.46,0.42,0.55,0.3,0.42,0.36,0.3,0.26,0.54,0.46,0.22,0.55,0.3,0.53,0.42,0.55,0.42,0.25,0.42,0.42,0.3,0.36,0.5,0.25,0.46,0.3,0.42,0.55,0.52,0.52,0.3,0.44,0.49,0.42,0.55,0.68,0.44,0.36,0.55,0.25,0.26,0.36,0.3,0.42,0.52,0.55,0.26,0.54" style="fill:rgb(0,0,0);font-family:AdvOT1ef757c0;font-size:9.27px;stroke:none;">method for quantitative testing, the electrolyte uptake was listed in</text>
   <text y="531.667" x="42.86,48.549,52.598,57.231,59.547,63.4404,65.482,69.92,71.9594,74.043,79.732,84.652,88.5454,90.597,94.451,96.768,100.622,104.477,107.275,110.647,115.28,117.596,121.84,124.638,128.53140000000002,130.623,135.441,140.259,143.057,147.106,151.637,155.5304,157.553,162.185,164.8733,167.021,171.839,177.917,183.995,190.8548,192.93,196.302,200.157,204.974,209.023,212.396,216.445,219.243,223.876,227.2132,229.384,235.657,239.705,243.0422,245.145,249.583,254.021,258.459,265.408,267.4474,269.523,275.796,280.716,283.125,286.979" svgx:width="0.61,0.44,0.5,0.25,0.42,0.55,0.48,0.22,0.55,0.61,0.53,0.42,0.55,0.42,0.25,0.42,0.42,0.3,0.36,0.5,0.25,0.46,0.3,0.42,0.55,0.52,0.52,0.3,0.44,0.49,0.42,0.55,0.5,0.29,0.55,0.52,0.66,0.66,0.74,0.55,0.36,0.42,0.52,0.44,0.36,0.44,0.3,0.5,0.36,0.55,0.68,0.44,0.36,0.55,0.48,0.48,0.48,0.75,0.22,0.55,0.68,0.53,0.26,0.42,0.53" style="fill:rgb(0,0,0);font-family:AdvOT1ef757c0;font-size:9.27px;stroke:none;">Table 1. The electrolyte uptake of FCCN separator was 270%, which</text>
   <text y="542.212" x="42.86,49.133,53.182,56.519200000000005,58.564,63.484,65.893,70.137,75.056,78.911,82.2482,84.303,87.101,92.021,96.07,101.07579999999999,103.069,105.867,110.787,114.836,117.617,119.623,124.256,126.9443,128.978,134.185,139.3762,141.393,144.766,148.62,153.438,157.487,160.86,164.909,167.707,172.339,175.6762,177.734,180.912,185.35,189.788,194.226,201.175,204.353,206.3924,208.404,214.093,219.013,221.422,224.7592,226.773,230.146,234.0,241.523,245.572,248.945,253.476,257.524,262.157,264.473,268.3664,270.371,272.687,275.096,279.821,284.639,287.048" svgx:width="0.68,0.44,0.36,0.55,0.53,0.26,0.46,0.53,0.42,0.36,0.55,0.3,0.53,0.44,0.54,0.55,0.3,0.53,0.44,0.3,0.55,0.5,0.29,0.55,0.56,0.56,0.55,0.36,0.42,0.52,0.44,0.36,0.44,0.3,0.5,0.36,0.55,0.34,0.48,0.48,0.48,0.75,0.34,0.22,0.55,0.61,0.53,0.26,0.36,0.55,0.36,0.42,0.81,0.44,0.36,0.49,0.44,0.5,0.25,0.42,0.55,0.25,0.26,0.51,0.52,0.26,0.52" style="fill:rgb(0,0,0);font-family:AdvOT1ef757c0;font-size:9.27px;stroke:none;">was higher than that of PP separator (125%). This remarkable liquid</text>
   <text y="552.7" x="42.86,46.715,49.031,52.886,56.74,59.538,62.911,67.543,69.86,74.103,76.901,80.7944,84.474,90.746,94.601,97.399,100.197,104.246,108.878,111.287,113.604,116.013,118.811,123.07520000000001,126.767,131.4,134.0883,137.822,142.64,148.718,154.796,161.6558,165.319,168.692,172.546,177.364,181.413,184.785,188.834,191.632,196.265,199.60219999999998,203.417,210.94,214.989,219.2532,222.92,227.552,231.4454,235.109,239.158,242.53,246.385,249.757,252.166,256.799,260.653,265.4734,269.182,271.98,276.615,280.35,283.149,288.068" svgx:width="0.42,0.25,0.42,0.42,0.3,0.36,0.5,0.25,0.46,0.3,0.42,0.55,0.68,0.42,0.3,0.3,0.44,0.5,0.26,0.25,0.26,0.3,0.46,0.55,0.5,0.29,0.55,0.52,0.66,0.66,0.74,0.55,0.36,0.42,0.52,0.44,0.36,0.44,0.3,0.5,0.36,0.55,0.81,0.44,0.46,0.55,0.5,0.42,0.55,0.44,0.36,0.42,0.36,0.26,0.5,0.42,0.52,0.55,0.3,0.5,0.55,0.3,0.53,0.42" style="fill:rgb(0,0,0);font-family:AdvOT1ef757c0;font-size:9.27px;stroke:none;">electrolyte wettability of FCCN separator may be ascribed to the</text>
   <text y="563.188" x="42.86,49.133,52.987,55.304,57.621500000000005,59.755,62.164,67.176,69.974,73.829,77.201,81.056,85.688,90.701,95.713,99.568,103.422,106.22,110.075,114.89540000000001,117.072,124.595,127.004,130.859,134.231,138.864,143.682,148.314,151.687,156.32,161.138,164.4752,166.679,170.052,172.85,176.222,181.04,184.895,187.693,192.511,195.883,199.77640000000002,201.943,205.992,211.004,215.8244,217.987,220.785,225.705,229.59840000000003,231.65,234.059,239.072,241.87,245.242,247.651,252.664,256.037,258.445,262.3,266.349,268.665,270.981,275.2452,277.459,279.775,284.019,288.651" svgx:width="0.68,0.42,0.25,0.25,0.55,0.26,0.54,0.3,0.42,0.36,0.42,0.5,0.54,0.54,0.42,0.42,0.3,0.42,0.52,0.55,0.81,0.26,0.42,0.36,0.5,0.52,0.5,0.36,0.5,0.52,0.36,0.55,0.36,0.3,0.36,0.52,0.42,0.3,0.52,0.36,0.42,0.55,0.44,0.54,0.52,0.55,0.3,0.53,0.42,0.55,0.26,0.54,0.3,0.36,0.26,0.54,0.36,0.26,0.42,0.44,0.25,0.25,0.46,0.55,0.25,0.46,0.5,0.35" style="fill:rgb(0,0,0);font-family:AdvOT1ef757c0;font-size:9.27px;stroke:none;">well interconnected microporous structure and the intrinsically lyo-</text>
   <text y="573.677" x="42.86,47.678,52.598,55.007,57.324,59.733,63.6264,65.595,70.607,74.656,77.454,82.272,85.645,89.5384,91.503,96.136,98.8243,100.801,104.655,108.51,110.826,113.142,117.96,120.277,124.909,128.282,132.17540000000002,134.193,141.717,145.765,148.564,152.418,155.791,158.2,162.248,164.565,166.6044,168.606,174.295,179.215,184.033,187.406,189.4454,191.454,196.374,198.782,203.026,207.9391,209.936,214.754,219.387,222.759,227.392,230.764,233.173,235.972,240.215,242.2544,244.236,246.553,251.185,257.458,261.312,264.6492,266.687,273.247,278.065,281.437,283.754,287.608" svgx:width="0.52,0.53,0.26,0.25,0.26,0.42,0.55,0.54,0.44,0.3,0.52,0.36,0.42,0.55,0.5,0.29,0.55,0.42,0.42,0.25,0.25,0.52,0.25,0.5,0.36,0.42,0.55,0.81,0.44,0.3,0.42,0.36,0.26,0.44,0.25,0.22,0.55,0.61,0.53,0.52,0.36,0.22,0.55,0.53,0.26,0.46,0.53,0.55,0.52,0.5,0.36,0.5,0.36,0.26,0.3,0.46,0.22,0.55,0.25,0.5,0.68,0.42,0.36,0.55,0.71,0.52,0.36,0.25,0.42,0.46" style="fill:rgb(0,0,0);font-family:AdvOT1ef757c0;font-size:9.27px;stroke:none;">philic nature of cellulose material. Thus, high porosity, lower Gurley</text>
   <text y="584.165" x="42.86,47.104,51.153,53.469,58.287,62.142,64.1814,67.125,71.174,76.187,81.0074,83.963,87.336,92.154,96.972,100.826,104.199,106.608,111.24,114.57719999999999,117.639,121.493,123.81,127.664,131.518,134.316,137.689,142.322,144.638,148.881,151.68,155.5734,158.515,164.787,168.642,171.44,174.238,178.357,182.99,185.399,187.715,190.124,192.922,197.18619999999999,200.128,204.76,207.4483,210.389,215.207,221.285,227.363,234.2228,237.205,240.577,244.432,249.25,253.299,256.671,260.72,263.518,268.151,271.4882,274.51,280.782,284.637,288.009" svgx:width="0.46,0.44,0.25,0.52,0.42,0.22,0.55,0.44,0.54,0.52,0.55,0.36,0.52,0.52,0.42,0.36,0.26,0.5,0.36,0.55,0.42,0.25,0.42,0.42,0.3,0.36,0.5,0.25,0.46,0.3,0.42,0.55,0.68,0.42,0.3,0.3,0.44,0.5,0.26,0.25,0.26,0.3,0.46,0.55,0.5,0.29,0.55,0.52,0.66,0.66,0.74,0.55,0.36,0.42,0.52,0.44,0.36,0.44,0.3,0.5,0.36,0.55,0.68,0.42,0.36,0.42" style="fill:rgb(0,0,0);font-family:AdvOT1ef757c0;font-size:9.27px;stroke:none;">value, and superior electrolyte wettability of FCCN separator were</text>
   <text y="594.653" x="42.86,47.493,51.347,56.36,60.214,62.911,65.32,69.174,71.583,75.632,77.9495,82.206,85.004,89.63900000000001,93.884,96.293,103.817,108.635,112.007,116.64,120.884,124.7774,128.978,131.776,136.696,140.5894,144.795,148.168,152.217,155.015,158.90839999999997,163.107,166.962,171.011,175.829,179.878,184.51,186.919,189.236,191.645,194.443,198.7072,202.963,207.012,212.024,216.8444,221.104,224.959,229.202,233.057,235.373,237.782,242.795,247.05919999999998,251.266,254.638,257.437,261.485,266.118,268.527,270.843,273.252,276.051,280.3152,284.545,289.178" svgx:width="0.5,0.42,0.54,0.42,0.29,0.26,0.42,0.26,0.44,0.25,0.55,0.3,0.5,0.55,0.26,0.81,0.52,0.36,0.5,0.46,0.42,0.55,0.3,0.53,0.42,0.55,0.36,0.44,0.3,0.42,0.55,0.42,0.44,0.52,0.44,0.5,0.26,0.25,0.26,0.3,0.46,0.55,0.44,0.54,0.52,0.55,0.42,0.46,0.42,0.25,0.26,0.54,0.46,0.55,0.36,0.3,0.44,0.5,0.26,0.25,0.26,0.3,0.46,0.55,0.5,0.29" style="fill:rgb(0,0,0);font-family:AdvOT1ef757c0;font-size:9.27px;stroke:none;">beneficial to improve the rate capability and cycling stability of</text>
   <text y="605.142" x="42.86,47.78,50.866" svgx:width="0.53,0.33,0.58" style="fill:rgb(0,0,0);font-family:AdvOT1ef757c0;font-size:9.27px;stroke:none;">LIB</text>
   <text y="601.738" x="56.239,59.002" svgx:width="0.48,0.48" style="fill:rgb(0,0,0);font-family:AdvOT1ef757c0;font-size:5.13px;stroke:none;">16</text>
   <text y="605.14" x="61.739" svgx:width="0.22" style="fill:rgb(0,0,0);font-family:AdvOT1ef757c0;font-size:9.27px;stroke:none;">.</text>
   <text y="616.025" x="52.101,57.021,59.43,62.228,67.148,69.557,74.375,81.8837,86.004,88.412,93.045,98.0508,102.105,106.737,110.786,113.584,116.383,120.237,123.609,127.8732,131.925,135.298,139.152,143.97,148.019,151.392,155.44,158.239,162.871,166.2082,170.363,173.736,178.656,183.288,188.106,190.423,195.2434,199.334,203.967,207.86040000000003,211.863,215.718,220.73,225.363,230.181,234.424,239.33710000000002,243.441,250.965,254.819,258.674,263.593,267.642,272.655,275.064,278.918,282.967,285.284,287.6" svgx:width="0.53,0.26,0.3,0.53,0.26,0.52,0.81,0.55,0.26,0.5,0.54,0.55,0.5,0.44,0.3,0.3,0.42,0.36,0.46,0.55,0.36,0.42,0.52,0.44,0.36,0.44,0.3,0.5,0.36,0.55,0.36,0.53,0.5,0.52,0.25,0.52,0.55,0.5,0.42,0.55,0.42,0.54,0.5,0.52,0.46,0.53,0.55,0.81,0.42,0.42,0.53,0.44,0.54,0.26,0.42,0.44,0.25,0.25,0.46" style="fill:rgb(0,0,0);font-family:AdvOT1ef757c0;font-size:9.27px;stroke:none;">Lithium ion battery separator should be enough mechanically</text>
   <text y="626.513" x="42.86,46.232,50.865,55.497,60.315,63.688,66.46900000000001,68.826,71.624,76.259,78.576,84.849,87.258,90.056,94.976,98.349,101.147,105.196,110.208,115.0284,117.412,120.21,125.13,129.02339999999998,131.358,136.278,138.687,142.93,147.8431,150.181,152.979,156.833,161.846,165.218,167.627,172.26,177.26579999999998,179.661,183.71,186.406,189.204,193.058,196.3952,198.767,202.621,206.67,210.043,214.861,218.91,221.2275,223.599,227.453,232.086,234.402,236.718,239.127,242.5,244.909,249.542,254.554,257.8912,260.337,264.386,269.398,274.21840000000003,276.551,281.369,284.741,288.596" svgx:width="0.36,0.5,0.5,0.52,0.36,0.3,0.55,0.3,0.5,0.55,0.68,0.26,0.3,0.53,0.36,0.3,0.44,0.54,0.52,0.55,0.3,0.53,0.42,0.55,0.53,0.26,0.46,0.53,0.55,0.3,0.42,0.54,0.36,0.26,0.5,0.54,0.55,0.44,0.29,0.3,0.42,0.36,0.55,0.42,0.44,0.36,0.52,0.44,0.25,0.55,0.42,0.5,0.25,0.25,0.26,0.36,0.26,0.5,0.54,0.36,0.55,0.44,0.54,0.52,0.55,0.52,0.36,0.42,0.35" style="fill:rgb(0,0,0);font-family:AdvOT1ef757c0;font-size:9.27px;stroke:none;">robust to withstand the high tension after casual collisions and pre-</text>
   <text y="637.001" x="42.86,47.103,50.958,55.97,58.751,62.022,64.431,69.444,72.242,76.096,79.469,84.481,88.53,90.8475,94.167,97.54,102.46,107.092,110.465,113.263,116.543,120.397,122.806,126.179,130.033,134.851,137.26,140.058,143.3952,146.779,150.634,154.683,159.501,162.873,166.727,171.5474,174.843,179.476,183.7402,187.032,189.83,194.75,198.64339999999999,201.886,205.258,209.891,214.709,218.952,223.86509999999998,227.171,231.025,233.341,237.196,241.05,243.848,247.221,251.853,256.671,260.5644,263.794,267.167,271.985,275.358,278.054,282.103,285.957,289.811" svgx:width="0.46,0.42,0.54,0.3,0.55,0.26,0.54,0.3,0.42,0.36,0.54,0.44,0.25,0.55,0.36,0.53,0.5,0.36,0.3,0.35,0.42,0.26,0.36,0.42,0.52,0.26,0.3,0.36,0.55,0.42,0.44,0.52,0.36,0.42,0.52,0.55,0.5,0.46,0.55,0.3,0.53,0.42,0.55,0.36,0.5,0.52,0.46,0.53,0.55,0.42,0.25,0.42,0.42,0.3,0.36,0.5,0.52,0.42,0.55,0.36,0.52,0.36,0.29,0.44,0.42,0.42,0.22" style="fill:rgb(0,0,0);font-family:AdvOT1ef757c0;font-size:9.27px;stroke:none;">vent internal short-circuits caused by the rough electrode surface,</text>
   <text y="647.49" x="42.86,47.678,51.532,56.165,59.537,61.946,65.2832,67.521,71.57,76.583,81.4034,83.565,87.808,91.181,95.814,102.086,104.884,109.7971,111.969,116.601,119.2893,121.493,123.81,126.219,129.017,133.937,136.346,141.164,150.861,155.679,159.533,164.545,169.363,172.736,175.145,177.943" svgx:width="0.52,0.42,0.5,0.36,0.26,0.36,0.55,0.44,0.54,0.52,0.55,0.46,0.36,0.5,0.68,0.3,0.53,0.55,0.5,0.29,0.55,0.25,0.26,0.3,0.53,0.26,0.52,0.81,0.52,0.42,0.54,0.52,0.36,0.26,0.3,0.42" style="fill:rgb(0,0,0);font-family:AdvOT1ef757c0;font-size:9.27px;stroke:none;">debris and growth of lithiumdendrite</text>
   <text y="644.088" x="181.871,184.633,185.891,188.653" svgx:width="0.48,0.22,0.48,0.48" style="fill:rgb(0,0,0);font-family:AdvOT1ef757c0;font-size:5.13px;stroke:none;">1,19</text>
   <text y="647.49" x="191.339,193.3784,195.534,201.223,206.143,210.03640000000001,212.202,215.575,218.373,221.745,225.6,228.972,232.345,235.625,238.997,241.796,245.168,249.217,251.626,256.6318,258.861,262.716,267.534,270.906,275.15,279.004,282.3412,284.6,289.233" svgx:width="0.22,0.55,0.61,0.53,0.42,0.55,0.36,0.3,0.36,0.42,0.36,0.36,0.35,0.36,0.3,0.36,0.44,0.26,0.54,0.55,0.42,0.52,0.36,0.46,0.42,0.36,0.55,0.5,0.29" style="fill:rgb(0,0,0);font-family:AdvOT1ef757c0;font-size:9.27px;stroke:none;">. The stress-strain curves of</text>
   <text y="657.978" x="42.86,48.067,53.2582,56.24,59.613,63.467,68.285,72.334,75.707,79.756,82.554,87.186,90.559,92.5984,95.585,101.663,108.52279999999999,111.516,114.889,118.743,123.561,127.61,130.982,135.031,137.83,142.462,145.79919999999998,148.877,152.926,157.939,162.7594,165.715,170.533,176.611,182.689,189.5488,192.531,195.904,199.758,204.576,208.625,211.997,216.046,218.844,223.477,226.8142,229.892,236.165,240.019,243.392,247.28539999999998,250.245,255.063,258.918,263.736,266.145,269.999,272.797,276.652,281.4724,284.488,286.897" svgx:width="0.56,0.56,0.55,0.36,0.42,0.52,0.44,0.36,0.44,0.3,0.5,0.36,0.22,0.55,0.66,0.74,0.55,0.36,0.42,0.52,0.44,0.36,0.44,0.3,0.5,0.36,0.55,0.44,0.54,0.52,0.55,0.52,0.66,0.66,0.74,0.55,0.36,0.42,0.52,0.44,0.36,0.44,0.3,0.5,0.36,0.55,0.68,0.42,0.36,0.42,0.55,0.52,0.42,0.52,0.26,0.42,0.3,0.42,0.52,0.55,0.26,0.54" style="fill:rgb(0,0,0);font-family:AdvOT1ef757c0;font-size:9.27px;stroke:none;">PP separator, CN separator and FCCN separator were depicted in</text>
   <text y="668.466" x="42.86,47.678,50.087,54.331,59.149,62.521,66.4144,69.052,73.388,77.827,79.8664,82.489,85.574,88.355,91.05,97.323,101.371,104.70819999999999,107.377,111.232,113.548,117.402,121.451,124.824,127.22,131.4842,134.08,138.898,142.752,150.276,154.908,159.921,163.293,166.091,169.464,173.513,176.311,180.165,184.9854,187.712,190.51,195.43,199.479,202.26000000000002,204.947,209.765,215.843,221.921,228.7808,231.423,234.796,238.65,243.468,247.517,250.889,254.938,257.736,262.369,265.7062,268.444,272.299,276.635,281.555,283.964,288.596" svgx:width="0.52,0.26,0.46,0.52,0.36,0.42,0.55,0.47,0.48,0.22,0.55,0.33,0.3,0.55,0.68,0.44,0.36,0.55,0.42,0.25,0.42,0.44,0.36,0.25,0.46,0.55,0.52,0.42,0.81,0.5,0.54,0.36,0.3,0.36,0.44,0.3,0.42,0.52,0.55,0.3,0.53,0.44,0.3,0.55,0.52,0.66,0.66,0.74,0.55,0.36,0.42,0.52,0.44,0.36,0.44,0.3,0.5,0.36,0.55,0.42,0.47,0.53,0.26,0.5,0.35" style="fill:rgb(0,0,0);font-family:AdvOT1ef757c0;font-size:9.27px;stroke:none;">Figure S2. It was clearly demonstrated that FCCN separator exhib-</text>
   <text y="342.426" x="303.874,306.283,309.081,312.935,317.7554,321.392,325.441,330.4468,334.091,337.945,342.958,347.878,351.927,356.939,360.793,364.648,369.46840000000003,373.152,375.951,379.805,384.818,388.19,390.599,392.915,396.8084,400.479,403.851,406.649,410.022,413.876,418.889,423.132,425.93,430.8431,434.495,439.128,441.8163,445.494,449.932,454.3816,457.456,465.656,470.863,474.9418,478.546,482.595,487.608,492.4284,496.064,500.882,504.736,507.433,512.065,515.438,522.961,527.01,529.808,532.217,536.85,541.8558,545.557,550.19" svgx:width="0.26,0.3,0.42,0.52,0.55,0.44,0.54,0.55,0.42,0.54,0.53,0.44,0.54,0.42,0.42,0.52,0.55,0.3,0.42,0.54,0.36,0.26,0.25,0.42,0.55,0.36,0.3,0.36,0.42,0.54,0.46,0.3,0.53,0.55,0.5,0.29,0.55,0.48,0.48,0.55,0.88,0.56,0.44,0.55,0.44,0.54,0.52,0.55,0.52,0.42,0.29,0.5,0.36,0.81,0.44,0.3,0.26,0.5,0.54,0.55,0.5,0.29" style="fill:rgb(0,0,0);font-family:AdvOT1ef757c0;font-size:9.27px;stroke:none;">ited an enhanced tensile strength of 45 MPa and deformation of</text>
   <text y="352.914" x="303.874,308.312,310.332,314.77,321.719,323.7584,326.721,332.994,337.914,340.323,344.177,349.0901,352.064,358.336,362.385,365.7222,368.732,376.255,381.073,384.928,389.8411,392.826,397.746,400.155,404.399,409.319,413.173,416.5102,419.529,422.327,427.247,431.296,436.3018,439.258,442.057,446.976,451.025,453.806,456.776,461.409,464.0973,467.094,473.172,480.03180000000003,482.968,486.341,490.195,495.013,499.062,502.435,506.484,509.282,513.915,517.2522,520.273,523.451,527.889,532.3386,535.467,543.667,548.874" svgx:width="0.48,0.22,0.48,0.75,0.22,0.55,0.68,0.53,0.26,0.42,0.53,0.55,0.68,0.44,0.36,0.55,0.81,0.52,0.42,0.53,0.55,0.53,0.26,0.46,0.53,0.42,0.36,0.55,0.3,0.53,0.44,0.54,0.55,0.3,0.53,0.44,0.3,0.55,0.5,0.29,0.55,0.66,0.74,0.55,0.36,0.42,0.52,0.44,0.36,0.44,0.3,0.5,0.36,0.55,0.34,0.48,0.48,0.55,0.88,0.56,0.44" style="fill:rgb(0,0,0);font-family:AdvOT1ef757c0;font-size:9.27px;stroke:none;">6.5%, which was much higher than that of CN separator (22 MPa</text>
   <text y="363.459" x="303.874,310.147,312.555,315.354,320.26709999999997,322.469,327.287,331.142,333.838,338.471,341.843,349.367,353.415,356.214,358.623,363.255,368.2608,370.546,375.179,377.8673,380.127,384.565,386.585,391.023,397.972,401.15,403.1894,405.412,412.259,416.892,421.136,423.545,428.177,432.995,436.368,438.684,442.928,444.9674,447.196,449.994,454.914,458.8074,461.029,463.827,467.682,472.694,476.067,478.476,480.792,484.68539999999996,486.881,490.254,493.052,496.424,500.279,505.291,509.535,512.333,517.2461,519.537,524.169,526.8573,529.061,533.879,539.957,546.035" svgx:width="0.68,0.26,0.3,0.53,0.55,0.52,0.42,0.29,0.5,0.36,0.81,0.44,0.3,0.26,0.5,0.54,0.55,0.5,0.29,0.55,0.48,0.22,0.48,0.75,0.34,0.22,0.55,0.74,0.5,0.46,0.26,0.5,0.52,0.36,0.25,0.46,0.22,0.55,0.3,0.53,0.42,0.55,0.3,0.42,0.54,0.36,0.26,0.25,0.42,0.55,0.36,0.3,0.36,0.42,0.54,0.46,0.3,0.53,0.55,0.5,0.29,0.55,0.52,0.66,0.66,0.74" style="fill:rgb(0,0,0);font-family:AdvOT1ef757c0;font-size:9.27px;stroke:none;">with deformation of 3.5%). Obviously, the tensile strength of FCCN</text>
   <text y="373.947" x="303.874,307.246,311.101,315.919,319.968,323.34,327.389,330.187,334.82,338.1572,340.725,346.997,351.046,354.3832,356.996,364.519,369.337,373.191,378.10409999999996,380.637,385.27,389.124,391.922,394.72,398.575,401.9122,404.505,407.303,412.223,416.272,421.2778,423.781,426.579,431.499,435.3924,437.897,440.696,444.068,448.117,453.13,456.502,460.746,464.6,467.973,471.345,475.2384,477.81,481.182,483.98,487.353,491.207,496.22,500.463,503.261,508.1741,510.749,515.381,518.0693,520.557,525.764,530.9552,533.539,536.912,540.766,545.584,549.633" svgx:width="0.36,0.42,0.52,0.44,0.36,0.44,0.3,0.5,0.36,0.55,0.68,0.44,0.36,0.55,0.81,0.52,0.42,0.53,0.55,0.5,0.42,0.3,0.3,0.42,0.36,0.55,0.3,0.53,0.44,0.54,0.55,0.3,0.53,0.42,0.55,0.3,0.36,0.44,0.54,0.36,0.46,0.42,0.36,0.36,0.42,0.55,0.36,0.3,0.36,0.42,0.54,0.46,0.3,0.53,0.55,0.5,0.29,0.55,0.56,0.56,0.55,0.36,0.42,0.52,0.44,0.35" style="fill:rgb(0,0,0);font-family:AdvOT1ef757c0;font-size:9.27px;stroke:none;">separator was much better than the transverse strength of PP sepa-</text>
   <text y="384.492" x="303.874,307.246,311.295,314.094,318.726,322.0632,324.567,327.745,332.183,336.63259999999997,339.704,347.904,353.111,357.16,360.3118,362.835,366.884,371.896,376.7164,379.219,381.536,386.168,392.441,396.295,399.6322,402.123,404.921,409.841,413.89,418.8958,421.399,424.197,429.117,433.166,435.947,438.407,443.04,445.72830000000005,448.215,453.422,458.6132,461.085,464.457,468.312,473.13,477.179,480.551,484.6,487.398,492.031,495.3682,497.936,501.985,504.766,507.233,510.032,514.951,518.8444000000001,521.237,528.76,532.809,536.664,541.584,543.993,549.005" svgx:width="0.36,0.44,0.3,0.5,0.36,0.55,0.34,0.48,0.48,0.55,0.88,0.56,0.44,0.34,0.55,0.44,0.54,0.52,0.55,0.25,0.5,0.68,0.42,0.36,0.55,0.3,0.53,0.44,0.54,0.55,0.3,0.53,0.44,0.3,0.55,0.5,0.29,0.55,0.56,0.56,0.55,0.36,0.42,0.52,0.44,0.36,0.44,0.3,0.5,0.36,0.55,0.44,0.3,0.55,0.3,0.53,0.42,0.55,0.81,0.44,0.42,0.53,0.26,0.54,0.42" style="fill:rgb(0,0,0);font-family:AdvOT1ef757c0;font-size:9.27px;stroke:none;">rator (12 MPa) and lower than that of PP separator at the machine</text>
   <text y="394.98" x="303.874,308.692,311.101,314.473,318.328,322.182,324.98,327.389,332.022,337.0278,340.271,343.449,347.887,352.325,356.77459999999996,359.886,368.086,373.293,377.342" svgx:width="0.52,0.26,0.36,0.42,0.42,0.3,0.26,0.5,0.54,0.55,0.34,0.48,0.48,0.48,0.55,0.88,0.56,0.44,0.34" style="fill:rgb(0,0,0);font-family:AdvOT1ef757c0;font-size:9.27px;stroke:none;">direction (120 MPa)</text>
   <text y="391.578" x="380.523,383.285" svgx:width="0.48,0.48" style="fill:rgb(0,0,0);font-family:AdvOT1ef757c0;font-size:5.13px;stroke:none;">40</text>
   <text y="394.979" x="386.079,388.1184,391.294,396.501,401.69219999999996,404.958,408.33,412.184,417.002,421.051,424.424,428.473,431.271,435.904,439.2412,442.545,448.818,452.867,456.2042,459.497,464.315,467.687,471.542,476.36,480.409,483.781,487.636,492.45640000000003,495.724,499.968,502.377,506.4558,509.67,513.7488,516.927,521.745,526.757,529.166,533.215,537.552,539.961,544.009,546.326,548.642" svgx:width="0.22,0.55,0.56,0.56,0.55,0.36,0.42,0.52,0.44,0.36,0.44,0.3,0.5,0.36,0.55,0.68,0.44,0.36,0.55,0.52,0.36,0.42,0.52,0.44,0.36,0.42,0.52,0.55,0.46,0.26,0.44,0.55,0.44,0.55,0.52,0.54,0.26,0.44,0.47,0.26,0.44,0.25,0.25,0.46" style="fill:rgb(0,0,0);font-family:AdvOT1ef757c0;font-size:9.27px;stroke:none;">. PP separator was prepared via a uniaxially</text>
   <text y="405.524" x="303.874,307.247,310.045,313.417,317.272,320.07,323.924,328.844,331.253,336.266,340.53020000000004,344.184,346.982,350.836,354.691,359.61,364.623,369.256,371.572,376.205,380.448,384.692,386.7314,390.446,397.201,399.61,402.306,405.002,408.856,412.229,416.083,421.096,423.877,427.581,432.213,435.586,437.995,441.849,446.862,449.66,453.709,456.507,458.916,463.549,468.561,471.8982,475.657,479.706,482.487,486.146,490.389,494.244,497.616,500.414,502.823,506.678,510.727,513.0445,516.76,520.809,525.822,530.6424,534.278,539.198,543.83,547.203,549.612" svgx:width="0.36,0.3,0.36,0.42,0.3,0.42,0.53,0.26,0.54,0.46,0.55,0.3,0.42,0.42,0.53,0.54,0.5,0.25,0.5,0.46,0.46,0.22,0.55,0.73,0.26,0.29,0.29,0.42,0.36,0.42,0.54,0.3,0.55,0.5,0.36,0.26,0.42,0.54,0.3,0.44,0.3,0.26,0.5,0.54,0.36,0.55,0.44,0.3,0.55,0.46,0.42,0.36,0.3,0.26,0.42,0.44,0.25,0.55,0.44,0.54,0.52,0.55,0.53,0.5,0.36,0.26,0.35" style="fill:rgb(0,0,0);font-family:AdvOT1ef757c0;font-size:9.27px;stroke:none;">stretching technology. Different orientations at vertical and hori-</text>
   <text y="416.013" x="303.874,307.728,312.361,317.374,320.172,324.221,326.5385,330.633,335.451,337.86,341.233,345.087,348.941,351.74,354.149,358.781,363.794,367.1312,371.339,373.656,377.51,381.559,386.37940000000003,390.445,393.244,397.879,402.01,404.809,409.728,413.6214,417.658,422.476,424.885,427.581,430.277,434.131,437.504,441.358,446.371,449.152,453.318,456.116,459.97,464.983,468.355,470.764,473.081,476.9744,481.041,484.413,487.211,490.584,494.438,499.451,503.694,506.492,511.412,513.4513999999999,517.608,524.65,529.282,535.555,539.409,543.653,547.507,550.88" svgx:width="0.42,0.5,0.54,0.3,0.44,0.25,0.55,0.52,0.26,0.36,0.42,0.42,0.3,0.26,0.5,0.54,0.36,0.55,0.25,0.42,0.44,0.52,0.55,0.3,0.5,0.55,0.3,0.53,0.42,0.55,0.52,0.26,0.29,0.29,0.42,0.36,0.42,0.54,0.3,0.55,0.3,0.42,0.54,0.36,0.26,0.25,0.42,0.55,0.36,0.3,0.36,0.42,0.54,0.46,0.3,0.53,0.22,0.55,0.76,0.5,0.68,0.42,0.46,0.42,0.36,0.22" style="fill:rgb(0,0,0);font-family:AdvOT1ef757c0;font-size:9.27px;stroke:none;">zontal directions lead to the different tensile strength. However,</text>
   <text y="426.557" x="303.874,308.692,314.77,320.848,327.7078,329.783,333.155,337.01,341.828,345.876,349.249,353.298,356.096,360.729,364.0662,366.237,372.51,376.559,379.8962,381.998,384.694,388.743,393.376,396.749,399.158,403.012,407.061,409.859,413.713,418.53340000000003,420.663,425.296,429.5602,431.605,436.423,440.472,445.29,449.144,452.516,460.04,464.089,468.62,471.029,476.041,480.3052,482.459,487.277,490.65,495.282,499.137,502.991,506.364,509.736,511.7754,513.868,519.556,524.476,528.3694,530.422,535.24,537.649,541.021,543.819,547.192,549.601" svgx:width="0.52,0.66,0.66,0.74,0.55,0.36,0.42,0.52,0.44,0.36,0.44,0.3,0.5,0.36,0.55,0.68,0.44,0.36,0.55,0.29,0.44,0.5,0.36,0.26,0.42,0.44,0.3,0.42,0.52,0.55,0.5,0.46,0.55,0.52,0.44,0.52,0.42,0.36,0.81,0.44,0.49,0.26,0.54,0.46,0.55,0.52,0.36,0.5,0.42,0.42,0.36,0.36,0.22,0.55,0.61,0.53,0.42,0.55,0.52,0.26,0.36,0.3,0.36,0.26,0.35" style="fill:rgb(0,0,0);font-family:AdvOT1ef757c0;font-size:9.27px;stroke:none;">FCCN separator was fabricated by papermaking process. The distri-</text>
   <text y="437.046" x="303.874,308.507,313.325,316.123,318.532,323.164,328.1698,329.726,334.359,337.0473,338.627,342.482,346.336,348.652,350.969,355.787,358.103,362.736,366.108,370.0014,371.566,379.09,381.499,385.353,388.726,393.358,396.055,398.464,403.096,406.951,410.323,413.6602,415.334,417.743,422.7488,424.292,429.109,435.188,441.266,449.69,453.063,456.917,461.735,465.784,469.157,473.206,476.004,480.637,483.9742,485.634,491.907,495.956,499.2932,500.885,505.703,510.715,513.124,515.821,520.453,523.826,531.349,533.3884,534.958,537.756,542.676,547.494,550.867" svgx:width="0.5,0.52,0.3,0.26,0.5,0.54,0.55,0.5,0.29,0.55,0.42,0.42,0.25,0.25,0.52,0.25,0.5,0.36,0.42,0.55,0.81,0.26,0.42,0.36,0.5,0.29,0.26,0.5,0.42,0.36,0.36,0.55,0.26,0.54,0.55,0.52,0.66,0.66,0.74,0.36,0.42,0.52,0.44,0.36,0.44,0.3,0.5,0.36,0.55,0.68,0.44,0.36,0.55,0.52,0.54,0.26,0.29,0.5,0.36,0.81,0.22,0.55,0.3,0.53,0.52,0.36,0.22" style="fill:rgb(0,0,0);font-family:AdvOT1ef757c0;font-size:9.27px;stroke:none;">bution of cellulose microfibers in FCCNseparator was uniform, thus,</text>
   <text y="447.591" x="303.874,306.672,310.527,315.539,318.912,321.321,323.637,327.5304,329.613,332.986,335.784,339.156,343.011,348.023,352.267,355.065,359.9781,362.098,364.507,367.8442,369.978,373.351,377.4,384.923,388.8164,390.898,394.947,397.728,399.856,404.489,409.121,411.92,416.8331,418.962,423.206,427.06,430.433,433.231,435.64,439.494,443.543,445.8605,447.989,452.038,457.051,461.8714,463.977,468.897,473.529,476.902,479.311,483.165,487.798,492.81,495.608,499.657,501.9745,504.116,508.934,511.343,514.715,518.57,522.424,525.222,527.631,532.264,537.276,540.649,542.6884,544.822,547.907" svgx:width="0.3,0.42,0.54,0.36,0.26,0.25,0.42,0.55,0.36,0.3,0.36,0.42,0.54,0.46,0.3,0.53,0.55,0.26,0.36,0.55,0.36,0.44,0.81,0.42,0.55,0.44,0.3,0.55,0.5,0.5,0.3,0.53,0.55,0.46,0.42,0.36,0.3,0.26,0.42,0.44,0.25,0.55,0.44,0.54,0.52,0.55,0.53,0.5,0.36,0.26,0.42,0.5,0.54,0.3,0.44,0.25,0.55,0.52,0.26,0.36,0.42,0.42,0.3,0.26,0.5,0.54,0.36,0.22,0.55,0.33,0.54" style="fill:rgb(0,0,0);font-family:AdvOT1ef757c0;font-size:9.27px;stroke:none;">tensile strength is same at both vertical and horizontal directions. In</text>
   <text y="458.079" x="303.874,307.923,312.741,317.559,319.968,322.766,325.175,329.808,334.82,336.8594,340.952,344.325,348.957,353.775,356.184,361.002,368.5107,372.644,376.693,379.009,383.253,385.662,390.674,394.723,397.521,401.4144,405.526,409.575,414.588,419.40840000000003,423.498,426.871,429.28,431.596,434.005,437.86,441.9388,446.062,451.075,455.124,460.136,464.769,469.587,473.636,477.008,479.806,482.215,486.07,488.386,492.24,495.5772,499.751,506.023,509.878,513.25,517.1434,521.238,526.056,529.428,533.283,538.1034,542.215,544.911,549.543" svgx:width="0.44,0.52,0.52,0.26,0.3,0.26,0.5,0.54,0.22,0.55,0.36,0.5,0.52,0.26,0.52,0.81,0.55,0.44,0.25,0.46,0.26,0.54,0.44,0.3,0.42,0.55,0.44,0.54,0.52,0.55,0.36,0.26,0.25,0.26,0.42,0.44,0.55,0.54,0.44,0.54,0.5,0.52,0.44,0.36,0.3,0.26,0.42,0.25,0.42,0.36,0.55,0.68,0.42,0.36,0.42,0.55,0.52,0.36,0.42,0.52,0.55,0.29,0.5,0.36" style="fill:rgb(0,0,0);font-family:AdvOT1ef757c0;font-size:9.27px;stroke:none;">addition, sodium alginate and silica nanoparticles were used for</text>
   <text y="468.624" x="303.874,308.507,313.139,318.152,322.97,325.379,330.391,334.65520000000004,338.457,342.311,346.166,348.482,350.798,355.616,357.932,362.565,365.938,369.8314,373.664,376.36,378.769,383.402,387.256,390.629,392.6684,396.511,399.207,404.025,407.398,410.196,415.116,418.97,422.3072,426.219,430.073,435.086,440.005,444.054,449.067,452.921,455.33,460.343,464.60720000000003,468.455,471.254,476.173,480.0664,483.876,486.674,490.528,495.541,498.913,501.322,503.638,507.53139999999996,511.372,514.745,517.543,520.915,524.77,529.782,534.026,536.824,541.7370999999999,545.558,550.191" svgx:width="0.5,0.5,0.54,0.52,0.26,0.54,0.46,0.55,0.42,0.42,0.25,0.25,0.52,0.25,0.5,0.36,0.42,0.55,0.29,0.26,0.5,0.42,0.36,0.22,0.55,0.29,0.52,0.36,0.3,0.53,0.42,0.36,0.55,0.42,0.54,0.53,0.44,0.54,0.42,0.26,0.54,0.46,0.55,0.3,0.53,0.42,0.55,0.3,0.42,0.54,0.36,0.26,0.25,0.42,0.55,0.36,0.3,0.36,0.42,0.54,0.46,0.3,0.53,0.55,0.5,0.29" style="fill:rgb(0,0,0);font-family:AdvOT1ef757c0;font-size:9.27px;stroke:none;">bonding cellulose fiber, further enhancing the tensile strength of</text>
   <text y="479.112" x="303.874,308.692,314.77,320.848,327.7078,331.371,334.743,338.598,343.416,347.465,350.837,354.886,357.684,362.317,365.689,367.7284,371.397,375.733,380.366,382.4054,386.08,388.879,393.798,397.6914,401.331,404.129,407.984,412.996,416.369,418.778,421.094,424.9874,428.601,431.973,434.771,438.144,441.998,447.011,451.254,454.052,458.9651,462.674,467.306,469.9943,473.673,478.491,484.569,490.647,497.5068,501.169,504.542,508.396,513.214,517.263,520.636,524.685,527.483,532.115,535.4522000000001,539.211,545.483,549.532" svgx:width="0.52,0.66,0.66,0.74,0.55,0.36,0.42,0.52,0.44,0.36,0.44,0.3,0.5,0.36,0.22,0.55,0.47,0.5,0.22,0.55,0.3,0.53,0.42,0.55,0.3,0.42,0.54,0.36,0.26,0.25,0.42,0.55,0.36,0.3,0.36,0.42,0.54,0.46,0.3,0.53,0.55,0.5,0.29,0.55,0.52,0.66,0.66,0.74,0.55,0.36,0.42,0.52,0.44,0.36,0.44,0.3,0.5,0.36,0.55,0.68,0.44,0.36" style="fill:rgb(0,0,0);font-family:AdvOT1ef757c0;font-size:9.27px;stroke:none;">FCCN separator. So, the tensile strength of FCCN separator was</text>
   <text y="489.657" x="303.874,311.398,316.215,320.07,324.9831,327.515,332.148,336.002,338.801,341.599,345.453,348.79019999999997,351.326,354.124,359.044,363.093,368.09880000000004,370.658,373.457,378.376,382.26939999999996,384.719,387.517,390.889,394.938,399.951,403.323,407.567,411.421,414.794,418.166,422.0594,424.574,427.947,430.745,434.117,437.972,442.984,447.228,450.026,454.9391,457.513,462.146,464.83430000000004,467.321,472.529,477.7202,480.247,483.62,487.474,492.292,496.341,499.714,503.763,506.561,511.194,514.5312,517.098,520.276,524.714,529.1636000000001,532.292,540.492,545.699,549.748" svgx:width="0.81,0.52,0.42,0.53,0.55,0.5,0.42,0.3,0.3,0.42,0.36,0.55,0.3,0.53,0.44,0.54,0.55,0.3,0.53,0.42,0.55,0.3,0.36,0.44,0.54,0.36,0.46,0.42,0.36,0.36,0.42,0.55,0.36,0.3,0.36,0.42,0.54,0.46,0.3,0.53,0.55,0.5,0.29,0.55,0.56,0.56,0.55,0.36,0.42,0.52,0.44,0.36,0.44,0.3,0.5,0.36,0.55,0.34,0.48,0.48,0.55,0.88,0.56,0.44,0.34" style="fill:rgb(0,0,0);font-family:AdvOT1ef757c0;font-size:9.27px;stroke:none;">much better than the transverse strength of PP separator (12 MPa)</text>
   <text y="500.145" x="303.874,307.923,312.936,317.7564,322.526,324.842,329.475,335.748,339.602,342.93919999999997,347.811,350.609,355.529,359.578,364.5838,369.411,372.209,377.129,381.178,383.959,388.743,393.376,396.0643,400.875,406.082,411.2732,416.069,419.442,423.296,428.114,432.163,435.536,439.585,442.383,447.016,450.3532,455.245,459.294,462.075,466.867,469.666,474.585,478.47839999999997,483.252,490.776,494.825,498.679,503.599,506.008,511.02,514.9134,519.707,524.524,526.933,530.306,534.16,538.015,540.813,543.222,547.854" svgx:width="0.44,0.54,0.52,0.55,0.25,0.5,0.68,0.42,0.36,0.55,0.3,0.53,0.44,0.54,0.55,0.3,0.53,0.44,0.3,0.55,0.5,0.29,0.55,0.56,0.56,0.55,0.36,0.42,0.52,0.44,0.36,0.44,0.3,0.5,0.36,0.55,0.44,0.3,0.55,0.3,0.53,0.42,0.55,0.81,0.44,0.42,0.53,0.26,0.54,0.42,0.55,0.52,0.26,0.36,0.42,0.42,0.3,0.26,0.5,0.54" style="fill:rgb(0,0,0);font-family:AdvOT1ef757c0;font-size:9.27px;stroke:none;">and lower than that of PP separator at the machine direction</text>
   <text y="510.69" x="303.874,307.052,311.49,315.928,320.3776,323.433,331.633,336.84,340.889,344.067,346.1064,348.038,351.123,356.136,358.934,362.788,366.161,370.015,373.388,376.186,378.595,383.608,387.851,390.167,394.411,396.4504,398.439,403.257,409.335,415.413,424.178,427.55,431.404,436.222,440.271,443.644,447.693,450.491,455.124,458.4612,460.405,465.325,469.374,472.7112,474.692,478.7708,480.645,484.499,489.132,494.144,497.517,499.926,504.744,508.598,511.971,516.02,520.652,522.969,527.2332,529.175,534.095,536.504,540.747,545.667,549.521" svgx:width="0.34,0.48,0.48,0.48,0.55,0.88,0.56,0.44,0.34,0.22,0.55,0.33,0.54,0.3,0.42,0.36,0.42,0.36,0.3,0.26,0.54,0.46,0.25,0.46,0.22,0.55,0.52,0.66,0.66,0.74,0.36,0.42,0.52,0.44,0.36,0.44,0.3,0.5,0.36,0.55,0.53,0.44,0.36,0.55,0.44,0.55,0.42,0.5,0.54,0.36,0.26,0.52,0.42,0.36,0.44,0.5,0.25,0.46,0.55,0.53,0.26,0.46,0.53,0.42,0.36" style="fill:rgb(0,0,0);font-family:AdvOT1ef757c0;font-size:9.27px;stroke:none;">(120 MPa). Interestingly, FCCNseparator has a considerably higher</text>
   <text y="521.178" x="303.874,309.665,314.298,319.116,324.128,328.372,330.391,333.7282,340.214,347.738,352.371,357.189,362.006,364.323,369.141,372.4782,378.993,382.171,386.609,391.047,395.4966,398.608,406.808,412.015,416.064,419.2158,425.651,428.449,433.369,437.418,442.4238,448.895,451.693,456.613,460.662,463.443,469.928,474.56,477.24830000000003,483.704,486.503,491.422,495.3154,501.676,506.883,512.0742,518.571,521.943,525.798,530.615,534.664,538.037,542.086,544.884,549.517" svgx:width="0.63,0.5,0.52,0.54,0.46,0.22,0.36,0.55,0.81,0.5,0.52,0.52,0.25,0.52,0.36,0.55,0.34,0.48,0.48,0.48,0.55,0.88,0.56,0.44,0.34,0.55,0.3,0.53,0.44,0.54,0.55,0.3,0.53,0.44,0.3,0.55,0.5,0.29,0.55,0.3,0.53,0.42,0.55,0.56,0.56,0.55,0.36,0.42,0.52,0.44,0.36,0.44,0.3,0.5,0.36" style="fill:rgb(0,0,0);font-family:AdvOT1ef757c0;font-size:9.27px;stroke:none;">Youngs modulus (690 MPa) than that of the PP separator</text>
   <text y="531.723" x="303.874,307.052,311.49,315.928,320.3776,323.433,331.633,336.84,340.889,344.067,346.1064,347.755,354.796,357.205,361.449,366.3621,367.994,373.784,378.417,383.235,388.248,392.491,394.511,397.8482,399.572,407.095,411.728,416.546,421.364,423.68,428.498,431.8352,433.531,435.94,439.2772,440.901,444.95,449.768,454.012,458.061,463.073,465.871,469.92,474.164,478.018,482.651,487.469,490.8062,492.55,495.348,499.983,501.621,504.993,508.848,516.371,520.42,522.829,527.8348,529.457,536.981,540.835,544.689,549.609" svgx:width="0.34,0.48,0.48,0.48,0.55,0.88,0.56,0.44,0.34,0.22,0.55,0.76,0.26,0.46,0.53,0.55,0.63,0.5,0.52,0.54,0.46,0.22,0.36,0.55,0.81,0.5,0.52,0.52,0.25,0.52,0.36,0.55,0.26,0.36,0.55,0.44,0.52,0.46,0.44,0.54,0.3,0.44,0.46,0.42,0.5,0.52,0.36,0.55,0.3,0.5,0.55,0.36,0.42,0.81,0.44,0.26,0.54,0.55,0.81,0.42,0.42,0.53,0.35" style="fill:rgb(0,0,0);font-family:AdvOT1ef757c0;font-size:9.27px;stroke:none;">(260 MPa). High Youngs modulus is advantageous to remain mech-</text>
   <text y="542.211" x="303.874,307.923,312.936,315.345,319.199,323.248,325.5655,330.01,332.419,337.431,340.229,344.084,348.327,351.7,354.109,356.907,361.1712,365.557,369.606,374.618,379.4384,383.869,387.918,392.161,396.794,399.203,404.0234,408.474,411.272,416.192,420.0854,424.405,427.777,432.595,437.413,440.211,445.029,448.402,452.2954,456.72,461.353,464.04130000000004,468.456,471.254,476.173,480.0664,484.443,487.815,491.67,496.488,500.537,503.909,507.958,510.756,515.389,518.7262000000001,523.221,529.493,534.413,538.268,543.2738,547.713,550.122" svgx:width="0.44,0.54,0.26,0.42,0.44,0.25,0.55,0.26,0.54,0.3,0.42,0.46,0.36,0.26,0.3,0.46,0.55,0.44,0.54,0.52,0.55,0.44,0.46,0.5,0.26,0.52,0.55,0.3,0.53,0.42,0.55,0.36,0.52,0.52,0.3,0.52,0.36,0.42,0.55,0.5,0.29,0.55,0.3,0.53,0.42,0.55,0.36,0.42,0.52,0.44,0.36,0.44,0.3,0.5,0.36,0.55,0.68,0.53,0.42,0.54,0.55,0.26,0.3" style="fill:rgb(0,0,0);font-family:AdvOT1ef757c0;font-size:9.27px;stroke:none;">anical integrity and avoid the rupture of the separator when it</text>
   <text y="552.756" x="303.874,307.728,312.741,316.595,321.228,326.046,331.058,333.857,337.711,341.084,344.4212,346.905,350.954,354.808,358.663,361.072,365.89,369.744,374.756,377.537,380.014,383.869,387.241,391.29,394.663" svgx:width="0.42,0.54,0.42,0.5,0.52,0.54,0.3,0.42,0.36,0.36,0.55,0.44,0.42,0.42,0.26,0.52,0.42,0.54,0.3,0.55,0.42,0.36,0.44,0.36,0.53" style="fill:rgb(0,0,0);font-family:AdvOT1ef757c0;font-size:9.27px;stroke:none;">encounters accident crash</text>
   <text y="549.297" x="399.628,402.391" svgx:width="0.48,0.48" style="fill:rgb(0,0,0);font-family:AdvOT1ef757c0;font-size:5.13px;stroke:none;">29</text>
   <text y="552.756" x="405.127" svgx:width="0.22" style="fill:rgb(0,0,0);font-family:AdvOT1ef757c0;font-size:9.27px;stroke:none;">.</text>
   <text y="573.845" x="303.874,309.758,314.77,318.727,322.386,330.104,334.348,336.8509,338.854,343.098,348.305,352.549,355.05,359.294,362.768,365.464,368.9866,370.943,375.186,380.394,385.3998,387.384,390.368,392.869,397.113,404.831,408.81710000000004,410.799,414.458,418.415,421.5,425.743,429.403,434.416,438.659,443.866,447.721" svgx:width="0.63,0.54,0.43,0.4,0.83,0.46,0.27,0.55,0.46,0.56,0.46,0.27,0.46,0.38,0.29,0.38,0.55,0.46,0.56,0.54,0.55,0.32,0.27,0.46,0.83,0.43,0.55,0.4,0.43,0.33,0.46,0.4,0.54,0.46,0.56,0.42,0.46" style="fill:rgb(0,0,0);font-family:AdvOTb65e897d.B;font-size:9.27px;stroke:none;">Thermal analysis and flame retardancy</text>
   <text y="573.845" x="452.013" svgx:width="0.24" style="fill:rgb(0,0,0);font-family:AdvOT5e4d79fc;font-size:9.27px;stroke:none;">.</text>
   <text y="573.845" x="456.208,461.897,466.817,470.671,474.044,481.567,485.616,487.9335,489.941,493.314,496.112,500.161,504.793,507.202,509.519,511.928,514.726,518.9902,520.953,525.771,529.143,533.776,538.594,542.448,545.821,548.619" svgx:width="0.61,0.53,0.42,0.36,0.81,0.44,0.25,0.55,0.36,0.3,0.44,0.5,0.26,0.25,0.26,0.3,0.46,0.55,0.52,0.36,0.5,0.52,0.42,0.36,0.3,0.46" style="fill:rgb(0,0,0);font-family:AdvOT1ef757c0;font-size:9.27px;stroke:none;">Thermal stability property</text>
   <text y="584.39" x="303.874,308.507,311.19530000000003,318.104,321.477,325.331,330.149,334.198,337.57,341.619,344.418,349.05,352.423,355.7602,362.722,368.995,373.044,376.3812,383.359,387.408,392.42,397.053,399.851,404.771,408.625,411.9622,418.906,423.149,425.558,428.356,432.405,434.72249999999997,441.64,445.689,449.062,453.88,457.734,461.588,464.369,471.348,475.396,480.029,484.662,489.48,492.261,499.184,503.817,507.866,510.664,513.462,517.316,520.689,524.9531999999999,531.896,535.269,539.318,542.014,545.868,548.667" svgx:width="0.5,0.29,0.55,0.36,0.42,0.52,0.44,0.36,0.44,0.3,0.5,0.36,0.36,0.55,0.68,0.44,0.36,0.55,0.44,0.54,0.5,0.3,0.53,0.42,0.36,0.55,0.46,0.26,0.3,0.44,0.25,0.55,0.44,0.36,0.52,0.42,0.42,0.3,0.55,0.44,0.5,0.5,0.52,0.3,0.55,0.5,0.44,0.3,0.3,0.42,0.36,0.46,0.55,0.36,0.44,0.29,0.42,0.3,0.46" style="fill:rgb(0,0,0);font-family:AdvOT1ef757c0;font-size:9.27px;stroke:none;">of separators was another vital aspect about battery safety</text>
   <text y="594.879" x="303.874,307.729,312.649,316.698,320.07,324.119,327.973,330.772,334.626,337.999,340.407,343.78,346.578,348.987" svgx:width="0.42,0.53,0.44,0.36,0.44,0.42,0.3,0.42,0.36,0.26,0.36,0.3,0.26,0.42" style="fill:rgb(0,0,0);font-family:AdvOT1ef757c0;font-size:9.27px;stroke:none;">characteristic</text>
   <text y="591.477" x="352.913,355.676" svgx:width="0.48,0.48" style="fill:rgb(0,0,0);font-family:AdvOT1ef757c0;font-size:5.13px;stroke:none;">19</text>
   <text y="594.879" x="358.413,360.4524,363.004,369.37,373.224,377.078,381.711,385.084,389.902,392.311,397.323,401.5872,404.164,406.962,411.597,414.198,416.996,421.916,425.8094,428.315,435.069,439.405,445.5232,448.044,452.093,457.106,461.155,463.471,467.714,471.087,473.496,476.8332,479.509,482.882,487.801,492.434,498.707,503.7128,506.268,508.677,513.6828,516.302,521.12,523.529,527.773,532.591,535.963,539.8564,542.382,546.82,550.869" svgx:width="0.22,0.55,0.69,0.42,0.42,0.5,0.36,0.52,0.26,0.54,0.46,0.55,0.3,0.5,0.55,0.3,0.53,0.42,0.55,0.73,0.47,0.66,0.55,0.44,0.54,0.44,0.25,0.46,0.36,0.26,0.36,0.55,0.36,0.53,0.5,0.68,0.54,0.55,0.26,0.54,0.55,0.52,0.26,0.46,0.52,0.36,0.42,0.55,0.48,0.44,0.22" style="fill:rgb(0,0,0);font-family:AdvOT1ef757c0;font-size:9.27px;stroke:none;">. According to the DSC analysis shown in Figure 4a,</text>
   <text y="605.423" x="303.874,306.672,311.592,315.48539999999997,316.971,320.825,325.161,329.794,332.592,337.512,341.366,344.739,352.262,354.671,358.5644,360.171,364.989,368.843,372.892,377.4343,378.994,383.626,386.3143,387.837,392.655,397.288,399.604,403.848,408.666,412.038,416.671,421.489,425.732,428.049,431.903,436.916,440.8094,442.376,445.555,450.762,455.969,459.1208,460.745,467.018,471.067,474.4042,475.996,479.368,483.223,485.539,489.588,492.386,496.24,501.0604,502.642,505.44,510.075,511.599,514.398,519.317,523.2104,524.753,532.276,536.13,538.447,541.245,543.654,548.666" svgx:width="0.3,0.53,0.42,0.55,0.42,0.47,0.5,0.3,0.53,0.42,0.36,0.81,0.26,0.42,0.55,0.52,0.42,0.44,0.49,0.55,0.5,0.29,0.55,0.52,0.5,0.25,0.46,0.52,0.36,0.5,0.52,0.46,0.25,0.42,0.54,0.42,0.55,0.34,0.56,0.56,0.34,0.55,0.68,0.44,0.36,0.55,0.36,0.42,0.25,0.44,0.3,0.42,0.52,0.55,0.3,0.5,0.55,0.3,0.53,0.42,0.55,0.81,0.42,0.25,0.3,0.26,0.54,0.46" style="fill:rgb(0,0,0);font-family:AdvOT1ef757c0;font-size:9.27px;stroke:none;">the exothermic peak of polypropylene (PP) was related to the melting</text>
   <text y="615.912" x="303.874,306.672,310.527,318.05,322.868,326.722,330.095,334.144,336.942,341.76,345.133,349.02639999999997,352.744,357.377,360.06530000000004,363.743,366.541,371.461,375.3544,379.05,386.574,390.622,393.421,397.275,400.648,403.056,407.105,409.422,411.4614,415.164,420.853,425.773,429.6664,433.306,440.829,444.684,447.0,449.798,452.207,457.22,461.48420000000004,465.225,468.023,471.877,479.401,484.219,488.073,491.446,495.495,498.293,503.111,506.483,510.3764,514.095,518.727,521.4153,525.094,530.301,535.4922,539.21,545.483,549.532" svgx:width="0.3,0.42,0.81,0.52,0.42,0.36,0.44,0.3,0.52,0.36,0.42,0.55,0.5,0.29,0.55,0.3,0.53,0.42,0.55,0.81,0.44,0.3,0.42,0.36,0.26,0.44,0.25,0.22,0.55,0.61,0.53,0.42,0.55,0.81,0.42,0.25,0.3,0.26,0.54,0.46,0.55,0.3,0.42,0.81,0.52,0.42,0.36,0.44,0.3,0.52,0.36,0.42,0.55,0.5,0.29,0.55,0.56,0.56,0.55,0.68,0.44,0.36" style="fill:rgb(0,0,0);font-family:AdvOT1ef757c0;font-size:9.27px;stroke:none;">temperature of the material. The melting temperature of PP was</text>
   <text y="626.457" x="303.874,308.312,312.75" svgx:width="0.48,0.48,0.48" style="fill:rgb(0,0,0);font-family:AdvOT1ef757c0;font-size:9.27px;stroke:none;">165</text>
   <text y="626.457" x="317.197" svgx:width="0.38" style="fill:rgb(0,0,0);font-family:AdvP44E6F4;font-size:9.27px;stroke:none;">u</text>
   <text y="626.457" x="320.769,326.847,328.8864,333.071,339.344,344.263,348.118,351.49,355.345,359.394,362.7312,367.03,369.828,374.748,378.6414,382.791,387.609,393.687,399.765,406.6248,410.855,414.228,418.082,422.9,426.949,430.321,434.37,437.168,441.801,445.1382,449.407,454.225,458.858,462.23,465.603,469.457,472.83,476.202,480.057,484.8774,489.15,492.522,497.34,502.158,506.012,509.385,511.794,516.427,519.7642000000001,524.073,526.871,531.791,535.646,539.018,546.542,550.591" svgx:width="0.66,0.22,0.55,0.68,0.53,0.42,0.36,0.42,0.44,0.36,0.55,0.3,0.53,0.42,0.55,0.52,0.66,0.66,0.74,0.55,0.36,0.42,0.52,0.44,0.36,0.44,0.3,0.5,0.36,0.55,0.52,0.5,0.36,0.36,0.42,0.36,0.36,0.42,0.52,0.55,0.36,0.52,0.52,0.42,0.36,0.26,0.5,0.36,0.55,0.3,0.53,0.42,0.36,0.81,0.44,0.25" style="fill:rgb(0,0,0);font-family:AdvOT1ef757c0;font-size:9.27px;stroke:none;">C, whereas the FCCN separator possessed superior thermal</text>
   <text y="636.945" x="303.874,307.247,310.045,314.094,318.726,321.135,323.452,325.861,328.659,332.9232,335.679,340.497,345.3174,348.038,350.836,355.471,358.243,362.681,367.119" svgx:width="0.36,0.3,0.44,0.5,0.26,0.25,0.26,0.3,0.46,0.55,0.52,0.52,0.55,0.3,0.5,0.55,0.48,0.48,0.48" style="fill:rgb(0,0,0);font-family:AdvOT1ef757c0;font-size:9.27px;stroke:none;">stability up to 300</text>
   <text y="636.945" x="371.566" svgx:width="0.38" style="fill:rgb(0,0,0);font-family:AdvP44E6F4;font-size:9.27px;stroke:none;">u</text>
   <text y="636.945" x="375.137,381.215,383.2544,386.022,392.295,397.215,399.624,403.478,408.3911,411.138,415.187,419.43,422.803,426.657,430.511,435.33140000000003,438.124,444.396,448.251,450.567,452.8845,455.642,461.914,464.323,467.121,472.03409999999997,474.804,477.602,482.522,486.4154,489.148,492.52,496.375,501.193,505.825,509.198,511.996,515.85,520.6704,523.447,527.69,531.739,534.056,538.874,542.7674000000001,545.501,547.91" svgx:width="0.66,0.22,0.55,0.68,0.53,0.26,0.42,0.53,0.55,0.44,0.46,0.36,0.42,0.42,0.52,0.55,0.68,0.42,0.25,0.25,0.55,0.68,0.26,0.3,0.53,0.55,0.3,0.53,0.42,0.55,0.36,0.42,0.52,0.5,0.36,0.3,0.42,0.52,0.55,0.46,0.44,0.25,0.52,0.42,0.55,0.26,0.54" style="fill:rgb(0,0,0);font-family:AdvOT1ef757c0;font-size:9.27px;stroke:none;">C, which agreed well with the reported value in</text>
   <text y="647.433" x="303.874,308.692,312.065,315.919,320.163,322.572,327.204,332.022,335.3592,338.74,341.057,343.466,346.264,350.118,353.491,357.54,360.338,365.156,368.528" svgx:width="0.52,0.36,0.42,0.46,0.26,0.5,0.52,0.36,0.55,0.25,0.26,0.3,0.42,0.36,0.44,0.3,0.52,0.36,0.42" style="fill:rgb(0,0,0);font-family:AdvOT1ef757c0;font-size:9.27px;stroke:none;">previous literature</text>
   <text y="644.031" x="372.472,375.235" svgx:width="0.48,0.48" style="fill:rgb(0,0,0);font-family:AdvOT1ef757c0;font-size:5.13px;stroke:none;">41</text>
   <text y="647.433" x="377.972,380.0114,383.301,388.99,393.91,396.319,399.6562,403.087,405.496,413.019,417.837,420.154,422.563,426.417,431.2374,434.608,437.407,442.326,446.375,449.156,452.524,457.342,463.42,469.498,476.3578,479.68,483.053,486.907,491.725,495.774,499.147,503.196,505.994,510.627,513.9642,517.382,522.2,526.833,530.205,533.578,537.432,540.805,544.177,548.031" svgx:width="0.22,0.55,0.61,0.53,0.26,0.36,0.55,0.26,0.81,0.52,0.25,0.26,0.42,0.52,0.55,0.3,0.53,0.44,0.3,0.55,0.52,0.66,0.66,0.74,0.55,0.36,0.42,0.52,0.44,0.36,0.44,0.3,0.5,0.36,0.55,0.52,0.5,0.36,0.36,0.42,0.36,0.36,0.42,0.52" style="fill:rgb(0,0,0);font-family:AdvOT1ef757c0;font-size:9.27px;stroke:none;">. This implied that FCCN separator possessed</text>
   <text y="657.978" x="303.874,308.507,312.361,315.159,317.957,321.812,325.1492,328.763,331.561,336.481,340.335,343.708,351.231,355.28,357.59749999999997,361.248,364.62,367.418,371.467,376.1,378.509,380.825,383.234,386.032,390.2962,393.847,396.645,401.565,405.614,410.6198,414.256,419.463,424.6542,428.26,431.633,435.487,440.305,444.354,447.726,451.775,454.573,459.206,462.579,464.6184,468.229,473.918,478.837,481.246,484.5832,488.242,492.096,496.432,500.287,504.141,506.457,508.774,512.628,517.64,520.4209999999999,524.072,526.87,531.79,535.645,539.017,546.541,550.59" svgx:width="0.5,0.42,0.3,0.3,0.42,0.36,0.55,0.3,0.53,0.42,0.36,0.81,0.44,0.25,0.55,0.36,0.3,0.44,0.5,0.26,0.25,0.26,0.3,0.46,0.55,0.3,0.53,0.44,0.54,0.55,0.56,0.56,0.55,0.36,0.42,0.52,0.44,0.36,0.44,0.3,0.5,0.36,0.22,0.55,0.61,0.53,0.26,0.36,0.55,0.42,0.47,0.42,0.42,0.25,0.25,0.42,0.54,0.3,0.55,0.3,0.53,0.42,0.36,0.81,0.44,0.25" style="fill:rgb(0,0,0);font-family:AdvOT1ef757c0;font-size:9.27px;stroke:none;">better thermal stability than PP separator. This excellent thermal</text>
   <text y="668.466" x="303.874,307.247,310.045,314.094,318.727,321.135,323.452,325.861,328.659,332.9232,338.06,342.693,345.3813,350.532,355.35,361.428,367.506,374.3658,379.503,382.876,386.73,391.548,395.597,398.97,403.018,405.817,410.449,413.7862,418.962,426.486,428.895,433.138,438.058,440.839,446.005,450.637,454.01,456.419,460.662,463.071,468.084,472.133,474.931,478.82439999999997,483.99,486.686,490.059,494.691,502.19969999999995,507.348,510.146,515.066,518.9594000000001,524.072,526.87,531.79,535.645,539.017,546.541,550.59" svgx:width="0.36,0.3,0.44,0.5,0.26,0.25,0.26,0.3,0.46,0.55,0.5,0.29,0.55,0.52,0.66,0.66,0.74,0.55,0.36,0.42,0.52,0.44,0.36,0.44,0.3,0.5,0.36,0.55,0.81,0.26,0.46,0.53,0.3,0.55,0.5,0.36,0.26,0.46,0.26,0.54,0.44,0.3,0.42,0.55,0.29,0.36,0.5,0.81,0.55,0.3,0.53,0.42,0.55,0.3,0.53,0.42,0.36,0.81,0.44,0.25" style="fill:rgb(0,0,0);font-family:AdvOT1ef757c0;font-size:9.27px;stroke:none;">stability of FCCN separator might originate from the thermal</text>
  </g>
  <rect style="fill:pink;opacity:0.2;stroke:blue;stroke-width:0.3;" x="-0.113" y="17.524" height="36.964" width="595.446" title="3"/>
  <text y="17.524" class="image" id="image.3.1" width="595" height="36" x="-0.113" style="font-size:5.0px;">image.3.1.0_595.18_54</text>
  <rect style="fill:pink;opacity:0.2;stroke:blue;stroke-width:0.3;" x="136.516" y="69.455" height="242.816" width="322.696" title="3"/>
  <text y="69.455" class="image" id="image.3.2" width="322" height="242" x="136.516" style="font-size:5.0px;">image.3.2.137_459.69_312</text>
  <g begin="text">
   <text y="309.09" x="42.86,47.441,49.821,53.877,58.458,61.718,65.3601,68.144" svgx:width="0.54,0.28,0.48,0.54,0.38,0.43,0.55,0.49" style="fill:rgb(0,0,0);font-family:AdvOT5e4d79fc;font-size:8.47px;stroke:none;">Figure 2</text>
   <text y="309.09" x="74.721" svgx:width="0.26" style="fill:rgb(0,0,0);font-family:AdvOT5e4d79fc;font-size:8.97px;stroke:none;">|</text>
   <text y="309.09" x="78.179,83.472,87.351,91.847,94.227,97.75,101.535,103.7372,105.901,110.042,114.886,124.552,131.606,133.986,137.509,140.769,145.088,149.144,152.404,156.189,160.686,165.267,168.4856,170.641,174.96,177.5857,179.768,182.673,186.458,189.3378,191.503,196.44,201.3526,203.579,206.755,210.371,214.867,218.653,221.913,225.698,228.425,232.744,235.9626,238.161" svgx:width="0.63,0.46,0.53,0.28,0.42,0.45,0.26,0.55,0.49,0.57,0.88,0.83,0.28,0.42,0.38,0.51,0.48,0.38,0.45,0.53,0.54,0.38,0.55,0.51,0.31,0.55,0.34,0.45,0.34,0.55,0.58,0.58,0.55,0.38,0.43,0.53,0.45,0.38,0.45,0.32,0.51,0.38,0.55,0.34" style="fill:rgb(0,0,0);font-family:AdvOT5e4d79fc;font-size:8.47px;stroke:none;">Typical SEMmicrographs of (a) PP separator (</text>
   <text y="309.09" x="241.058" svgx:width="0.83" style="fill:rgb(0,0,0);font-family:AdvP7DED;font-size:8.47px;stroke:none;">3</text>
   <text y="309.09" x="248.144,252.285,256.426,260.567,264.708,267.612,269.64480000000003,271.84,274.745,279.149,282.0288,284.199,289.839,296.1068,298.259,301.434,305.05,309.547,313.332,316.592,320.378,323.104,327.423,330.6416,332.896" svgx:width="0.49,0.49,0.49,0.49,0.34,0.24,0.55,0.34,0.52,0.34,0.55,0.67,0.74,0.55,0.38,0.43,0.53,0.45,0.38,0.45,0.32,0.51,0.38,0.55,0.34" style="fill:rgb(0,0,0);font-family:AdvOT5e4d79fc;font-size:8.47px;stroke:none;">8000), (b) CN separator (</text>
   <text y="309.09" x="335.791" svgx:width="0.83" style="fill:rgb(0,0,0);font-family:AdvP7DED;font-size:8.47px;stroke:none;">3</text>
   <text y="309.09" x="342.878,347.019,351.16,355.301,359.441,362.346,364.3788,366.517,369.422,372.945,375.8248,378.026,382.607,388.247,393.887,400.1548,402.346,405.522,409.138,413.635,417.42,420.68,424.465,427.192,431.511,434.7296,436.928" svgx:width="0.49,0.49,0.49,0.49,0.34,0.24,0.55,0.34,0.42,0.34,0.55,0.54,0.67,0.67,0.74,0.55,0.38,0.43,0.53,0.45,0.38,0.45,0.32,0.51,0.38,0.55,0.34" style="fill:rgb(0,0,0);font-family:AdvOT5e4d79fc;font-size:8.47px;stroke:none;">8000), (c) FCCN separator (</text>
   <text y="309.09" x="439.879" svgx:width="0.83" style="fill:rgb(0,0,0);font-family:AdvP7DED;font-size:8.47px;stroke:none;">3</text>
   <text y="309.09" x="446.909,451.05,455.191,459.332,463.473,466.3528,468.565,472.351,477.025,481.5141,483.702,486.607,491.103,493.9828,496.174,500.755,506.395,512.035,518.3027999999999,520.438,523.614,527.23,531.726,535.512,538.772,542.557,545.284,549.603" svgx:width="0.49,0.49,0.49,0.49,0.34,0.55,0.45,0.55,0.53,0.55,0.34,0.53,0.34,0.55,0.54,0.67,0.67,0.74,0.55,0.38,0.43,0.53,0.45,0.38,0.45,0.32,0.51,0.38" style="fill:rgb(0,0,0);font-family:AdvOT5e4d79fc;font-size:8.47px;stroke:none;">8000) and (d) FCCN separator</text>
   <text y="319.521" x="42.86" svgx:width="0.34" style="fill:rgb(0,0,0);font-family:AdvOT5e4d79fc;font-size:8.47px;stroke:none;">(</text>
   <text y="319.521" x="45.751" svgx:width="0.83" style="fill:rgb(0,0,0);font-family:AdvP7DED;font-size:8.47px;stroke:none;">3</text>
   <text y="319.521" x="52.782,56.923,61.064,65.205,69.345,73.486,76.478" svgx:width="0.49,0.49,0.49,0.49,0.49,0.34,0.24" style="fill:rgb(0,0,0);font-family:AdvOT5e4d79fc;font-size:8.47px;stroke:none;">20000).</text>
  </g>
  <path style="fill:rgb(23,22,21);stroke:none;stroke-width:1.0;" d="M136.520 51.820 L459.210 51.820 L459.210 294.630 L136.520 294.630 M42.860 36.570 L43.090 36.570 L43.090 78.410 L42.860 78.410 L42.860 36.570 "/>
  <path style="fill:rgb(23,22,21);stroke:none;stroke-width:1.0;" d="M552.700 36.570 L552.930 36.570 L552.930 78.410 L552.700 78.410 L552.700 36.570 "/>
  <path style="fill:rgb(23,22,21);stroke:none;stroke-width:1.0;" d="M42.860 78.410 L43.090 78.410 L43.090 96.660 L42.860 96.660 L42.860 78.410 "/>
  <path style="fill:rgb(23,22,21);stroke:none;stroke-width:1.0;" d="M552.700 78.410 L552.930 78.410 L552.930 96.660 L552.700 96.660 L552.700 78.410 "/>
  <path style="fill:rgb(237,237,237);stroke:none;stroke-width:1.0;" d="M43.200 78.410 L46.200 78.410 L46.200 96.320 L43.200 96.320 L43.200 78.410 "/>
  <path style="fill:rgb(237,237,237);stroke:none;stroke-width:1.0;" d="M549.580 78.410 L552.590 78.410 L552.590 96.320 L549.580 96.320 L549.580 78.410 "/>
  <g begin="text">
   <text y="698.967" x="46.205,50.213,55.162,60.111,62.066,66.3716,69.335,74.44789999999999,76.989,81.695,86.079,90.742,95.036,98.399,100.64,104.559,109.508,111.4814,113.838,118.787,123.45,128.3835,130.732,135.027,136.982,141.276,145.195,147.338,150.413,155.174,159.093,163.755,168.05,174.864,177.106,181.024,185.973,187.9464,190.258,195.207,200.156,203.232,208.181,214.996,219.29,221.433,225.728,228.804,232.2126,234.533,239.294,241.7159,244.057,248.442,252.8373,255.169,258.531,262.826,267.776,272.725,275.801,280.75,282.893,287.654,290.7038,293.096,298.045,302.708,307.6415,309.99,314.186,320.068,325.95,332.9466,335.274,338.636,342.931,347.881,352.83,355.906,360.855,362.998,367.759" svgx:width="0.45,0.55,0.55,0.22,0.48,0.55,0.57,0.55,0.56,0.49,0.52,0.48,0.38,0.25,0.44,0.55,0.22,0.55,0.55,0.52,0.55,0.55,0.48,0.22,0.48,0.44,0.24,0.34,0.53,0.44,0.52,0.48,0.76,0.25,0.44,0.55,0.22,0.55,0.55,0.55,0.34,0.55,0.76,0.48,0.24,0.48,0.34,0.38,0.55,0.53,0.27,0.55,0.49,0.49,0.55,0.38,0.48,0.55,0.55,0.34,0.55,0.24,0.53,0.34,0.55,0.55,0.52,0.55,0.55,0.47,0.66,0.66,0.78,0.55,0.38,0.48,0.55,0.55,0.34,0.55,0.24,0.53,0.34" style="fill:rgb(0,0,0);font-family:AdvOT144a03c1;font-size:8.97px;stroke:none;">Table 1 |Physical and electrochemical parameters of PP separator and FCCN separator</text>
   <text y="715.408" x="46.091,50.323,54.723,60.78,65.18,66.917,70.7426,120.358,123.921,128.066,130.058,133.541,137.191,141.336,145.154,148.143,151.1716,153.125" svgx:width="0.53,0.55,0.76,0.55,0.22,0.48,0.55,0.45,0.52,0.25,0.44,0.46,0.52,0.48,0.38,0.38,0.55,0.29" style="fill:rgb(0,0,0);font-family:AdvOT144a03c1;font-size:7.97px;stroke:none;">Sample Thickness (</text>
   <text y="715.408" x="155.452" svgx:width="0.55" style="fill:rgb(0,0,0);font-family:AdvP3EAA99;font-size:7.97px;stroke:none;">m</text>
   <text y="715.408" x="159.874,165.931,168.2423,190.771,194.669,198.901,201.635,205.867,208.856,210.848,212.753,216.5786,218.55,220.869,226.424,228.7353,248.256,254.393,258.458,261.192,262.929,266.747,270.5726,272.633,276.116,280.516,282.253,286.318,290.1436,292.135,294.454,297.443,301.755,306.314,310.873,315.41589999999997,318.043,321.525,325.008,327.3193,340.493,345.801,350.201,352.106,356.505,360.155,363.9806,365.947,368.267,373.822,376.1333,387.774,389.599,393.831,397.976,399.968,403.4748,405.518,409.001,413.233,417.378,421.777,425.842,429.325,431.23,433.222,436.705,438.698,440.603,444.4286,446.391,448.711,454.768,458.9921,461.075,464.558" svgx:width="0.76,0.29,0.55,0.49,0.53,0.34,0.53,0.38,0.25,0.24,0.48,0.55,0.29,0.7,0.29,0.55,0.77,0.51,0.34,0.22,0.48,0.48,0.55,0.44,0.55,0.22,0.51,0.48,0.55,0.29,0.38,0.54,0.57,0.57,0.57,0.55,0.44,0.44,0.29,0.55,0.67,0.55,0.24,0.55,0.46,0.48,0.55,0.29,0.7,0.29,0.55,0.23,0.53,0.52,0.25,0.44,0.55,0.44,0.53,0.52,0.55,0.51,0.44,0.24,0.25,0.44,0.25,0.24,0.48,0.55,0.29,0.76,0.53,0.55,0.44,0.76" style="fill:rgb(0,0,0);font-family:AdvOT144a03c1;font-size:7.97px;stroke:none;">m) Porosity (%) Gurley value (s/100 cc) Uptake (%) Ionic conductivity (mS cm</text>
   <text y="712.46" x="470.608" svgx:width="0.83" style="fill:rgb(0,0,0);font-family:AdvP414BFB;font-size:4.41px;stroke:none;">2</text>
   <text y="712.46" x="474.746" svgx:width="0.57" style="fill:rgb(0,0,0);font-family:AdvOT144a03c1;font-size:4.41px;stroke:none;">1</text>
   <text y="715.408" x="477.581,479.89230000000003,501.279,504.841,509.074,511.807,513.712,517.777,522.009,524.998,526.991,528.896" svgx:width="0.29,0.55,0.45,0.53,0.34,0.24,0.51,0.53,0.38,0.25,0.24,0.48" style="fill:rgb(0,0,0);font-family:AdvOT144a03c1;font-size:7.97px;stroke:none;">) Tortuosity</text>
   <text y="731.111" x="46.09,50.075,54.06,56.067,59.216,63.28,67.839,72.398,75.052,79.611,81.516,85.916,88.5461,139.405,144.298,149.15970000000002,204.885,209.778,214.6397,280.456,285.35,290.244,295.1057,350.982,355.876,360.77,365.63169999999997,425.307,430.201,432.608,437.501,442.36269999999996,510.856,515.75,518.156" svgx:width="0.5,0.5,0.55,0.4,0.51,0.57,0.57,0.33,0.57,0.24,0.55,0.33,0.55,0.61,0.61,0.55,0.61,0.61,0.55,0.61,0.61,0.61,0.55,0.61,0.61,0.61,0.55,0.61,0.3,0.61,0.61,0.55,0.61,0.3,0.61" style="fill:rgb(0,0,0);font-family:AdvOT735b620e;font-size:7.97px;stroke:none;">PP separator 25 55 235 125 0.65 3.1</text>
   <text y="740.579" x="46.09,49.82,55.462,61.105,67.7201,69.73,72.878,76.943,81.502,86.061,88.715,93.274,95.179,99.578,102.2081,139.405,144.298,149.15970000000002,204.885,209.778,214.6397,285.388,290.282,295.14369999999997,350.982,355.876,360.77,365.63169999999997,425.307,430.1687,510.857" svgx:width="0.47,0.71,0.71,0.83,0.55,0.4,0.51,0.57,0.57,0.33,0.57,0.24,0.55,0.33,0.55,0.61,0.61,0.55,0.61,0.61,0.55,0.61,0.61,0.55,0.61,0.61,0.61,0.55,0.61,0.55,0.61" style="fill:rgb(0,0,0);font-family:AdvOT735b620e;font-size:7.97px;stroke:none;">FCCN separator 40 70 45 270 2 2</text>
   <text y="23.924" x="382.45,390.728,398.964,407.201,410.758,416.935,423.462,426.559,432.626,436.863,442.59,446.147,451.414,457.711,466.518" svgx:width="0.71,0.71,0.71,0.28,0.52,0.55,0.24,0.51,0.34,0.48,0.28,0.44,0.53,0.76,0.54" style="fill:rgb(255,255,255);font-family:AdvOT144a03c1;font-size:10.96px;stroke:none;">www.nature.com/</text>
   <text y="23.924" x="472.932,477.864,482.905,486.127,492.089,498.39,501.831,505.053,508.845,512.067,517.108,521.579,527.541,534.182,540.593,545.064,548.505" svgx:width="0.41,0.42,0.25,0.5,0.53,0.27,0.25,0.3,0.25,0.42,0.36,0.5,0.56,0.54,0.36,0.27,0.41" style="fill:rgb(255,255,255);font-family:AdvOT1415ea69.B;font-size:10.96px;stroke:none;">scientificreports</text>
  </g>
  <g begin="text">
   <text y="768.132" x="42.86,47.092,52.32,54.146,58.29,64.515,68.078,69.903,73.529,75.354" svgx:width="0.53,0.66,0.23,0.52,0.78,0.45,0.23,0.47,0.23,0.66" style="fill:rgb(178,178,177);font-family:AdvOT144a03c1;font-size:7.97px;stroke:none;">SCIENTIFIC</text>
   <text y="768.132" x="82.658,87.058,90.875,95.02,101.245,105.644,109.207" svgx:width="0.55,0.48,0.52,0.78,0.55,0.45,0.52" style="fill:rgb(178,178,177);font-family:AdvOT1415ea69.B;font-size:7.97px;stroke:none;">REPORTS</text>
   <text y="768.132" x="117.411,121.8742,123.987,128.8487,130.96,133.351,135.382,140.276,145.169,150.063,154.9247,157.038,161.5012,163.557,168.953,175.76,177.585,179.976,182.039,186.932,191.826,194.233,199.127,204.02,208.914,213.808,218.287,221.325,223.979,228.044,232.603,237.497,242.391,247.284,252.178" svgx:width="0.56,0.55,0.61,0.55,0.3,0.55,0.61,0.61,0.61,0.61,0.55,0.56,0.55,0.68,0.85,0.23,0.3,0.55,0.61,0.61,0.3,0.61,0.61,0.61,0.61,0.56,0.4,0.33,0.51,0.57,0.61,0.61,0.61,0.61,0.61" style="fill:rgb(0,0,0);font-family:AdvOT735b620e;font-size:7.97px;stroke:none;">| 4 : 3935 | DOI: 10.1038/srep03935</text>
   <text y="768.132" x="547.542" svgx:width="0.68" style="fill:rgb(0,0,0);font-family:AdvOTf32ed098.B;font-size:7.97px;stroke:none;">3</text>
  </g>
 </g>
</svg>
