<?xml version="1.0" encoding="UTF-8"?>
<svg height="778.132" width="2626.957" xmlns="http://www.w3.org/2000/svg">
 <g id="page" xmlns:svgx="http://www.xml-cml.org/schema/svgx">
  <g begin="text">
   <text y="58.507" x="42.86,45.269,50.087,53.941,57.99,60.307500000000005,62.816,66.189,71.007,75.64,79.012,81.81,84.219,87.017,91.835,94.633,98.5264,101.028,103.724,108.357,111.6942,114.294,116.991,121.623,124.996,128.368,130.777,133.094,136.374,141.006,145.055,148.428,152.282,157.10240000000002,159.649,163.021,166.876,171.694,175.743,179.115,183.164,185.962,190.595,193.968,197.30519999999999,199.901,204.534,207.2223,209.766,214.399,218.447,221.246,224.044,227.898,231.271,235.53519999999997,238.056,242.105,246.923,251.74,254.057,256.466,260.32,264.369,267.167,269.576,274.209,279.221,281.2604,283.808,286.893" svgx:width="0.26,0.52,0.42,0.44,0.25,0.55,0.36,0.52,0.5,0.36,0.3,0.26,0.3,0.52,0.3,0.42,0.55,0.29,0.5,0.36,0.55,0.29,0.5,0.36,0.36,0.26,0.25,0.35,0.5,0.44,0.36,0.42,0.52,0.55,0.36,0.42,0.52,0.44,0.36,0.44,0.3,0.5,0.36,0.36,0.55,0.5,0.29,0.55,0.5,0.44,0.3,0.3,0.42,0.36,0.46,0.55,0.44,0.52,0.52,0.25,0.26,0.42,0.44,0.3,0.26,0.5,0.54,0.22,0.55,0.33,0.54" style="fill:rgb(0,0,0);font-family:AdvOT1ef757c0;font-size:9.27px;stroke:none;">ideal substitute for fossil-based separators of battery application. In</text>
   <text y="68.939" x="42.86,46.232,50.087,53.941,57.795,62.808,65.589,67.521,71.765,75.619,79.668,83.041,86.413,88.4524,90.312,97.835,101.884,106.897,111.16120000000001,113.046,116.901,119.597,122.293,126.926,130.298,133.096,136.4332,138.389,143.309,147.358,151.601,155.49439999999998,157.381,162.013,165.868,169.722,174.7278,176.6,184.123,188.172,192.99,196.8834,198.767,201.565,206.2,208.065,212.883,216.737,220.981,224.835,227.151,231.784,236.6044,238.51,243.43,245.838,250.082,255.002,258.282,263.1,266.954,270.327,273.023,277.656,281.028,288.552" svgx:width="0.36,0.42,0.42,0.42,0.54,0.3,0.55,0.46,0.42,0.44,0.36,0.36,0.22,0.55,0.81,0.44,0.54,0.46,0.55,0.42,0.29,0.29,0.5,0.36,0.3,0.36,0.55,0.53,0.44,0.46,0.42,0.55,0.5,0.42,0.42,0.54,0.55,0.81,0.44,0.52,0.42,0.55,0.3,0.5,0.55,0.52,0.42,0.46,0.42,0.25,0.5,0.52,0.55,0.53,0.26,0.46,0.53,0.35,0.52,0.42,0.36,0.29,0.5,0.36,0.81,0.35" style="fill:rgb(0,0,0);font-family:AdvOT1ef757c0;font-size:9.27px;stroke:none;">recent years, many efforts have been made to develop high-perform-</text>
   <text y="79.427" x="42.86,46.909,51.921,55.776,59.6694,64.914,68.287,72.141,76.959,81.008,84.38,88.429,91.227,95.86,99.233,102.5702,107.945,110.641,114.014,118.646,126.1547,131.416,133.732,138.365,144.6686,149.898,153.752,158.385,161.758,164.556,166.5954,171.895,175.267,179.122,184.134,187.989,194.261,198.31,202.943,205.259,209.1524,214.415,218.27,222.124,224.44,226.757,231.575,233.891,238.524,241.896" svgx:width="0.44,0.54,0.42,0.42,0.55,0.36,0.42,0.52,0.44,0.36,0.44,0.3,0.5,0.36,0.36,0.55,0.29,0.36,0.5,0.81,0.55,0.25,0.5,0.68,0.55,0.42,0.5,0.36,0.3,0.22,0.55,0.36,0.42,0.54,0.42,0.68,0.44,0.5,0.25,0.42,0.55,0.42,0.42,0.25,0.25,0.52,0.25,0.5,0.36,0.42" style="fill:rgb(0,0,0);font-family:AdvOT1ef757c0;font-size:9.27px;stroke:none;">ance separators from low cost, renewable cellulose</text>
   <text y="76.025" x="245.82,248.583,251.346,254.287,257.05" svgx:width="0.48,0.48,0.51,0.48,0.48" style="fill:rgb(0,0,0);font-family:AdvOT1ef757c0;font-size:5.13px;stroke:none;">27–30</text>
   <text y="79.427" x="259.767,261.8064,267.023,270.109,272.89,278.192,284.465,288.513" svgx:width="0.22,0.55,0.33,0.3,0.55,0.68,0.44,0.36" style="fill:rgb(0,0,0);font-family:AdvOT1ef757c0;font-size:9.27px;stroke:none;">. It was</text>
   <text y="89.915" x="42.861,46.233,50.088,54.906,59.538,62.911,65.709,69.563,74.38340000000001,77.784,80.582,85.502,89.551,92.33200000000001,95.756,99.611,103.465,108.098,111.378,114.074,117.446,119.855,123.71,128.722,133.54,135.856,140.12019999999998,143.549,147.404,151.258,153.575,155.891,160.709,163.025,167.658,171.03,174.92340000000002,178.303,183.315,187.364,192.377,197.009,199.706,202.115,206.747,210.602,213.974,217.31119999999999,220.767,224.621,228.67,233.67579999999998,237.037,241.67,245.5634,248.943,252.316,257.134,260.988,264.842,268.697,272.069,275.442,278.138,282.956,285.272,287.589" svgx:width="0.36,0.42,0.52,0.5,0.36,0.3,0.42,0.52,0.55,0.3,0.53,0.44,0.3,0.55,0.42,0.42,0.5,0.35,0.29,0.36,0.26,0.42,0.54,0.52,0.25,0.46,0.55,0.42,0.42,0.25,0.25,0.52,0.25,0.5,0.36,0.42,0.55,0.54,0.44,0.54,0.5,0.29,0.26,0.5,0.42,0.36,0.36,0.55,0.42,0.44,0.54,0.55,0.5,0.42,0.55,0.36,0.52,0.42,0.42,0.42,0.36,0.36,0.29,0.52,0.25,0.25,0.46" style="fill:rgb(0,0,0);font-family:AdvOT1ef757c0;font-size:9.27px;stroke:none;">reported that eco-friendly cellulose nanofibers can be successfully</text>
   <text y="100.404" x="42.861,46.715,51.051,55.869,58.185,62.818,66.191,70.045,74.86540000000001,77.33,81.379,84.7162,87.139,91.2178,93.601,96.974,100.828,105.646,109.695,113.068,117.116,119.915,124.547,127.88419999999999,130.395,133.092,137.724,141.06119999999999,143.549,148.468,151.554" svgx:width="0.42,0.47,0.52,0.25,0.5,0.36,0.42,0.52,0.55,0.44,0.36,0.55,0.44,0.55,0.36,0.42,0.52,0.44,0.36,0.44,0.3,0.5,0.36,0.55,0.29,0.5,0.36,0.55,0.53,0.33,0.58" style="fill:rgb(0,0,0);font-family:AdvOT1ef757c0;font-size:9.27px;stroke:none;">explored as a separator for LIB</text>
   <text y="96.945" x="156.926,159.688" svgx:width="0.48,0.48" style="fill:rgb(0,0,0);font-family:AdvOT1ef757c0;font-size:5.13px;stroke:none;">28</text>
   <text y="100.403" x="162.425,164.4644,166.904,172.982,177.8,180.21020000000001,182.608,186.462,189.243,191.679,195.727,198.044,200.0834,202.507,206.361,210.697,215.515,217.832,222.464,225.837,229.691,234.5114,236.977,240.349,244.204,249.216,253.07,259.343,263.392,268.025,270.341,274.195,276.2344,278.703,281.019,285.652" svgx:width="0.22,0.55,0.66,0.52,0.26,0.55,0.42,0.3,0.55,0.44,0.25,0.22,0.55,0.42,0.47,0.52,0.25,0.5,0.36,0.42,0.52,0.55,0.36,0.42,0.54,0.42,0.68,0.44,0.5,0.25,0.42,0.22,0.55,0.25,0.5,0.68" style="fill:rgb(0,0,0);font-family:AdvOT1ef757c0;font-size:9.27px;stroke:none;">. Cui et al. explored renewable, low</text>
   <text y="110.835" x="42.86,46.715,51.347,54.72,57.501,59.245,63.294,68.306,73.1264,74.949,78.803,83.816,88.059,90.468,93.841,98.473,103.486,111.009,114.864,119.876,122.674,126.723,129.04,131.356,135.62019999999998,137.426,142.058,145.913,150.925,153.334,157.578,162.5838,164.355,168.21,172.064,174.38,176.697,181.515,183.831,188.464,191.836,195.69,198.674,203.492,208.124,210.441,214.7052,216.513,219.691,223.935,226.344,231.356,235.6,237.916,240.325,245.143,248.997,254.01,257.9034,259.657,262.353,264.67,269.488,274.12,277.493,279.902,284.72,288.574" svgx:width="0.42,0.5,0.36,0.3,0.55,0.44,0.54,0.52,0.55,0.42,0.54,0.46,0.26,0.36,0.5,0.54,0.81,0.42,0.54,0.3,0.44,0.25,0.25,0.46,0.55,0.5,0.42,0.54,0.26,0.46,0.54,0.55,0.42,0.42,0.25,0.25,0.52,0.25,0.5,0.36,0.42,0.32,0.52,0.5,0.25,0.46,0.55,0.34,0.46,0.26,0.54,0.46,0.25,0.26,0.52,0.42,0.54,0.42,0.55,0.29,0.25,0.52,0.5,0.36,0.26,0.52,0.42,0.35" style="fill:rgb(0,0,0);font-family:AdvOT1ef757c0;font-size:9.27px;stroke:none;">cost and environmentally benign cellulose/poly (vinylidene fluoride-</text>
   <text y="121.323" x="42.86,46.715,51.347,54.627,59.547,63.401,67.738,71.786,74.483,76.799,81.617,86.25,89.622,94.255,99.073,102.445,107.078,111.896,116.139,118.456,122.31,127.323,131.177,134.3288,136.122,139.976,144.609,152.132,156.95,161.583,164.956,167.365,170.163,174.0564,175.751,180.763,185.396,190.408,196.681,201.314,205.557,209.411,214.4168,216.173,220.222,223.5592,225.3,229.349,234.35479999999998,236.072,240.121,244.939,249.183,253.232,258.244,262.099,265.953,270.7734,272.527,275.899,279.754,284.572,288.62" svgx:width="0.42,0.5,0.35,0.53,0.42,0.47,0.44,0.29,0.25,0.52,0.5,0.36,0.5,0.52,0.36,0.5,0.52,0.46,0.25,0.42,0.54,0.42,0.34,0.55,0.42,0.5,0.81,0.52,0.5,0.36,0.26,0.3,0.42,0.55,0.54,0.5,0.54,0.68,0.5,0.46,0.42,0.54,0.55,0.44,0.36,0.55,0.44,0.54,0.55,0.44,0.52,0.46,0.44,0.54,0.42,0.42,0.52,0.55,0.36,0.42,0.52,0.44,0.35" style="fill:rgb(0,0,0);font-family:AdvOT1ef757c0;font-size:9.27px;stroke:none;">co-hexafluoropropylene) composite nonwoven as an advanced sepa-</text>
   <text y="131.812" x="42.86,46.233,50.282,53.08,57.712,61.049200000000006,64.914,67.611,72.243,75.58019999999999,79.428,84.347,86.756,91.0,95.92,99.2,104.018,107.872,111.245,113.941,118.573,121.946,129.469,133.518,138.531,142.385,146.27839999999998,150.125,155.044,158.13,163.5066,167.359,171.603,174.011,178.0898,181.872,185.921,190.9268,194.742,198.596,200.912,204.767,208.621,211.419,214.792,219.424,222.797,227.615,230.024,235.036,240.049,242.458,247.471,251.7352,255.63,258.429,262.283,266.137,271.057,276.07,278.479,283.204,288.022" svgx:width="0.36,0.44,0.3,0.5,0.36,0.55,0.29,0.5,0.36,0.55,0.53,0.26,0.46,0.53,0.35,0.52,0.42,0.36,0.29,0.5,0.36,0.81,0.44,0.54,0.42,0.42,0.55,0.53,0.33,0.58,0.55,0.46,0.26,0.44,0.55,0.44,0.54,0.55,0.42,0.25,0.42,0.42,0.3,0.36,0.5,0.36,0.52,0.26,0.54,0.54,0.26,0.54,0.46,0.55,0.3,0.42,0.42,0.53,0.54,0.26,0.51,0.52,0.42" style="fill:rgb(0,0,0);font-family:AdvOT1ef757c0;font-size:9.27px;stroke:none;">rator for high-performance LIB via an electrospinning technique</text>
   <text y="142.3" x="42.86,45.556,50.189,52.505,54.822,59.454,65.727,69.581,74.40140000000001,76.819,81.452,85.7162,88.044,92.1228,94.507,99.325,101.734,106.552,109.832,113.686,118.319,122.368,125.166,127.575,132.587,136.85119999999998,139.295,144.113,147.486,152.118,155.973,159.827,163.2" svgx:width="0.29,0.5,0.25,0.25,0.5,0.68,0.42,0.52,0.55,0.5,0.46,0.55,0.44,0.55,0.52,0.26,0.52,0.35,0.42,0.5,0.44,0.3,0.26,0.54,0.46,0.55,0.52,0.36,0.5,0.42,0.42,0.36,0.36" style="fill:rgb(0,0,0);font-family:AdvOT1ef757c0;font-size:9.27px;stroke:none;">followed by a dip-coating process</text>
   <text y="138.841" x="166.62,169.383" svgx:width="0.48,0.48" style="fill:rgb(0,0,0);font-family:AdvOT1ef757c0;font-size:5.13px;stroke:none;">29</text>
   <text y="142.299" x="172.12,174.1594,176.542,181.36,186.178,189.55,192.349,197.268,201.123,204.495,212.019,216.651,220.024,223.878,225.9174,228.36,231.158,236.078,239.97140000000002,242.306,247.124,251.757,255.129,259.762,264.58,267.9172,270.37,273.742,276.541,279.913,284.731,288.585" svgx:width="0.22,0.55,0.52,0.52,0.36,0.3,0.53,0.42,0.36,0.81,0.5,0.36,0.42,0.22,0.55,0.3,0.53,0.42,0.55,0.52,0.5,0.36,0.5,0.52,0.36,0.55,0.36,0.3,0.36,0.52,0.42,0.35" style="fill:rgb(0,0,0);font-family:AdvOT1ef757c0;font-size:9.27px;stroke:none;">. Furthermore, the porous struc-</text>
   <text y="152.731" x="42.86,45.658,50.476,53.849,57.703,60.983,63.781,68.599,73.612,77.466,82.2864,85.381,89.235,93.089,95.406,97.722,102.54,104.856,109.489,112.861,116.7544,119.737,124.75,128.799,133.811,138.444,141.14,143.549,148.182,152.036,155.3732,158.515,161.888,165.742,170.56,174.609,177.982,182.031,184.829,189.461,192.834,196.1712,199.278,205.551,209.405,212.778,216.6714,219.688,223.737,226.053,229.426,234.06099999999998,237.093,241.91,245.765,250.008,253.863,256.179,260.812,265.63,269.484,274.3044,277.402,281.451,284.7882,287.834" svgx:width="0.3,0.52,0.36,0.42,0.35,0.3,0.52,0.54,0.42,0.52,0.55,0.42,0.42,0.25,0.25,0.52,0.25,0.5,0.36,0.42,0.55,0.54,0.44,0.54,0.5,0.29,0.26,0.5,0.42,0.36,0.55,0.36,0.42,0.52,0.44,0.36,0.44,0.3,0.5,0.36,0.36,0.55,0.68,0.42,0.36,0.42,0.55,0.44,0.25,0.36,0.5,0.55,0.52,0.42,0.46,0.42,0.25,0.5,0.52,0.42,0.52,0.55,0.44,0.36,0.55,0.44" style="fill:rgb(0,0,0);font-family:AdvOT1ef757c0;font-size:9.27px;stroke:none;">ture-tuned cellulose nanofiber separators were also developed as a</text>
   <text y="163.219" x="42.86,47.678,51.051,55.683,63.207,65.616,68.988,71.397,76.41,80.6742,82.205,86.254,88.571,91.369,95.223,98.596,103.608,107.657,110.455,112.864,117.108,121.0014,122.458,125.256,129.891,131.415,135.27,139.902,147.426,154.949,158.803,162.176,166.03,168.439,172.488,174.8055,176.373,181.191,185.824,188.14,192.384,197.016,199.333,203.187,205.883,208.292,213.2978,214.811,218.184,222.038,226.856,230.905,234.278,238.327,241.125,245.757,249.13,252.4672,254.043,256.74,261.372,264.7092,266.289,271.209,274.295,281.2,285.444,287.852" svgx:width="0.52,0.36,0.5,0.81,0.26,0.36,0.26,0.54,0.46,0.55,0.44,0.25,0.3,0.42,0.36,0.54,0.44,0.3,0.26,0.46,0.42,0.55,0.3,0.5,0.55,0.42,0.5,0.81,0.81,0.42,0.36,0.42,0.26,0.44,0.25,0.55,0.52,0.5,0.25,0.46,0.5,0.25,0.42,0.29,0.26,0.54,0.55,0.36,0.42,0.52,0.44,0.36,0.44,0.3,0.5,0.36,0.36,0.55,0.29,0.5,0.36,0.55,0.53,0.33,0.58,0.46,0.26,0.44" style="fill:rgb(0,0,0);font-family:AdvOT1ef757c0;font-size:9.27px;stroke:none;">promising alternative to commercial polyolefin separators for LIBvia</text>
   <text y="173.708" x="42.86,46.9388,50.513,53.21,57.259,61.113,63.522,65.838,69.7314,73.304,76.0,80.049,84.682,88.055,90.464,94.318,98.367,101.165,103.574,108.207,113.21279999999999,116.902,120.275,123.073,126.445,130.494,133.292,137.147,141.39,145.65419999999997,149.218,153.85,157.899,161.272,165.126,169.9464,173.596,178.228,183.2338,186.862,190.716,195.349,197.665,199.981,204.614,207.023,211.841,215.89,218.20749999999998,221.842,226.178,228.587" svgx:width="0.44,0.55,0.29,0.44,0.42,0.26,0.25,0.42,0.55,0.29,0.44,0.5,0.36,0.26,0.42,0.44,0.3,0.26,0.5,0.54,0.55,0.36,0.3,0.36,0.44,0.3,0.42,0.46,0.46,0.55,0.5,0.44,0.36,0.42,0.52,0.55,0.5,0.54,0.55,0.42,0.5,0.25,0.25,0.5,0.26,0.52,0.44,0.25,0.55,0.47,0.26,0.74" style="fill:rgb(0,0,0);font-family:AdvOT1ef757c0;font-size:9.27px;stroke:none;">a facile fabrication strategy based on colloidal SiO</text>
   <text y="175.238" x="235.446" svgx:width="0.48" style="fill:rgb(0,0,0);font-family:AdvOT1ef757c0;font-size:6.18px;stroke:none;">2</text>
   <text y="173.707" x="242.362,247.375,251.424,256.436,261.069,265.887,269.936,273.308,276.106,278.515,282.37,284.686,288.54" svgx:width="0.54,0.44,0.54,0.5,0.52,0.44,0.36,0.3,0.26,0.42,0.25,0.42,0.35" style="fill:rgb(0,0,0);font-family:AdvOT1ef757c0;font-size:9.27px;stroke:none;">nanoparticle-</text>
   <text y="184.195" x="42.86,46.909,50.281,53.654,56.063,59.435,62.234,66.088,70.9084,73.361,76.734,79.532,82.904,87.722,91.577,94.375,99.193,102.565,106.614,108.9315,111.403,115.257,119.89,124.902,127.7,131.073,135.706,138.02349999999998,140.486,145.119,149.3832,151.769,156.689,160.543,164.4364,166.849,170.898,175.91,180.7304,183.176,188.096,190.505,193.8422,196.329,200.184,204.816,211.089,215.722,219.094,223.625,227.479" svgx:width="0.44,0.36,0.36,0.26,0.36,0.3,0.42,0.52,0.55,0.36,0.3,0.36,0.52,0.42,0.3,0.52,0.36,0.44,0.25,0.55,0.42,0.5,0.54,0.3,0.36,0.5,0.25,0.55,0.5,0.46,0.55,0.53,0.42,0.42,0.55,0.44,0.54,0.52,0.55,0.53,0.26,0.36,0.55,0.42,0.5,0.68,0.5,0.36,0.49,0.42,0.36" style="fill:rgb(0,0,0);font-family:AdvOT1ef757c0;font-size:9.27px;stroke:none;">assisted structural control by Lee and his coworker</text>
   <text y="180.737" x="230.854,233.616" svgx:width="0.48,0.48" style="fill:rgb(0,0,0);font-family:AdvOT1ef757c0;font-size:5.13px;stroke:none;">30</text>
   <text y="184.195" x="236.353,238.3924,240.832,247.873,252.506,258.778,262.633,266.876,270.731,274.103,276.1424,278.59,282.444,286.298,288.615" svgx:width="0.22,0.55,0.76,0.5,0.68,0.42,0.46,0.42,0.36,0.22,0.55,0.42,0.42,0.25,0.35" style="fill:rgb(0,0,0);font-family:AdvOT1ef757c0;font-size:9.27px;stroke:none;">. However, cel-</text>
   <text y="194.627" x="42.86,45.176,49.994,52.311,56.943,60.316,64.2094,66.898,69.307,72.6442,75.401,80.321,82.73,86.974,91.894,94.21,98.4742,101.197,103.893,106.21,110.258,117.782,125.305,129.354,133.987,136.303,140.158,142.1974,144.964,151.237,156.157,158.566,162.42,167.3331,170.08,172.489,175.8262,178.584,183.402,188.414,191.11,195.159,199.403,204.035,207.408,211.457,216.09,218.406,222.2994,225.072,227.768,232.401,235.7382,238.509,241.881,245.93,248.626,252.481,255.279,259.5432,262.263,266.117,270.75,275.763,279.617,283.471,286.844" svgx:width="0.25,0.52,0.25,0.5,0.36,0.42,0.55,0.26,0.36,0.55,0.53,0.26,0.46,0.53,0.25,0.46,0.55,0.29,0.25,0.44,0.81,0.81,0.44,0.5,0.25,0.42,0.22,0.55,0.68,0.53,0.26,0.42,0.53,0.55,0.26,0.36,0.55,0.52,0.54,0.29,0.44,0.46,0.5,0.36,0.44,0.5,0.25,0.42,0.55,0.29,0.5,0.36,0.55,0.36,0.44,0.29,0.42,0.3,0.46,0.55,0.42,0.5,0.54,0.42,0.42,0.36,0.54" style="fill:rgb(0,0,0);font-family:AdvOT1ef757c0;font-size:9.27px;stroke:none;">lulose is highly flammable, which is unfavorable for safety concern</text>
   <text y="205.115" x="42.86,49.132,54.052,57.907,62.9128,64.631,69.55,72.636,78.01259999999999,79.767,86.04,90.089,93.4262,95.188,99.236,103.869,108.687,112.06,115.914" svgx:width="0.68,0.53,0.42,0.54,0.55,0.53,0.33,0.58,0.55,0.68,0.44,0.36,0.55,0.44,0.5,0.52,0.36,0.42,0.52" style="fill:rgb(0,0,0);font-family:AdvOT1ef757c0;font-size:9.27px;stroke:none;">when LIB was abused</text>
   <text y="201.713" x="120.756,123.518,126.281,127.538,130.301" svgx:width="0.48,0.48,0.22,0.48,0.48" style="fill:rgb(0,0,0);font-family:AdvOT1ef757c0;font-size:5.13px;stroke:none;">31,32</text>
   <text y="205.115" x="133.001,135.0404,136.743,139.828,144.8338,146.551,149.349,153.204,156.576,164.1,167.4372,169.229,173.861,176.5493,178.243,181.616,185.665,188.361,192.215,195.013,199.2772,201.034,204.888,209.521,214.533,217.906,220.315,225.133,228.987,232.36,236.409,239.207,241.616,246.249,251.2548,253.022,257.655,260.3433,262.037,266.956,270.042,275.443,277.4824,279.214,281.623,284.404,286.131,288.54" svgx:width="0.22,0.55,0.33,0.54,0.55,0.3,0.42,0.36,0.81,0.36,0.55,0.5,0.29,0.55,0.36,0.44,0.29,0.42,0.3,0.46,0.55,0.42,0.5,0.54,0.36,0.26,0.52,0.42,0.36,0.44,0.3,0.26,0.5,0.54,0.55,0.5,0.29,0.55,0.53,0.33,0.58,0.22,0.55,0.26,0.3,0.55,0.26,0.36" style="fill:rgb(0,0,0);font-family:AdvOT1ef757c0;font-size:9.27px;stroke:none;">. In terms of safety consideration of LIB, it is</text>
   <text y="215.603" x="42.86,46.715,50.087,52.496,55.294,57.703,61.558,65.607,67.9245,71.491,74.289,78.924,82.432,87.25,91.105,95.348,99.203,101.519,106.152,110.97240000000001,114.577,117.376,122.295,126.15,129.522,137.046,141.095,143.4125,147.006,150.379,154.233,157.606,160.014,163.387,166.185,170.234,175.247,178.02800000000002,181.589,185.638,190.65,195.4704,199.05,201.746,204.063,208.112,215.635,219.489,222.769,226.142,229.996,232.794,236.843,240.216,245.034,249.083,254.095,256.876,260.506,264.36,268.215,270.531,272.847,277.665,279.982,284.614,287.987" svgx:width="0.42,0.36,0.26,0.3,0.26,0.42,0.44,0.25,0.55,0.3,0.5,0.55,0.52,0.42,0.46,0.42,0.25,0.5,0.52,0.55,0.3,0.53,0.42,0.36,0.81,0.44,0.25,0.55,0.36,0.42,0.36,0.26,0.36,0.3,0.44,0.54,0.3,0.55,0.44,0.54,0.52,0.55,0.29,0.25,0.44,0.81,0.42,0.35,0.36,0.42,0.3,0.44,0.36,0.52,0.44,0.54,0.3,0.55,0.42,0.42,0.25,0.25,0.52,0.25,0.5,0.36,0.42" style="fill:rgb(0,0,0);font-family:AdvOT1ef757c0;font-size:9.27px;stroke:none;">critical to develop thermal resistant and flame-retardant cellulose</text>
   <text y="226.092" x="42.86,46.233,50.087,54.905,58.954,62.327,66.376,69.174,73.806,77.179" svgx:width="0.36,0.42,0.52,0.44,0.36,0.44,0.3,0.5,0.36,0.22" style="fill:rgb(0,0,0);font-family:AdvOT1ef757c0;font-size:9.27px;stroke:none;">separator.</text>
   <text y="236.92" x="52.102,59.143,62.998,66.37,70.224,72.633,77.646,79.6854,82.886,89.159,93.0524,96.209,101.027,104.4,108.254,111.626,115.481,120.493,123.291,127.146,131.9664,135.214,139.2928,142.414,145.787,149.641,154.654,158.508,164.781,168.829,173.462,175.778,179.633,181.6724,184.878,187.574,189.89,193.939,201.463,205.317,208.597,211.97,215.824,218.622,222.671,226.044,230.862,234.911,239.923,242.704,245.994,250.043,255.055,259.8754,263.059,265.857,270.777,274.631,278.004,285.527,289.576" svgx:width="0.76,0.42,0.36,0.42,0.26,0.54,0.22,0.55,0.68,0.42,0.55,0.52,0.36,0.42,0.36,0.42,0.54,0.3,0.42,0.52,0.55,0.44,0.55,0.36,0.42,0.54,0.42,0.68,0.44,0.5,0.25,0.42,0.22,0.55,0.29,0.25,0.44,0.81,0.42,0.35,0.36,0.42,0.3,0.44,0.36,0.52,0.44,0.54,0.3,0.55,0.44,0.54,0.52,0.55,0.3,0.53,0.42,0.36,0.81,0.44,0.25" style="fill:rgb(0,0,0);font-family:AdvOT1ef757c0;font-size:9.27px;stroke:none;">Herein, we presented a renewable, flame-retardant and thermal</text>
   <text y="247.408" x="42.86,46.233,50.087,53.46,55.869,59.241,62.039,66.088,71.101,73.882,79.711,83.566,87.42,89.736,92.053,96.871,99.187,103.819,107.192,111.046,114.326,118.959,123.008,126.483,130.338,135.1584,140.94,144.794,149.427,156.95,161.768,166.401,169.774,172.183,174.981,178.87439999999998,184.707,189.72,194.353,199.365,205.638,210.27,214.514,218.368,223.3738,229.212,232.585,236.439,241.257,245.306,248.679,252.728,255.526,260.159,263.4962,269.408,272.586,277.506,281.36,284.733,288.587" svgx:width="0.36,0.42,0.36,0.26,0.36,0.3,0.44,0.54,0.3,0.55,0.42,0.42,0.25,0.25,0.52,0.25,0.5,0.36,0.42,0.35,0.5,0.44,0.36,0.42,0.52,0.55,0.42,0.5,0.81,0.52,0.5,0.36,0.26,0.3,0.42,0.55,0.54,0.5,0.54,0.68,0.5,0.46,0.42,0.54,0.55,0.36,0.42,0.52,0.44,0.36,0.44,0.3,0.5,0.36,0.55,0.34,0.53,0.42,0.36,0.42,0.35" style="fill:rgb(0,0,0);font-family:AdvOT1ef757c0;font-size:9.27px;stroke:none;">resistant cellulose-based composite nonwoven separator (here-</text>
   <text y="257.897" x="42.86,45.269,50.282,54.331,57.027,59.825,63.679,67.052,69.09140000000001,71.775,75.823,80.456,85.089,88.461,92.316,96.559,98.968,103.017,105.815,109.67,114.49040000000001,117.187,121.235,124.5722,127.278,129.298,131.318,136.136,142.214,148.292,155.1518,157.836,161.209,165.063,169.881,173.93,177.303,181.352,184.15,188.782,192.155,194.175,196.195,199.3468,202.114,206.163,209.5002,212.206,217.126,220.211,225.5876,228.307,231.68,235.534,240.352,244.401,247.774,251.823,254.621,259.253,262.626,264.6654,267.312,273.001,277.63599999999997,280.351,283.149,288.069" svgx:width="0.26,0.54,0.44,0.29,0.3,0.42,0.36,0.22,0.55,0.44,0.5,0.5,0.36,0.42,0.46,0.26,0.44,0.3,0.42,0.52,0.55,0.44,0.36,0.55,0.22,0.22,0.52,0.66,0.66,0.74,0.55,0.36,0.42,0.52,0.44,0.36,0.44,0.3,0.5,0.36,0.22,0.22,0.34,0.55,0.44,0.36,0.55,0.53,0.33,0.58,0.55,0.36,0.42,0.52,0.44,0.36,0.44,0.3,0.5,0.36,0.22,0.55,0.61,0.5,0.55,0.3,0.53,0.42" style="fill:rgb(0,0,0);font-family:AdvOT1ef757c0;font-size:9.27px;stroke:none;">inafter, abbreviated as ‘‘FCCN separator’’) as LIB separator. To the</text>
   <text y="268.385" x="42.86,47.493,51.347,54.72,57.501,59.529,64.161,66.8493,68.826,73.459,78.277,81.6142,83.68,88.211,93.224,97.856,104.129,106.445,110.3,115.118,119.361,123.215,125.2544,127.278,130.076,134.996,137.405,140.7422,142.756,145.165,148.5022,150.58,153.378,158.298,162.1914,164.129,166.825,169.234,172.607,175.98,178.761,180.798,184.17,188.024,190.433,194.288,199.3,202.098,204.507,207.204,209.613,213.50639999999999,215.551,218.923,222.778,227.596,232.228,235.601,238.382,240.383,243.181,248.101,252.15,254.931,256.994,261.043,265.86,270.678,274.051,277.905,281.278,284.65,288.505" svgx:width="0.5,0.42,0.36,0.3,0.55,0.5,0.29,0.55,0.5,0.52,0.36,0.55,0.49,0.54,0.5,0.68,0.25,0.42,0.52,0.46,0.42,0.22,0.55,0.3,0.53,0.26,0.36,0.55,0.26,0.36,0.55,0.3,0.53,0.42,0.55,0.29,0.26,0.36,0.36,0.3,0.55,0.36,0.42,0.26,0.42,0.54,0.3,0.26,0.29,0.26,0.42,0.55,0.36,0.42,0.52,0.5,0.36,0.3,0.55,0.3,0.53,0.44,0.3,0.55,0.44,0.52,0.52,0.36,0.42,0.36,0.36,0.42,0.36" style="fill:rgb(0,0,0);font-family:AdvOT1ef757c0;font-size:9.27px;stroke:none;">best of our knowledge, this is the first scientific report that addresses</text>
   <text y="278.817" x="42.86,47.78,50.189,54.433,59.353,61.669,65.9332,70.073,72.77,75.086,79.135,86.658,90.513,93.793,97.165,101.02,103.818,107.867,111.239,116.057,120.106,125.119,127.9,132.21,137.028,143.106,149.184,156.0438,160.216,163.589,167.443,172.261,176.31,179.683,183.732,186.53,191.163,194.5002,198.768,203.401,206.0893,210.277,215.197,217.606,221.849,226.769,230.049,234.867,239.5,245.772,249.627,252.9642,257.22,262.139,265.225,270.626,272.6654,276.835,283.682,288.5" svgx:width="0.53,0.26,0.46,0.53,0.25,0.46,0.55,0.29,0.25,0.44,0.81,0.42,0.35,0.36,0.42,0.3,0.44,0.36,0.52,0.44,0.54,0.3,0.55,0.52,0.66,0.66,0.74,0.55,0.36,0.42,0.52,0.44,0.36,0.44,0.3,0.5,0.36,0.55,0.5,0.29,0.55,0.53,0.26,0.46,0.53,0.35,0.52,0.5,0.68,0.42,0.36,0.55,0.53,0.33,0.58,0.22,0.55,0.74,0.52,0.36" style="fill:rgb(0,0,0);font-family:AdvOT1ef757c0;font-size:9.27px;stroke:none;">highly flame-retardant FCCN separator of high-power LIB. Our</text>
   <text y="289.305" x="42.86,46.233,50.087,53.46,58.278,60.594,63.392,66.7292,69.393,74.211,78.066,85.589,90.222,95.234,98.607,101.405,104.778,108.826,111.625,115.5184,118.094,120.892,125.812,129.861,132.642,135.271,140.089,146.167,152.246,159.10580000000002,161.747,165.12,168.974,173.792,177.841,181.214,185.262,188.061,192.693,196.0302,198.711,201.12,204.4572,207.102,211.1808,213.735,217.978,221.833,225.205,229.4692,232.047,236.865,240.237,244.87,252.393,254.802,258.175,260.584,265.596,269.8602,272.526,275.898,279.753,284.571,288.62" svgx:width="0.36,0.42,0.36,0.52,0.25,0.3,0.36,0.55,0.52,0.42,0.81,0.5,0.54,0.36,0.3,0.36,0.44,0.3,0.42,0.55,0.3,0.53,0.44,0.3,0.55,0.52,0.66,0.66,0.74,0.55,0.36,0.42,0.52,0.44,0.36,0.44,0.3,0.5,0.36,0.55,0.26,0.36,0.55,0.44,0.55,0.46,0.42,0.36,0.46,0.55,0.52,0.36,0.5,0.81,0.26,0.36,0.26,0.54,0.46,0.55,0.36,0.42,0.52,0.44,0.35" style="fill:rgb(0,0,0);font-family:AdvOT1ef757c0;font-size:9.27px;stroke:none;">results demonstrate that FCCN separator is a very promising sepa-</text>
   <text y="299.793" x="42.86,46.233,50.282,53.08,57.713,61.050200000000004,62.703,65.501,70.13600000000001,71.774,75.146,77.555,81.799,86.811,89.22,91.916,94.325,98.18,102.229,107.241,110.039,112.356,116.6202,118.262,120.671,128.195,133.013,136.385,141.018,145.261,149.1544,150.747,153.545,158.465,162.35840000000002,163.957,167.329,171.378,174.075,177.929,180.727,184.9912,186.635,189.044,192.416,195.789,200.607,204.5004,206.137,210.77,213.4583,215.038,219.958,223.044,228.4206,230.119,234.751,241.024,243.433,248.445,252.70919999999998,254.327,257.125,261.76,263.341,265.75,268.548,271.8852,273.546,277.789,282.422,287.055" svgx:width="0.36,0.44,0.3,0.5,0.36,0.55,0.3,0.5,0.55,0.36,0.26,0.46,0.54,0.26,0.29,0.26,0.42,0.44,0.54,0.3,0.25,0.46,0.55,0.26,0.81,0.52,0.36,0.5,0.46,0.42,0.55,0.3,0.53,0.42,0.55,0.36,0.44,0.29,0.42,0.3,0.46,0.55,0.26,0.36,0.36,0.52,0.42,0.55,0.5,0.29,0.55,0.53,0.33,0.58,0.55,0.5,0.68,0.26,0.54,0.46,0.55,0.3,0.5,0.55,0.26,0.3,0.36,0.55,0.46,0.5,0.5,0.52" style="fill:rgb(0,0,0);font-family:AdvOT1ef757c0;font-size:9.27px;stroke:none;">rator to significantly improve the safety issue of LIB owing to its good</text>
   <text y="310.282" x="42.86,45.557,47.873,51.922,59.445,63.3384,67.805,71.178,75.032,77.83,81.879,85.252,90.07,94.119,99.131,102.986,107.229,109.2684,113.841,117.213,122.031,126.849,130.704,134.076,136.485,141.118,144.4552,149.048,151.846,156.766,160.62,163.993,171.516,175.565,177.8825,182.384,185.756,188.554,192.603,197.236,199.645,201.961,204.37,207.168,211.4322,215.946,219.995,225.008,229.82840000000002,234.371,238.226,240.542,244.396,248.251,251.049,254.421,259.054,262.909,267.828,271.683,279.206,281.615,285.47,289.518" svgx:width="0.29,0.25,0.44,0.81,0.42,0.55,0.36,0.42,0.3,0.44,0.36,0.52,0.44,0.54,0.42,0.46,0.22,0.55,0.36,0.52,0.52,0.42,0.36,0.26,0.5,0.36,0.55,0.3,0.53,0.42,0.36,0.81,0.44,0.25,0.55,0.36,0.3,0.44,0.5,0.26,0.25,0.26,0.3,0.46,0.55,0.44,0.54,0.52,0.55,0.42,0.25,0.42,0.42,0.3,0.36,0.5,0.42,0.53,0.42,0.81,0.26,0.42,0.44,0.25" style="fill:rgb(0,0,0);font-family:AdvOT1ef757c0;font-size:9.27px;stroke:none;">flame retardancy, superior thermal stability and electrochemical</text>
   <text y="320.714" x="42.86,46.715,51.635,55.683,59.056,63.105,66.959,69.757,73.612,76.984,79.393,82.766,85.564,87.973,91.827,95.2,97.2394,100.744,107.11,112.122,116.755,119.553,124.473,128.327,131.6642,135.158,142.681,147.314,150.112,152.521,156.764,160.813,163.611,166.02,170.653,175.65879999999999,179.152,183.785,186.4733,189.924,192.722,197.642,200.051,203.38819999999998,206.875,213.147,217.78,221.153,225.6953,229.155,232.528,237.447,241.302,246.1224,249.565,251.881,254.29,258.533,263.453,266.234,269.747,274.38,279.3858,282.844,286.893" svgx:width="0.42,0.53,0.44,0.36,0.44,0.42,0.3,0.42,0.36,0.26,0.36,0.3,0.26,0.42,0.36,0.22,0.55,0.69,0.54,0.5,0.3,0.53,0.42,0.36,0.55,0.81,0.5,0.3,0.26,0.46,0.44,0.3,0.26,0.5,0.54,0.55,0.5,0.29,0.55,0.3,0.53,0.26,0.36,0.55,0.68,0.5,0.36,0.49,0.55,0.36,0.53,0.42,0.52,0.55,0.25,0.26,0.46,0.53,0.3,0.55,0.5,0.54,0.55,0.44,0.54" style="fill:rgb(0,0,0);font-family:AdvOT1ef757c0;font-size:9.27px;stroke:none;">characteristics. Another motivation of this work shed light on an</text>
   <text y="331.202" x="42.86,45.269,50.087,53.942,57.991,60.3085,64.404,67.777,72.595,77.227,80.6,83.398,85.807,88.605,93.423,97.277,102.29,105.07100000000001,109.192,113.825,116.5133,120.644,124.017,128.26,133.273,136.071,140.991,144.845,147.643,150.052,153.9454,158.006,162.824,167.456,169.773,174.016,181.54,185.394,188.7312,192.872,197.69,201.544,204.917,207.326,211.569,215.424,220.2444,224.337,227.033,230.406,235.038,242.54670000000002,246.674,249.37,254.003,257.375,260.748,263.157,265.4745,269.578,274.21,276.619,278.9365,283.014,287.647" svgx:width="0.26,0.52,0.42,0.44,0.25,0.55,0.36,0.52,0.5,0.36,0.3,0.26,0.3,0.52,0.42,0.54,0.3,0.55,0.5,0.29,0.55,0.36,0.46,0.54,0.3,0.53,0.42,0.3,0.26,0.42,0.55,0.52,0.5,0.25,0.46,0.81,0.42,0.36,0.55,0.52,0.42,0.36,0.26,0.46,0.42,0.52,0.55,0.29,0.36,0.5,0.81,0.55,0.29,0.5,0.36,0.36,0.26,0.25,0.55,0.5,0.26,0.25,0.55,0.5,0.46" style="fill:rgb(0,0,0);font-family:AdvOT1ef757c0;font-size:9.27px;stroke:none;">ideal substituent of synthetic polymer derived from fossil oil by</text>
   <text y="341.69" x="42.86,46.233,50.087,55.1,58.954,65.227,69.276,73.908,76.225,80.1184,83.51,88.328,92.961,95.277,99.52,107.044,110.898,114.23519999999999,117.696,121.745,125.0822,128.524,132.379,134.695,138.55,142.598,147.6038,150.975,154.83,159.842,163.697,167.069,171.313,175.57719999999998,178.981,186.505,190.554,193.352,197.206,200.579,202.988,207.037,209.3545,212.828,217.46,223.733,226.142,231.154,235.41819999999998,238.794,241.592,246.227,249.622,252.031,254.829,258.1662,261.584,265.828,269.682,273.055,276.427,280.476,283.275,285.683,288.0" svgx:width="0.36,0.42,0.54,0.42,0.68,0.44,0.5,0.25,0.42,0.55,0.52,0.5,0.25,0.46,0.81,0.42,0.36,0.55,0.44,0.36,0.55,0.42,0.25,0.42,0.44,0.54,0.55,0.42,0.54,0.42,0.36,0.46,0.46,0.55,0.81,0.44,0.3,0.42,0.36,0.26,0.44,0.25,0.55,0.5,0.68,0.26,0.54,0.46,0.55,0.3,0.5,0.55,0.26,0.3,0.36,0.55,0.46,0.42,0.36,0.36,0.44,0.3,0.26,0.25,0.42" style="fill:rgb(0,0,0);font-family:AdvOT1ef757c0;font-size:9.27px;stroke:none;">renewable polymer as clean energy material owing to its versatile</text>
   <text y="352.178" x="42.86,47.678,50.087,54.331,58.185,61.558,64.93,67.339,70.137,74.4012,76.82,80.868,85.881,90.7014,93.147,97.001,101.05,104.423,108.6872,111.062,115.88,119.253,123.885,127.74,131.594,134.967,138.339,142.388,147.021,149.43,151.746,154.155,156.953,161.197" svgx:width="0.52,0.26,0.46,0.42,0.36,0.36,0.26,0.3,0.46,0.55,0.44,0.54,0.52,0.55,0.42,0.44,0.36,0.46,0.55,0.52,0.36,0.5,0.42,0.42,0.36,0.36,0.44,0.5,0.26,0.25,0.26,0.3,0.46,0.22" style="fill:rgb(0,0,0);font-family:AdvOT1ef757c0;font-size:9.27px;stroke:none;">diversity and easy processability.</text>
   <text y="377.235" x="42.86,49.267,54.984,59.811,66.02,68.774,72.124" svgx:width="0.68,0.6,0.51,0.66,0.29,0.35,0.51" style="fill:rgb(0,0,0);font-family:AdvOTf32ed098.B;font-size:9.46px;stroke:none;">Results</text>
   <text y="389.934" x="42.86,48.246,51.761,55.717,60.548,64.792,68.259,72.502,75.346,78.042,82.659,87.8502,90.879,95.585,98.55139999999999,101.594,106.584,112.754,118.716,125.57579999999999,128.581,132.055,135.781,140.793,144.851,148.511,152.562,155.51,160.216" svgx:width="0.59,0.4,0.43,0.54,0.46,0.4,0.46,0.33,0.29,0.52,0.56,0.55,0.52,0.32,0.55,0.55,0.67,0.67,0.74,0.55,0.38,0.43,0.54,0.46,0.4,0.46,0.33,0.52,0.4" style="fill:rgb(0,0,0);font-family:AdvOTb65e897d.B;font-size:9.27px;stroke:none;">Preparation of FCCN separator</text>
   <text y="389.934" x="163.786" svgx:width="0.24" style="fill:rgb(0,0,0);font-family:AdvOT5e4d79fc;font-size:9.27px;stroke:none;">.</text>
   <text y="389.934" x="169.001,173.707,176.116,180.171,184.876,188.249,192.1424,195.025,199.4746,202.452,207.085,211.693,214.491,216.625,218.893,223.906,227.567,232.3874,235.391,238.189,242.875,246.76839999999999,249.791,254.497,257.729,261.583,266.232,270.144,273.517,277.401,280.065,282.474,286.869" svgx:width="0.52,0.26,0.46,0.52,0.36,0.42,0.55,0.48,0.55,0.5,0.52,0.3,0.25,0.26,0.54,0.42,0.52,0.55,0.3,0.53,0.42,0.55,0.52,0.36,0.42,0.52,0.44,0.36,0.44,0.3,0.26,0.5,0.54" style="fill:rgb(0,0,0);font-family:AdvOT1ef757c0;font-size:9.27px;stroke:none;">Figure 1 outlined the preparation</text>
   <text y="400.366" x="42.86,47.566,50.797,55.43,59.075,62.929,66.105,69.4422,71.32,75.953,78.6413,80.391,83.189,87.931,91.8244,93.657,98.363,104.316,110.269,118.999,122.372,126.029,130.735,134.646,138.019,141.903,144.568,149.2,152.335,154.3744,156.247,162.2,165.941,168.257,170.363,175.069,177.385,181.815,185.188,189.08139999999997,190.773,195.479,200.297,202.452,207.2724,209.085,212.263,216.512,220.9616,223.939,228.183,231.139,233.1784,234.994,238.367,242.818,247.524,249.933,254.553,263.908,267.957,270.088,274.331,276.494,281.506,285.337,288.136" svgx:width="0.52,0.36,0.5,0.42,0.42,0.36,0.36,0.55,0.5,0.29,0.55,0.3,0.53,0.42,0.55,0.52,0.66,0.66,0.74,0.36,0.42,0.52,0.44,0.36,0.44,0.3,0.5,0.36,0.22,0.55,0.66,0.42,0.25,0.25,0.52,0.25,0.5,0.36,0.42,0.55,0.52,0.52,0.25,0.52,0.55,0.34,0.48,0.48,0.55,0.46,0.34,0.22,0.55,0.36,0.5,0.52,0.26,0.52,0.81,0.44,0.25,0.46,0.26,0.54,0.44,0.3,0.42" style="fill:rgb(0,0,0);font-family:AdvOT1ef757c0;font-size:9.27px;stroke:none;">process of the FCCNseparator. Cellulose pulp (20 g), sodiumalginate</text>
   <text y="410.854" x="42.86,45.915,50.252,56.404,59.555800000000005,62.243,65.299,69.737,74.1866,77.09,81.334,84.291,86.3304,88.996,91.57,93.887,97.75,105.274,109.1674,111.696,114.928,118.66,121.458,125.293,128.666,133.287,137.336,142.131,144.912,147.63,150.686,155.381,161.07,164.2218,166.833,169.889,174.205,178.65460000000002,181.632,185.875,189.0268,191.61,195.658,200.453,205.2734,207.993,211.244,213.653,215.779,218.047,221.901,225.9798,228.535,231.591,236.0406,239.018,243.262,246.4138,248.996,255.269,258.917,262.29,266.1834,268.726,273.421,275.738,279.544,283.398,287.084" svgx:width="0.34,0.47,0.69,0.34,0.55,0.34,0.48,0.48,0.55,0.46,0.34,0.22,0.55,0.29,0.25,0.44,0.81,0.42,0.55,0.36,0.42,0.3,0.44,0.36,0.52,0.44,0.54,0.3,0.55,0.34,0.52,0.61,0.34,0.55,0.34,0.48,0.48,0.55,0.46,0.34,0.55,0.44,0.54,0.52,0.55,0.36,0.26,0.25,0.26,0.42,0.44,0.55,0.34,0.48,0.55,0.46,0.34,0.55,0.68,0.42,0.36,0.42,0.55,0.52,0.25,0.44,0.42,0.42,0.52" style="fill:rgb(0,0,0);font-family:AdvOT1ef757c0;font-size:9.27px;stroke:none;">(SA) (10 g), flame retardant (FR) (10 g) and silica (5 g) were placed</text>
   <text y="421.342" x="42.86,45.128,50.14,52.725,57.36,61.568,66.0176,68.995,73.9081,78.18,82.886,86.627,88.895,93.528,98.364,100.632,104.486,108.172,112.9924,117.186,123.459,127.334,129.999,133.74,137.0772,141.337,145.386,150.181,155.00140000000002,159.251,163.957,168.663,170.979,175.58,179.321,184.1414,188.392,191.088,195.479,198.8162,203.075,207.5246,210.503,215.41609999999997,219.686,222.351,226.986,231.195,235.438,237.658,241.4,243.716,248.53640000000001,252.624,256.366,260.998,268.328,273.034,275.35,278.987,281.785,285.45,287.767" svgx:width="0.26,0.54,0.3,0.5,0.55,0.48,0.55,0.53,0.55,0.52,0.42,0.26,0.5,0.54,0.26,0.42,0.42,0.52,0.55,0.68,0.44,0.3,0.42,0.36,0.55,0.44,0.54,0.52,0.55,0.52,0.52,0.25,0.52,0.42,0.52,0.55,0.29,0.5,0.36,0.55,0.48,0.55,0.53,0.55,0.3,0.5,0.55,0.46,0.26,0.42,0.25,0.52,0.55,0.42,0.5,0.81,0.52,0.25,0.42,0.3,0.42,0.25,0.46" style="fill:rgb(0,0,0);font-family:AdvOT1ef757c0;font-size:9.27px;stroke:none;">into 1 L deionized water and pulped for 5 h to yield completely</text>
   <text y="431.831" x="42.86,47.566,49.834,53.206,57.828,61.569,64.942,68.146,71.887,76.7074,80.618,85.436,91.333,97.286,104.14580000000001,108.114,111.346,116.052,119.425,124.046,127.787,132.8,136.008,138.276,142.908,147.744,149.7834,153.697,159.252,164.172,168.0654,171.895,176.527,180.909,183.707,187.542,189.951,194.799,198.54,203.3604,207.271,211.977,218.055,223.939,230.7988,234.711,238.083,242.705,246.077,250.699,254.44,259.453,262.604,265.013,269.464,274.4698,278.422,284.694,288.514" svgx:width="0.52,0.26,0.36,0.52,0.42,0.36,0.36,0.42,0.52,0.55,0.52,0.66,0.66,0.74,0.55,0.36,0.52,0.36,0.52,0.42,0.54,0.36,0.26,0.5,0.54,0.22,0.55,0.61,0.53,0.42,0.55,0.5,0.5,0.3,0.44,0.26,0.54,0.42,0.52,0.55,0.52,0.66,0.66,0.74,0.55,0.36,0.52,0.36,0.52,0.42,0.54,0.36,0.26,0.5,0.54,0.55,0.68,0.44,0.36" style="fill:rgb(0,0,0);font-family:AdvOT1ef757c0;font-size:9.27px;stroke:none;">dispersed FCCN suspension. The obtained FCCN suspension was</text>
   <text y="442.262" x="42.86,47.566,52.198,56.807,60.039,63.893,68.71340000000001,72.511,77.143,82.1488,85.947,90.0258,93.941,98.647,102.559,107.265,111.119,114.294,121.818,125.69,130.112,132.38,137.393,141.6572,145.477,152.846,156.895,160.557,165.477,167.7,172.576,176.4694,180.343,183.039,187.43,189.746,191.852,196.485,202.568,206.309,211.1294,215.04,219.519,223.7832,227.682,231.926,235.789,239.531,244.237,248.942,256.4507,260.394,262.945,265.354,267.48,270.145,273.518,277.345,280.143,282.334,286.967" svgx:width="0.52,0.5,0.52,0.36,0.42,0.52,0.55,0.5,0.54,0.55,0.44,0.55,0.52,0.44,0.52,0.42,0.36,0.81,0.44,0.49,0.26,0.54,0.46,0.55,0.81,0.44,0.42,0.53,0.26,0.54,0.42,0.55,0.29,0.5,0.25,0.25,0.5,0.68,0.42,0.52,0.55,0.5,0.46,0.55,0.46,0.44,0.42,0.52,0.52,0.81,0.55,0.29,0.26,0.25,0.3,0.36,0.44,0.3,0.26,0.5,0.54" style="fill:rgb(0,0,0);font-family:AdvOT1ef757c0;font-size:9.27px;stroke:none;">poured on a papermaking machine followed by vacuum filtration</text>
   <text y="452.751" x="42.86,45.525,50.16,54.539,58.782,62.419,67.294,71.149,74.324,78.373,80.957,84.8504,89.177,93.25580000000001,97.624,103.747,107.601,110.382,114.688,119.394,125.347,131.425,138.28480000000002,142.581,147.287,151.199,156.017,159.703,162.934,164.9734,169.34,175.029,179.716,183.57,188.5758,192.869,195.667,200.352,204.24540000000002,208.573,214.845,218.494,221.275,225.694,230.4,236.353,242.306,249.16580000000002,253.531,258.349,262.205,266.911,270.652,273.9892,278.419,284.692,288.511" svgx:width="0.3,0.5,0.55,0.46,0.42,0.54,0.42,0.36,0.44,0.3,0.42,0.55,0.44,0.55,0.68,0.42,0.3,0.55,0.52,0.66,0.66,0.74,0.55,0.52,0.44,0.52,0.42,0.36,0.22,0.55,0.61,0.53,0.42,0.54,0.55,0.3,0.53,0.42,0.55,0.68,0.42,0.3,0.55,0.52,0.66,0.66,0.74,0.55,0.52,0.44,0.52,0.42,0.36,0.55,0.68,0.44,0.36" style="fill:rgb(0,0,0);font-family:AdvOT1ef757c0;font-size:9.27px;stroke:none;">to generate a wet FCCN paper. Then the wet FCCN paper was</text>
   <text y="463.239" x="42.86,45.525,48.897,52.725,57.737,60.888,63.584,67.238,70.61,73.814,77.556,82.3764,88.724,91.522,96.15700000000001,102.387,106.4658,112.818,117.524,119.841,123.704,126.369,130.2624,136.63,141.336,144.568,148.811,152.504,155.8412,162.199,164.997,169.632,175.919,179.151,182.892,190.415,194.854,199.098,202.9914,209.198,213.247,217.872,222.578,224.987,227.567,229.976,234.427,239.303,243.352,245.6695,251.945,258.218,262.037,264.835,268.5,271.8372,278.251,282.163,287.176" svgx:width="0.3,0.36,0.44,0.54,0.36,0.29,0.42,0.36,0.36,0.42,0.52,0.55,0.3,0.5,0.55,0.44,0.55,0.52,0.25,0.44,0.3,0.42,0.55,0.52,0.36,0.46,0.42,0.36,0.55,0.3,0.5,0.55,0.36,0.42,0.81,0.5,0.46,0.42,0.55,0.44,0.52,0.52,0.26,0.3,0.26,0.5,0.54,0.44,0.25,0.55,0.68,0.44,0.3,0.42,0.36,0.55,0.44,0.54,0.52" style="fill:rgb(0,0,0);font-family:AdvOT1ef757c0;font-size:9.27px;stroke:none;">transferred to a plate dryer to remove additional water and</text>
   <text y="473.727" x="42.86,46.092,50.797,55.43,58.621,62.362,66.954,71.772,75.458,80.333,83.131,85.265,89.5292,92.465,95.697,100.33,102.444,104.76,108.397,113.21740000000001,116.164,120.87,125.882,130.508,134.249,137.5862,140.599,144.6778,147.628,152.334,155.566,159.42,162.595,165.968,170.589,173.962,177.85539999999997,180.681,185.314,188.0023,190.829,195.268,199.7176,202.621,210.672,215.879,219.9578,222.804,226.716,229.497,232.498,236.807" svgx:width="0.36,0.52,0.5,0.36,0.42,0.51,0.52,0.42,0.54,0.3,0.25,0.46,0.55,0.36,0.5,0.25,0.25,0.42,0.52,0.55,0.52,0.54,0.52,0.42,0.36,0.55,0.44,0.55,0.52,0.36,0.42,0.36,0.36,0.52,0.36,0.42,0.55,0.5,0.29,0.55,0.48,0.48,0.55,0.88,0.56,0.44,0.55,0.44,0.3,0.55,0.48,0.48" style="fill:rgb(0,0,0);font-family:AdvOT1ef757c0;font-size:9.27px;stroke:none;">subsequently rolled under a pressure of 10 MPa at 95</text>
   <text y="473.727" x="241.171" svgx:width="0.38" style="fill:rgb(0,0,0);font-family:AdvP44E6F4;font-size:9.27px;stroke:none;">u</text>
   <text y="473.727" x="244.629,250.582,252.6214,255.572,257.888,261.525,265.436,270.254,272.466,277.479,281.7432,284.598,287.263" svgx:width="0.66,0.22,0.55,0.25,0.42,0.44,0.52,0.26,0.54,0.46,0.55,0.3,0.5" style="fill:rgb(0,0,0);font-family:AdvOT1ef757c0;font-size:9.27px;stroke:none;">C, leading to</text>
   <text y="484.159" x="42.86,45.525,50.444,54.3374,57.316,61.56,65.253,70.129,73.87,77.242,81.07,83.868,86.059,90.692,95.69779999999999,98.758,103.391,106.0793,109.134,113.2128,116.334,121.039,126.992,133.07,139.9298,142.98,146.352,150.009,154.715,158.764,161.915,165.964,168.548,173.181,176.372,178.41140000000001,181.531,187.484,191.225,193.541,195.647,200.353,202.67,207.099,210.331,214.2244,217.361,222.236,226.869,231.704,237.977,242.363,246.607,250.243,255.2488,258.407,261.779,265.436,270.142,274.191,277.399,281.311,283.975,288.608" svgx:width="0.3,0.53,0.42,0.55,0.46,0.42,0.54,0.42,0.36,0.44,0.3,0.26,0.5,0.54,0.55,0.5,0.29,0.55,0.44,0.55,0.52,0.66,0.66,0.74,0.55,0.36,0.42,0.52,0.44,0.36,0.44,0.3,0.5,0.36,0.22,0.55,0.66,0.42,0.25,0.25,0.52,0.25,0.5,0.36,0.42,0.55,0.54,0.5,0.54,0.68,0.5,0.46,0.42,0.54,0.55,0.36,0.42,0.52,0.44,0.36,0.44,0.3,0.5,0.36" style="fill:rgb(0,0,0);font-family:AdvOT1ef757c0;font-size:9.27px;stroke:none;">the generation of a FCCN separator. Cellulose nonwoven separator</text>
   <text y="58.509" x="303.874,309.996,312.405,315.042,319.804,324.437,329.046,331.827,335.282,337.834,340.15,344.014,351.537,355.43039999999996,358.697,361.929,365.783,368.392,372.441,375.593,380.298,384.347,389.142,391.94,393.9794,397.306,400.538,405.17,409.779,412.188,416.808,424.31669999999997,427.75,431.662,433.978,438.011,440.42,445.211,449.26,451.844,455.7374,459.101,463.15,467.944,472.7644,476.221,479.453,481.862,483.988,486.255,489.997,494.0758,497.48,500.542,504.591,508.989,513.622,516.813,520.554,524.797,527.017,530.929,533.727,537.393,542.2134,545.613,549.525" svgx:width="0.68,0.26,0.3,0.53,0.5,0.52,0.3,0.55,0.29,0.25,0.44,0.81,0.42,0.55,0.36,0.42,0.3,0.44,0.36,0.52,0.44,0.54,0.3,0.22,0.55,0.36,0.5,0.52,0.26,0.52,0.81,0.55,0.44,0.25,0.46,0.26,0.54,0.44,0.3,0.42,0.55,0.44,0.54,0.52,0.55,0.36,0.26,0.25,0.26,0.42,0.44,0.55,0.34,0.44,0.5,0.5,0.36,0.42,0.46,0.26,0.44,0.3,0.42,0.52,0.55,0.44,0.36" style="fill:rgb(0,0,0);font-family:AdvOT1ef757c0;font-size:9.27px;stroke:none;">without flame retardant, sodium alginate and silica (abbreviated as</text>
   <text y="69.111" x="303.874,305.893,307.672,313.75,320.6098,324.397,327.77,331.427,336.132,340.181,343.389,347.301,349.966,354.598,357.789,359.809,361.588,364.7398,368.675,374.948,378.823,382.1602,386.08,390.786,394.158,397.815,402.521,406.57,409.721,413.576,418.3964,422.251,426.73,430.99420000000003,434.893,439.599,443.648,448.273,452.015,455.387,462.73,466.642,471.064,473.473,478.264,482.5282,486.428,493.951,497.596,500.394,505.08,509.712,514.5323999999999,518.346,521.042,525.489,528.8262000000001,532.746,536.8248,540.683,543.379,547.259,549.526" svgx:width="0.22,0.22,0.66,0.74,0.55,0.36,0.42,0.52,0.44,0.36,0.44,0.3,0.5,0.36,0.22,0.22,0.34,0.55,0.68,0.44,0.36,0.55,0.52,0.36,0.42,0.52,0.44,0.36,0.42,0.52,0.55,0.5,0.46,0.55,0.52,0.44,0.52,0.42,0.36,0.81,0.44,0.49,0.26,0.54,0.46,0.55,0.81,0.42,0.3,0.53,0.5,0.52,0.55,0.29,0.5,0.36,0.55,0.44,0.55,0.29,0.44,0.26,0.36" style="fill:rgb(0,0,0);font-family:AdvOT1ef757c0;font-size:9.27px;stroke:none;">‘‘CN separator’’) was prepared by papermaking method for a fair</text>
   <text y="79.769" x="303.874,307.615,312.247,319.577,324.283,328.195,331.568,333.808,337.04,341.672,346.45" svgx:width="0.42,0.5,0.81,0.52,0.44,0.36,0.26,0.36,0.5,0.54,0.22" style="fill:rgb(0,0,0);font-family:AdvOT1ef757c0;font-size:9.27px;stroke:none;">comparison.</text>
   <text y="100.858" x="303.874,312.073,316.891,320.551,325.564,330.576,335.394,337.896,342.714,347.244,349.941,353.795,358.038,360.5409,362.495,366.739,371.946,376.95180000000005,378.88,383.892,388.905,393.148,396.623,399.319,403.173,407.417,409.9199,411.875,415.73,420.742,424.986,428.646,432.889,436.743,439.829,443.785,447.445,450.141,454.19,458.433,461.519,464.215,469.033" svgx:width="0.88,0.52,0.4,0.54,0.54,0.52,0.27,0.52,0.49,0.29,0.42,0.46,0.27,0.55,0.46,0.56,0.54,0.55,0.54,0.54,0.46,0.38,0.29,0.42,0.46,0.27,0.55,0.42,0.54,0.46,0.4,0.46,0.42,0.33,0.43,0.4,0.29,0.44,0.46,0.33,0.29,0.52,0.56" style="fill:rgb(0,0,0);font-family:AdvOTb65e897d.B;font-size:9.27px;stroke:none;">Morphological and physical characterization</text>
   <text y="100.858" x="474.349" svgx:width="0.24" style="fill:rgb(0,0,0);font-family:AdvOT5e4d79fc;font-size:9.27px;stroke:none;">.</text>
   <text y="100.858" x="478.487,484.176,488.42,493.238,495.647,499.501,503.55,505.8675,507.798,512.134,517.341,527.414,529.823,537.346,541.395,545.639,549.493" svgx:width="0.61,0.46,0.52,0.26,0.42,0.44,0.25,0.55,0.47,0.56,0.88,0.26,0.81,0.44,0.46,0.42,0.36" style="fill:rgb(0,0,0);font-family:AdvOT1ef757c0;font-size:9.27px;stroke:none;">Typical SEMimages</text>
   <text y="111.516" x="303.873,308.506,311.1943,318.443,323.65,328.84119999999996,336.132,339.504,343.358,348.176,352.225,355.598,359.647,362.445,367.078,370.45,372.4894,379.786,385.864,392.7238,400.025,403.398,407.252,412.07,416.119,419.491,423.54,426.339,430.971,434.3082,441.638,445.687,450.7,455.5204,462.785,467.603,473.681,479.759,486.6188,493.909,497.282,501.136,505.954,510.003,513.376,517.425,520.223,524.856,528.1932,535.523,541.795,545.65,549.022" svgx:width="0.5,0.29,0.55,0.56,0.56,0.55,0.36,0.42,0.52,0.44,0.36,0.44,0.3,0.5,0.36,0.22,0.55,0.66,0.74,0.55,0.36,0.42,0.52,0.44,0.36,0.44,0.3,0.5,0.36,0.55,0.44,0.54,0.52,0.55,0.52,0.66,0.66,0.74,0.55,0.36,0.42,0.52,0.44,0.36,0.44,0.3,0.5,0.36,0.55,0.68,0.42,0.36,0.42" style="fill:rgb(0,0,0);font-family:AdvOT1ef757c0;font-size:9.27px;stroke:none;">of PP separator, CN separator and FCCN separator were</text>
   <text y="122.174" x="303.873,308.691,312.546,320.069,324.702,329.714,333.087,335.885,339.258,343.307,346.105,349.959,354.7794,360.283,362.692,367.69780000000003,373.153,377.971,380.38,384.623,389.441,392.814,396.7074,402.124,406.562,408.6014,414.03,419.237,424.4282,429.904,433.276,437.131,441.949,445.998,449.37,453.419,456.217,460.85,464.1872,469.759,473.132,478.052,482.685,488.957,492.812,497.6324,503.095,507.913,512.926,515.335,518.031,522.663,526.036,533.5446999999999,539.039,543.088,548.1" svgx:width="0.52,0.42,0.81,0.5,0.54,0.36,0.3,0.36,0.44,0.3,0.42,0.52,0.55,0.26,0.54,0.55,0.52,0.26,0.46,0.52,0.36,0.42,0.55,0.48,0.22,0.55,0.56,0.56,0.55,0.36,0.42,0.52,0.44,0.36,0.44,0.3,0.5,0.36,0.55,0.36,0.53,0.5,0.68,0.42,0.52,0.55,0.52,0.54,0.26,0.29,0.5,0.36,0.81,0.55,0.44,0.54,0.52" style="fill:rgb(0,0,0);font-family:AdvOT1ef757c0;font-size:9.27px;stroke:none;">demonstrated in Figure 2. PP separator showed uniform and</text>
   <text y="132.832" x="303.873,306.672,310.915,315.733,318.142,321.996,326.045,328.362,330.678,334.9422,341.631,345.486,347.802,350.118,352.527,357.345,360.143,362.552,366.4454,373.153,377.971,382.603,385.976,389.83,393.203,395.2424,401.953,408.226,413.146,415.555,419.409,424.3221,431.037,437.309,441.164,444.536,448.4294,455.131,457.827,462.46,465.833,473.356,477.211,482.0314,488.75,492.994,495.403,499.4818,506.155,510.2338,516.927,521.745,526.758,529.167,533.216,537.552,539.961,544.01,546.326,548.642" svgx:width="0.3,0.46,0.52,0.26,0.42,0.44,0.25,0.25,0.46,0.55,0.42,0.25,0.25,0.26,0.52,0.3,0.26,0.42,0.55,0.52,0.5,0.36,0.42,0.36,0.22,0.55,0.68,0.53,0.26,0.42,0.53,0.55,0.68,0.42,0.36,0.42,0.55,0.29,0.5,0.36,0.81,0.42,0.52,0.55,0.46,0.26,0.44,0.55,0.44,0.55,0.52,0.54,0.26,0.44,0.47,0.26,0.44,0.25,0.25,0.46" style="fill:rgb(0,0,0);font-family:AdvOT1ef757c0;font-size:9.27px;stroke:none;">typically elliptic pores, which were formed via a uniaxially</text>
   <text y="143.433" x="303.873,307.246,310.044,313.417,317.271,320.069,323.924,328.843,331.252,336.265,340.5292,344.296,347.094,350.949,354.803,359.723,364.735,369.368,371.684,376.317,380.56,384.8242,388.574,392.623,395.9602,399.799,403.172,407.026,411.269,415.124,419.173,421.489,425.343,430.1634,433.929,436.338,441.34380000000004,445.097,449.915,452.324,456.567,461.385,464.758,468.65139999999997,472.423,476.861" svgx:width="0.36,0.3,0.36,0.42,0.3,0.42,0.53,0.26,0.54,0.46,0.55,0.3,0.42,0.42,0.53,0.54,0.5,0.25,0.5,0.46,0.46,0.55,0.44,0.36,0.55,0.36,0.42,0.46,0.42,0.44,0.25,0.42,0.52,0.55,0.26,0.54,0.55,0.52,0.26,0.46,0.52,0.36,0.42,0.55,0.48,0.44" style="fill:rgb(0,0,0);font-family:AdvOT1ef757c0;font-size:9.27px;stroke:none;">stretching technology as revealed in Figure 2a</text>
   <text y="140.031" x="480.926" svgx:width="0.48" style="fill:rgb(0,0,0);font-family:AdvOT1ef757c0;font-size:5.13px;stroke:none;">9</text>
   <text y="143.433" x="483.647,485.6864,489.43,495.118,500.038,503.9314,507.685,510.001,514.634,519.646,523.9101999999999,527.642,531.69,536.027,538.436,541.7732000000001,545.557,550.19" svgx:width="0.22,0.55,0.61,0.53,0.42,0.55,0.25,0.5,0.54,0.46,0.55,0.44,0.47,0.26,0.36,0.55,0.5,0.29" style="fill:rgb(0,0,0);font-family:AdvOT1ef757c0;font-size:9.27px;stroke:none;">. The long axis of</text>
   <text y="154.091" x="303.874,306.672,311.592,315.48539999999997,319.125,323.943,328.576,331.948,335.84139999999996,339.535,345.807,349.856,353.1932,356.939,361.378,365.816,370.254,374.979,379.417,383.855,388.3046,391.353,396.365,403.8737,407.623,411.672,416.685,421.5054,425.199,427.997,432.917,436.81039999999996,440.449,443.822,448.742,453.375,456.747,459.528,463.297,467.346,471.682,474.091,477.4282,481.156,485.788,488.47630000000004,492.154,496.203,500.836,505.469,510.287,513.068,516.816,521.254,525.7036,528.778,533.791,541.314,543.3534,547.034,550.119" svgx:width="0.3,0.53,0.42,0.55,0.52,0.5,0.36,0.42,0.55,0.68,0.44,0.36,0.55,0.48,0.48,0.48,0.51,0.48,0.48,0.48,0.55,0.54,0.81,0.55,0.44,0.54,0.52,0.55,0.3,0.53,0.42,0.55,0.36,0.53,0.5,0.36,0.3,0.55,0.44,0.47,0.26,0.36,0.55,0.5,0.29,0.55,0.44,0.5,0.5,0.52,0.3,0.55,0.48,0.48,0.55,0.54,0.81,0.22,0.55,0.33,0.3" style="fill:rgb(0,0,0);font-family:AdvOT1ef757c0;font-size:9.27px;stroke:none;">the pore was 100–500 nm and the short axis of about 50 nm. It</text>
   <text y="164.749" x="303.874,310.147,314.196,317.5332,320.996,325.628,330.261,334.505,336.913,341.546,346.364,349.737,352.053,356.3172,359.831,364.464,369.096,372.469,376.323,379.696,383.939,387.794,392.6144,396.059,398.467,403.4728,406.943,411.761,414.17,418.414,423.232,426.604,430.49739999999997,433.986,438.424,443.05899999999997,446.515,449.314,454.233,458.282,461.063,464.544,470.622,477.4818,480.929,484.301,488.156,492.974,497.022,500.395,504.444,507.242,511.875,515.2122,518.743,522.598,527.23,532.243,535.615,538.024,541.397,544.195,548.049" svgx:width="0.68,0.44,0.36,0.55,0.5,0.5,0.46,0.26,0.5,0.52,0.36,0.25,0.46,0.55,0.5,0.5,0.36,0.42,0.36,0.46,0.42,0.52,0.55,0.26,0.54,0.55,0.52,0.26,0.46,0.52,0.36,0.42,0.55,0.48,0.5,0.55,0.3,0.53,0.44,0.3,0.55,0.66,0.74,0.55,0.36,0.42,0.52,0.44,0.36,0.44,0.3,0.5,0.36,0.55,0.42,0.5,0.54,0.36,0.26,0.36,0.3,0.42,0.52" style="fill:rgb(0,0,0);font-family:AdvOT1ef757c0;font-size:9.27px;stroke:none;">was obviously observed in Figure 2b that CN separator consisted</text>
   <text y="175.35" x="303.874,308.507,311.19530000000003,313.909,317.281,321.33,326.343,331.161,335.793,343.317,345.633,349.8972,352.63,356.679,360.052,363.424,367.473,372.486,376.729,380.584,385.4044,388.177,390.874,393.283,397.915,401.77,405.142,408.4792,411.252,417.524,419.933,422.731,427.6441,430.358,435.176,437.585,441.634,449.157,453.011,455.81,459.664,463.0012,465.791,469.164,471.573,475.427,479.3204,482.062,486.694,489.38230000000004,492.096" svgx:width="0.5,0.29,0.55,0.36,0.44,0.54,0.52,0.5,0.81,0.25,0.46,0.55,0.44,0.36,0.36,0.44,0.54,0.46,0.42,0.52,0.55,0.29,0.26,0.5,0.42,0.36,0.36,0.55,0.68,0.26,0.3,0.53,0.55,0.52,0.26,0.44,0.81,0.42,0.3,0.42,0.36,0.55,0.36,0.26,0.42,0.42,0.55,0.5,0.29,0.55,0.48" style="fill:rgb(0,0,0);font-family:AdvOT1ef757c0;font-size:9.27px;stroke:none;">of randomly arranged fibers with diameter size of 2</text>
   <text y="175.35" x="499.238" svgx:width="0.83" style="fill:rgb(0,0,0);font-family:AdvP414BFB;font-size:9.27px;stroke:none;">6</text>
   <text y="175.35" x="509.67,514.108,516.128" svgx:width="0.48,0.22,0.48" style="fill:rgb(0,0,0);font-family:AdvOT1ef757c0;font-size:9.27px;stroke:none;">0.2</text>
   <text y="175.35" x="523.672" svgx:width="0.55" style="fill:rgb(0,0,0);font-family:AdvP3EAA99;font-size:9.27px;stroke:none;">m</text>
   <text y="175.35" x="528.775,536.2837,539.036,543.085,548.097" svgx:width="0.81,0.55,0.44,0.54,0.52" style="fill:rgb(0,0,0);font-family:AdvOT1ef757c0;font-size:9.27px;stroke:none;">m and</text>
   <text y="186.008" x="303.874,306.283,309.064,311.358,316.176,320.809,324.181,327.554,331.408,334.781,338.153,342.008,346.8284,349.172,353.027,357.363,361.217,365.072,368.444,371.817,374.226,378.469,382.324,384.64,388.9042,391.239,393.555,397.604,400.976,405.22,409.074,412.354,415.727,418.136,421.99,425.844,430.6644,432.965,437.783,442.415,445.788,449.642,452.9792,455.359" svgx:width="0.26,0.3,0.55,0.52,0.5,0.36,0.36,0.42,0.36,0.36,0.42,0.52,0.55,0.42,0.47,0.42,0.42,0.36,0.36,0.26,0.46,0.42,0.25,0.46,0.55,0.25,0.44,0.36,0.46,0.42,0.35,0.36,0.26,0.42,0.42,0.52,0.55,0.52,0.5,0.36,0.42,0.36,0.55,0.34" style="fill:rgb(0,0,0);font-family:AdvOT1ef757c0;font-size:9.27px;stroke:none;">it possessed excessively large-sized pores (</text>
   <text y="186.008" x="458.533" svgx:width="0.83" style="fill:rgb(0,0,0);font-family:AdvP7DA6;font-size:9.27px;stroke:none;">.</text>
   <text y="186.008" x="466.243" svgx:width="0.48" style="fill:rgb(0,0,0);font-family:AdvOT1ef757c0;font-size:9.27px;stroke:none;">4</text>
   <text y="186.008" x="473.783" svgx:width="0.55" style="fill:rgb(0,0,0);font-family:AdvP3EAA99;font-size:9.27px;stroke:none;">m</text>
   <text y="186.008" x="478.886,486.409,489.587,491.6264,493.909,499.311,503.165,507.02,511.069,515.887,519.259,523.1524000000001,525.431,530.063,532.7513,535.069,537.385,541.434,544.806,549.05" svgx:width="0.81,0.34,0.22,0.55,0.58,0.42,0.42,0.44,0.52,0.36,0.42,0.55,0.5,0.29,0.55,0.25,0.44,0.36,0.46,0.42" style="fill:rgb(0,0,0);font-family:AdvOT1ef757c0;font-size:9.27px;stroke:none;">m). Because of large</text>
   <text y="196.666" x="303.875,308.693,313.326,316.698,320.59139999999996,324.512,327.884,330.293,334.148,338.002,340.0414,343.958,348.776,352.148,354.557,357.93,360.728,363.137,368.15,372.04339999999996,375.99,382.068,388.9278,392.884,396.257,400.111,404.929,408.978,412.351,416.4,419.198,423.83,427.1672,431.153,435.396,439.251,444.263,448.117,451.49,455.539,457.855,460.172,464.43620000000004,468.4,471.773,476.591,479.287,481.983,485.837,489.21,493.064,497.8844,501.85,504.546,507.918,512.551,520.0597,524.073,526.482,531.495,534.293,538.147,541.52,546.532,550.581" svgx:width="0.52,0.5,0.36,0.42,0.55,0.36,0.26,0.42,0.42,0.22,0.55,0.52,0.36,0.26,0.36,0.3,0.26,0.54,0.42,0.55,0.66,0.74,0.55,0.36,0.42,0.52,0.44,0.36,0.44,0.3,0.5,0.36,0.55,0.46,0.42,0.54,0.42,0.36,0.44,0.25,0.25,0.46,0.55,0.36,0.52,0.29,0.29,0.42,0.36,0.42,0.52,0.55,0.29,0.36,0.5,0.81,0.55,0.26,0.54,0.3,0.42,0.36,0.54,0.44,0.25" style="fill:rgb(0,0,0);font-family:AdvOT1ef757c0;font-size:9.27px;stroke:none;">pore size, pristine CN separator generally suffered from internal</text>
   <text y="207.267" x="303.875,307.248,312.168,316.8,320.173,322.954,328.197,332.051,334.46,337.833,341.687,346.505,348.914,351.695,356.94,360.989,364.362,368.216,371.589,373.998,378.63,382.485,387.3054,392.544,395.342,399.977,405.187,407.503,409.912,412.71,417.63,420.039,424.857,432.3657,437.615,442.433,446.288,451.3,456.118,459.491,461.9,464.698,468.552,471.8892,477.187,482.005,486.823,490.196,492.605,497.617,501.88120000000004,507.065,509.863,514.783,518.6764000000001,523.846,527.701,532.621,536.67,540.042,544.286,548.14" svgx:width="0.36,0.53,0.5,0.36,0.3,0.55,0.42,0.26,0.36,0.42,0.52,0.26,0.3,0.55,0.44,0.36,0.42,0.36,0.26,0.5,0.42,0.52,0.55,0.3,0.5,0.55,0.25,0.26,0.3,0.53,0.26,0.52,0.81,0.55,0.52,0.42,0.54,0.52,0.36,0.26,0.3,0.42,0.36,0.55,0.52,0.52,0.36,0.26,0.54,0.46,0.55,0.3,0.53,0.42,0.55,0.42,0.53,0.44,0.36,0.46,0.42,0.51" style="fill:rgb(0,0,0);font-family:AdvOT1ef757c0;font-size:9.27px;stroke:none;">short circuit ascribed to lithium dendrites during the charge–</text>
   <text y="217.925" x="303.875,308.693,311.102,314.475,318.329,323.249,327.298,330.67,334.914,338.8074,347.246,352.064,355.437,360.069,363.924,367.778,371.151" svgx:width="0.52,0.26,0.36,0.42,0.53,0.44,0.36,0.46,0.42,0.55,0.52,0.36,0.5,0.42,0.42,0.36,0.36" style="fill:rgb(0,0,0);font-family:AdvOT1ef757c0;font-size:9.27px;stroke:none;">discharge process</text>
   <text y="214.526" x="374.513,377.276" svgx:width="0.48,0.48" style="fill:rgb(0,0,0);font-family:AdvOT1ef757c0;font-size:5.13px;stroke:none;">28</text>
   <text y="217.927" x="380.069,382.1084,390.501,396.579,401.212,408.735,413.553,417.602,420.975,424.829,429.6494,438.124,444.396,446.805,449.603,454.5161,462.899,468.977,475.8368,484.272,487.645,491.499,496.317,500.366,503.739,507.788,510.586,515.218,518.591,520.6304,529.061,533.879,539.957,546.035" svgx:width="0.22,0.55,0.66,0.5,0.81,0.52,0.44,0.36,0.42,0.52,0.55,0.68,0.26,0.3,0.53,0.55,0.66,0.74,0.55,0.36,0.42,0.52,0.44,0.36,0.44,0.3,0.5,0.36,0.22,0.55,0.52,0.66,0.66,0.74" style="fill:rgb(0,0,0);font-family:AdvOT1ef757c0;font-size:9.27px;stroke:none;">. Compared with CN separator, FCCN</text>
   <text y="228.585" x="303.874,307.247,311.101,315.919,319.968,323.341,327.39,330.188,334.82,338.1572,340.838,344.016,348.834,351.243,355.487,360.305,363.677,367.5704,370.205,374.643,378.498,383.223,388.041,391.1928,393.903,398.721,402.094,405.948,409.321,413.175,418.188,420.986,424.84,429.6604,432.285,437.103,439.512,442.884,445.682,449.055,451.464,456.097,460.915,463.806,467.661,472.4814,475.089,479.907,484.539,487.912,491.766,495.1032,497.766,504.039,506.448,509.246,514.1591,516.816,521.634,524.043,528.092,535.615,539.47,542.268,546.122,549.495" svgx:width="0.36,0.42,0.52,0.44,0.36,0.44,0.3,0.5,0.36,0.55,0.34,0.52,0.26,0.46,0.52,0.36,0.42,0.55,0.48,0.42,0.51,0.52,0.34,0.55,0.52,0.36,0.42,0.36,0.42,0.54,0.3,0.42,0.52,0.55,0.52,0.26,0.36,0.3,0.36,0.26,0.5,0.52,0.3,0.42,0.52,0.55,0.52,0.5,0.36,0.42,0.36,0.55,0.68,0.26,0.3,0.53,0.55,0.52,0.26,0.44,0.81,0.42,0.3,0.42,0.36,0.36" style="fill:rgb(0,0,0);font-family:AdvOT1ef757c0;font-size:9.27px;stroke:none;">separator (Figure 2c–d) presented distributed pores with diameters</text>
   <text y="239.243" x="303.874,307.247,311.296,316.308,320.552,322.961,327.973,332.23720000000003,336.246,338.942,342.315,346.948,354.45669999999996,358.47,362.908,367.346,371.7956,374.855,379.867,387.3757,391.353,394.151,398.786,402.804,407.243,411.681,416.13059999999996,419.189,424.202,431.725,433.7644,437.785,444.057,448.977,451.386,455.241,460.15409999999997,464.147,470.42,474.469,477.8062,481.836,485.69,490.026,494.844,498.698,502.553,505.351,509.205,514.0254,518.063,520.861,525.496,529.458,534.276,536.593,540.642,544.9062,548.848" svgx:width="0.36,0.44,0.54,0.46,0.26,0.54,0.46,0.55,0.29,0.36,0.5,0.81,0.55,0.48,0.48,0.48,0.55,0.54,0.81,0.55,0.3,0.5,0.55,0.48,0.48,0.48,0.55,0.54,0.81,0.22,0.55,0.68,0.53,0.26,0.42,0.53,0.55,0.68,0.44,0.36,0.55,0.42,0.47,0.52,0.42,0.42,0.3,0.42,0.52,0.55,0.3,0.5,0.55,0.52,0.25,0.44,0.46,0.55,0.44" style="fill:rgb(0,0,0);font-family:AdvOT1ef757c0;font-size:9.27px;stroke:none;">ranging from 100 nm to 200 nm, which was expected to play a</text>
   <text y="249.845" x="303.874,307.729,311.101,313.51,316.308,318.717,322.572,326.62,328.9375,333.978,337.351,341.983,344.3,348.1934,353.141,355.549,360.5548,365.613,370.431,373.804,377.658,381.902,385.756,390.769,393.567,395.976,400.988,405.2522,410.288,412.697,417.709,420.508,424.362,427.734,432.747,436.796,439.1135,444.134,447.507,452.426,457.059,460.432,463.23,466.51,470.364,472.773,476.146,480.0,484.818,487.227,490.025,493.398,495.4374,500.487,504.536,508.78,513.413,515.822,520.639,523.048,528.061,532.3252,537.395,540.767,544.622,546.938,549.634" svgx:width="0.42,0.36,0.26,0.3,0.26,0.42,0.44,0.25,0.55,0.36,0.5,0.25,0.42,0.55,0.26,0.54,0.55,0.52,0.36,0.42,0.46,0.42,0.54,0.3,0.26,0.54,0.46,0.55,0.26,0.54,0.3,0.42,0.36,0.54,0.44,0.25,0.55,0.36,0.53,0.5,0.36,0.3,0.35,0.42,0.26,0.36,0.42,0.52,0.26,0.3,0.36,0.22,0.55,0.44,0.46,0.5,0.26,0.52,0.26,0.54,0.46,0.55,0.36,0.42,0.25,0.29,0.35" style="fill:rgb(0,0,0);font-family:AdvOT1ef757c0;font-size:9.27px;stroke:none;">critical role in preventing internal short-circuits, avoiding self-</text>
   <text y="260.503" x="303.874,308.692,311.101,314.474,318.328,323.248,327.297,330.669,334.913,338.8064,343.843,347.892,352.904,357.7244,362.722,366.771,370.625,375.545,377.954,381.808,386.052,388.461,393.473,397.73720000000003,402.804,407.622,412.635,415.044,417.74,422.373,425.745,433.2537,438.352,442.206,447.024,450.397,453.769,457.623,462.636,465.41700000000003,470.497,475.315,479.169,484.182,487.554,489.963,492.761,497.02520000000004,502.018,505.872,509.245,514.063,517.917,521.861,524.27,528.319,530.635,532.951,537.2152,542.214,544.91,549.543" svgx:width="0.52,0.26,0.36,0.42,0.53,0.44,0.36,0.46,0.42,0.55,0.44,0.54,0.52,0.55,0.44,0.42,0.53,0.26,0.42,0.46,0.26,0.54,0.46,0.55,0.52,0.54,0.26,0.29,0.5,0.36,0.81,0.55,0.42,0.52,0.36,0.36,0.42,0.54,0.3,0.55,0.52,0.42,0.54,0.36,0.26,0.3,0.46,0.55,0.42,0.36,0.52,0.42,0.42,0.26,0.44,0.25,0.25,0.46,0.55,0.29,0.5,0.36" style="fill:rgb(0,0,0);font-family:AdvOT1ef757c0;font-size:9.27px;stroke:none;">discharge and achieving uniform current density especially for</text>
   <text y="271.16" x="303.874,308.507,312.556,315.354,318.152,322.006,325.379,327.788,331.642,334.9792,339.478,344.111,348.929,352.783,356.156,360.204,363.003,365.412,370.424,374.6882,379.107,383.156,385.937,390.389,395.309,397.718,401.961,406.8741,411.309,415.163,420.083,424.132,427.505,431.748,435.603,438.586,443.404,445.813,449.186,453.04,457.96,462.009,465.381,469.625,473.5184,477.981,481.354,485.403,488.201,492.055" svgx:width="0.5,0.44,0.3,0.3,0.42,0.36,0.26,0.42,0.36,0.55,0.5,0.52,0.42,0.36,0.44,0.3,0.26,0.54,0.46,0.55,0.44,0.3,0.55,0.53,0.26,0.46,0.53,0.55,0.42,0.53,0.44,0.36,0.46,0.42,0.32,0.52,0.26,0.36,0.42,0.53,0.44,0.36,0.46,0.42,0.55,0.36,0.44,0.3,0.42,0.36" style="fill:rgb(0,0,0);font-family:AdvOT1ef757c0;font-size:9.27px;stroke:none;">batteries operating at high charge/discharge rates</text>
   <text y="267.704" x="495.439,498.202" svgx:width="0.48,0.48" style="fill:rgb(0,0,0);font-family:AdvOT1ef757c0;font-size:5.13px;stroke:none;">29</text>
   <text y="271.162" x="500.938,502.9774,507.401,510.486,515.4918,519.874,523.923,528.741,533.559,535.968,538.766,541.175,545.807,550.82" svgx:width="0.22,0.55,0.33,0.54,0.55,0.44,0.52,0.52,0.26,0.3,0.26,0.5,0.54,0.22" style="fill:rgb(0,0,0);font-family:AdvOT1ef757c0;font-size:9.27px;stroke:none;">. In addition,</text>
   <text y="281.763" x="303.875,306.673,311.593,314.002,317.3392,321.62,324.418,329.05,332.423,335.221,340.039,344.672,349.49,352.8272,357.109,360.482,363.28,366.653,371.471,375.325,378.123,382.941,386.314,390.2074,394.471,400.743,404.792,408.12919999999997,412.443,415.139,419.188,423.431,428.064,432.882,436.255,440.304,444.936,447.253,451.14639999999997,455.36,458.158,462.793,467.039,471.857,475.229,479.083,483.327,487.181,492.194,494.975,499.298,502.096,507.016,510.9094,515.115,519.359,522.731,527.364,533.637,536.435,541.3480999999999,545.56,550.193" svgx:width="0.3,0.53,0.26,0.36,0.55,0.3,0.5,0.36,0.3,0.52,0.5,0.52,0.36,0.55,0.36,0.3,0.36,0.52,0.42,0.3,0.52,0.36,0.42,0.55,0.68,0.44,0.36,0.55,0.29,0.44,0.46,0.5,0.52,0.36,0.44,0.5,0.25,0.42,0.55,0.3,0.5,0.55,0.52,0.36,0.42,0.46,0.42,0.54,0.3,0.55,0.3,0.53,0.42,0.55,0.46,0.36,0.5,0.68,0.3,0.53,0.55,0.5,0.29" style="fill:rgb(0,0,0);font-family:AdvOT1ef757c0;font-size:9.27px;stroke:none;">this tortuous structure was favourable to prevent the growth of</text>
   <text y="292.421" x="303.875,306.191,308.6,311.398,316.318,318.727,323.545,331.0537,333.469,338.287,342.141,347.154,351.972,355.344,357.753,360.551,364.406,367.778,369.8174,372.305,378.577,383.497,385.906,389.76,394.6731,397.08,403.353,407.401,410.7382,413.238,417.287,422.105,426.348,430.397,435.41,438.208,442.257,446.5,450.354,454.987,459.805,463.1422,465.623,468.421,473.056,475.488,480.12,484.169,486.967,489.765,493.62,496.992,501.25620000000004,503.664,507.037,511.086,513.782,517.636,520.434" svgx:width="0.25,0.26,0.3,0.53,0.26,0.52,0.81,0.55,0.52,0.42,0.54,0.52,0.36,0.26,0.3,0.42,0.36,0.22,0.55,0.68,0.53,0.26,0.42,0.53,0.55,0.68,0.44,0.36,0.55,0.44,0.52,0.46,0.44,0.54,0.3,0.44,0.46,0.42,0.5,0.52,0.36,0.55,0.3,0.5,0.55,0.5,0.44,0.3,0.3,0.42,0.36,0.46,0.55,0.36,0.44,0.29,0.42,0.3,0.46" style="fill:rgb(0,0,0);font-family:AdvOT1ef757c0;font-size:9.27px;stroke:none;">lithium dendrites, which was advantageous to battery safety</text>
   <text y="289.02" x="524.693,527.455,530.218,531.475,534.238" svgx:width="0.48,0.48,0.22,0.48,0.48" style="fill:rgb(0,0,0);font-family:AdvOT1ef757c0;font-size:5.13px;stroke:none;">33,34</text>
   <text y="292.422" x="536.995" svgx:width="0.22" style="fill:rgb(0,0,0);font-family:AdvOT1ef757c0;font-size:9.27px;stroke:none;">.</text>
   <text y="303.307" x="313.116,318.323,323.243,327.486,330.859,333.268,337.122,341.171,343.4885,347.926,351.974,356.987,361.80740000000003,366.237,370.092,372.408,376.263,380.117,382.915,386.288,390.92,394.775,399.694,403.549,411.072,413.481,417.336,421.385,423.7025,428.147,432.965,437.014,440.387,444.436,451.959,455.814,458.612,462.466,465.839,469.1762,473.672,478.305,480.99330000000003,485.408,490.615,495.8062,500.261,503.634,507.488,512.306,516.355,519.727,523.776,526.574,531.207,534.5442,539.039,543.088,548.101" svgx:width="0.56,0.53,0.46,0.36,0.26,0.42,0.44,0.25,0.55,0.44,0.54,0.52,0.55,0.42,0.25,0.42,0.42,0.3,0.36,0.5,0.42,0.53,0.42,0.81,0.26,0.42,0.44,0.25,0.55,0.52,0.44,0.36,0.44,0.81,0.42,0.3,0.42,0.36,0.36,0.55,0.5,0.29,0.55,0.56,0.56,0.55,0.36,0.42,0.52,0.44,0.36,0.44,0.3,0.5,0.36,0.55,0.44,0.54,0.52" style="fill:rgb(0,0,0);font-family:AdvOT1ef757c0;font-size:9.27px;stroke:none;">Physical and electrochemical parameters of PP separator and</text>
   <text y="313.908" x="303.875,308.693,314.771,320.849,327.7088,331.768,335.14,338.995,343.813,347.862,351.234,355.283,358.081,362.714,366.0512,370.149,376.422,380.276,383.649,387.5424,391.579,393.895,396.304,399.677,402.475,406.329,411.1494,415.22,417.629,422.63480000000004,426.672,432.361,436.41,441.043,443.359,447.25239999999997,451.277,455.715,457.7544,461.766,464.851,467.632,471.687,475.059,479.979,484.612,489.43,491.746,496.5664,500.658,505.29,509.1834,513.187,518.2,522.832,525.63,529.485,534.3054,538.359,541.157,546.077,550.126" svgx:width="0.52,0.66,0.66,0.74,0.55,0.36,0.42,0.52,0.44,0.36,0.44,0.3,0.5,0.36,0.55,0.68,0.42,0.36,0.42,0.55,0.25,0.26,0.36,0.3,0.42,0.52,0.55,0.26,0.54,0.55,0.61,0.44,0.5,0.25,0.42,0.55,0.48,0.22,0.55,0.33,0.3,0.55,0.36,0.53,0.5,0.52,0.25,0.52,0.55,0.5,0.42,0.55,0.54,0.5,0.3,0.42,0.52,0.55,0.3,0.53,0.44,0.3" style="fill:rgb(0,0,0);font-family:AdvOT1ef757c0;font-size:9.27px;stroke:none;">FCCN separator were listed in Table 1. It should be noted that</text>
   <text y="324.566" x="303.875,310.434,315.252,318.625,320.941,324.796,329.0602,332.051,336.295,340.344,342.66,347.478,351.3714,354.388,359.021,361.70930000000004,364.763,369.581,375.659,381.737,388.59680000000003,391.636,395.009,398.863,403.681,407.73,411.103,415.152,417.95,422.583,425.9202,428.998,435.27,439.319,442.6562,445.779,450.217,454.66659999999996,457.742,461.114,463.1534,466.132,472.405,477.325,479.734,483.588,488.5011,491.588,497.86,501.909,505.2462,508.313,515.836,520.654,524.508,529.4211,532.464,534.781,539.413,545.686,549.54" svgx:width="0.71,0.52,0.36,0.25,0.42,0.46,0.55,0.46,0.44,0.25,0.52,0.42,0.55,0.5,0.29,0.55,0.52,0.66,0.66,0.74,0.55,0.36,0.42,0.52,0.44,0.36,0.44,0.3,0.5,0.36,0.55,0.68,0.44,0.36,0.55,0.48,0.48,0.55,0.36,0.22,0.55,0.68,0.53,0.26,0.42,0.53,0.55,0.68,0.44,0.36,0.55,0.81,0.52,0.42,0.53,0.55,0.25,0.5,0.68,0.42,0.36" style="fill:rgb(0,0,0);font-family:AdvOT1ef757c0;font-size:9.27px;stroke:none;">Gurley value of FCCN separator was 45 s, which was much lower</text>
   <text y="335.224" x="303.875,306.673,311.593,315.642,320.6478,324.511,327.309,332.229,336.278,339.059,342.936,347.569,350.25730000000004,354.161,359.368,364.5592,368.448,371.821,375.675,380.493,384.542,387.915,391.964,394.762,399.394,402.7312,406.66,409.838,414.276,418.714,423.1636,426.276,429.648,432.826,434.8654,438.691,441.777,444.558,448.442,454.715,458.764,462.1012,466.017,472.29,476.144,478.461,480.7785,484.669,489.2,494.213,498.845,505.118,510.1238,514.037,516.835,521.755,525.804,528.5849999999999,532.462,534.778,539.411,545.683,549.538" svgx:width="0.3,0.53,0.44,0.54,0.55,0.3,0.53,0.44,0.3,0.55,0.5,0.29,0.55,0.56,0.56,0.55,0.36,0.42,0.52,0.44,0.36,0.44,0.3,0.5,0.36,0.55,0.34,0.48,0.48,0.48,0.55,0.36,0.34,0.22,0.55,0.33,0.3,0.55,0.68,0.44,0.36,0.55,0.68,0.42,0.25,0.25,0.55,0.49,0.54,0.5,0.68,0.54,0.55,0.3,0.53,0.44,0.3,0.55,0.25,0.5,0.68,0.42,0.36" style="fill:rgb(0,0,0);font-family:AdvOT1ef757c0;font-size:9.27px;stroke:none;">than that of PP separator (235 s). It was well known that lower</text>
   <text y="345.825" x="303.875,310.434,315.252,318.625,320.941,324.796,329.0602,332.675,336.918,340.967,343.284,348.102,351.99539999999996,355.636,360.269,362.95730000000003,366.635,371.453,377.531,383.609,390.4688,394.075,397.448,401.302,406.12,410.169,413.541,417.59,420.389,425.021,428.3582,432.117,438.389,442.438,445.7752,449.465,453.514,456.312,459.11,462.483,464.892,469.524,474.342,477.14,480.995,485.8154,489.491,492.289,496.924,500.546,505.466,507.875,512.119,517.039,519.355,523.6192,527.249,532.067,536.7,540.072,544.705,549.523" svgx:width="0.71,0.52,0.36,0.25,0.42,0.46,0.55,0.46,0.44,0.25,0.52,0.42,0.55,0.5,0.29,0.55,0.52,0.66,0.66,0.74,0.55,0.36,0.42,0.52,0.44,0.36,0.44,0.3,0.5,0.36,0.55,0.68,0.44,0.36,0.55,0.44,0.3,0.3,0.36,0.26,0.5,0.52,0.3,0.42,0.52,0.55,0.3,0.5,0.55,0.53,0.26,0.46,0.53,0.25,0.46,0.55,0.52,0.5,0.36,0.5,0.52,0.36" style="fill:rgb(0,0,0);font-family:AdvOT1ef757c0;font-size:9.27px;stroke:none;">Gurley value of FCCN separator was attributed to highly porous</text>
   <text y="356.483" x="303.875,307.247,310.045,313.418,318.236,322.09,324.888,329.706,333.079,336.9724,341.293,345.925,348.61330000000004,352.971,355.77,360.689,364.5824,368.902,376.426,380.28,387.803,392.436,395.809,399.858,404.959,408.813,410.8524,415.164,421.436,426.356,428.765,432.62,437.5331,441.923,448.196,452.245,455.5822,459.951,466.224,470.078,472.395,474.7125,479.057,482.912,487.544,492.557,495.93,498.338,501.711,504.509,508.364,513.376,516.1569999999999,520.558,526.83,529.239,532.037,536.9501,541.364,544.162,549.082" svgx:width="0.36,0.3,0.36,0.52,0.42,0.3,0.52,0.36,0.42,0.55,0.5,0.29,0.55,0.3,0.53,0.42,0.55,0.81,0.42,0.81,0.5,0.36,0.44,0.54,0.42,0.22,0.55,0.68,0.53,0.26,0.42,0.53,0.55,0.68,0.44,0.36,0.55,0.68,0.42,0.25,0.25,0.55,0.42,0.5,0.54,0.36,0.26,0.36,0.3,0.42,0.54,0.3,0.55,0.68,0.26,0.3,0.53,0.55,0.3,0.53,0.42" style="fill:rgb(0,0,0);font-family:AdvOT1ef757c0;font-size:9.27px;stroke:none;">structure of the membrane, which was well consistent with the</text>
   <text y="367.141" x="303.875,308.211,313.418,321.5756,325.248,329.297,334.309,338.358,340.675,344.918,348.291,350.7,354.072,356.1114,359.717,365.406,370.326,374.2194,377.802,380.211,387.735,392.553,395.925,400.558,404.801,408.656,416.179,420.034,425.046,427.827,431.548,433.957,438.9628,442.547,445.345,450.264,454.1574,457.741,465.264,467.673,471.527,474.9,479.533,484.351,488.983,492.356,496.988,501.905,505.24219999999997,508.878,512.25,515.048,518.421,523.239,527.093,529.891,534.709,538.082,541.9754,545.615,550.248" svgx:width="0.47,0.56,0.88,0.55,0.44,0.54,0.44,0.25,0.46,0.36,0.26,0.36,0.22,0.55,0.61,0.53,0.42,0.55,0.26,0.81,0.52,0.36,0.5,0.46,0.42,0.81,0.42,0.54,0.3,0.55,0.26,0.54,0.55,0.3,0.53,0.42,0.55,0.81,0.26,0.42,0.36,0.5,0.52,0.5,0.36,0.5,0.52,0.36,0.55,0.36,0.3,0.36,0.52,0.42,0.3,0.52,0.36,0.42,0.55,0.5,0.29" style="fill:rgb(0,0,0);font-family:AdvOT1ef757c0;font-size:9.27px;stroke:none;">SEM analysis. The improvement in the microporous structure of</text>
   <text y="377.742" x="303.875,306.673,311.593,315.4864,319.578,322.951,326.805,331.623,335.672,339.045,343.094,345.892,350.525,353.8622,358.016,364.289,368.338,371.6752,375.875,378.572,383.389,386.762,389.56,394.48,398.334,401.6712,405.866,409.72,414.353,419.366,422.062,424.471,427.843,435.367,439.221,444.0414,448.216,452.849,457.1132,461.198,463.997,468.916,472.8094,476.902,481.72,486.353,489.725,494.358,497.731,500.14,502.938,507.181,509.2204,513.357,520.204,524.836,529.08,531.489,536.121,540.939,544.312,546.628,550.872" svgx:width="0.3,0.53,0.42,0.55,0.36,0.42,0.52,0.44,0.36,0.44,0.3,0.5,0.36,0.55,0.68,0.44,0.36,0.55,0.29,0.52,0.36,0.3,0.53,0.42,0.36,0.55,0.42,0.5,0.54,0.29,0.26,0.36,0.81,0.42,0.52,0.55,0.5,0.46,0.55,0.3,0.53,0.42,0.55,0.52,0.5,0.36,0.5,0.36,0.26,0.3,0.46,0.22,0.55,0.74,0.5,0.46,0.26,0.5,0.52,0.36,0.25,0.46,0.22" style="fill:rgb(0,0,0);font-family:AdvOT1ef757c0;font-size:9.27px;stroke:none;">the separator was further confirmed by the porosity. Obviously,</text>
   <text y="388.4" x="303.875,306.673,311.593,315.4864,318.615,323.433,328.065,331.438,336.071,339.443,341.852,344.65,348.9142,352.064,356.697,359.38530000000003,362.553,367.371,373.449,379.527,386.3868,389.539,392.911,396.766,401.584,405.633,409.005,413.054,415.852,420.485,423.8222,427.07,430.248,434.686,439.124,446.073,449.22479999999996,452.412,458.685,462.734,466.0712,469.25,471.946,475.995,478.404,481.777,484.093,488.35720000000003,491.53,496.45,498.859,503.103,508.022,511.877,515.2142,518.403,521.201,526.121,530.17,535.1758,538.36,541.158,546.078,550.127" svgx:width="0.3,0.53,0.42,0.55,0.52,0.5,0.36,0.5,0.36,0.26,0.3,0.46,0.55,0.5,0.29,0.55,0.52,0.66,0.66,0.74,0.55,0.36,0.42,0.52,0.44,0.36,0.44,0.3,0.5,0.36,0.55,0.34,0.48,0.48,0.75,0.34,0.55,0.68,0.44,0.36,0.55,0.29,0.44,0.26,0.36,0.25,0.46,0.55,0.53,0.26,0.46,0.53,0.42,0.36,0.55,0.3,0.53,0.44,0.54,0.55,0.3,0.53,0.44,0.3" style="fill:rgb(0,0,0);font-family:AdvOT1ef757c0;font-size:9.27px;stroke:none;">the porosity of FCCN separator (70%) was fairly higher than that</text>
   <text y="399.058" x="303.875,308.507,311.19530000000003,313.739,318.946,324.1372,326.778,330.151,334.005,338.823,342.872,346.245,350.294,353.092,357.725,361.0622,363.686,366.864,371.302,375.74,382.689,385.867,387.9064,390.502,396.191,400.824,404.197,406.995,411.813,416.445,419.818,422.227,425.025,429.2892,431.832,438.105,442.154,445.4912,448.103,452.921,456.293,460.148,464.96840000000003,467.605,470.404,475.039,477.583,482.401,485.774,490.406,494.65,497.059,501.877,505.7704,508.312,510.721,515.733,518.429,523.062,526.435,533.958,538.007,540.805,543.214,547.847" svgx:width="0.5,0.29,0.55,0.56,0.56,0.55,0.36,0.42,0.52,0.44,0.36,0.44,0.3,0.5,0.36,0.55,0.34,0.48,0.48,0.75,0.34,0.22,0.55,0.61,0.5,0.36,0.3,0.52,0.5,0.36,0.26,0.3,0.46,0.55,0.68,0.44,0.36,0.55,0.52,0.36,0.42,0.52,0.55,0.3,0.5,0.55,0.52,0.36,0.5,0.46,0.26,0.52,0.42,0.55,0.26,0.54,0.29,0.5,0.36,0.81,0.44,0.3,0.26,0.5,0.54" style="fill:rgb(0,0,0);font-family:AdvOT1ef757c0;font-size:9.27px;stroke:none;">of PP separator (55%). Tortuosity was used to provide information</text>
   <text y="409.659" x="303.875,307.247,311.102,315.345,319.394,322.767,327.585,329.993,335.006,339.2702,341.406,344.204,349.124,353.0174,355.126,357.924,361.296,365.345,370.358,373.73,378.548,383.181,386.553,389.334,391.523,396.156,398.84430000000003,400.992,403.401,408.033,413.046,416.3832,418.567,423.2,428.2058,430.302,433.1,438.02,441.91339999999997,444.022,447.877,450.573,453.269,457.124,460.978,463.759,465.963,470.595,473.28330000000005,475.431,480.249,484.881,488.254,492.1474,494.253,498.886,501.202,505.835,509.689,514.22,518.269,522.513,526.367,528.4064,530.537,536.81,541.73,544.139,547.993" svgx:width="0.36,0.42,0.46,0.44,0.36,0.52,0.26,0.54,0.46,0.55,0.3,0.53,0.42,0.55,0.3,0.36,0.44,0.54,0.36,0.52,0.5,0.36,0.3,0.55,0.5,0.29,0.55,0.26,0.5,0.54,0.36,0.55,0.5,0.54,0.55,0.3,0.53,0.42,0.55,0.42,0.29,0.29,0.42,0.42,0.3,0.55,0.5,0.29,0.55,0.52,0.5,0.36,0.42,0.55,0.5,0.25,0.5,0.42,0.49,0.44,0.46,0.42,0.22,0.55,0.68,0.53,0.26,0.42,0.53" style="fill:rgb(0,0,0);font-family:AdvOT1ef757c0;font-size:9.27px;stroke:none;">regarding the transport of ions on the effect of pore blockage, which</text>
   <text y="420.317" x="303.875,310.147,314.196,317.5332,319.182,323.036,327.085,329.401,333.256,338.074,340.39,344.439,347.237,351.092,355.9124,357.563,360.26,363.632,368.265,377.406,380.204,385.124,389.0174,390.615,395.433,400.066,403.439,408.071,411.444,413.853,416.651,420.9152,422.534,426.583,431.596,436.4164,438.069,440.867,445.787,449.68039999999996,451.278,453.687,458.32,463.332,465.741,469.63439999999997,471.235,475.089,479.722,484.734,489.552,494.37,498.225,501.023,503.432,507.675,510.084,512.882" svgx:width="0.68,0.44,0.36,0.55,0.42,0.44,0.25,0.42,0.52,0.25,0.44,0.3,0.42,0.52,0.55,0.29,0.36,0.5,0.81,0.3,0.53,0.42,0.55,0.52,0.5,0.36,0.5,0.36,0.26,0.3,0.46,0.55,0.44,0.54,0.52,0.55,0.3,0.53,0.42,0.55,0.26,0.5,0.54,0.26,0.42,0.55,0.42,0.5,0.54,0.52,0.52,0.42,0.3,0.26,0.46,0.26,0.3,0.46" style="fill:rgb(0,0,0);font-family:AdvOT1ef757c0;font-size:9.27px;stroke:none;">was calculated fromthe porosity and the ionic conductivity</text>
   <text y="416.92" x="517.153,519.915" svgx:width="0.48,0.48" style="fill:rgb(0,0,0);font-family:AdvOT1ef757c0;font-size:5.13px;stroke:none;">35</text>
   <text y="420.321" x="522.652,524.6914,526.337,532.026,536.074,540.707,543.023,546.9164000000001,548.504" svgx:width="0.22,0.55,0.61,0.44,0.5,0.25,0.42,0.55,0.48" style="fill:rgb(0,0,0);font-family:AdvOT1ef757c0;font-size:9.27px;stroke:none;">. Table 1</text>
   <text y="430.979" x="303.874,307.728,312.361,319.884,324.702,328.751,332.124,335.978,340.7984,342.483,345.281,349.913,353.286,356.084,360.902,365.535,368.907,371.316,374.114,378.3782,380.013,383.868,387.917,390.233,394.087,398.905,401.222,405.271,408.069,411.923,416.7434,418.452,423.084,425.77230000000003,427.409,432.616,437.80719999999997,439.485,442.857,446.712,451.53,455.579,458.951,463.0,465.798,470.431,473.7682,475.485,479.534,484.547,489.36740000000003,491.076,495.894,501.972,508.05,516.531,519.904,523.758,528.576,532.625,535.998,540.047,542.845,547.477,550.85" svgx:width="0.42,0.5,0.81,0.52,0.44,0.36,0.42,0.52,0.55,0.3,0.5,0.36,0.3,0.52,0.5,0.36,0.26,0.3,0.46,0.55,0.42,0.44,0.25,0.42,0.52,0.25,0.44,0.3,0.42,0.52,0.55,0.5,0.29,0.55,0.56,0.56,0.55,0.36,0.42,0.52,0.44,0.36,0.44,0.3,0.5,0.36,0.55,0.44,0.54,0.52,0.55,0.52,0.66,0.66,0.74,0.36,0.42,0.52,0.44,0.36,0.44,0.3,0.5,0.36,0.22" style="fill:rgb(0,0,0);font-family:AdvOT1ef757c0;font-size:9.27px;stroke:none;">compared tortuosity calculated of PP separator and FCCNseparator.</text>
   <text y="441.637" x="303.874,310.239,313.5762,315.326,317.735,321.0722,322.809,329.082,332.936,335.253,337.5705,339.251,343.781,348.794,353.427,359.699,364.712" svgx:width="0.69,0.36,0.55,0.26,0.36,0.55,0.68,0.42,0.25,0.25,0.55,0.49,0.54,0.5,0.68,0.54,0.22" style="fill:rgb(0,0,0);font-family:AdvOT1ef757c0;font-size:9.27px;stroke:none;">As is well known,</text>
   <text y="441.637" x="368.504" svgx:width="0.44" style="fill:rgb(0,0,0);font-family:AdvP43B38B;font-size:9.27px;stroke:none;">t</text>
   <text y="441.637" x="374.23" svgx:width="0.83" style="fill:rgb(0,0,0);font-family:AdvP7DA6;font-size:9.27px;stroke:none;">.</text>
   <text y="441.637" x="383.641,388.0906,389.821,392.23,395.5672,397.304,401.548,406.18,410.813,415.6334,417.317,420.014,424.646,427.9832,429.733,434.551,438.405,443.418,448.236,451.608,454.017,456.815,460.7084,462.445,465.818,469.672,473.044,475.453,478.826,481.624,485.673,490.686,494.54,498.4334,500.146,504.779,509.597,512.3779999999999,514.093,517.948,521.997,527.0028,528.721,531.037,534.891,538.94,543.7604,545.502,548.3" svgx:width="0.48,0.55,0.26,0.36,0.55,0.46,0.5,0.5,0.52,0.55,0.29,0.5,0.36,0.55,0.52,0.42,0.54,0.52,0.36,0.26,0.3,0.42,0.55,0.36,0.42,0.36,0.26,0.36,0.3,0.44,0.54,0.42,0.42,0.55,0.5,0.52,0.3,0.55,0.42,0.44,0.54,0.55,0.25,0.42,0.44,0.52,0.55,0.3,0.5" style="fill:rgb(0,0,0);font-family:AdvOT1ef757c0;font-size:9.27px;stroke:none;">1 is good for dendrite resistance but can lead to</text>
   <text y="452.238" x="303.874,308.794,311.203,315.446,320.366,324.221,327.5582,329.669,333.042,336.896,341.714,345.763,349.136,353.185,355.983,360.616,363.9532,366.067,369.44,373.294,376.667,379.076,382.448,385.246,389.295,394.308,398.162,402.124,404.1634,406.206,413.248,417.102,420.475,424.3684,426.389,429.187,434.107" svgx:width="0.53,0.26,0.46,0.53,0.42,0.36,0.55,0.36,0.42,0.52,0.44,0.36,0.44,0.3,0.5,0.36,0.55,0.36,0.42,0.36,0.26,0.36,0.3,0.44,0.54,0.42,0.42,0.22,0.55,0.76,0.42,0.36,0.42,0.55,0.3,0.53,0.42" style="fill:rgb(0,0,0);font-family:AdvOT1ef757c0;font-size:9.27px;stroke:none;">higher separator resistance. Here the</text>
   <text y="452.238" x="440.05" svgx:width="0.44" style="fill:rgb(0,0,0);font-family:AdvP43B38B;font-size:9.27px;stroke:none;">t</text>
   <text y="452.238" x="446.116,450.359,454.408,456.725,461.542,465.43539999999996,467.489,472.122,474.81030000000004,476.9,481.718,487.796,493.874,500.73380000000003,502.808,506.181,510.035,514.853,518.902,522.275,526.324,529.122,533.754,537.0912000000001,539.206,545.479,549.528" svgx:width="0.46,0.44,0.25,0.52,0.42,0.55,0.5,0.29,0.55,0.52,0.66,0.66,0.74,0.55,0.36,0.42,0.52,0.44,0.36,0.44,0.3,0.5,0.36,0.55,0.68,0.44,0.36" style="fill:rgb(0,0,0);font-family:AdvOT1ef757c0;font-size:9.27px;stroke:none;">value of FCCN separator was</text>
   <text y="462.896" x="303.874,308.507,313.139,316.512,320.366,323.739,327.982,331.837,336.6574,338.74,341.538,346.173,348.208,352.062,357.074,360.929,365.561,373.085,377.903,381.952,385.324,388.6612,390.784,393.101,397.733,404.006,407.86,411.1972,413.292,416.09,420.722,424.095,426.893,431.711,436.344,439.716,442.125,444.923,449.1872,451.22,455.464,459.513,461.829,466.647,470.5404,472.593,476.448,481.08,488.604,493.422,497.471,500.843,504.698,509.5184,511.598,514.396,519.031,521.067,526.274,531.4652,533.539,536.911,540.765,545.583,549.632" svgx:width="0.5,0.5,0.36,0.42,0.36,0.46,0.42,0.52,0.55,0.3,0.5,0.55,0.42,0.54,0.42,0.5,0.81,0.52,0.44,0.36,0.36,0.55,0.25,0.5,0.68,0.42,0.36,0.55,0.3,0.5,0.36,0.3,0.52,0.5,0.36,0.26,0.3,0.46,0.55,0.46,0.44,0.25,0.52,0.42,0.55,0.42,0.5,0.81,0.52,0.44,0.36,0.42,0.52,0.55,0.3,0.5,0.55,0.56,0.56,0.55,0.36,0.42,0.52,0.44,0.35" style="fill:rgb(0,0,0);font-family:AdvOT1ef757c0;font-size:9.27px;stroke:none;">observed to encompass lower tortuosity value compared to PP sepa-</text>
   <text y="473.554" x="303.874,307.247,311.295,314.094,318.726,322.0632,324.964,327.66,331.709,335.952,340.585,343.958,346.366,351.379,355.64320000000004,358.526,361.324,366.244,370.1374,372.926,377.744,381.599,386.611,391.429,394.802,397.211,400.009,403.9024,406.773,410.145,413.999,417.372,419.781,423.154,425.952,430.001,435.013,438.868,442.7614,445.608,449.657,452.9942,455.926,462.199,466.053,468.369,470.6865,473.501,477.55,480.8872,483.819,487.192,491.046,495.864,500.682,504.536,506.945,511.958,516.2222,519.083,521.881,526.801,530.6944000000001,533.539,536.912,540.766,545.584,549.633" svgx:width="0.36,0.44,0.3,0.5,0.36,0.55,0.29,0.44,0.46,0.5,0.36,0.26,0.54,0.46,0.55,0.3,0.53,0.42,0.55,0.52,0.42,0.54,0.52,0.36,0.26,0.3,0.42,0.55,0.36,0.42,0.36,0.26,0.36,0.3,0.44,0.54,0.42,0.42,0.55,0.44,0.36,0.55,0.68,0.42,0.25,0.25,0.55,0.44,0.36,0.55,0.36,0.42,0.52,0.52,0.42,0.26,0.54,0.46,0.55,0.3,0.53,0.42,0.55,0.36,0.42,0.52,0.44,0.35" style="fill:rgb(0,0,0);font-family:AdvOT1ef757c0;font-size:9.27px;stroke:none;">rator favoring the dendrite resistance as well as reducing the sepa-</text>
   <text y="484.155" x="303.874,307.247,311.295,314.094,318.726,322.0632,327.628,331.001,334.855,338.228,340.637,344.009,346.807,350.856,355.869,359.723,363.6164,369.128,372.5,376.355,380.404,383.776,388.409,393.421,397.47,402.103,404.419" svgx:width="0.36,0.44,0.3,0.5,0.36,0.55,0.36,0.42,0.36,0.26,0.36,0.3,0.44,0.54,0.42,0.42,0.55,0.36,0.42,0.44,0.36,0.5,0.54,0.44,0.5,0.25,0.46" style="fill:rgb(0,0,0);font-family:AdvOT1ef757c0;font-size:9.27px;stroke:none;">rator resistance reasonably</text>
   <text y="480.756" x="408.699" svgx:width="0.48" style="fill:rgb(0,0,0);font-family:AdvOT1ef757c0;font-size:5.13px;stroke:none;">1</text>
   <text y="484.157" x="411.477,413.5164,419.017,426.059,428.468,432.711,437.6241,443.112,447.93,452.562,455.935,460.567,463.94,466.349,469.147,473.4112,478.942,482.797,486.846,491.8518,497.367,500.74,504.594,507.967,512.785,515.101,517.882,523.446,525.855,530.8608,536.429,541.349,543.758,548.001" svgx:width="0.22,0.55,0.76,0.26,0.46,0.53,0.55,0.52,0.5,0.36,0.5,0.36,0.26,0.3,0.46,0.55,0.42,0.44,0.54,0.55,0.36,0.42,0.36,0.52,0.25,0.3,0.55,0.26,0.54,0.55,0.53,0.26,0.46,0.53" style="fill:rgb(0,0,0);font-family:AdvOT1ef757c0;font-size:9.27px;stroke:none;">. High porosity can result in high</text>
  </g>
  <rect style="fill:pink;opacity:0.2;stroke:blue;stroke-width:0.3;" x="-0.113" y="17.524" height="36.964" width="595.446" title="2"/>
  <text y="17.524" class="image" id="image.2.1" width="595" height="36" x="-0.113" style="font-size:5.0px;">image.2.1.0_595.18_54</text>
  <rect style="fill:pink;opacity:0.2;stroke:blue;stroke-width:0.3;" x="116.957" y="529.745" height="207.666" width="361.757" title="2"/>
  <text y="529.745" class="image" id="image.2.2" width="361" height="207" x="116.957" style="font-size:5.0px;">image.2.2.117_479.530_737</text>
  <g begin="text">
   <text y="734.23" x="42.86,47.441,49.821,53.877,58.458,61.718,65.3601,68.144" svgx:width="0.54,0.28,0.48,0.54,0.38,0.43,0.55,0.49" style="fill:rgb(0,0,0);font-family:AdvOT5e4d79fc;font-size:8.47px;stroke:none;">Figure 1</text>
   <text y="734.23" x="74.721" svgx:width="0.26" style="fill:rgb(0,0,0);font-family:AdvOT5e4d79fc;font-size:8.97px;stroke:none;">|</text>
   <text y="734.23" x="78.179,82.32,85.843,90.425,94.04,101.094,104.88,107.606,109.986,113.5434,115.595,117.975,120.177,122.378,126.96,130.135,132.862,136.122,139.908,142.634,145.014,149.333,153.9915,156.186,158.828,163.147,166.3656,168.488,171.215,175.796,179.4381,181.527,186.024,189.284,192.9,197.396,201.182,204.442,208.227,210.954,213.334,217.652,222.3105,224.441,228.938,232.198,236.517,240.04,243.656,246.831,250.0496,252.106,256.425,259.0507,261.176,265.758,271.398,277.037,283.3048,285.384,288.559,292.175,296.672,300.457,303.717,307.503,310.229,314.548,317.808" svgx:width="0.49,0.42,0.54,0.43,0.83,0.45,0.32,0.28,0.42,0.55,0.28,0.26,0.26,0.54,0.38,0.32,0.38,0.45,0.32,0.28,0.51,0.55,0.55,0.31,0.51,0.38,0.55,0.32,0.54,0.43,0.55,0.53,0.38,0.43,0.53,0.45,0.38,0.45,0.32,0.28,0.51,0.55,0.55,0.53,0.38,0.51,0.42,0.43,0.38,0.38,0.55,0.51,0.31,0.55,0.54,0.67,0.67,0.74,0.55,0.38,0.43,0.53,0.45,0.38,0.45,0.32,0.51,0.38,0.24" style="fill:rgb(0,0,0);font-family:AdvOT5e4d79fc;font-size:8.47px;stroke:none;">Schematic illustration for the preparation process of FCCN separator.</text>
   <text y="734.23" x="321.959,325.134,333.154,336.71139999999997,338.796,342.497,346.993,351.49,354.572,358.095,361.618,363.904,367.605,370.247,373.77,378.2591,380.407,385.962,390.459,395.04,398.741,403.322,405.439,407.725,411.426,415.9998,418.107,423.221,427.718,431.419,436.0,439.8962,441.973,444.438,448.841,451.8902,454.048,458.545,460.831,463.7955,465.897,469.42,473.823,478.404,481.046,484.129,486.415,490.734,495.315,497.957,500.244,504.647,509.2208,511.419,513.706,518.2798,520.377,524.874,528.396,531.394,533.681,537.559,542.14,544.427,549.008" svgx:width="0.38,0.95,0.42,0.55,0.44,0.53,0.53,0.36,0.42,0.42,0.27,0.44,0.31,0.42,0.53,0.55,0.66,0.53,0.54,0.44,0.54,0.25,0.27,0.44,0.54,0.55,0.6,0.53,0.44,0.54,0.46,0.55,0.29,0.52,0.36,0.55,0.53,0.27,0.35,0.55,0.42,0.52,0.54,0.31,0.36,0.27,0.51,0.54,0.31,0.27,0.52,0.54,0.55,0.27,0.54,0.55,0.53,0.42,0.35,0.27,0.46,0.54,0.27,0.54,0.46" style="fill:rgb(0,0,0);font-family:AdvP7627;font-size:8.47px;stroke:none;">(We appreciated Chuanjian Zhang for his contribution in designing</text>
   <text y="744.718" x="42.86,46.561,51.142,55.6311,57.827,62.324,65.406,69.107,74.84,77.126,81.707,85.60319999999999,87.816,92.135,94.421,98.3,102.881,105.964,109.5214,111.74,115.796,118.972" svgx:width="0.44,0.54,0.53,0.55,0.53,0.36,0.44,0.68,0.27,0.54,0.46,0.55,0.51,0.27,0.46,0.54,0.36,0.42,0.55,0.48,0.38,0.24" style="fill:rgb(0,0,0);font-family:AdvP7627;font-size:8.47px;stroke:none;">and drawing Figure 1).</text>
   <text y="23.924" x="382.45,390.728,398.964,407.201,410.758,416.935,423.462,426.559,432.626,436.863,442.59,446.147,451.414,457.711,466.518" svgx:width="0.71,0.71,0.71,0.28,0.52,0.55,0.24,0.51,0.34,0.48,0.28,0.44,0.53,0.76,0.54" style="fill:rgb(255,255,255);font-family:AdvOT144a03c1;font-size:10.96px;stroke:none;">www.nature.com/</text>
   <text y="23.924" x="472.932,477.864,482.905,486.127,492.089,498.39,501.831,505.053,508.845,512.067,517.108,521.579,527.541,534.182,540.593,545.064,548.505" svgx:width="0.41,0.42,0.25,0.5,0.53,0.27,0.25,0.3,0.25,0.42,0.36,0.5,0.56,0.54,0.36,0.27,0.41" style="fill:rgb(255,255,255);font-family:AdvOT1415ea69.B;font-size:10.96px;stroke:none;">scientificreports</text>
  </g>
  <g begin="text">
   <text y="768.132" x="42.86,47.092,52.32,54.146,58.29,64.515,68.078,69.903,73.529,75.354" svgx:width="0.53,0.66,0.23,0.52,0.78,0.45,0.23,0.47,0.23,0.66" style="fill:rgb(178,178,177);font-family:AdvOT144a03c1;font-size:7.97px;stroke:none;">SCIENTIFIC</text>
   <text y="768.132" x="82.658,87.058,90.875,95.02,101.245,105.644,109.207" svgx:width="0.55,0.48,0.52,0.78,0.55,0.45,0.52" style="fill:rgb(178,178,177);font-family:AdvOT1415ea69.B;font-size:7.97px;stroke:none;">REPORTS</text>
   <text y="768.132" x="117.411,121.8742,123.987,128.8487,130.96,133.351,135.382,140.276,145.169,150.063,154.9247,157.038,161.5012,163.557,168.953,175.76,177.585,179.976,182.039,186.932,191.826,194.233,199.127,204.02,208.914,213.808,218.287,221.325,223.979,228.044,232.603,237.497,242.391,247.284,252.178" svgx:width="0.56,0.55,0.61,0.55,0.3,0.55,0.61,0.61,0.61,0.61,0.55,0.56,0.55,0.68,0.85,0.23,0.3,0.55,0.61,0.61,0.3,0.61,0.61,0.61,0.61,0.56,0.4,0.33,0.51,0.57,0.61,0.61,0.61,0.61,0.61" style="fill:rgb(0,0,0);font-family:AdvOT735b620e;font-size:7.97px;stroke:none;">| 4 : 3935 | DOI: 10.1038/srep03935</text>
   <text y="768.132" x="547.542" svgx:width="0.68" style="fill:rgb(0,0,0);font-family:AdvOTf32ed098.B;font-size:7.97px;stroke:none;">2</text>
  </g>
 </g>
</svg>
